<svg xmlns="http://www.w3.org/2000/svg" width="230.617" height="115.944" viewBox="0 0 230.617 115.944">
  <g id="Favicon" transform="translate(-541.511 -707.612)">
    <path id="Trazado_89" data-name="Trazado 89" d="M228.073,5.022c-1.637,18.785,28.289,39.26,28.257,57.971H200.862c.052-18.671-29.912-39.224-28.257-57.971Z" transform="translate(515.798 702.59)"/>
    <path id="Trazado_24" data-name="Trazado 24" d="M228.073,131.118c-1.637-18.785,28.289-39.26,28.257-57.971H200.862c.052,18.671-29.912,39.224-28.257,57.971Z" transform="translate(515.797 692.438)"/>
    <path id="Trazado_90" data-name="Trazado 90" d="M28.257,131.118C29.893,112.332-.032,91.858,0,73.147H55.468c-.052,18.671,29.912,39.224,28.257,57.971Z" transform="translate(541.511 692.438)"/>
    <path id="Trazado_26" data-name="Trazado 26" d="M28.257,5.022C29.893,23.807-.032,44.282,0,62.993H55.468C55.416,44.322,85.38,23.769,83.725,5.022Z" transform="translate(541.511 702.59)"/>
    <path id="Trazado_91" data-name="Trazado 91" d="M147.983,70.5a15.13,15.13,0,1,1-15.129-15.129A15.129,15.129,0,0,1,147.983,70.5" transform="translate(523.967 695.087)"/>
  </g>
</svg>
