<svg id="storage___work_from_home_upload_archive_backup_data_database_online_cloud_transfer" data-name="storage _ work from home, upload, archive, backup, data, database, online, cloud, transfer" xmlns="http://www.w3.org/2000/svg" width="427" height="397.779" viewBox="0 0 427 397.779">
  <g id="Group" transform="translate(0)">
    <path id="Path" d="M24.894,45.436c0,22.367,17.693,40.5,39.519,40.5.836,0,1.666-.03,2.489-.082.021.084.045.167.066.251a36.906,36.906,0,0,0-12.393,9.426,32.117,32.117,0,0,0-21.9-8.638C14.628,86.891,0,101.882,0,120.375s14.628,33.483,32.673,33.483a32.117,32.117,0,0,0,21.9-8.638,36.237,36.237,0,0,0,60.047-7.271,32.423,32.423,0,0,0,61.344-3.385,39.542,39.542,0,0,0,21.317,6.219c22.341,0,40.452-18.56,40.452-41.455s-18.111-41.456-40.452-41.456a39.511,39.511,0,0,0-13.215,2.265c-1.552-17.012-15.522-30.327-32.527-30.327a32.289,32.289,0,0,0-24.956,11.874S118.228-2.324,74.5.1" transform="translate(188.369 167.112)" fill="#fff"/>
    <path id="Path-2" data-name="Path" d="M26.7,46.336c.067,16.651,10.569,32.258,26.539,37.62a38.513,38.513,0,0,0,14.56,1.89.917.917,0,0,1,.876.666l.066.251a.919.919,0,0,1-.418,1.025,37.1,37.1,0,0,0-12.209,9.284.923.923,0,0,1-1.285,0,31.525,31.525,0,0,0-29.3-7.32,32.208,32.208,0,0,0-20.089,16.37,33.561,33.561,0,0,0-1.4,27.208A32.362,32.362,0,0,0,22.54,151.838a31.545,31.545,0,0,0,32.289-6.359.92.92,0,0,1,1.285,0,35.8,35.8,0,0,0,24.461,12.433,35.419,35.419,0,0,0,25-8.09,37.379,37.379,0,0,0,9.158-11.43c.4-.772,1.384-.439,1.661.217a32.283,32.283,0,0,0,22.867,19.062,31.469,31.469,0,0,0,28.024-8.137,33.024,33.024,0,0,0,8.7-14.31.918.918,0,0,1,1.335-.542,39.163,39.163,0,0,0,33.283,4.055,40.067,40.067,0,0,0,21.927-18.408A41.639,41.639,0,0,0,236.6,90.6a40.789,40.789,0,0,0-16.2-23.922,39.18,39.18,0,0,0-35.2-4.768.92.92,0,0,1-1.15-.875,32.948,32.948,0,0,0-13.677-23.732,31.416,31.416,0,0,0-27.86-4.069,32.17,32.17,0,0,0-14.4,9.99.914.914,0,0,1-1.518-.4,54.444,54.444,0,0,0-5.253-14.361C116.439,18.9,108.968,10.648,99.12,6.041A49.665,49.665,0,0,0,75.4,1.9c-1.169.062-1.165-1.754,0-1.815a52.2,52.2,0,0,1,22.12,3.3,45.573,45.573,0,0,1,15.01,9.825,59.435,59.435,0,0,1,14.3,23.62,42.913,42.913,0,0,1,1.53,5.515l-1.519-.4a33.118,33.118,0,0,1,53.509,3.124,35.187,35.187,0,0,1,5.526,15.97l-1.15-.875a40.917,40.917,0,0,1,33.705,3.118A42.511,42.511,0,0,1,237.385,86.7a43.617,43.617,0,0,1-1.587,31.146,42.032,42.032,0,0,1-21.271,21.3,40.978,40.978,0,0,1-38.123-2.9l1.335-.542a34.443,34.443,0,0,1-21.062,22.5,33.189,33.189,0,0,1-31.123-4.879,34.865,34.865,0,0,1-10.911-14.24l1.661.217a38.4,38.4,0,0,1-20.024,18.048,37.1,37.1,0,0,1-28.419-.818,37.914,37.914,0,0,1-13.03-9.775h1.285a33.417,33.417,0,0,1-30.761,7.867A33.985,33.985,0,0,1,3.873,137.345a35.321,35.321,0,0,1-1.4-29.051A34.34,34.34,0,0,1,22.057,88.962a33.356,33.356,0,0,1,34.057,6.826H54.829A38.37,38.37,0,0,1,67.405,86.22l-.418,1.025-.066-.251.876.666a39.96,39.96,0,0,1-24.979-6.914A41.681,41.681,0,0,1,27.5,61.008a42.578,42.578,0,0,1-2.615-14.672.909.909,0,0,1,1.817,0Z" transform="translate(187.473 166.212)"/>
    <path id="Path-3" data-name="Path" d="M35.13,11.8l-.017,29.065L0,32.069V0" transform="translate(149.907 331.788)" fill="#f9a1c7"/>
    <path id="Path-4" data-name="Path" d="M36.947,12.676l-.006,9.868-.009,15.6,0,3.6a.919.919,0,0,1-1.15.875l-11.9-2.982L5.024,34.912.667,33.821A.922.922,0,0,1,0,32.946V.877a.909.909,0,0,1,1.817,0V32.946L1.15,32.07l11.9,2.982,18.853,4.722,4.357,1.091-1.15.875.006-9.868.009-15.6,0-3.6a.909.909,0,0,1,1.817,0Z" transform="translate(148.999 330.911)"/>
    <path id="Path-5" data-name="Path" d="M35.13,11.8l-.017,29.065L0,32.069V0" transform="translate(74.498 331.788)" fill="#f9a1c7"/>
    <path id="Path-6" data-name="Path" d="M36.948,12.676l-.006,9.868-.009,15.6,0,3.6a.919.919,0,0,1-1.15.875l-11.9-2.982L5.024,34.912.667,33.821A.922.922,0,0,1,0,32.946V.877a.909.909,0,0,1,1.817,0V32.946L1.15,32.07l11.9,2.982,18.853,4.722,4.357,1.091-1.15.875.006-9.868.009-15.6,0-3.6a.909.909,0,0,1,1.817,0Z" transform="translate(73.589 330.911)"/>
    <path id="Path-7" data-name="Path" d="M51.759,55.364c-.606,26.623-2.833,77.717-2.833,77.717l-44.174.281L.023,33.5A32.3,32.3,0,0,1,32.319,0H134.134V53.851Z" transform="translate(66.955 217.732)" fill="#5f5fff"/>
    <path id="Path-8" data-name="Path" d="M53.576,56.279c-.136,5.952-.317,11.9-.512,17.852q-.328,9.994-.708,19.986-.355,9.464-.739,18.926-.289,7.172-.592,14.344c-.091,2.169-.12,4.352-.278,6.518,0,.03,0,.06,0,.09a.925.925,0,0,1-.909.908L34.925,135l-23.782.151-5.482.035a.925.925,0,0,1-.909-.908l-.164-3.454-.436-9.205-.631-13.31-.75-15.836L1.984,75.824,1.238,60.088.611,46.844.178,37.712C.119,36.456.037,35.2.008,33.943A33.24,33.24,0,0,1,25.114,1a39.289,39.289,0,0,1,9.585-1H135.042a.921.921,0,0,1,.909.908V48.155c0,2.166.092,4.355,0,6.52,0,.031,0,.061,0,.092a.923.923,0,0,1-.909.908l-8.193.15-19.675.361-23.8.437L62.8,57c-3.322.061-6.668.244-9.991.183-.046,0-.092,0-.138,0a.908.908,0,0,1,0-1.815l8.193-.15,19.675-.361,23.8-.437,20.574-.378,6.778-.124c1.054-.019,2.16-.137,3.213-.059.045,0,.093,0,.138,0l-.909.908V3.12a17.474,17.474,0,0,1,0-2.113.765.765,0,0,0,0-.092l.909.908H33.335A31.408,31.408,0,0,0,3.168,24.062a33.422,33.422,0,0,0-1.28,11.383l.317,6.693L2.751,53.67l.7,14.745.777,16.4L5,101.1l.692,14.617.538,11.356.3,6.371.039.829-.909-.908,14.91-.095,23.782-.151,5.482-.035-.909.908q.115-2.646.226-5.292.287-6.772.561-13.544.377-9.272.73-18.545.38-10.013.721-20.027.308-9.156.547-18.315.024-1,.047-1.994A.909.909,0,0,1,53.576,56.279Z" transform="translate(66.047 216.817)"/>
    <path id="Path-9" data-name="Path" d="M41.941,0H0S30.5,17.146,35.646,47.146c16.354-.809,21.116,0,21.116,0L59.1.187Z" transform="translate(95.788 225.9)" stroke="#000" stroke-miterlimit="10" stroke-width="1.353"/>
    <rect id="Rectangle" width="51.484" height="13.917" rx="6.958" transform="translate(68.441 338.444)" fill="#ff3e6c"/>
    <path id="Path-10" data-name="Path" d="M49.021,15.752H5.792a8.172,8.172,0,0,1-3.06-.3A4.351,4.351,0,0,1,0,11.394c-.008-1,0-2.007,0-3.01V4.733a4.569,4.569,0,0,1,1.523-3.7A5.62,5.62,0,0,1,5.461.02H41.087c2.634,0,5.273-.046,7.907,0a4.349,4.349,0,0,1,3.829,2.311A6.755,6.755,0,0,1,53.3,5.57V9.547a15.27,15.27,0,0,1-.087,2.773,4.331,4.331,0,0,1-4.2,3.432.908.908,0,0,1,0-1.815,2.506,2.506,0,0,0,2.467-2.571c.006-.994,0-1.988,0-2.982V4.821A2.736,2.736,0,0,0,50.139,2.1a5.8,5.8,0,0,0-2.58-.266H12.665c-2.753,0-5.506-.015-8.259,0a2.54,2.54,0,0,0-2.173,1.1,4.537,4.537,0,0,0-.413,2.637V9.446a15.9,15.9,0,0,0,.022,2.391,2.506,2.506,0,0,0,2.482,2.1c.248,0,.5,0,.744,0H49.021A.908.908,0,0,1,49.021,15.752Z" transform="translate(67.529 337.516)"/>
    <path id="Path-11" data-name="Path" d="M16.437,1.815H.878A.908.908,0,0,1,.878,0H16.437A.908.908,0,0,1,16.437,1.815Z" transform="translate(105.419 272.131)"/>
    <path id="Path-12" data-name="Path" d="M48.331,1.817H16.543a16.07,16.07,0,0,0-6.077,1,13.9,13.9,0,0,0-7.674,7.706,14.865,14.865,0,0,0-.965,5.789l.143,7.2.275,13.827L2.583,54.4l.338,17.018.272,13.7L3.332,92.1l.006.306a.909.909,0,0,1-1.817,0l-.1-4.931L1.174,74.953.843,58.243.5,40.751.2,25.883.024,17.043C.011,16.363-.016,15.68.013,15A15.654,15.654,0,0,1,15.663,0c.99,0,1.98,0,2.971,0h29.7a.908.908,0,0,1,0,1.815Z" transform="translate(91.753 246.036)"/>
    <path id="Path-13" data-name="Path" d="M98.636,0,87.047,23.147s-68.746-10.589-78.74.3a30.471,30.471,0,0,0-8.177,23.3l119.6,3.9,22.136-32.032" transform="translate(66.798 173.71)" fill="#ffc2d6"/>
    <path id="Path-14" data-name="Path" d="M100.356,1.377l-3.9,7.786L90.2,21.656l-1.436,2.868a.933.933,0,0,1-1.026.417c-3.423-.527-6.521-.931-9.888-1.356C70.2,22.62,62.521,21.81,54.827,21.221a225.346,225.346,0,0,0-25.682-.765,74.859,74.859,0,0,0-10.553,1.018,32.69,32.69,0,0,0-4.156,1.009q-.437.14-.867.3-.2.073-.393.15l-.229.093a.565.565,0,0,0-.081.035,12.846,12.846,0,0,0-1.481.756c-.218.131-.427.273-.636.418-.037.025-.072.053-.108.079-.183.134.15-.123-.024.019-.1.081-.2.162-.294.248a18.715,18.715,0,0,0-2.4,2.782A30.426,30.426,0,0,0,3.451,35.8,28.326,28.326,0,0,0,1.909,47.037c.012.147.1.886.032.386l-.876-.666,3.212.1,8.7.283,12.85.419,15.742.513,17.174.559,17.336.565,16.229.529,13.658.445,9.827.32c1.544.05,3.136-.007,4.673.152.065.007.132,0,.2.006l-.785.449,7.469-10.808L139.263,23.05l2.751-3.98c.66-.955,2.236-.048,1.569.916l-7.777,11.253L123.82,48.582c-.785,1.136-1.517,2.348-2.373,3.434-.5.628-1.329.434-2.041.411l-10.08-.328-17.513-.57-21.919-.714L46.753,50.06,25.589,49.37,9.368,48.842l-7.953-.259-.35-.011a.92.92,0,0,1-.876-.666A25.972,25.972,0,0,1,.635,39.3a31.981,31.981,0,0,1,2.717-7.969,28.7,28.7,0,0,1,5.5-7.863,14.511,14.511,0,0,1,6.479-3.133,55.327,55.327,0,0,1,10.013-1.484,185.367,185.367,0,0,1,25.584.281c8.2.538,16.372,1.355,24.524,2.345q4.267.518,8.525,1.106c1.34.185,2.742.284,4.062.584.059.013.121.018.18.027l-1.026.417,3.9-7.786L97.351,3.329,98.787.461c.523-1.045,2.091-.127,1.569.916Z" transform="translate(65.862 172.791)"/>
    <path id="Path-15" data-name="Path" d="M59.055.217,37.358,0A13.526,13.526,0,0,0,25.04,7.642L0,59.514S20.291,55.582,36.342,69.5C37.856,74.641,59.055.217,59.055.217Z" transform="translate(161.415 122.518)" fill="#4dcfd3"/>
    <path id="Path-16" data-name="Path" d="M59.951,2.034l-7.274-.073-11.62-.116c-.914-.009-1.828-.02-2.742-.027A12.625,12.625,0,0,0,26.7,9.049c-.183.375-.363.751-.543,1.126L23.21,16.281l-4.623,9.578L13.205,37.006,7.972,47.848l-4.11,8.515c-.694,1.438-1.34,2.914-2.088,4.326-.033.063-.062.128-.093.192L.654,59.548a39.132,39.132,0,0,1,8.467-.525,48.282,48.282,0,0,1,18.555,4.183,41.719,41.719,0,0,1,5.1,2.756,33.753,33.753,0,0,1,4.956,3.677c.147.137.412.365.4.6.008-.181-.125-.248-.037-.112a.747.747,0,0,0-.64-.368.571.571,0,0,0-.372.1c.162-.084-.087.022-.093.082a1.235,1.235,0,0,1,.185-.2c-.138.115-.131.188-.033.035.036-.057.074-.112.11-.169.082-.131.158-.267.231-.4.2-.363.371-.736.541-1.112.1-.227.2-.456.3-.685s-.055.133,0-.008l.077-.185q.09-.217.178-.434.362-.893.7-1.8c1.246-3.293,2.366-6.633,3.466-9.977,1.4-4.256,2.748-8.529,4.073-12.809q2.131-6.88,4.192-13.783,1.9-6.349,3.763-12.709,1.428-4.872,2.836-9.749c.467-1.618.914-3.243,1.4-4.857.021-.071.041-.143.061-.214a.909.909,0,0,1,1.752.483q-.289,1.013-.58,2.025-.787,2.743-1.582,5.484-1.161,4.008-2.336,8.012-1.429,4.87-2.878,9.734-1.572,5.273-3.175,10.536-1.6,5.232-3.237,10.451-1.5,4.75-3.063,9.478c-.846,2.541-1.711,5.076-2.641,7.588a51.257,51.257,0,0,1-2.087,5.073c-.4.8-1.207,2.362-2.346,1.664a1.3,1.3,0,0,1-.54-.764l.234.4a42.14,42.14,0,0,0-18.9-9.2,48.3,48.3,0,0,0-14.12-.851q-.551.048-1.1.112c-.154.018-.307.038-.461.057-.235.029.175-.026,0,0l-.179.025c-.231.034-.463.068-.693.112A.921.921,0,0,1,.111,59.965l1.461-3.027,3.749-7.766,5.086-10.535L15.878,27.3l4.905-10.162,3.389-7.02A23.124,23.124,0,0,1,27.1,5.112,14.41,14.41,0,0,1,34.859.374,18.327,18.327,0,0,1,39.168.011l10.438.1,9.782.1.564.006A.908.908,0,0,1,59.951,2.034Z" transform="translate(160.52 121.61)"/>
    <path id="Path-17" data-name="Path" d="M9.053,0,.532.21S-2.423,9.626,5.6,13.7C13.386,17.661,9.053,0,9.053,0Z" transform="translate(186.523 217.211)"/>
    <path id="Path-18" data-name="Path" d="M9.98,1.815l-8.521.21.876-.666a10.812,10.812,0,0,0-.32,1.434c-.019.116-.037.232-.054.348-.035.238.016-.133,0,.02-.008.065-.016.13-.024.195q-.048.421-.073.844a14.275,14.275,0,0,0,.018,1.981,10.009,10.009,0,0,0,1.194,4.038,9.122,9.122,0,0,0,3.837,3.57,3.828,3.828,0,0,0,.7.31c.127.043.255.082.386.114.049.012.1.021.147.033.2.05.062.016.075.018.1.01.2.017.3.017.077,0,.4-.045.126.005.1-.017.187-.041.281-.064.036-.009.071-.025.106-.036.165-.051-.176.106.009-.009.077-.048.156-.093.232-.144-.079.053-.063.068.048-.053.064-.07.129-.137.19-.209-.172.2.054-.091.093-.156.048-.08.088-.164.133-.245.025-.047.046-.1.068-.145-.088.192-.033.08-.016.035a6.676,6.676,0,0,0,.228-.733c.054-.221.095-.444.133-.668a1.057,1.057,0,0,0,.032-.233c.017-.165.034-.329.046-.494.044-.583.052-1.169.039-1.753-.013-.612-.051-1.223-.1-1.832q-.036-.411-.081-.821-.025-.225-.052-.45-.013-.111-.028-.223c0-.035-.044-.335-.02-.155A45.652,45.652,0,0,0,9.1,1.149C8.826.015,10.577-.469,10.856.667c.355,1.45.619,2.927.831,4.4a22.035,22.035,0,0,1,.124,7.761,4.444,4.444,0,0,1-1.555,2.721,3.408,3.408,0,0,1-3.126.3A10.7,10.7,0,0,1,.269,7.738,14.564,14.564,0,0,1,.582.877.935.935,0,0,1,1.458.21L9.979,0A.908.908,0,0,1,9.98,1.815Z" transform="translate(185.597 216.303)"/>
    <path id="Path-19" data-name="Path" d="M3.376,0S18.007,2.811,19.7,11.243,0,21.642,0,21.642" transform="translate(254.3 207.021)"/>
    <path id="Path-20" data-name="Path" d="M4.527.019a35,35,0,0,1,6.98,2.216c3.659,1.554,7.622,3.92,9.319,7.693a6.44,6.44,0,0,1,.433,5,7.967,7.967,0,0,1-3.041,3.522c-2.946,2.043-6.631,3.06-10.092,3.825q-2.242.5-4.516.824c-.85.125-1.722.288-2.582.329-.04,0-.079.008-.119.012A.915.915,0,0,1,0,22.537a.927.927,0,0,1,.909-.908c.517-.048,1.033-.114,1.548-.181l.023,0,.186-.026.427-.061q.474-.069.948-.145,1.08-.174,2.154-.383a34.768,34.768,0,0,0,9.68-3.078c.344-.184.682-.38,1.012-.59q.247-.158.488-.326c.072-.051.144-.1.215-.155a1.122,1.122,0,0,0,.127-.1,8.777,8.777,0,0,0,.807-.728c.112-.115.219-.234.323-.356.023-.027.156-.192.1-.122s.086-.12.113-.157a5.136,5.136,0,0,0,.481-.851c-.065.146,0,.011.019-.057s.049-.139.071-.21c.048-.153.084-.309.116-.466.015-.075.036-.274.018-.091.008-.075.015-.15.019-.226a4.444,4.444,0,0,0,0-.5c0-.079-.011-.158-.019-.237,0-.042.019.09-.013-.08-.046-.244-.1-.486-.168-.725-1.028-3.649-4.677-5.987-7.974-7.52A41.981,41.981,0,0,0,4.183,1.8c-.046-.012-.093-.019-.139-.028C2.9,1.548,3.383-.2,4.527.019Z" transform="translate(253.391 206.127)"/>
    <path id="Path-21" data-name="Path" d="M23.925,0H63.134c5.6,0,8.53,2.314,10.934,10.528,0,0,11.032,48.379,17.009,84.491C53.6,104.59,0,94.9,0,94.9L20.291,21.282" transform="translate(182.918 122.52)" fill="#4dcfd3"/>
    <path id="Path-22" data-name="Path" d="M24.832,0h32.7C59.7,0,61.861,0,64.026,0a10.912,10.912,0,0,1,6.337,1.656c2.368,1.669,3.685,4.348,4.659,7a50.492,50.492,0,0,1,1.727,6.523q1.4,6.285,2.768,12.579,2.01,9.266,3.94,18.549Q85.719,57.2,87.85,68.118c1.441,7.416,2.828,14.842,4.116,22.286q.457,2.64.895,5.284a.928.928,0,0,1-.635,1.116,137.935,137.935,0,0,1-23.395,3.642,230.592,230.592,0,0,1-23.9.518c-7.133-.189-14.258-.644-21.361-1.313Q15.625,98.9,7.721,97.787q-2.4-.34-4.8-.722c-.715-.115-1.456-.193-2.161-.361C.73,96.7.7,96.692.665,96.686a.917.917,0,0,1-.635-1.116L.572,93.6l1.474-5.349,2.181-7.913,2.661-9.656L9.8,60.107l2.958-10.734,2.745-9.958L17.828,31,19.5,24.946c.263-.955.5-1.923.791-2.87.013-.041.023-.083.034-.124a.909.909,0,0,1,1.752.483L21.532,24.4l-1.474,5.349-2.181,7.913-2.661,9.656L12.3,57.9,9.341,68.63,6.6,78.588,4.277,87,2.608,93.057c-.261.947-.46,1.945-.791,2.87-.014.04-.023.083-.034.124l-.635-1.116c1.858.335,3.727.616,5.595.89,4.8.7,9.648,1.294,14.6,1.793,6.88.693,13.781,1.186,20.691,1.439,7.858.288,15.734.27,23.584-.205a145.473,145.473,0,0,0,23.4-3.143q1.363-.309,2.718-.655l-.635,1.116c-1.213-7.325-2.54-14.63-3.925-21.924q-2.1-11.037-4.362-22.041-2-9.767-4.1-19.514-1.541-7.176-3.13-14.343c-.483-2.176-.941-4.36-1.463-6.527a21.187,21.187,0,0,0-2.555-6.235,7.469,7.469,0,0,0-5.225-3.6A17.806,17.806,0,0,0,63.3,1.818H24.832a.908.908,0,0,1,0-1.815Z" transform="translate(182.011 121.61)"/>
    <path id="Path-23" data-name="Path" d="M45.356,1.361l4.693,3.868a8.993,8.993,0,0,0,11.71-.235h6.057l-.054,31.161H.008s-1.155-19.217,24.14-21.246A9.034,9.034,0,0,0,32.432,5.8l0-.241A5.508,5.508,0,0,1,38.086,0l3.906.1a5.516,5.516,0,0,1,3.365,1.257Z" transform="translate(117.222 360.678)" fill="#ffcc3e"/>
    <path id="Path-24" data-name="Path" d="M46.906,1.629l2.858,2.355a17.867,17.867,0,0,0,3.478,2.539,8.1,8.1,0,0,0,8.524-1.039A1.565,1.565,0,0,1,62.759,5c.546-.022,1.1,0,1.644,0h4.32a.921.921,0,0,1,.909.908l-.018,10.585-.029,16.729-.007,3.847a.922.922,0,0,1-.909.908H9.236c-2.729,0-5.474.085-8.2,0-.039,0-.078,0-.117,0a.927.927,0,0,1-.909-.908,16.719,16.719,0,0,1,.465-4.441,20.734,20.734,0,0,1,4.445-9.008,24.737,24.737,0,0,1,12.749-7.5,40.41,40.41,0,0,1,4.986-.95,16.986,16.986,0,0,0,4.968-.918A8.235,8.235,0,0,0,32.431,6.87a6.941,6.941,0,0,1,1.519-4.6A6.453,6.453,0,0,1,38.3.029a22.935,22.935,0,0,1,2.811.03,15.849,15.849,0,0,1,3.119.217,6.7,6.7,0,0,1,2.676,1.353.912.912,0,0,1,0,1.284.931.931,0,0,1-1.285,0,5.429,5.429,0,0,0-3.44-1.01c-1-.026-2-.054-3-.078a4.69,4.69,0,0,0-4.933,4.828A10.137,10.137,0,0,1,29.954,15a9.87,9.87,0,0,1-4.585,1.7c-1.684.191-3.355.34-5.021.668-4.913.965-9.727,2.948-13.23,6.53a17.653,17.653,0,0,0-3.125,4.3q-.291.553-.547,1.123-.062.138-.122.277a.569.569,0,0,0-.039.093c-.073.181-.145.362-.214.544a20.392,20.392,0,0,0-.648,2.039q-.233.894-.386,1.807c-.021.129-.041.257-.061.386-.009.058-.016.116-.025.174.011-.076.02-.169,0,.023-.027.234-.054.469-.074.7-.046.541-.008,1.09-.056,1.628a.516.516,0,0,0,0,.074l-.909-.908H65.909c.87,0,1.775-.071,2.643,0,.038,0,.078,0,.117,0l-.909.908.018-10.585.029-16.729L67.815,5.9l.909.908H62.666l.642-.266A9.978,9.978,0,0,1,53.294,8.5c-2.187-.816-3.9-2.476-5.669-3.937l-2-1.652C44.719,2.168,46.011.89,46.906,1.629Z" transform="translate(116.314 359.769)"/>
    <path id="Path-25" data-name="Path" d="M51.759,55.364c-.606,26.623-2.833,77.717-2.833,77.717l-44.174.281L.023,33.5A32.3,32.3,0,0,1,32.319,0H134.134l2.787,14.576A33.634,33.634,0,0,1,104.409,54.5Z" transform="translate(139.941 217.732)" fill="#5f5fff"/>
    <path id="Path-26" data-name="Path" d="M53.576,56.279c-.136,5.942-.317,11.884-.511,17.825q-.329,10.024-.71,20.047-.355,9.449-.737,18.9-.29,7.189-.593,14.377c-.091,2.158-.118,4.33-.277,6.484,0,.029,0,.059,0,.088a.925.925,0,0,1-.909.908l-15.026.1-23.739.151-5.408.034a.925.925,0,0,1-.909-.908l-.162-3.431-.438-9.24-.631-13.32L2.771,92.439l-.786-16.59L1.239,60.1.609,46.8.179,37.712C.117,36.421.032,35.129.006,33.837A33.241,33.241,0,0,1,25.134,1,39.292,39.292,0,0,1,34.7.008H135.042a.919.919,0,0,1,.876.666l1.968,10.291c.821,4.291,1.666,8.521,1.4,12.926a34.627,34.627,0,0,1-20.415,29.45,35.711,35.711,0,0,1-13.963,2.993l-6.837.112-12.367.2-14.079.23-12.141.2-6.514.106-.3,0a.908.908,0,0,1,0-1.815L57.1,55.3l10.907-.178L81.726,54.9l13.082-.214,8.79-.143a39.982,39.982,0,0,0,9.283-1.03,32.677,32.677,0,0,0,24.509-34.681c-.148-1.627-.462-3.223-.768-4.824L134.343,2.08l-.177-.923.876.666H33.34A31.408,31.408,0,0,0,3.153,24.113,33.422,33.422,0,0,0,1.888,35.441l.317,6.691.546,11.535.7,14.751.777,16.407L5,101.119l.693,14.62.536,11.317.3,6.386.04.836-.909-.908,15.026-.1,23.739-.151,5.408-.034-.909.908q.115-2.639.226-5.278.288-6.793.563-13.586.376-9.261.729-18.522.381-10.043.723-20.087.307-9.139.545-18.281.024-.982.046-1.964A.909.909,0,0,1,53.576,56.279Z" transform="translate(139.033 216.817)"/>
    <path id="Path-27" data-name="Path" d="M67.754,11.5H0A19.572,19.572,0,0,1,1.484,4.841l9.691-.3,4.6-1.733a17.781,17.781,0,0,1,11.378.049h0a17.78,17.78,0,0,0,9.97.454l3.653-.89a17.781,17.781,0,0,1,7.468-.2l5.177.965a17.779,17.779,0,0,0,11.27-1.606L67.808,0Z" transform="translate(117.229 385.337)" fill="#fff"/>
    <path id="Path-28" data-name="Path" d="M68.663,13.3H9.229c-2.729,0-5.474.085-8.2,0-.039,0-.078,0-.117,0A.923.923,0,0,1,0,12.4,19.373,19.373,0,0,1,1.517,5.5a.948.948,0,0,1,.876-.666l9.1-.284a4.66,4.66,0,0,1,.529-.016c.177.015-.175-.007-.174.028a1.777,1.777,0,0,1,.225-.085l2.431-.916c.64-.241,1.278-.5,1.923-.725A17.732,17.732,0,0,1,21.568,1.9a18.7,18.7,0,0,1,5.563.619A29.491,29.491,0,0,0,32.4,3.748a17.22,17.22,0,0,0,5.4-.416c.733-.175,1.464-.357,2.2-.535a22.359,22.359,0,0,1,8.335-.725c1.728.227,3.443.609,5.156.929a19.067,19.067,0,0,0,7.626.1A27.21,27.21,0,0,0,67.594.452l.665-.335A.919.919,0,0,1,69.626.9l-.047,10.08L69.572,12.4a.909.909,0,0,1-1.817,0L67.8,2.317,67.809.9l1.367.784c-1.545.78-3.075,1.626-4.681,2.275a18.825,18.825,0,0,1-10.417.992c-1.559-.284-3.116-.581-4.674-.872a18.127,18.127,0,0,0-7.718.171,45.91,45.91,0,0,1-6,1.271,18.6,18.6,0,0,1-5.773-.316c-1.779-.375-3.449-1.085-5.258-1.345a17.062,17.062,0,0,0-8.451.991l-2.734,1.03a5.349,5.349,0,0,1-1.43.466c-1.427.1-2.871.089-4.3.134l-5.035.157-.313.01.876-.666A18.058,18.058,0,0,0,1.818,12.4l-.909-.908H60.344c2.729,0,5.474-.085,8.2,0,.039,0,.078,0,.117,0A.908.908,0,0,1,68.663,13.3Z" transform="translate(116.32 384.437)"/>
    <path id="Path-29" data-name="Path" d="M1.365.117A5.951,5.951,0,0,1,2.549.994,6.846,6.846,0,0,1,4.335,3.636a6.416,6.416,0,0,1,.39,2.228.909.909,0,0,1-1.817,0c0-.147-.005-.294-.016-.441-.006-.082-.016-.164-.024-.247-.01-.109.006.068.009.069a.761.761,0,0,1-.022-.135,5.429,5.429,0,0,0-.21-.818q-.03-.088-.063-.175c-.011-.028-.024-.057-.033-.085-.034-.1.032.083.034.077.017-.077-.141-.3-.177-.371a5.7,5.7,0,0,0-.374-.614Q1.987,3.06,1.94,3l-.047-.062c-.057-.079.07.089.064.083-.076-.071-.137-.168-.206-.246q-.2-.221-.41-.423c-.123-.116-.252-.225-.383-.332-.176-.143.186.134-.013-.009-.05-.036-.1-.072-.15-.107a3.529,3.529,0,0,0-.347-.216A.914.914,0,0,1,.122.443.929.929,0,0,1,1.365.117Z" transform="translate(146.085 372.069)"/>
    <path id="Path-30" data-name="Path" d="M1.365.117A5.95,5.95,0,0,1,2.549.994,6.847,6.847,0,0,1,4.335,3.636a6.416,6.416,0,0,1,.39,2.228.909.909,0,0,1-1.817,0c0-.147-.005-.294-.016-.441-.006-.082-.016-.164-.024-.247-.01-.109.006.068.01.069a.757.757,0,0,1-.022-.135,5.434,5.434,0,0,0-.21-.818q-.03-.088-.063-.175c-.011-.028-.024-.057-.033-.085-.034-.1.032.083.034.077.017-.077-.141-.3-.177-.371a5.687,5.687,0,0,0-.374-.614Q1.987,3.06,1.94,3l-.047-.062c-.057-.079.07.089.064.083-.076-.071-.137-.168-.206-.246q-.2-.221-.41-.423c-.123-.116-.252-.225-.383-.332-.176-.143.186.134-.013-.009-.05-.036-.1-.072-.15-.107a3.534,3.534,0,0,0-.347-.216A.915.915,0,0,1,.122.443.929.929,0,0,1,1.365.117Z" transform="translate(141.613 374.474)"/>
    <path id="Path-31" data-name="Path" d="M1.365.117A5.95,5.95,0,0,1,2.549.994,6.847,6.847,0,0,1,4.335,3.636a6.415,6.415,0,0,1,.39,2.228.909.909,0,0,1-1.817,0c0-.147-.005-.294-.016-.441-.006-.083-.016-.164-.024-.247-.01-.109.006.068.01.069a.758.758,0,0,1-.022-.135,5.437,5.437,0,0,0-.21-.818q-.03-.088-.063-.175c-.011-.028-.024-.057-.033-.085-.034-.1.032.083.034.077.017-.077-.141-.3-.177-.371a5.683,5.683,0,0,0-.374-.614Q1.987,3.06,1.94,3l-.047-.062c-.057-.079.07.089.064.083-.076-.071-.137-.168-.206-.246q-.2-.221-.41-.423c-.123-.116-.252-.225-.383-.332-.176-.143.186.134-.013-.009-.05-.036-.1-.072-.15-.107a3.543,3.543,0,0,0-.347-.216A.915.915,0,0,1,.122.443.929.929,0,0,1,1.365.117Z" transform="translate(135.545 375.505)"/>
    <path id="Path-32" data-name="Path" d="M45.356,1.361l4.693,3.868a8.993,8.993,0,0,0,11.71-.235h6.057l-.054,31.161H.008S-1.147,16.936,24.151,14.909A9.033,9.033,0,0,0,32.432,5.8l0-.241A5.509,5.509,0,0,1,38.086,0l3.906.1a5.516,5.516,0,0,1,3.365,1.257Z" transform="translate(41.813 360.678)" fill="#ffcc3e"/>
    <path id="Path-33" data-name="Path" d="M46.906,1.629l2.858,2.355a17.867,17.867,0,0,0,3.478,2.539,8.1,8.1,0,0,0,8.524-1.039A1.565,1.565,0,0,1,62.759,5c.546-.022,1.1,0,1.644,0h4.32a.921.921,0,0,1,.909.908l-.018,10.585-.029,16.729-.007,3.847a.922.922,0,0,1-.909.908H9.236c-2.729,0-5.474.085-8.2,0-.039,0-.078,0-.117,0a.927.927,0,0,1-.909-.908,16.718,16.718,0,0,1,.465-4.442,20.734,20.734,0,0,1,4.445-9.008,24.738,24.738,0,0,1,12.751-7.5,40.419,40.419,0,0,1,4.987-.95,16.969,16.969,0,0,0,4.967-.917,8.235,8.235,0,0,0,4.809-7.376,6.941,6.941,0,0,1,1.519-4.6A6.453,6.453,0,0,1,38.3.029a22.936,22.936,0,0,1,2.811.03,15.849,15.849,0,0,1,3.119.217,6.7,6.7,0,0,1,2.676,1.353.912.912,0,0,1,0,1.284.931.931,0,0,1-1.285,0,5.43,5.43,0,0,0-3.44-1.01c-1-.026-2-.054-3-.078a4.69,4.69,0,0,0-4.933,4.829A10.137,10.137,0,0,1,29.956,15a9.862,9.862,0,0,1-4.584,1.7c-1.684.191-3.355.34-5.022.667-4.913.965-9.728,2.948-13.231,6.53a17.652,17.652,0,0,0-3.125,4.3q-.292.553-.547,1.123-.062.138-.122.277a.569.569,0,0,0-.039.093c-.073.181-.145.362-.214.544a20.383,20.383,0,0,0-.648,2.039q-.233.894-.386,1.807c-.021.129-.041.257-.061.386-.009.058-.016.116-.025.174.011-.076.02-.169,0,.023-.027.234-.054.469-.074.7-.046.541-.008,1.09-.056,1.628a.521.521,0,0,0,0,.074l-.909-.908H65.909c.87,0,1.775-.071,2.643,0,.038,0,.078,0,.117,0l-.909.908.018-10.585.029-16.729L67.815,5.9l.909.908H62.666l.642-.266A9.978,9.978,0,0,1,53.294,8.5c-2.187-.816-3.9-2.476-5.669-3.937l-2-1.652C44.719,2.169,46.011.891,46.906,1.629Z" transform="translate(40.905 359.768)"/>
    <path id="Path-34" data-name="Path" d="M67.754,11.5H0A19.573,19.573,0,0,1,1.484,4.841l9.691-.3,4.6-1.733a17.781,17.781,0,0,1,11.378.049h0a17.78,17.78,0,0,0,9.97.454l3.653-.89a17.782,17.782,0,0,1,7.468-.2l5.177.965a17.779,17.779,0,0,0,11.27-1.606L67.808,0Z" transform="translate(41.82 385.337)" fill="#fff"/>
    <path id="Path-35" data-name="Path" d="M68.663,13.3H9.229c-2.729,0-5.474.085-8.2,0-.039,0-.078,0-.117,0A.923.923,0,0,1,0,12.4,19.373,19.373,0,0,1,1.517,5.5a.948.948,0,0,1,.876-.666l9.1-.284a4.66,4.66,0,0,1,.529-.016c.177.015-.175-.007-.174.028a1.777,1.777,0,0,1,.225-.085l2.431-.916c.64-.241,1.278-.5,1.923-.725A17.732,17.732,0,0,1,21.568,1.9a18.7,18.7,0,0,1,5.563.619A29.493,29.493,0,0,0,32.4,3.748a17.22,17.22,0,0,0,5.4-.416c.733-.175,1.464-.357,2.2-.535a22.359,22.359,0,0,1,8.335-.725c1.728.227,3.443.609,5.156.929a19.067,19.067,0,0,0,7.626.1A27.211,27.211,0,0,0,67.594.452l.665-.335A.919.919,0,0,1,69.626.9l-.047,10.08L69.572,12.4a.909.909,0,0,1-1.817,0L67.8,2.317,67.809.9l1.367.784c-1.545.78-3.075,1.626-4.681,2.275a18.825,18.825,0,0,1-10.417.992c-1.559-.284-3.116-.581-4.674-.872a18.127,18.127,0,0,0-7.718.171,45.91,45.91,0,0,1-6,1.271,18.6,18.6,0,0,1-5.773-.316c-1.779-.375-3.449-1.085-5.258-1.345a17.062,17.062,0,0,0-8.451.991l-2.734,1.03a5.349,5.349,0,0,1-1.43.466c-1.427.1-2.871.089-4.3.134l-5.035.157-.313.01.876-.666A18.059,18.059,0,0,0,1.818,12.4l-.909-.908H60.344c2.729,0,5.474-.085,8.2,0,.039,0,.078,0,.117,0A.908.908,0,0,1,68.663,13.3Z" transform="translate(40.911 384.437)"/>
    <path id="Path-36" data-name="Path" d="M1.365.117A5.951,5.951,0,0,1,2.549.994,6.847,6.847,0,0,1,4.335,3.636a6.416,6.416,0,0,1,.39,2.228.909.909,0,0,1-1.817,0c0-.147-.005-.294-.016-.441-.006-.082-.016-.164-.024-.247-.01-.109.006.068.009.069a.757.757,0,0,1-.022-.135,5.435,5.435,0,0,0-.21-.818q-.03-.088-.063-.175c-.011-.028-.024-.057-.033-.085-.034-.1.032.083.034.077.017-.077-.141-.3-.177-.371a5.7,5.7,0,0,0-.374-.614Q1.987,3.06,1.94,3l-.047-.062c-.057-.079.07.089.064.083-.076-.071-.137-.168-.206-.246q-.2-.221-.41-.423c-.123-.116-.252-.225-.383-.332-.176-.143.186.134-.013-.009-.05-.036-.1-.072-.15-.107a3.535,3.535,0,0,0-.347-.216A.915.915,0,0,1,.122.443.929.929,0,0,1,1.365.117Z" transform="translate(70.676 372.069)"/>
    <path id="Path-37" data-name="Path" d="M1.365.117A5.95,5.95,0,0,1,2.549.994,6.847,6.847,0,0,1,4.335,3.636a6.416,6.416,0,0,1,.39,2.228.909.909,0,0,1-1.817,0c0-.147-.005-.294-.016-.441-.006-.082-.016-.164-.024-.247-.01-.109.006.068.01.069a.757.757,0,0,1-.022-.135,5.434,5.434,0,0,0-.21-.818q-.03-.088-.063-.175c-.011-.028-.024-.057-.033-.085-.034-.1.032.083.034.077.017-.077-.141-.3-.177-.371a5.687,5.687,0,0,0-.374-.614Q1.987,3.06,1.94,3l-.047-.062c-.057-.079.07.089.064.083-.076-.071-.137-.168-.206-.246q-.2-.221-.41-.423c-.123-.116-.252-.225-.383-.332-.176-.143.186.134-.013-.009-.05-.036-.1-.072-.151-.107a3.529,3.529,0,0,0-.347-.216A.915.915,0,0,1,.122.443.929.929,0,0,1,1.365.117Z" transform="translate(66.204 374.474)"/>
    <path id="Path-38" data-name="Path" d="M1.365.117A5.95,5.95,0,0,1,2.549.994,6.847,6.847,0,0,1,4.335,3.636a6.415,6.415,0,0,1,.39,2.228.909.909,0,0,1-1.817,0c0-.147-.005-.294-.016-.441-.006-.083-.016-.164-.024-.247-.01-.109.006.068.01.069a.758.758,0,0,1-.022-.135,5.437,5.437,0,0,0-.21-.818q-.03-.088-.063-.175c-.011-.028-.024-.057-.033-.085-.034-.1.032.083.034.077.017-.077-.141-.3-.177-.371a5.683,5.683,0,0,0-.374-.614Q1.987,3.06,1.94,3l-.047-.062c-.057-.079.07.089.064.083-.076-.071-.137-.168-.206-.246q-.2-.221-.41-.423c-.123-.116-.252-.225-.383-.332-.176-.143.186.134-.013-.009-.05-.036-.1-.072-.151-.107a3.537,3.537,0,0,0-.347-.216A.915.915,0,0,1,.122.443.929.929,0,0,1,1.365.117Z" transform="translate(60.136 375.505)"/>
    <path id="Path-39" data-name="Path" d="M14.312,28.438,0,68.578A127.364,127.364,0,0,1,12.28,72.7c7.767,3.042,24.987,18.532,30.209,21.942l18.649-55A30.018,30.018,0,0,0,32.682,0H9.164" transform="translate(231.597 122.433)" fill="#4dcfd3"/>
    <path id="Path-40" data-name="Path" d="M16.1,29.591l-1.42,3.981-3.411,9.565L7.118,54.768,3.548,64.781,2.366,68.1a14.592,14.592,0,0,1-.557,1.563.664.664,0,0,0-.025.071l-.635-1.116q3.636,1.013,7.2,2.251c2.037.7,4.109,1.4,6.072,2.3a45.007,45.007,0,0,1,7.053,4.3C27.08,81.4,32.364,85.78,37.7,90.067c2.069,1.662,3.953,3.261,6.153,4.7l-1.335.542,1.672-4.932,4.094-12.076,5.076-14.971,4.66-13.745,2.837-8.367c.314-.927.628-1.853.883-2.8A29.1,29.1,0,0,0,34.7,1.838c-3.506-.125-7.031-.02-10.539-.02H10.071a.908.908,0,0,1,0-1.815h23.1A30.9,30.9,0,0,1,62.894,40.876Q61.859,43.936,60.819,47L56.495,59.749,51.322,75l-4.5,13.282-2.434,7.179-.112.331a.919.919,0,0,1-1.335.542c-1.912-1.253-3.69-2.724-5.474-4.148-2.523-2.015-5.025-4.055-7.551-6.065-2.711-2.157-5.443-4.29-8.254-6.316a57.913,57.913,0,0,0-7.234-4.634A45.635,45.635,0,0,0,8.672,72.9Q4.713,71.5.666,70.364a.916.916,0,0,1-.635-1.116l1.42-3.981L4.861,55.7,9.009,44.071l3.57-10.014c.579-1.625,1.131-3.264,1.739-4.878.009-.023.017-.047.025-.071.389-1.093,2.146-.622,1.752.483Z" transform="translate(230.69 121.522)"/>
    <path id="Path-41" data-name="Path" d="M17.28,12.141C18.408,9.268,14.342,4.725,7.105,0L0,13.856C9.335,15.646,16.085,15.186,17.28,12.141Z" transform="translate(256.635 205.091)"/>
    <path id="Path-42" data-name="Path" d="M17.308,12.805a1.728,1.728,0,0,0,.149-.954q0-.086-.014-.171.022.145,0-.02-.024-.134-.056-.267a4.791,4.791,0,0,0-.206-.644,10.075,10.075,0,0,0-1.725-2.6,37.793,37.793,0,0,0-7.9-6.461l1.243-.326L2.569,13.5,1.688,15.22l-.543-1.333a42.742,42.742,0,0,0,11.175.946,11.857,11.857,0,0,0,3.338-.687,5.119,5.119,0,0,0,.662-.336c.1-.059.2-.123.29-.189s-.02.036.14-.114c.077-.072.155-.143.227-.22.028-.03.223-.283.1-.111.058-.082.11-.166.161-.252.022-.037.153-.325.068-.118a.938.938,0,0,1,1.118-.634.913.913,0,0,1,.635,1.116c-.719,1.758-2.456,2.6-4.222,3a25.677,25.677,0,0,1-8.1.241c-2.04-.195-4.067-.508-6.079-.891A.917.917,0,0,1,.119,14.3L6.343,2.166,7.224.447A.916.916,0,0,1,8.468.122,37.9,37.9,0,0,1,17.011,7.19c1.336,1.605,2.868,3.913,2.049,6.1a.934.934,0,0,1-1.118.634.915.915,0,0,1-.635-1.116Z" transform="translate(255.731 204.185)"/>
    <path id="Path-43" data-name="Path" d="M0,9.076H95.7A9.081,9.081,0,0,0,104.785,0H0Z" transform="translate(82.372 216.824)" fill="#fff"/>
    <path id="Path-44" data-name="Path" d="M.909,9.088H95.641c.318,0,.636,0,.954,0A8.177,8.177,0,0,0,102.387,6.7a8.16,8.16,0,0,0,2.4-5.782l.909.908H5.163c-1.353,0-2.727.069-4.079,0-.058,0-.117,0-.176,0L1.817.92V10A.909.909,0,0,1,0,10V.92A.921.921,0,0,1,.909.012h100.53c1.359,0,2.72-.027,4.079,0,.059,0,.117,0,.176,0A.922.922,0,0,1,106.6.92a10.08,10.08,0,0,1-4.824,8.546A10.273,10.273,0,0,1,96.427,10.9q-2.156,0-4.312,0H5.4c-1.434,0-2.872.028-4.306,0-.062,0-.124,0-.187,0A.908.908,0,0,1,.909,9.088Z" transform="translate(81.464 215.905)"/>
    <path id="Path-45" data-name="Path" d="M95.823,72.246,75.8,0H0L19.239,69.4a12.222,12.222,0,0,0,11.78,8.952h66.5" transform="translate(0.906 147.544)" fill="#fff"/>
    <path id="Path-46" data-name="Path" d="M95.853,73.438l-2-7.226L89.072,48.976,83.3,28.141,78.281,10.047,76.638,4.122c-.257-.926-.6-1.864-.779-2.808-.008-.041-.022-.081-.034-.121l.876.666H4.012c-.982,0-2,.079-2.981,0-.041,0-.083,0-.125,0L1.782.71,3.737,7.763,8.431,24.7l5.625,20.293,4.8,17.3c.72,2.6,1.428,5.2,2.16,7.794a11.444,11.444,0,0,0,8.8,8.118,19.161,19.161,0,0,0,3.69.194H98.423a.908.908,0,0,1,0,1.815H32.118a13.343,13.343,0,0,1-9.757-4.13,14.38,14.38,0,0,1-3.277-6.16l-1.091-3.934L13.7,50.5,8.089,30.265,2.975,11.816.162,1.668.03,1.192A.917.917,0,0,1,.906.043H67.367c3.064,0,6.147-.1,9.21,0,.041,0,.083,0,.125,0a.926.926,0,0,1,.876.666l2,7.226,4.778,17.236,5.775,20.834L95.151,64.1c.806,2.906,1.706,5.8,2.421,8.733.01.041.022.081.034.121a.909.909,0,0,1-1.752.483Z" transform="translate(0 146.592)"/>
    <path id="Path-47" data-name="Path" d="M105.249,9.471a127.364,127.364,0,0,0-12.28-4.123L86.842,22.3,85.1,27.117,7.947,0,0,30.5,72.445,63.03c15.758,5.467,33.3-1.8,41.518-16.3l4.664-9.75,6.483-17.547A111.691,111.691,0,0,0,105.249,9.471Z" transform="translate(138.629 185.663)" fill="#ffc2d6"/>
    <path id="Path-48" data-name="Path" d="M105.915,11.252a128.958,128.958,0,0,0-12.28-4.123L94.752,6.5l-3.084,8.532-3.043,8.417-1.742,4.82a.922.922,0,0,1-1.118.634l-7.709-2.71L59.668,19.726,37.319,11.871,18.106,5.118,11.743,2.882c-.984-.346-2.06-.614-3.005-1.056-.039-.018-.084-.03-.125-.044L9.73,1.148,7.042,11.47,2.76,27.9l-.976,3.748-.418-1.025L6.43,32.9l12.746,5.722,16.7,7.5L52.937,53.78l13.816,6.2c2.281,1.024,4.547,2.1,6.848,3.075a13.092,13.092,0,0,0,1.552.5,31.727,31.727,0,0,0,6.674,1.206A33.533,33.533,0,0,0,94.985,63.03a34.818,34.818,0,0,0,11.439-6.548,35.765,35.765,0,0,0,4.785-5,26.513,26.513,0,0,0,2.942-4.446c1.155-2.322,2.24-4.682,3.359-7.022a28.123,28.123,0,0,1,1.217-2.544c.1-.161-.069.272-.058.14a.933.933,0,0,1,.073-.2c.1-.287.211-.572.317-.857l5.6-15.166.48-1.3.418,1.025a108.73,108.73,0,0,0-19.645-9.865c-1.076-.423-.607-2.179.483-1.75A111.029,111.029,0,0,1,126.477,19.55a.924.924,0,0,1,.418,1.025L121.9,34.084c-.531,1.437-.981,2.944-1.623,4.337-1.07,2.322-2.208,4.615-3.311,6.921-.425.888-.83,1.788-1.275,2.666a29.559,29.559,0,0,1-3.312,4.9,36.78,36.78,0,0,1-10.36,8.9A35.384,35.384,0,0,1,75.54,65.55a44.367,44.367,0,0,1-6.876-2.73L56.367,57.3,39.691,49.812,22.375,42.038,8.16,35.656.786,32.346l-.336-.151A.914.914,0,0,1,.032,31.17L2.721,20.848,7,4.413,7.978.665A.916.916,0,0,1,9.1.031l7.709,2.71L35.193,9.2l22.349,7.855,19.213,6.753,6.363,2.236c.984.346,2.06.614,3.005,1.056.039.018.084.03.125.044l-1.118.634,2.481-6.862L91.8,9.325,93,6.013a.928.928,0,0,1,1.118-.634A128.961,128.961,0,0,1,106.4,9.5C107.475,9.923,107.006,11.679,105.915,11.252Z" transform="translate(137.721 184.757)"/>
    <path id="Path-49" data-name="Path" d="M19.117,22.69h0A19.107,19.107,0,0,1,0,3.593V0H38.234V3.593A19.107,19.107,0,0,1,19.117,22.69Z" transform="translate(214.498 122.433)" fill="#ffc2d6"/>
    <path id="Path-50" data-name="Path" d="M20.045,24.535A20.016,20.016,0,0,1,.054,5.7C-.042,4.12.019,2.522.019.937A.921.921,0,0,1,.927.03H34.452c1.542,0,3.1-.067,4.643,0h.067a.922.922,0,0,1,.909.908c0,1.25.01,2.5,0,3.75a19.892,19.892,0,0,1-1.52,7.484,20.139,20.139,0,0,1-10.1,10.516,20.376,20.376,0,0,1-8.408,1.848.908.908,0,0,1,0-1.815A18.2,18.2,0,0,0,38.238,5.313c.059-1.456.016-2.919.016-4.376l.909.908H2.492a13.554,13.554,0,0,1-1.5,0,.6.6,0,0,0-.067,0L1.836.937c0,1.2,0,2.392,0,3.588A18.145,18.145,0,0,0,12.42,21.058a18.1,18.1,0,0,0,7.625,1.662A.908.908,0,0,1,20.045,24.535Z" transform="translate(213.571 121.496)"/>
    <path id="Path-51" data-name="Path" d="M23.175,25.876,22.829,0,.8,8.3,0,25.28" transform="translate(223.256 100.187)" fill="#ffc2d6"/>
    <path id="Path-52" data-name="Path" d="M23.176,26.782l-.117-8.767L22.873,4.108,22.83.906l1.15.875L16.517,4.593,4.682,9.053,1.954,10.08l.667-.875-.7,14.906-.1,2.075c-.055,1.163-1.872,1.17-1.817,0l.7-14.906L.8,9.205A.948.948,0,0,1,1.47,8.33L8.934,5.518,20.769,1.058,23.5.031a.915.915,0,0,1,1.15.875l.117,8.767L24.95,23.58l.043,3.2a.909.909,0,0,1-1.817,0Z" transform="translate(222.346 99.281)"/>
    <path id="Path-53" data-name="Path" d="M41.231,39.915c12.72-9.681,8.91-19.566,9.652-26.712C51.314,9.053,45.9,0,45.9,0L3.717,1.219S-13.736,48.17,27,41.573" transform="translate(204.982 69.207)" fill="#ffc2d6"/>
    <path id="Path-54" data-name="Path" d="M41.685,40.042A23.713,23.713,0,0,0,49.274,30.9a22,22,0,0,0,1.6-8.519c.033-2.538-.216-5.084-.046-7.62a9.758,9.758,0,0,0-.284-3.445,27.684,27.684,0,0,0-1.513-4.128A55.443,55.443,0,0,0,46.027,1.37l.784.45-4.2.121L32.54,2.232l-12.189.352-10.535.3-3.459.1a15.6,15.6,0,0,1-1.652.048.712.712,0,0,0-.076,0l.876-.666c-.553,1.488-1,3.022-1.414,4.552Q3.437,9.33,2.945,11.776q-.281,1.4-.5,2.815-.057.367-.11.734-.027.185-.052.371c-.024.174,0,.015,0-.018q-.017.131-.034.262-.1.777-.179,1.556a45.249,45.249,0,0,0-.221,6.263q.03.787.095,1.571c.04.479.116,1.181.161,1.514s.157,1.02.248,1.488q.147.755.34,1.5A21.031,21.031,0,0,0,3.655,32.7c-.083-.2.069.154.087.2q.076.171.157.34.16.338.333.668.355.676.771,1.318.192.3.4.585c.072.1.146.2.221.3l.09.119c-.128-.167.039.049.066.081.326.4.665.785,1.027,1.151a14.666,14.666,0,0,0,1.134,1.031c.045.036.333.264.183.148q.14.108.283.212.338.246.688.473a15.787,15.787,0,0,0,1.421.818,13.336,13.336,0,0,0,1.436.642A20.7,20.7,0,0,0,15.63,41.8a33.487,33.487,0,0,0,9.313.173c.912-.1,1.82-.22,2.726-.366a.937.937,0,0,1,1.118.634.915.915,0,0,1-.635,1.116c-6.071.975-12.75,1.235-18.405-1.572A16.793,16.793,0,0,1,1.5,32.133,32.269,32.269,0,0,1,.1,19.353,64.376,64.376,0,0,1,2.01,7.695,53.593,53.593,0,0,1,3.724,1.969l.029-.08a.946.946,0,0,1,.876-.666l4.2-.121L18.9.811,31.089.459l10.535-.3c1.7-.049,3.414-.185,5.11-.148.025,0,.051,0,.076,0A.91.91,0,0,1,47.6.454a56.25,56.25,0,0,1,2.682,5.1A36.746,36.746,0,0,1,52.056,10a11,11,0,0,1,.66,3.982c-.184,2.607-.017,5.195-.017,7.8a25.018,25.018,0,0,1-1.441,9.03A25.356,25.356,0,0,1,42.6,41.61a.914.914,0,0,1-1.243-.326.93.93,0,0,1,.326-1.242Z" transform="translate(204.069 68.296)"/>
    <path id="Path-55" data-name="Path" d="M.433,1.1a8.928,8.928,0,0,1,9.123.33c.986.622.076,2.193-.917,1.567a7.526,7.526,0,0,0-2.829-1.11,7.348,7.348,0,0,0-2.266.027,8.513,8.513,0,0,0-.965.236q-.2.063-.4.135l-.2.074c-.029.011-.2.084-.067.026.111-.047-.135.061-.188.087s-.133.065-.2.1-.118.062-.175.1A.908.908,0,0,1,.433,1.1Z" transform="translate(220.652 78.638)"/>
    <path id="Path-56" data-name="Path" d="M.663.606A9.449,9.449,0,0,1,3.546.033,7.236,7.236,0,0,1,8.4,1.107a5.814,5.814,0,0,1,2.351,3.717,7.793,7.793,0,0,1-.7,4.281,15.62,15.62,0,0,1-3.513,4.971l.234-.4a1.282,1.282,0,0,0-.052.354,1.048,1.048,0,0,0,.016.217c.016.065.069.176.014.057.027.06.052.1,0,.02.1.143.068.093.193.156a4.872,4.872,0,0,0,2.184.164c1.166-.09,1.16,1.726,0,1.815-1.473.114-3.575.059-4.117-1.647a2.487,2.487,0,0,1-.1-.934,1.956,1.956,0,0,1,.652-1.393A14.57,14.57,0,0,0,7.646,9.829a7.4,7.4,0,0,0,1.337-4.6A4.026,4.026,0,0,0,5.79,1.921a8.563,8.563,0,0,0-4.644.436A.914.914,0,0,1,.028,1.723.93.93,0,0,1,.663.606Z" transform="translate(206.061 78.124)"/>
    <ellipse id="Oval" cx="1.477" cy="1.475" rx="1.477" ry="1.475" transform="translate(207.246 84.782)"/>
    <path id="Path-57" data-name="Path" d="M0,1.868A1.965,1.965,0,0,1,1.336.092,1.928,1.928,0,1,1,0,1.868a.454.454,0,0,1,.909,0,2.012,2.012,0,0,0,.006.2c-.008-.106,0,.02.008.037s.012.051.018.077.024.075.035.112c.005.018.034.08,0,0a1.52,1.52,0,0,0,.111.2s.072.1.032.048.039.044.038.043c.043.048.09.09.137.134s.014.012,0,0c.031.022.063.044.1.065l.067.039c.013.007.136.063.087.044s.058.019.056.018c.031.01.063.019.1.027s.065.014.1.021c.121.026-.054,0,.02,0s.136.006.205,0c.024,0,.114-.013.02,0q.059-.009.117-.023a1.669,1.669,0,0,0,.187-.058c-.091.033.074-.038.1-.054s.054-.034.082-.051.087-.066.017-.009A1.508,1.508,0,0,0,2.705,2.6c.017-.019.034-.039.05-.058-.065.079.012-.02.02-.033.036-.054.065-.111.1-.169.009-.017.03-.079,0,0,.013-.037.027-.074.038-.112s.014-.051.02-.077.025-.152.02-.1c-.006.07,0-.065,0-.062,0-.027,0-.055,0-.082s-.005-.081-.007-.122c0,.085,0,.024,0,0A1.949,1.949,0,0,0,2.9,1.594c0-.014-.053-.133-.01-.037q-.024-.053-.051-.1a1.627,1.627,0,0,0-.1-.163c.052.074,0,0-.013-.013s-.043-.047-.066-.07-.047-.044-.07-.066-.086-.066-.013-.013a1.548,1.548,0,0,0-.2-.122L2.3.972c.1.042-.025-.006-.038-.011A1.471,1.471,0,0,0,2.092.917c-.025,0-.112-.011-.02,0-.034,0-.068-.005-.1-.006s-.068,0-.1,0-.122.011-.04,0A1.417,1.417,0,0,0,1.6.961S1.478,1,1.541.979s-.073.037-.086.043l-.067.039c-.017.01-.145.105-.065.04a1.512,1.512,0,0,0-.141.13c-.027.028-.052.057-.076.086.063-.077-.013.022-.02.033a1.46,1.46,0,0,0-.112.2c.037-.084,0,0,0,.019q-.022.066-.038.133c-.006.026-.011.052-.016.079q-.013.08,0,0,0,.041-.006.082a.454.454,0,0,1-.909,0Z" transform="translate(206.792 84.33)"/>
    <ellipse id="Oval-2" data-name="Oval" cx="1.477" cy="1.475" rx="1.477" ry="1.475" transform="translate(221.177 84.782)"/>
    <path id="Path-58" data-name="Path" d="M0,1.868A1.965,1.965,0,0,1,1.336.092,1.928,1.928,0,1,1,0,1.868a.454.454,0,0,1,.909,0,2,2,0,0,0,.006.2c-.008-.106,0,.02.008.037s.012.051.018.077.024.075.035.112c.005.018.034.08,0,0a1.515,1.515,0,0,0,.111.2s.072.1.031.048.039.044.038.043c.043.048.09.09.137.134s.014.012,0,0c.031.022.063.044.1.065l.067.039c.013.007.136.063.087.044s.058.019.056.018c.031.01.063.019.1.027s.065.014.1.021c.121.026-.054,0,.02,0s.136.006.205,0c.024,0,.114-.013.019,0,.039-.006.078-.013.117-.023a1.667,1.667,0,0,0,.187-.058c-.091.033.074-.038.1-.054s.054-.034.082-.051.087-.066.016-.009A1.508,1.508,0,0,0,2.705,2.6c.017-.019.034-.039.05-.058-.065.079.012-.02.02-.033.036-.054.065-.111.1-.169.009-.017.03-.079,0,0,.013-.037.027-.074.038-.112s.014-.051.02-.077.025-.152.02-.1c-.006.07,0-.065,0-.062,0-.027,0-.055,0-.082s-.005-.081-.007-.122c0,.085,0,.024,0,0A1.949,1.949,0,0,0,2.9,1.594c0-.014-.053-.133-.01-.037-.016-.035-.033-.07-.051-.1a1.636,1.636,0,0,0-.1-.163c.052.074,0,0-.013-.013s-.043-.047-.065-.07-.047-.044-.07-.066-.086-.066-.013-.013a1.548,1.548,0,0,0-.2-.122L2.3.972c.1.042-.025-.006-.038-.011A1.469,1.469,0,0,0,2.092.917c-.025,0-.112-.011-.02,0-.034,0-.068-.005-.1-.006s-.068,0-.1,0-.122.011-.04,0A1.419,1.419,0,0,0,1.6.961S1.478,1,1.541.979s-.073.037-.086.043l-.067.039c-.017.01-.145.105-.065.04a1.523,1.523,0,0,0-.141.13c-.027.028-.052.057-.076.086.063-.077-.013.022-.02.033a1.465,1.465,0,0,0-.112.2c.037-.084,0,0,0,.019q-.022.066-.038.133c-.006.026-.011.052-.016.079q-.013.08,0,0,0,.041-.006.082a.454.454,0,0,1-.909,0Z" transform="translate(220.723 84.33)"/>
    <path id="Path-59" data-name="Path" d="M34.222,50.37c-2.841.508-9-7.4-16.37-4.5-6.226,4.269-8.578,1.04-8.578,1.04S3.519,75.948,23.81,75.646c20.594-.3,18.474-33.581,18.474-33.581S41.2,35.43,43.989,31.949a5.574,5.574,0,0,1,3.868-2.289c3.6,0,6.36,1.21,6.36,6.353,0,3.4-2.856,9.338-4.846,10.891l1.089,13.917.007-.006a54.2,54.2,0,0,0,16.51-22.672c1.57-4.124,2.626-8.365,2.259-11.811C67.723,12.113,58.032,13.323,58.032,13.323,20.933-6.031,8.158-.723,4.731,6.97c-.8,1.806-.8,4.453-.6,6.649.131,1.429-1.45,2.924-2.569,3.793A3.879,3.879,0,0,0,.041,21.084c1.531,8.967,31.9,5.88,37.4,5.249C37.438,26.332,41.908,52.02,34.222,50.37Z" transform="translate(195.752 48.3)"/>
    <path id="Path-60" data-name="Path" d="M35.365,52.155c-1.6.252-3.1-.779-4.4-1.576a28.887,28.887,0,0,0-5.516-2.92,10.23,10.23,0,0,0-3.306-.616,7.772,7.772,0,0,0-1.5.128,5.339,5.339,0,0,0-1.967.745c-1.934,1.236-4.274,2.278-6.62,1.884A4.171,4.171,0,0,1,9.39,48.272l1.661-.217c-.092.468-.164.94-.232,1.412-.016.111-.031.222-.047.333s.029-.228,0,0c-.01.075-.02.151-.029.226q-.056.442-.1.885-.113,1.033-.185,2.071a48.085,48.085,0,0,0-.092,5.179A31.657,31.657,0,0,0,11,63.692a20.258,20.258,0,0,0,1.857,5.382c.224.422.467.835.73,1.235a11.5,11.5,0,0,0,.73,1,12.154,12.154,0,0,0,1.954,1.906c3.484,2.6,8.428,3.031,12.559,1.836a15.235,15.235,0,0,0,8.8-7.389,35.019,35.019,0,0,0,3.85-11.617c.315-1.836.513-3.513.659-5.458q.169-2.256.188-4.521c.007-.883,0-1.766-.038-2.648,0-.074-.067-.377-.021-.441.026-.036.05.346.025.193s-.046-.323-.066-.485q-.072-.567-.112-1.137a14.826,14.826,0,0,1,1.4-8.291,7.44,7.44,0,0,1,4.114-3.436,7.9,7.9,0,0,1,4.165.222,5.6,5.6,0,0,1,3.027,2.138,7.935,7.935,0,0,1,1.189,4.3c.1,3.113-1.267,6.347-2.8,8.994a10.455,10.455,0,0,1-2.307,2.983l.266-.642L52.135,60l.136,1.735-1.551-.642A53.306,53.306,0,0,0,66.531,40.008c1.8-4.389,3.292-9.167,2.545-13.948-.47-3.008-1.469-6.159-3.584-8.334a8.047,8.047,0,0,0-2.355-1.736q-.149-.076-.3-.146c-.05-.023-.354-.152-.146-.067q-.3-.123-.611-.226a9.371,9.371,0,0,0-1.1-.292c-.161-.032-.322-.057-.483-.084s.22.021-.008,0c-.079-.007-.157-.017-.235-.025-.247-.022-.494-.035-.742-.035a2.087,2.087,0,0,1-1.13-.15c-2.317-1.128-4.589-2.346-6.916-3.457Q48.284,9.993,45.051,8.6A114.238,114.238,0,0,0,34.1,4.52C28.946,2.914,23.67,1.661,18.286,1.831q-.724.023-1.446.086-.344.031-.686.072c-.063.008-.338.044-.129.015q-.2.027-.4.059a17.906,17.906,0,0,0-2.43.55q-.566.172-1.119.388l-.223.09c-.095.038.147-.068-.083.037-.167.077-.335.152-.5.233A11.856,11.856,0,0,0,9.54,4.4l-.167.124c-.148.108.137-.109.041-.032-.033.027-.068.052-.1.08-.118.1-.236.193-.35.293q-.345.3-.663.632c-.206.214-.4.438-.589.668-.027.033-.179.229-.076.094s-.051.069-.071.1c-.082.114-.164.228-.242.344a10.307,10.307,0,0,0-.831,1.473A12.128,12.128,0,0,0,5.894,14a4.1,4.1,0,0,1-.7,2.825A12.032,12.032,0,0,1,2.97,19.07,3.1,3.1,0,0,0,1.8,21.49a2.723,2.723,0,0,0,.115.695c.023.08.051.159.077.239.016.049.037.1.056.146.028.072-.088-.17.009.012.084.158.163.315.26.466.058.089.119.176.182.262-.134-.183.053.061.1.118a5.564,5.564,0,0,0,.422.429c.068.062.138.122.208.182.035.03.072.059.108.089.16.13-.114-.08.042.031a9.7,9.7,0,0,0,1.19.733c.217.113.437.217.66.317.187.084.306.132.615.247a29.516,29.516,0,0,0,7.164,1.515,79.893,79.893,0,0,0,8.677.386c4.924-.016,9.849-.323,14.747-.818q.95-.1,1.9-.2a.9.9,0,0,1,.876.666c.521,3,.872,6.042,1.106,9.077a58.2,58.2,0,0,1,.17,7.306,17.485,17.485,0,0,1-1.185,6.242,3.872,3.872,0,0,1-4.425,2.528c-1.145-.235-.66-1.986.483-1.75.094.019.283.044.072.021.09.01.18.018.27.021s.154,0,.231,0c.265,0-.048.024.062,0,.15-.033.292-.07.438-.118-.078.025-.115.07.047-.026.068-.04.136-.082.2-.12.169-.094.055-.035.032-.015.063-.053.125-.105.185-.162s.106-.105.156-.16c.031-.033.2-.235.114-.13s.079-.114.1-.151q.069-.1.131-.21c.1-.169.185-.344.271-.519.1-.2,0,.012.045-.1.035-.088.069-.176.1-.266.077-.21.145-.423.207-.638.128-.441.228-.89.311-1.342a22.524,22.524,0,0,0,.323-3.008A71.871,71.871,0,0,0,37.9,30.356c-.02-.148.03.223,0-.008l-.024-.173q-.021-.15-.042-.3-.043-.307-.088-.614-.069-.471-.142-.942c-.044-.279-.088-.558-.136-.837l.876.666q-4,.459-8.024.712c-4.086.265-8.187.395-12.281.259A44.718,44.718,0,0,1,6.352,27.539C3.806,26.752.731,25.3.1,22.422a4.772,4.772,0,0,1,1.1-4.161c.9-1.041,2.287-1.686,2.812-3.043a5.536,5.536,0,0,0,.008-2.125,18.818,18.818,0,0,1,.047-2.4A10.191,10.191,0,0,1,5,7.094,11.494,11.494,0,0,1,8.5,2.925a14.6,14.6,0,0,1,6.011-2.5A29.481,29.481,0,0,1,23.8.319,67.835,67.835,0,0,1,36.866,3.512,147.92,147.92,0,0,1,54.4,10.918q2.513,1.233,4.994,2.53l-.459-.124a8.6,8.6,0,0,1,3.5.435,11.077,11.077,0,0,1,6.2,5.165,20.57,20.57,0,0,1,2,14.11,48.235,48.235,0,0,1-6.624,15.8A55.357,55.357,0,0,1,52,62.372a.922.922,0,0,1-1.551-.642l-.947-12.1c-.046-.583-.14-1.185-.139-1.771s.532-.885.889-1.282A11.182,11.182,0,0,0,51.508,44.8a21.753,21.753,0,0,0,2.206-5.024A9.627,9.627,0,0,0,54,34.793a3.84,3.84,0,0,0-2.186-2.826,5.852,5.852,0,0,0-4.018-.281,6.3,6.3,0,0,0-3.384,4.153,15.275,15.275,0,0,0-.515,4.667q.021.872.111,1.741c.017.161.037.322.057.484-.041-.336-.01-.087,0,0,.031.223.044.44.054.665.044,1.06.049,2.122.033,3.182a61.72,61.72,0,0,1-1.357,12.266C41.766,63.5,40.04,68.195,36.9,71.858a16.4,16.4,0,0,1-13.612,5.576,14.859,14.859,0,0,1-7.363-2.253,14.019,14.019,0,0,1-4.545-5.033c-2.152-3.946-2.8-8.595-2.86-13.032a49.976,49.976,0,0,1,.7-9.083c.026-.154.053-.308.083-.461.167-.846,1.242-.784,1.661-.217-.249-.338-.108-.126-.024-.049.037.035.074.072.11.108s.058.048.084.074c.154.158-.144-.092-.013-.007.171.11.339.213.517.311.041.022.242.1.021.014.065.026.13.053.2.073.172.053.343.1.519.139a5.456,5.456,0,0,0,2.11-.14,14.084,14.084,0,0,0,3.632-1.766,7.953,7.953,0,0,1,3.741-.884,11.236,11.236,0,0,1,3.286.43,23.19,23.19,0,0,1,5.829,2.789c.812.5,1.614,1.02,2.461,1.46a4.009,4.009,0,0,0,.885.384c.091.028.559.112.313.089.1.009.532-.022.255.022A.937.937,0,0,1,36,51.038.915.915,0,0,1,35.365,52.155Z" transform="translate(194.851 47.391)"/>
    <path id="Path-61" data-name="Path" d="M3.573,1.78,1.449,2.31l-.3.075a.951.951,0,0,1-.7-.091A.907.907,0,0,1,.667.635L2.792.1,3.09.03a.951.951,0,0,1,.7.092A.907.907,0,0,1,3.573,1.78Z" transform="translate(215.019 97.023)" fill="#fff"/>
    <path id="Path-62" data-name="Path" d="M6.119,1.9a2.022,2.022,0,0,0-.351-.092c-.214-.046.29.022.038.005-.077-.005-.153-.011-.229-.011s-.156,0-.234.008c-.042,0-.09.014-.132.013.3.008.184-.027.062,0q-.14.027-.278.067-.077.023-.153.049c-.048.017-.257.1-.08.028s-.009.007-.052.028-.11.056-.163.086c-.122.068-.234.148-.35.225-.155.1.166-.142,0,0-.057.049-.115.1-.171.147a4.9,4.9,0,0,0-.36.365c-.053.059-.1.12-.154.18-.037.044-.17.176.006-.01a.939.939,0,0,0-.068.091c-.131.182-.255.369-.37.562-.13.217-.249.44-.36.667q-.091.186-.175.376c-.018.041-.085.2-.017.038q-.047.114-.092.228a17.173,17.173,0,0,0-.649,2.067A.909.909,0,0,1,.033,6.535C.526,4.586,1.292,2.347,2.909,1.024A4.047,4.047,0,0,1,5.884.01,2.712,2.712,0,0,1,6.6.153.932.932,0,0,1,7.236,1.27.918.918,0,0,1,6.119,1.9Z" transform="translate(240.155 81.47)"/>
    <rect id="Rectangle-2" data-name="Rectangle" width="51.484" height="13.917" rx="6.958" transform="translate(141.125 338.444)" fill="#ff3e6c"/>
    <path id="Path-63" data-name="Path" d="M49.021,15.752H5.792a8.172,8.172,0,0,1-3.06-.3A4.351,4.351,0,0,1,0,11.394c-.008-1,0-2.007,0-3.01V4.733a4.569,4.569,0,0,1,1.523-3.7A5.62,5.62,0,0,1,5.461.02H41.087c2.634,0,5.273-.046,7.907,0a4.349,4.349,0,0,1,3.829,2.311A6.755,6.755,0,0,1,53.3,5.57V9.547a15.274,15.274,0,0,1-.087,2.773,4.331,4.331,0,0,1-4.2,3.432.908.908,0,0,1,0-1.815,2.506,2.506,0,0,0,2.467-2.571c.006-.994,0-1.988,0-2.982V4.821A2.736,2.736,0,0,0,50.139,2.1a5.8,5.8,0,0,0-2.58-.266H12.665c-2.753,0-5.506-.015-8.259,0a2.54,2.54,0,0,0-2.173,1.1,4.537,4.537,0,0,0-.413,2.637V9.446a15.9,15.9,0,0,0,.022,2.391,2.506,2.506,0,0,0,2.482,2.1c.248,0,.5,0,.744,0H49.021A.908.908,0,0,1,49.021,15.752Z" transform="translate(140.212 337.516)"/>
    <path id="Path-64" data-name="Path" d="M47.452,7.8,27.222.845A15.54,15.54,0,0,0,14.044,2.293L7.353,5.368A12.619,12.619,0,0,0,0,16.833V35.068l27.559.084,9.758,3.37" transform="translate(111.143 182.059)" fill="#ffc2d6"/>
    <path id="Path-65" data-name="Path" d="M48.121,9.547,36.9,5.687,29.934,3.292a22.636,22.636,0,0,0-5.762-1.476,14.743,14.743,0,0,0-6.917,1.163c-1.045.456-2.026,1.051-3.065,1.529-2.061.947-4.2,1.8-6.2,2.879a11.793,11.793,0,0,0-6.154,9.662c-.077,1.494-.017,3-.017,4.5v14.39L.91,35.029l15.341.047,9.563.029,2.374.007a4.5,4.5,0,0,1,1.484.365l8.8,3.038c1.1.379.626,2.134-.483,1.75L30.1,37.543l-1.557-.538c-.038-.013-.287-.066-.3-.1.033.083.347.005.156.028a16.7,16.7,0,0,1-1.929-.006l-19.606-.06L.91,36.844A.922.922,0,0,1,0,35.937V23.121c0-1.777,0-3.554,0-5.331A13.672,13.672,0,0,1,4.286,7.829C6.324,5.933,8.913,4.944,11.4,3.8c.988-.454,1.993-.883,2.968-1.364.721-.356,1.4-.78,2.14-1.1A16.5,16.5,0,0,1,19.942.266a17.669,17.669,0,0,1,9.173.828l6.047,2.08L48.35,7.709,48.6,7.8c1.1.378.627,2.132-.483,1.75Z" transform="translate(110.233 181.19)"/>
    <path id="Path-66" data-name="Path" d="M13.6,1.815H.878A.908.908,0,0,1,.878,0H13.6A.908.908,0,0,1,13.6,1.815Z" transform="translate(181.132 272.139)"/>
    <path id="Path-67" data-name="Path" d="M24.41,0,11.684,3.707s-.873.251-9.961,8.556c-3.036,3.963-2.323,8.054,4.242,3.89s5.448-4.064,9.475-5.971L23.074,9.3" transform="translate(102.952 188.18)" fill="#ffc2d6"/>
    <path id="Path-68" data-name="Path" d="M25.56,1.791,15.414,4.747l-2.134.621a1.708,1.708,0,0,1-.427.124c-.115,0,.181-.083.18-.078-.014.046-.262.163-.3.191-.125.086-.246.178-.368.269l-.105.08c-.153.115.178-.14.016-.012l-.313.247c-1.714,1.369-3.356,2.833-4.992,4.293Q5.932,11.407,4.9,12.34a11.118,11.118,0,0,0-1.969,1.976,7.819,7.819,0,0,0-.858,1.639,5.466,5.466,0,0,0-.212.746,2.125,2.125,0,0,0-.044.6.961.961,0,0,0,.057.308.486.486,0,0,0,.114.171c-.124-.1.233.121.1.06-.1-.044.135.037.177.048.163.043.044.012,0,.007a1.428,1.428,0,0,0,.177.011c.118,0,.3,0,.373-.012,1.64-.2,3.268-1.387,4.653-2.281,1.889-1.219,3.679-2.592,5.578-3.791A23.787,23.787,0,0,1,15.4,10.549a3.484,3.484,0,0,1,1.128-.379l.931-.108,6.063-.7.458-.053a.913.913,0,0,1,.909.908.93.93,0,0,1-.909.908l-7.633.885.459-.124a26.34,26.34,0,0,0-3.968,2.268,72.9,72.9,0,0,1-6.49,4.29c-1.605.895-4.886,2.365-6.062.04a3.742,3.742,0,0,1-.05-2.753,8.391,8.391,0,0,1,1.834-3.265c1.2-1.229,2.568-2.335,3.851-3.478q1.342-1.195,2.7-2.368c.956-.821,1.917-1.642,2.93-2.392a10.848,10.848,0,0,1,3.555-1.28L24.853.106l.224-.065a.908.908,0,0,1,.483,1.75Z" transform="translate(102.043 187.264)"/>
    <path id="Path-69" data-name="Path" d="M26.212,0,13.174,2.167s-.9.141-10.946,7.256c-3.5,3.556-3.305,7.7,3.727,4.386S11.865,10.452,16.1,9.058l9.812-.587" transform="translate(103.708 195.647)" fill="#ffc2d6"/>
    <path id="Path-70" data-name="Path" d="M27.362,1.777,16.4,3.6c-.636.106-1.275.2-1.909.317a2.269,2.269,0,0,1-.23.049c.052.041.288-.142.021,0-.118.063-.237.125-.354.191-.478.269-.944.56-1.407.853-2.4,1.519-4.727,3.147-7.05,4.776A11.36,11.36,0,0,0,3.2,11.6a7.757,7.757,0,0,0-1.009,1.51,2.952,2.952,0,0,0-.246.6c-.035.112-.062.226-.091.34-.013.053-.023.11-.031.164.02-.128,0-.049,0,.034,0,.1,0,.2,0,.3.007.134-.034-.161-.006-.034.01.044.017.088.03.131.068.222-.061-.125.029.082a.522.522,0,0,0,.067.108c.067.086-.12-.13,0-.013.173.169-.048-.022.077.06a.649.649,0,0,0,.124.066c-.183-.061-.047-.02-.01-.009a1.365,1.365,0,0,0,.636.085,6.562,6.562,0,0,0,2.023-.43,40.35,40.35,0,0,0,5.259-2.448,48.673,48.673,0,0,1,5.1-2.5A7.794,7.794,0,0,1,17.4,9.029l2.655-.159L26.4,8.491l.422-.025c1.168-.07,1.164,1.746,0,1.815l-5.24.313-3.359.2-.984.059a1.449,1.449,0,0,0-.2.012c-.1.021.209-.054.037.028a4.747,4.747,0,0,1-.5.168c-.5.17-.99.347-1.477.543l-.142.058c-.225.092.114-.05-.021.009l-.259.114q-.278.126-.552.262c-.846.419-1.668.886-2.5,1.324-1.719.9-3.462,1.8-5.253,2.547a7.613,7.613,0,0,1-4.561.808A2.343,2.343,0,0,1,0,14.4a5.853,5.853,0,0,1,1.3-3.307A8.081,8.081,0,0,1,3.214,9.162q1.353-.955,2.712-1.9c1.3-.906,2.614-1.806,3.937-2.685A37.391,37.391,0,0,1,13.29,2.438a3.574,3.574,0,0,1,1.2-.351l12.057-2,.334-.056A.936.936,0,0,1,28,.661a.915.915,0,0,1-.635,1.116Z" transform="translate(102.799 194.745)"/>
    <path id="Path-71" data-name="Path" d="M25.689,0,13.344,1.521s-.9.127-11.055,7.089c-3.558,3.5-3.422,7.653,3.66,4.442s5.961-3.267,10.214-4.6l9.829.62" transform="translate(105.442 202)" fill="#ffc2d6"/>
    <path id="Path-72" data-name="Path" d="M26.592,1.815,15.721,3.155c-.483.06-.971.144-1.457.18-.118.009.334-.054.2-.024-.2.045.231-.123.093-.041-.794.474-1.618.9-2.405,1.39-2.639,1.647-5.215,3.4-7.783,5.151a6.241,6.241,0,0,0-1.556,1.506,6.947,6.947,0,0,0-.807,1.4,3.861,3.861,0,0,0-.186.669c-.025.142.012-.146,0-.007,0,.05-.01.1-.009.15,0,.081.038.363-.006.146a2.259,2.259,0,0,0,.067.254c-.06-.185,0-.01.05.065-.117-.162,0,0,.065.054-.162-.136.054.026.123.063.089.048-.041-.015-.05-.019a1.136,1.136,0,0,0,.146.048c.036.008.346.07.175.047a3.581,3.581,0,0,0,.934-.014,9.948,9.948,0,0,0,2.207-.629c1.723-.663,3.395-1.518,5.044-2.346a40.652,40.652,0,0,1,4.9-2.265A5.324,5.324,0,0,1,17.61,8.49l2.736.173,6.157.388.393.025c1.161.073,1.17,1.889,0,1.815l-5.081-.321-3.4-.214L17.37,10.29c-.081-.005-.164-.017-.246-.015-.017,0-.035-.005-.052,0,.278-.03-.107.075-.173.1-.527.168-1.052.343-1.57.537q-.286.107-.569.224c.061-.025,0,0-.138.06l-.278.126c-.8.372-1.579.8-2.366,1.2-1.6.814-3.217,1.592-4.857,2.315A9.734,9.734,0,0,1,2.292,15.99a2.4,2.4,0,0,1-2.249-1.9,4.814,4.814,0,0,1,.939-3.307A11.324,11.324,0,0,1,2.315,9.114,16.452,16.452,0,0,1,5.032,7.168Q7.191,5.706,9.374,4.28c1.281-.832,2.565-1.69,3.918-2.4a3.27,3.27,0,0,1,1.237-.389L26.235.044,26.592,0A.913.913,0,0,1,27.5.908a.93.93,0,0,1-.909.908Z" transform="translate(104.538 201.092)"/>
    <path id="Path-73" data-name="Path" d="M25.4,0H14.8S13.89,0,2.858,5.47c-4.015,2.969-4.462,7.1,3,4.911s6.361-2.4,10.758-3.12l5.708,1.591A40.9,40.9,0,0,0,37.2,10.169l2.31-.221,7.854,3.422" transform="translate(106.338 209.563)" fill="#ffc2d6"/>
    <path id="Path-74" data-name="Path" d="M26.311,1.827H16.446a2.5,2.5,0,0,1-.721,0c-.106-.041.277-.094.187-.026a3.089,3.089,0,0,1-.653.215c-.273.1-.542.214-.812.324a1.122,1.122,0,0,0-.11.046l-.306.131q-.354.153-.707.311c-1.455.648-2.9,1.328-4.332,2.017Q7.369,5.624,5.754,6.42a12.023,12.023,0,0,0-1.629.831,7.435,7.435,0,0,0-.931.821,6.079,6.079,0,0,0-1.153,1.52,2.467,2.467,0,0,0-.194.537c-.073.25-.019-.07-.026.176,0,.044,0,.088,0,.132-.008.2,0-.2.005.04a.6.6,0,0,0,.043.147c-.106-.337-.021-.039-.018-.051-.007.034.172.231-.006.019.027.032.055.063.084.093a.743.743,0,0,0,.384.2,5.179,5.179,0,0,0,1.98.046,23.879,23.879,0,0,0,3.616-.922c.975-.3,1.948-.6,2.914-.926,1.061-.356,2.109-.761,3.181-1.082.472-.142.951-.26,1.433-.362.293-.062.586-.118.881-.172A4.173,4.173,0,0,1,17.77,7.3c.942.192,1.875.523,2.8.781a53.755,53.755,0,0,0,11.11,2.2,44.156,44.156,0,0,0,6.965-.158c.573-.055,1.173-.171,1.748-.167a2.506,2.506,0,0,1,.9.3l6.81,2.967.63.275a.913.913,0,0,1,.326,1.242.932.932,0,0,1-1.243.326l-7.854-3.422.459.124a51.708,51.708,0,0,1-10.766.151,60.208,60.208,0,0,1-9.459-2.06l-2.908-.811h.483C14,9.677,10.488,11.194,6.819,12.231c-1.776.5-4.833,1.3-6.277-.379C-.7,10.4.45,8.424,1.485,7.24a8.446,8.446,0,0,1,3.169-2.3Q6.736,3.918,8.829,2.918C10.439,2.152,12.054,1.394,13.7.7A11.292,11.292,0,0,1,15.348.07,4.847,4.847,0,0,1,16.507.012h9.8a.908.908,0,0,1,0,1.815Z" transform="translate(105.425 208.644)"/>
    <path id="Path-75" data-name="Path" d="M7.977,7.563a7.554,7.554,0,0,0-3.49-6.369A10.437,10.437,0,1,1,0,15.116c.134.007.269.011.405.011a7.575,7.575,0,0,0,5.354-2.215A7.559,7.559,0,0,0,7.977,7.563Z" transform="translate(35.631 175.074)" fill="#ff3e6c"/>
    <path id="Path-76" data-name="Path" d="M7.97,8.471A6.735,6.735,0,0,0,4.93,2.886a.916.916,0,0,1,0-1.567A11.343,11.343,0,1,1,.117,16.481.917.917,0,0,1,.9,15.116,6.738,6.738,0,0,0,7.97,8.471a.909.909,0,0,1,1.817,0,8.563,8.563,0,0,1-2.659,6.1A8.581,8.581,0,0,1,.9,16.931l.784-1.366a9.715,9.715,0,0,0,7.048,5.2A9.537,9.537,0,1,0,5.847,2.886V1.318a8.625,8.625,0,0,1,3.94,7.153A.909.909,0,0,1,7.97,8.471Z" transform="translate(34.729 174.167)"/>
    <path id="Path-77" data-name="Path" d="M41.227,1.821H30.553c-3.521,0-7.042-.014-10.562,0A16.347,16.347,0,0,0,4.419,13.537a26.55,26.55,0,0,0-.691,6.729l-.253,9.551L3.108,43.686,2.689,59.5l-.4,14.979L1.98,86.263l-.156,5.882-.007.266a.909.909,0,0,1-1.817,0l.11-4.17.283-10.7L.781,62.915,1.2,46.936l.387-14.6.282-10.667c.038-1.424.062-2.849.114-4.273A18.187,18.187,0,0,1,14.32.917,20.385,20.385,0,0,1,20.849.006H41.227a.908.908,0,0,1,0,1.815Z" transform="translate(165.958 246.033)"/>
    <path id="Path-78" data-name="Path" d="M77.226,21.839S73.895-3.272,43.61.359C27.559,1.569,19.685,18.814,19.685,18.814S1.817,13.368,0,28.495" transform="translate(220.471 248.534)" fill="#fff"/>
    <path id="Path-79" data-name="Path" d="M77.226,22.743c.074.552-.019-.082-.043-.208-.075-.4-.165-.8-.264-1.2a28.228,28.228,0,0,0-1.333-4c-.082-.2.058.136,0,.009l-.064-.15c-.044-.1-.088-.2-.134-.3q-.139-.31-.285-.617-.323-.677-.681-1.337a27.015,27.015,0,0,0-1.658-2.671q-.225-.319-.46-.632c-.154-.205-.246-.324-.48-.611q-.549-.673-1.143-1.308A23.946,23.946,0,0,0,67.9,7.165C62.91,3.3,56.341,1.766,49.963,1.813A33.346,33.346,0,0,0,37.882,3.734,27.307,27.307,0,0,0,29.3,9.39a39.1,39.1,0,0,0-7.832,10.588c-.034.065-.064.132-.095.2a.913.913,0,0,1-1.026.417c-.564-.171-1.144-.3-1.721-.415q-.436-.088-.875-.163-.228-.038-.456-.073l-.238-.035-.139-.02c-.134-.019.228.029-.006,0-.778-.1-1.559-.168-2.342-.2a17.1,17.1,0,0,0-5.1.471,10.044,10.044,0,0,0-4.658,2.509,11.308,11.308,0,0,0-3,6.73.937.937,0,0,1-.909.908A.913.913,0,0,1,0,29.4a13.894,13.894,0,0,1,2.829-7.241A11.3,11.3,0,0,1,7.89,18.743a21.143,21.143,0,0,1,10.627-.429,20.35,20.35,0,0,1,2.318.529l-1.026.417a37.167,37.167,0,0,1,6.7-9.636,31.6,31.6,0,0,1,8.317-6.467,25.293,25.293,0,0,1,5.511-2.128,38.138,38.138,0,0,1,6.53-.9c7.042-.523,14.436.5,20.45,4.418a26.433,26.433,0,0,1,9.355,10.81A25.924,25.924,0,0,1,79,22.4c.018.114.032.227.047.341a.913.913,0,0,1-.909.908.932.932,0,0,1-.909-.908Z" transform="translate(219.562 247.63)"/>
    <path id="Path-80" data-name="Path" d="M17.053,1.781a11.467,11.467,0,0,0-1.33.442q-.154.059-.307.121l-.15.061c-.2.08.152-.067-.045.019-.26.114-.519.23-.775.352q-.935.448-1.826.98A22.021,22.021,0,0,0,4.652,12,26.256,26.256,0,0,0,1.78,20.82a.915.915,0,0,1-1.118.634.931.931,0,0,1-.635-1.116A25.964,25.964,0,0,1,6.676,6.194,23.731,23.731,0,0,1,14.833.634a12.746,12.746,0,0,1,1.737-.6.908.908,0,0,1,.483,1.75Z" transform="translate(360.391 224.986)"/>
    <path id="Path-81" data-name="Path" d="M17.519,15.167a17.447,17.447,0,0,1,9.887,3.055,26.274,26.274,0,0,1,38.815-2.783,22.781,22.781,0,0,1,43.186.168,22.757,22.757,0,1,1-7.568,41.627,22.785,22.785,0,0,1-42.546.925A26.3,26.3,0,0,1,25.683,48.15a17.505,17.505,0,1,1-8.164-32.984Z" transform="translate(9.083 0.899)" fill="#fff"/>
    <path id="Path-82" data-name="Path" d="M18.427,15.158a18.68,18.68,0,0,1,10.346,3.179l-1.1.142a27.14,27.14,0,0,1,31.7-8.258,27.682,27.682,0,0,1,8.4,5.475l-1.519.4a23.692,23.692,0,0,1,44.939.168l-1.118-.634a23.663,23.663,0,1,1-7.785,43.286l1.335-.542a23.693,23.693,0,0,1-44.3.925l1.335.542A27.22,27.22,0,0,1,25.807,49.508l1.243.326a18.413,18.413,0,1,1-8.623-34.675.908.908,0,0,1,0,1.815,16.6,16.6,0,1,0,7.706,31.292.93.93,0,0,1,1.243.326,25.63,25.63,0,0,0,23.476,12,25.29,25.29,0,0,0,8.893-2.32.93.93,0,0,1,1.335.542,21.883,21.883,0,0,0,40.794-.925.921.921,0,0,1,1.335-.542,21.853,21.853,0,1,0,7.351-39.968.935.935,0,0,1-1.118-.634,21.874,21.874,0,0,0-41.434-.168.92.92,0,0,1-1.518.4,25.351,25.351,0,0,0-30.95-3.15,26.027,26.027,0,0,0-6.581,5.934.909.909,0,0,1-1.1.142,16.941,16.941,0,0,0-9.429-2.931A.908.908,0,0,1,18.427,15.158Z" transform="translate(8.174 0)"/>
    <path id="Path-83" data-name="Path" d="M17.439,0S4.549,1.136,0,10.6" transform="translate(105.467 16.048)" fill="#fff"/>
    <path id="Path-84" data-name="Path" d="M18.324,1.815c-.117.01-.233.026-.349.039-.227.025.138-.021.023,0l-.219.031q-.266.039-.531.085a29.742,29.742,0,0,0-3.272.752,22.616,22.616,0,0,0-8.441,4.3A15.26,15.26,0,0,0,1.67,11.97C1.158,13.02-.409,12.1.1,11.054,3.125,4.837,9.91,1.461,16.456.27,17.074.158,17.7.056,18.324,0a.915.915,0,0,1,.909.908.927.927,0,0,1-.909.908Z" transform="translate(104.582 15.14)"/>
    <path id="Path-85" data-name="Path" d="M19.94,105.282V46.59H0L36.747,0,73.5,46.59H53.556V77.449" transform="translate(16.4 35)" fill="#fff"/>
    <path id="Path-86" data-name="Path" d="M19.9,106.19V49.9c0-.754-.073-1.549,0-2.3,0-.033,0-.068,0-.1l.909.908H.872A.92.92,0,0,1,.23,46.857l3.659-4.639,8.786-11.139L23.267,17.649,32.454,6l3.02-3.829c.477-.6.926-1.257,1.442-1.829.022-.025.041-.052.062-.078a.909.909,0,0,1,1.285,0l3.659,4.639,8.786,11.139L61.3,29.473l9.187,11.648,4.462,5.657.062.078a.921.921,0,0,1-.642,1.549H54.428l.909-.908V78.357a.909.909,0,0,1-1.817,0V47.5a.921.921,0,0,1,.909-.908h19.94l-.642,1.549L70.066,43.5,61.28,32.361,50.688,18.933,41.5,7.285l-3.02-3.829a22.706,22.706,0,0,1-1.442-1.829.971.971,0,0,0-.062-.078h1.285L34.6,6.189,25.817,17.328,15.226,30.757,6.039,42.4l-3.02,3.829c-.474.6-.916,1.272-1.442,1.829-.022.024-.041.052-.062.078L.872,46.591h19.94a.921.921,0,0,1,.909.908V98.946c0,2.376.086,4.769,0,7.144,0,.033,0,.067,0,.1a.909.909,0,0,1-1.817,0Z" transform="translate(15.527 34.092)"/>
    <path id="Path-87" data-name="Path" d="M1.817.877V8.821A.909.909,0,0,1,0,8.821V.877A.909.909,0,0,1,1.817.877Z" transform="translate(69.047 118.687)"/>
    <path id="Path-88" data-name="Path" d="M2.12,7.866c.606,1.815,4.543,5.748,10.3,3.328,16.354,11.5,26.651,1.815,26.651,1.815L46.033.908,0,0Z" transform="translate(26.042 25.924)" fill="#fff"/>
    <path id="Path-89" data-name="Path" d="M36.947,5.143S26.651,14.824,10.3,3.328C4.543,5.748.606,1.815,0,0" transform="translate(28.162 33.79)" fill="#fff"/>
    <path id="Path-90" data-name="Path" d="M38.521,6.649a15.023,15.023,0,0,1-4.855,2.823A20.636,20.636,0,0,1,20.9,9.921,32.818,32.818,0,0,1,10.769,4.976l.7.092A9.251,9.251,0,0,1,3.69,4.9,7.329,7.329,0,0,1,.055,1.105C-.331,0,1.424-.475,1.807.623c.08.229-.039-.053.033.089.051.1.1.2.16.3a4.288,4.288,0,0,0,.367.537A6.632,6.632,0,0,0,3.657,2.76,6.961,6.961,0,0,0,7.9,4.046,10.362,10.362,0,0,0,10.8,3.392c.686-.221,1.059.146,1.609.515q.789.53,1.6,1.023A30.1,30.1,0,0,0,19.7,7.65,20.922,20.922,0,0,0,29.009,8.78a16.97,16.97,0,0,0,5.855-1.833,16.287,16.287,0,0,0,1.888-1.183c.048-.034.093-.071.141-.106-.056.041-.158.129-.022.016.065-.054.132-.106.2-.161s.114-.1.169-.148c.852-.8,2.14.482,1.285,1.284Z" transform="translate(27.231 32.926)"/>
  </g>
</svg>
