<svg id="storage___work_from_home_upload_archive_backup_data_database_online_cloud_transfer" data-name="storage _ work from home, upload, archive, backup, data, database, online, cloud, transfer" xmlns="http://www.w3.org/2000/svg" width="427" height="397.779" viewBox="0 0 427 397.779">
  <g id="Group">
    <path id="Path" d="M212.842,45.436c0,22.367-17.693,40.5-39.519,40.5-.836,0-1.666-.03-2.489-.082-.021.084-.045.167-.066.251a36.906,36.906,0,0,1,12.393,9.426,32.117,32.117,0,0,1,21.9-8.638c18.045,0,32.673,14.991,32.673,33.483s-14.628,33.483-32.673,33.483a32.117,32.117,0,0,1-21.9-8.638,36.237,36.237,0,0,1-60.047-7.271,32.423,32.423,0,0,1-61.344-3.385,39.542,39.542,0,0,1-21.317,6.219C18.111,140.784,0,122.223,0,99.328S18.111,57.872,40.452,57.872a39.511,39.511,0,0,1,13.215,2.265C55.219,43.126,69.189,29.81,86.195,29.81a32.289,32.289,0,0,1,24.956,11.874S119.508-2.324,163.235.1" transform="translate(0.896 167.112)" fill="#fff"/>
    <path id="Path-2" data-name="Path" d="M212.829,46.336c-.067,16.651-10.569,32.258-26.539,37.62a38.513,38.513,0,0,1-14.56,1.89.917.917,0,0,0-.876.666l-.066.251a.919.919,0,0,0,.418,1.025,37.1,37.1,0,0,1,12.209,9.284.923.923,0,0,0,1.285,0,31.525,31.525,0,0,1,29.3-7.32,32.208,32.208,0,0,1,20.089,16.37,33.561,33.561,0,0,1,1.4,27.208,32.362,32.362,0,0,1-18.494,18.508,31.545,31.545,0,0,1-32.289-6.359.92.92,0,0,0-1.285,0,35.8,35.8,0,0,1-24.461,12.433,35.419,35.419,0,0,1-25-8.09,37.379,37.379,0,0,1-9.158-11.43c-.4-.772-1.384-.439-1.661.217a32.283,32.283,0,0,1-22.867,19.062,31.469,31.469,0,0,1-28.024-8.137,33.024,33.024,0,0,1-8.7-14.31.918.918,0,0,0-1.335-.542,39.163,39.163,0,0,1-33.283,4.055A40.067,40.067,0,0,1,7,120.328,41.639,41.639,0,0,1,2.925,90.6a40.789,40.789,0,0,1,16.2-23.922,39.18,39.18,0,0,1,35.2-4.768.92.92,0,0,0,1.15-.875A32.948,32.948,0,0,1,69.148,37.306a31.416,31.416,0,0,1,27.86-4.069,32.17,32.17,0,0,1,14.4,9.99.914.914,0,0,0,1.519-.4,54.444,54.444,0,0,1,5.253-14.361c4.913-9.568,12.384-17.817,22.231-22.424A49.665,49.665,0,0,1,164.131,1.9c1.169.062,1.165-1.754,0-1.815a52.2,52.2,0,0,0-22.12,3.3A45.573,45.573,0,0,0,127,13.209a59.435,59.435,0,0,0-14.3,23.62,42.913,42.913,0,0,0-1.53,5.515l1.519-.4A33.118,33.118,0,0,0,59.18,45.068a35.187,35.187,0,0,0-5.526,15.97l1.15-.875A40.917,40.917,0,0,0,21.1,63.281,42.511,42.511,0,0,0,2.142,86.7a43.617,43.617,0,0,0,1.587,31.146A42.032,42.032,0,0,0,25,139.147a40.978,40.978,0,0,0,38.123-2.9l-1.335-.542a34.443,34.443,0,0,0,21.062,22.5,33.189,33.189,0,0,0,31.123-4.879,34.865,34.865,0,0,0,10.911-14.24l-1.661.217a38.4,38.4,0,0,0,20.024,18.048,37.1,37.1,0,0,0,28.419-.818,37.914,37.914,0,0,0,13.03-9.775h-1.285a33.417,33.417,0,0,0,30.761,7.867,33.985,33.985,0,0,0,21.481-17.284,35.321,35.321,0,0,0,1.4-29.051A34.34,34.34,0,0,0,217.47,88.962a33.356,33.356,0,0,0-34.057,6.826H184.7a38.37,38.37,0,0,0-12.576-9.568l.418,1.025.066-.251-.876.666a39.96,39.96,0,0,0,24.979-6.914,41.681,41.681,0,0,0,15.322-19.738,42.578,42.578,0,0,0,2.615-14.672.909.909,0,0,0-1.817,0Z" transform="translate(0 166.212)"/>
    <path id="Path-3" data-name="Path" d="M0,11.8.017,40.864l35.114-8.8V0" transform="translate(241.962 331.788)" fill="#f9a1c7"/>
    <path id="Path-4" data-name="Path" d="M0,12.676l.006,9.868.009,15.6,0,3.6a.919.919,0,0,0,1.15.875l11.9-2.982,18.853-4.722,4.357-1.091a.922.922,0,0,0,.667-.875V.877a.909.909,0,0,0-1.817,0V32.946l.667-.875-11.9,2.982L5.04,39.775.684,40.866l1.15.875-.006-9.868-.009-15.6,0-3.6a.909.909,0,0,0-1.817,0Z" transform="translate(241.054 330.911)"/>
    <path id="Path-5" data-name="Path" d="M0,11.8.017,40.864l35.114-8.8V0" transform="translate(317.372 331.788)" fill="#f9a1c7"/>
    <path id="Path-6" data-name="Path" d="M0,12.676l.006,9.868.009,15.6,0,3.6a.919.919,0,0,0,1.15.875l11.9-2.982,18.853-4.722,4.357-1.091a.922.922,0,0,0,.667-.875V.877a.909.909,0,0,0-1.817,0V32.946l.667-.875-11.9,2.982L5.04,39.775.684,40.866l1.15.875-.006-9.868-.009-15.6,0-3.6a.909.909,0,0,0-1.817,0Z" transform="translate(316.463 330.911)"/>
    <path id="Path-7" data-name="Path" d="M82.375,55.364c.606,26.623,2.833,77.717,2.833,77.717l44.174.281,4.73-99.862A32.3,32.3,0,0,0,101.815,0H0V53.851Z" transform="translate(225.912 217.732)" fill="#5f5fff"/>
    <path id="Path-8" data-name="Path" d="M82.415,56.279c.136,5.952.317,11.9.512,17.852q.328,9.994.708,19.986.355,9.464.739,18.926.289,7.172.592,14.344c.091,2.169.12,4.352.278,6.518,0,.03,0,.06,0,.09a.925.925,0,0,0,.909.908l14.909.095,23.782.151,5.482.035a.925.925,0,0,0,.909-.908l.164-3.454.436-9.205.631-13.31.75-15.836.789-16.648.745-15.736.627-13.244.433-9.132c.059-1.256.141-2.512.17-3.769A33.24,33.24,0,0,0,110.877,1a39.289,39.289,0,0,0-9.585-1H.949A.921.921,0,0,0,.041.915V48.155c0,2.166-.092,4.355,0,6.52,0,.031,0,.061,0,.092a.923.923,0,0,0,.909.908l8.193.15,19.675.361,23.8.437L73.195,57c3.322.061,6.668.244,9.991.183.046,0,.092,0,.138,0a.908.908,0,0,0,0-1.815l-8.193-.15L55.456,54.86l-23.8-.437-20.574-.378L4.3,53.92c-1.054-.019-2.16-.137-3.213-.059-.045,0-.093,0-.138,0l.909.908V3.12a17.475,17.475,0,0,0,0-2.113.76.76,0,0,1,0-.092l-.909.908H102.656a31.408,31.408,0,0,1,30.167,22.239,33.422,33.422,0,0,1,1.28,11.383l-.317,6.693L133.24,53.67l-.7,14.745-.777,16.4-.772,16.29-.692,14.617-.538,11.356-.3,6.371-.039.829.909-.908-14.91-.095-23.782-.151-5.482-.035.909.908q-.115-2.646-.226-5.292-.287-6.772-.561-13.544-.377-9.272-.73-18.545-.38-10.013-.721-20.027-.308-9.156-.547-18.315-.024-1-.047-1.994A.909.909,0,0,0,82.415,56.279Z" transform="translate(224.962 216.817)"/>
    <path id="Path-9" data-name="Path" d="M17.157,0H59.1S28.6,17.146,23.452,47.146c-16.354-.809-21.116,0-21.116,0L0,.187Z" transform="translate(272.114 225.9)" stroke="#000" stroke-miterlimit="10" stroke-width="1.353"/>
    <rect id="Rectangle" width="51.484" height="13.917" rx="6.958" transform="translate(307.075 338.444)" fill="#ff3e6c"/>
    <path id="Path-10" data-name="Path" d="M4.311,15.752H47.54a8.172,8.172,0,0,0,3.06-.3,4.351,4.351,0,0,0,2.729-4.061c.008-1,0-2.007,0-3.01V4.733a4.569,4.569,0,0,0-1.523-3.7A5.62,5.62,0,0,0,47.871.02H12.245c-2.634,0-5.273-.046-7.907,0A4.349,4.349,0,0,0,.509,2.331,6.755,6.755,0,0,0,.027,5.57V9.547A15.27,15.27,0,0,0,.114,12.32a4.331,4.331,0,0,0,4.2,3.432.908.908,0,0,0,0-1.815,2.506,2.506,0,0,1-2.467-2.571c-.006-.994,0-1.988,0-2.982V4.821A2.736,2.736,0,0,1,3.193,2.1a5.8,5.8,0,0,1,2.58-.266H40.667c2.753,0,5.506-.015,8.259,0a2.54,2.54,0,0,1,2.173,1.1,4.537,4.537,0,0,1,.413,2.637V9.446a15.9,15.9,0,0,1-.022,2.391,2.506,2.506,0,0,1-2.482,2.1c-.248,0-.5,0-.744,0H4.311A.908.908,0,0,0,4.311,15.752Z" transform="translate(306.139 337.516)"/>
    <path id="Path-11" data-name="Path" d="M.878,1.815H16.437a.908.908,0,0,0,0-1.815H.878A.908.908,0,0,0,.878,1.815Z" transform="translate(304.266 272.131)"/>
    <path id="Path-12" data-name="Path" d="M.878,1.817H32.665a16.07,16.07,0,0,1,6.077,1,13.9,13.9,0,0,1,7.674,7.706,14.865,14.865,0,0,1,.965,5.789l-.143,7.2-.275,13.827L46.625,54.4l-.338,17.018-.272,13.7L45.876,92.1l-.006.306a.909.909,0,0,0,1.817,0l.1-4.931.249-12.523.332-16.71.347-17.492.3-14.868.176-8.839c.013-.68.04-1.363.011-2.043A15.654,15.654,0,0,0,33.546,0c-.99,0-1.98,0-2.971,0H.878a.908.908,0,0,0,0,1.815Z" transform="translate(286.038 246.037)"/>
    <path id="Path-13" data-name="Path" d="M43.226,0,54.815,23.147s68.746-10.589,78.74.3a30.471,30.471,0,0,1,8.177,23.3l-119.6,3.9L0,18.609" transform="translate(218.34 173.71)" fill="#ffc2d6"/>
    <path id="Path-14" data-name="Path" d="M43.388,1.377l3.9,7.786,6.255,12.493,1.436,2.868A.933.933,0,0,0,56,24.941c3.423-.527,6.521-.931,9.888-1.356,7.655-.965,15.332-1.776,23.026-2.364a225.346,225.346,0,0,1,25.682-.765,74.859,74.859,0,0,1,10.553,1.018,32.69,32.69,0,0,1,4.156,1.009q.437.14.867.3.2.073.393.15l.229.093a.565.565,0,0,1,.081.035,12.846,12.846,0,0,1,1.481.756c.218.131.427.273.636.418.037.025.072.053.108.079.183.134-.15-.123.024.019.1.081.2.162.294.248a18.715,18.715,0,0,1,2.4,2.782,30.426,30.426,0,0,1,4.473,8.435,28.327,28.327,0,0,1,1.542,11.241c-.012.147-.1.886-.032.386l.876-.666-3.212.1-8.7.283-12.85.419-15.742.513L85,48.635,67.667,49.2l-16.229.529-13.658.445-9.827.32c-1.544.05-3.136-.007-4.673.152-.065.007-.132,0-.2.006l.785.449L16.4,40.293,4.481,23.05,1.73,19.07c-.66-.955-2.236-.048-1.569.916L7.938,31.239,19.923,48.582c.785,1.136,1.517,2.348,2.373,3.434.5.628,1.329.434,2.041.411l10.08-.328,17.513-.57,21.919-.714,23.141-.754,21.164-.689,16.221-.528,7.953-.259.35-.011a.92.92,0,0,0,.876-.666,25.972,25.972,0,0,0-.446-8.607,31.981,31.981,0,0,0-2.717-7.969,28.7,28.7,0,0,0-5.5-7.863,14.511,14.511,0,0,0-6.479-3.133A55.327,55.327,0,0,0,118.4,18.848a185.367,185.367,0,0,0-25.584.281c-8.2.538-16.372,1.355-24.524,2.345q-4.267.518-8.525,1.106c-1.34.185-2.742.284-4.062.584-.059.013-.121.018-.18.027l1.026.417-3.9-7.786L46.393,3.329,44.957.461c-.523-1.045-2.091-.127-1.569.916Z" transform="translate(217.395 172.791)"/>
    <path id="Path-15" data-name="Path" d="M0,.217,21.7,0A13.526,13.526,0,0,1,34.015,7.642l25.04,51.872S38.765,55.582,22.714,69.5C21.2,74.641,0,.217,0,.217Z" transform="translate(206.529 122.518)" fill="#4dcfd3"/>
    <path id="Path-16" data-name="Path" d="M.915,2.034,8.19,1.961l11.62-.116c.914-.009,1.828-.02,2.742-.027A12.625,12.625,0,0,1,34.165,9.049c.183.375.363.751.543,1.126l2.948,6.106,4.623,9.578,5.381,11.147,5.234,10.842L57,56.363c.694,1.438,1.34,2.914,2.088,4.326.033.063.062.128.093.192l1.026-1.333a39.132,39.132,0,0,0-8.467-.525,48.282,48.282,0,0,0-18.555,4.183,41.719,41.719,0,0,0-5.1,2.756,33.753,33.753,0,0,0-4.956,3.677c-.147.137-.412.365-.4.6-.008-.181.125-.248.037-.112a.747.747,0,0,1,.64-.368.571.571,0,0,1,.372.1c-.162-.084.087.022.093.082a1.235,1.235,0,0,0-.185-.2c.138.115.131.188.033.035-.036-.057-.074-.112-.11-.169-.082-.131-.158-.267-.231-.4-.2-.363-.371-.736-.541-1.112-.1-.227-.2-.456-.3-.685s.055.133,0-.008l-.077-.185q-.09-.217-.178-.434-.362-.893-.7-1.8c-1.246-3.293-2.366-6.633-3.466-9.977-1.4-4.256-2.748-8.529-4.073-12.809q-2.131-6.88-4.192-13.783Q7.946,22.065,6.084,15.7,4.656,10.833,3.248,5.956c-.467-1.618-.914-3.243-1.4-4.857-.021-.071-.041-.143-.061-.214a.909.909,0,0,0-1.752.483Q.328,2.38.619,3.392,1.406,6.135,2.2,8.876q1.161,4.008,2.336,8.012,1.429,4.87,2.878,9.734,1.572,5.273,3.175,10.536,1.6,5.232,3.237,10.451,1.5,4.75,3.063,9.478c.846,2.541,1.711,5.076,2.641,7.588a51.257,51.257,0,0,0,2.087,5.073c.4.8,1.207,2.362,2.346,1.664a1.3,1.3,0,0,0,.54-.764l-.234.4a42.14,42.14,0,0,1,18.9-9.2,48.3,48.3,0,0,1,14.12-.851q.551.048,1.1.112c.154.018.307.038.461.057.235.029-.175-.026,0,0l.179.025c.231.034.463.068.693.112a.921.921,0,0,0,1.026-1.333l-1.461-3.027-3.749-7.766L50.459,38.637,44.988,27.3,40.083,17.142l-3.389-7.02a23.124,23.124,0,0,0-2.927-5.01A14.41,14.41,0,0,0,26.008.374,18.327,18.327,0,0,0,21.7.011l-10.438.1-9.782.1L.915.218A.908.908,0,0,0,.915,2.034Z" transform="translate(205.614 121.61)"/>
    <path id="Path-17" data-name="Path" d="M1.2,0,9.723.21S12.677,9.626,4.659,13.7C-3.131,17.661,1.2,0,1.2,0Z" transform="translate(230.222 217.211)"/>
    <path id="Path-18" data-name="Path" d="M2.132,1.815l8.521.21-.876-.666a10.812,10.812,0,0,1,.32,1.434c.019.116.037.232.054.348.035.238-.016-.133,0,.02.008.065.016.13.024.195q.048.421.073.844a14.275,14.275,0,0,1-.018,1.981,10.009,10.009,0,0,1-1.194,4.038A9.122,9.122,0,0,1,5.2,13.789a3.828,3.828,0,0,1-.7.31c-.127.043-.255.082-.386.114-.049.012-.1.021-.147.033-.2.05-.062.016-.075.018-.1.01-.2.017-.3.017-.077,0-.4-.045-.126.005-.1-.017-.187-.041-.281-.064-.036-.009-.071-.025-.106-.036-.165-.051.176.106-.009-.009-.077-.048-.156-.093-.232-.144.079.053.063.068-.048-.053-.064-.07-.129-.137-.19-.209.172.2-.054-.091-.093-.156-.048-.08-.088-.164-.133-.245-.025-.047-.046-.1-.068-.145.088.192.033.08.016.035a6.676,6.676,0,0,1-.228-.733c-.054-.221-.095-.444-.133-.668a1.057,1.057,0,0,1-.032-.233c-.017-.165-.034-.329-.046-.494-.044-.583-.052-1.169-.039-1.753.013-.612.051-1.223.1-1.832q.036-.411.081-.821.025-.225.052-.45.013-.111.028-.223c0-.035.044-.335.02-.155a45.652,45.652,0,0,1,.879-4.749C3.286.015,1.534-.469,1.256.667.9,2.116.637,3.594.425,5.07A22.035,22.035,0,0,0,.3,12.831a4.444,4.444,0,0,0,1.555,2.721,3.408,3.408,0,0,0,3.126.3,10.7,10.7,0,0,0,6.861-8.111A14.564,14.564,0,0,0,11.53.877.935.935,0,0,0,10.654.21L2.132,0A.908.908,0,0,0,2.132,1.815Z" transform="translate(229.292 216.303)"/>
    <path id="Path-19" data-name="Path" d="M16.414,0S1.783,2.811.095,11.243s19.7,10.4,19.7,10.4" transform="translate(152.91 207.021)"/>
    <path id="Path-20" data-name="Path" d="M17.068.019a35,35,0,0,0-6.98,2.216C6.428,3.789,2.465,6.155.769,9.928a6.44,6.44,0,0,0-.433,5,7.967,7.967,0,0,0,3.041,3.522c2.946,2.043,6.631,3.06,10.092,3.825q2.242.5,4.516.824c.85.125,1.722.288,2.582.329.04,0,.079.008.119.012a.915.915,0,0,0,.909-.908.927.927,0,0,0-.909-.908c-.517-.048-1.033-.114-1.548-.181l-.023,0-.186-.026-.427-.061q-.474-.069-.948-.145-1.08-.174-2.154-.383a34.768,34.768,0,0,1-9.68-3.078c-.344-.184-.682-.38-1.012-.59q-.247-.158-.488-.326c-.072-.051-.144-.1-.215-.155a1.122,1.122,0,0,1-.127-.1,8.777,8.777,0,0,1-.807-.728c-.112-.115-.219-.234-.323-.356-.023-.027-.156-.192-.1-.122s-.086-.12-.113-.157a5.136,5.136,0,0,1-.481-.851c.065.146,0,.011-.019-.057s-.049-.139-.071-.21c-.048-.153-.084-.309-.116-.466-.015-.075-.036-.274-.018-.091-.008-.075-.015-.15-.019-.226a4.444,4.444,0,0,1,0-.5c0-.079.011-.158.019-.237,0-.042-.019.09.013-.08.046-.244.1-.486.168-.725,1.028-3.649,4.677-5.987,7.974-7.52A41.981,41.981,0,0,1,17.412,1.8c.046-.012.093-.019.139-.028,1.147-.221.661-1.971-.483-1.75Z" transform="translate(152.015 206.127)"/>
    <path id="Path-21" data-name="Path" d="M67.153,0H27.943c-5.6,0-8.53,2.314-10.934,10.528,0,0-11.032,48.379-17.009,84.491,37.474,9.571,91.078-.119,91.078-.119L70.787,21.282" transform="translate(153.005 122.52)" fill="#4dcfd3"/>
    <path id="Path-22" data-name="Path" d="M68.057,0h-32.7C33.192,0,31.027,0,28.863,0a10.912,10.912,0,0,0-6.337,1.656c-2.368,1.669-3.685,4.348-4.659,7a50.492,50.492,0,0,0-1.727,6.523q-1.4,6.285-2.768,12.579-2.01,9.266-3.94,18.549Q7.17,57.2,5.039,68.118C3.6,75.534,2.211,82.961.923,90.4q-.457,2.64-.895,5.284A.928.928,0,0,0,.663,96.8a137.935,137.935,0,0,0,23.395,3.642,230.592,230.592,0,0,0,23.9.518c7.133-.189,14.258-.644,21.361-1.313q7.944-.749,15.849-1.864,2.4-.34,4.8-.722c.715-.115,1.456-.193,2.161-.361.032-.008.064-.011.1-.017a.917.917,0,0,0,.635-1.116L92.317,93.6l-1.474-5.349-2.181-7.913L86,70.686,83.084,60.107,80.125,49.373l-2.745-9.958L75.061,31l-1.668-6.053c-.263-.955-.5-1.923-.791-2.87-.013-.041-.023-.083-.034-.124a.909.909,0,0,0-1.752.483l.542,1.965,1.474,5.349,2.181,7.913,2.661,9.656L80.589,57.9,83.548,68.63l2.745,9.958L88.612,87l1.669,6.053c.261.947.46,1.945.791,2.87.014.04.023.083.034.124l.635-1.116c-1.858.335-3.727.616-5.595.89-4.8.7-9.648,1.294-14.6,1.793-6.88.693-13.781,1.186-20.691,1.439-7.858.288-15.734.27-23.584-.205a145.473,145.473,0,0,1-23.4-3.143Q2.5,95.4,1.146,95.054l.635,1.116c1.213-7.325,2.54-14.63,3.925-21.924Q7.8,63.21,10.067,52.206q2-9.767,4.1-19.514,1.541-7.176,3.13-14.343c.483-2.176.941-4.36,1.463-6.527a21.187,21.187,0,0,1,2.555-6.235,7.469,7.469,0,0,1,5.225-3.6,17.806,17.806,0,0,1,3.054-.171H68.057a.908.908,0,0,0,0-1.815Z" transform="translate(152.1 121.61)"/>
    <path id="Path-23" data-name="Path" d="M22.46,1.361,17.767,5.228a8.993,8.993,0,0,1-11.71-.235H0L.054,36.155H67.808s1.155-19.217-24.14-21.246A9.034,9.034,0,0,1,35.384,5.8l0-.241A5.508,5.508,0,0,0,29.73,0L25.824.1A5.516,5.516,0,0,0,22.46,1.361Z" transform="translate(241.962 360.678)" fill="#ffcc3e"/>
    <path id="Path-24" data-name="Path" d="M22.726,1.629,19.868,3.984A17.867,17.867,0,0,1,16.39,6.522,8.1,8.1,0,0,1,7.866,5.483,1.565,1.565,0,0,0,6.873,5c-.546-.022-1.1,0-1.644,0H.909A.921.921,0,0,0,0,5.9L.018,16.488.047,33.217l.007,3.847a.922.922,0,0,0,.909.908H60.4c2.729,0,5.474.085,8.2,0,.039,0,.078,0,.117,0a.927.927,0,0,0,.909-.908,16.719,16.719,0,0,0-.465-4.441,20.734,20.734,0,0,0-4.445-9.008,24.737,24.737,0,0,0-12.749-7.5,40.41,40.41,0,0,0-4.986-.95,16.986,16.986,0,0,1-4.968-.918A8.235,8.235,0,0,1,37.2,6.87a6.941,6.941,0,0,0-1.519-4.6A6.453,6.453,0,0,0,31.33.029a22.935,22.935,0,0,0-2.811.03A15.849,15.849,0,0,0,25.4.276a6.7,6.7,0,0,0-2.676,1.353.912.912,0,0,0,0,1.284.931.931,0,0,0,1.285,0A5.429,5.429,0,0,1,27.45,1.9c1-.026,2-.054,3-.078a4.69,4.69,0,0,1,4.933,4.828A10.137,10.137,0,0,0,39.678,15a9.87,9.87,0,0,0,4.585,1.7c1.684.191,3.355.34,5.021.668,4.913.965,9.727,2.948,13.23,6.53a17.653,17.653,0,0,1,3.125,4.3q.291.553.547,1.123.062.138.122.277a.569.569,0,0,1,.039.093c.073.181.145.362.214.544a20.392,20.392,0,0,1,.648,2.039q.233.894.386,1.807c.021.129.041.257.061.386.009.058.016.116.025.174-.011-.076-.02-.169,0,.023.027.234.054.469.074.7.046.541.008,1.09.056,1.628a.516.516,0,0,1,0,.074l.909-.908H3.723c-.87,0-1.775-.071-2.643,0-.038,0-.078,0-.117,0l.909.908L1.853,26.48,1.824,9.751,1.817,5.9l-.909.908H6.966l-.642-.266A9.978,9.978,0,0,0,16.338,8.5c2.187-.816,3.9-2.476,5.669-3.937l2-1.652C24.913,2.168,23.621.89,22.726,1.629Z" transform="translate(241.054 359.769)"/>
    <path id="Path-25" data-name="Path" d="M85.76,55.364c.606,26.623,2.833,77.717,2.833,77.717l44.174.281L137.5,33.5A32.3,32.3,0,0,0,105.2,0H3.385L.6,14.576A33.634,33.634,0,0,0,33.11,54.5Z" transform="translate(149.54 217.732)" fill="#5f5fff"/>
    <path id="Path-26" data-name="Path" d="M85.758,56.279c.136,5.942.317,11.884.511,17.825q.329,10.024.71,20.047.355,9.449.737,18.9.29,7.189.593,14.377c.091,2.158.118,4.33.277,6.484,0,.029,0,.059,0,.088a.925.925,0,0,0,.909.908l15.026.1,23.739.151,5.408.034a.925.925,0,0,0,.909-.908l.162-3.431.438-9.24.631-13.32.751-15.847.786-16.59L138.1,60.1l.63-13.3.431-9.091c.061-1.291.147-2.583.173-3.876A33.241,33.241,0,0,0,114.2,1a39.292,39.292,0,0,0-9.57-.991H4.292a.919.919,0,0,0-.876.666L1.449,10.965C.628,15.256-.217,19.486.051,23.891a34.627,34.627,0,0,0,20.415,29.45,35.711,35.711,0,0,0,13.963,2.993l6.837.112,12.367.2,14.079.23,12.141.2,6.514.106.3,0a.908.908,0,0,0,0-1.815L82.233,55.3l-10.907-.178L57.609,54.9l-13.082-.214-8.79-.143a39.982,39.982,0,0,1-9.283-1.03A32.677,32.677,0,0,1,1.944,18.829c.148-1.627.461-3.223.768-4.824L4.992,2.08l.177-.923-.876.666h101.7a31.408,31.408,0,0,1,30.187,22.29,33.422,33.422,0,0,1,1.264,11.328l-.317,6.691-.546,11.535-.7,14.751-.777,16.407-.772,16.3-.693,14.62-.536,11.317-.3,6.386-.04.836.909-.908-15.026-.1-23.739-.151-5.408-.034.909.908q-.115-2.639-.226-5.278-.288-6.793-.563-13.586-.376-9.261-.729-18.522-.381-10.043-.723-20.087-.307-9.139-.545-18.281-.024-.982-.046-1.964A.909.909,0,0,0,85.758,56.279Z" transform="translate(148.633 216.817)"/>
    <path id="Path-27" data-name="Path" d="M.053,11.5H67.808a19.572,19.572,0,0,0-1.484-6.656l-9.691-.3L52.033,2.8a17.781,17.781,0,0,0-11.378.049h0a17.78,17.78,0,0,1-9.97.454l-3.653-.89a17.781,17.781,0,0,0-7.468-.2l-5.177.965A17.779,17.779,0,0,1,3.115,1.573L0,0Z" transform="translate(241.963 385.337)" fill="#fff"/>
    <path id="Path-28" data-name="Path" d="M.962,13.3H60.4c2.729,0,5.474.085,8.2,0,.039,0,.078,0,.117,0a.923.923,0,0,0,.909-.908,19.373,19.373,0,0,0-1.516-6.9.948.948,0,0,0-.876-.666l-9.1-.284a4.66,4.66,0,0,0-.529-.016c-.177.015.175-.007.174.028a1.777,1.777,0,0,0-.225-.085l-2.431-.916c-.64-.241-1.278-.5-1.923-.725A17.732,17.732,0,0,0,48.058,1.9a18.7,18.7,0,0,0-5.563.619,29.491,29.491,0,0,1-5.268,1.226,17.22,17.22,0,0,1-5.4-.416c-.733-.175-1.464-.357-2.2-.535A22.359,22.359,0,0,0,21.3,2.071c-1.728.227-3.443.609-5.156.929a19.067,19.067,0,0,1-7.626.1A27.21,27.21,0,0,1,2.032.452L1.367.117A.919.919,0,0,0,0,.9L.047,10.98.054,12.4a.909.909,0,0,0,1.817,0L1.824,2.317,1.817.9.45,1.684C2,2.464,3.525,3.31,5.131,3.96a18.825,18.825,0,0,0,10.417.992c1.559-.284,3.116-.581,4.674-.872a18.127,18.127,0,0,1,7.718.171,45.91,45.91,0,0,0,6,1.271,18.6,18.6,0,0,0,5.773-.316c1.779-.375,3.449-1.085,5.258-1.345a17.062,17.062,0,0,1,8.451.991l2.734,1.03a5.349,5.349,0,0,0,1.43.466c1.427.1,2.871.089,4.3.134l5.035.157.313.01-.876-.666A18.058,18.058,0,0,1,67.808,12.4l.909-.908H9.282c-2.729,0-5.474-.085-8.2,0-.039,0-.078,0-.117,0A.908.908,0,0,0,.962,13.3Z" transform="translate(241.054 384.437)"/>
    <path id="Path-29" data-name="Path" d="M3.36.117A5.951,5.951,0,0,0,2.176.994,6.846,6.846,0,0,0,.39,3.636,6.416,6.416,0,0,0,0,5.864a.909.909,0,0,0,1.817,0c0-.147.005-.294.016-.441.006-.082.016-.164.024-.247.01-.109-.006.068-.009.069a.761.761,0,0,0,.022-.135,5.429,5.429,0,0,1,.21-.818q.03-.088.063-.175c.011-.028.024-.057.033-.085.034-.1-.032.083-.034.077-.017-.077.141-.3.177-.371a5.7,5.7,0,0,1,.374-.614Q2.738,3.06,2.785,3l.047-.062c.057-.079-.07.089-.064.083.076-.071.137-.168.206-.246q.2-.221.41-.423c.123-.116.252-.225.383-.332.176-.143-.186.134.013-.009.05-.036.1-.072.15-.107a3.529,3.529,0,0,1,.347-.216A.914.914,0,0,0,4.6.443.929.929,0,0,0,3.36.117Z" transform="translate(276.189 372.069)"/>
    <path id="Path-30" data-name="Path" d="M3.36.117A5.95,5.95,0,0,0,2.176.994,6.847,6.847,0,0,0,.39,3.636,6.416,6.416,0,0,0,0,5.864a.909.909,0,0,0,1.817,0c0-.147.005-.294.016-.441.006-.082.016-.164.024-.247.01-.109-.006.068-.01.069a.757.757,0,0,0,.022-.135,5.434,5.434,0,0,1,.21-.818q.03-.088.063-.175c.011-.028.024-.057.033-.085.034-.1-.032.083-.034.077-.017-.077.141-.3.177-.371a5.687,5.687,0,0,1,.374-.614Q2.738,3.06,2.785,3l.047-.062c.057-.079-.07.089-.064.083.076-.071.137-.168.206-.246q.2-.221.41-.423c.123-.116.252-.225.383-.332.176-.143-.186.134.013-.009.05-.036.1-.072.15-.107a3.534,3.534,0,0,1,.347-.216A.915.915,0,0,0,4.6.443.929.929,0,0,0,3.36.117Z" transform="translate(280.661 374.474)"/>
    <path id="Path-31" data-name="Path" d="M3.36.117A5.95,5.95,0,0,0,2.176.994,6.847,6.847,0,0,0,.39,3.636,6.415,6.415,0,0,0,0,5.864a.909.909,0,0,0,1.817,0c0-.147.005-.294.016-.441.006-.083.016-.164.024-.247.01-.109-.006.068-.01.069a.758.758,0,0,0,.022-.135,5.437,5.437,0,0,1,.21-.818q.03-.088.063-.175c.011-.028.024-.057.033-.085.034-.1-.032.083-.034.077-.017-.077.141-.3.177-.371a5.683,5.683,0,0,1,.374-.614Q2.738,3.06,2.785,3l.047-.062c.057-.079-.07.089-.064.083.076-.071.137-.168.206-.246q.2-.221.41-.423c.123-.116.252-.225.383-.332.176-.143-.186.134.013-.009.05-.036.1-.072.15-.107a3.543,3.543,0,0,1,.347-.216A.915.915,0,0,0,4.6.443.929.929,0,0,0,3.36.117Z" transform="translate(286.73 375.505)"/>
    <path id="Path-32" data-name="Path" d="M22.46,1.361,17.767,5.228a8.993,8.993,0,0,1-11.71-.235H0L.054,36.155H67.808s1.155-19.219-24.143-21.246A9.033,9.033,0,0,1,35.384,5.8l0-.241A5.509,5.509,0,0,0,29.73,0L25.824.1A5.516,5.516,0,0,0,22.46,1.361Z" transform="translate(317.372 360.678)" fill="#ffcc3e"/>
    <path id="Path-33" data-name="Path" d="M22.726,1.629,19.868,3.984A17.867,17.867,0,0,1,16.39,6.523,8.1,8.1,0,0,1,7.866,5.484,1.565,1.565,0,0,0,6.873,5c-.546-.022-1.1,0-1.644,0H.909A.921.921,0,0,0,0,5.9L.018,16.488.047,33.218l.007,3.847a.922.922,0,0,0,.909.908H60.4c2.729,0,5.474.085,8.2,0,.039,0,.078,0,.117,0a.927.927,0,0,0,.909-.908,16.718,16.718,0,0,0-.465-4.442,20.734,20.734,0,0,0-4.445-9.008,24.738,24.738,0,0,0-12.751-7.5,40.419,40.419,0,0,0-4.987-.95,16.969,16.969,0,0,1-4.967-.917A8.235,8.235,0,0,1,37.2,6.871a6.941,6.941,0,0,0-1.519-4.6A6.453,6.453,0,0,0,31.33.029a22.936,22.936,0,0,0-2.811.03A15.849,15.849,0,0,0,25.4.276a6.7,6.7,0,0,0-2.676,1.353.912.912,0,0,0,0,1.284.931.931,0,0,0,1.285,0A5.43,5.43,0,0,1,27.45,1.9c1-.026,2-.054,3-.078a4.69,4.69,0,0,1,4.933,4.829A10.137,10.137,0,0,0,39.676,15a9.862,9.862,0,0,0,4.584,1.7c1.684.191,3.355.34,5.022.667,4.913.965,9.728,2.948,13.231,6.53a17.652,17.652,0,0,1,3.125,4.3q.292.553.547,1.123.062.138.122.277a.569.569,0,0,1,.039.093c.073.181.145.362.214.544a20.383,20.383,0,0,1,.648,2.039q.233.894.386,1.807c.021.129.041.257.061.386.009.058.016.116.025.174-.011-.076-.02-.169,0,.023.027.234.054.469.074.7.046.541.008,1.09.056,1.628a.521.521,0,0,1,0,.074l.909-.908H3.723c-.87,0-1.775-.071-2.643,0-.038,0-.078,0-.117,0l.909.908L1.853,26.48,1.824,9.751,1.817,5.9l-.909.908H6.966l-.642-.266A9.978,9.978,0,0,0,16.338,8.5c2.187-.816,3.9-2.476,5.669-3.937l2-1.652C24.913,2.169,23.621.891,22.726,1.629Z" transform="translate(316.463 359.768)"/>
    <path id="Path-34" data-name="Path" d="M.053,11.5H67.808a19.573,19.573,0,0,0-1.484-6.656l-9.691-.3L52.033,2.8a17.781,17.781,0,0,0-11.378.049h0a17.78,17.78,0,0,1-9.97.454l-3.653-.89a17.782,17.782,0,0,0-7.468-.2l-5.177.965A17.779,17.779,0,0,1,3.115,1.573L0,0Z" transform="translate(317.372 385.337)" fill="#fff"/>
    <path id="Path-35" data-name="Path" d="M.962,13.3H60.4c2.729,0,5.474.085,8.2,0,.039,0,.078,0,.117,0a.923.923,0,0,0,.909-.908,19.373,19.373,0,0,0-1.516-6.9.948.948,0,0,0-.876-.666l-9.1-.284a4.66,4.66,0,0,0-.529-.016c-.177.015.175-.007.174.028a1.777,1.777,0,0,0-.225-.085l-2.431-.916c-.64-.241-1.278-.5-1.923-.725A17.732,17.732,0,0,0,48.058,1.9a18.7,18.7,0,0,0-5.563.619,29.493,29.493,0,0,1-5.268,1.226,17.22,17.22,0,0,1-5.4-.416c-.733-.175-1.464-.357-2.2-.535A22.359,22.359,0,0,0,21.3,2.071c-1.728.227-3.443.609-5.156.929a19.067,19.067,0,0,1-7.626.1A27.211,27.211,0,0,1,2.032.452L1.367.117A.919.919,0,0,0,0,.9L.047,10.98.054,12.4a.909.909,0,0,0,1.817,0L1.824,2.317,1.817.9.45,1.684C2,2.464,3.525,3.31,5.131,3.96a18.825,18.825,0,0,0,10.417.992c1.559-.284,3.116-.581,4.674-.872a18.127,18.127,0,0,1,7.718.171,45.91,45.91,0,0,0,6,1.271,18.6,18.6,0,0,0,5.773-.316c1.779-.375,3.449-1.085,5.258-1.345a17.062,17.062,0,0,1,8.451.991l2.734,1.03a5.349,5.349,0,0,0,1.43.466c1.427.1,2.871.089,4.3.134l5.035.157.313.01-.876-.666A18.059,18.059,0,0,1,67.808,12.4l.909-.908H9.282c-2.729,0-5.474-.085-8.2,0-.039,0-.078,0-.117,0A.908.908,0,0,0,.962,13.3Z" transform="translate(316.463 384.437)"/>
    <path id="Path-36" data-name="Path" d="M3.36.117A5.951,5.951,0,0,0,2.176.994,6.847,6.847,0,0,0,.39,3.636,6.416,6.416,0,0,0,0,5.864a.909.909,0,0,0,1.817,0c0-.147.005-.294.016-.441.006-.082.016-.164.024-.247.01-.109-.006.068-.009.069a.757.757,0,0,0,.022-.135,5.435,5.435,0,0,1,.21-.818q.03-.088.063-.175c.011-.028.024-.057.033-.085.034-.1-.032.083-.034.077-.017-.077.141-.3.177-.371a5.7,5.7,0,0,1,.374-.614Q2.738,3.06,2.785,3l.047-.062c.057-.079-.07.089-.064.083.076-.071.137-.168.206-.246q.2-.221.41-.423c.123-.116.252-.225.383-.332.176-.143-.186.134.013-.009.05-.036.1-.072.15-.107a3.535,3.535,0,0,1,.347-.216A.915.915,0,0,0,4.6.443.929.929,0,0,0,3.36.117Z" transform="translate(351.599 372.069)"/>
    <path id="Path-37" data-name="Path" d="M3.36.117A5.95,5.95,0,0,0,2.176.994,6.847,6.847,0,0,0,.39,3.636,6.416,6.416,0,0,0,0,5.864a.909.909,0,0,0,1.817,0c0-.147.005-.294.016-.441.006-.082.016-.164.024-.247.01-.109-.006.068-.01.069a.757.757,0,0,0,.022-.135,5.434,5.434,0,0,1,.21-.818q.03-.088.063-.175c.011-.028.024-.057.033-.085.034-.1-.032.083-.034.077-.017-.077.141-.3.177-.371a5.687,5.687,0,0,1,.374-.614Q2.738,3.06,2.785,3l.047-.062c.057-.079-.07.089-.064.083.076-.071.137-.168.206-.246q.2-.221.41-.423c.123-.116.252-.225.383-.332.176-.143-.186.134.013-.009.05-.036.1-.072.151-.107a3.529,3.529,0,0,1,.347-.216A.915.915,0,0,0,4.6.443.929.929,0,0,0,3.36.117Z" transform="translate(356.071 374.474)"/>
    <path id="Path-38" data-name="Path" d="M3.36.117A5.95,5.95,0,0,0,2.176.994,6.847,6.847,0,0,0,.39,3.636,6.415,6.415,0,0,0,0,5.864a.909.909,0,0,0,1.817,0c0-.147.005-.294.016-.441.006-.083.016-.164.024-.247.01-.109-.006.068-.01.069a.758.758,0,0,0,.022-.135,5.437,5.437,0,0,1,.21-.818q.03-.088.063-.175c.011-.028.024-.057.033-.085.034-.1-.032.083-.034.077-.017-.077.141-.3.177-.371a5.683,5.683,0,0,1,.374-.614Q2.738,3.06,2.785,3l.047-.062c.057-.079-.07.089-.064.083.076-.071.137-.168.206-.246q.2-.221.41-.423c.123-.116.252-.225.383-.332.176-.143-.186.134.013-.009.05-.036.1-.072.151-.107a3.537,3.537,0,0,1,.347-.216A.915.915,0,0,0,4.6.443.929.929,0,0,0,3.36.117Z" transform="translate(362.139 375.505)"/>
    <path id="Path-39" data-name="Path" d="M48.438,28.438,62.75,68.578A127.364,127.364,0,0,0,50.47,72.7C42.7,75.743,25.483,91.233,20.261,94.643l-18.649-55A30.018,30.018,0,0,1,30.067,0H53.586" transform="translate(132.653 122.433)" fill="#4dcfd3"/>
    <path id="Path-40" data-name="Path" d="M48.453,29.591l1.42,3.981,3.411,9.565L57.43,54.768,61,64.781,62.182,68.1a14.592,14.592,0,0,0,.557,1.563.664.664,0,0,1,.025.071l.635-1.116q-3.636,1.013-7.2,2.251c-2.037.7-4.109,1.4-6.072,2.3a45.007,45.007,0,0,0-7.053,4.3c-5.6,3.942-10.887,8.322-16.225,12.61-2.069,1.662-3.953,3.261-6.153,4.7l1.335.542-1.672-4.932L16.261,78.305,11.185,63.334,6.525,49.589,3.688,41.223c-.314-.927-.628-1.853-.883-2.8A29.1,29.1,0,0,1,29.849,1.838c3.506-.125,7.031-.02,10.539-.02h14.09a.908.908,0,0,0,0-1.815h-23.1A30.9,30.9,0,0,0,1.655,40.876Q2.69,43.936,3.73,47L8.054,59.749,13.226,75l4.5,13.282,2.434,7.179.112.331a.919.919,0,0,0,1.335.542c1.912-1.253,3.69-2.724,5.474-4.148,2.523-2.015,5.025-4.055,7.551-6.065,2.711-2.157,5.443-4.29,8.254-6.316a57.913,57.913,0,0,1,7.234-4.634A45.635,45.635,0,0,1,55.876,72.9q3.96-1.4,8.007-2.531a.916.916,0,0,0,.635-1.116L63.1,65.267,59.687,55.7,55.54,44.071,51.97,34.057c-.579-1.625-1.131-3.264-1.739-4.878-.009-.023-.017-.047-.025-.071-.389-1.093-2.146-.622-1.752.483Z" transform="translate(131.761 121.522)"/>
    <path id="Path-41" data-name="Path" d="M.186,12.141C-.941,9.268,3.124,4.725,10.361,0l7.105,13.856C8.131,15.646,1.381,15.186.186,12.141Z" transform="translate(152.899 205.091)"/>
    <path id="Path-42" data-name="Path" d="M1.982,12.805a1.728,1.728,0,0,1-.149-.954q0-.086.014-.171-.022.145,0-.02.024-.134.056-.267a4.791,4.791,0,0,1,.206-.644A10.075,10.075,0,0,1,3.84,8.15a37.793,37.793,0,0,1,7.9-6.461L10.5,1.363,16.72,13.5,17.6,15.22l.543-1.333a42.742,42.742,0,0,1-11.175.946,11.857,11.857,0,0,1-3.338-.687,5.119,5.119,0,0,1-.662-.336c-.1-.059-.2-.123-.29-.189s.02.036-.14-.114c-.077-.072-.155-.143-.227-.22-.028-.03-.223-.283-.1-.111-.058-.082-.11-.166-.161-.252-.022-.037-.153-.325-.068-.118a.938.938,0,0,0-1.118-.634A.913.913,0,0,0,.23,13.288c.719,1.758,2.456,2.6,4.222,3a25.677,25.677,0,0,0,8.1.241c2.04-.195,4.067-.508,6.079-.891a.917.917,0,0,0,.543-1.333L12.946,2.166,12.065.447A.916.916,0,0,0,10.822.122,37.9,37.9,0,0,0,2.279,7.19C.943,8.8-.589,11.1.23,13.288a.934.934,0,0,0,1.118.634.915.915,0,0,0,.635-1.116Z" transform="translate(151.979 204.185)"/>
    <path id="Path-43" data-name="Path" d="M104.785,9.076H9.085A9.081,9.081,0,0,1,0,0H104.785Z" transform="translate(239.843 216.824)" fill="#fff"/>
    <path id="Path-44" data-name="Path" d="M105.694,9.088H10.961c-.318,0-.636,0-.954,0A8.177,8.177,0,0,1,4.216,6.7,8.16,8.16,0,0,1,1.817.92l-.909.908H101.439c1.353,0,2.727.069,4.079,0,.058,0,.117,0,.176,0L104.785.92V10a.909.909,0,0,0,1.817,0V.92a.921.921,0,0,0-.909-.908H5.163c-1.359,0-2.72-.027-4.079,0-.059,0-.117,0-.176,0A.922.922,0,0,0,0,.92,10.08,10.08,0,0,0,4.824,9.465,10.273,10.273,0,0,0,10.175,10.9q2.156,0,4.312,0H101.2c1.434,0,2.872.028,4.306,0,.062,0,.124,0,.187,0A.908.908,0,0,0,105.694,9.088Z" transform="translate(238.934 215.905)"/>
    <path id="Path-45" data-name="Path" d="M1.694,72.246,21.721,0h75.8L78.278,69.4A12.222,12.222,0,0,1,66.5,78.357H0" transform="translate(328.577 147.544)" fill="#fff"/>
    <path id="Path-46" data-name="Path" d="M3.448,73.438l2-7.226,4.778-17.236L16,28.141,21.02,10.047l1.642-5.924c.257-.926.6-1.864.779-2.808.008-.041.022-.081.034-.121l-.876.666H95.289c.982,0,2,.079,2.981,0,.041,0,.083,0,.125,0L97.518.71,95.563,7.763,90.869,24.7,85.244,44.989l-4.8,17.3c-.72,2.6-1.428,5.2-2.16,7.794a11.444,11.444,0,0,1-8.8,8.118,19.161,19.161,0,0,1-3.69.194H.878a.908.908,0,0,0,0,1.815H67.183a13.343,13.343,0,0,0,9.757-4.13,14.38,14.38,0,0,0,3.277-6.16l1.091-3.934,4.3-15.5,5.608-20.232,5.114-18.449L99.139,1.668l.132-.476A.917.917,0,0,0,98.395.043H31.933c-3.064,0-6.147-.1-9.21,0-.041,0-.083,0-.125,0a.926.926,0,0,0-.876.666l-2,7.226L14.941,25.172,9.166,46.006,4.15,64.1c-.806,2.906-1.706,5.8-2.421,8.733-.01.041-.022.081-.034.121a.909.909,0,0,0,1.752.483Z" transform="translate(327.699 146.593)"/>
    <path id="Path-47" data-name="Path" d="M19.862,9.471a127.365,127.365,0,0,1,12.28-4.123L38.269,22.3l1.743,4.822L117.164,0l7.947,30.5L52.666,63.03c-15.758,5.467-33.3-1.8-41.518-16.3l-4.664-9.75L0,19.428A111.692,111.692,0,0,1,19.862,9.471Z" transform="translate(163.26 185.663)" fill="#ffc2d6"/>
    <path id="Path-48" data-name="Path" d="M21.01,11.252A128.957,128.957,0,0,1,33.29,7.129L32.173,6.5l3.084,8.532L38.3,23.444l1.742,4.82a.922.922,0,0,0,1.118.634l7.709-2.71,18.388-6.463,22.348-7.855,19.213-6.753,6.363-2.236c.984-.346,2.06-.614,3.005-1.056.039-.018.084-.03.125-.044l-1.118-.634,2.689,10.322L124.165,27.9l.976,3.748.418-1.025L120.495,32.9l-12.746,5.722-16.7,7.5L73.988,53.78l-13.816,6.2c-2.281,1.024-4.547,2.1-6.848,3.075a13.092,13.092,0,0,1-1.552.5A31.727,31.727,0,0,1,45.1,64.765,33.533,33.533,0,0,1,31.94,63.03,34.818,34.818,0,0,1,20.5,56.482a35.765,35.765,0,0,1-4.785-5,26.513,26.513,0,0,1-2.942-4.446c-1.155-2.322-2.24-4.682-3.359-7.022A28.122,28.122,0,0,0,8.2,37.474c-.1-.161.069.272.058.14a.933.933,0,0,0-.073-.2c-.1-.287-.211-.572-.317-.857l-5.6-15.166-.48-1.3-.418,1.025A108.73,108.73,0,0,1,21.01,11.252c1.076-.423.607-2.179-.483-1.75A111.029,111.029,0,0,0,.448,19.55.924.924,0,0,0,.03,20.575L5.021,34.084c.531,1.437.981,2.944,1.623,4.337,1.07,2.322,2.208,4.615,3.311,6.921.425.888.83,1.788,1.275,2.666a29.559,29.559,0,0,0,3.312,4.9,36.78,36.78,0,0,0,10.36,8.9A35.384,35.384,0,0,0,51.385,65.55a44.367,44.367,0,0,0,6.876-2.73l12.3-5.521,16.676-7.487,17.316-7.774,14.215-6.382,7.374-3.311.336-.151a.914.914,0,0,0,.417-1.025L124.2,20.848,119.923,4.413,118.947.665a.916.916,0,0,0-1.118-.634l-7.709,2.71L91.732,9.2,69.383,17.059,50.17,23.811l-6.363,2.236c-.984.346-2.06.614-3.005,1.056-.039.018-.084.03-.125.044l1.118.634L39.313,20.92,35.122,9.325l-1.2-3.312a.928.928,0,0,0-1.118-.634A128.961,128.961,0,0,0,20.527,9.5C19.45,9.923,19.918,11.679,21.01,11.252Z" transform="translate(162.354 184.757)"/>
    <path id="Path-49" data-name="Path" d="M19.117,22.69h0a19.107,19.107,0,0,0,19.117-19.1V0H0V3.593A19.107,19.107,0,0,0,19.117,22.69Z" transform="translate(174.267 122.433)" fill="#ffc2d6"/>
    <path id="Path-50" data-name="Path" d="M20.03,24.535A20.016,20.016,0,0,0,40.02,5.7c.1-1.582.036-3.18.036-4.765A.921.921,0,0,0,39.147.03H5.623C4.08.03,2.521-.037.98.03H.913A.922.922,0,0,0,0,.937c0,1.25-.01,2.5,0,3.75a19.892,19.892,0,0,0,1.52,7.484,20.139,20.139,0,0,0,10.1,10.516,20.376,20.376,0,0,0,8.408,1.848.908.908,0,0,0,0-1.815A18.2,18.2,0,0,1,1.837,5.313C1.778,3.858,1.821,2.394,1.821.937l-.909.908h36.67a13.554,13.554,0,0,0,1.5,0,.6.6,0,0,1,.067,0L38.239.937c0,1.2,0,2.392,0,3.588A18.145,18.145,0,0,1,27.655,21.058,18.1,18.1,0,0,1,20.03,22.72.908.908,0,0,0,20.03,24.535Z" transform="translate(173.354 121.496)"/>
    <path id="Path-51" data-name="Path" d="M0,25.876.346,0,22.372,8.3l.8,16.981" transform="translate(180.57 100.188)" fill="#ffc2d6"/>
    <path id="Path-52" data-name="Path" d="M1.817,26.782l.117-8.767L2.12,4.108l.043-3.2-1.15.875L8.476,4.593,20.311,9.053l2.728,1.028-.667-.875.7,14.906.1,2.075c.055,1.163,1.872,1.17,1.817,0l-.7-14.906-.1-2.075a.948.948,0,0,0-.667-.875L16.059,5.518,4.224,1.058,1.5.031A.915.915,0,0,0,.346.906L.229,9.673.043,23.58,0,26.782a.909.909,0,0,0,1.817,0Z" transform="translate(179.661 99.281)"/>
    <path id="Path-53" data-name="Path" d="M9.677,39.915C-3.043,30.233.767,20.348.024,13.2-.407,9.053,5.009,0,5.009,0L47.191,1.219S64.643,48.17,23.909,41.573" transform="translate(171.11 69.207)" fill="#ffc2d6"/>
    <path id="Path-54" data-name="Path" d="M11.034,40.042A23.713,23.713,0,0,1,3.444,30.9a22,22,0,0,1-1.6-8.519c-.033-2.538.216-5.084.046-7.62a9.757,9.757,0,0,1,.284-3.445A27.684,27.684,0,0,1,3.683,7.191,55.443,55.443,0,0,1,6.692,1.37l-.784.45,4.2.121,10.075.291,12.189.352,10.535.3,3.459.1a15.6,15.6,0,0,0,1.652.048.712.712,0,0,1,.076,0l-.876-.666c.553,1.488,1,3.022,1.414,4.552q.655,2.406,1.146,4.852.281,1.4.5,2.815.057.367.11.734.027.185.052.371c.024.174,0,.015,0-.018q.017.131.034.262.1.777.179,1.556a45.249,45.249,0,0,1,.221,6.263q-.03.787-.095,1.571c-.04.479-.116,1.181-.161,1.514s-.157,1.02-.248,1.488q-.147.755-.34,1.5a21.031,21.031,0,0,1-.961,2.872c.083-.2-.069.154-.087.2q-.076.171-.157.34-.16.338-.333.668-.355.676-.771,1.318-.192.3-.4.585c-.072.1-.146.2-.221.3l-.09.119c.128-.167-.039.049-.066.081-.326.4-.665.785-1.027,1.151a14.666,14.666,0,0,1-1.134,1.031c-.045.036-.333.264-.183.148q-.14.108-.283.212-.338.246-.688.473a15.788,15.788,0,0,1-1.421.818,13.336,13.336,0,0,1-1.436.642,20.7,20.7,0,0,1-3.68,1.015,33.487,33.487,0,0,1-9.313.173c-.912-.1-1.82-.22-2.726-.366a.937.937,0,0,0-1.118.634.915.915,0,0,0,.635,1.116c6.071.975,12.75,1.235,18.405-1.572a16.793,16.793,0,0,0,8.251-9.654,32.269,32.269,0,0,0,1.4-12.78,64.376,64.376,0,0,0-1.91-11.659,53.593,53.593,0,0,0-1.714-5.726l-.029-.08a.946.946,0,0,0-.876-.666l-4.2-.121L33.818.811,21.629.459,11.094.154C9.4.1,7.68-.031,5.983.006c-.025,0-.051,0-.076,0a.91.91,0,0,0-.785.449,56.25,56.25,0,0,0-2.682,5.1A36.746,36.746,0,0,0,.662,10,11,11,0,0,0,0,13.981c.184,2.607.017,5.195.017,7.8a25.018,25.018,0,0,0,1.441,9.03A25.356,25.356,0,0,0,10.116,41.61a.914.914,0,0,0,1.243-.326.93.93,0,0,0-.326-1.242Z" transform="translate(170.212 68.296)"/>
    <path id="Path-55" data-name="Path" d="M9.547,1.1a8.928,8.928,0,0,0-9.123.33C-.562,2.053.349,3.625,1.342,3a7.526,7.526,0,0,1,2.829-1.11,7.348,7.348,0,0,1,2.266.027,8.513,8.513,0,0,1,.965.236q.2.063.4.135l.2.074c.029.011.2.084.067.026-.111-.047.135.061.188.087s.133.065.2.1.118.062.175.1A.908.908,0,0,0,9.547,1.1Z" transform="translate(196.368 78.638)"/>
    <path id="Path-56" data-name="Path" d="M10.141.606A9.449,9.449,0,0,0,7.258.033,7.237,7.237,0,0,0,2.406,1.107,5.814,5.814,0,0,0,.055,4.825a7.793,7.793,0,0,0,.7,4.281,15.62,15.62,0,0,0,3.513,4.971l-.234-.4a1.282,1.282,0,0,1,.052.354,1.048,1.048,0,0,1-.016.217c-.016.065-.069.176-.014.057-.027.06-.052.1,0,.02-.1.143-.068.093-.193.156a4.872,4.872,0,0,1-2.184.164c-1.166-.09-1.16,1.726,0,1.815,1.473.114,3.575.059,4.117-1.647a2.487,2.487,0,0,0,.1-.934,1.956,1.956,0,0,0-.652-1.393A14.57,14.57,0,0,1,3.157,9.829a7.4,7.4,0,0,1-1.337-4.6A4.026,4.026,0,0,1,5.014,1.921a8.563,8.563,0,0,1,4.644.436.914.914,0,0,0,1.118-.634A.93.93,0,0,0,10.141.606Z" transform="translate(210.135 78.124)"/>
    <ellipse id="Oval" cx="1.477" cy="1.475" rx="1.477" ry="1.475" transform="translate(216.801 84.782)"/>
    <path id="Path-57" data-name="Path" d="M3.858,1.868A1.965,1.965,0,0,0,2.523.092,1.928,1.928,0,1,0,3.858,1.868a.454.454,0,0,0-.909,0,2.012,2.012,0,0,1-.006.2c.008-.106,0,.02-.008.037s-.012.051-.018.077-.024.075-.035.112c-.005.018-.034.08,0,0a1.521,1.521,0,0,1-.111.2s-.072.1-.032.048-.039.044-.038.043c-.043.048-.09.09-.137.134s-.014.012,0,0c-.031.022-.063.044-.1.065l-.067.039c-.013.007-.136.063-.087.044s-.058.019-.056.018c-.031.01-.063.019-.1.027s-.065.014-.1.021c-.121.026.054,0-.02,0s-.136.006-.205,0c-.024,0-.114-.013-.02,0q-.059-.009-.117-.023a1.669,1.669,0,0,1-.187-.058c.091.033-.074-.038-.1-.054s-.054-.034-.082-.051-.087-.066-.017-.009A1.508,1.508,0,0,1,1.154,2.6c-.017-.019-.034-.039-.05-.058.065.079-.012-.02-.02-.033-.036-.054-.065-.111-.1-.169-.009-.017-.03-.079,0,0C.974,2.3.961,2.262.95,2.225s-.014-.051-.02-.077S.9,2,.91,2.049c.006.07,0-.065,0-.062,0-.027,0-.055,0-.082s.005-.081.007-.122c0,.085,0,.024,0,0a1.949,1.949,0,0,1,.048-.191c0-.014.053-.133.01-.037q.024-.053.051-.1a1.627,1.627,0,0,1,.1-.163c-.052.074,0,0,.013-.013s.043-.047.066-.07.047-.044.07-.066.086-.066.013-.013a1.548,1.548,0,0,1,.2-.122l.07-.034c-.1.042.025-.006.038-.011A1.471,1.471,0,0,1,1.767.917c.025,0,.112-.011.02,0,.034,0,.068-.005.1-.006s.068,0,.1,0,.122.011.04,0a1.417,1.417,0,0,1,.231.055s.119.043.055.018.073.037.086.043l.067.039c.017.01.145.105.065.04a1.512,1.512,0,0,1,.141.13c.027.028.052.057.076.086-.063-.077.013.022.02.033a1.46,1.46,0,0,1,.112.2c-.037-.084,0,0,0,.019q.022.066.038.133c.006.026.011.052.016.079q.013.08,0,0,0,.041.006.082a.454.454,0,0,0,.909,0Z" transform="translate(216.349 84.33)"/>
    <ellipse id="Oval-2" data-name="Oval" cx="1.477" cy="1.475" rx="1.477" ry="1.475" transform="translate(202.87 84.782)"/>
    <path id="Path-58" data-name="Path" d="M3.858,1.868A1.965,1.965,0,0,0,2.523.092,1.928,1.928,0,1,0,3.858,1.868a.454.454,0,0,0-.909,0,2,2,0,0,1-.006.2c.008-.106,0,.02-.008.037s-.012.051-.018.077-.024.075-.035.112c-.005.018-.034.08,0,0a1.515,1.515,0,0,1-.111.2s-.072.1-.031.048-.039.044-.038.043c-.043.048-.09.09-.137.134s-.014.012,0,0c-.031.022-.063.044-.1.065l-.067.039c-.013.007-.136.063-.087.044s-.058.019-.056.018c-.031.01-.063.019-.1.027s-.065.014-.1.021c-.121.026.054,0-.02,0s-.136.006-.205,0c-.024,0-.114-.013-.019,0-.039-.006-.078-.013-.117-.023a1.667,1.667,0,0,1-.187-.058c.091.033-.074-.038-.1-.054s-.054-.034-.082-.051-.087-.066-.016-.009A1.508,1.508,0,0,1,1.154,2.6c-.017-.019-.034-.039-.05-.058.065.079-.012-.02-.02-.033-.036-.054-.065-.111-.1-.169-.009-.017-.03-.079,0,0C.974,2.3.961,2.262.95,2.225S.936,2.173.93,2.148.9,2,.91,2.049c.006.07,0-.065,0-.062,0-.027,0-.055,0-.082s.005-.081.007-.122c0,.085,0,.024,0,0a1.949,1.949,0,0,1,.048-.191c0-.014.053-.133.01-.037.016-.035.033-.07.051-.1a1.636,1.636,0,0,1,.1-.163c-.052.074,0,0,.013-.013s.043-.047.065-.07.047-.044.07-.066.086-.066.013-.013a1.548,1.548,0,0,1,.2-.122l.07-.034c-.1.042.025-.006.038-.011A1.469,1.469,0,0,1,1.767.917c.025,0,.112-.011.02,0,.034,0,.068-.005.1-.006s.068,0,.1,0,.122.011.04,0a1.419,1.419,0,0,1,.231.055s.119.043.055.018.073.037.086.043l.067.039c.017.01.145.105.065.04a1.523,1.523,0,0,1,.141.13c.027.028.052.057.076.086-.063-.077.013.022.02.033a1.465,1.465,0,0,1,.112.2c-.037-.084,0,0,0,.019q.022.066.038.133c.006.026.011.052.016.079q.013.08,0,0,0,.041.006.082a.454.454,0,0,0,.909,0Z" transform="translate(202.418 84.33)"/>
    <path id="Path-59" data-name="Path" d="M35.088,50.37c2.841.508,9-7.4,16.37-4.5,6.226,4.269,8.578,1.04,8.578,1.04S65.791,75.948,45.5,75.646c-20.594-.3-18.474-33.581-18.474-33.581s1.088-6.635-1.705-10.115a5.574,5.574,0,0,0-3.868-2.289c-3.6,0-6.36,1.21-6.36,6.353,0,3.4,2.856,9.338,4.846,10.891L18.85,60.821l-.007-.006A54.2,54.2,0,0,1,2.332,38.143C.762,34.02-.294,29.778.073,26.332,1.587,12.113,11.278,13.323,11.278,13.323,48.377-6.031,61.152-.723,64.58,6.97c.8,1.806.8,4.453.6,6.649-.131,1.429,1.45,2.924,2.569,3.793a3.879,3.879,0,0,1,1.517,3.672c-1.531,8.967-31.9,5.88-37.4,5.249C31.872,26.332,27.4,52.02,35.088,50.37Z" transform="translate(161.938 48.3)"/>
    <path id="Path-60" data-name="Path" d="M35.711,52.155c1.6.252,3.1-.779,4.4-1.576a28.887,28.887,0,0,1,5.516-2.92,10.23,10.23,0,0,1,3.306-.616,7.772,7.772,0,0,1,1.5.128,5.339,5.339,0,0,1,1.967.745c1.934,1.236,4.274,2.278,6.62,1.884a4.171,4.171,0,0,0,2.662-1.528l-1.661-.217c.092.468.164.94.232,1.412.016.111.031.222.047.333s-.029-.228,0,0c.01.075.02.151.029.226q.056.442.1.885.113,1.033.185,2.071a48.085,48.085,0,0,1,.092,5.179,31.657,31.657,0,0,1-.643,5.533,20.258,20.258,0,0,1-1.857,5.382c-.224.422-.467.835-.73,1.235a11.5,11.5,0,0,1-.73,1A12.154,12.154,0,0,1,54.8,73.218c-3.484,2.6-8.428,3.031-12.559,1.836a15.235,15.235,0,0,1-8.8-7.389,35.019,35.019,0,0,1-3.85-11.617c-.315-1.836-.513-3.513-.659-5.458q-.169-2.256-.188-4.521c-.007-.883,0-1.766.038-2.648,0-.074.067-.377.021-.441-.026-.036-.05.346-.025.193s.046-.323.066-.485q.072-.567.112-1.137a14.826,14.826,0,0,0-1.4-8.291,7.44,7.44,0,0,0-4.114-3.436,7.9,7.9,0,0,0-4.165.222,5.6,5.6,0,0,0-3.027,2.138,7.935,7.935,0,0,0-1.189,4.3c-.1,3.113,1.267,6.347,2.8,8.994a10.455,10.455,0,0,0,2.307,2.983l-.266-.642L18.941,60,18.8,61.731l1.551-.642A53.306,53.306,0,0,1,4.544,40.008C2.748,35.619,1.253,30.841,2,26.061c.47-3.008,1.469-6.159,3.584-8.334A8.047,8.047,0,0,1,7.938,15.99q.149-.076.3-.146c.05-.023.354-.152.146-.067q.3-.123.611-.226a9.371,9.371,0,0,1,1.1-.292c.161-.032.322-.057.483-.084s-.22.021.008,0c.079-.007.157-.017.235-.025.247-.022.494-.035.742-.035a2.087,2.087,0,0,0,1.13-.15c2.317-1.128,4.589-2.346,6.916-3.457Q22.791,9.993,26.025,8.6A114.238,114.238,0,0,1,36.974,4.52c5.156-1.606,10.433-2.859,15.816-2.69q.724.023,1.446.086.344.031.686.072c.063.008.338.044.129.015q.2.027.4.059a17.906,17.906,0,0,1,2.43.55Q58.447,2.784,59,3l.223.09c.095.038-.147-.068.083.037.167.077.335.152.5.233A11.856,11.856,0,0,1,61.536,4.4l.167.124c.148.108-.137-.109-.041-.032.033.027.068.052.1.08.118.1.236.193.35.293q.345.3.663.632c.206.214.4.438.589.668.027.033.179.229.076.094s.051.069.071.1c.082.114.164.228.242.344a10.307,10.307,0,0,1,.831,1.473,12.128,12.128,0,0,1,.6,5.827,4.1,4.1,0,0,0,.7,2.825,12.032,12.032,0,0,0,2.226,2.245,3.1,3.1,0,0,1,1.167,2.42,2.723,2.723,0,0,1-.115.695c-.023.08-.051.159-.077.239-.016.049-.037.1-.056.146-.028.072.088-.17-.009.012-.084.158-.163.315-.26.466-.058.089-.119.176-.182.262.134-.183-.053.061-.1.118a5.564,5.564,0,0,1-.422.429c-.068.062-.138.122-.208.182-.035.03-.072.059-.108.089-.16.13.114-.08-.042.031a9.7,9.7,0,0,1-1.19.733c-.217.113-.437.217-.66.317-.187.084-.306.132-.615.247a29.516,29.516,0,0,1-7.164,1.515,79.893,79.893,0,0,1-8.677.386c-4.924-.016-9.849-.323-14.747-.818q-.95-.1-1.9-.2A.9.9,0,0,0,31.86,27c-.521,3-.872,6.042-1.106,9.077a58.2,58.2,0,0,0-.17,7.306,17.485,17.485,0,0,0,1.185,6.242,3.872,3.872,0,0,0,4.425,2.528c1.145-.235.66-1.986-.483-1.75-.094.019-.283.044-.072.021-.09.01-.18.018-.27.021s-.154,0-.231,0c-.265,0,.048.024-.062,0-.15-.033-.292-.07-.438-.118.078.025.115.07-.047-.026-.068-.04-.136-.082-.2-.12-.169-.094-.055-.035-.032-.015-.063-.053-.125-.105-.185-.162s-.106-.105-.156-.16c-.031-.033-.2-.235-.114-.13s-.079-.114-.1-.151q-.069-.1-.131-.21c-.1-.169-.185-.344-.271-.519-.1-.2,0,.012-.045-.1-.035-.088-.069-.176-.1-.266-.077-.21-.145-.423-.207-.638-.128-.441-.228-.89-.311-1.342a22.524,22.524,0,0,1-.323-3.008,71.871,71.871,0,0,1,.774-13.126c.02-.148-.03.223,0-.008l.024-.173q.021-.15.042-.3.043-.307.088-.614.069-.471.142-.942c.044-.279.088-.558.136-.837l-.876.666q4,.459,8.024.712c4.086.265,8.187.395,12.281.259a44.718,44.718,0,0,0,11.684-1.581c2.545-.787,5.62-2.241,6.248-5.117a4.772,4.772,0,0,0-1.1-4.161c-.9-1.041-2.287-1.686-2.812-3.043a5.536,5.536,0,0,1-.008-2.125,18.818,18.818,0,0,0-.047-2.4,10.191,10.191,0,0,0-.927-3.6,11.494,11.494,0,0,0-3.5-4.169,14.6,14.6,0,0,0-6.011-2.5,29.481,29.481,0,0,0-9.294-.1A67.835,67.835,0,0,0,34.21,3.512a147.92,147.92,0,0,0-17.532,7.406q-2.513,1.233-4.994,2.53l.459-.124a8.6,8.6,0,0,0-3.5.435,11.077,11.077,0,0,0-6.2,5.165,20.57,20.57,0,0,0-2,14.11,48.235,48.235,0,0,0,6.624,15.8,55.357,55.357,0,0,0,12,13.541.922.922,0,0,0,1.551-.642l.947-12.1c.046-.583.14-1.185.139-1.771s-.532-.885-.889-1.282A11.182,11.182,0,0,1,19.568,44.8a21.753,21.753,0,0,1-2.206-5.024,9.627,9.627,0,0,1-.281-4.986,3.84,3.84,0,0,1,2.186-2.826,5.852,5.852,0,0,1,4.018-.281,6.3,6.3,0,0,1,3.384,4.153,15.275,15.275,0,0,1,.515,4.667q-.021.872-.111,1.741c-.017.161-.037.322-.057.484.041-.336.01-.087,0,0-.031.223-.044.44-.054.665-.044,1.06-.049,2.122-.033,3.182a61.72,61.72,0,0,0,1.357,12.266c1.024,4.657,2.75,9.351,5.893,13.014a16.4,16.4,0,0,0,13.612,5.576,14.859,14.859,0,0,0,7.363-2.253A14.019,14.019,0,0,0,59.7,70.148c2.152-3.946,2.8-8.595,2.86-13.032a49.976,49.976,0,0,0-.7-9.083c-.026-.154-.053-.308-.083-.461-.167-.846-1.242-.784-1.661-.217.249-.338.108-.126.024-.049-.037.035-.074.072-.11.108s-.058.048-.084.074c-.154.158.144-.092.013-.007-.171.11-.339.213-.517.311-.041.022-.242.1-.021.014-.065.026-.13.053-.2.073-.172.053-.343.1-.519.139a5.456,5.456,0,0,1-2.11-.14,14.084,14.084,0,0,1-3.632-1.766,7.953,7.953,0,0,0-3.741-.884,11.236,11.236,0,0,0-3.286.43,23.19,23.19,0,0,0-5.829,2.789c-.812.5-1.614,1.02-2.461,1.46a4.009,4.009,0,0,1-.885.384c-.091.028-.559.112-.313.089-.1.009-.532-.022-.255.022a.937.937,0,0,0-1.118.634A.915.915,0,0,0,35.711,52.155Z" transform="translate(161.074 47.391)"/>
    <path id="Path-61" data-name="Path" d="M.667,1.78l2.124.531.3.075a.951.951,0,0,0,.7-.091A.907.907,0,0,0,3.573.635L1.449.1,1.15.03a.951.951,0,0,0-.7.092A.907.907,0,0,0,.667,1.78Z" transform="translate(207.74 97.023)" fill="#fff"/>
    <path id="Path-62" data-name="Path" d="M1.145,1.9A2.022,2.022,0,0,1,1.5,1.811c.214-.046-.29.022-.038.005.077-.005.153-.011.229-.011s.156,0,.234.008c.042,0,.09.014.132.013-.3.008-.184-.027-.062,0q.14.027.278.067.077.023.153.049c.048.017.257.1.08.028s.009.007.052.028.11.056.163.086c.122.068.234.148.35.225.155.1-.166-.142,0,0,.057.049.115.1.171.147a4.9,4.9,0,0,1,.36.365c.053.059.1.12.154.18.037.044.17.176-.006-.01a.939.939,0,0,1,.068.091c.131.182.255.369.37.562.13.217.249.44.36.667q.091.186.175.376c.018.041.085.2.017.038q.047.114.092.228a17.173,17.173,0,0,1,.649,2.067.909.909,0,0,0,1.752-.483C6.738,4.586,5.972,2.347,4.355,1.024A4.047,4.047,0,0,0,1.38.01,2.711,2.711,0,0,0,.662.153.932.932,0,0,0,.028,1.27.918.918,0,0,0,1.145,1.9Z" transform="translate(179.581 81.47)"/>
    <rect id="Rectangle-2" data-name="Rectangle" width="51.484" height="13.917" rx="6.958" transform="translate(234.391 338.444)" fill="#ff3e6c"/>
    <path id="Path-63" data-name="Path" d="M4.311,15.752H47.54a8.172,8.172,0,0,0,3.06-.3,4.351,4.351,0,0,0,2.729-4.061c.008-1,0-2.007,0-3.01V4.733a4.569,4.569,0,0,0-1.523-3.7A5.62,5.62,0,0,0,47.871.02H12.245c-2.634,0-5.273-.046-7.907,0A4.349,4.349,0,0,0,.509,2.331,6.755,6.755,0,0,0,.027,5.57V9.547A15.274,15.274,0,0,0,.114,12.32a4.331,4.331,0,0,0,4.2,3.432.908.908,0,0,0,0-1.815,2.506,2.506,0,0,1-2.467-2.571c-.006-.994,0-1.988,0-2.982V4.821A2.736,2.736,0,0,1,3.193,2.1a5.8,5.8,0,0,1,2.58-.266H40.667c2.753,0,5.506-.015,8.259,0a2.54,2.54,0,0,1,2.173,1.1,4.537,4.537,0,0,1,.413,2.637V9.446a15.9,15.9,0,0,1-.022,2.391,2.506,2.506,0,0,1-2.482,2.1c-.248,0-.5,0-.744,0H4.311A.908.908,0,0,0,4.311,15.752Z" transform="translate(233.456 337.516)"/>
    <path id="Path-64" data-name="Path" d="M0,7.8,20.23.845A15.54,15.54,0,0,1,33.408,2.293L40.1,5.368a12.619,12.619,0,0,1,7.353,11.465V35.068l-27.559.084-9.758,3.37" transform="translate(268.405 182.059)" fill="#ffc2d6"/>
    <path id="Path-65" data-name="Path" d="M1.108,9.547l11.223-3.86,6.963-2.395a22.636,22.636,0,0,1,5.762-1.476,14.743,14.743,0,0,1,6.917,1.163C33.018,3.435,34,4.03,35.038,4.507c2.061.947,4.2,1.8,6.2,2.879a11.793,11.793,0,0,1,6.154,9.662c.077,1.494.017,3,.017,4.5v14.39l.909-.908-15.341.047-9.563.029-2.374.007a4.5,4.5,0,0,0-1.484.365l-8.8,3.038c-1.1.379-.626,2.134.483,1.75l7.884-2.723,1.557-.538c.038-.013.287-.066.3-.1-.033.083-.347.005-.156.028a16.7,16.7,0,0,0,1.929-.006l19.606-.06,5.953-.018a.922.922,0,0,0,.909-.908V23.121c0-1.777,0-3.554,0-5.331a13.672,13.672,0,0,0-4.284-9.961c-2.038-1.9-4.627-2.885-7.117-4.03-.988-.454-1.993-.883-2.968-1.364-.721-.356-1.4-.78-2.14-1.1A16.5,16.5,0,0,0,29.286.266a17.669,17.669,0,0,0-9.173.828l-6.047,2.08L.879,7.709.625,7.8c-1.1.378-.627,2.132.483,1.75Z" transform="translate(267.539 181.19)"/>
    <path id="Path-66" data-name="Path" d="M.878,1.815H13.6A.908.908,0,0,0,13.6,0H.878A.908.908,0,0,0,.878,1.815Z" transform="translate(231.394 272.139)"/>
    <path id="Path-67" data-name="Path" d="M0,0,12.726,3.707s.873.251,9.961,8.556c3.036,3.963,2.323,8.054-4.242,3.89S13,12.09,8.969,10.183L1.336,9.3" transform="translate(299.638 188.18)" fill="#ffc2d6"/>
    <path id="Path-68" data-name="Path" d="M.638,1.791,10.784,4.747l2.134.621a1.708,1.708,0,0,0,.427.124c.115,0-.181-.083-.18-.078.014.046.262.163.3.191.125.086.246.178.368.269l.105.08c.153.115-.178-.14-.016-.012l.313.247c1.714,1.369,3.356,2.833,4.992,4.293q1.037.925,2.066,1.859a11.118,11.118,0,0,1,1.969,1.976,7.819,7.819,0,0,1,.858,1.639,5.466,5.466,0,0,1,.212.746,2.125,2.125,0,0,1,.044.6.961.961,0,0,1-.057.308.486.486,0,0,1-.114.171c.124-.1-.233.121-.1.06.1-.044-.135.037-.177.048-.163.043-.044.012,0,.007a1.428,1.428,0,0,1-.177.011c-.118,0-.3,0-.373-.012-1.64-.2-3.268-1.387-4.653-2.281-1.889-1.219-3.679-2.592-5.578-3.791A23.787,23.787,0,0,0,10.8,10.549a3.484,3.484,0,0,0-1.128-.379l-.931-.108-6.063-.7-.458-.053a.913.913,0,0,0-.909.908.93.93,0,0,0,.909.908l7.633.885-.459-.124a26.34,26.34,0,0,1,3.968,2.268,72.9,72.9,0,0,0,6.49,4.29c1.605.895,4.886,2.365,6.062.04a3.742,3.742,0,0,0,.05-2.753,8.391,8.391,0,0,0-1.834-3.265c-1.2-1.229-2.568-2.335-3.851-3.478q-1.342-1.195-2.7-2.368c-.956-.821-1.917-1.642-2.93-2.392a10.848,10.848,0,0,0-3.555-1.28L1.346.106,1.122.041a.908.908,0,0,0-.483,1.75Z" transform="translate(298.758 187.264)"/>
    <path id="Path-69" data-name="Path" d="M0,0,13.038,2.167s.9.141,10.946,7.256c3.5,3.556,3.305,7.7-3.727,4.386s-5.911-3.357-10.143-4.751L.3,8.471" transform="translate(297.081 195.647)" fill="#ffc2d6"/>
    <path id="Path-70" data-name="Path" d="M.666,1.777,11.625,3.6c.636.106,1.275.2,1.909.317a2.269,2.269,0,0,0,.23.049c-.052.041-.288-.142-.021,0,.118.063.237.125.354.191.478.269.944.56,1.407.853,2.4,1.519,4.727,3.147,7.05,4.776A11.36,11.36,0,0,1,24.83,11.6a7.757,7.757,0,0,1,1.009,1.51,2.952,2.952,0,0,1,.246.6c.035.112.062.226.091.34.013.053.023.11.031.164-.02-.128,0-.049,0,.034,0,.1,0,.2,0,.3-.007.134.034-.161.006-.034-.01.044-.017.088-.03.131-.068.222.061-.125-.029.082a.522.522,0,0,1-.067.108c-.067.086.12-.13,0-.013-.173.169.048-.022-.077.06a.649.649,0,0,1-.124.066c.183-.061.047-.02.01-.009a1.365,1.365,0,0,1-.636.085,6.562,6.562,0,0,1-2.023-.43,40.351,40.351,0,0,1-5.259-2.448,48.674,48.674,0,0,0-5.1-2.5,7.794,7.794,0,0,0-2.249-.615L7.969,8.87,1.632,8.491,1.21,8.466c-1.168-.07-1.164,1.746,0,1.815l5.24.313,3.359.2.984.059a1.449,1.449,0,0,1,.2.012c.1.021-.209-.054-.037.028a4.747,4.747,0,0,0,.5.168c.5.17.99.347,1.477.543l.142.058c.225.092-.114-.05.021.009l.259.114q.278.126.552.262c.846.419,1.668.886,2.5,1.324,1.719.9,3.462,1.8,5.253,2.547a7.613,7.613,0,0,0,4.561.808,2.343,2.343,0,0,0,1.8-2.329,5.853,5.853,0,0,0-1.3-3.307,8.081,8.081,0,0,0-1.908-1.928q-1.353-.955-2.712-1.9c-1.3-.906-2.614-1.806-3.937-2.685a37.391,37.391,0,0,0-3.427-2.139,3.574,3.574,0,0,0-1.2-.351L1.483.083,1.149.027A.936.936,0,0,0,.031.661.915.915,0,0,0,.666,1.777Z" transform="translate(296.174 194.745)"/>
    <path id="Path-71" data-name="Path" d="M.3,0,12.648,1.521s.9.127,11.055,7.089c3.558,3.5,3.422,7.653-3.66,4.442s-5.961-3.267-10.214-4.6L0,9.076" transform="translate(295.567 202)" fill="#ffc2d6"/>
    <path id="Path-72" data-name="Path" d="M1.177,1.815l10.871,1.34c.483.06.971.144,1.457.18.118.009-.334-.054-.2-.024.2.045-.231-.123-.093-.041.794.474,1.618.9,2.405,1.39,2.639,1.647,5.215,3.4,7.783,5.151a6.241,6.241,0,0,1,1.556,1.506,6.947,6.947,0,0,1,.807,1.4,3.861,3.861,0,0,1,.186.669c.025.142-.012-.146,0-.007,0,.05.01.1.009.15,0,.081-.038.363.006.146a2.259,2.259,0,0,1-.067.254c.06-.185,0-.01-.05.065.117-.162,0,0-.065.054.162-.136-.054.026-.123.063-.089.048.041-.015.05-.019a1.136,1.136,0,0,1-.146.048c-.036.008-.346.07-.175.047a3.581,3.581,0,0,1-.934-.014,9.948,9.948,0,0,1-2.207-.629c-1.723-.663-3.395-1.518-5.044-2.346a40.652,40.652,0,0,0-4.9-2.265,5.324,5.324,0,0,0-2.144-.442l-2.736.173-6.157.388-.393.025c-1.161.073-1.17,1.889,0,1.815l5.081-.321,3.4-.214L10.4,10.29c.081-.005.164-.017.246-.015.017,0,.035-.005.052,0-.278-.03.107.075.173.1.527.168,1.052.343,1.57.537q.286.107.569.224c-.061-.025,0,0,.138.06l.278.126c.8.372,1.579.8,2.366,1.2,1.6.814,3.217,1.592,4.857,2.315a9.734,9.734,0,0,0,4.829,1.161,2.4,2.4,0,0,0,2.249-1.9,4.814,4.814,0,0,0-.939-3.307,11.324,11.324,0,0,0-1.333-1.667,16.452,16.452,0,0,0-2.717-1.946Q20.578,5.706,18.4,4.28c-1.281-.832-2.565-1.69-3.918-2.4a3.27,3.27,0,0,0-1.237-.389L1.534.044,1.177,0A.913.913,0,0,0,.268.908a.93.93,0,0,0,.909.908Z" transform="translate(294.692 201.092)"/>
    <path id="Path-73" data-name="Path" d="M21.963,0h10.6S33.471,0,44.5,5.47c4.015,2.969,4.462,7.1-3,4.911s-6.361-2.4-10.758-3.12L25.037,8.852a40.9,40.9,0,0,1-14.874,1.317l-2.31-.221L0,13.37" transform="translate(273.301 209.563)" fill="#ffc2d6"/>
    <path id="Path-74" data-name="Path" d="M22.869,1.827h9.865a2.5,2.5,0,0,0,.721,0c.106-.041-.277-.094-.187-.026a3.089,3.089,0,0,0,.653.215c.273.1.542.214.812.324a1.122,1.122,0,0,1,.11.046l.306.131q.354.153.707.311c1.455.648,2.9,1.328,4.332,2.017q1.623.779,3.237,1.574a12.023,12.023,0,0,1,1.629.831,7.435,7.435,0,0,1,.931.821,6.079,6.079,0,0,1,1.153,1.52,2.467,2.467,0,0,1,.194.537c.073.25.019-.07.026.176,0,.044,0,.088,0,.132.008.2,0-.2-.005.04a.6.6,0,0,1-.043.147c.106-.337.021-.039.018-.051.007.034-.172.231.006.019-.027.032-.055.063-.084.093a.743.743,0,0,1-.384.2,5.179,5.179,0,0,1-1.98.046,23.879,23.879,0,0,1-3.616-.922c-.975-.3-1.948-.6-2.914-.926-1.061-.356-2.109-.761-3.181-1.082-.472-.142-.951-.26-1.433-.362-.293-.062-.586-.118-.881-.172a4.173,4.173,0,0,0-1.45-.166c-.942.192-1.875.523-2.8.781a53.755,53.755,0,0,1-11.11,2.2,44.156,44.156,0,0,1-6.965-.158c-.573-.055-1.173-.171-1.748-.167a2.506,2.506,0,0,0-.9.3l-6.81,2.967-.63.275a.913.913,0,0,0-.326,1.242.932.932,0,0,0,1.243.326l7.854-3.422-.459.124a51.708,51.708,0,0,0,10.766.151,60.208,60.208,0,0,0,9.459-2.06l2.908-.811h-.483c3.773.621,7.282,2.138,10.951,3.176,1.776.5,4.833,1.3,6.277-.379,1.247-1.448.092-3.428-.943-4.612a8.446,8.446,0,0,0-3.169-2.3q-2.082-1.025-4.175-2.025C38.742,2.152,37.127,1.394,35.484.7A11.292,11.292,0,0,0,33.833.07,4.847,4.847,0,0,0,32.674.012h-9.8a.908.908,0,0,0,0,1.815Z" transform="translate(272.394 208.645)"/>
    <path id="Path-75" data-name="Path" d="M11.812,7.563A7.554,7.554,0,0,1,15.3,1.194a10.437,10.437,0,1,0,4.487,13.921c-.134.007-.269.011-.405.011a7.567,7.567,0,0,1-7.571-7.563Z" transform="translate(371.58 175.074)" fill="#ff3e6c"/>
    <path id="Path-76" data-name="Path" d="M13.626,8.471a6.735,6.735,0,0,1,3.04-5.585.916.916,0,0,0,0-1.567,11.343,11.343,0,1,0,4.813,15.163.917.917,0,0,0-.785-1.366,6.738,6.738,0,0,1-7.068-6.645.909.909,0,0,0-1.817,0,8.573,8.573,0,0,0,8.885,8.46l-.784-1.366a9.715,9.715,0,0,1-7.048,5.2A9.537,9.537,0,1,1,15.749,2.886V1.318a8.625,8.625,0,0,0-3.94,7.153A.909.909,0,0,0,13.626,8.471Z" transform="translate(370.675 174.167)"/>
    <path id="Path-77" data-name="Path" d="M.878,1.821H11.552c3.521,0,7.042-.014,10.562,0A16.347,16.347,0,0,1,37.686,13.537a26.55,26.55,0,0,1,.691,6.729l.253,9.551L39,43.686,39.416,59.5l.4,14.979.312,11.788.156,5.882.007.266a.909.909,0,0,0,1.817,0l-.11-4.17-.283-10.7-.387-14.622L40.9,46.936l-.387-14.6-.282-10.667c-.038-1.424-.062-2.849-.114-4.273A18.187,18.187,0,0,0,27.785.917,20.385,20.385,0,0,0,21.256.006H.878a.908.908,0,0,0,0,1.815Z" transform="translate(218.937 246.033)"/>
    <path id="Path-78" data-name="Path" d="M0,21.839S3.331-3.272,33.616.359c16.051,1.21,23.925,18.455,23.925,18.455s17.868-5.446,19.685,9.681" transform="translate(129.303 248.534)" fill="#fff"/>
    <path id="Path-79" data-name="Path" d="M1.817,22.743c-.074.552.019-.082.043-.208.075-.4.165-.8.264-1.2a28.227,28.227,0,0,1,1.333-4c.082-.2-.058.136,0,.009l.064-.15c.044-.1.088-.2.134-.3q.139-.31.285-.617.323-.677.681-1.337a27.014,27.014,0,0,1,1.658-2.671q.225-.319.46-.632c.154-.205.246-.324.48-.611q.549-.673,1.143-1.308a23.946,23.946,0,0,1,2.788-2.547C16.134,3.3,22.7,1.766,29.08,1.813A33.346,33.346,0,0,1,41.161,3.734,27.307,27.307,0,0,1,49.739,9.39a39.1,39.1,0,0,1,7.832,10.588c.034.065.064.132.095.2a.913.913,0,0,0,1.026.417c.564-.171,1.144-.3,1.721-.415q.436-.088.875-.163.228-.038.456-.073l.238-.035.139-.02c.134-.019-.228.029.006,0,.778-.1,1.559-.168,2.342-.2a17.1,17.1,0,0,1,5.1.471,10.044,10.044,0,0,1,4.658,2.509,11.308,11.308,0,0,1,3,6.73.937.937,0,0,0,.909.908.913.913,0,0,0,.909-.908,13.894,13.894,0,0,0-2.829-7.241,11.3,11.3,0,0,0-5.061-3.415,21.143,21.143,0,0,0-10.627-.429,20.35,20.35,0,0,0-2.318.529l1.026.417a37.167,37.167,0,0,0-6.7-9.636,31.6,31.6,0,0,0-8.317-6.467A25.293,25.293,0,0,0,38.7,1.029a38.138,38.138,0,0,0-6.53-.9C25.13-.4,17.736.631,11.722,4.544a26.433,26.433,0,0,0-9.355,10.81A25.924,25.924,0,0,0,.047,22.4c-.018.114-.032.227-.047.341a.913.913,0,0,0,.909.908.932.932,0,0,0,.909-.908Z" transform="translate(128.395 247.63)"/>
    <path id="Path-80" data-name="Path" d="M.647,1.781a11.467,11.467,0,0,1,1.33.442q.154.059.307.121l.15.061c.2.08-.152-.067.045.019.26.114.519.23.775.352q.935.448,1.826.98A22.021,22.021,0,0,1,13.049,12,26.256,26.256,0,0,1,15.92,20.82a.915.915,0,0,0,1.118.634.931.931,0,0,0,.635-1.116A25.964,25.964,0,0,0,11.024,6.194,23.731,23.731,0,0,0,2.867.634a12.746,12.746,0,0,0-1.737-.6.908.908,0,0,0-.483,1.75Z" transform="translate(48.909 224.986)"/>
    <path id="Path-81" data-name="Path" d="M119.13,15.167a17.447,17.447,0,0,0-9.887,3.055,26.274,26.274,0,0,0-38.815-2.783,22.781,22.781,0,0,0-43.186.168,22.757,22.757,0,1,0,7.568,41.627,22.785,22.785,0,0,0,42.546.925A26.3,26.3,0,0,0,110.966,48.15a17.505,17.505,0,1,0,8.164-32.984Z" transform="translate(281.269 0.899)" fill="#fff"/>
    <path id="Path-82" data-name="Path" d="M120.036,15.158a18.68,18.68,0,0,0-10.346,3.179l1.1.142a27.14,27.14,0,0,0-31.7-8.258,27.682,27.682,0,0,0-8.4,5.475l1.519.4a23.692,23.692,0,0,0-44.939.168l1.118-.634a23.663,23.663,0,1,0,7.785,43.286l-1.335-.542a23.693,23.693,0,0,0,44.3.925l-1.335.542a27.22,27.22,0,0,0,34.855-10.334l-1.243.326a18.413,18.413,0,1,0,8.623-34.675.908.908,0,0,0,0,1.815,16.6,16.6,0,1,1-7.706,31.292.93.93,0,0,0-1.243.326,25.63,25.63,0,0,1-23.476,12,25.29,25.29,0,0,1-8.893-2.32.93.93,0,0,0-1.335.542,21.883,21.883,0,0,1-40.794-.925.921.921,0,0,0-1.335-.542A21.853,21.853,0,1,1,27.905,17.38a.935.935,0,0,0,1.118-.634,21.874,21.874,0,0,1,41.434-.168.92.92,0,0,0,1.518.4,25.351,25.351,0,0,1,30.95-3.15,26.027,26.027,0,0,1,6.581,5.934.909.909,0,0,0,1.1.142,16.941,16.941,0,0,1,9.429-2.931A.908.908,0,0,0,120.036,15.158Z" transform="translate(280.362 0)"/>
    <path id="Path-83" data-name="Path" d="M0,0S12.89,1.136,17.439,10.6" transform="translate(304.094 16.048)" fill="#fff"/>
    <path id="Path-84" data-name="Path" d="M.908,1.815c.117.01.233.026.349.039.227.025-.138-.021-.023,0l.219.031q.266.039.531.085a29.742,29.742,0,0,1,3.272.752,22.616,22.616,0,0,1,8.441,4.3,15.26,15.26,0,0,1,3.866,4.949c.511,1.05,2.079.131,1.569-.916C16.107,4.837,9.322,1.461,2.776.27,2.159.158,1.534.056.909,0A.915.915,0,0,0,0,.908a.927.927,0,0,0,.909.908Z" transform="translate(303.185 15.14)"/>
    <path id="Path-85" data-name="Path" d="M53.556,105.282V46.59H73.5L36.748,0,0,46.59H19.94V77.449" transform="translate(337.105 35)" fill="#fff"/>
    <path id="Path-86" data-name="Path" d="M55.355,106.19V49.9c0-.754.073-1.549,0-2.3,0-.033,0-.068,0-.1l-.909.908h19.94a.92.92,0,0,0,.642-1.549l-3.659-4.639L62.583,31.078,51.992,17.649,42.8,6l-3.02-3.829c-.477-.6-.926-1.257-1.442-1.829C38.321.32,38.3.292,38.281.266A.909.909,0,0,0,37,.266L33.337,4.905,24.551,16.045,13.959,29.473,4.772,41.121.31,46.778l-.062.078a.921.921,0,0,0,.642,1.549H20.83l-.909-.908V78.357a.909.909,0,0,0,1.817,0V47.5a.921.921,0,0,0-.909-.908H.891l.642,1.549L5.192,43.5l8.786-11.139L24.57,18.933,33.757,7.285l3.02-3.829a22.706,22.706,0,0,0,1.442-1.829.971.971,0,0,1,.062-.078H37l3.659,4.639,8.786,11.139L60.033,30.757,69.22,42.4l3.02,3.829c.474.6.916,1.272,1.442,1.829.022.024.041.052.062.078l.642-1.549H54.447a.921.921,0,0,0-.909.908V98.946c0,2.376-.086,4.769,0,7.144,0,.033,0,.067,0,.1a.909.909,0,0,0,1.817,0Z" transform="translate(336.214 34.092)"/>
    <path id="Path-87" data-name="Path" d="M0,.877V8.821a.909.909,0,0,0,1.817,0V.877A.909.909,0,0,0,0,.877Z" transform="translate(356.136 118.687)"/>
    <path id="Path-88" data-name="Path" d="M43.913,7.866c-.606,1.815-4.543,5.748-10.3,3.328C17.262,22.69,6.966,13.009,6.966,13.009L0,.908,46.033,0Z" transform="translate(354.925 25.924)" fill="#fff"/>
    <path id="Path-89" data-name="Path" d="M0,5.143s10.3,9.681,26.651-1.815C32.4,5.748,36.342,1.815,36.947,0" transform="translate(361.89 33.79)" fill="#fff"/>
    <path id="Path-90" data-name="Path" d="M.281,6.649A15.023,15.023,0,0,0,5.137,9.472,20.636,20.636,0,0,0,17.9,9.921,32.818,32.818,0,0,0,28.033,4.976l-.7.092A9.251,9.251,0,0,0,35.112,4.9a7.329,7.329,0,0,0,3.635-3.795C39.133,0,37.378-.475,37,.623c-.08.229.039-.053-.033.089-.051.1-.1.2-.16.3a4.288,4.288,0,0,1-.367.537,6.632,6.632,0,0,1-1.29,1.211,6.961,6.961,0,0,1-4.238,1.285A10.362,10.362,0,0,1,28,3.392c-.686-.221-1.059.146-1.609.515q-.789.53-1.6,1.023A30.1,30.1,0,0,1,19.1,7.65,20.922,20.922,0,0,1,9.794,8.78,16.97,16.97,0,0,1,3.939,6.947,16.287,16.287,0,0,1,2.051,5.764C2,5.73,1.958,5.693,1.911,5.658c.055.041.158.129.022.016-.065-.054-.132-.106-.2-.161s-.114-.1-.169-.148c-.852-.8-2.14.482-1.285,1.284Z" transform="translate(360.966 32.926)"/>
  </g>
</svg>
