<svg xmlns="http://www.w3.org/2000/svg" xmlns:xlink="http://www.w3.org/1999/xlink" width="208.571" height="39.539" viewBox="0 0 208.571 39.539">
  <defs>
    <clipPath id="clip-path">
      <rect id="Rectángulo_94" data-name="Rectángulo 94" width="24.504" height="16.953" fill="none"/>
    </clipPath>
  </defs>
  <g id="Grupo_284" data-name="Grupo 284" transform="translate(-13084.328 1093.072)">
    <path id="Trazado_1243" data-name="Trazado 1243" d="M820.12,399.993V390.34h1.35l.139,1.39h.06a7.907,7.907,0,0,1,1.46-1.162,3.345,3.345,0,0,1,1.777-.467,2.6,2.6,0,0,1,2.235.953,4.713,4.713,0,0,1,.705,2.82v6.117h-1.629v-5.9a3.448,3.448,0,0,0-.437-1.976,1.6,1.6,0,0,0-1.39-.606,2.373,2.373,0,0,0-1.331.377A8.636,8.636,0,0,0,821.748,393v6.991Z" transform="translate(12376.079 -1457.974)" fill="#003278"/>
    <path id="Trazado_1244" data-name="Trazado 1244" d="M880.736,387.517a3.149,3.149,0,0,1-1.3-.238,2.238,2.238,0,0,1-.854-.655,2.553,2.553,0,0,1-.467-1.013,5.767,5.767,0,0,1-.139-1.311v-5.343h-1.43v-1.231l1.509-.1.2-2.7h1.37v2.7h2.6v1.331h-2.6v5.362a2.459,2.459,0,0,0,.328,1.38,1.3,1.3,0,0,0,1.162.487,2.154,2.154,0,0,0,.556-.08,4.114,4.114,0,0,0,.536-.178l.318,1.231a8.493,8.493,0,0,1-.864.248,4.047,4.047,0,0,1-.923.109" transform="translate(12328.811 -1445.26)" fill="#003278"/>
    <path id="Trazado_1245" data-name="Trazado 1245" d="M920.879,368.462a1.153,1.153,0,0,1-.8-.3,1.044,1.044,0,0,1,0-1.519,1.268,1.268,0,0,1,1.609,0,1.045,1.045,0,0,1,0,1.519,1.153,1.153,0,0,1-.8.3m-.834,1.986h1.628V380.1h-1.628Z" transform="translate(12292.618 -1438.082)" fill="#003278"/>
    <path id="Trazado_1246" data-name="Trazado 1246" d="M948.264,399.993V390.34h1.35l.139,1.39h.06a7.91,7.91,0,0,1,1.46-1.162,3.346,3.346,0,0,1,1.778-.467,2.6,2.6,0,0,1,2.235.953,4.715,4.715,0,0,1,.705,2.82v6.117h-1.629v-5.9a3.448,3.448,0,0,0-.437-1.976,1.6,1.6,0,0,0-1.39-.606,2.373,2.373,0,0,0-1.331.377A8.641,8.641,0,0,0,949.892,393v6.991Z" transform="translate(12268.729 -1457.974)" fill="#003278"/>
    <path id="Trazado_1247" data-name="Trazado 1247" d="M1010.936,400.231a2.922,2.922,0,0,1-2.016-.715,2.569,2.569,0,0,1-.8-2.026,2.68,2.68,0,0,1,1.41-2.433,11.653,11.653,0,0,1,4.508-1.182,4.45,4.45,0,0,0-.09-.894,2.238,2.238,0,0,0-.307-.774,1.622,1.622,0,0,0-.606-.546,2.06,2.06,0,0,0-.983-.208,3.911,3.911,0,0,0-1.569.318,7.643,7.643,0,0,0-1.311.715l-.636-1.132a10.579,10.579,0,0,1,1.648-.844,5.507,5.507,0,0,1,2.145-.407,2.965,2.965,0,0,1,2.562,1.082,4.776,4.776,0,0,1,.795,2.889v5.919h-1.35l-.139-1.152h-.06a8.153,8.153,0,0,1-1.489.983,3.7,3.7,0,0,1-1.708.407m.476-1.311a2.753,2.753,0,0,0,1.311-.328,6.593,6.593,0,0,0,1.311-.963v-2.682a16.507,16.507,0,0,0-2.036.377,5.384,5.384,0,0,0-1.331.516,2,2,0,0,0-.735.685,1.632,1.632,0,0,0-.229.844,1.367,1.367,0,0,0,.5,1.191,2.018,2.018,0,0,0,1.212.358" transform="translate(12218.59 -1457.974)" fill="#003278"/>
    <path id="Trazado_1248" data-name="Trazado 1248" d="M592.721,383.792l4.409-13.029H599l4.409,13.029h-1.768l-1.231-3.972H595.66l-1.251,3.972Zm3.972-7.289-.616,1.986h3.913l-.616-1.986q-.357-1.092-.675-2.175t-.636-2.214h-.079q-.3,1.132-.616,2.214t-.675,2.175" transform="translate(12566.577 -1441.773)" fill="#003278"/>
    <path id="Trazado_1249" data-name="Trazado 1249" d="M665.542,399.993V390.34h1.35l.139,1.748h.06a4.465,4.465,0,0,1,1.2-1.45,2.488,2.488,0,0,1,1.539-.536,2.569,2.569,0,0,1,1.033.2l-.318,1.43a3.75,3.75,0,0,0-.437-.119,2.592,2.592,0,0,0-.5-.04,2.164,2.164,0,0,0-1.281.5,3.954,3.954,0,0,0-1.162,1.728v6.2Z" transform="translate(12505.573 -1457.974)" fill="#003278"/>
    <path id="Trazado_1250" data-name="Trazado 1250" d="M704.045,404.44a7.317,7.317,0,0,1-1.629-.168,3.967,3.967,0,0,1-1.261-.506,2.513,2.513,0,0,1-.814-.814,2.107,2.107,0,0,1-.288-1.112,2.052,2.052,0,0,1,.378-1.172,3.968,3.968,0,0,1,1.032-1.013v-.08a1.887,1.887,0,0,1-.605-.606,1.927,1.927,0,0,1,.089-2.036,3.037,3.037,0,0,1,.715-.715v-.079a3.949,3.949,0,0,1-.864-1.063,3,3,0,0,1-.387-1.539,3.432,3.432,0,0,1,.288-1.43,3.227,3.227,0,0,1,.785-1.082,3.465,3.465,0,0,1,1.162-.685,4.126,4.126,0,0,1,1.4-.238,3.8,3.8,0,0,1,.745.07,4.552,4.552,0,0,1,.626.168h3.356v1.251h-1.986a2.839,2.839,0,0,1,.794,1.986,3.416,3.416,0,0,1-.278,1.4,3.066,3.066,0,0,1-.755,1.052,3.456,3.456,0,0,1-1.122.665,3.958,3.958,0,0,1-1.38.239,3.171,3.171,0,0,1-.735-.09,3.621,3.621,0,0,1-.715-.248,2.351,2.351,0,0,0-.437.487,1.177,1.177,0,0,0-.178.665.939.939,0,0,0,.357.754,2.2,2.2,0,0,0,1.351.3h1.867a4.719,4.719,0,0,1,2.532.546,1.938,1.938,0,0,1,.844,1.758,2.593,2.593,0,0,1-.338,1.281,3.286,3.286,0,0,1-.973,1.063,5.12,5.12,0,0,1-1.54.725,7.15,7.15,0,0,1-2.036.268m.238-1.132a4.421,4.421,0,0,0,1.261-.169,3.51,3.51,0,0,0,.963-.437,2.054,2.054,0,0,0,.616-.626,1.4,1.4,0,0,0,.218-.735.956.956,0,0,0-.5-.933,3.216,3.216,0,0,0-1.449-.258h-1.669c-.186,0-.387-.01-.606-.03a3.117,3.117,0,0,1-.646-.129,2.636,2.636,0,0,0-.755.795,1.67,1.67,0,0,0-.238.834,1.39,1.39,0,0,0,.745,1.231,3.924,3.924,0,0,0,2.055.457m-.238-7.468a1.951,1.951,0,0,0,.785-.159,2.026,2.026,0,0,0,.655-.457,2.068,2.068,0,0,0,.447-.725,2.747,2.747,0,0,0,.159-.963,2.221,2.221,0,0,0-.6-1.658,2.086,2.086,0,0,0-2.9,0,2.221,2.221,0,0,0-.6,1.658,2.747,2.747,0,0,0,.159.963,2.066,2.066,0,0,0,.447.725,2.015,2.015,0,0,0,.656.457,1.947,1.947,0,0,0,.784.159" transform="translate(12476.663 -1457.973)" fill="#003278"/>
    <path id="Trazado_1251" data-name="Trazado 1251" d="M763.063,400.231a4.725,4.725,0,0,1-1.817-.348,4.293,4.293,0,0,1-1.469-.993,4.6,4.6,0,0,1-.983-1.579,5.912,5.912,0,0,1-.358-2.125,5.842,5.842,0,0,1,.368-2.135,4.994,4.994,0,0,1,.974-1.6,4.213,4.213,0,0,1,1.38-1,3.9,3.9,0,0,1,1.609-.347,4.04,4.04,0,0,1,1.639.318,3.2,3.2,0,0,1,1.212.913,4.205,4.205,0,0,1,.745,1.43,6.312,6.312,0,0,1,.258,1.867c0,.173,0,.341-.01.506a2.485,2.485,0,0,1-.05.427h-6.514a3.769,3.769,0,0,0,.963,2.453,2.978,2.978,0,0,0,2.254.9,3.8,3.8,0,0,0,1.281-.209,5.655,5.655,0,0,0,1.122-.546l.576,1.072a8.232,8.232,0,0,1-1.41.7,4.9,4.9,0,0,1-1.768.3m-3.039-5.839h5.164a3.456,3.456,0,0,0-.626-2.234,2.143,2.143,0,0,0-1.757-.765,2.489,2.489,0,0,0-.983.2,2.583,2.583,0,0,0-.844.586,3.213,3.213,0,0,0-.626.943,4.242,4.242,0,0,0-.328,1.271" transform="translate(12427.755 -1457.974)" fill="#003278"/>
    <path id="Trazado_1252" data-name="Trazado 1252" d="M603.465,256.417V242.094H607.3a6.322,6.322,0,0,1,6.964,7.1,9.548,9.548,0,0,1-.471,3.132,6.006,6.006,0,0,1-1.358,2.267,5.671,5.671,0,0,1-2.146,1.369,8.3,8.3,0,0,1-2.858.46Zm2.54-2.059h1.117a4.366,4.366,0,0,0,3.362-1.259,5.588,5.588,0,0,0,1.172-3.909,5.308,5.308,0,0,0-1.182-3.833,4.485,4.485,0,0,0-3.351-1.2h-1.117Z" transform="translate(12557.577 -1333.983)" fill="#00bac1"/>
    <path id="Trazado_1253" data-name="Trazado 1253" d="M682.891,237.675a1.605,1.605,0,0,1-1.117-.394,1.318,1.318,0,0,1-.438-1.029,1.353,1.353,0,0,1,.438-1.04,1.742,1.742,0,0,1,2.234,0,1.354,1.354,0,0,1,.438,1.04,1.32,1.32,0,0,1-.438,1.029,1.606,1.606,0,0,1-1.117.394m-1.27,1.883h2.519v10.753h-2.519Z" transform="translate(12492.343 -1327.878)" fill="#00bac1"/>
    <path id="Trazado_1254" data-name="Trazado 1254" d="M715.089,278.241a8.549,8.549,0,0,1-1.785-.175,4.675,4.675,0,0,1-1.413-.525,2.758,2.758,0,0,1-.93-.876,2.292,2.292,0,0,1,.055-2.486,3.68,3.68,0,0,1,1.139-1.04v-.088a2.174,2.174,0,0,1-.69-.7,2.027,2.027,0,0,1-.274-1.095,1.954,1.954,0,0,1,.361-1.15,3.481,3.481,0,0,1,.821-.843v-.087a3.84,3.84,0,0,1-.975-1.15,3.309,3.309,0,0,1-.427-1.7,3.715,3.715,0,0,1,.35-1.642,3.668,3.668,0,0,1,.931-1.215,3.969,3.969,0,0,1,1.347-.745,5.165,5.165,0,0,1,1.621-.252,4.547,4.547,0,0,1,.843.076,5.681,5.681,0,0,1,.734.186h3.854V264.6h-1.971a2.555,2.555,0,0,1,.438.777,2.967,2.967,0,0,1,.175,1.04,3.684,3.684,0,0,1-.318,1.577,3.282,3.282,0,0,1-.865,1.139,3.807,3.807,0,0,1-1.292.7,5.158,5.158,0,0,1-1.6.241,4.172,4.172,0,0,1-.723-.066,3.574,3.574,0,0,1-.744-.219,2.3,2.3,0,0,0-.383.438,1.073,1.073,0,0,0-.142.591.83.83,0,0,0,.383.723,2.564,2.564,0,0,0,1.369.263h1.905a5.615,5.615,0,0,1,2.946.624,2.209,2.209,0,0,1,1,2.026,2.932,2.932,0,0,1-.405,1.489,3.689,3.689,0,0,1-1.15,1.2,6.154,6.154,0,0,1-1.807.8,8.864,8.864,0,0,1-2.376.3m.394-1.643a3.855,3.855,0,0,0,2.113-.515,1.459,1.459,0,0,0,.8-1.215.842.842,0,0,0-.493-.854,3.587,3.587,0,0,0-1.413-.219h-1.468a5.964,5.964,0,0,1-1.467-.153,1.8,1.8,0,0,0-.832,1.423,1.244,1.244,0,0,0,.734,1.128,4.221,4.221,0,0,0,2.025.405m-.263-8.1a1.775,1.775,0,0,0,1.314-.558,2.206,2.206,0,0,0,.547-1.61,2.169,2.169,0,0,0-.536-1.566,1.764,1.764,0,0,0-1.325-.558,1.818,1.818,0,0,0-1.336.547,2.134,2.134,0,0,0-.548,1.577,2.2,2.2,0,0,0,.548,1.61,1.8,1.8,0,0,0,1.336.558" transform="translate(12467.809 -1351.055)" fill="#00bac1"/>
    <path id="Trazado_1255" data-name="Trazado 1255" d="M781.678,237.675a1.605,1.605,0,0,1-1.117-.394,1.318,1.318,0,0,1-.438-1.029,1.353,1.353,0,0,1,.438-1.04,1.742,1.742,0,0,1,2.234,0,1.354,1.354,0,0,1,.438,1.04,1.319,1.319,0,0,1-.438,1.029,1.606,1.606,0,0,1-1.117.394m-1.27,1.883h2.518v10.753h-2.518Z" transform="translate(12409.586 -1327.878)" fill="#00bac1"/>
    <path id="Trazado_1256" data-name="Trazado 1256" d="M811.659,259.957a3.937,3.937,0,0,1-1.588-.285,2.684,2.684,0,0,1-1.051-.8,3.3,3.3,0,0,1-.591-1.226,6.265,6.265,0,0,1-.186-1.588v-5.125H806.71v-1.883l1.664-.11.307-2.935h2.1v2.935h2.737v1.993h-2.737v5.125q0,1.884,1.511,1.884a2.678,2.678,0,0,0,.58-.066,2.727,2.727,0,0,0,.537-.175l.438,1.861a8.409,8.409,0,0,1-1,.274,5.681,5.681,0,0,1-1.194.12" transform="translate(12387.313 -1337.261)" fill="#00bac1"/>
    <path id="Trazado_1257" data-name="Trazado 1257" d="M856.039,273.751a3.129,3.129,0,0,1-2.3-.865,3.071,3.071,0,0,1-.876-2.289,3.15,3.15,0,0,1,.361-1.522,3.117,3.117,0,0,1,1.139-1.15,7.568,7.568,0,0,1,1.971-.81,18.025,18.025,0,0,1,2.858-.5,4.066,4.066,0,0,0-.121-.8,1.838,1.838,0,0,0-.328-.679,1.526,1.526,0,0,0-.6-.46,2.279,2.279,0,0,0-.92-.164,4.074,4.074,0,0,0-1.544.307,10.409,10.409,0,0,0-1.478.744l-.92-1.686a10.762,10.762,0,0,1,2.015-.985,6.845,6.845,0,0,1,2.409-.416,3.7,3.7,0,0,1,3.011,1.194,5.254,5.254,0,0,1,1,3.449v6.373h-2.081l-.175-1.183h-.088a7.863,7.863,0,0,1-1.544,1.029,3.894,3.894,0,0,1-1.785.416m.81-1.971a2.361,2.361,0,0,0,1.194-.307,6.4,6.4,0,0,0,1.15-.876v-2.409a11.5,11.5,0,0,0-1.84.35,5.329,5.329,0,0,0-1.2.493,1.758,1.758,0,0,0-.657.624,1.5,1.5,0,0,0-.2.745,1.228,1.228,0,0,0,.438,1.051,1.811,1.811,0,0,0,1.117.328" transform="translate(12348.648 -1351.055)" fill="#00bac1"/>
    <path id="Trazado_1258" data-name="Trazado 1258" d="M925.09,250.8a2.13,2.13,0,0,1-1.905-.81,3.9,3.9,0,0,1-.548-2.212v-12.7h2.519v12.834a.935.935,0,0,0,.175.646.509.509,0,0,0,.372.186h.164a.924.924,0,0,0,.23-.044l.328,1.883a3.405,3.405,0,0,1-1.336.219" transform="translate(12290.198 -1328.103)" fill="#00bac1"/>
    <path id="Trazado_1259" data-name="Trazado 1259" d="M979.452,273.488V262.735h2.081l.175,1.445h.088a8.536,8.536,0,0,1,1.566-1.2,3.749,3.749,0,0,1,1.96-.5,2.88,2.88,0,0,1,2.519,1.106,5.4,5.4,0,0,1,.788,3.165v6.745H986.11v-6.417a3.347,3.347,0,0,0-.394-1.883,1.483,1.483,0,0,0-1.292-.548,2.266,2.266,0,0,0-1.237.339,7.894,7.894,0,0,0-1.216,1v7.512Z" transform="translate(12242.602 -1351.054)" fill="#00bac1"/>
    <path id="Trazado_1260" data-name="Trazado 1260" d="M1052.44,273.751a5.09,5.09,0,0,1-1.927-.372,4.791,4.791,0,0,1-1.632-1.095,5.236,5.236,0,0,1-1.128-1.774,7.055,7.055,0,0,1,0-4.774,5.236,5.236,0,0,1,1.128-1.774,4.962,4.962,0,0,1,3.559-1.489,5.045,5.045,0,0,1,1.938.383,4.792,4.792,0,0,1,1.632,1.106,5.475,5.475,0,0,1,1.128,1.774,6.886,6.886,0,0,1,0,4.774,5.474,5.474,0,0,1-1.128,1.774,4.659,4.659,0,0,1-1.632,1.095,5.175,5.175,0,0,1-1.938.372m0-2.058a2.148,2.148,0,0,0,1.861-.975,5.34,5.34,0,0,0,0-5.212,2.15,2.15,0,0,0-1.861-.975,2.123,2.123,0,0,0-1.85.975,5.419,5.419,0,0,0,0,5.212,2.122,2.122,0,0,0,1.85.975" transform="translate(12185.732 -1351.055)" fill="#00bac1"/>
    <path id="Trazado_1261" data-name="Trazado 1261" d="M1122.372,273.488V262.735h2.081l.175,1.467h.088a7.537,7.537,0,0,1,1.478-1.226,3.318,3.318,0,0,1,1.807-.5,3.216,3.216,0,0,1,1.894.5,3.13,3.13,0,0,1,1.084,1.424,8.658,8.658,0,0,1,1.6-1.38,3.316,3.316,0,0,1,1.861-.547,2.915,2.915,0,0,1,2.519,1.106,5.294,5.294,0,0,1,.81,3.165v6.745h-2.54v-6.417a3.276,3.276,0,0,0-.405-1.883,1.44,1.44,0,0,0-1.238-.548,3.386,3.386,0,0,0-2.256,1.336v7.512h-2.519v-6.417a3.272,3.272,0,0,0-.405-1.883,1.464,1.464,0,0,0-1.259-.548,3.386,3.386,0,0,0-2.256,1.336v7.512Z" transform="translate(12122.874 -1351.054)" fill="#00bac1"/>
    <path id="Trazado_1262" data-name="Trazado 1262" d="M1232.434,273.751a3.13,3.13,0,0,1-2.3-.865,3.072,3.072,0,0,1-.876-2.289,3.151,3.151,0,0,1,.361-1.522,3.117,3.117,0,0,1,1.139-1.15,7.57,7.57,0,0,1,1.971-.81,18.022,18.022,0,0,1,2.858-.5,4.066,4.066,0,0,0-.12-.8,1.842,1.842,0,0,0-.329-.679,1.526,1.526,0,0,0-.6-.46,2.282,2.282,0,0,0-.92-.164,4.073,4.073,0,0,0-1.544.307,10.409,10.409,0,0,0-1.478.744l-.92-1.686a10.76,10.76,0,0,1,2.015-.985,6.847,6.847,0,0,1,2.409-.416,3.7,3.7,0,0,1,3.011,1.194,5.253,5.253,0,0,1,1,3.449v6.373h-2.081l-.175-1.183h-.088a7.868,7.868,0,0,1-1.544,1.029,3.9,3.9,0,0,1-1.785.416m.81-1.971a2.361,2.361,0,0,0,1.194-.307,6.394,6.394,0,0,0,1.15-.876v-2.409a11.506,11.506,0,0,0-1.84.35,5.33,5.33,0,0,0-1.2.493,1.762,1.762,0,0,0-.657.624,1.5,1.5,0,0,0-.2.745,1.228,1.228,0,0,0,.438,1.051,1.812,1.812,0,0,0,1.117.328" transform="translate(12033.332 -1351.055)" fill="#00bac1"/>
    <path id="Trazado_1263" data-name="Trazado 1263" d="M1299.406,250.8a3.933,3.933,0,0,1-3.23-1.478,6.443,6.443,0,0,1-1.193-4.15,6.865,6.865,0,0,1,.383-2.365,5.508,5.508,0,0,1,1.018-1.774,4.545,4.545,0,0,1,1.456-1.117,3.875,3.875,0,0,1,1.7-.394,3.457,3.457,0,0,1,1.555.317,6.256,6.256,0,0,1,1.27.865l-.088-1.73v-3.9h2.518v15.461h-2.08l-.175-1.161h-.088a5.688,5.688,0,0,1-1.38,1.007,3.517,3.517,0,0,1-1.664.416m.613-2.08a3,3,0,0,0,2.256-1.2V242.5a3.572,3.572,0,0,0-1.106-.7,3.128,3.128,0,0,0-1.084-.2,2.183,2.183,0,0,0-1.774.92,4.173,4.173,0,0,0-.723,2.628,4.7,4.7,0,0,0,.624,2.661,2.056,2.056,0,0,0,1.807.909" transform="translate(11978.273 -1328.104)" fill="#00bac1"/>
    <path id="Trazado_1264" data-name="Trazado 1264" d="M1369.233,273.75a5.957,5.957,0,0,1-2.2-.427,7.115,7.115,0,0,1-1.872-1.062l1.183-1.621a6.81,6.81,0,0,0,1.434.887,3.741,3.741,0,0,0,1.544.318,1.937,1.937,0,0,0,1.292-.361,1.177,1.177,0,0,0,.416-.931.914.914,0,0,0-.2-.58,1.9,1.9,0,0,0-.526-.449,5.045,5.045,0,0,0-.745-.361q-.416-.165-.832-.339-.526-.2-1.073-.46a4.314,4.314,0,0,1-.975-.635,3.2,3.2,0,0,1-.7-.865,2.372,2.372,0,0,1-.274-1.172,2.912,2.912,0,0,1,1.051-2.321,4.275,4.275,0,0,1,2.869-.9,4.96,4.96,0,0,1,2.015.394,7.517,7.517,0,0,1,1.555.9l-1.161,1.533a6.044,6.044,0,0,0-1.15-.668,3.023,3.023,0,0,0-1.215-.252,1.765,1.765,0,0,0-1.194.34,1.081,1.081,0,0,0-.383.843.857.857,0,0,0,.186.559,1.717,1.717,0,0,0,.493.405,4.965,4.965,0,0,0,.712.329q.405.153.843.307.547.2,1.095.449a4.506,4.506,0,0,1,1,.624,2.852,2.852,0,0,1,.723.909,2.788,2.788,0,0,1,.274,1.281,3.109,3.109,0,0,1-.274,1.3,3.006,3.006,0,0,1-.8,1.051,3.89,3.89,0,0,1-1.314.712,5.666,5.666,0,0,1-1.8.263" transform="translate(11919.483 -1351.054)" fill="#00bac1"/>
    <path id="Trazado_1265" data-name="Trazado 1265" d="M411.56,242.509c-.479,5.494,8.273,11.481,8.263,16.953H403.6c.015-5.46-8.748-11.471-8.263-16.953Z" transform="translate(12731.948 -1334.331)" fill="#00bac1"/>
    <g id="Grupo_280" data-name="Grupo 280" transform="translate(13127.267 -1074.868)" opacity="0.7">
      <g id="Grupo_279" data-name="Grupo 279">
        <g id="Grupo_278" data-name="Grupo 278" clip-path="url(#clip-path)">
          <path id="Trazado_1266" data-name="Trazado 1266" d="M411.56,363.94c-.479-5.494,8.273-11.481,8.263-16.953H403.6c.015,5.46-8.748,11.471-8.263,16.953Z" transform="translate(-395.319 -346.987)" fill="#00bac1"/>
        </g>
      </g>
    </g>
    <path id="Trazado_1267" data-name="Trazado 1267" d="M138.974,363.94c.478-5.494-8.273-11.481-8.264-16.953h16.222c-.015,5.46,8.747,11.471,8.263,16.953Z" transform="translate(12953.618 -1421.855)" fill="#00bac1"/>
    <g id="Grupo_283" data-name="Grupo 283" transform="translate(13084.328 -1091.822)" opacity="0.7">
      <g id="Grupo_282" data-name="Grupo 282">
        <g id="Grupo_281" data-name="Grupo 281" clip-path="url(#clip-path)">
          <path id="Trazado_1268" data-name="Trazado 1268" d="M138.974,242.509c.478,5.494-8.273,11.481-8.264,16.953h16.222c-.015-5.46,8.747-11.471,8.263-16.953Z" transform="translate(-130.71 -242.509)" fill="#00bac1"/>
        </g>
      </g>
    </g>
    <path id="Trazado_1269" data-name="Trazado 1269" d="M320.1,324.141a4.425,4.425,0,1,1-4.425-4.425,4.425,4.425,0,0,1,4.425,4.425" transform="translate(12802.372 -1399.009)" fill="#003278"/>
  </g>
</svg>
