<svg xmlns="http://www.w3.org/2000/svg" width="22" height="22" viewBox="0 0 22 22">
  <g id="Grupo_315" data-name="Grupo 315" transform="translate(-1164 -5143)">
    <g id="Grupo_314" data-name="Grupo 314">
      <g id="Grupo_313" data-name="Grupo 313" transform="translate(1165 5149)">
        <path id="Trazado_326" data-name="Trazado 326" d="M2913.069-132.378a1,1,0,0,1-.7-.285l-10-9.787a1,1,0,0,1-.015-1.414,1,1,0,0,1,1.414-.015l10,9.787a1,1,0,0,1,.015,1.414A1,1,0,0,1,2913.069-132.378Z" transform="translate(-2903.069 143.165)" fill="#272727"/>
        <path id="Trazado_327" data-name="Trazado 327" d="M2903.069-132.378a1,1,0,0,1-.715-.3,1,1,0,0,1,.015-1.414l10-9.787a1,1,0,0,1,1.414.015,1,1,0,0,1-.015,1.414l-10,9.787A1,1,0,0,1,2903.069-132.378Z" transform="translate(-2893.069 143.165)" fill="#272727"/>
      </g>
      <rect id="Rectángulo_102" data-name="Rectángulo 102" width="22" height="22" transform="translate(1164 5143)" fill="none"/>
    </g>
  </g>
</svg>
