<svg xmlns="http://www.w3.org/2000/svg" width="26.543" height="26.541" viewBox="0 0 26.543 26.541"><path d="M44.488,0A13.271,13.271,0,1,0,57.758,13.272,13.272,13.272,0,0,0,44.488,0Zm6.259,11.276a8.671,8.671,0,0,1-.219,1.917,8.98,8.98,0,0,1-8.958,7.117,9.233,9.233,0,0,1-4.943-1.428A6.563,6.563,0,0,0,41.4,17.568a3.224,3.224,0,0,1-3.012-2.2,3.205,3.205,0,0,0,.606.058,3.308,3.308,0,0,0,.85-.112,3.217,3.217,0,0,1-2.366-1.963,3.119,3.119,0,0,1-.221-1.151v-.04a3.254,3.254,0,0,0,1.46.4,3.167,3.167,0,0,1-1.434-2.643,3.122,3.122,0,0,1,.437-1.6,9.2,9.2,0,0,0,6.646,3.317,3.181,3.181,0,0,1,3.144-3.9,3.246,3.246,0,0,1,2.354,1,6.521,6.521,0,0,0,2.049-.77A3.2,3.2,0,0,1,50.5,9.723a6.53,6.53,0,0,0,1.851-.5,6.457,6.457,0,0,1-1.608,1.644C50.745,11,50.747,11.139,50.747,11.277Z" transform="translate(-31.215 -0.001)" fill="#fff"/></svg>