<svg xmlns="http://www.w3.org/2000/svg" width="26.545" height="26.545" viewBox="0 0 26.545 26.545"><path d="M75.77,0A13.273,13.273,0,1,0,89.042,13.273,13.272,13.272,0,0,0,75.77,0Zm7.861,12.916v1.013a25.722,25.722,0,0,1-.158,2.653,3.642,3.642,0,0,1-.624,1.628,2.193,2.193,0,0,1-1.574.694c-2.2.166-5.505.172-5.505.172s-4.087-.04-5.344-.166a2.593,2.593,0,0,1-1.735-.7,3.642,3.642,0,0,1-.624-1.628,25.721,25.721,0,0,1-.158-2.653V12.686a25.772,25.772,0,0,1,.158-2.653,3.642,3.642,0,0,1,.624-1.628,2.2,2.2,0,0,1,1.576-.694c2.2-.166,5.5-.166,5.5-.166h.006s3.3,0,5.5.166a2.206,2.206,0,0,1,1.574.692,3.65,3.65,0,0,1,.624,1.628,25.837,25.837,0,0,1,.158,2.655Z" transform="translate(-62.497)" fill="#fff"/><path d="M68.337,5.43v4.606l4.246-2.294L70.252,6.472Z" transform="translate(-56.688 5.401)" fill="#fff"/></svg>