<svg xmlns="http://www.w3.org/2000/svg" width="26.541" height="26.541" viewBox="0 0 26.541 26.541"><path d="M8.141,5.158a2.984,2.984,0,1,0,2.986,2.984A2.988,2.988,0,0,0,8.141,5.158Z" transform="translate(5.13 5.129)" fill="#fff"/><path d="M14.038,3.322H5.4A1.912,1.912,0,0,0,3.49,5.233v9.333A1.91,1.91,0,0,0,5.4,16.477h8.641a1.914,1.914,0,0,0,1.913-1.911V5.233A1.915,1.915,0,0,0,14.038,3.322ZM9.8,14.329a4.36,4.36,0,1,1,4.36-4.36A4.365,4.365,0,0,1,9.8,14.329Zm4.684-8.264a.92.92,0,0,1-1.273-.253.936.936,0,0,1-.154-.517.914.914,0,0,1,1.674-.511l.006.01a.918.918,0,0,1-.253,1.271Z" transform="translate(3.471 3.302)" fill="#fff"/><path d="M13.271,0A13.271,13.271,0,1,0,26.541,13.272,13.27,13.27,0,0,0,13.271,0ZM20.8,17.869a3.293,3.293,0,0,1-3.287,3.287H8.868a3.289,3.289,0,0,1-3.283-3.287V8.536A3.288,3.288,0,0,1,8.868,5.251h8.641A3.291,3.291,0,0,1,20.8,8.536Z" transform="translate(0 -0.001)" fill="#fff"/></svg>