<svg xmlns="http://www.w3.org/2000/svg" width="182.803" height="61.965" viewBox="0 0 182.803 61.965"><g transform="translate(0)"><path d="M165.588,215.007l3.59-1.648a3.187,3.187,0,0,0,.924-.643l-3.138-3.137a3.8,3.8,0,0,1-1.1.765L161.6,212.3a3.783,3.783,0,0,0-1.7,1.55l4.26,2.459A3.183,3.183,0,0,1,165.588,215.007Z" transform="translate(-155.746 -198.359)" fill="#4e4e4e" opacity="0.7"/><path d="M243.983,160.666l3.933.368a3.19,3.19,0,0,0,1.122-.095l-1.149-4.286a3.79,3.79,0,0,1-1.333.112l-4.675-.437a3.788,3.788,0,0,0-2.248.491l2.459,4.26A3.183,3.183,0,0,1,243.983,160.666Z" transform="translate(-224.142 -152.668)" fill="#4e4e4e" opacity="0.7"/><path d="M441.487,165.573l1.647,3.59a3.193,3.193,0,0,0,.643.925l3.138-3.137a3.8,3.8,0,0,1-.765-1.1l-1.958-4.268a3.787,3.787,0,0,0-1.55-1.7l-2.459,4.26A3.184,3.184,0,0,1,441.487,165.573Z" transform="translate(-396.169 -155.731)" fill="#4e4e4e" opacity="0.7"/><path d="M350.4,136.2l3.222,2.285a3.188,3.188,0,0,0,1.019.479l1.148-4.286a3.78,3.78,0,0,1-1.212-.569l-3.83-2.716a3.782,3.782,0,0,0-2.192-.7v4.919A3.183,3.183,0,0,1,350.4,136.2Z" transform="translate(-317.573 -130.697)" fill="#4e4e4e" opacity="0.7"/><path d="M507.674,243.97l-.368,3.933a3.187,3.187,0,0,0,.1,1.122l4.286-1.148a3.787,3.787,0,0,1-.113-1.334l.438-4.675a3.784,3.784,0,0,0-.491-2.248l-4.26,2.459A3.184,3.184,0,0,1,507.674,243.97Z" transform="translate(-453.707 -224.129)" fill="#4e4e4e" opacity="0.7"/><path d="M136.217,303.066l2.285-3.222a3.194,3.194,0,0,0,.479-1.019l-4.286-1.148a3.778,3.778,0,0,1-.569,1.211l-2.716,3.831a3.783,3.783,0,0,0-.7,2.192h4.919A3.184,3.184,0,0,1,136.217,303.066Z" transform="translate(-130.71 -273.929)" fill="#4e4e4e" opacity="0.7"/><path d="M469.972,441.472l-3.59,1.648a3.187,3.187,0,0,0-.924.643L468.6,446.9a3.787,3.787,0,0,1,1.1-.765l4.268-1.959a3.785,3.785,0,0,0,1.7-1.55l-4.26-2.459A3.181,3.181,0,0,1,469.972,441.472Z" transform="translate(-417.849 -396.155)" fill="#4e4e4e" opacity="0.7"/><path d="M396.4,507.661l-3.933-.368a3.194,3.194,0,0,0-1.122.095l1.148,4.286a3.791,3.791,0,0,1,1.334-.113L398.5,512a3.787,3.787,0,0,0,2.248-.492l-2.459-4.26A3.185,3.185,0,0,1,396.4,507.661Z" transform="translate(-354.276 -453.694)" fill="#4e4e4e" opacity="0.7"/><path d="M511.6,348.54a3.186,3.186,0,0,1-.587,1.845l-2.285,3.222a3.187,3.187,0,0,0-.479,1.019l4.286,1.149a3.788,3.788,0,0,1,.569-1.212l2.717-3.83a3.784,3.784,0,0,0,.7-2.192Z" transform="translate(-454.55 -317.558)" fill="#4e4e4e" opacity="0.7"/><path d="M303.08,511l-3.222-2.285a3.189,3.189,0,0,0-1.019-.479l-1.149,4.286a3.789,3.789,0,0,1,1.211.57l3.83,2.716a3.785,3.785,0,0,0,2.193.7v-4.919A3.183,3.183,0,0,1,303.08,511Z" transform="translate(-273.942 -454.537)" fill="#4e4e4e" opacity="0.7"/><path d="M215.019,469.957l-1.647-3.59a3.192,3.192,0,0,0-.643-.924l-3.138,3.138a3.79,3.79,0,0,1,.764,1.1l1.959,4.268a3.784,3.784,0,0,0,1.55,1.7l2.459-4.26A3.185,3.185,0,0,1,215.019,469.957Z" transform="translate(-198.372 -417.833)" fill="#4e4e4e" opacity="0.7"/><path d="M160.678,396.384l.368-3.933a3.184,3.184,0,0,0-.095-1.122l-4.286,1.149a3.786,3.786,0,0,1,.113,1.334l-.438,4.675a3.784,3.784,0,0,0,.491,2.248l4.26-2.459A3.186,3.186,0,0,1,160.678,396.384Z" transform="translate(-152.681 -354.261)" fill="#4e4e4e" opacity="0.7"/><g transform="translate(0 0)"><path d="M156.779,246.543a3.792,3.792,0,0,1-.113,1.334l4.286,1.148a3.19,3.19,0,0,0,.095-1.122l-.368-3.933a3.184,3.184,0,0,1,.413-1.891l-4.26-2.459a3.785,3.785,0,0,0-.492,2.248Z" transform="translate(-152.681 -224.129)" fill="#4e4e4e"/><path d="M299.858,138.49l3.222-2.285a3.183,3.183,0,0,1,1.845-.588V130.7a3.784,3.784,0,0,0-2.193.7l-3.83,2.716a3.782,3.782,0,0,1-1.212.569l1.149,4.287A3.184,3.184,0,0,0,299.858,138.49Z" transform="translate(-273.942 -130.698)" fill="#4e4e4e"/><path d="M213.372,169.163l1.647-3.59a3.184,3.184,0,0,1,1.3-1.431l-2.459-4.26a3.785,3.785,0,0,0-1.549,1.7l-1.959,4.268a3.8,3.8,0,0,1-.764,1.1l3.138,3.137A3.186,3.186,0,0,0,213.372,169.163Z" transform="translate(-198.372 -155.731)" fill="#4e4e4e"/><path d="M392.465,161.035l3.934-.368a3.184,3.184,0,0,1,1.891.413l2.459-4.26a3.787,3.787,0,0,0-2.248-.491l-4.676.437a3.782,3.782,0,0,1-1.333-.113l-1.148,4.287A3.187,3.187,0,0,0,392.465,161.035Z" transform="translate(-354.276 -152.669)" fill="#4e4e4e"/><path d="M508.724,299.845l2.285,3.222a3.185,3.185,0,0,1,.588,1.845h4.919a3.785,3.785,0,0,0-.7-2.193l-2.716-3.83a3.785,3.785,0,0,1-.57-1.211l-4.286,1.148A3.189,3.189,0,0,0,508.724,299.845Z" transform="translate(-454.551 -273.93)" fill="#4e4e4e"/><path d="M466.382,213.359l3.59,1.648a3.182,3.182,0,0,1,1.431,1.3l4.26-2.459a3.786,3.786,0,0,0-1.7-1.55l-4.268-1.959a3.785,3.785,0,0,1-1.1-.764l-3.138,3.137A3.187,3.187,0,0,0,466.382,213.359Z" transform="translate(-417.849 -198.359)" fill="#4e4e4e"/><path d="M511.575,393.811a3.786,3.786,0,0,1,.113-1.333l-4.286-1.149a3.19,3.19,0,0,0-.095,1.122l.368,3.933a3.184,3.184,0,0,1-.413,1.891l4.26,2.459a3.785,3.785,0,0,0,.491-2.248Z" transform="translate(-453.707 -354.261)" fill="#4e4e4e"/><path d="M443.136,466.367l-1.647,3.59a3.184,3.184,0,0,1-1.3,1.431l2.46,4.26a3.781,3.781,0,0,0,1.549-1.7l1.959-4.267a3.782,3.782,0,0,1,.765-1.1l-3.138-3.138A3.2,3.2,0,0,0,443.136,466.367Z" transform="translate(-396.171 -417.834)" fill="#4e4e4e"/><path d="M353.621,508.71,350.4,511a3.183,3.183,0,0,1-1.845.588V516.5a3.785,3.785,0,0,0,2.192-.7l3.83-2.716a3.8,3.8,0,0,1,1.212-.57l-1.148-4.286A3.189,3.189,0,0,0,353.621,508.71Z" transform="translate(-317.573 -454.537)" fill="#4e4e4e"/><path d="M169.176,443.121l-3.59-1.648a3.183,3.183,0,0,1-1.431-1.3l-4.26,2.459a3.788,3.788,0,0,0,1.7,1.549l4.268,1.959a3.792,3.792,0,0,1,1.1.765l3.138-3.138A3.189,3.189,0,0,0,169.176,443.121Z" transform="translate(-155.744 -396.156)" fill="#4e4e4e"/><path d="M247.917,507.293l-3.933.368a3.185,3.185,0,0,1-1.891-.413l-2.459,4.26a3.783,3.783,0,0,0,2.248.492l4.675-.438a3.79,3.79,0,0,1,1.334.113l1.149-4.286A3.193,3.193,0,0,0,247.917,507.293Z" transform="translate(-224.142 -453.694)" fill="#4e4e4e"/><path d="M138.5,353.606l-2.285-3.222a3.184,3.184,0,0,1-.588-1.845H130.71a3.785,3.785,0,0,0,.7,2.193l2.716,3.83a3.794,3.794,0,0,1,.57,1.212l4.286-1.149A3.19,3.19,0,0,0,138.5,353.606Z" transform="translate(-130.71 -317.558)" fill="#4e4e4e"/></g><path d="M246.778,225.654l-1.766-2.49a2.463,2.463,0,0,1-.444-1.654l.285-3.039A2.463,2.463,0,0,0,243.428,216l-2.774-1.273a2.466,2.466,0,0,1-1.211-1.212l-1.273-2.774a2.463,2.463,0,0,0-2.468-1.425l-3.04.284a2.46,2.46,0,0,1-1.654-.443l-2.49-1.766a2.463,2.463,0,0,0-2.85,0l-2.489,1.766a2.46,2.46,0,0,1-1.654.443l-3.039-.284a2.463,2.463,0,0,0-2.468,1.425l-1.273,2.774a2.462,2.462,0,0,1-1.211,1.212L210.758,216a2.463,2.463,0,0,0-1.425,2.468l.284,3.039a2.464,2.464,0,0,1-.443,1.654l-1.766,2.49a2.463,2.463,0,0,0,0,2.85l1.766,2.489a2.464,2.464,0,0,1,.443,1.654l-.284,3.039a2.464,2.464,0,0,0,1.425,2.469l2.774,1.273a2.463,2.463,0,0,1,1.211,1.211l1.273,2.774a2.463,2.463,0,0,0,2.469,1.425l3.039-.285a2.464,2.464,0,0,1,1.654.444l2.489,1.765a2.462,2.462,0,0,0,2.851,0L231.008,245a2.465,2.465,0,0,1,1.654-.444l3.039.285a2.463,2.463,0,0,0,2.468-1.425l1.273-2.774a2.464,2.464,0,0,1,1.211-1.212l2.774-1.273a2.463,2.463,0,0,0,1.425-2.468l-.285-3.039a2.463,2.463,0,0,1,.444-1.654l1.766-2.489a2.465,2.465,0,0,0,0-2.85m-4.331,2.537-1.377,1.942a1.922,1.922,0,0,0-.346,1.29l.222,2.371a1.922,1.922,0,0,1-1.112,1.926l-2.164.993a1.919,1.919,0,0,0-.945.945l-.993,2.164a1.92,1.92,0,0,1-1.925,1.111l-2.37-.222a1.921,1.921,0,0,0-1.291.346l-1.942,1.377a1.922,1.922,0,0,1-2.223,0l-1.942-1.377a1.92,1.92,0,0,0-1.291-.346l-2.37.222a1.921,1.921,0,0,1-1.926-1.112l-.993-2.163a1.919,1.919,0,0,0-.945-.945l-2.163-.993a1.922,1.922,0,0,1-1.112-1.926l.222-2.37a1.919,1.919,0,0,0-.346-1.29l-1.377-1.942a1.922,1.922,0,0,1,0-2.223l1.377-1.942a1.919,1.919,0,0,0,.346-1.29l-.222-2.37a1.922,1.922,0,0,1,1.112-1.926l2.164-.993a1.923,1.923,0,0,0,.945-.945l.993-2.163a1.92,1.92,0,0,1,1.926-1.111l2.37.222a1.922,1.922,0,0,0,1.291-.346l1.942-1.377a1.921,1.921,0,0,1,2.223,0l1.942,1.377a1.923,1.923,0,0,0,1.29.346l2.371-.222a1.919,1.919,0,0,1,1.925,1.111l.993,2.163a1.922,1.922,0,0,0,.945.945l2.164.993a1.922,1.922,0,0,1,1.112,1.926l-.222,2.37a1.923,1.923,0,0,0,.346,1.29l1.377,1.942a1.922,1.922,0,0,1,0,2.223" transform="translate(-196.111 -196.097)" fill="#4e4e4e"/><g transform="translate(71.262 20.164)"><path d="M631.77,301.829l6.049-18.572h3.862l6.049,18.572h-3.464l-1.448-5.026h-6.247l-1.449,5.026Zm6.219-9.882-.653,2.272h4.742l-.653-2.272q-.455-1.477-.866-3.039t-.809-3.1h-.113q-.4,1.562-.8,3.109t-.852,3.024" transform="translate(-631.77 -281.724)" fill="#4e4e4e"/><path d="M753.166,327.691V313.748h2.7l.227,2.471h.114a5.849,5.849,0,0,1,1.789-2.088,3.934,3.934,0,0,1,3.748-.44l-.568,2.84a6.2,6.2,0,0,0-.681-.17,4.437,4.437,0,0,0-.767-.057,3.041,3.041,0,0,0-1.732.639,4.932,4.932,0,0,0-1.562,2.229v8.519Z" transform="translate(-735.901 -307.586)" fill="#4e4e4e"/><path d="M819.854,333.853a11.1,11.1,0,0,1-2.314-.227,6.071,6.071,0,0,1-1.832-.681,3.577,3.577,0,0,1-1.207-1.136,2.972,2.972,0,0,1,.071-3.223,4.775,4.775,0,0,1,1.476-1.349v-.114a2.826,2.826,0,0,1-.894-.909,2.633,2.633,0,0,1-.355-1.42,2.539,2.539,0,0,1,.469-1.491,4.509,4.509,0,0,1,1.065-1.093V322.1a4.975,4.975,0,0,1-1.264-1.491,4.3,4.3,0,0,1-.554-2.2,4.816,4.816,0,0,1,.455-2.129,4.754,4.754,0,0,1,1.207-1.577,5.151,5.151,0,0,1,1.746-.965,6.694,6.694,0,0,1,2.1-.326,5.862,5.862,0,0,1,1.093.1,7.353,7.353,0,0,1,.951.241h5v2.414h-2.555a3.318,3.318,0,0,1,.567,1.008,3.846,3.846,0,0,1,.228,1.349,4.773,4.773,0,0,1-.412,2.044,4.26,4.26,0,0,1-1.122,1.477,4.947,4.947,0,0,1-1.675.909,6.694,6.694,0,0,1-2.073.312,5.383,5.383,0,0,1-.937-.085,4.65,4.65,0,0,1-.965-.284,2.963,2.963,0,0,0-.5.568,1.387,1.387,0,0,0-.185.767,1.076,1.076,0,0,0,.5.937,3.321,3.321,0,0,0,1.775.341h2.471a7.278,7.278,0,0,1,3.819.809,2.863,2.863,0,0,1,1.293,2.627,3.8,3.8,0,0,1-.526,1.931,4.773,4.773,0,0,1-1.491,1.562,7.966,7.966,0,0,1-2.343,1.036,11.482,11.482,0,0,1-3.081.383m.511-2.129a5,5,0,0,0,2.74-.668,1.891,1.891,0,0,0,1.036-1.576,1.093,1.093,0,0,0-.639-1.108,4.658,4.658,0,0,0-1.831-.284h-1.9a7.725,7.725,0,0,1-1.9-.2,2.328,2.328,0,0,0-1.079,1.846,1.613,1.613,0,0,0,.951,1.463,5.471,5.471,0,0,0,2.626.526m-.341-10.507a2.3,2.3,0,0,0,1.7-.724,2.861,2.861,0,0,0,.71-2.087,2.811,2.811,0,0,0-.7-2.03,2.288,2.288,0,0,0-1.718-.724,2.36,2.36,0,0,0-1.733.71,2.767,2.767,0,0,0-.709,2.044,2.858,2.858,0,0,0,.709,2.087,2.333,2.333,0,0,0,1.733.724" transform="translate(-788.135 -307.587)" fill="#4e4e4e"/><path d="M916.771,328.032a7.238,7.238,0,0,1-2.7-.5,6.386,6.386,0,0,1-2.187-1.434,6.54,6.54,0,0,1-1.463-2.286,8.444,8.444,0,0,1-.525-3.081,8.271,8.271,0,0,1,.54-3.067,7.033,7.033,0,0,1,1.434-2.3,6.353,6.353,0,0,1,2.059-1.448,5.873,5.873,0,0,1,2.386-.511,6.062,6.062,0,0,1,2.5.483,4.885,4.885,0,0,1,1.8,1.363,6,6,0,0,1,1.093,2.1,9.2,9.2,0,0,1,.369,2.669q0,.484-.043.909a6.008,6.008,0,0,1-.1.681H913.08a4.5,4.5,0,0,0,1.32,2.882,3.963,3.963,0,0,0,2.8,1.008,5.134,5.134,0,0,0,1.69-.27,7.48,7.48,0,0,0,1.548-.753l1.108,2.045a10.033,10.033,0,0,1-2.215,1.079,7.7,7.7,0,0,1-2.556.426m-3.72-8.633h6.19a4.14,4.14,0,0,0-.7-2.541,2.514,2.514,0,0,0-2.144-.923,3.093,3.093,0,0,0-2.186.88,4.174,4.174,0,0,0-1.164,2.584" transform="translate(-870.343 -307.587)" fill="#4e4e4e"/><path d="M1012.524,327.691V313.748h2.7l.227,1.874h.114a11.07,11.07,0,0,1,2.03-1.562,4.858,4.858,0,0,1,2.542-.653,3.734,3.734,0,0,1,3.266,1.434,7.008,7.008,0,0,1,1.022,4.1v8.747h-3.266v-8.32a4.339,4.339,0,0,0-.511-2.442,1.924,1.924,0,0,0-1.675-.71,2.937,2.937,0,0,0-1.6.44,10.219,10.219,0,0,0-1.576,1.292v9.74Z" transform="translate(-958.372 -307.586)" fill="#4e4e4e"/><path d="M1115.177,307.137a5.1,5.1,0,0,1-2.058-.37,3.489,3.489,0,0,1-1.363-1.036,4.274,4.274,0,0,1-.766-1.591,8.1,8.1,0,0,1-.242-2.059v-6.645h-1.988V293l2.158-.142.4-3.805h2.727v3.805h3.55v2.583h-3.55v6.645q0,2.443,1.959,2.442a3.458,3.458,0,0,0,.752-.085,3.542,3.542,0,0,0,.7-.227l.568,2.414a10.781,10.781,0,0,1-1.292.355,7.361,7.361,0,0,1-1.548.156" transform="translate(-1040.921 -286.691)" fill="#4e4e4e"/><path d="M1185.848,276.2a2.082,2.082,0,0,1-1.448-.511,1.71,1.71,0,0,1-.568-1.335A1.754,1.754,0,0,1,1184.4,273a2.259,2.259,0,0,1,2.9,0,1.757,1.757,0,0,1,.568,1.349,1.712,1.712,0,0,1-.568,1.335,2.086,2.086,0,0,1-1.448.511m-1.647,2.442h3.266v13.943H1184.2Z" transform="translate(-1105.316 -272.476)" fill="#4e4e4e"/><path d="M1233.748,327.691V313.748h2.7l.227,1.874h.114a11.077,11.077,0,0,1,2.03-1.562,4.859,4.859,0,0,1,2.541-.653,3.735,3.735,0,0,1,3.266,1.434,7.006,7.006,0,0,1,1.022,4.1v8.747h-3.266v-8.32a4.342,4.342,0,0,0-.511-2.442,1.924,1.924,0,0,0-1.676-.71,2.934,2.934,0,0,0-1.6.44,10.193,10.193,0,0,0-1.576,1.292v9.74Z" transform="translate(-1148.133 -307.586)" fill="#4e4e4e"/><path d="M1339.492,328.033a4.058,4.058,0,0,1-2.981-1.122,3.982,3.982,0,0,1-1.136-2.967,4.083,4.083,0,0,1,.469-1.974,4.04,4.04,0,0,1,1.477-1.491,9.807,9.807,0,0,1,2.556-1.051,23.35,23.35,0,0,1,3.706-.653,5.3,5.3,0,0,0-.156-1.037,2.383,2.383,0,0,0-.426-.88,1.98,1.98,0,0,0-.781-.6,2.955,2.955,0,0,0-1.193-.213,5.283,5.283,0,0,0-2,.4,13.492,13.492,0,0,0-1.917.965l-1.192-2.186a13.962,13.962,0,0,1,2.612-1.278,8.879,8.879,0,0,1,3.123-.539,4.8,4.8,0,0,1,3.905,1.547,6.814,6.814,0,0,1,1.292,4.473v8.264h-2.7l-.227-1.534h-.114a10.229,10.229,0,0,1-2,1.335,5.058,5.058,0,0,1-2.314.54m1.051-2.556a3.061,3.061,0,0,0,1.547-.4,8.3,8.3,0,0,0,1.491-1.136v-3.124a15.017,15.017,0,0,0-2.385.454,6.931,6.931,0,0,0-1.562.639,2.281,2.281,0,0,0-.852.809,1.945,1.945,0,0,0-.255.966,1.591,1.591,0,0,0,.568,1.363,2.349,2.349,0,0,0,1.448.426" transform="translate(-1235.307 -307.587)" fill="#4e4e4e"/></g></g></svg>
