<svg id="Grupo_105" data-name="Grupo 105" xmlns="http://www.w3.org/2000/svg" xmlns:xlink="http://www.w3.org/1999/xlink" width="356.546" height="67.591" viewBox="0 0 356.546 67.591">
  <defs>
    <clipPath id="clip-path">
      <rect id="Rectángulo_2" data-name="Rectángulo 2" width="41.889" height="28.981" fill="none"/>
    </clipPath>
  </defs>
  <path id="Trazado_83" data-name="Trazado 83" d="M820.12,407.01v-16.5h2.308l.238,2.376h.1a13.52,13.52,0,0,1,2.5-1.986,5.721,5.721,0,0,1,3.039-.8,4.436,4.436,0,0,1,3.82,1.63,8.057,8.057,0,0,1,1.206,4.821V407.01h-2.784V396.926a5.894,5.894,0,0,0-.747-3.378,2.731,2.731,0,0,0-2.377-1.036,4.056,4.056,0,0,0-2.275.645,14.758,14.758,0,0,0-2.241,1.9V407.01Z" transform="translate(-628.88 -347.023)" fill="#fff"/>
  <path id="Trazado_84" data-name="Trazado 84" d="M883.708,396.45a5.38,5.38,0,0,1-2.224-.408,3.827,3.827,0,0,1-1.459-1.12,4.368,4.368,0,0,1-.8-1.732,9.859,9.859,0,0,1-.238-2.241v-9.133h-2.444v-2.1l2.579-.17.341-4.617h2.342v4.617h4.448v2.275h-4.448v9.167a4.206,4.206,0,0,0,.56,2.36,2.22,2.22,0,0,0,1.986.832,3.684,3.684,0,0,0,.951-.136,7.022,7.022,0,0,0,.916-.3l.543,2.1a14.522,14.522,0,0,1-1.477.424,6.93,6.93,0,0,1-1.579.187" transform="translate(-669.653 -336.056)" fill="#fff"/>
  <path id="Trazado_85" data-name="Trazado 85" d="M921.682,369.956a1.972,1.972,0,0,1-1.375-.509,1.786,1.786,0,0,1,0-2.6,2.168,2.168,0,0,1,2.75,0,1.786,1.786,0,0,1,0,2.6,1.972,1.972,0,0,1-1.375.509m-1.426,3.395h2.783v16.5h-2.783Z" transform="translate(-700.871 -329.865)" fill="#fff"/>
  <path id="Trazado_86" data-name="Trazado 86" d="M948.264,407.01v-16.5h2.308l.238,2.376h.1a13.525,13.525,0,0,1,2.5-1.986,5.72,5.72,0,0,1,3.039-.8,4.437,4.437,0,0,1,3.82,1.63,8.061,8.061,0,0,1,1.2,4.821V407.01h-2.784V396.926a5.89,5.89,0,0,0-.747-3.378,2.73,2.73,0,0,0-2.377-1.036,4.057,4.057,0,0,0-2.275.645,14.77,14.77,0,0,0-2.241,1.9V407.01Z" transform="translate(-721.477 -347.023)" fill="#fff"/>
  <path id="Trazado_87" data-name="Trazado 87" d="M1012.937,407.417a5,5,0,0,1-3.446-1.223,4.391,4.391,0,0,1-1.375-3.463,4.581,4.581,0,0,1,2.411-4.159q2.41-1.443,7.707-2.021a7.592,7.592,0,0,0-.153-1.528,3.834,3.834,0,0,0-.526-1.324,2.769,2.769,0,0,0-1.036-.934,3.522,3.522,0,0,0-1.681-.356,6.687,6.687,0,0,0-2.681.543,13.071,13.071,0,0,0-2.241,1.222l-1.087-1.936a18.116,18.116,0,0,1,2.818-1.443,9.414,9.414,0,0,1,3.667-.7,5.068,5.068,0,0,1,4.379,1.85,8.162,8.162,0,0,1,1.359,4.939v10.118h-2.309l-.238-1.969h-.1a13.947,13.947,0,0,1-2.546,1.68,6.32,6.32,0,0,1-2.92.7m.814-2.241a4.7,4.7,0,0,0,2.241-.56,11.259,11.259,0,0,0,2.241-1.646v-4.584a28.228,28.228,0,0,0-3.48.645,9.205,9.205,0,0,0-2.275.883,3.422,3.422,0,0,0-1.256,1.171,2.792,2.792,0,0,0-.391,1.444,2.337,2.337,0,0,0,.849,2.036,3.45,3.45,0,0,0,2.071.611" transform="translate(-764.726 -347.023)" fill="#fff"/>
  <path id="Trazado_88" data-name="Trazado 88" d="M592.721,393.035l7.538-22.272h3.191l7.538,22.272h-3.022l-2.105-6.791h-8.115l-2.138,6.791Zm6.79-12.46-1.053,3.395h6.689l-1.053-3.395q-.611-1.868-1.154-3.718t-1.086-3.786h-.136q-.509,1.936-1.053,3.786t-1.154,3.718" transform="translate(-464.561 -333.048)" fill="#fff"/>
  <path id="Trazado_89" data-name="Trazado 89" d="M665.542,407.01v-16.5h2.308l.237,2.988h.1a7.631,7.631,0,0,1,2.054-2.478,4.253,4.253,0,0,1,2.632-.917,4.391,4.391,0,0,1,1.765.34l-.543,2.444a6.391,6.391,0,0,0-.747-.2,4.434,4.434,0,0,0-.849-.068,3.7,3.7,0,0,0-2.19.849,6.76,6.76,0,0,0-1.987,2.953V407.01Z" transform="translate(-517.181 -347.023)" fill="#fff"/>
  <path id="Trazado_90" data-name="Trazado 90" d="M706.877,414.614a12.5,12.5,0,0,1-2.784-.288,6.779,6.779,0,0,1-2.155-.866,4.29,4.29,0,0,1-1.392-1.392,3.6,3.6,0,0,1-.493-1.9,3.508,3.508,0,0,1,.645-2,6.788,6.788,0,0,1,1.765-1.732V406.3a3.226,3.226,0,0,1-1.035-1.035,3.294,3.294,0,0,1,.152-3.48,5.2,5.2,0,0,1,1.223-1.223v-.136a6.761,6.761,0,0,1-1.477-1.817,5.131,5.131,0,0,1-.662-2.631,5.863,5.863,0,0,1,.492-2.445,5.521,5.521,0,0,1,1.342-1.85,5.92,5.92,0,0,1,1.986-1.171,7.054,7.054,0,0,1,2.394-.407,6.5,6.5,0,0,1,1.273.119,7.781,7.781,0,0,1,1.07.288h5.738v2.139h-3.395a4.856,4.856,0,0,1,1.357,3.4,5.839,5.839,0,0,1-.475,2.394,5.242,5.242,0,0,1-1.29,1.8,5.908,5.908,0,0,1-1.919,1.138,6.764,6.764,0,0,1-2.36.408,5.419,5.419,0,0,1-1.256-.153,6.18,6.18,0,0,1-1.223-.424,4.013,4.013,0,0,0-.747.832,2.011,2.011,0,0,0-.3,1.138,1.6,1.6,0,0,0,.611,1.289,3.761,3.761,0,0,0,2.309.51h3.191a8.067,8.067,0,0,1,4.329.934,3.312,3.312,0,0,1,1.443,3,4.433,4.433,0,0,1-.577,2.19,5.616,5.616,0,0,1-1.663,1.817,8.748,8.748,0,0,1-2.632,1.239,12.22,12.22,0,0,1-3.48.458m.407-1.935a7.552,7.552,0,0,0,2.156-.288,6,6,0,0,0,1.646-.747,3.513,3.513,0,0,0,1.053-1.069,2.385,2.385,0,0,0,.373-1.257,1.635,1.635,0,0,0-.849-1.6,5.5,5.5,0,0,0-2.478-.441h-2.853c-.317,0-.662-.018-1.035-.051a5.342,5.342,0,0,1-1.1-.221,4.509,4.509,0,0,0-1.29,1.358,2.854,2.854,0,0,0-.407,1.426,2.376,2.376,0,0,0,1.273,2.1,6.708,6.708,0,0,0,3.513.781m-.407-12.766a3.332,3.332,0,0,0,1.341-.271,3.462,3.462,0,0,0,1.12-.78,3.533,3.533,0,0,0,.764-1.24,4.7,4.7,0,0,0,.272-1.646,3.8,3.8,0,0,0-1.019-2.835,3.566,3.566,0,0,0-4.957,0,3.8,3.8,0,0,0-1.018,2.835,4.7,4.7,0,0,0,.271,1.646,3.536,3.536,0,0,0,.764,1.24,3.45,3.45,0,0,0,1.121.78,3.329,3.329,0,0,0,1.341.271" transform="translate(-542.119 -347.023)" fill="#fff"/>
  <path id="Trazado_91" data-name="Trazado 91" d="M766.346,407.417a8.078,8.078,0,0,1-3.107-.594,7.342,7.342,0,0,1-2.512-1.7,7.859,7.859,0,0,1-1.681-2.7,10.1,10.1,0,0,1-.611-3.633,9.99,9.99,0,0,1,.628-3.65,8.546,8.546,0,0,1,1.664-2.733,7.206,7.206,0,0,1,2.359-1.715,6.66,6.66,0,0,1,2.75-.594,6.907,6.907,0,0,1,2.8.543,5.47,5.47,0,0,1,2.071,1.561,7.192,7.192,0,0,1,1.273,2.445,10.8,10.8,0,0,1,.441,3.191c0,.3-.006.583-.017.866a4.283,4.283,0,0,1-.085.73H761.186a6.441,6.441,0,0,0,1.646,4.193,5.09,5.09,0,0,0,3.854,1.545,6.486,6.486,0,0,0,2.189-.356,9.658,9.658,0,0,0,1.918-.934l.984,1.833a14.075,14.075,0,0,1-2.41,1.189,8.387,8.387,0,0,1-3.022.509m-5.195-9.982h8.827a5.91,5.91,0,0,0-1.069-3.819,3.664,3.664,0,0,0-3-1.307,4.257,4.257,0,0,0-1.681.339,4.417,4.417,0,0,0-1.442,1,5.5,5.5,0,0,0-1.07,1.613,7.252,7.252,0,0,0-.56,2.173" transform="translate(-584.306 -347.023)" fill="#fff"/>
  <path id="Trazado_92" data-name="Trazado 92" d="M603.465,266.578V242.094h6.552q5.615,0,8.76,3.033t3.144,9.1a16.324,16.324,0,0,1-.8,5.353,10.266,10.266,0,0,1-2.321,3.875,9.691,9.691,0,0,1-3.669,2.34,14.19,14.19,0,0,1-4.886.786Zm4.343-3.52h1.909a7.464,7.464,0,0,0,5.747-2.152q2-2.152,2-6.683,0-4.493-2.021-6.552a7.667,7.667,0,0,0-5.728-2.059h-1.909Z" transform="translate(-472.325 -240.072)" fill="#fff"/>
  <path id="Trazado_93" data-name="Trazado 93" d="M683.994,239.71a2.745,2.745,0,0,1-1.909-.674,2.254,2.254,0,0,1-.749-1.76,2.312,2.312,0,0,1,.749-1.778,2.978,2.978,0,0,1,3.819,0,2.314,2.314,0,0,1,.749,1.778,2.255,2.255,0,0,1-.749,1.76,2.746,2.746,0,0,1-1.909.674m-2.171,3.22h4.305v18.382h-4.305Z" transform="translate(-528.594 -234.806)" fill="#fff"/>
  <path id="Trazado_94" data-name="Trazado 94" d="M718.259,289.428a14.618,14.618,0,0,1-3.051-.3,7.989,7.989,0,0,1-2.415-.9,4.711,4.711,0,0,1-1.591-1.5,3.917,3.917,0,0,1,.093-4.249,6.3,6.3,0,0,1,1.947-1.779v-.15a3.72,3.72,0,0,1-1.179-1.2,3.464,3.464,0,0,1-.468-1.872,3.34,3.34,0,0,1,.618-1.965,5.949,5.949,0,0,1,1.4-1.442v-.149a6.56,6.56,0,0,1-1.666-1.966,5.655,5.655,0,0,1-.73-2.9,6.351,6.351,0,0,1,.6-2.808,6.268,6.268,0,0,1,1.591-2.078,6.788,6.788,0,0,1,2.3-1.273,8.83,8.83,0,0,1,2.77-.43,7.767,7.767,0,0,1,1.441.131,9.7,9.7,0,0,1,1.254.318h6.589V266.1H724.4a4.365,4.365,0,0,1,.749,1.329,5.065,5.065,0,0,1,.3,1.778,6.294,6.294,0,0,1-.543,2.7,5.605,5.605,0,0,1-1.479,1.947,6.506,6.506,0,0,1-2.208,1.2,8.819,8.819,0,0,1-2.733.412,7.14,7.14,0,0,1-1.236-.112,6.125,6.125,0,0,1-1.273-.374,3.928,3.928,0,0,0-.655.749,1.836,1.836,0,0,0-.243,1.011,1.418,1.418,0,0,0,.655,1.235,4.382,4.382,0,0,0,2.339.449h3.257a9.6,9.6,0,0,1,5.036,1.067,3.776,3.776,0,0,1,1.7,3.463,5.009,5.009,0,0,1-.693,2.546,6.309,6.309,0,0,1-1.965,2.059,10.517,10.517,0,0,1-3.089,1.367,15.147,15.147,0,0,1-4.062.505m.674-2.808a6.591,6.591,0,0,0,3.613-.88,2.5,2.5,0,0,0,1.367-2.078,1.44,1.44,0,0,0-.842-1.46,6.131,6.131,0,0,0-2.415-.375h-2.508a10.19,10.19,0,0,1-2.508-.262A3.069,3.069,0,0,0,714.216,284a2.127,2.127,0,0,0,1.254,1.928,7.215,7.215,0,0,0,3.462.692m-.449-13.852a3.035,3.035,0,0,0,2.246-.954,3.773,3.773,0,0,0,.936-2.752,3.708,3.708,0,0,0-.917-2.677,3.016,3.016,0,0,0-2.265-.954,3.108,3.108,0,0,0-2.284.935,3.649,3.649,0,0,0-.936,2.7,3.77,3.77,0,0,0,.936,2.752,3.076,3.076,0,0,0,2.284.954" transform="translate(-549.756 -254.798)" fill="#fff"/>
  <path id="Trazado_95" data-name="Trazado 95" d="M782.781,239.71a2.744,2.744,0,0,1-1.909-.674,2.253,2.253,0,0,1-.749-1.76,2.311,2.311,0,0,1,.749-1.778,2.978,2.978,0,0,1,3.819,0,2.314,2.314,0,0,1,.749,1.778,2.255,2.255,0,0,1-.749,1.76,2.746,2.746,0,0,1-1.909.674m-2.172,3.22h4.305v18.382H780.61Z" transform="translate(-599.978 -234.806)" fill="#fff"/>
  <path id="Trazado_96" data-name="Trazado 96" d="M815.171,269.854a6.728,6.728,0,0,1-2.714-.487,4.592,4.592,0,0,1-1.8-1.366,5.646,5.646,0,0,1-1.011-2.1,10.722,10.722,0,0,1-.318-2.715v-8.76h-2.62v-3.219l2.845-.188.524-5.016h3.594v5.016h4.679v3.407h-4.679v8.76q0,3.221,2.583,3.22a4.581,4.581,0,0,0,.992-.112,4.659,4.659,0,0,0,.917-.3l.749,3.182a14.413,14.413,0,0,1-1.7.468,9.715,9.715,0,0,1-2.04.206" transform="translate(-619.19 -242.9)" fill="#fff"/>
  <path id="Trazado_97" data-name="Trazado 97" d="M858.292,281.753a5.349,5.349,0,0,1-3.931-1.479,5.251,5.251,0,0,1-1.5-3.912,5.386,5.386,0,0,1,.618-2.6,5.331,5.331,0,0,1,1.947-1.965,12.938,12.938,0,0,1,3.369-1.385,30.831,30.831,0,0,1,4.886-.861,6.946,6.946,0,0,0-.206-1.366,3.143,3.143,0,0,0-.561-1.161,2.611,2.611,0,0,0-1.03-.786,3.9,3.9,0,0,0-1.572-.281,6.964,6.964,0,0,0-2.639.524,17.794,17.794,0,0,0-2.527,1.273l-1.572-2.883a18.414,18.414,0,0,1,3.444-1.684,11.7,11.7,0,0,1,4.118-.711,6.324,6.324,0,0,1,5.148,2.04,8.98,8.98,0,0,1,1.7,5.9V281.3h-3.557l-.3-2.022h-.15a13.451,13.451,0,0,1-2.639,1.76,6.66,6.66,0,0,1-3.051.711m1.385-3.369a4.037,4.037,0,0,0,2.04-.524,10.953,10.953,0,0,0,1.966-1.5v-4.118a19.634,19.634,0,0,0-3.145.6,9.117,9.117,0,0,0-2.059.842,3.005,3.005,0,0,0-1.123,1.067,2.555,2.555,0,0,0-.337,1.273,2.1,2.1,0,0,0,.749,1.8,3.1,3.1,0,0,0,1.909.561" transform="translate(-652.541 -254.798)" fill="#fff"/>
  <path id="Trazado_98" data-name="Trazado 98" d="M926.83,261.955a3.641,3.641,0,0,1-3.257-1.385,6.67,6.67,0,0,1-.936-3.781V235.075h4.305v21.939a1.6,1.6,0,0,0,.3,1.1.871.871,0,0,0,.636.318h.281a1.576,1.576,0,0,0,.393-.075l.561,3.22a5.82,5.82,0,0,1-2.284.374" transform="translate(-702.959 -235.001)" fill="#fff"/>
  <path id="Trazado_99" data-name="Trazado 99" d="M979.452,281.3V262.921h3.557l.3,2.471h.15a14.586,14.586,0,0,1,2.677-2.059,6.408,6.408,0,0,1,3.35-.861,4.923,4.923,0,0,1,4.305,1.89,9.235,9.235,0,0,1,1.348,5.41V281.3h-4.306V270.334a5.722,5.722,0,0,0-.674-3.22,2.536,2.536,0,0,0-2.209-.936,3.871,3.871,0,0,0-2.115.58,13.49,13.49,0,0,0-2.078,1.7V281.3Z" transform="translate(-744.014 -254.797)" fill="#fff"/>
  <path id="Trazado_100" data-name="Trazado 100" d="M1056.06,281.753a8.7,8.7,0,0,1-3.294-.636,8.189,8.189,0,0,1-2.789-1.872,8.951,8.951,0,0,1-1.928-3.033,12.063,12.063,0,0,1,0-8.162,8.95,8.95,0,0,1,1.928-3.032,8.48,8.48,0,0,1,6.083-2.545,8.628,8.628,0,0,1,3.314.655,8.189,8.189,0,0,1,2.789,1.89,9.355,9.355,0,0,1,1.928,3.032,11.771,11.771,0,0,1,0,8.162,9.356,9.356,0,0,1-1.928,3.033,7.963,7.963,0,0,1-2.789,1.872,8.85,8.85,0,0,1-3.314.636m0-3.519a3.673,3.673,0,0,0,3.182-1.666,9.132,9.132,0,0,0,0-8.91,3.675,3.675,0,0,0-3.182-1.666,3.629,3.629,0,0,0-3.163,1.666,9.262,9.262,0,0,0,0,8.91,3.628,3.628,0,0,0,3.163,1.666" transform="translate(-793.068 -254.798)" fill="#fff"/>
  <path id="Trazado_101" data-name="Trazado 101" d="M1122.372,281.3V262.921h3.557l.3,2.508h.15a12.9,12.9,0,0,1,2.527-2.1,5.673,5.673,0,0,1,3.089-.861,5.5,5.5,0,0,1,3.238.861,5.354,5.354,0,0,1,1.853,2.434,14.8,14.8,0,0,1,2.733-2.359,5.67,5.67,0,0,1,3.182-.936,4.983,4.983,0,0,1,4.305,1.89,9.052,9.052,0,0,1,1.385,5.41V281.3h-4.342V270.334a5.594,5.594,0,0,0-.693-3.22,2.46,2.46,0,0,0-2.115-.936q-1.723,0-3.856,2.284V281.3h-4.3V270.334a5.6,5.6,0,0,0-.693-3.22,2.5,2.5,0,0,0-2.152-.936q-1.722,0-3.856,2.284V281.3Z" transform="translate(-847.288 -254.797)" fill="#fff"/>
  <path id="Trazado_102" data-name="Trazado 102" d="M1234.687,281.753a5.349,5.349,0,0,1-3.931-1.479,5.252,5.252,0,0,1-1.5-3.912,5.386,5.386,0,0,1,.617-2.6,5.33,5.33,0,0,1,1.947-1.965,12.935,12.935,0,0,1,3.369-1.385,30.831,30.831,0,0,1,4.886-.861,6.928,6.928,0,0,0-.206-1.366,3.143,3.143,0,0,0-.561-1.161,2.611,2.611,0,0,0-1.029-.786,3.9,3.9,0,0,0-1.573-.281,6.968,6.968,0,0,0-2.64.524,17.839,17.839,0,0,0-2.527,1.273l-1.572-2.883a18.422,18.422,0,0,1,3.444-1.684,11.7,11.7,0,0,1,4.118-.711,6.323,6.323,0,0,1,5.147,2.04,8.977,8.977,0,0,1,1.7,5.9V281.3h-3.556l-.3-2.022h-.149a13.459,13.459,0,0,1-2.639,1.76,6.658,6.658,0,0,1-3.051.711m1.385-3.369a4.038,4.038,0,0,0,2.04-.524,10.939,10.939,0,0,0,1.965-1.5v-4.118a19.644,19.644,0,0,0-3.145.6,9.118,9.118,0,0,0-2.059.842,3.01,3.01,0,0,0-1.123,1.067,2.56,2.56,0,0,0-.337,1.273,2.1,2.1,0,0,0,.749,1.8,3.1,3.1,0,0,0,1.91.561" transform="translate(-924.525 -254.798)" fill="#fff"/>
  <path id="Trazado_103" data-name="Trazado 103" d="M1302.544,261.956a6.724,6.724,0,0,1-5.522-2.527q-2.041-2.527-2.04-7.094a11.746,11.746,0,0,1,.655-4.044,9.411,9.411,0,0,1,1.741-3.032,7.77,7.77,0,0,1,2.49-1.909,6.622,6.622,0,0,1,2.9-.674,5.909,5.909,0,0,1,2.658.542,10.688,10.688,0,0,1,2.172,1.479l-.15-2.958v-6.664h4.3v26.431H1308.2l-.3-1.984h-.15a9.725,9.725,0,0,1-2.359,1.722,6.013,6.013,0,0,1-2.845.711m1.048-3.556a5.138,5.138,0,0,0,3.856-2.059v-8.573a6.105,6.105,0,0,0-1.89-1.2,5.351,5.351,0,0,0-1.854-.337,3.731,3.731,0,0,0-3.032,1.572,7.133,7.133,0,0,0-1.235,4.493,8.033,8.033,0,0,0,1.067,4.549,3.515,3.515,0,0,0,3.089,1.554" transform="translate(-972.017 -235.001)" fill="#fff"/>
  <path id="Trazado_104" data-name="Trazado 104" d="M1372.123,281.752a10.182,10.182,0,0,1-3.763-.73,12.168,12.168,0,0,1-3.2-1.816l2.021-2.771a11.654,11.654,0,0,0,2.452,1.516,6.4,6.4,0,0,0,2.64.543,3.314,3.314,0,0,0,2.209-.618,2.011,2.011,0,0,0,.711-1.591,1.564,1.564,0,0,0-.337-.992,3.244,3.244,0,0,0-.9-.767,8.628,8.628,0,0,0-1.273-.618q-.712-.281-1.422-.58-.9-.337-1.834-.786a7.363,7.363,0,0,1-1.666-1.085,5.463,5.463,0,0,1-1.2-1.479,4.06,4.06,0,0,1-.468-2,4.977,4.977,0,0,1,1.8-3.968,7.306,7.306,0,0,1,4.9-1.535,8.475,8.475,0,0,1,3.444.674,12.83,12.83,0,0,1,2.658,1.535l-1.985,2.621a10.311,10.311,0,0,0-1.965-1.142,5.167,5.167,0,0,0-2.078-.431,3.018,3.018,0,0,0-2.041.58,1.85,1.85,0,0,0-.655,1.441,1.465,1.465,0,0,0,.318.955,2.942,2.942,0,0,0,.842.693,8.51,8.51,0,0,0,1.217.562q.692.262,1.441.524.936.336,1.872.767a7.734,7.734,0,0,1,1.7,1.067,4.881,4.881,0,0,1,1.235,1.554,4.77,4.77,0,0,1,.468,2.19,5.319,5.319,0,0,1-.468,2.228,5.14,5.14,0,0,1-1.366,1.8,6.66,6.66,0,0,1-2.246,1.217,9.689,9.689,0,0,1-3.07.449" transform="translate(-1022.727 -254.797)" fill="#fff"/>
  <path id="Trazado_105" data-name="Trazado 105" d="M423.082,242.509c-.818,9.391,14.142,19.627,14.126,28.981h-27.73c.026-9.334-14.954-19.609-14.126-28.981Z" transform="translate(-321.917 -240.372)" fill="#fff"/>
  <g id="Grupo_29" data-name="Grupo 29" transform="translate(73.402 31.119)" opacity="0.7">
    <g id="Grupo_28" data-name="Grupo 28">
      <g id="Grupo_27" data-name="Grupo 27" clip-path="url(#clip-path)">
        <path id="Trazado_106" data-name="Trazado 106" d="M423.082,375.968c-.818-9.391,14.142-19.627,14.126-28.981h-27.73c.026,9.334-14.954,19.609-14.126,28.981Z" transform="translate(-395.319 -346.987)" fill="#fff"/>
      </g>
    </g>
  </g>
  <path id="Trazado_107" data-name="Trazado 107" d="M144.836,375.968c.818-9.391-14.143-19.627-14.126-28.981h27.73c-.026,9.334,14.953,19.609,14.126,28.981Z" transform="translate(-130.71 -315.869)" fill="#fff"/>
  <g id="Grupo_32" data-name="Grupo 32" transform="translate(0 2.136)" opacity="0.7">
    <g id="Grupo_31" data-name="Grupo 31">
      <g id="Grupo_30" data-name="Grupo 30" clip-path="url(#clip-path)">
        <path id="Trazado_108" data-name="Trazado 108" d="M144.836,242.509c.818,9.391-14.143,19.627-14.126,28.981h27.73c-.026-9.334,14.953-19.609,14.126-28.981Z" transform="translate(-130.71 -242.509)" fill="#fff"/>
      </g>
    </g>
  </g>
  <path id="Trazado_109" data-name="Trazado 109" d="M326.38,327.28a7.564,7.564,0,1,1-7.564-7.564,7.564,7.564,0,0,1,7.564,7.564" transform="translate(-261.17 -296.162)" fill="#fff"/>
</svg>
