<svg xmlns="http://www.w3.org/2000/svg" width="132.663" height="64.137" viewBox="0 0 132.663 64.137"><g transform="translate(0)"><path d="M296.061,0A19.318,19.318,0,0,0,281.92,6.08a2.545,2.545,0,1,0,3.687,3.509,14.28,14.28,0,0,1,10.454-4.495,14.44,14.44,0,0,1,0,28.881c-9.971,0-12.463-6.816-14.493-15.051C279.938,12.31,276.9,0,262.137,0a19.534,19.534,0,0,0,0,39.069,19.318,19.318,0,0,0,14.141-6.079,2.545,2.545,0,1,0-3.687-3.509,14.283,14.283,0,0,1-10.454,4.495,14.44,14.44,0,0,1,0-28.881c9.971,0,12.463,6.816,14.493,15.051,1.631,6.613,4.666,18.923,19.431,18.923a19.534,19.534,0,0,0,0-39.069Z" transform="translate(-213.445)" fill="#4e4e4e"/><path d="M357.564,118.778a1.469,1.469,0,0,1-1.361-.91l-4.877-11.774a1.473,1.473,0,1,1,2.723-1.128l3.516,8.488,3.53-8.522a1.474,1.474,0,0,1,2.723,1.128l-4.891,11.808A1.469,1.469,0,0,1,357.564,118.778Z" transform="translate(-308.965 -91.509)" fill="#4e4e4e"/><path d="M641.036,98.094A1.469,1.469,0,0,1,642.4,99l4.877,11.774a1.474,1.474,0,1,1-2.723,1.128l-3.516-8.488-3.53,8.522a1.474,1.474,0,0,1-2.723-1.128L639.674,99A1.469,1.469,0,0,1,641.036,98.094Z" transform="translate(-558.326 -86.295)" fill="#4e4e4e"/><path d="M466.286,423.595a1.168,1.168,0,0,1-.871-.355,1.216,1.216,0,0,1-.344-.879v-7.949a1.217,1.217,0,0,1,.344-.879,1.245,1.245,0,0,1,1.741,0,1.218,1.218,0,0,1,.344.879v.035a2.993,2.993,0,0,1,1.183-1.042,3.981,3.981,0,0,1,1.8-.42,1.537,1.537,0,0,1,1.01.341h0a1.038,1.038,0,0,1,.416.816,1.256,1.256,0,0,1-.326.938,1.078,1.078,0,0,1-.773.315,1.983,1.983,0,0,1-.675-.139c-.036-.012-.122-.037-.255-.076a1.522,1.522,0,0,0-.417-.055,1.661,1.661,0,0,0-.929.3,2.2,2.2,0,0,0-.739.909,3.392,3.392,0,0,0-.292,1.466v4.561a1.217,1.217,0,0,1-.344.879A1.168,1.168,0,0,1,466.286,423.595Z" transform="translate(-409.128 -363.307)" fill="#4e4e4e"/><path d="M531.69,427.444a9.161,9.161,0,0,1-1.6-.194,7.113,7.113,0,0,1-1.448-.389c-.649-.278-.978-.672-.978-1.171a1.05,1.05,0,0,1,.061-.327,1.25,1.25,0,0,1,.414-.673,1.017,1.017,0,0,1,.644-.234,1.218,1.218,0,0,1,.385.061c.03.007.166.054.955.357a4.435,4.435,0,0,0,1.566.333,3.3,3.3,0,0,0,2.089-.554,1.9,1.9,0,0,0,.68-1.56v-.746a4.124,4.124,0,0,1-1.19.952,3.772,3.772,0,0,1-1.868.489,4.659,4.659,0,0,1-2.486-.692,4.865,4.865,0,0,1-1.763-1.919,5.927,5.927,0,0,1-.642-2.78,6.061,6.061,0,0,1,.632-2.789,4.83,4.83,0,0,1,1.735-1.929,4.528,4.528,0,0,1,2.447-.693,4.27,4.27,0,0,1,1.854.41,4.5,4.5,0,0,1,1.28.884v-.06a1.218,1.218,0,0,1,.344-.879,1.168,1.168,0,0,1,.871-.355,1.186,1.186,0,0,1,.87.345h0a1.21,1.21,0,0,1,.345.889v8.565a4.194,4.194,0,0,1-1.476,3.521A5.926,5.926,0,0,1,531.69,427.444Zm0-12.221a2.611,2.611,0,0,0-2.053.9,3.337,3.337,0,0,0-.794,2.27,3.3,3.3,0,0,0,.793,2.26,2.623,2.623,0,0,0,2.053.894,2.653,2.653,0,0,0,2.063-.894h0a3.277,3.277,0,0,0,.8-2.26,3.314,3.314,0,0,0-.8-2.27A2.641,2.641,0,0,0,531.69,415.222Z" transform="translate(-463.176 -363.307)" fill="#4e4e4e"/><path d="M1011.3,423.787a4.478,4.478,0,0,1-2.438-.693,4.869,4.869,0,0,1-1.725-1.919,6,6,0,0,1-.632-2.78,6.135,6.135,0,0,1,.622-2.789,4.814,4.814,0,0,1,1.705-1.929,4.367,4.367,0,0,1,2.39-.693,4.544,4.544,0,0,1,1.755.341,4.716,4.716,0,0,1,1.287.781,1.2,1.2,0,0,1,.34-.767,1.168,1.168,0,0,1,.871-.355,1.186,1.186,0,0,1,.87.345,1.21,1.21,0,0,1,.345.889v6.833a.529.529,0,0,0,.05.25c.037.067.075.074.1.074a.845.845,0,0,0,.236-.082,1.064,1.064,0,0,1,.418-.091.552.552,0,0,1,.42.2.861.861,0,0,1,.179.589,1.385,1.385,0,0,1-.612,1.155,2.451,2.451,0,0,1-1.489.445,1.537,1.537,0,0,1-.97-.321,2.283,2.283,0,0,1-.644-.756,4.632,4.632,0,0,1-1.332.869A4,4,0,0,1,1011.3,423.787Zm.289-8.564a2.491,2.491,0,0,0-1.975.9,3.719,3.719,0,0,0-.009,4.531,2.494,2.494,0,0,0,1.985.893,2.523,2.523,0,0,0,1.995-.893,3.351,3.351,0,0,0,.774-2.261,3.391,3.391,0,0,0-.774-2.271A2.512,2.512,0,0,0,1011.589,415.222Z" transform="translate(-885.432 -363.307)" fill="#4e4e4e"/><path d="M226.054,379.947a1.654,1.654,0,1,1,1.684-1.654A1.671,1.671,0,0,1,226.054,379.947Z" transform="translate(-197.38 -331.333)" fill="#4e4e4e"/><path d="M229.485,425a1.167,1.167,0,0,1-.871-.355,1.216,1.216,0,0,1-.344-.879v-7.949a1.217,1.217,0,0,1,.344-.879,1.245,1.245,0,0,1,1.741,0,1.218,1.218,0,0,1,.344.879v7.949a1.217,1.217,0,0,1-.344.879h0A1.169,1.169,0,0,1,229.485,425Z" transform="translate(-200.812 -364.714)" fill="#4e4e4e"/><path d="M353.766,397.671a1.173,1.173,0,0,1-1.082-1.622l4.891-11.808a1.173,1.173,0,0,1,2.167,0l4.877,11.774a1.173,1.173,0,1,1-2.167.9l-3.794-9.158-3.808,9.193a1.17,1.17,0,0,1-1.084.724h0Z" transform="translate(-310.181 -337.384)" fill="#4e4e4e"/><path d="M6.05,397.672a1.169,1.169,0,0,1-1.084-.724L.089,385.174a1.173,1.173,0,1,1,2.167-.9l3.794,9.158,3.808-9.192a1.173,1.173,0,0,1,2.167.9L7.133,396.948A1.169,1.169,0,0,1,6.05,397.672Z" transform="translate(0 -337.384)" fill="#4e4e4e"/><path d="M111.176,391.621a1.167,1.167,0,0,1-.871-.355,1.216,1.216,0,0,1-.344-.879v-7.949a1.217,1.217,0,0,1,.344-.879,1.245,1.245,0,0,1,1.741,0,1.218,1.218,0,0,1,.344.879v7.949a1.217,1.217,0,0,1-.344.879h0A1.169,1.169,0,0,1,111.176,391.621Zm1.684-13.328a1.684,1.684,0,1,0-1.684,1.654A1.671,1.671,0,0,0,112.86,378.293Z" transform="translate(-96.321 -331.333)" fill="#4e4e4e"/><path d="M150.262,421.651a6.612,6.612,0,0,1-2.389-.427,4.008,4.008,0,0,1-1.817-1.387,1,1,0,0,1-.185-.613,1.071,1.071,0,0,1,.526-.9,1.084,1.084,0,0,1,.592-.184,1.149,1.149,0,0,1,.812.383,4.015,4.015,0,0,0,1.185.873,3.541,3.541,0,0,0,1.486.283c.969-.037,1.441-.389,1.441-1.075a.857.857,0,0,0-.48-.795,7.175,7.175,0,0,0-1.574-.572,13.84,13.84,0,0,1-1.827-.619,3.285,3.285,0,0,1-1.235-.951,2.654,2.654,0,0,1-.524-1.722,2.618,2.618,0,0,1,.542-1.644,3.559,3.559,0,0,1,1.409-1.077,5.086,5.086,0,0,1,3.827-.011,3.492,3.492,0,0,1,1.566,1.1,1.134,1.134,0,0,1,.263.73.956.956,0,0,1-.389.779,1.032,1.032,0,0,1-.653.225,1,1,0,0,1-.735-.287,2.412,2.412,0,0,0-.877-.661,2.916,2.916,0,0,0-1.216-.245c-.944,0-1.4.327-1.4,1a.841.841,0,0,0,.251.64,1.79,1.79,0,0,0,.661.391c.274.1.664.215,1.161.355a12.868,12.868,0,0,1,1.74.6,3.045,3.045,0,0,1,1.2.962,2.772,2.772,0,0,1,.493,1.711,2.638,2.638,0,0,1-.571,1.683,3.606,3.606,0,0,1-1.458,1.086A4.714,4.714,0,0,1,150.262,421.651Z" transform="translate(-128.324 -361.43)" fill="#4e4e4e"/><path d="M264,401.172a3.8,3.8,0,0,1-2.043-.519,2.44,2.44,0,0,1-.846-2.216v-5.252h-.825a1.113,1.113,0,0,1-1.138-1.138,1.052,1.052,0,0,1,.326-.784,1.124,1.124,0,0,1,.812-.315h.825V388.73a1.211,1.211,0,0,1,1.234-1.234,1.147,1.147,0,0,1,.852.355,1.218,1.218,0,0,1,.344.879v2.217h1.306a1.113,1.113,0,0,1,1.138,1.138,1.052,1.052,0,0,1-.326.784,1.124,1.124,0,0,1-.812.315h-1.306v5.156a.683.683,0,0,0,.191.541.8.8,0,0,0,.538.168,1.605,1.605,0,0,0,.407-.075,1.2,1.2,0,0,1,.459-.1.7.7,0,0,1,.536.281h0a1.089,1.089,0,0,1-.36,1.649A2.429,2.429,0,0,1,264,401.172Z" transform="translate(-227.976 -340.884)" fill="#4e4e4e"/><path d="M633.045,415.575a5.265,5.265,0,0,0-1.82-1.888,4.576,4.576,0,0,0-2.428-.7,4.806,4.806,0,0,0-2.455.672,5,5,0,0,0-1.851,1.938,5.989,5.989,0,0,0-.7,2.935,5.5,5.5,0,0,0,.662,2.695,4.778,4.778,0,0,0,1.88,1.881,6.029,6.029,0,0,0,4.7.37,4.675,4.675,0,0,0,1.461-.76,1.262,1.262,0,0,0,.562-.99.985.985,0,0,0-.306-.716,1.152,1.152,0,0,0-1.421-.125q-.1.058-.357.222a3.16,3.16,0,0,1-.689.3,4.1,4.1,0,0,1-1.213.141,2.911,2.911,0,0,1-1.83-.632,2.835,2.835,0,0,1-1.021-1.673h6.277a1.289,1.289,0,0,0,.847-.3,1.052,1.052,0,0,0,.387-.8A5.1,5.1,0,0,0,633.045,415.575Zm-6.957,1.745.014-.072a2.451,2.451,0,0,1,2.7-2.147,2.568,2.568,0,0,1,1.655.591,2.058,2.058,0,0,1,.811,1.427v.2Z" transform="translate(-548.756 -363.307)" fill="#4e4e4e"/><path d="M728.463,423.595a1.167,1.167,0,0,1-.871-.355,1.215,1.215,0,0,1-.344-.879v-4.927a2.728,2.728,0,0,0-.431-1.629,1.712,1.712,0,0,0-1.472-.582,2.3,2.3,0,0,0-1.709.627,2.175,2.175,0,0,0-.618,1.584v4.927a1.217,1.217,0,0,1-.344.879,1.245,1.245,0,0,1-1.741,0,1.217,1.217,0,0,1-.344-.879v-7.949a1.218,1.218,0,0,1,.344-.879,1.245,1.245,0,0,1,1.741,0,1.218,1.218,0,0,1,.344.879v.153a4.816,4.816,0,0,1,1.266-1.071,3.593,3.593,0,0,1,1.869-.509,3.047,3.047,0,0,1,2.764,1.192h0a6,6,0,0,1,.76,3.256v4.927a1.217,1.217,0,0,1-.344.879A1.168,1.168,0,0,1,728.463,423.595Z" transform="translate(-633.909 -363.307)" fill="#4e4e4e"/><path d="M812,401.172a3.8,3.8,0,0,1-2.043-.519,2.44,2.44,0,0,1-.846-2.216v-5.252h-.825a1.113,1.113,0,0,1-1.138-1.138,1.052,1.052,0,0,1,.326-.784,1.124,1.124,0,0,1,.812-.315h.825V388.73a1.211,1.211,0,0,1,1.234-1.234,1.147,1.147,0,0,1,.852.355,1.219,1.219,0,0,1,.344.879v2.217h1.306a1.112,1.112,0,0,1,1.138,1.138,1.053,1.053,0,0,1-.326.784,1.125,1.125,0,0,1-.812.315h-1.306v5.156a.683.683,0,0,0,.191.541.8.8,0,0,0,.538.168,1.606,1.606,0,0,0,.407-.075,1.2,1.2,0,0,1,.459-.1.7.7,0,0,1,.537.281h0a1.089,1.089,0,0,1-.36,1.649A2.429,2.429,0,0,1,812,401.172Z" transform="translate(-710.056 -340.884)" fill="#4e4e4e"/><path d="M876.452,391.621a1.167,1.167,0,0,1-.871-.355,1.216,1.216,0,0,1-.344-.879v-7.949a1.217,1.217,0,0,1,.344-.879,1.245,1.245,0,0,1,1.741,0,1.218,1.218,0,0,1,.344.879v7.949a1.217,1.217,0,0,1-.344.879h0A1.168,1.168,0,0,1,876.452,391.621Zm1.684-13.328a1.684,1.684,0,1,0-1.684,1.654A1.671,1.671,0,0,0,878.136,378.293Z" transform="translate(-769.542 -331.333)" fill="#4e4e4e"/><path d="M924.62,423.595a1.167,1.167,0,0,1-.871-.355,1.216,1.216,0,0,1-.344-.879v-4.927a2.729,2.729,0,0,0-.431-1.629,1.712,1.712,0,0,0-1.472-.582,2.3,2.3,0,0,0-1.709.627,2.175,2.175,0,0,0-.618,1.584v4.927a1.217,1.217,0,0,1-.344.879,1.245,1.245,0,0,1-1.741,0,1.216,1.216,0,0,1-.344-.879v-7.949a1.218,1.218,0,0,1,.344-.879,1.245,1.245,0,0,1,1.741,0,1.218,1.218,0,0,1,.344.879v.153a4.82,4.82,0,0,1,1.266-1.071,3.594,3.594,0,0,1,1.869-.509,3.047,3.047,0,0,1,2.764,1.192h0a6,6,0,0,1,.76,3.256v4.927a1.217,1.217,0,0,1-.344.879A1.169,1.169,0,0,1,924.62,423.595Z" transform="translate(-806.471 -363.307)" fill="#4e4e4e"/></g></svg>