<svg xmlns="http://www.w3.org/2000/svg" width="65" height="64" viewBox="0 0 65 64">
  <g id="Polígono_2" data-name="Polígono 2" fill="#ffcc3e">
    <path d="M 46.49401092529297 63.01878356933594 L 32.80126953125 52.68109893798828 L 32.5 52.45363998413086 L 32.19873046875 52.68109893798828 L 18.50599098205566 63.01878356933594 L 17.9713306427002 45.75542831420898 L 17.95978927612305 45.38265991210938 L 17.59918975830078 45.28747177124023 L 1.047835946083069 40.91815185546875 L 14.08551979064941 29.72661972045898 L 14.36662006378174 29.48533058166504 L 14.21763038635254 29.14615058898926 L 7.280135631561279 13.35217952728271 L 24.06295967102051 16.66696929931641 L 24.43190956115723 16.73984909057617 L 24.60424995422363 16.40558052062988 L 32.5 1.09110152721405 L 40.3957405090332 16.40558052062988 L 40.56808090209961 16.73984909057617 L 40.93703079223633 16.66696929931641 L 57.71986389160156 13.35216045379639 L 50.78237152099609 29.14613914489746 L 50.63338088989258 29.48531913757324 L 50.91447830200195 29.72661018371582 L 63.95216369628906 40.91815185546875 L 47.40082168579102 45.28747177124023 L 47.04021835327148 45.38265991210938 L 47.02867889404297 45.75542831420898 L 46.49401092529297 63.01878356933594 Z" stroke="none"/>
    <path d="M 32.5 2.182193756103516 L 24.7039794921875 17.30324172973633 L 8.123260498046875 14.02836608886719 L 14.973388671875 29.62342834472656 L 2.095680236816406 40.67763900756836 L 18.44799041748047 44.99441909790039 L 18.97583770751953 62.03755569458008 L 32.5 51.82714080810547 L 46.02416229248047 62.03754806518555 L 46.552001953125 44.99441909790039 L 62.90431976318359 40.67762756347656 L 50.026611328125 29.62342071533203 L 56.87673187255859 14.02835464477539 L 40.2960090637207 17.30324172973633 L 32.5 2.182193756103516 M 32.5 0 L 40.84014892578125 16.17644882202148 L 58.56298065185547 12.67597961425781 L 51.24015045166016 29.34722137451172 L 65 41.15866088867188 L 47.5284309387207 45.77091217041016 L 46.96385955810547 63.9999885559082 L 32.5 53.08013153076172 L 18.03614044189453 64 L 17.47156143188477 45.77091217041016 L 0 41.15866851806641 L 13.75984954833984 29.34722900390625 L 6.43701171875 12.67599105834961 L 24.15983963012695 16.17644882202148 L 32.5 0 Z" stroke="none" fill="#262626"/>
  </g>
</svg>
