<svg id="web_development___online_website_internet_www_keyboard_mouse_wheelbarrow" data-name="web development _ online, website, internet, www, keyboard, mouse, wheelbarrow" xmlns="http://www.w3.org/2000/svg" xmlns:xlink="http://www.w3.org/1999/xlink" width="536" height="314.758" viewBox="0 0 536 314.758">
  <defs>
    <clipPath id="clip-path">
      <rect id="Rectángulo_59" data-name="Rectángulo 59" width="4.426" height="3.616" transform="translate(0 0)" fill="none"/>
    </clipPath>
  </defs>
  <g id="Group" transform="translate(0)">
    <path id="Path" d="M82.017,133.062l82.823-27.744L137.68,0,0,41.75l20.168,69.225" transform="translate(0.88 77.651)" fill="#fff"/>
    <path id="Path-2" data-name="Path" d="M83.131,134.8l8.267-2.769,19.766-6.621,23.977-8.032,20.647-6.916c3.339-1.119,6.712-2.167,10.026-3.359.046-.017.093-.031.14-.047a.9.9,0,0,0,.616-1.087l-2.7-10.467-6.483-25.139L149.543,39.94l-6.784-26.307c-1.1-4.259-2.064-8.581-3.3-12.8-.018-.06-.032-.122-.047-.183A.892.892,0,0,0,138.325.03l-3.687,1.118L124.607,4.19l-14.836,4.5L91.746,14.154l-19.818,6.01-20,6.066L33.343,31.865,17.575,36.646,6.238,40.084C4.45,40.626,2.65,41.136.873,41.711c-.075.024-.152.046-.228.069a.9.9,0,0,0-.616,1.087l2,6.878L6.846,66.265l5.824,19.992,5.038,17.292c.816,2.8,1.537,5.652,2.453,8.421.013.04.024.081.035.122a.883.883,0,0,0,1.7-.47l-2-6.878-4.813-16.52L9.257,68.232,4.219,50.94,2.557,45.235a19.258,19.258,0,0,0-.791-2.716A.863.863,0,0,1,1.73,42.4l-.616,1.087L4.8,42.366l10.032-3.042,14.836-4.5,18.024-5.466,19.818-6.01,20-6.066L106.1,11.649l15.768-4.782L133.2,3.429c1.765-.535,3.65-.943,5.365-1.627.073-.029.152-.046.228-.069l-1.085-.617,2.7,10.467,6.483,25.139,7.844,30.419,6.784,26.307,2.246,8.711a42.089,42.089,0,0,0,1.055,4.092,1.874,1.874,0,0,1,.047.183l.616-1.087-8.267,2.769-19.766,6.622-23.977,8.032-20.647,6.916c-3.339,1.119-6.712,2.167-10.026,3.358-.046.017-.093.031-.14.047-1.071.359-.612,2.066.469,1.7Z" transform="translate(0 76.769)"/>
    <path id="Path-3" data-name="Path" d="M18.286,106.666,0,43.636,136.6,0,164.84,107.2,82.017,134.948" transform="translate(5.451 91.118)" fill="#fff"/>
    <path id="Path-4" data-name="Path" d="M20.015,107.312,18.2,101.048,13.833,86,8.552,67.8,3.985,52.055l-1.5-5.176a17.13,17.13,0,0,0-.721-2.487.754.754,0,0,1-.032-.11l-.616,1.087L4.771,44.2l9.952-3.179,14.653-4.681,17.946-5.733,19.661-6.28,19.846-6.34,18.5-5.911L120.911,7.1l11.252-3.594c1.748-.558,3.637-.983,5.328-1.7.072-.031.153-.049.228-.073l-1.085-.617L139.447,11.8,146.2,37.449,154.37,68.46l7.022,26.661,2.336,8.869a38.191,38.191,0,0,0,1.093,4.152,1.658,1.658,0,0,1,.047.179l.616-1.087L157.218,110l-19.767,6.621-23.977,8.032-20.647,6.916c-3.339,1.118-6.712,2.167-10.026,3.358-.046.017-.093.031-.14.047-1.071.359-.612,2.066.469,1.7l8.267-2.769,19.767-6.621,23.977-8.032,20.647-6.916c3.339-1.118,6.712-2.167,10.026-3.358.046-.017.093-.031.14-.047a.9.9,0,0,0,.616-1.087l-2.814-10.684L157,71.519l-8.168-31.011-7.022-26.661c-1.141-4.331-2.142-8.73-3.429-13.02-.018-.059-.032-.12-.047-.179A.891.891,0,0,0,137.249.03L133.592,1.2,123.64,4.377,108.987,9.058,91.041,14.79,71.38,21.071,51.534,27.41l-18.5,5.911L17.452,38.3,6.2,41.891c-1.775.567-3.563,1.105-5.328,1.7-.075.025-.152.048-.228.073a.9.9,0,0,0-.616,1.087l1.817,6.264L6.21,66.06l5.281,18.2,4.568,15.744c.739,2.547,1.387,5.145,2.223,7.663.012.036.021.073.032.11a.883.883,0,0,0,1.7-.47Z" transform="translate(4.572 90.237)"/>
    <path id="Path-5" data-name="Path" d="M0,1.367,25.426.009a6.138,6.138,0,0,1,5.308,2.544L44.1,21.109H55.342a5.64,5.64,0,0,1,5.632,5.436l1.412,38.2L0,72.287" transform="translate(143.669 105.565)" fill="#ffcc3e"/>
    <path id="Path-6" data-name="Path" d="M.85,3.122l8.91-.476,13.863-.741c.884-.047,1.768-.107,2.653-.142a5.375,5.375,0,0,1,4.55,2.11c.179.235.346.481.519.72l7.429,10.313,3.854,5.35,1.17,1.625a3.1,3.1,0,0,0,.709.861,3.941,3.941,0,0,0,1.753.121h9.567a5.288,5.288,0,0,1,2.811.677,4.8,4.8,0,0,1,2.306,3.877c.033.642.048,1.285.071,1.928l.43,11.626.55,14.866.344,9.316.017.463.882-.883-6.205.75-14.9,1.8L24.1,69.464,8.52,71.348c-2.522.3-5.045.6-7.566.915l-.1.013c-1.113.135-1.126,1.9,0,1.767l6.205-.75,14.9-1.8,18.027-2.179,15.582-1.884c2.522-.3,5.045-.6,7.566-.915l.1-.013a.9.9,0,0,0,.882-.883l-.265-7.167L63.3,43.369l-.484-13.084c-.034-.924-.063-1.848-.1-2.771a6.613,6.613,0,0,0-5.128-6.266,27.831,27.831,0,0,0-5.549-.15H44.95l.762.438-5.457-7.576L32.884,3.726A8.02,8.02,0,0,0,28.2.174,13.481,13.481,0,0,0,24.457.094L11.4.792C7.944.976,4.482,1.1,1.031,1.345l-.182.01c-1.129.06-1.136,1.828,0,1.767Z" transform="translate(142.819 104.693)"/>
    <path id="Path-7" data-name="Path" d="M0,63.838V4.041L56.74,0V60.067L0,63.838Z" transform="translate(93.383 106.472)" fill="#fff"/>
    <path id="Path-8" data-name="Path" d="M1.809,64.721V7.364a17.911,17.911,0,0,0,0-2.336.8.8,0,0,1,0-.1l-.882.883,5.643-.4,13.552-.965L36.516,3.273,50.688,2.264l4.654-.331a16.434,16.434,0,0,0,2.222-.158.751.751,0,0,1,.1-.007L56.784.884V58.491a18.133,18.133,0,0,0,0,2.355.8.8,0,0,1,0,.1l.882-.883-5.643.375-13.552.9-16.395,1.09-14.172.942c-2.29.152-4.589.256-6.876.457l-.1.007C-.2,63.913-.208,65.68.927,65.6L6.57,65.23l13.552-.9,16.395-1.09L50.688,62.3c2.29-.152,4.59-.256,6.876-.457l.1-.007a.9.9,0,0,0,.882-.883V8.3c0-2.429.1-4.882,0-7.309,0-.035,0-.069,0-.1A.89.89,0,0,0,57.666,0L52.023.4l-13.552.965L22.077,2.534,7.905,3.543c-2.29.163-4.589.282-6.876.49l-.1.007a.9.9,0,0,0-.882.883v52.4c0,2.422-.1,4.87,0,7.291,0,.035,0,.07,0,.1a.882.882,0,0,0,1.764,0Z" transform="translate(92.457 105.589)"/>
    <path id="Path-9" data-name="Path" d="M0,48.926V7.656A5.283,5.283,0,0,1,4.9,2.383L38.179.013a5.282,5.282,0,0,1,5.652,5.274V46.013Z" transform="translate(99.837 114.122)" fill="#e2e2e2"/>
    <path id="Path-10" data-name="Path" d="M1.769,49.806V10.435a11.748,11.748,0,0,1,.165-3.1A4.443,4.443,0,0,1,5.8,4.146c.29-.027.582-.041.872-.062l13.523-.963L36.017,1.994c1.014-.072,2.029-.161,3.045-.217a4.486,4.486,0,0,1,4.776,4.641c.009,3.575,0,7.151,0,10.727V46.893l.882-.883-14.812.984L6.3,48.563l-5.414.36C-.24,49-.248,50.765.887,50.689L15.7,49.705,39.3,48.136l5.414-.36a.9.9,0,0,0,.882-.883V7.338a7.57,7.57,0,0,0-1.253-4.889A6.206,6.206,0,0,0,39.066.01c-.268.015-.536.038-.8.057l-13.735.978L8.589,2.18c-1.029.073-2.067.11-3.092.229A6.26,6.26,0,0,0,0,8.749c-.011,3.572,0,7.145,0,10.717v30.34a.882.882,0,0,0,1.764,0Z" transform="translate(98.95 113.243)"/>
    <path id="Path-11" data-name="Path" d="M59.981,18.365a5.321,5.321,0,0,0-3.042.89c-2.517,1.549-3.777,4.481-4.481,7.232l.866.117A59.276,59.276,0,0,0,50.507,10.5C49.437,7.357,48,3.987,45.572,1.641,44.29.4,42.3-.7,40.651.548c-2.054,1.55-2.194,4.96-2.2,7.276-.01,6.408,1.77,12.845,3.7,18.9l.737-.43A37.281,37.281,0,0,0,34.334,20.2a18.318,18.318,0,0,0-7.18-2.207c-1.451-.071-3.262.218-3.974,1.669-.856,1.745.272,3.906,1.2,5.372C26.941,29.1,30.8,32.4,34.483,35.4l.312-.754c-4.49-.056-9.749.587-13.377,3.507a5.422,5.422,0,0,0-2.2,3.583,4.809,4.809,0,0,0,1.732,3.832C23,47.5,25.848,48.51,28.5,49.277v-.852c-2.765.437-5.819,1.483-7.277,4.073a7.3,7.3,0,0,0-.664,4.984,6.339,6.339,0,0,0,.307,1.119l.737-.43a8.005,8.005,0,0,0-5.555-2.565c-2.884-.079-6.514,1.765-7.264,4.758a3.985,3.985,0,0,0-.054,1.906l.648-.5c-2.446-1.09-6.288-1.841-8.223.543A6.278,6.278,0,0,0,.009,66.282a.441.441,0,0,0,.882,0,4.9,4.9,0,0,1,1.328-3.807,4.154,4.154,0,0,1,2.787-.825,10.045,10.045,0,0,1,2.726.463c.311.093.619.2.923.313.163.062.267.106.274.11a.448.448,0,0,0,.648-.5c-.623-2.414,2.093-4.465,4.116-5.167A6.9,6.9,0,0,1,20.975,58.8c.282.317.9-.017.737-.43a6.153,6.153,0,0,1,2.014-7.315,11.86,11.86,0,0,1,5-1.775c.451-.071.387-.74,0-.852A19.149,19.149,0,0,1,22.1,45.4a4.52,4.52,0,0,1-2.011-3.334c.007-3.111,4.147-4.795,6.571-5.515a27.382,27.382,0,0,1,8.14-1.015c.356,0,.617-.505.312-.754a51.736,51.736,0,0,1-9.14-8.983c-1.016-1.374-2.539-3.463-2.144-5.311.288-1.344,1.809-1.626,2.978-1.619a15.779,15.779,0,0,1,6.455,1.787,35.828,35.828,0,0,1,9.012,6.265.444.444,0,0,0,.737-.43A69.668,69.668,0,0,1,39.394,9.719a21.2,21.2,0,0,1,.193-5.091,6.5,6.5,0,0,1,1.129-2.922c1.1-1.361,2.68-.8,3.892.247,2.277,1.977,3.657,5,4.688,7.766A56.654,56.654,0,0,1,52.443,26.6a.443.443,0,0,0,.866.117c.651-2.549,1.791-5.351,4.163-6.757a4.448,4.448,0,0,1,2.51-.717c.565.048.562-.835,0-.883Z" transform="translate(229.668 240.544)"/>
    <path id="Path-12" data-name="Path" d="M14.373,7.347A20.15,20.15,0,0,0,13.231,4.5,9.4,9.4,0,0,0,10.16.529a3.086,3.086,0,0,0-4.1.578C5.02,2.453,5.326,4.433,5.718,5.96A18.478,18.478,0,0,0,7.156,9.751l.5-.649A10.236,10.236,0,0,0,4.1,8.376C2.807,8.345.472,8.663.055,10.19c-.3,1.112.717,2.149,1.472,2.8A13.352,13.352,0,0,0,3.65,14.5v-.763c-1.761,1.15-2.836,3.285-1.532,5.191.319.466,1.084.025.761-.446C1.858,16.986,2.72,15.394,4.1,14.5a.447.447,0,0,0,0-.763,12.862,12.862,0,0,1-1.6-1.083C1.934,12.21.766,11.336.889,10.5c.086-.589.954-.887,1.421-1.028a6.183,6.183,0,0,1,2.343-.181,9.8,9.8,0,0,1,2.765.663c.386.157.655-.342.5-.649A17.848,17.848,0,0,1,6.878,6.772c-.453-1.372-.95-3.1-.443-4.525a2.159,2.159,0,0,1,3.279-.955,8.431,8.431,0,0,1,2.671,3.485,18.636,18.636,0,0,1,1.137,2.8c.166.542,1.018.311.85-.235Z" transform="translate(273.87 281.932)"/>
    <path id="Path-13" data-name="Path" d="M16.155,0l1.14,3.467a11.46,11.46,0,0,1-4.183,12.876L5.546,21.794,0,1.593" transform="translate(418.104 134.896)"/>
    <path id="Path-14" data-name="Path" d="M16.178,1.081c.4,1.222.826,2.439,1.2,3.668a10.634,10.634,0,0,1-.609,7.822c-1.583,3.179-4.8,4.984-7.581,6.988L5.974,21.878l1.3.528L2.4,4.681,1.724,2.2a.883.883,0,0,0-1.7.47L4.889,20.4l.68,2.477a.888.888,0,0,0,1.3.528l7.047-5.077a13.712,13.712,0,0,0,4.1-4.33,12.512,12.512,0,0,0,1.412-8.3A37.023,37.023,0,0,0,17.879.611c-.353-1.075-2.057-.615-1.7.47Z" transform="translate(417.23 134.049)"/>
    <path id="Path-15" data-name="Path" d="M0,17.453,32.907,0l24.06,45.164s-12.366,7.6-22.693-8.476a6.839,6.839,0,0,0-9.038-2.33c-3.972,2.174-7.805,4.3-7.805,4.3" transform="translate(473.095 172.291)" fill="#ffc2d6"/>
    <path id="Path-16" data-name="Path" d="M1.331,19.094l11.145-5.911L30.166,3.8l4.072-2.16-1.207-.317L35.42,5.809l5.739,10.773L48.105,29.62,54.116,40.9l1.992,3.739a15.564,15.564,0,0,0,.94,1.765.723.723,0,0,1,.043.082l.316-1.209a7.612,7.612,0,0,1-.715.374,6.111,6.111,0,0,1-.733.314q-.55.211-1.115.379a13.846,13.846,0,0,1-6.642.37,16.786,16.786,0,0,1-8.717-5.038A26.394,26.394,0,0,1,37.216,39a34.745,34.745,0,0,0-2.166-3.009,7.813,7.813,0,0,0-5.362-2.468C27,33.4,24.763,34.972,22.5,36.215q-2.317,1.274-4.631,2.554c-.994.55-.105,2.076.89,1.526q1.832-1.014,3.667-2.024t3.652-2.006a6.828,6.828,0,0,1,2.844-.966,6.059,6.059,0,0,1,5.191,2.311c.757.979,1.386,2.057,2.15,3.037a27.417,27.417,0,0,0,2.266,2.579,18.358,18.358,0,0,0,8.937,5.141,15.888,15.888,0,0,0,7.332-.172,13.094,13.094,0,0,0,3.5-1.388.9.9,0,0,0,.316-1.209l-2.389-4.485L50.487,30.339,43.541,17.3,37.53,6.018c-.972-1.824-1.86-3.736-2.932-5.5-.016-.026-.029-.055-.043-.082A.9.9,0,0,0,33.348.115L22.2,6.026,4.513,15.409.44,17.569c-1,.532-.113,2.058.89,1.526Z" transform="translate(472.209 171.412)"/>
    <path id="Path-17" data-name="Path" d="M10.284,34.782c4.032-2.317,7.852-1.123,9.8,1.906,10.327,16.073,22.693,8.476,22.693,8.476L18.715,0,5.226,7.207h0A4.206,4.206,0,0,0,.153,9.63L0,10a7.676,7.676,0,0,0,6.264,4.9,5.025,5.025,0,0,1,3.685,2.833h0a5.067,5.067,0,0,1-2.1,6.562l-1.772,1Z" transform="translate(487.287 172.291)" fill="#fff"/>
    <path id="Path-18" data-name="Path" d="M11.59,36.423a6.971,6.971,0,0,1,5.467-.837c1.855.572,2.79,1.986,3.841,3.5A24.567,24.567,0,0,0,28.58,46.54a15.947,15.947,0,0,0,12.876,1.4,12.357,12.357,0,0,0,2.625-1.133A.9.9,0,0,0,44.4,45.6l-2.389-4.485L36.27,30.339,29.324,17.3,23.313,6.018c-.972-1.824-1.86-3.736-2.932-5.5-.016-.026-.029-.055-.043-.082A.9.9,0,0,0,19.131.116L7.306,6.433l-1.665.889.68-.089A5.142,5.142,0,0,0,.572,9.446a4.987,4.987,0,0,0-.526,1.112,2.372,2.372,0,0,0,.446,1.662A7.819,7.819,0,0,0,2.62,14.79a9.11,9.11,0,0,0,2.576,1.4c.868.311,1.822.361,2.669.715A4.234,4.234,0,0,1,10.2,22.069c-.567,1.78-2.205,2.5-3.7,3.34a.909.909,0,0,0-.316,1.209l4.2,9.488c.46,1.037,1.98.139,1.523-.892L7.7,25.726l-.316,1.209a11.155,11.155,0,0,0,3.409-2.374,6,6,0,0,0,.946-6,6.192,6.192,0,0,0-4.786-3.708,6.478,6.478,0,0,1-4.892-3.426c-.1-.185-.266-.822-.335-.349a2.635,2.635,0,0,1,.581-1.04A3.359,3.359,0,0,1,4.924,8.8c.6,0,1.116.291,1.69.007.237-.117.467-.249.7-.374L14.26,4.719,20.02,1.641l-1.207-.317L21.2,5.809l5.739,10.773L33.888,29.62,39.9,40.9l1.992,3.739a15.567,15.567,0,0,0,.94,1.765.722.722,0,0,1,.043.082l.316-1.209c-.17.1-.349.195-.527.283-.2.1-.408.194-.615.284L42,45.867l-.189.075q-.239.093-.481.178a14.235,14.235,0,0,1-5.043.831c-6.5-.109-11.226-4.834-14.634-9.914a7.643,7.643,0,0,0-4.588-3.28A8.958,8.958,0,0,0,10.7,34.9C9.709,35.452,10.6,36.978,11.59,36.423Z" transform="translate(486.426 171.412)"/>
    <path id="Path-19" data-name="Path" d="M9.113,12.608a1.94,1.94,0,0,0,2.653.71l1.591-.922L31.81,47.15A21.622,21.622,0,0,1,24.731,49.9L0,3.97,6.808,0l4.732,8.956-1.718,1A1.947,1.947,0,0,0,9.113,12.608Z" transform="translate(503.314 169.718)" fill="#fff"/>
    <path id="Path-20" data-name="Path" d="M9.228,13.934a2.861,2.861,0,0,0,3.588,1.158,20.235,20.235,0,0,0,1.863-1.052l-1.207-.317,6.243,11.759L29.657,44.2l2.268,4.272.316-1.209a18.178,18.178,0,0,1-6.869,2.663l1,.406-2.458-4.565-5.9-10.964L10.865,21.541,4.688,10.067,2.658,6.3a15.223,15.223,0,0,0-.976-1.813.674.674,0,0,1-.043-.08L1.322,5.612l6.807-3.97L6.923,1.326l4.731,8.956.316-1.209c-.6.346-1.222.664-1.8,1.046a2.886,2.886,0,0,0-.947,3.815c.521,1.011,2.044.118,1.523-.892-.664-1.289,1.271-1.958,2.11-2.444a.9.9,0,0,0,.316-1.209L8.445.434A.893.893,0,0,0,7.239.117L.431,4.086A.9.9,0,0,0,.115,5.3L2.572,9.86l5.9,10.964L15.619,34.09,21.8,45.563c1,1.851,1.908,3.79,3.007,5.584.016.026.029.053.043.08a.912.912,0,0,0,1,.406,19.433,19.433,0,0,0,7.29-2.841.9.9,0,0,0,.316-1.209L27.2,35.825,17.264,17.1,15,12.83a.893.893,0,0,0-1.207-.317c-.829.48-2.268,1.727-3.038.529C10.138,12.089,8.611,12.974,9.228,13.934Z" transform="translate(502.438 168.839)"/>
    <path id="Path-21" data-name="Path" d="M2.561,11.477c-.048-.082-.089-.168-.13-.253-.031-.065-.152-.349-.046-.093-.056-.136-.109-.272-.157-.411a7.81,7.81,0,0,1-.453-2.245A9,9,0,0,1,5.033,1.492C5.868.718,4.618-.529,3.785.243a10.73,10.73,0,0,0-3.78,8.12,8.8,8.8,0,0,0,1.033,4.006.883.883,0,0,0,1.523-.892Z" transform="translate(518.337 192.895)"/>
    <path id="Path-22" data-name="Path" d="M1.31,2.563,0,0" transform="translate(492.591 179.495)" fill="#fff"/>
    <path id="Path-23" data-name="Path" d="M2.946,3,1.8.75,1.636.435A.888.888,0,0,0,.43.119.905.905,0,0,0,.113,1.327L1.263,3.575l.161.315a.888.888,0,0,0,1.207.317A.905.905,0,0,0,2.946,3Z" transform="translate(491.716 178.614)"/>
    <path id="Path-24" data-name="Path" d="M.092,4A3.637,3.637,0,0,1,1.949,0" transform="translate(503.347 202.066)" fill="#fff"/>
    <path id="Path-25" data-name="Path" d="M1.825,4.651c-.01-.033-.017-.066-.025-.1s-.015-.078-.023-.118c-.042-.217.026.263.007.055a3.915,3.915,0,0,1-.019-.4q0-.127.011-.253c0-.045.012-.09.014-.135-.014.315-.02.143-.006.058a3.47,3.47,0,0,1,.165-.611c.028-.075.13-.233-.007.01.022-.039.037-.082.057-.122a3.642,3.642,0,0,1,.184-.33q.053-.084.11-.166l.06-.083q-.128.164-.041.054c.1-.114.192-.225.3-.331s.237-.219.359-.324q.112-.09-.027.019L3.049,1.8c.074-.053.15-.1.227-.155A.883.883,0,1,0,2.386.121,5.265,5.265,0,0,0,.248,2.684,4.064,4.064,0,0,0,.03,4.576a3.313,3.313,0,0,0,.094.545.882.882,0,0,0,1.7-.47Z" transform="translate(502.465 201.182)"/>
    <path id="Path-26" data-name="Path" d="M.092,4A3.637,3.637,0,0,1,1.949,0" transform="translate(506.471 203.997)" fill="#fff"/>
    <path id="Path-27" data-name="Path" d="M1.825,4.649c-.01-.033-.017-.066-.025-.1s-.015-.078-.023-.118c-.041-.217.026.263.007.055a3.915,3.915,0,0,1-.019-.4q0-.127.011-.253c0-.045.012-.09.014-.135-.014.315-.02.143-.006.058a3.465,3.465,0,0,1,.165-.611c.028-.075.129-.233-.007.01.022-.039.037-.082.057-.122a3.615,3.615,0,0,1,.184-.33q.053-.084.11-.166l.06-.083q-.128.164-.041.054c.1-.114.192-.225.3-.331s.237-.219.359-.324q.112-.09-.027.019L3.049,1.8c.074-.053.15-.1.227-.155A.883.883,0,0,0,2.386.118,5.265,5.265,0,0,0,.248,2.681,4.065,4.065,0,0,0,.03,4.573a3.319,3.319,0,0,0,.094.545.882.882,0,1,0,1.7-.47Z" transform="translate(505.588 203.116)"/>
    <path id="Path-28" data-name="Path" d="M.092,4A3.637,3.637,0,0,1,1.949,0" transform="translate(508.509 206.236)" fill="#fff"/>
    <path id="Path-29" data-name="Path" d="M1.825,4.649c-.01-.033-.017-.066-.025-.1s-.015-.078-.023-.118c-.041-.217.026.263.007.055a3.916,3.916,0,0,1-.019-.4q0-.126.011-.253c0-.045.012-.09.014-.135-.014.315-.02.143-.006.058a3.462,3.462,0,0,1,.165-.611c.028-.075.13-.233-.007.01.022-.039.037-.082.057-.122a3.62,3.62,0,0,1,.184-.33q.053-.084.11-.166l.06-.083q-.128.164-.041.054c.1-.114.192-.225.3-.331s.237-.219.359-.324q.112-.09-.027.019L3.049,1.8c.074-.053.15-.1.227-.155A.883.883,0,0,0,2.386.118,5.266,5.266,0,0,0,.248,2.681,4.065,4.065,0,0,0,.03,4.573a3.324,3.324,0,0,0,.094.545.882.882,0,1,0,1.7-.47Z" transform="translate(507.627 205.355)"/>
    <path id="Path-30" data-name="Path" d="M58.83,1.387,49.527,37.5,0,24.872S2.73,10.6,21.545,13.79a6.845,6.845,0,0,0,7.81-5.118C30.428,4.267,31.446,0,31.446,0" transform="translate(302.585 271.592)" fill="#ffc2d6"/>
    <path id="Path-31" data-name="Path" d="M58.858,2.018,55.707,14.249l-5,19.415-1.151,4.469,1.085-.617-4.918-1.254L33.908,33.249,19.61,29.6,7.238,26.448,3.138,25.4A14.8,14.8,0,0,0,1.2,24.909a.689.689,0,0,1-.089-.023l.616,1.087a7.445,7.445,0,0,1,.194-.741c.082-.271.173-.538.272-.8a7.616,7.616,0,0,1,.379-.9,14.143,14.143,0,0,1,3.789-4.974A15.566,15.566,0,0,1,14.794,15.2a26.76,26.76,0,0,1,6.62.189,10.9,10.9,0,0,0,3.56.122,7.523,7.523,0,0,0,2.963-1.214,7.77,7.77,0,0,0,2.473-2.759,19,19,0,0,0,1.315-4.406q.729-3.012,1.449-6.027c.264-1.105-1.437-1.577-1.7-.47q-.6,2.514-1.208,5.026c-.585,2.422-.841,5.163-2.881,6.851a6.037,6.037,0,0,1-2.88,1.3,11.767,11.767,0,0,1-3.4-.23,27.055,27.055,0,0,0-6.564-.118C8.924,14.1,3.862,17.066,1.263,22.2A12.951,12.951,0,0,0,.028,25.5.9.9,0,0,0,.644,26.59l4.918,1.254,11.813,3.013,14.3,3.646,12.372,3.155c2.007.512,4.011,1.1,6.036,1.539.03.006.06.015.089.023a.9.9,0,0,0,1.085-.617l3.151-12.231,5-19.415,1.151-4.469a.883.883,0,0,0-1.7-.47Z" transform="translate(301.707 270.727)"/>
    <path id="Path-32" data-name="Path" d="M29.553,0c-1.008,4.545-4.463,6.567-8.008,5.966C2.73,2.777,0,17.049,0,17.049l49.527,12.63L53.3,14.839h0a4.219,4.219,0,0,0,1.631-5.387l-.169-.362a7.665,7.665,0,0,0-7.836,1.333,5.017,5.017,0,0,1-4.573.818h0a5.064,5.064,0,0,1-3.427-5.974l.457-1.985Z" transform="translate(302.585 279.415)" fill="#fff"/>
    <path id="Path-33" data-name="Path" d="M29.581.667a7.018,7.018,0,0,1-3.072,4.657c-1.634.957-3.272.753-5.06.509a24.485,24.485,0,0,0-10.77.635,15.953,15.953,0,0,0-9.7,8.543,12.369,12.369,0,0,0-.948,2.705A.9.9,0,0,0,.644,18.8l4.918,1.254,11.813,3.013,14.3,3.646L44.045,29.87c2.007.512,4.011,1.1,6.036,1.539.03.006.06.015.089.023a.9.9,0,0,0,1.085-.617l3.309-13.008.466-1.831-.405.528A5.161,5.161,0,0,0,57,11.245a5.6,5.6,0,0,0-.451-1.374,1.4,1.4,0,0,0-.935-.83,7.928,7.928,0,0,0-3.782-.422A8.941,8.941,0,0,0,48.7,9.675a16.21,16.21,0,0,1-2.681,1.613,4.225,4.225,0,0,1-5.127-2.326c-.656-1.51-.126-3.035.221-4.542A.906.906,0,0,0,40.5,3.333L30.666.05c-1.079-.361-1.542,1.345-.469,1.7l9.832,3.283L39.413,3.95c-.2.865-.45,1.735-.564,2.617a5.933,5.933,0,0,0,8.461,6.1c.735-.348,1.338-.91,2.036-1.323a6.716,6.716,0,0,1,6.062-.5l-.527-.406a3.591,3.591,0,0,1,.182,3.006,3.376,3.376,0,0,1-1.021,1.328c-.311.241-.576.362-.72.76-.287.8-.427,1.68-.635,2.5l-2.463,9.683-.669,2.631,1.085-.617-4.918-1.254L33.908,25.462l-14.3-3.646L7.239,18.66l-4.1-1.046A14.8,14.8,0,0,0,1.2,17.121a.689.689,0,0,1-.089-.023l.616,1.087c.038-.2.093-.395.149-.589.062-.217.131-.432.205-.645.084-.241.259-.691.3-.78a15.232,15.232,0,0,1,2.732-4.22C9.43,7.344,16.043,6.736,21.966,7.683a7.875,7.875,0,0,0,5.718-1.011,8.871,8.871,0,0,0,3.6-5.536C31.54.03,29.839-.442,29.581.667Z" transform="translate(301.706 278.514)"/>
    <path id="Path-34" data-name="Path" d="M39.791,6.057,0,155.717l39.519,9.957S67.064,56.226,70.035,39.5,75.007,0,75.007,0" transform="translate(330.674 114.338)" fill="#4dcfd3"/>
    <path id="Path-35" data-name="Path" d="M39.82,6.668l-1.064,4-2.9,10.892L31.576,37.674,26.35,57.33l-5.724,21.53L14.849,100.59,9.462,120.85,4.911,137.967l-3.271,12.3C1.126,152.2.572,154.133.1,156.077c-.021.085-.045.168-.067.252a.9.9,0,0,0,.616,1.087l13.374,3.37,21.292,5.364,4.853,1.223a.9.9,0,0,0,1.085-.617q.533-2.116,1.063-4.233,1.419-5.657,2.834-11.315,2.063-8.253,4.116-16.509,2.436-9.8,4.857-19.6,2.576-10.43,5.128-20.865,2.442-9.991,4.848-19.991,2.076-8.644,4.1-17.3c.966-4.159,1.924-8.32,2.805-12.5,1.337-6.339,2.235-12.767,3.076-19.188q1.511-11.539,2.578-23.132.06-.64.117-1.281c.1-1.132-1.665-1.126-1.764,0-.5,5.7-1.116,11.39-1.784,17.071-.944,8.029-1.923,16.1-3.506,24.035-.742,3.718-1.588,7.417-2.435,11.112q-1.878,8.2-3.845,16.371Q61.1,79.2,58.72,88.96q-2.531,10.389-5.092,20.771-2.472,10.03-4.962,20.055-2.158,8.689-4.327,17.375-1.59,6.367-3.185,12.732c-.508,2.027-1.157,4.069-1.538,6.124-.017.09-.045.18-.067.269l1.085-.617L27.258,162.3,5.967,156.934l-4.853-1.223L1.73,156.8l1.064-4L5.69,141.9l4.283-16.111L15.2,106.137l5.724-21.529L26.7,62.877l5.387-20.26L36.639,25.5,39.91,13.2c.514-1.934,1.068-3.863,1.544-5.808.021-.084.045-.168.067-.252a.883.883,0,0,0-1.7-.47Z" transform="translate(329.795 113.491)"/>
    <path id="Path-36" data-name="Path" d="M12.761,15.4,1.088,64.447a39.914,39.914,0,0,0,16.869,42.583h0A59.3,59.3,0,0,0,68.1,106.3l42.377-20.527L93.228,48.794s-37.447,15.2-52.267,23.453l9.472-35.272a40.484,40.484,0,0,0-1.315-25.036L44.525,0" transform="translate(382.655 130.68)" fill="#4dcfd3"/>
    <path id="Path-37" data-name="Path" d="M12.79,16l-2.138,8.983L6.175,43.793,2.148,60.711l-.957,4.022A42.217,42.217,0,0,0,0,75.051,40.724,40.724,0,0,0,16.65,107.408c.51.376,1.024.764,1.564,1.1a12.452,12.452,0,0,0,1.746.8q2.095.876,4.25,1.594A60.23,60.23,0,0,0,41.7,113.929a61.133,61.133,0,0,0,28.109-6.221l11.383-5.514,17.986-8.712,12.009-5.817.62-.3a.9.9,0,0,0,.316-1.209l-5.845-12.529L97,53.741l-2.13-4.564a.88.88,0,0,0-1-.406c-4.571,1.856-9.123,3.761-13.667,5.682C71.352,58.2,62.524,62.018,53.817,66.1c-4.191,1.962-8.375,3.967-12.421,6.218l1.3,1,2.217-8.254,4.3-16.016,2.867-10.677a41.852,41.852,0,0,0-1.135-25.587C49.457,8.838,47.92,4.92,46.409.993l-.153-.4c-.4-1.05-2.11-.594-1.7.47L49,12.605a40.394,40.394,0,0,1,1.451,25.026q-1.238,4.633-2.488,9.264L43.676,62.842c-.88,3.277-1.863,6.545-2.644,9.847-.012.051-.027.1-.041.153a.893.893,0,0,0,1.3,1c7.749-4.31,15.92-7.9,24.023-11.479q11.557-5.1,23.24-9.916,2.394-.991,4.794-1.969l-1-.406L99.192,62.6l9.278,19.886,2.13,4.564.316-1.209-8.534,4.134-17.42,8.438-14.249,6.9c-.984.476-1.964.962-2.954,1.424a58.351,58.351,0,0,1-34.236,4.652,59.363,59.363,0,0,1-8.495-2.084q-2.158-.7-4.258-1.567a11.02,11.02,0,0,1-1.666-.76c-.568-.355-1.111-.76-1.649-1.159a39.026,39.026,0,0,1-14.8-39.581c.215-.984.46-1.961.693-2.94L6.873,48.471l4.571-19.207,2.9-12.2.142-.6c.263-1.105-1.437-1.577-1.7-.47Z" transform="translate(381.775 129.851)"/>
    <path id="Path-38" data-name="Path" d="M40.773,13.574a1.942,1.942,0,0,0-2.311,1.485l-.393,1.8L0,7.093A21.7,21.7,0,0,1,2.741,0L53.286,12.652l-1.66,7.713-9.795-2.533.424-1.942A1.945,1.945,0,0,0,40.773,13.574Z" transform="translate(299.606 293.512)" fill="#fff"/>
    <path id="Path-39" data-name="Path" d="M41.887,13.6a2.885,2.885,0,0,0-3.344,1.91c-.207.641-.3,1.333-.445,1.991l1.085-.617-12.88-3.3L5.793,8.32l-4.68-1.2.616,1.087A18.224,18.224,0,0,1,4.381,1.324l-1,.406L8.409,2.988l12.065,3.02,14.6,3.654L47.7,12.822l4.15,1.039a14.486,14.486,0,0,0,2,.5.644.644,0,0,1,.088.022L53.314,13.3l-1.66,7.713,1.085-.617-9.795-2.533.616,1.087c.141-.646.3-1.291.424-1.942a2.886,2.886,0,0,0-2.1-3.4.884.884,0,0,0-.469,1.7c1.442.393.661,2.17.443,3.171a.9.9,0,0,0,.616,1.087L52.271,22.1a.892.892,0,0,0,1.085-.617l1.66-7.713a.9.9,0,0,0-.616-1.087l-5.023-1.257L37.311,8.4l-14.6-3.654L10.087,1.587C8.044,1.075,6,.483,3.942.049,3.913.043,3.883.034,3.854.027a.913.913,0,0,0-1,.406,19.459,19.459,0,0,0-2.83,7.3A.9.9,0,0,0,.644,8.824l12.88,3.3,20.509,5.261,4.68,1.2a.892.892,0,0,0,1.085-.617c.195-.894.262-2.893,1.619-2.667C42.528,15.489,43.006,13.787,41.887,13.6Z" transform="translate(298.727 292.633)"/>
    <path id="Path-40" data-name="Path" d="M.633,1.727a4.773,4.773,0,0,1,.6.183c.1.035.195.076.293.113.19.071-.154-.07-.014-.006.07.032.141.063.21.1a8.737,8.737,0,0,1,.808.433q.215.13.423.273c.068.047.135.1.2.143.2.139-.011-.019.142.107a9.109,9.109,0,0,1,.9.838A7.861,7.861,0,0,1,5.624,6.121a10.727,10.727,0,0,1,.758,4.136.882.882,0,0,0,1.764,0A11.26,11.26,0,0,0,5.781,3.042,9.455,9.455,0,0,0,1.932.293,5.437,5.437,0,0,0,1.1.023C0-.217-.477,1.486.633,1.727Z" transform="translate(316.099 296.298)"/>
    <path id="Path-41" data-name="Path" d="M40.616,10.1,27.277,6.7,6,1.28,1.1.031a.884.884,0,0,0-.469,1.7l13.339,3.4,21.276,5.42,4.9,1.249a.884.884,0,0,0,.469-1.7Z" transform="translate(332.324 258.993)"/>
    <path id="Path-42" data-name="Path" d="M40.375,21.737,35.206,65.863c-4.357-1.782-19.332-10.811-25.52-11.955A95.876,95.876,0,0,0,0,52.61L5.373,15.179A15.888,15.888,0,0,1,17.608,1.929L26.186,0" transform="translate(342.35 59.938)" fill="#5f5fff"/>
    <path id="Path-43" data-name="Path" d="M40.37,22.614,38.622,37.532,35.838,61.3,35.2,66.74l1.116-.852c-.226-.093.142.1-.083-.035a2.578,2.578,0,0,0-.239-.106q-.217-.1-.432-.2c-.366-.171-.728-.349-1.089-.53-.895-.447-1.781-.91-2.666-1.376-2.21-1.164-4.41-2.348-6.625-3.5-2.337-1.219-4.689-2.417-7.084-3.518a42.789,42.789,0,0,0-6.066-2.391,37.257,37.257,0,0,0-4.755-.884c-2.126-.316-4.26-.568-6.4-.743l.85,1.118L2.8,46.261,4.99,30.994,6.808,18.325c.1-.711.2-1.424.307-2.134a15.294,15.294,0,0,1,5.431-9.564A17.133,17.133,0,0,1,19.908,3.39l6.839-1.538.55-.124c1.107-.249.639-1.953-.469-1.7L21,1.336a26.53,26.53,0,0,0-7.024,2.23,16.872,16.872,0,0,0-7.49,8.345,19.758,19.758,0,0,0-1.217,4.846L3.626,28.173,1.369,43.9C.928,46.968.48,50.038.047,53.11l-.02.142a.9.9,0,0,0,.85,1.118q2.843.232,5.667.64a43.608,43.608,0,0,1,4.625.815,35.41,35.41,0,0,1,5.732,2.18c4.637,2.111,9.108,4.569,13.611,6.948,1.752.925,3.5,1.881,5.336,2.638.589.243,1.058-.354,1.116-.852l1.748-14.918L41.5,28.054l.637-5.441c.132-1.127-1.633-1.118-1.764,0Z" transform="translate(341.474 59.061)"/>
    <path id="Path-44" data-name="Path" d="M77.039,1.3A95.874,95.874,0,0,0,67.353,0l-2.1,13.464-.6,3.831L0,17.008.245,37.777l60.188,8c20.183.007,26.751-3.757,30.754-15.706l2.851-8.911L97.888,7.995C90.506,3.648,83.227,2.441,77.039,1.3Z" transform="translate(274.997 112.548)" fill="#ffc2d6"/>
    <path id="Path-45" data-name="Path" d="M78.155,1.329C74.872.727,71.562.272,68.235,0a.881.881,0,0,0-.85.649L65.279,14.116l-.6,3.828.85-.649-6.456-.029L43.648,17.2,25,17.115l-16.18-.072c-2.6-.012-5.225-.131-7.824-.035-.036,0-.073,0-.109,0A.894.894,0,0,0,0,17.891L.215,36.072l.031,2.589a.911.911,0,0,0,.882.883l4.813.64,11.918,1.584,15.174,2.017,14.8,1.968L58.417,47.16l2.524.336c.124.016.249.041.373.05a49.923,49.923,0,0,0,5.848-.124c5.808-.273,12.172-.883,17.225-4.041,4.21-2.631,6.671-6.9,8.292-11.485,1.13-3.2,2.14-6.457,3.118-9.7,1.191-3.946,2.313-7.914,3.47-11.87l.354-1.21a.9.9,0,0,0-.405-1A47.188,47.188,0,0,0,88.247,3.509c-3.316-.939-6.706-1.555-10.092-2.18-1.11-.2-1.586,1.5-.469,1.7,3.308.61,6.619,1.211,9.862,2.115A45.47,45.47,0,0,1,98.324,9.641l-.405-1L94.635,19.877c-.936,3.2-1.985,6.372-3,9.55-1.256,3.925-2.824,7.861-5.905,10.724-3.838,3.565-9.3,4.679-14.342,5.2-1.864.191-3.736.3-5.608.362a38.812,38.812,0,0,1-4.49.065c-.54-.046-1.081-.144-1.618-.215l-9.208-1.224-14.04-1.866L21.09,40.431,8.2,38.718l-6.769-.9-.3-.041.882.883L1.794,20.48l-.031-2.589-.882.883,6.456.029,15.427.068,18.653.083,16.18.072c2.6.011,5.225.131,7.824.035.036,0,.073,0,.109,0a.889.889,0,0,0,.85-.649l2.29-14.649.414-2.645-.85.649c3.171.259,6.322.692,9.451,1.266C78.8,3.237,79.272,1.534,78.155,1.329Z" transform="translate(274.115 111.665)"/>
    <path id="Path-46" data-name="Path" d="M5.737,7.029,33.59.345c4.535-1.088,7.354.222,10.9,6.422,0,0,22.734,55.927,30.077,77.567-8.6-5.738-70.084,9.848-70.084,9.848L0,24.438" transform="translate(360.684 53.416)" fill="#5f5fff"/>
    <path id="Path-47" data-name="Path" d="M6.856,8.744l6.98-1.675L27.059,3.9c2.541-.61,5.079-1.23,7.623-1.829a6.781,6.781,0,0,1,5.947.891A14.9,14.9,0,0,1,44.575,8c.789,1.589,1.353,3.339,2.016,4.982q2.166,5.365,4.316,10.736,2.87,7.168,5.713,14.348,3.158,7.978,6.27,15.974,3.036,7.809,6,15.647c1.642,4.361,3.264,8.731,4.806,13.129q.458,1.3.9,2.614l1.3-1a9.706,9.706,0,0,0-4.244-1.212,39.706,39.706,0,0,0-6.3-.112,152.06,152.06,0,0,0-17.319,2.026c-6.415,1.039-12.8,2.277-19.157,3.611q-8.034,1.685-16.023,3.574-2.58.608-5.154,1.237a18.886,18.886,0,0,0-2.454.608.879.879,0,0,1-.108.027l1.116.852L5.8,88.1,4.729,71.435,3.439,51.342,2.315,33.856c-.18-2.809-.3-5.63-.542-8.435,0-.04-.005-.08-.008-.12C1.694,24.171-.071,24.163,0,25.3l.446,6.942L1.519,48.911,2.809,69,3.932,86.491c.18,2.81.3,5.63.542,8.435,0,.04.005.08.008.12A.895.895,0,0,0,5.6,95.9c2.036-.516,4.078-1.007,6.121-1.494q7.486-1.783,15.011-3.4c6.291-1.348,12.6-2.607,18.944-3.694,5.8-.994,11.64-1.883,17.513-2.305a55.808,55.808,0,0,1,6.835-.146,20.323,20.323,0,0,1,2.466.253c.351.062.7.136,1.043.229.155.042.31.088.463.139.1.032.561.219.311.108a4.749,4.749,0,0,1,.7.372.891.891,0,0,0,1.3-1c-1.416-4.171-2.933-8.307-4.47-12.434q-2.864-7.693-5.837-15.345-3.155-8.161-6.371-16.3-2.974-7.537-5.982-15.061-2.331-5.833-4.68-11.659Q47.7,11.034,46.426,7.9a16.391,16.391,0,0,0-2-3.395C42.786,2.238,40.7.3,37.8.015a12.791,12.791,0,0,0-4.218.5l-3.9.936L16.665,4.574,6.914,6.914l-.527.127c-1.1.265-.636,1.969.469,1.7Z" transform="translate(359.8 52.553)"/>
    <path id="Path-48" data-name="Path" d="M3.564.638,1.493,11.863l-1.071,5.8a20.533,20.533,0,0,0,.272,9.44,56.3,56.3,0,0,0,2.959,7.155c.458,1.038,1.978.14,1.523-.892-.756-1.713-1.585-3.41-2.256-5.159a18.115,18.115,0,0,1-.834-9.869L4.454,5.506l.811-4.4C5.47,0,3.77-.48,3.564.638Z" transform="translate(383.69 141.929)"/>
    <path id="Path-49" data-name="Path" d="M5.354,24.907,0,59.341a95.857,95.857,0,0,1,9.686,1.3c6.188,1.144,21.164,10.173,25.52,11.955l4.386-44.431A25.611,25.611,0,0,0,8.157.706l-3.527.846" transform="translate(387.516 52.665)" fill="#5f5fff"/>
    <path id="Path-50" data-name="Path" d="M5.381,25.567,3.574,37.183.692,55.719.026,60a.9.9,0,0,0,.85,1.118q2.843.232,5.667.64a43.59,43.59,0,0,1,4.625.815,35.412,35.412,0,0,1,5.732,2.18c4.637,2.111,9.108,4.57,13.611,6.948,1.752.925,3.5,1.881,5.336,2.638.582.24,1.067-.351,1.116-.852l1.068-10.82L40.072,42.01l1.262-12.788A26.563,26.563,0,0,0,19.569.391,26.115,26.115,0,0,0,12.347.142a42.639,42.639,0,0,0-5.38,1.045l-1.7.407c-1.1.265-.636,1.969.469,1.7C9.2,2.468,12.576,1.629,16.174,1.787a24.779,24.779,0,0,1,23.41,27.3c-.361,3.762-.742,7.523-1.114,11.284l-2,20.294-.82,8.311c-.14,1.421-.4,2.888-.426,4.318,0,.065-.013.131-.019.2l1.116-.852c-.226-.093.142.1-.083-.035A2.6,2.6,0,0,0,36,72.495c-.145-.065-.288-.131-.432-.2-.365-.171-.728-.349-1.089-.53-.895-.447-1.781-.91-2.666-1.376-2.21-1.164-4.41-2.348-6.625-3.5-2.337-1.219-4.689-2.417-7.084-3.518a42.791,42.791,0,0,0-6.066-2.391,37.255,37.255,0,0,0-4.755-.884c-2.126-.316-4.26-.568-6.4-.743l.85,1.118L3.534,48.854,6.416,30.318l.666-4.282c.173-1.112-1.526-1.592-1.7-.47Z" transform="translate(386.639 51.771)"/>
    <path id="Path-51" data-name="Path" d="M12.55,7.554C12.973,5.258,9.31,2.469,3.273,0L0,11.309C7.17,11.3,12.1,9.987,12.55,7.554Z" transform="translate(410.067 117.845)"/>
    <path id="Path-52" data-name="Path" d="M14.28,8.671C14.58,6.817,13.3,5.3,11.957,4.2A29.4,29.4,0,0,0,4.387.03.89.89,0,0,0,3.3.647L.434,10.557l-.4,1.4a.892.892,0,0,0,.85,1.118,32.083,32.083,0,0,0,9.244-1.065c1.654-.508,3.767-1.438,4.157-3.339.228-1.11-1.472-1.584-1.7-.47a1.86,1.86,0,0,1-.888,1.189,8.257,8.257,0,0,1-2.469,1.041,32.064,32.064,0,0,1-8.342.877l.85,1.118L4.6,2.516l.4-1.4-1.085.617a28.1,28.1,0,0,1,6.6,3.559,7.43,7.43,0,0,1,1.606,1.6,2.607,2.607,0,0,1,.387.76c.018.064.072.382.062.259.007.081-.016.417,0,.29A.912.912,0,0,0,13.2,9.288a.888.888,0,0,0,1.085-.617Z" transform="translate(409.188 116.963)"/>
    <path id="Path-53" data-name="Path" d="M77.039,1.3A95.854,95.854,0,0,0,67.353,0l-2.1,13.464-.6,3.831L0,17.008.245,37.777l60.188,8c20.183.007,26.751-3.757,30.754-15.706l2.851-8.911L97.888,7.995C90.506,3.648,83.227,2.441,77.039,1.3Z" transform="translate(320.163 112.006)" fill="#ffc2d6"/>
    <path id="Path-54" data-name="Path" d="M78.155,1.329C74.872.727,71.562.272,68.235,0a.881.881,0,0,0-.85.649L65.279,14.116l-.6,3.828.85-.649-6.456-.029L43.648,17.2,25,17.115l-16.18-.072c-2.6-.011-5.225-.131-7.824-.035-.036,0-.073,0-.109,0A.894.894,0,0,0,0,17.891L.215,36.072l.031,2.589a.911.911,0,0,0,.882.883l4.813.64,11.918,1.584,15.174,2.017,14.8,1.968L58.417,47.16l2.524.336c.124.016.249.041.373.05a49.922,49.922,0,0,0,5.848-.124c5.808-.273,12.172-.883,17.225-4.041,4.21-2.631,6.671-6.9,8.292-11.485,1.13-3.2,2.14-6.457,3.118-9.7,1.191-3.946,2.313-7.914,3.47-11.87l.354-1.21a.9.9,0,0,0-.405-1A47.189,47.189,0,0,0,88.247,3.509c-3.316-.939-6.706-1.555-10.092-2.18-1.11-.2-1.585,1.5-.469,1.7,3.308.61,6.619,1.211,9.863,2.115A45.472,45.472,0,0,1,98.325,9.641l-.405-1L94.635,19.877c-.936,3.2-1.985,6.372-3,9.55-1.256,3.925-2.824,7.861-5.905,10.724-3.838,3.565-9.3,4.679-14.342,5.2-1.864.191-3.736.3-5.608.362a38.826,38.826,0,0,1-4.49.065c-.54-.046-1.081-.144-1.618-.215l-9.208-1.224-14.04-1.866L21.09,40.431,8.2,38.717l-6.769-.9-.3-.041.882.883L1.794,20.48l-.031-2.589-.882.883,6.456.029,15.427.068,18.653.083,16.18.072c2.6.011,5.225.131,7.824.035.036,0,.073,0,.109,0a.889.889,0,0,0,.85-.649l2.29-14.649.413-2.645-.85.649c3.171.259,6.322.692,9.451,1.266C78.8,3.237,79.272,1.534,78.155,1.329Z" transform="translate(319.281 111.123)"/>
    <path id="Path-55" data-name="Path" d="M.852,1.767A.884.884,0,0,0,.852,0a.884.884,0,0,0,0,1.767Z" transform="translate(287.339 151.164)"/>
    <path id="Path-56" data-name="Path" d="M51.334.854,18.19,0A13.79,13.79,0,0,0,5.8,7.327L0,28.011s-.094,8.953,9.486,3.9c0,0,2.521,5.3,9.328,1.01,2.521,2.778,8.823,2.273,10.084,0,3.025,2.273,6.483,1.02,8.157-3.531l1.062-1.779a8.663,8.663,0,0,1,8.58-4.152h0" transform="translate(243.241 128.817)" fill="#ffc2d6"/>
    <path id="Path-57" data-name="Path" d="M52.214.834,38.231.474,20.08.008a15.688,15.688,0,0,0-9.2,2.331A14.686,14.686,0,0,0,7.807,5.008,10.256,10.256,0,0,0,5.826,7.964c-.212.589-.343,1.222-.512,1.824L.285,27.729A4.905,4.905,0,0,0,0,29a7.886,7.886,0,0,0,.39,2.338A5.691,5.691,0,0,0,2.517,34.4a5.936,5.936,0,0,0,4.77.55,15.789,15.789,0,0,0,3.524-1.41L9.6,33.223A5.774,5.774,0,0,0,12.129,35.7c2.664,1.344,5.632.319,8.01-1.155l-1.068-.138a8.109,8.109,0,0,0,6.221,2.149c1.863-.072,4.222-.59,5.248-2.328l-1.207.317a5.72,5.72,0,0,0,4.242,1.158,5.924,5.924,0,0,0,3.714-2.4A35.577,35.577,0,0,0,39.3,29.7a9.5,9.5,0,0,1,2.673-3.156,7.975,7.975,0,0,1,5.607-1.333c.476.063.877-.451.882-.883a.9.9,0,0,0-.882-.883,9.6,9.6,0,0,0-9.057,4.145,20.035,20.035,0,0,0-1.346,2.224c-.741,1.473-1.295,2.973-2.833,3.805a3.79,3.79,0,0,1-4.118-.591.89.89,0,0,0-1.207.317c-.7,1.181-2.642,1.43-3.891,1.458a6.332,6.332,0,0,1-4.808-1.637.892.892,0,0,0-1.069-.138c-1.852,1.148-4.331,2.224-6.42,1.053a3.886,3.886,0,0,1-1.7-1.746.9.9,0,0,0-1.207-.317C8.305,32.855,6.2,33.8,4.377,33.323a3.137,3.137,0,0,1-2.123-1.991c.066.149-.044-.112-.062-.163-.044-.123-.086-.246-.124-.371-.071-.232-.129-.468-.177-.706-.02-.1-.1-.667-.07-.383-.019-.159-.036-.319-.046-.479a1.454,1.454,0,0,0-.012-.272c-.042-.151.07-.066-.029.141a3.3,3.3,0,0,0,.147-.525l4.833-17.24.734-2.619a2.746,2.746,0,0,1,.407-.8,12.989,12.989,0,0,1,2.489-2.957,13.345,13.345,0,0,1,9.379-3.188l16.692.429c5.171.133,10.351.368,15.524.4.092,0,.184,0,.276.007a.884.884,0,0,0,0-1.767Z" transform="translate(242.361 127.953)"/>
    <rect id="Rectangle" width="46.389" height="11.623" rx="5.812" transform="translate(241.918 139.215) rotate(5.494)" fill="#fff" stroke="#000" stroke-miterlimit="10" stroke-width="2.614"/>
    <path id="Path-58" data-name="Path" d="M29.192,16.147l5.035-9.6c.778-1.767-.75-5.3-4.942-2.278.256-3.03-2.6-2.781-5.982-1.522,0-3.031-3.9-2.277-6.5-.26A3.077,3.077,0,0,0,13.792,0a3.51,3.51,0,0,0-3.186,1.739L5.067,11.421a3.266,3.266,0,0,1-5.067.7H0" transform="translate(252.023 140.29)" fill="#ffc2d6"/>
    <path id="Path-59" data-name="Path" d="M30.845,17.476l3.412-6.5c1.024-1.952,2.793-4.229,1.4-6.46-1.4-2.248-4.165-1.361-5.93-.122l1.327.763A2.81,2.81,0,0,0,28.981,1.97c-1.655-.376-3.483.247-5.021.812l1.116.852A2.8,2.8,0,0,0,22.206.725,8.24,8.24,0,0,0,17.25,2.611l1.3.528A4,4,0,0,0,14.689,0a4.7,4.7,0,0,0-4.26,2.713L5.577,11.2a4.976,4.976,0,0,1-.785,1.183,2.414,2.414,0,0,1-3.276,0c-.82-.787-2.069.461-1.247,1.249a4.192,4.192,0,0,0,6.358-.719c.566-.865,1.038-1.8,1.552-2.7l2.687-4.7a21.508,21.508,0,0,1,1.6-2.753,2.676,2.676,0,0,1,1.805-.978,3.879,3.879,0,0,1,.49-.006c.04,0,.08.005.12.008.228.017-.134-.032.086.012a2.224,2.224,0,0,1,1.878,1.817.886.886,0,0,0,1.3.528c.928-.706,5.106-3.106,5.173-.5a.89.89,0,0,0,1.116.852A9.686,9.686,0,0,1,28.2,3.637c.963.058,1.156.622,1.1,1.518a.887.887,0,0,0,1.327.763c.972-.683,3-1.855,3.674-.222a2,2,0,0,1,.044,1.317c-.061.225.08-.148-.035.075-.063.123-.129.245-.193.368L30.5,14.332l-1.182,2.253c-.528,1.006.994,1.9,1.523.892Z" transform="translate(251.131 139.407)"/>
    <path id="Path-60" data-name="Path" d="M0,0,2.773.758" transform="translate(353.063 293.557)" fill="#fff"/>
    <path id="Path-61" data-name="Path" d="M.654,1.737,3.08,2.4l.347.095A.884.884,0,1,0,3.9.791L1.469.128,1.122.033a.884.884,0,1,0-.469,1.7Z" transform="translate(352.175 292.671)"/>
    <path id="Path-62" data-name="Path" d="M0,0A3.636,3.636,0,0,1,1.7,4.072" transform="translate(328.924 284.435)" fill="#fff"/>
    <path id="Path-63" data-name="Path" d="M.438,1.647a1.781,1.781,0,0,1,.2.115q.051.033.1.068l.051.037C.9,1.949.713,1.8.69,1.79c.084.025.2.165.259.225a4.009,4.009,0,0,1,.276.3c.015.017.027.036.042.053s-.134-.183-.085-.11c.02.03.042.057.063.086q.069.1.131.2t.123.223c.018.036.035.073.053.11.08.165-.074-.2-.006-.018a4.064,4.064,0,0,1,.17.565q.018.084.033.168c0,.025.007.05.012.074.022.109-.018-.2-.011-.083.008.134.024.267.027.4s0,.27-.009.4c-.005.082-.013.163-.021.245,0,.024-.017.132,0,.009.021-.146-.011.066-.013.076A.906.906,0,0,0,2.35,5.807.892.892,0,0,0,3.434,5.19a5.3,5.3,0,0,0-.422-3.332A4.365,4.365,0,0,0,1.618.3,2.05,2.05,0,0,0,1.327.121a.883.883,0,0,0-.89,1.526Z" transform="translate(328.041 283.551)"/>
    <path id="Path-64" data-name="Path" d="M0,0A3.636,3.636,0,0,1,1.7,4.071" transform="translate(325.395 285.445)" fill="#fff"/>
    <path id="Path-65" data-name="Path" d="M.433,1.644a1.781,1.781,0,0,1,.2.115q.051.033.1.068l.051.037c.117.083-.074-.07-.1-.076.084.025.2.165.259.225a4,4,0,0,1,.276.3c.015.017.027.036.042.053s-.134-.183-.085-.11c.02.03.042.057.063.086q.069.1.131.2t.123.223c.018.036.035.073.053.11.08.165-.074-.2-.006-.017a4.061,4.061,0,0,1,.17.565q.018.083.033.168c0,.025.007.05.012.074.022.11-.018-.2-.011-.083.008.134.024.267.027.4s0,.27-.009.4c-.005.082-.013.163-.021.245,0,.024-.017.132,0,.009.021-.146-.011.066-.013.076A.906.906,0,0,0,2.345,5.8.892.892,0,0,0,3.43,5.187a5.305,5.305,0,0,0-.422-3.332A4.365,4.365,0,0,0,1.613.3,2.05,2.05,0,0,0,1.323.118a.883.883,0,0,0-.89,1.526Z" transform="translate(324.517 284.564)"/>
    <path id="Path-66" data-name="Path" d="M0,0A3.636,3.636,0,0,1,1.7,4.071" transform="translate(322.37 285.445)" fill="#fff"/>
    <path id="Path-67" data-name="Path" d="M.437,1.646a1.781,1.781,0,0,1,.2.115q.051.033.1.068l.051.037C.9,1.949.713,1.8.689,1.79c.084.025.2.165.259.225a4.011,4.011,0,0,1,.276.3c.014.017.027.036.042.053s-.134-.183-.085-.11c.02.03.042.057.063.086q.069.1.131.2t.123.223c.018.036.035.073.053.11.08.165-.074-.2-.006-.017a4.061,4.061,0,0,1,.17.565q.018.083.033.168c0,.025.007.05.012.074.022.11-.018-.2-.011-.083.008.134.024.267.027.4s0,.27-.009.4c-.005.082-.013.163-.021.245,0,.024-.017.132,0,.009.021-.146-.011.066-.013.076a.906.906,0,0,0,.616,1.087A.892.892,0,0,0,3.434,5.19a5.3,5.3,0,0,0-.422-3.332A4.365,4.365,0,0,0,1.618.3,2.048,2.048,0,0,0,1.327.121a.883.883,0,0,0-.89,1.526Z" transform="translate(321.487 284.561)"/>
    <path id="Path-68" data-name="Path" d="M6.161.615.792,19.9.023,22.661a.883.883,0,0,0,1.7.47L7.093,3.846l.769-2.761a.883.883,0,0,0-1.7-.47Z" transform="translate(419.752 190.359)"/>
    <path id="Path-69" data-name="Path" d="M9.453,0,.87,9a3.148,3.148,0,0,0,.193,4.53h0a3.135,3.135,0,0,0,3.855.233L15,6.818a16.035,16.035,0,0,0,18.4,2.02" transform="translate(256.635 134.216)" fill="#ffc2d6"/>
    <path id="Path-70" data-name="Path" d="M9.693.269C6.855,3.244,3.986,6.192,1.178,9.2a4.108,4.108,0,0,0-.845,4.5,4.047,4.047,0,0,0,5.335,2.029A12.217,12.217,0,0,0,7.45,14.575l3.183-2.192,5.675-3.908L15.24,8.337a16.627,16.627,0,0,0,12.609,4.249A18.677,18.677,0,0,0,34.712,10.5c1.009-.522.118-2.047-.89-1.526A15.472,15.472,0,0,1,23.547,10.59a16.064,16.064,0,0,1-6.163-2.765,6.691,6.691,0,0,1-.631-.5c-.09-.078-.181-.156-.267-.239a.894.894,0,0,0-1.068-.138L5.635,13.687A2.426,2.426,0,0,1,2.55,13.8a2.3,2.3,0,0,1-.1-3.374c1.4-1.5,2.834-2.971,4.251-4.456l4.244-4.448C11.725.7,10.48-.554,9.694.27Z" transform="translate(255.771 133.321)"/>
    <path id="Path-71" data-name="Path" d="M30.868,0A15.872,15.872,0,1,1,0,7.407Z" transform="translate(362.007 53.927)" fill="#ffc2d6"/>
    <path id="Path-72" data-name="Path" d="M30.9,1.115A14.99,14.99,0,1,1,1.73,8.052L1.114,9.139l10.4-2.494,16.655-4,3.817-.916c1.1-.265.636-1.969-.469-1.7l-10.4,2.494-16.655,4L.645,7.435A.9.9,0,0,0,.029,8.521,16.754,16.754,0,1,0,32.6.645C32.34-.462,30.639.007,30.9,1.115Z" transform="translate(361.127 53.047)"/>
    <path id="Path-73" data-name="Path" d="M19.468,19.667,15.573,0,0,9.417,1.774,22.469" transform="translate(366.701 39.327)" fill="#ffc2d6"/>
    <path id="Path-74" data-name="Path" d="M21.194,20.313,17.78,3.075,17.3.645A.888.888,0,0,0,16,.117L2.369,8.363.431,9.535a.925.925,0,0,0-.405,1L1.58,21.968,1.8,23.584a.888.888,0,0,0,1.085.617A.906.906,0,0,0,3.5,23.114L1.946,11.678l-.219-1.615-.405,1L14.957,2.815l1.938-1.172-1.3-.528,3.414,17.238.481,2.429c.221,1.114,1.921.643,1.7-.47Z" transform="translate(365.825 38.447)"/>
    <path id="Path-75" data-name="Path" d="M34.569,31.068c8.306-9.163,4.024-16.16,3.585-21.709C37.9,6.137,32.513,0,32.513,0L.631,6.854S-6.04,45.078,23.987,34.33" transform="translate(349.056 15.048)" fill="#ffc2d6"/>
    <path id="Path-76" data-name="Path" d="M36.077,32.576a20.312,20.312,0,0,0,4.862-8.5,18.474,18.474,0,0,0,.164-7.4c-.321-2.024-.924-4.008-1.146-6.047a13.384,13.384,0,0,0-2.6-6.04A44.687,44.687,0,0,0,34.021.258a.887.887,0,0,0-.858-.227l-10.8,2.322L5.226,6.037l-3.945.848A.859.859,0,0,0,.665,7.5C.435,8.824.3,10.168.19,11.5a51.363,51.363,0,0,0-.01,8.7,28.405,28.405,0,0,0,2.485,9.925A13.623,13.623,0,0,0,9.749,37c4.178,1.683,8.97,1.022,13.169-.22.736-.218,1.465-.46,2.188-.717,1.062-.378.6-2.086-.469-1.7-4.181,1.487-8.959,2.618-13.312,1.324a11.432,11.432,0,0,1-6.769-5.73,24.9,24.9,0,0,1-2.531-8.931A49.585,49.585,0,0,1,1.9,12.273c.074-1.093.182-2.182.317-3.268.005-.042.011-.083.016-.124.029-.224-.026.187-.006.04l.034-.244q.027-.192.057-.385c.016-.107.033-.214.051-.32l-.616.617,10.8-2.322L29.687,2.583l3.945-.848-.858-.227c.884,1.009,1.712,2.072,2.493,3.161,1.136,1.584,2.576,3.5,2.879,5.463.143.923.225,1.847.408,2.766.193.967.415,1.928.606,2.9a18.83,18.83,0,0,1,.33,6.577,17.761,17.761,0,0,1-4.66,8.956c-.757.843.486,2.1,1.247,1.249Z" transform="translate(348.171 14.165)"/>
    <path id="Path-77" data-name="Path" d="M1.5,2.887c.038-.034.087-.062.122-.1-.017.018-.217.16-.094.074L1.609,2.8q.093-.067.189-.13.26-.17.536-.314c.115-.06.233-.112.349-.17.161-.081-.162.06.027-.012.063-.024.126-.05.189-.073a6.293,6.293,0,0,1,.844-.245c.09-.019.181-.035.271-.052l.119-.019Q4,1.807,4.1,1.795c.184-.02.367-.033.552-.037s.359,0,.539.014c.093.007.186.015.279.027-.136-.017.152.027.147.026a6.8,6.8,0,0,1,1.309.389A.888.888,0,0,0,8.012,1.6.905.905,0,0,0,7.4.51,7.031,7.031,0,0,0,.256,1.638.883.883,0,0,0,1.5,2.887Z" transform="translate(359.984 25.528)"/>
    <path id="Path-78" data-name="Path" d="M1.3,2.692C3.04,1.569,6,1.156,7.168,3.3a4.671,4.671,0,0,1-.036,3.539,10.194,10.194,0,0,1-1.02,2.2,3.2,3.2,0,0,0-.674,1.293,2.575,2.575,0,0,0,.1.925c.512,1.652,2.451,1.432,3.763,1.086a.884.884,0,0,0-.469-1.7,4.079,4.079,0,0,1-1.554.159c-.047-.007-.033.006-.063-.068.063.156-.018-.081-.021-.117a2.7,2.7,0,0,0,0-.282l-.12.446c1.755-2.527,3.35-6.542,1.009-9.221A4.777,4.777,0,0,0,3.763.067a8.24,8.24,0,0,0-3.355,1.1C-.543,1.78.34,3.31,1.3,2.692Z" transform="translate(348.805 27.21)"/>
    <ellipse id="Oval" cx="1.141" cy="1.143" rx="1.141" ry="1.143" transform="translate(350.786 32.818)"/>
    <path id="Path-79" data-name="Path" d="M.891,1.745a1.286,1.286,0,0,1-.012-.158c0-.031,0-.062,0-.093,0-.091,0,.028-.005.026S.9,1.4.911,1.373s.018-.08.029-.085l-.021.05q.012-.027.026-.054c.023-.045.05-.085.076-.128.05-.081-.051.046-.006.007.018-.016.033-.038.049-.056s.079-.095.109-.1l-.042.033.037-.026C1.2,1,1.228.976,1.259.959L1.313.931c.091-.048-.091.025.008,0L1.472.888c.037-.01.048-.031-.023,0A.312.312,0,0,1,1.544.882h.062l.064,0c-.075,0,.019,0,.031.007S1.75.9,1.774.91l.071.023c.093.028-.059-.038-.009,0s.08.04.118.064c.013.008.069.035.074.05Q1.961.987,2,1.018l.034.029c.037.034.07.07.1.107.069.073-.048-.081,0,.006.01.017.022.033.033.051.025.042.042.1.07.134-.057-.079-.014-.031,0,.01s.018.06.025.091c0,.008.028.108.009.035s0,.024,0,.036c0,.052,0,.1,0,.156,0,.09,0-.028.005-.026s-.015.079-.018.089-.01.039-.016.058-.012.038-.019.057q-.026.068.011-.022c.007.028-.055.108-.07.132s-.022.033-.033.05c-.053.086.066-.068,0,0-.031.032-.06.066-.093.1-.013.012-.039.045-.056.049Q2.061,2.1,2,2.145l-.025.017c-.043.028-.087.05-.132.074-.092.048.092-.029-.008,0l-.059.019c-.03.009-.061.014-.092.023-.083.021.017,0,.022,0a.473.473,0,0,1-.188.006c-.009,0-.111,0-.033,0s-.045-.01-.061-.014L1.37,2.253l-.057-.019q-.067-.026.022.011c-.031.007-.118-.061-.144-.078s-.057-.028-.061-.042q.075.059.019.014l-.022-.02C1.1,2.1,1.01,2.03,1,1.99l.033.042L1.01,2C.992,1.965.973,1.936.956,1.9S.938,1.869.928,1.851q-.03-.066.009.021-.011-.029-.02-.058a1.26,1.26,0,0,1-.042-.184A.442.442,0,0,0,.332,1.32a.455.455,0,0,0-.308.543,1.6,1.6,0,1,0-.016-.117.486.486,0,0,0,.129.312.448.448,0,0,0,.312.13C.663,2.177.922,1.991.891,1.745Z" transform="translate(350.348 32.378)"/>
    <ellipse id="Oval-2" data-name="Oval" cx="1.141" cy="1.143" rx="1.141" ry="1.143" transform="translate(361.372 30.861)"/>
    <path id="Path-80" data-name="Path" d="M.89,1.746a1.274,1.274,0,0,1-.012-.158c0-.031,0-.062,0-.093,0-.091,0,.028-.005.026S.9,1.4.911,1.374s.018-.08.029-.085l-.021.05q.012-.027.026-.054c.023-.045.05-.085.076-.128.05-.081-.051.046-.006.007.018-.016.033-.038.049-.056s.079-.095.109-.1l-.042.033.037-.026C1.2,1,1.228.976,1.259.959L1.313.932c.091-.048-.091.025.008,0L1.471.889c.037-.01.048-.031-.022,0A.312.312,0,0,1,1.543.883h.062l.064,0c-.075,0,.019,0,.031.007S1.75.9,1.774.91l.071.023c.092.028-.059-.038-.009,0s.08.04.118.063c.013.008.069.035.074.05Q1.96.987,2,1.018l.034.029c.037.034.07.07.1.107.069.073-.048-.081,0,.006.01.017.022.033.033.051.025.042.042.1.07.134-.057-.079-.014-.031,0,.01s.018.06.025.091c0,.008.028.108.009.035s0,.024,0,.036c0,.052,0,.1,0,.156,0,.091,0-.028.005-.026s-.015.079-.018.089-.01.039-.016.058-.012.038-.019.057q-.026.068.011-.022c.007.028-.055.108-.07.132s-.022.033-.032.05c-.053.086.066-.068,0,0-.031.033-.06.066-.093.1-.013.012-.039.045-.056.049Q2.06,2.1,2,2.145l-.025.017c-.043.028-.087.05-.132.074-.092.048.092-.029-.008,0l-.059.019c-.03.009-.061.014-.091.022-.083.021.017,0,.023,0a.472.472,0,0,1-.188.006c-.009,0-.111,0-.033,0s-.045-.01-.061-.014L1.37,2.253l-.057-.019q-.067-.026.022.011c-.031.007-.118-.061-.144-.078s-.057-.028-.061-.042q.074.059.019.014l-.022-.02C1.1,2.1,1.01,2.03,1,1.99l.033.042L1.01,2C.993,1.965.973,1.936.956,1.9S.938,1.869.928,1.851q-.03-.066.009.021C.93,1.852.923,1.833.917,1.813a1.246,1.246,0,0,1-.042-.184A.442.442,0,0,0,.332,1.32a.455.455,0,0,0-.308.543,1.6,1.6,0,1,0-.016-.117.485.485,0,0,0,.129.312.447.447,0,0,0,.312.13C.663,2.178.922,1.991.89,1.746Z" transform="translate(360.934 30.421)"/>
    <path id="Path-81" data-name="Path" d="M48.1,7.978S55.3,5.695,58.444,16.316c.763,2.574.556,5.954-.059,9.316a42.017,42.017,0,0,1-9.363,19.594l0,.006L46.237,34.782C47.53,33.319,48.868,28.4,48.39,25.8c-.722-3.919-2.992-4.453-5.725-3.948a4.309,4.309,0,0,0-2.618,2.287c-1.634,3.044-.218,9.2-.218,9.2L34.281,20.782c-4.087,1.253-28.667,7.871-31.089,1.254a3.011,3.011,0,0,1,.637-3.011s-6.956-2.748-2.118-8.8C.26,8.766-1.191,4.647,4.13,4.163,6.3,3.965,20.666,1.518,30.1.183a18.513,18.513,0,0,1,16.4,6Z" transform="translate(334.607 0.884)" fill="#ff3e6c"/>
    <path id="Path-82" data-name="Path" d="M49.182,9.714a4.56,4.56,0,0,1,.65-.136c-.274.043.051,0,.149-.013q.21-.018.421-.024a7.234,7.234,0,0,1,1,.043c.037,0-.044-.009.107.015q.133.022.265.048.3.06.6.146a5.669,5.669,0,0,1,1.1.439,7.854,7.854,0,0,1,2.418,2.009,14.616,14.616,0,0,1,2.979,9.969,37.365,37.365,0,0,1-2.791,12,41.025,41.025,0,0,1-6.842,11.279l1.474.39-2.781-10.45-.227.859c1.483-1.748,2.076-4.369,2.374-6.585.309-2.305.106-5.149-1.718-6.834a5.644,5.644,0,0,0-5.981-.655c-2.4,1.242-3.1,4.135-3.153,6.608a23.486,23.486,0,0,0,.6,5.638l1.612-.681L36.58,22.792l-.694-1.571a.884.884,0,0,0-1-.406A111.937,111.937,0,0,1,23,23.68a73.3,73.3,0,0,1-8.121,1.132A23.969,23.969,0,0,1,8,24.59a8.484,8.484,0,0,1-1.446-.437c-.021-.009-.342-.164-.481-.243-.1-.059-.477-.31-.412-.259a2.173,2.173,0,0,1-.688-.792c-.028-.048-.119-.254-.057-.1a2.151,2.151,0,0,1-.161-.682A2.247,2.247,0,0,1,5.3,20.534a.9.9,0,0,0-.389-1.477c.326.13.049.023-.085-.044-.226-.113-.448-.23-.664-.36a5.853,5.853,0,0,1-1.595-1.329c-1.482-1.779-.683-3.939.615-5.6a.91.91,0,0,0,0-1.249A3.7,3.7,0,0,1,2.1,7.818C2.2,6.505,3.762,6.064,4.974,5.93c2.549-.282,5.083-.734,7.615-1.136C16.794,4.125,21,3.449,25.208,2.8c2.057-.315,4.118-.668,6.185-.912a17.84,17.84,0,0,1,7.013.562,17.557,17.557,0,0,1,6.717,3.655,38.638,38.638,0,0,1,3.2,3.377c.759.849,2-.4,1.247-1.249-.933-1.043-1.837-2.129-2.868-3.078a19.72,19.72,0,0,0-6.37-3.924A19.234,19.234,0,0,0,32.959.009,58.6,58.6,0,0,0,26.068.9c-4.564.691-9.122,1.425-13.681,2.15-1.7.27-3.4.541-5.1.8-1.265.191-2,.221-3.272.445C2.162,4.617.473,5.754.338,7.765a5.441,5.441,0,0,0,1.593,3.964V10.479C.183,12.71-.881,15.624.97,18.135a8.027,8.027,0,0,0,3.468,2.626l-.389-1.477a3.993,3.993,0,0,0,1.569,6.373,15.8,15.8,0,0,0,6.83,1.037,79.044,79.044,0,0,0,16.989-2.6c1.985-.477,3.969-.982,5.922-1.579l-1-.406L39.218,33.1l.694,1.571c.419.95,1.825.252,1.612-.681a16.423,16.423,0,0,1-.261-7.462,4.78,4.78,0,0,1,1.379-2.343,3.175,3.175,0,0,1,2.19-.72A2.957,2.957,0,0,1,47.877,25.2a8.3,8.3,0,0,1,.327,5.112A11.938,11.938,0,0,1,46.566,34.9a1.283,1.283,0,0,0-.3,1.144c.069.3.157.591.236.885l.867,3.257,1.641,6.167a.888.888,0,0,0,1.474.39A42.4,42.4,0,0,0,60.549,23.4a17.141,17.141,0,0,0-2.7-11.471,9.213,9.213,0,0,0-5.564-3.977,7.354,7.354,0,0,0-3.574.057C47.633,8.349,48.094,10.055,49.182,9.714Z" transform="translate(333.763 0)"/>
    <path id="Path-83" data-name="Path" d="M4.452.052A2.713,2.713,0,0,0,2.936.186,4.261,4.261,0,0,0,.6,2.816,11.054,11.054,0,0,0,0,6.049a.888.888,0,0,0,.882.883.9.9,0,0,0,.882-.883c.017-.26.039-.521.068-.78.006-.054.013-.108.02-.162,0,.035-.025.171,0,0,.019-.125.039-.249.061-.373A8.592,8.592,0,0,1,2.2,3.582q.036-.109.076-.218c.015-.039.116-.29.056-.148s.037-.079.05-.106q.052-.11.109-.217c.06-.112.125-.222.195-.328.034-.052.071-.1.107-.154.094-.136-.152.173.008-.006.068-.077.136-.153.21-.225q.049-.047.1-.092c.021-.018.042-.035.062-.053.1-.091-.075.063-.091.069a4.727,4.727,0,0,0,.441-.264c.084-.048-.249.092-.093.039l.1-.037q.1-.034.207-.058c.055-.012.277-.045.062-.017s-.007,0,.05,0c.088,0,.174,0,.261,0,.174.006-.292-.052-.128-.017a.884.884,0,0,0,.469-1.7Z" transform="translate(375.9 24.885)"/>
    <path id="Path-84" data-name="Path" d="M1.764,6.691c-.009.075-.05.315-.013.111.018-.1.037-.2.058-.3a8.144,8.144,0,0,1,.309-1.049c.037-.1.079-.2.118-.3.057-.148-.075.163-.006.016.031-.066.06-.134.091-.2a8.218,8.218,0,0,1,.388-.728q.105-.176.22-.346.063-.094.129-.186c.031-.044.2-.252.061-.087a8.592,8.592,0,0,1,.627-.7c.141-.137.287-.267.437-.393l.088-.071c-.066.053-.063.046,0,0,.084-.061.167-.122.253-.18a7.416,7.416,0,0,1,1.154-.637A.891.891,0,0,0,6,.43.9.9,0,0,0,4.791.113,8.478,8.478,0,0,0,.132,5.932,6.834,6.834,0,0,0,0,6.691a.884.884,0,0,0,.882.883.909.909,0,0,0,.882-.883Z" transform="translate(381.154 1.558)"/>
    <path id="Path-85" data-name="Path" d="M.853,4.441c2.3,0,4.608-.146,6.9-.341A68.946,68.946,0,0,0,21.406,1.744a.884.884,0,0,0-.469-1.7A66.861,66.861,0,0,1,7.561,2.349c-2.228.185-4.471.324-6.708.325a.884.884,0,0,0,0,1.767Z" transform="translate(337.885 16.27)"/>
    <path id="Path-86" data-name="Path" d="M.646,2.215A29.286,29.286,0,0,0,11.275,1.73c1.105-.258.637-1.962-.469-1.7a27.7,27.7,0,0,1-6.75.665C3.317.68,2.578.645,1.842.582,1.617.563,1.393.541,1.17.515,1.048.5.7.453,1.115.511a.912.912,0,0,0-1.085.617A.89.89,0,0,0,.646,2.215Z" transform="translate(335.437 9.742)"/>
    <path id="Path-87" data-name="Path" d="M86.981,64.17,2.667,9.1A5.891,5.891,0,0,1,.919,1.015L1.564,0l103.37,32.588Z" transform="translate(15.181 137.717)"/>
    <path id="Path-88" data-name="Path" d="M88.3,64.288l-2.494-1.629L79.1,58.278l-9.886-6.457L57.328,44.06,44.437,35.641,31.69,27.316l-11.453-7.48-9.165-5.985L5.353,10.115c-.407-.266-.815-.53-1.22-.8A5.113,5.113,0,0,1,1.765,4.75,7.057,7.057,0,0,1,3.2,1.327l-1,.406L4.97,2.6,12.5,4.977,23.627,8.486l13.58,4.281,14.874,4.689,14.947,4.712,14,4.414,11.833,3.73L101.372,33c1.327.418,2.672.963,4.03,1.271.058.013.116.036.172.054l-.527-1.3L98.973,43.708,89.3,60.722,87.094,64.6a.883.883,0,0,0,1.523.892l6.074-10.685L104.363,37.8l2.207-3.883a.9.9,0,0,0-.527-1.3l-2.765-.872-7.526-2.373L84.621,25.863l-13.58-4.281L56.167,16.893,41.22,12.181l-14-4.414L15.386,4.037,6.876,1.354C5.535.932,4.2.462,2.846.084,2.788.067,2.731.047,2.673.029a.9.9,0,0,0-1,.406A9.146,9.146,0,0,0,.055,4.2,6.774,6.774,0,0,0,1.374,9.146,8.228,8.228,0,0,0,3.5,11.012l4.358,2.846,8.236,5.379L27.077,26.41l12.6,8.227,13.08,8.542L65.184,51.3l10.648,6.954,7.707,5.034c1.235.807,2.452,1.661,3.714,2.426.053.032.1.068.157.1C88.364,66.437,89.249,64.907,88.3,64.288Z" transform="translate(14.306 136.836)"/>
    <path id="Path-89" data-name="Path" d="M87.8,87.688,0,28.859,22.018,0l83.734,56.106L87.8,87.688Z" transform="translate(16.783 108.812)" fill="#ff3e6c"/>
    <path id="Path-90" data-name="Path" d="M89.122,87.8,86.78,86.232l-6.375-4.271L70.927,75.61,59.411,67.894,46.8,59.442,34.066,50.911,22.14,42.92,12.109,36.2,4.894,31.364c-1.127-.755-2.236-1.632-3.422-2.293-.051-.029-.1-.067-.149-.1l.316,1.209,7.44-9.752L20.937,4.887l2.72-3.565-1.207.317,2.241,1.5,6.1,4.085,9.018,6.042,11,7.372L62.8,28.674l12.163,8.15,11.342,7.6,9.586,6.423,6.893,4.618c1.074.72,2.132,1.558,3.263,2.187.048.027.093.062.139.093l-.316-1.209L99.794,67.221,90.122,84.235l-2.207,3.883a.883.883,0,0,0,1.523.892l6.074-10.685,9.672-17.014,2.207-3.883a.9.9,0,0,0-.316-1.209l-2.241-1.5-6.1-4.085L89.719,44.59l-11-7.372L66.726,29.184l-12.163-8.15-11.342-7.6L33.636,7.011,26.743,2.393c-1.084-.727-2.15-1.5-3.263-2.186-.048-.029-.093-.062-.139-.093A.9.9,0,0,0,22.134.43l-7.44,9.752L2.836,25.724.116,29.289A.9.9,0,0,0,.433,30.5l2.342,1.569,6.375,4.271,9.478,6.351,11.516,7.716,12.613,8.451,12.733,8.532,11.926,7.991L77.446,82.1l7.215,4.834c1.137.762,2.255,1.576,3.422,2.293.051.031.1.066.149.1C89.178,89.961,90.062,88.431,89.122,87.8Z" transform="translate(15.906 107.936)"/>
    <rect id="Rectangle-2" data-name="Rectangle" width="8.127" height="42.725" transform="matrix(0.556, -0.831, 0.831, 0.556, 49.492, 153.301)" fill="#fff"/>
    <path id="Path-91" data-name="Path" d="M36.821,30.687l-12-8.044L5.695,9.831,1.322,6.9,1.638,8.11,6.17,1.324l-1.207.317,12,8.044L36.089,22.5l4.373,2.93-.316-1.209L35.614,31c-.633.948.894,1.833,1.523.892l4.532-6.786a.9.9,0,0,0-.316-1.209l-12-8.044L10.226,3.045,5.854.115A.9.9,0,0,0,4.647.432L.115,7.218A.9.9,0,0,0,.432,8.427l12,8.043L31.558,29.283l4.373,2.93C36.877,32.847,37.761,31.317,36.821,30.687Z" transform="translate(48.615 145.636)"/>
    <rect id="Rectangle-3" data-name="Rectangle" width="4.24" height="4.237" transform="matrix(0.556, -0.831, 0.831, 0.556, 37.699, 119.86)" fill="#fff"/>
    <path id="Path-92" data-name="Path" d="M4.845,6,1.322,3.644l.316,1.209L3.995,1.324l-1.207.317L6.311,4,5.994,2.793,3.638,6.321a.882.882,0,1,0,1.523.892L7.517,3.684A.9.9,0,0,0,7.2,2.476L3.678.115A.9.9,0,0,0,2.472.432L.115,3.961A.9.9,0,0,0,.432,5.17L3.954,7.53A.883.883,0,0,0,4.845,6Z" transform="translate(36.822 115.453)"/>
    <rect id="Rectangle-4" data-name="Rectangle" width="4.24" height="4.237" transform="matrix(0.556, -0.831, 0.831, 0.556, 45.557, 125.126)" fill="#fff"/>
    <path id="Path-93" data-name="Path" d="M4.845,6,1.322,3.644l.316,1.209L3.995,1.324l-1.207.317L6.311,4,5.994,2.793,3.638,6.321a.882.882,0,1,0,1.523.892L7.517,3.684A.9.9,0,0,0,7.2,2.476L3.678.115A.9.9,0,0,0,2.472.432L.115,3.961A.9.9,0,0,0,.432,5.17L3.954,7.53A.883.883,0,0,0,4.845,6Z" transform="translate(44.681 120.719)"/>
    <rect id="Rectangle-5" data-name="Rectangle" width="4.24" height="4.237" transform="matrix(0.556, -0.831, 0.831, 0.556, 53.416, 130.392)" fill="#fff"/>
    <path id="Path-94" data-name="Path" d="M4.845,6,1.322,3.644l.316,1.209L3.995,1.324l-1.207.317L6.311,4,5.994,2.793,3.638,6.321a.882.882,0,1,0,1.523.892L7.517,3.684A.9.9,0,0,0,7.2,2.476L3.678.115A.9.9,0,0,0,2.472.432L.115,3.961A.9.9,0,0,0,.432,5.17L3.954,7.53A.883.883,0,0,0,4.845,6Z" transform="translate(52.539 125.985)"/>
    <rect id="Rectangle-6" data-name="Rectangle" width="4.24" height="4.237" transform="matrix(0.556, -0.831, 0.831, 0.556, 61.274, 135.657)" fill="#fff"/>
    <path id="Path-95" data-name="Path" d="M4.845,6,1.322,3.644l.316,1.209L3.995,1.324l-1.207.317L6.311,4,5.994,2.793,3.638,6.321a.882.882,0,1,0,1.523.892L7.517,3.684A.9.9,0,0,0,7.2,2.476L3.678.115A.9.9,0,0,0,2.472.432L.115,3.961A.9.9,0,0,0,.432,5.17L3.954,7.53A.883.883,0,0,0,4.845,6Z" transform="translate(60.397 131.25)"/>
    <rect id="Rectangle-7" data-name="Rectangle" width="4.24" height="4.237" transform="matrix(0.556, -0.831, 0.831, 0.556, 69.133, 140.923)" fill="#fff"/>
    <path id="Path-96" data-name="Path" d="M4.845,6,1.322,3.644l.316,1.209L3.995,1.324l-1.207.317L6.311,4,5.994,2.793,3.638,6.321a.882.882,0,0,0,1.523.892L7.517,3.684A.9.9,0,0,0,7.2,2.476L3.678.115A.9.9,0,0,0,2.472.432L.115,3.961A.9.9,0,0,0,.432,5.17L3.954,7.53A.883.883,0,0,0,4.845,6Z" transform="translate(68.256 136.516)"/>
    <rect id="Rectangle-8" data-name="Rectangle" width="4.24" height="4.237" transform="matrix(0.556, -0.831, 0.831, 0.556, 76.991, 146.188)" fill="#fff"/>
    <path id="Path-97" data-name="Path" d="M4.845,6,1.322,3.644l.316,1.209L3.995,1.324l-1.207.317L6.311,4,5.994,2.793,3.638,6.321a.882.882,0,0,0,1.523.892L7.517,3.684A.9.9,0,0,0,7.2,2.476L3.678.115A.9.9,0,0,0,2.472.432L.115,3.961A.9.9,0,0,0,.432,5.17L3.954,7.53A.883.883,0,0,0,4.845,6Z" transform="translate(76.115 141.782)"/>
    <rect id="Rectangle-9" data-name="Rectangle" width="4.24" height="4.237" transform="matrix(0.556, -0.831, 0.831, 0.556, 84.85, 151.454)" fill="#fff"/>
    <path id="Path-98" data-name="Path" d="M4.845,6,1.322,3.644l.316,1.209L3.995,1.324l-1.207.317L6.311,4,5.994,2.793,3.638,6.321a.882.882,0,0,0,1.523.892L7.517,3.684A.9.9,0,0,0,7.2,2.476L3.678.115A.9.9,0,0,0,2.472.432L.115,3.961A.9.9,0,0,0,.432,5.17L3.954,7.53A.883.883,0,0,0,4.845,6Z" transform="translate(83.973 147.047)"/>
    <rect id="Rectangle-10" data-name="Rectangle" width="4.24" height="4.237" transform="matrix(0.556, -0.831, 0.831, 0.556, 92.708, 156.72)" fill="#fff"/>
    <path id="Path-99" data-name="Path" d="M4.845,6,1.322,3.644l.316,1.209L3.995,1.324l-1.207.317L6.311,4,5.994,2.793,3.638,6.321a.883.883,0,1,0,1.523.892L7.517,3.684A.9.9,0,0,0,7.2,2.476L3.678.115A.9.9,0,0,0,2.472.432L.115,3.961A.9.9,0,0,0,.432,5.17L3.954,7.53A.883.883,0,0,0,4.845,6Z" transform="translate(91.832 152.313)"/>
    <rect id="Rectangle-11" data-name="Rectangle" width="4.24" height="4.237" transform="matrix(0.556, -0.831, 0.831, 0.556, 100.567, 161.985)" fill="#fff"/>
    <path id="Path-100" data-name="Path" d="M4.845,6,1.322,3.644l.316,1.209L3.995,1.324l-1.207.317L6.311,4,5.994,2.793,3.638,6.321a.882.882,0,1,0,1.523.892L7.517,3.684A.9.9,0,0,0,7.2,2.476L3.678.115A.9.9,0,0,0,2.472.432L.115,3.961A.9.9,0,0,0,.432,5.17L3.954,7.53A.883.883,0,0,0,4.845,6Z" transform="translate(99.69 157.578)"/>
    <rect id="Rectangle-12" data-name="Rectangle" width="4.24" height="4.237" transform="matrix(0.556, -0.831, 0.831, 0.556, 108.426, 167.251)" fill="#fff"/>
    <path id="Path-101" data-name="Path" d="M4.845,6,1.322,3.644l.316,1.209L3.995,1.324l-1.207.317L6.311,4,5.994,2.793,3.638,6.321a.882.882,0,1,0,1.523.892L7.517,3.684A.9.9,0,0,0,7.2,2.476L3.678.115A.9.9,0,0,0,2.472.432L.115,3.961A.9.9,0,0,0,.432,5.17L3.954,7.53A.883.883,0,0,0,4.845,6Z" transform="translate(107.549 162.844)"/>
    <path id="Path-102" data-name="Path" d="M11.382,18.484,0,10.857,7.251,0l3.523,2.36L7.148,7.789l7.858,5.265-3.625,5.429Z" transform="translate(26.823 125.289)" fill="#fff"/>
    <path id="Path-103" data-name="Path" d="M12.7,18.6,2.745,11.926l-1.423-.954.316,1.209,6.342-9.5.909-1.361-1.207.317L11.205,4l-.316-1.209L7.263,8.221A.9.9,0,0,0,7.58,9.43L15.438,14.7l-.316-1.209L11.5,18.916c-.633.948.894,1.833,1.523.892l3.625-5.429a.9.9,0,0,0-.316-1.209L8.47,7.9l.316,1.209,3.625-5.429A.9.9,0,0,0,12.1,2.476L8.573.115A.9.9,0,0,0,7.366.432l-6.342,9.5L.115,11.29A.9.9,0,0,0,.432,12.5l9.958,6.672,1.423.954C12.759,20.758,13.643,19.229,12.7,18.6Z" transform="translate(25.946 124.411)"/>
    <rect id="Rectangle-13" data-name="Rectangle" width="4.24" height="4.237" transform="matrix(0.556, -0.831, 0.831, 0.556, 40.844, 132.183)" fill="#fff"/>
    <path id="Path-104" data-name="Path" d="M4.845,6,1.322,3.644l.316,1.208L3.995,1.324l-1.207.317L6.311,4,5.994,2.793,3.638,6.321a.882.882,0,1,0,1.523.892L7.517,3.684A.9.9,0,0,0,7.2,2.476L3.678.115A.9.9,0,0,0,2.472.432L.115,3.961A.9.9,0,0,0,.432,5.17L3.954,7.53A.883.883,0,0,0,4.845,6Z" transform="translate(39.968 127.776)"/>
    <rect id="Rectangle-14" data-name="Rectangle" width="4.24" height="4.237" transform="matrix(0.556, -0.831, 0.831, 0.556, 48.703, 137.449)" fill="#fff"/>
    <path id="Path-105" data-name="Path" d="M4.845,6,1.322,3.644l.316,1.209L3.995,1.324l-1.207.317L6.311,4,5.994,2.793,3.638,6.321a.882.882,0,1,0,1.523.892L7.517,3.684A.9.9,0,0,0,7.2,2.476L3.678.115A.9.9,0,0,0,2.472.432L.115,3.961A.9.9,0,0,0,.432,5.17L3.954,7.53A.883.883,0,0,0,4.845,6Z" transform="translate(47.826 133.042)"/>
    <rect id="Rectangle-15" data-name="Rectangle" width="4.24" height="4.237" transform="matrix(0.556, -0.831, 0.831, 0.556, 42.721, 146.406)" fill="#fff"/>
    <path id="Path-106" data-name="Path" d="M4.845,6,1.322,3.644l.316,1.209L3.995,1.324l-1.207.317L6.311,4,5.994,2.793,3.638,6.321a.882.882,0,1,0,1.523.892L7.517,3.684A.9.9,0,0,0,7.2,2.476L3.678.115A.9.9,0,0,0,2.472.432L.115,3.961A.9.9,0,0,0,.432,5.17L3.954,7.53A.883.883,0,0,0,4.845,6Z" transform="translate(41.844 142)"/>
    <rect id="Rectangle-16" data-name="Rectangle" width="4.24" height="4.237" transform="matrix(0.556, -0.831, 0.831, 0.556, 56.561, 142.715)" fill="#fff"/>
    <path id="Path-107" data-name="Path" d="M4.845,6,1.322,3.644l.316,1.209L3.995,1.324l-1.207.317L6.311,4,5.994,2.793,3.638,6.321a.882.882,0,1,0,1.523.892L7.517,3.684A.9.9,0,0,0,7.2,2.476L3.678.115A.9.9,0,0,0,2.472.432L.115,3.961A.9.9,0,0,0,.432,5.17L3.954,7.53A.883.883,0,0,0,4.845,6Z" transform="translate(55.685 138.308)"/>
    <rect id="Rectangle-17" data-name="Rectangle" width="4.24" height="4.237" transform="matrix(0.556, -0.831, 0.831, 0.556, 64.42, 147.98)" fill="#fff"/>
    <path id="Path-108" data-name="Path" d="M4.845,6,1.322,3.644l.316,1.209L3.995,1.324l-1.207.317L6.311,4,5.994,2.793,3.638,6.321a.883.883,0,1,0,1.523.892L7.517,3.684A.9.9,0,0,0,7.2,2.476L3.678.115A.9.9,0,0,0,2.472.432L.115,3.961A.9.9,0,0,0,.432,5.17L3.954,7.53A.883.883,0,1,0,4.845,6Z" transform="translate(63.543 143.573)"/>
    <rect id="Rectangle-18" data-name="Rectangle" width="4.24" height="4.237" transform="translate(72.284 153.243) rotate(-56.221)" fill="#fff"/>
    <path id="Path-109" data-name="Path" d="M4.845,6,1.322,3.644l.316,1.209L3.995,1.324l-1.207.317L6.311,4,5.994,2.793,3.638,6.321a.883.883,0,1,0,1.523.892L7.517,3.684A.9.9,0,0,0,7.2,2.476L3.678.115A.9.9,0,0,0,2.472.432L.115,3.961A.9.9,0,0,0,.432,5.17L3.954,7.53A.883.883,0,0,0,4.845,6Z" transform="translate(71.402 148.839)"/>
    <rect id="Rectangle-19" data-name="Rectangle" width="4.24" height="4.237" transform="matrix(0.556, -0.831, 0.831, 0.556, 80.137, 158.511)" fill="#fff"/>
    <path id="Path-110" data-name="Path" d="M4.845,6,1.322,3.644l.316,1.209L3.995,1.324l-1.207.317L6.311,4,5.994,2.793,3.638,6.321a.883.883,0,1,0,1.523.892L7.517,3.684A.9.9,0,0,0,7.2,2.476L3.678.115A.9.9,0,0,0,2.472.432L.115,3.961A.9.9,0,0,0,.432,5.17L3.954,7.53A.883.883,0,0,0,4.845,6Z" transform="translate(79.26 154.105)"/>
    <rect id="Rectangle-20" data-name="Rectangle" width="4.24" height="4.237" transform="matrix(0.556, -0.831, 0.831, 0.556, 87.996, 163.777)" fill="#fff"/>
    <path id="Path-111" data-name="Path" d="M4.845,6,1.322,3.644l.316,1.209L3.995,1.324l-1.207.317L6.311,4,5.994,2.793,3.638,6.321a.882.882,0,1,0,1.523.892L7.517,3.684A.9.9,0,0,0,7.2,2.476L3.678.115A.9.9,0,0,0,2.472.432L.115,3.961A.9.9,0,0,0,.432,5.17L3.954,7.53A.883.883,0,0,0,4.845,6Z" transform="translate(87.119 159.37)"/>
    <rect id="Rectangle-21" data-name="Rectangle" width="4.24" height="4.237" transform="matrix(0.556, -0.831, 0.831, 0.556, 95.854, 169.043)" fill="#fff"/>
    <path id="Path-112" data-name="Path" d="M4.845,6,1.322,3.644l.316,1.209L3.995,1.324l-1.207.317L6.311,4,5.994,2.793,3.638,6.321a.882.882,0,1,0,1.523.892L7.517,3.684A.9.9,0,0,0,7.2,2.476L3.678.115A.9.9,0,0,0,2.472.432L.115,3.961A.9.9,0,0,0,.432,5.17L3.954,7.53A.883.883,0,0,0,4.845,6Z" transform="translate(94.977 164.636)"/>
    <rect id="Rectangle-22" data-name="Rectangle" width="4.24" height="4.237" transform="matrix(0.556, -0.831, 0.831, 0.556, 103.713, 174.308)" fill="#fff"/>
    <path id="Path-113" data-name="Path" d="M4.845,6,1.322,3.644l.316,1.209L3.995,1.324l-1.207.317L6.311,4,5.994,2.793,3.638,6.321a.882.882,0,1,0,1.523.892L7.517,3.684A.9.9,0,0,0,7.2,2.476L3.678.115A.9.9,0,0,0,2.472.432L.115,3.961A.9.9,0,0,0,.432,5.17L3.954,7.53A.883.883,0,0,0,4.845,6Z" transform="translate(102.836 169.901)"/>
    <rect id="Rectangle-23" data-name="Rectangle" width="4.234" height="11.74" transform="translate(91.866 178.544) rotate(-56.221)" fill="#fff"/>
    <path id="Path-114" data-name="Path" d="M11.077,10.181,2.557,4.472,1.322,3.644l.316,1.209L3.995,1.324l-1.207.317,8.52,5.709,1.235.828-.316-1.209L9.871,10.5c-.633.948.894,1.833,1.523.892L13.75,7.861a.9.9,0,0,0-.316-1.209L4.913.943,3.678.115A.9.9,0,0,0,2.472.432L.115,3.961A.9.9,0,0,0,.432,5.17l8.52,5.709,1.235.828C11.133,12.34,12.017,10.81,11.077,10.181Z" transform="translate(90.984 174.14)"/>
    <rect id="Rectangle-24" data-name="Rectangle" width="46.389" height="11.623" rx="5.812" transform="translate(281.75 143.508) rotate(5.494)" fill="#fff" stroke="#000" stroke-miterlimit="10" stroke-width="2.614"/>
    <path id="Path-115" data-name="Path" d="M46.135.607,19.39,0A13.79,13.79,0,0,0,7,7.327L1.523,17.639A13.035,13.035,0,0,0,3.137,32.234a4.708,4.708,0,0,0,6.541.943c4.538,1.515,5.042,1.515,7.311,0,2.269,2.02,6.555,1.515,7.815.758,1.765,2.02,4.469,2.824,6.646.655l1.576-5.348a8.3,8.3,0,0,1,9.46-5.821h0" transform="translate(294.478 128.564)" fill="#ffc2d6"/>
    <path id="Path-116" data-name="Path" d="M47,.606,36.412.367,21.709.034a18.7,18.7,0,0,0-5.764.548A14.854,14.854,0,0,0,7.078,7.8c-1.9,3.536-3.892,7.056-5.655,10.663A14.074,14.074,0,0,0,1.6,31.146c1.27,2.416,3.4,4.959,6.433,4.7a6.814,6.814,0,0,0,2.955-1.025l-.68.089a15.049,15.049,0,0,0,4.8,1.167A6,6,0,0,0,18.3,34.823l-1.068-.138a7.632,7.632,0,0,0,4.82,1.677,7.936,7.936,0,0,0,4.064-.781l-1.069-.138c1.45,1.61,3.675,2.71,5.843,1.963a3.8,3.8,0,0,0,2.289-1.737c.145-.376.232-.787.346-1.173.789-2.678,1.272-5.7,3.465-7.63a7.407,7.407,0,0,1,6.128-1.709c1.11.2,1.586-1.5.469-1.7a9.255,9.255,0,0,0-9.994,5.016c-.99,2.1-1.324,4.464-2.088,6.641a.765.765,0,0,1-.036.123c.243-.424-.462.174-.6.251a2.888,2.888,0,0,1-1.555.393,4.46,4.46,0,0,1-3.021-1.684.893.893,0,0,0-1.069-.138,6.226,6.226,0,0,1-3,.544,5.859,5.859,0,0,1-3.751-1.163.9.9,0,0,0-1.068-.138,3.9,3.9,0,0,1-3.271.911c-1.06-.219-2.067-.609-3.1-.914-.712-.21-1.039.114-1.662.4a4.142,4.142,0,0,1-1.511.4,3.977,3.977,0,0,1-3.09-1.421c-.261-.268.143.175-.077-.089a13.814,13.814,0,0,1-1.032-1.4,12.151,12.151,0,0,1-1.408-3.078,12.735,12.735,0,0,1,1.237-9.78l3.7-6.959C8.361,9.15,9.423,6.915,11.3,5.178a13.062,13.062,0,0,1,9.18-3.4c4.382.091,8.763.2,13.145.3s8.756.293,13.131.3c.081,0,.161,0,.242.006A.884.884,0,0,0,47,.607Z" transform="translate(293.616 127.681)"/>
    <path id="Path-117" data-name="Path" d="M135.125,0,0,101.009" transform="translate(145.963 149.493)" fill="none" stroke="#000" stroke-miterlimit="10" stroke-width="2.614"/>
    <path id="Path-118" data-name="Path" d="M129.579,0,0,96.968" transform="translate(111.93 146.463)" fill="none" stroke="#000" stroke-miterlimit="10" stroke-width="2.614"/>
    <path id="Path-119" data-name="Path" d="M213.78,54.8l-90.571,67.826a24.066,24.066,0,0,1-29.94-.86l-79-66.558-1.921.047A12.063,12.063,0,0,1,0,43.181H0L200.671,0l.039.028a6.423,6.423,0,0,1,1.924,8.179h0Z" transform="translate(4.913 141.286)" fill="#fff"/>
    <path id="Path-120" data-name="Path" d="M214.217,54.879,204,62.534,180.12,80.413l-27.937,20.921-21.86,16.37-5.685,4.257a25.812,25.812,0,0,1-10.884,5.068,23.422,23.422,0,0,1-19.157-5.2q-2.079-1.746-4.153-3.5L70.294,101.358,43.74,78.986,22.1,60.757,16.577,56.1c-.263-.222-.518-.475-.8-.674-.8-.567-2.19-.191-3.14-.212A11.178,11.178,0,0,1,1.764,44.026l-.647.852L6.5,43.719,21.1,40.578l21.568-4.641,26.41-5.683,28.825-6.2L127,17.791l27.224-5.858L177.141,7l16.486-3.548c2.591-.558,5.278-.965,7.83-1.685.108-.03.221-.047.33-.071l-.68-.089a5.577,5.577,0,0,1,2.257,4.58,7.287,7.287,0,0,1-.61,2.418,1.357,1.357,0,0,0-.078.725c.087.639.308,1.287.458,1.913L205.6,21.551l6.6,27.584,1.613,6.742c.264,1.105,1.966.637,1.7-.47l-3.762-15.724-6-25.082-1.384-5.784-.089.681A7.378,7.378,0,0,0,202.371.365,1.408,1.408,0,0,0,201.052.05c-.89.177-1.776.382-2.663.573L185.533,3.39,164.765,7.859l-26.28,5.655-29.468,6.341L78.9,26.336,50.673,32.409,26.666,37.575,9.259,41.321C6.507,41.914,3.736,42.449,1,43.1c-.116.027-.233.05-.349.075A.893.893,0,0,0,0,44.026a13.06,13.06,0,0,0,5.224,10.4c2.991,2.238,6.324,2.6,9.928,2.511l-.624-.259,9.732,8.2,22.45,18.915,25.262,21.284,18.2,15.338c1.1.926,2.193,1.856,3.3,2.777a25.285,25.285,0,0,0,19.971,5.676,26.147,26.147,0,0,0,11.826-5.182l4.936-3.7,20.1-15.051,26.508-19.851,24.335-18.224,13.341-9.991.619-.463C216.006,55.732,215.127,54.2,214.217,54.879Z" transform="translate(4.032 140.441)"/>
    <ellipse id="Oval-3" data-name="Oval" cx="22.386" cy="22.424" rx="22.386" ry="22.424" transform="translate(67.165 266.201)"/>
    <path id="Path-121" data-name="Path" d="M44.826,23.352a21.471,21.471,0,1,1-.256-3.364,21.779,21.779,0,0,1,.256,3.364.882.882,0,0,0,1.764,0A23.325,23.325,0,1,0,46.3,27a24.885,24.885,0,0,0,.289-3.644.882.882,0,0,0-1.764,0Z" transform="translate(66.23 265.273)"/>
    <ellipse id="Oval-4" data-name="Oval" cx="9.748" cy="9.764" rx="9.748" ry="9.764" transform="translate(79.804 278.861)" fill="#fff"/>
    <path id="Path-122" data-name="Path" d="M19.5,10.652a8.863,8.863,0,1,1-7.182-8.723A8.879,8.879,0,0,1,19.5,10.652a.882.882,0,0,0,1.764,0A10.628,10.628,0,1,0,12.692,21.1a10.782,10.782,0,0,0,8.57-10.445.882.882,0,0,0-1.764,0Z" transform="translate(78.919 277.973)"/>
    <ellipse id="Oval-5" data-name="Oval" cx="3.294" cy="3.3" rx="3.294" ry="3.3" transform="translate(86.258 285.325)"/>
    <path id="Path-123" data-name="Path" d="M6.584,4.179A2.425,2.425,0,0,1,6.1,5.64c-.153.223.057-.061-.047.058-.047.054-.094.107-.144.159s-.081.081-.123.12c0,0-.218.186-.085.082a2.819,2.819,0,0,1-.36.235c-.051.028-.1.053-.153.081q-.143.065-.027.017-.061.025-.123.046a3.82,3.82,0,0,1-.424.119c-.036.007-.224.037-.075.018-.075.009-.151.014-.227.017a3.33,3.33,0,0,1-.458-.013c-.164-.016.194.048-.077-.013-.087-.02-.173-.037-.259-.061s-.167-.053-.25-.081c-.022-.008-.153-.068-.031-.011a3.282,3.282,0,0,1-.379-.207c-.061-.038-.12-.078-.178-.121-.124-.093.133.135-.056-.05a5.1,5.1,0,0,1-.359-.369c.085.1-.006-.006-.019-.026-.049-.071-.1-.142-.141-.217q-.044-.074-.085-.151c0-.006-.123-.262-.057-.1a2.884,2.884,0,0,1-.135-.418c-.014-.058-.025-.116-.039-.174q-.026-.16-.009-.032-.008-.068-.012-.136a3.34,3.34,0,0,1,0-.414c0-.007.037-.3.008-.125.01-.059.021-.117.034-.175a3.876,3.876,0,0,1,.124-.422c.085-.247-.077.119.049-.109.042-.076.08-.153.124-.228s.077-.121.117-.181c.02-.03.135-.17.044-.061a3.448,3.448,0,0,1,.3-.311c-.015.014.2-.17.107-.1s.134-.095.118-.084a3.286,3.286,0,0,1,.451-.254c-.036.017-.136.046.031-.011.083-.029.166-.057.25-.081.057-.016.114-.03.172-.043-.019,0,.266-.047.147-.031s.174-.013.153-.011q.115-.006.23,0c.077,0,.152.007.229.011.2.011-.054-.024.122.018s.341.084.509.143c.258.089-.074-.04.07.03.091.044.18.091.267.143.049.029.1.06.145.092s.094.065.14.1q-.1-.074.021.024c.1.1.2.2.3.3.179.185-.071-.122.075.091.049.071.1.142.141.217s.082.152.124.228c.085.153-.014-.072.049.109s.1.336.142.51c.006.023.026.171.009.032a3.334,3.334,0,0,1,.02.366.882.882,0,0,0,1.764,0A4.248,4.248,0,0,0,5.587.247,4.182,4.182,0,1,0,8.347,4.179.882.882,0,0,0,6.584,4.179Z" transform="translate(85.38 284.446)"/>
    <path id="Path-124" data-name="Path" d="M.113,25.915l3.1,7.317,7.03,16.611,7.55,17.839,4.742,11.206a9.08,9.08,0,0,0,3.3,4.331,7.993,7.993,0,0,0,9.119-.353c2.173-1.634,4.334-3.283,6.5-4.925L54.893,67.764l15.98-12.1,13.991-10.6,7.5-5.68.348-.263-1.068-.138L104.584,51.1c4.28,4.006,8.531,8.045,12.84,12.018a12.989,12.989,0,0,0,8.917,3.483,14.1,14.1,0,0,0,8-2.856,13.047,13.047,0,0,0,5.038-14.875c-1.93-5.765-3.922-11.51-5.883-17.265l-6.384-18.734L127,12.533l-.405,1L140.715,3.168l2.01-1.475c.906-.665.027-2.2-.89-1.526L127.712,10.53,125.7,12a.911.911,0,0,0-.405,1l5.292,15.531,6.776,19.886c.236.691.485,1.379.654,2.09a11.183,11.183,0,0,1-1.6,8.727,13.764,13.764,0,0,1-6.09,4.806,11.14,11.14,0,0,1-9.074-.382c-2.07-1.051-3.715-2.858-5.4-4.43l-8.175-7.652-14.526-13.6-.267-.25a.893.893,0,0,0-1.069-.138l-5.177,3.922L73.96,51.122,58.23,63.037,43.73,74.02l-8.8,6.667a9.83,9.83,0,0,1-2.87,1.745,6.28,6.28,0,0,1-7.688-3.692c-1.236-2.891-2.451-5.791-3.676-8.687l-7.169-16.94L6.146,35.682,1.84,25.505l-.2-.482a.887.887,0,0,0-1.207-.317.907.907,0,0,0-.316,1.209Z" transform="translate(60.816 206.834)"/>
    <path id="Path-125" data-name="Path" d="M1.1,48.6l5.043-1.254,13.725-3.413,20.3-5.047L64.932,32.73l27.125-6.744,27.376-6.807,25.441-6.325L166.448,7.49l15.508-3.856c2.44-.607,4.9-1.164,7.327-1.822.106-.029.213-.053.319-.079a.884.884,0,0,0-.469-1.7l-5.044,1.254L170.363,4.7l-20.3,5.047L125.3,15.9,98.172,22.646,70.795,29.452,45.354,35.778,23.782,41.141,8.274,45c-2.44.607-4.9,1.164-7.327,1.822-.106.029-.213.053-.319.079A.884.884,0,0,0,1.1,48.6Z" transform="translate(18.303 148.688)"/>
    <path id="Path-126" data-name="Path" d="M0,1.077,11.294,0" transform="translate(188.308 132.33)" fill="#ffc41f"/>
    <path id="Path-127" data-name="Path" d="M.882,2.844,10.755,1.9l1.421-.136a.907.907,0,0,0,.882-.883A.889.889,0,0,0,12.176,0L2.3.942.882,1.077A.907.907,0,0,0,0,1.961a.889.889,0,0,0,.882.883Z" transform="translate(187.426 131.447)"/>
    <path id="Path-128" data-name="Path" d="M0,1.077,11.294,0" transform="translate(188.308 136.909)" fill="#ffc41f"/>
    <path id="Path-129" data-name="Path" d="M.882,2.844,10.755,1.9l1.421-.136a.907.907,0,0,0,.882-.883A.889.889,0,0,0,12.176,0L2.3.942.882,1.077A.907.907,0,0,0,0,1.961a.889.889,0,0,0,.882.883Z" transform="translate(187.426 136.026)"/>
    <path id="Path-130" data-name="Path" d="M3.765,5.118,0,5.387V.269L3.765,0V5.118Z" transform="translate(155.232 110.243)" fill="#ffc41f"/>
    <path id="Path-131" data-name="Path" d="M4.647,5.118.882,5.387l.882.883V1.153l-.882.883,3.765-.269L3.765.883V6A.882.882,0,1,0,5.529,6V.883A.89.89,0,0,0,4.647,0L.882.269A.9.9,0,0,0,0,1.153V6.271a.89.89,0,0,0,.882.883l3.765-.269a.883.883,0,1,0,0-1.767Z" transform="translate(154.35 109.36)"/>
    <path id="Path-132" data-name="Path" d="M1.626,21.407a39.332,39.332,0,0,1,4.561-6.853,36.022,36.022,0,0,1,13.5-10.773,24.766,24.766,0,0,1,9.727-2.016c4.379,0,8.366,1.3,12.4,2.872,4.613,1.793,9.261,3.54,14.011,4.938A41.992,41.992,0,0,0,65.2,11.44a14.028,14.028,0,0,0,6.409-.988,14.422,14.422,0,0,0,4.642-3.431c.372-.392.73-.8,1.081-1.209.733-.86-.509-2.116-1.247-1.249a16.349,16.349,0,0,1-4.34,3.859,11.03,11.03,0,0,1-5.476,1.284,33.109,33.109,0,0,1-8.652-1.46C53.075,7,48.643,5.368,44.249,3.69c-2.417-.923-4.8-1.968-7.3-2.65A29.472,29.472,0,0,0,31.062.05,26.174,26.174,0,0,0,20.624,1.528,35.631,35.631,0,0,0,6.019,12.014,41.809,41.809,0,0,0,.178,20.371c-.024.049-.051.1-.075.145-.509,1.013,1.012,1.909,1.523.892Z" transform="translate(183.134 100.476)"/>
    <path id="Path-133" data-name="Path" d="M11.824,1.107A10.367,10.367,0,1,1,21.019,19.69c-5.123,2.543-15.272,5.775-19.9-1.7C-3.362,10.75,6.7,3.65,11.824,1.107Z" transform="translate(258.948 87.817)" fill="#ffcc3e"/>
    <path id="Path-134" data-name="Path" d="M13.118,2.72A9.481,9.481,0,0,1,26.105,14.677a9.694,9.694,0,0,1-4.973,5.243c-3.683,1.781-8.167,3.224-12.293,2.509a8.762,8.762,0,0,1-5.571-3.243,6.533,6.533,0,0,1-1.131-6.33A14.88,14.88,0,0,1,6.874,6.791,31.6,31.6,0,0,1,13.118,2.72c1.016-.507.124-2.032-.89-1.526a33.731,33.731,0,0,0-6.32,4.114A17.718,17.718,0,0,0,.829,11.416a8.207,8.207,0,0,0,.1,7.384,10.33,10.33,0,0,0,5.946,4.966c4.74,1.53,10.111-.018,14.478-2.006a11.863,11.863,0,0,0,5.92-5.386A11.246,11.246,0,0,0,12.227,1.195C11.206,1.69,12.1,3.214,13.118,2.72Z" transform="translate(258.1 86.966)"/>
    <path id="Path-135" data-name="Path" d="M0,4.942A7.244,7.244,0,0,0,1.068,7.869,9.809,9.809,0,0,0,2.939,10.1L11.96,5.618A2.965,2.965,0,0,0,13.3,1.648h0A2.956,2.956,0,0,0,9.333.309Z" transform="translate(259.002 97.942)" fill="#fff"/>
    <path id="Path-136" data-name="Path" d="M.044,6.059A9.45,9.45,0,0,0,3.209,11.6a.918.918,0,0,0,1.068.138l4.629-2.3L12.02,7.9a14.872,14.872,0,0,0,1.6-.82A3.847,3.847,0,0,0,10.685.1a8.728,8.728,0,0,0-1.9.829l-2.9,1.438L.449,5.061c-1.017.5-.125,2.029.89,1.526l9.084-4.509a2.168,2.168,0,0,1,2.491.206,2.111,2.111,0,0,1-.506,3.454C11.043,6.46,9.637,7.113,8.254,7.8L3.388,10.216l1.069.138A7.951,7.951,0,0,1,1.745,5.589.888.888,0,0,0,.66,4.972.906.906,0,0,0,.044,6.059Z" transform="translate(258.108 97.06)"/>
    <path id="Path-137" data-name="Path" d="M.1,17.026A66.678,66.678,0,0,0,7.183,28.291c5.058,6.657,11.39,12.873,19.339,15.866a25.418,25.418,0,0,0,25.412-4.569c6.321-5.46,9.513-13.523,12.225-21.207,1.182-3.348,2.255-6.765,3.748-9.99A21.4,21.4,0,0,1,70.1,4.563a8.428,8.428,0,0,1,2.491-2.27c.128-.071.258-.137.389-.2a.967.967,0,0,1,.228-.1,6.944,6.944,0,0,1,.845-.261c1.1-.267.636-1.971-.469-1.7-2.617.633-4.5,2.676-5.85,4.9a48.48,48.48,0,0,0-3.922,9.118c-2.622,7.416-5.047,15.281-10.238,21.372a23.84,23.84,0,0,1-23.334,8.022c-8.17-1.9-14.831-7.813-20.031-14.145a80.128,80.128,0,0,1-8.48-12.944c-.039-.072-.073-.146-.109-.22C1.127,15.11-.395,16.005.1,17.026Z" transform="translate(84.101 150.663)"/>
    <path id="Path-138" data-name="Path" d="M11.369,53.169,17.726,54.3l4.908-17.267,7.617,12.252,6.269,1.156L46.843.993,40.6,0,0,27.938l12.565,2.254L.292,45.643l11.076,7.526Z" transform="translate(55.368 74.348)"/>
    <path id="Path-139" data-name="Path" d="M11.99,54.853l6.358,1.132a.9.9,0,0,0,1.085-.617l4.307-15.15.6-2.117-1.612.211,4.619,7.43,2.576,4.144c.138.223.264.469.422.679.393.519,1.1.511,1.691.621l5.105.941a.9.9,0,0,0,1.085-.617l1.023-4.9L41.72,34.774,44.7,20.516,47.272,8.18c.419-2.009.891-4.015,1.26-6.035.005-.028.012-.057.018-.085A.893.893,0,0,0,47.933.973L42.02.034c-.873-.139-1.2.166-1.871.627L31.827,6.388l-12.91,8.884-12.206,8.4C4.642,25.1,2.546,26.486.5,27.945l-.091.063c-.562.387-.6,1.47.211,1.615L11.6,31.591l1.591.285L12.8,30.4,2.05,43.93.525,45.851A.9.9,0,0,0,.7,47.239l9.7,6.591,1.376.935c.942.64,1.825-.89.89-1.526l-9.7-6.591-1.376-.935L1.772,47.1,12.519,33.57l1.526-1.921c.368-.464.334-1.347-.389-1.477L2.682,28.2,1.09,27.918,1.3,29.533l4.024-2.769,9.724-6.691,11.71-8.058L36.885,5.045l3.356-2.31a11.629,11.629,0,0,0,1.584-1.09A.536.536,0,0,1,41.9,1.6l-.68.089,6.246.992L46.849,1.59l-1.023,4.9L43.355,18.325,40.379,32.584,37.8,44.92l-.857,4.106a13.176,13.176,0,0,0-.4,1.928.577.577,0,0,1-.018.085l1.085-.617-6.269-1.156.527.406L25.2,38.949l-.95-1.528a.892.892,0,0,0-1.612.211l-4.307,15.15-.6,2.117,1.085-.617L12.459,53.15C11.349,52.952,10.872,54.654,11.99,54.853Z" transform="translate(54.512 73.515)"/>
    <path id="Path-140" data-name="Path" d="M11.368,53.169,22.635,37.033l7.616,12.252L40.6,0,0,27.937l12.565,2.254L.292,45.643l11.076,7.526Z" transform="translate(61.638 75.504)" fill="#4dcfd3"/>
    <path id="Path-141" data-name="Path" d="M12.986,54.52l9.881-14.152,1.385-1.983H22.729L29.4,49.11l.95,1.528a.892.892,0,0,0,1.612-.211l1.032-4.916,2.463-11.735,2.994-14.263L41.024,7.234c.42-2,.891-4,1.261-6.008.005-.029.012-.057.018-.085.145-.692-.616-1.465-1.3-1L36.983,2.912,27.26,9.6,15.55,17.662,5.424,24.631c-1.645,1.132-3.316,2.236-4.94,3.4l-.073.05c-.562.387-.6,1.47.211,1.615L11.6,31.664l1.591.285L12.8,30.473,2.05,44,.525,45.924A.9.9,0,0,0,.7,47.312L10.4,53.9l1.376.935c.942.64,1.825-.89.89-1.526l-9.7-6.591-1.376-.935.178,1.387L12.519,33.643l1.526-1.921c.368-.464.334-1.347-.389-1.477L2.682,28.277,1.09,27.991,1.3,29.606l4.024-2.769,9.724-6.691,11.71-8.058L36.885,5.118l3.356-2.31a14.377,14.377,0,0,0,1.584-1.09.67.67,0,0,1,.073-.05l-1.3-1L39.57,5.587,37.107,17.322,34.113,31.585,31.536,43.863l-.855,4.073a15.077,15.077,0,0,0-.406,1.936.664.664,0,0,1-.018.085l1.612-.211L25.2,39.022l-.95-1.528a.893.893,0,0,0-1.523,0L12.848,51.645l-1.385,1.983C10.811,54.562,12.339,55.446,12.986,54.52Z" transform="translate(60.782 74.598)"/>
    <ellipse id="Oval-6" data-name="Oval" cx="2.151" cy="2.155" rx="2.151" ry="2.155" transform="translate(8.409 122.364)" fill="#e2e2e2"/>
    <ellipse id="Oval-7" data-name="Oval" cx="2.151" cy="2.155" rx="2.151" ry="2.155" transform="translate(15.67 120.209)" fill="#e2e2e2"/>
    <ellipse id="Oval-8" data-name="Oval" cx="2.151" cy="2.155" rx="2.151" ry="2.155" transform="translate(24.006 117.516)" fill="#e2e2e2"/>
    <path id="Path-142" data-name="Path" d="M0,2.424,7.529,0" transform="translate(126.19 86.27)"/>
    <path id="Path-143" data-name="Path" d="M1.113,4.158,7.7,2.038l.945-.3A.9.9,0,0,0,9.258.647.891.891,0,0,0,8.173.03L1.589,2.15l-.945.3A.9.9,0,0,0,.028,3.541a.891.891,0,0,0,1.085.617Z" transform="translate(125.312 85.388)"/>
    <ellipse id="Oval-9" data-name="Oval" cx="37.512" cy="37.575" rx="37.512" ry="37.575" transform="translate(105.414 30.797)" fill="#5f5fff"/>
    <path id="Path-144" data-name="Path" d="M71.332,53.76a36.679,36.679,0,1,1,1.993-5.29,37,37,0,0,1-1.993,5.29c-.478,1.024,1.042,1.922,1.523.892a38.242,38.242,0,1,0-2.9,5.114,38.822,38.822,0,0,0,2.9-5.114C73.338,53.63,71.818,52.732,71.332,53.76Z" transform="translate(104.776 30.164)"/>
    <path id="Path-145" data-name="Path" d="M40.946,43.548A64.822,64.822,0,0,1,29.617,60.558c-3.514,3.71-7.768,7.24-12.734,8.749-3.808,1.157-7.907.735-10.784-2.231-3.627-3.74-4.365-9.613-4.309-14.585A58.192,58.192,0,0,1,6.681,30.935,67.039,67.039,0,0,1,17.747,12.8c3.469-3.984,7.64-7.793,12.59-9.816,3.671-1.5,7.956-1.87,11.29.631,4.008,3.007,5.183,8.634,5.408,13.352.339,7.126-1.28,14.3-3.731,20.951-.7,1.912-1.5,3.788-2.358,5.633-.479,1.024,1.042,1.922,1.523.892a64.242,64.242,0,0,0,6.291-23.1c.339-5.569-.18-12.006-3.632-16.634a11.576,11.576,0,0,0-5.4-4.081A12.464,12.464,0,0,0,33.392.24c-5.145.909-9.729,4.212-13.454,7.722A62.1,62.1,0,0,0,7.674,24.672,67.506,67.506,0,0,0,.339,47.719C-.346,53.585-.2,60.21,2.761,65.494A11.643,11.643,0,0,0,13.8,71.675c5.066-.351,9.666-3.223,13.449-6.429A58.065,58.065,0,0,0,39.837,49.524q1.415-2.49,2.631-5.084C42.951,43.418,41.431,42.52,40.946,43.548Z" transform="translate(118.495 32.52)"/>
    <path id="Path-146" data-name="Path" d="M25.6,30.109C34.07,34.08,43.587,36.9,53.023,36.449a30.353,30.353,0,0,0,6.233-.91.889.889,0,0,0,.648-.852A38.392,38.392,0,0,0,.427,6.433.913.913,0,0,0,.111,7.642,34.375,34.375,0,0,0,6.8,17.031a59.262,59.262,0,0,0,10.957,8.777,73.445,73.445,0,0,0,7.848,4.3c1.021.483,1.917-1.04.89-1.526C18.3,24.7,10.237,19.313,4.76,11.952a29.006,29.006,0,0,1-3.126-5.2L1.317,7.959A36.639,36.639,0,0,1,58.139,34.687l.647-.852c-7.936,2.073-16.682.45-24.318-2.068a71.561,71.561,0,0,1-7.976-3.184C25.472,28.1,24.575,29.626,25.6,30.109Z" transform="translate(121.232 29.916)"/>
    <path id="Path-147" data-name="Path" d="M59.858,28.747C56.413,21.338,49.746,15.56,43.03,11.183A68.9,68.9,0,0,0,14.515.388,36.247,36.247,0,0,0,.648.989.89.89,0,0,0,0,1.841,38.463,38.463,0,0,0,21.832,32.767a38.346,38.346,0,0,0,37.71-2.811c.941-.627.059-2.157-.89-1.526a36.6,36.6,0,0,1-35.941,2.8A36.707,36.707,0,0,1,1.764,1.841l-.648.852a33.47,33.47,0,0,1,11.7-.726A58.924,58.924,0,0,1,26.938,5.2,65.856,65.856,0,0,1,51.11,19.848a34.177,34.177,0,0,1,7.225,9.791C58.814,30.669,60.335,29.773,59.858,28.747Z" transform="translate(104.725 70.39)"/>
    <path id="Path-148" data-name="Path" d="M32.035.455,28.853,7.228,21.215,23.49l-9.208,19.6-7.986,17C2.73,62.841,1.406,65.578.146,68.342c-.017.038-.035.075-.053.113-.481,1.023,1.04,1.921,1.523.892L4.8,62.573l7.639-16.262,9.208-19.6,7.986-17c1.291-2.749,2.615-5.486,3.875-8.25.017-.038.035-.075.053-.113.481-1.023-1.04-1.921-1.523-.892Z" transform="translate(126.04 33.443)"/>
    <path id="Path-149" data-name="Path" d="M.454,1.618,7.216,4.805l16.235,7.651,19.57,9.223,16.971,8c2.744,1.294,5.477,2.62,8.236,3.882l.112.053c1.021.481,1.918-1.041.89-1.526L62.468,28.9,46.234,21.25l-19.57-9.223-16.971-8C6.949,2.734,4.217,1.408,1.458.146L1.345.093C.323-.388-.573,1.134.454,1.618Z" transform="translate(108.023 51.491)"/>
    <path id="Path-150" data-name="Path" d="M98.259.844a121.833,121.833,0,0,1,.219,24.811,79.1,79.1,0,0,1-4.424,19.84,44.449,44.449,0,0,1-8.014,13.94,24.115,24.115,0,0,1-10.531,7.25,19.711,19.711,0,0,1-12.2-.189,33.672,33.672,0,0,1-12.96-8.563c-2.841-2.849-5.323-6.047-7.916-9.117q-4.215-4.99-8.493-9.927Q27.615,31.6,21.1,24.49c-2.591-2.808-5.213-5.589-7.907-8.3-1.5-1.5-2.956-3.063-5.162-3.443A6.9,6.9,0,0,0,.1,18.08a9.906,9.906,0,0,0,.215,3.892c.215,1.115,1.916.643,1.7-.47a6.838,6.838,0,0,1,.007-3.76,5.068,5.068,0,0,1,8.376-1.83c.4.388.8.784,1.191,1.178,2.595,2.594,5.118,5.259,7.612,7.95,4.225,4.559,8.356,9.2,12.439,13.892q4.183,4.8,8.3,9.665c2.736,3.228,5.348,6.6,8.262,9.664a37.951,37.951,0,0,0,13.213,9.422A21.955,21.955,0,0,0,74.24,68.857a24,24,0,0,0,11.25-6.3,41.02,41.02,0,0,0,8.75-12.909A72.415,72.415,0,0,0,99.563,31a112.3,112.3,0,0,0,.989-23.744q-.189-3.21-.529-6.408c-.117-1.119-1.883-1.131-1.764,0Z" transform="translate(23.394 158.313)"/>
    <path id="Path-151" data-name="Path" d="M.6,1.758l9.685,3.4,1.371.481c1.073.377,1.535-1.329.469-1.7L2.445.535,1.074.054C0-.323-.462,1.383.6,1.758Z" transform="translate(82.295 52.478)"/>
    <path id="Path-152" data-name="Path" d="M1.086,3.981,7.477,2.03l.929-.284c1.083-.33.621-2.036-.469-1.7L1.546,1.993l-.929.284c-1.083.33-.621,2.036.469,1.7Z" transform="translate(84.465 65.095)"/>
    <path id="Path-153" data-name="Path" d="M.117,1.323,4.026,7.288l.564.862a.882.882,0,1,0,1.523-.892L2.2,1.292,1.64.431A.9.9,0,0,0,.434.114.893.893,0,0,0,.117,1.323Z" transform="translate(91.16 41.758)"/>
    <path id="Path-154" data-name="Path" d="M20.322,30.043A17.926,17.926,0,0,0,26,24.956c.522-.821.9-1.883-.01-2.58a5,5,0,0,0-2.923-.658,17.034,17.034,0,0,0-2.494.156l.5.649a48.406,48.406,0,0,0,2.76-4.228,28.753,28.753,0,0,0,1.808-3.569,7.714,7.714,0,0,0,.757-3.21c-.11-2.154-2.357-2.538-3.895-1.458-2.135,1.5-3.464,4.191-4.572,6.474a52.417,52.417,0,0,0-2.368,5.651l.866.117c.1-2.626.083-5.262,0-7.888-.07-2.15-.2-4.3-.452-6.438A22.676,22.676,0,0,0,14.813,2.51C14.421,1.495,13.8.226,12.6.027c-1.309-.218-2.317.94-2.86,1.982a16.644,16.644,0,0,0-1.46,5.318,60.216,60.216,0,0,0-.543,6.92c-.093,3.268-.054,6.556.162,9.819l.822-.223c-.863-1.727-1.812-3.419-2.83-5.059a26.8,26.8,0,0,0-2.414-3.4,3.957,3.957,0,0,0-2.206-1.594C-.874,13.555.258,16.667.65,17.605A50.79,50.79,0,0,0,4.7,24.964c1.048,1.663,2.127,3.31,3.255,4.92.324.462,1.089.021.762-.446A88.239,88.239,0,0,1,2.3,19.053a16.772,16.772,0,0,1-1.283-3.026,3.012,3.012,0,0,1-.163-.987c.014-.219.027-.325.162-.368.539-.171,1.347.779,1.691,1.163a22.87,22.87,0,0,1,2.242,3.1c1.091,1.729,2.1,3.523,3.013,5.352a.444.444,0,0,0,.822-.223c-.168-2.536-.216-5.086-.2-7.627.026-4.106.082-8.477,1.307-12.432.329-1.062.861-2.647,2.035-3.053.975-.337,1.588.735,1.935,1.533a18.674,18.674,0,0,1,1.167,4.981c.27,2.044.4,4.106.487,6.166.115,2.884.139,5.781.031,8.666-.02.52.709.569.866.117.488-1.4,1.058-2.781,1.668-4.134a24.162,24.162,0,0,1,3.944-6.625A3.521,3.521,0,0,1,24.234,10.3a1.173,1.173,0,0,1,1.271,1.131,6.354,6.354,0,0,1-.627,2.827,25.776,25.776,0,0,1-1.68,3.361,48.121,48.121,0,0,1-2.892,4.456c-.26.353.169.693.5.649-.247.033.081-.009.138-.015.192-.02.385-.039.577-.054.533-.042,1.069-.064,1.6-.055.6.011,2.515-.023,2.557.894.029.626-.7,1.416-1.077,1.858a16.683,16.683,0,0,1-2.052,1.974,25.249,25.249,0,0,1-2.676,1.952c-.48.3-.038,1.066.445.763Z" transform="translate(415.218 279.521)"/>
    <g id="Grupo_146" data-name="Grupo 146" transform="translate(358.471 41.39)">
      <g id="Grupo_145" data-name="Grupo 145" transform="translate(0 0)" clip-path="url(#clip-path)">
        <path id="Trazado_602" data-name="Trazado 602" d="M1.115,3.584a3.829,3.829,0,0,0,.766-.2A4.574,4.574,0,0,0,3.609,2.347a3.523,3.523,0,0,0,.782-1.235A.886.886,0,0,0,4.3.433.881.881,0,0,0,3.1.117a1.015,1.015,0,0,0-.4.526q-.012.032-.026.064L2.756.5a2.5,2.5,0,0,1-.313.537L2.58.856a2.858,2.858,0,0,1-.5.5l.178-.138a3.831,3.831,0,0,1-.825.472l.21-.089a4.07,4.07,0,0,1-1,.289.876.876,0,0,0-.526.4.9.9,0,0,0-.088.678.889.889,0,0,0,.4.526l.21.089a.884.884,0,0,0,.468,0" transform="translate(0 0)"/>
      </g>
    </g>
  </g>
</svg>
