<svg id="Grupo_78" data-name="Grupo 78" xmlns="http://www.w3.org/2000/svg" xmlns:xlink="http://www.w3.org/1999/xlink" width="371.573" height="208.7" viewBox="0 0 371.573 208.7">
  <defs>
    <clipPath id="clip-path">
      <rect id="Rectángulo_51" data-name="Rectángulo 51" width="371.572" height="208.7" fill="none"/>
    </clipPath>
  </defs>
  <g id="Grupo_77" data-name="Grupo 77" clip-path="url(#clip-path)">
    <path id="Trazado_230" data-name="Trazado 230" d="M419.823,293.572H607.395a12.2,12.2,0,0,0,12.2-12.2V152.7a12.2,12.2,0,0,0-12.2-12.2H419.823a12.2,12.2,0,0,0-12.2,12.2v128.67a12.2,12.2,0,0,0,12.2,12.2" transform="translate(-248.828 -85.768)" fill="#fff"/>
    <path id="Trazado_231" data-name="Trazado 231" d="M418.661,293.141H605.573a15.424,15.424,0,0,0,4.008-.437,13.068,13.068,0,0,0,9.546-11.471c.179-2.139.044-4.335.044-6.478V155.721c0-3.084.226-6.213-.985-9.133a13.081,13.081,0,0,0-11.954-7.993c-.377,0-.754,0-1.131,0H421.81c-2.415,0-4.841-.131-7.175.64a13.072,13.072,0,0,0-8.9,11.854c-.023.63-.009,1.262-.009,1.892V279.532a14.422,14.422,0,0,0,.932,5.485,13.1,13.1,0,0,0,12.006,8.123.738.738,0,0,0,0-1.475,11.585,11.585,0,0,1-11.407-10.288c-.08-.813-.056-1.638-.056-2.454V152.653a16.665,16.665,0,0,1,.222-3.383,11.593,11.593,0,0,1,11.244-9.2c1.415-.014,2.83,0,4.245,0H605.276c.515,0,1.032-.01,1.547.014a11.56,11.56,0,0,1,10.857,10.858c.1,2.006.014,4.032.014,6.039V275.425c0,2.5.264,5.3-.385,7.733a11.587,11.587,0,0,1-11.088,8.507c-.406,0-.811,0-1.217,0H418.661a.738.738,0,0,0,0,1.475" transform="translate(-247.665 -84.598)"/>
    <path id="Trazado_232" data-name="Trazado 232" d="M619.594,161.856V148.2a7.7,7.7,0,0,0-7.7-7.7H415.323a7.7,7.7,0,0,0-7.7,7.7v13.653Z" transform="translate(-248.827 -85.768)"/>
    <path id="Trazado_233" data-name="Trazado 233" d="M619.177,160.674V147.846a9,9,0,0,0-2.979-7.256,8.685,8.685,0,0,0-5.569-2.007c-3.062-.036-6.127,0-9.19,0H415.163a9.4,9.4,0,0,0-6.864,2.375,9.261,9.261,0,0,0-2.57,7.055v12.661a.748.748,0,0,0,.737.738H609.834c2.747,0,5.5.05,8.244,0,.12,0,.24,0,.36,0a.738.738,0,0,0,0-1.476H409.662c-.931,0-1.906-.082-2.834,0-.118.011-.242,0-.361,0l.738.738V148.014c0-2.878.871-5.536,3.529-7.051a7.359,7.359,0,0,1,3.67-.9c3.25-.015,6.5,0,9.751,0H609.4a8.762,8.762,0,0,1,5.247,1.2c2.4,1.621,3.059,4.162,3.059,6.879v12.542a.738.738,0,0,0,1.475,0" transform="translate(-247.672 -84.586)"/>
    <path id="Trazado_234" data-name="Trazado 234" d="M10.7,155.023H205.12a8.777,8.777,0,0,0,8.777-8.777V10.73a8.777,8.777,0,0,0-8.777-8.777H10.7A8.777,8.777,0,0,0,1.925,10.73V146.246a8.777,8.777,0,0,0,8.777,8.777" transform="translate(-1.175 -1.192)" fill="#fff"/>
    <path id="Trazado_235" data-name="Trazado 235" d="M9.54,154.591H202.773c.394,0,.788.005,1.182,0a9.636,9.636,0,0,0,9.518-9.516c.027-1.975,0-3.952,0-5.926V15.582c0-2.005.027-4.013,0-6.019A9.636,9.636,0,0,0,203.957.046c-.382-.005-.765,0-1.147,0H13.752c-1.4,0-2.808-.019-4.212,0A9.639,9.639,0,0,0,.025,9.566c-.008.566,0,1.132,0,1.7V143.551c0,.507-.007,1.014,0,1.521a9.64,9.64,0,0,0,9.515,9.519.738.738,0,0,0,0-1.475,8.145,8.145,0,0,1-8.04-8.152c-.007-.748,0-1.5,0-2.245V10.916a21.387,21.387,0,0,1,.044-2.235,8.141,8.141,0,0,1,8.106-7.16c1.762-.018,3.526,0,5.288,0H202.985c.519,0,1.044-.016,1.562.019A8.136,8.136,0,0,1,212,9.7c.014,2.437,0,4.876,0,7.313V139.831a36.09,36.09,0,0,1-.145,6.783,8.148,8.148,0,0,1-8.029,6.5c-.587,0-1.174,0-1.76,0H9.54a.738.738,0,0,0,0,1.475" transform="translate(-0.013 -0.023)"/>
    <path id="Trazado_236" data-name="Trazado 236" d="M213.9,23.307V7.493a5.54,5.54,0,0,0-5.54-5.54H7.465a5.54,5.54,0,0,0-5.54,5.54V23.307Z" transform="translate(-1.175 -1.192)"/>
    <path id="Trazado_237" data-name="Trazado 237" d="M213.46,22.114V8.772c0-2.1.165-4.2-1.106-6.026A6.431,6.431,0,0,0,207.076.023c-3.132-.052-6.27,0-9.4,0H7.333C4.814.023,2.423.666.965,2.975-.18,4.791.013,6.89.013,8.932V22.114a.748.748,0,0,0,.737.738H204.118c2.746,0,5.5.05,8.244,0,.12,0,.24,0,.36,0a.738.738,0,0,0,0-1.476H3.945c-.931,0-1.906-.082-2.834,0-.118.011-.242,0-.361,0l.738.738V8.932C1.488,6.8,1.232,4.57,2.9,2.906A5.029,5.029,0,0,1,6.538,1.5c3.333-.019,6.667,0,10,0H205.809c1.887,0,3.675.079,5.049,1.708,1.406,1.667,1.127,3.868,1.127,5.89V22.114a.738.738,0,0,0,1.475,0" transform="translate(0 0)"/>
    <path id="Trazado_238" data-name="Trazado 238" d="M147.5,190.768H272.553a13.631,13.631,0,0,0,13.631-13.631v-82.1A13.631,13.631,0,0,0,272.553,81.4H147.5a13.631,13.631,0,0,0-13.631,13.631v82.1A13.631,13.631,0,0,0,147.5,190.768" transform="translate(-81.716 -49.693)" fill="#fff"/>
    <path id="Trazado_239" data-name="Trazado 239" d="M146.3,190.349H267.643c1.215,0,2.431.006,3.646,0a14.529,14.529,0,0,0,14-10.847,26.78,26.78,0,0,0,.435-6.558V94.891c0-.515.009-1.032-.01-1.546a14.451,14.451,0,0,0-4.557-9.971,15.1,15.1,0,0,0-10.58-3.863H147.463a15.932,15.932,0,0,0-9.013,2.332,14.472,14.472,0,0,0-6.18,8.917,17.258,17.258,0,0,0-.341,3.7v77.659c0,1.6-.077,3.222.034,4.819A14.523,14.523,0,0,0,146.3,190.349a.738.738,0,0,0,0-1.475A13.032,13.032,0,0,1,133.4,175.939c-.009-1.6,0-3.2,0-4.8V94.291a13.1,13.1,0,0,1,8.207-12.43,17.344,17.344,0,0,1,6.43-.875H270.694A13.392,13.392,0,0,1,281.408,85.8a12.986,12.986,0,0,1,2.841,8.135c0,.514,0,1.028,0,1.542v77.918a19.532,19.532,0,0,1-.874,7.273,13.07,13.07,0,0,1-12.292,8.207q-2.2,0-4.391,0H146.3a.738.738,0,0,0,0,1.475" transform="translate(-80.518 -48.536)"/>
    <path id="Trazado_240" data-name="Trazado 240" d="M24.024,107.105H48.911a6.691,6.691,0,0,0,6.691-6.69V88.1a6.691,6.691,0,0,0-6.691-6.69H24.024a6.69,6.69,0,0,0-6.69,6.69v12.318a6.69,6.69,0,0,0,6.69,6.69" transform="translate(-10.581 -49.693)" fill="#5f5fff"/>
    <path id="Trazado_241" data-name="Trazado 241" d="M22.868,106.685H44.154q1.712,0,3.424,0a7.587,7.587,0,0,0,6.316-3.249,7.477,7.477,0,0,0,1.288-4.195c0-.464,0-.928,0-1.392V91.368c0-1.471.011-2.942,0-4.413a7.525,7.525,0,0,0-5.019-7.043,11.191,11.191,0,0,0-3.794-.4H23.5a8.137,8.137,0,0,0-5.192,1.572,7.443,7.443,0,0,0-2.619,3.945,9.257,9.257,0,0,0-.249,2.389v11.4a8.942,8.942,0,0,0,.283,2.475,7.453,7.453,0,0,0,7.145,5.391.738.738,0,0,0,0-1.475A6.01,6.01,0,0,1,16.937,99.8c-.108-1.325-.022-2.685-.022-4.012V89.279a12.073,12.073,0,0,1,.439-4.6,6.035,6.035,0,0,1,5.6-3.694c.987,0,1.974,0,2.961,0H38.535q4.539,0,9.078,0a6.062,6.062,0,0,1,5.495,3.342,10.053,10.053,0,0,1,.6,4.646c0,3.45.045,6.9,0,10.351a6,6,0,0,1-5.41,5.863c-.843.068-1.706.022-2.55.022H22.868a.738.738,0,0,0,0,1.475" transform="translate(-9.425 -48.536)"/>
    <path id="Trazado_242" data-name="Trazado 242" d="M247.33,193.359l48.332-31.3a3.156,3.156,0,0,0,0-5.407l-48.332-31.3c-2.4-1.551-5.706.017-5.706,2.7v62.6c0,2.686,3.31,4.255,5.706,2.7" transform="translate(-147.496 -76.148)" fill="#ff3e6c"/>
    <path id="Trazado_243" data-name="Trazado 243" d="M246.542,192.871l3.408-2.207,8.569-5.549,11.249-7.285,11.447-7.413,9.164-5.934c1.466-.949,2.937-1.893,4.4-2.848a4.634,4.634,0,0,0,1.366-1.31,3.857,3.857,0,0,0-.035-4.236,6.018,6.018,0,0,0-1.858-1.6l-5.841-3.783-9.978-6.461-11.591-7.506-10.812-7-7.512-4.864-1.743-1.129a4.756,4.756,0,0,0-4.625-.435,4.1,4.1,0,0,0-2.423,3.852v61.493a10.172,10.172,0,0,0,.049,1.45c.448,3.115,4.28,4.319,6.767,2.767.8-.5.064-1.779-.744-1.274-1.775,1.108-4.563.228-4.6-2.1-.006-.436,0-.871,0-1.307V127.136a2.744,2.744,0,0,1,2.54-2.766,3.8,3.8,0,0,1,2.535.807l5.39,3.491,9.606,6.22,11.383,7.372,10.834,7.016,7.931,5.135,2.145,1.39a3.478,3.478,0,0,1,1.556,1.545,2.46,2.46,0,0,1-1,2.955c-.093.062-.188.122-.282.183l-1.8,1.162-7.406,4.8-10.65,6.9-11.441,7.408-9.91,6.417-6.024,3.9-.82.531c-.794.514-.056,1.792.744,1.274" transform="translate(-146.336 -75.022)"/>
    <line id="Línea_9" data-name="Línea 9" x1="38.268" transform="translate(6.753 64.165)" fill="#fff"/>
    <path id="Trazado_244" data-name="Trazado 244" d="M54.485,162.771H20.939c-1.546,0-3.108-.064-4.653,0h-.068a.738.738,0,0,0,0,1.475H49.763c1.546,0,3.108.064,4.653,0h.068a.738.738,0,0,0,0-1.475" transform="translate(-9.465 -99.344)"/>
    <line id="Línea_10" data-name="Línea 10" x1="22.698" transform="translate(22.322 70.918)" fill="#fff"/>
    <path id="Trazado_245" data-name="Trazado 245" d="M78.882,180.151h-22.7a.738.738,0,0,0,0,1.475h22.7a.738.738,0,0,0,0-1.475" transform="translate(-33.862 -109.971)"/>
    <line id="Línea_11" data-name="Línea 11" x1="38.268" transform="translate(6.753 113.312)" fill="#fff"/>
    <path id="Trazado_246" data-name="Trazado 246" d="M54.485,288.932H20.939c-1.546,0-3.108-.064-4.653,0h-.068a.738.738,0,0,0,0,1.475H49.763c1.546,0,3.108.064,4.653,0h.068a.738.738,0,0,0,0-1.475" transform="translate(-9.465 -176.358)"/>
    <line id="Línea_12" data-name="Línea 12" x1="22.698" transform="translate(22.322 120.066)" fill="#fff"/>
    <path id="Trazado_247" data-name="Trazado 247" d="M78.882,306.312h-22.7a.738.738,0,0,0,0,1.475h22.7a.738.738,0,0,0,0-1.475" transform="translate(-33.862 -186.984)"/>
    <path id="Trazado_248" data-name="Trazado 248" d="M41.892,101.868,34.4,110.076l-7.383-6.13a3.533,3.533,0,0,0-4.833.3l-4.854,5.178v5.244a4.223,4.223,0,0,0,4.223,4.223H51.379A4.223,4.223,0,0,0,55.6,114.67v-5.833l-8.85-7.311a3.533,3.533,0,0,0-4.859.343" transform="translate(-10.581 -61.481)" fill="#fff"/>
    <path id="Trazado_249" data-name="Trazado 249" d="M40.173,100.209l-6.553,7.183-.935,1.025h1.043l-6.9-5.732a6.688,6.688,0,0,0-1.46-1.028,4.3,4.3,0,0,0-4.217.354,8.95,8.95,0,0,0-1.317,1.259l-1.888,2.014-1.8,1.921c-.326.348-.723.656-.742,1.165-.061,1.6,0,3.2,0,4.8a5.6,5.6,0,0,0,.614,2.754,4.974,4.974,0,0,0,3.284,2.452,10.9,10.9,0,0,0,2.24.116H49.78a5.233,5.233,0,0,0,4.124-1.686,5.108,5.108,0,0,0,1.237-3.326c.007-.667,0-1.334,0-2v-2.868c0-.455.111-1.106-.242-1.454-.295-.292-.653-.54-.973-.8l-1.916-1.583-4.395-3.63c-1.049-.867-2.122-1.979-3.511-2.219a4.348,4.348,0,0,0-3.932,1.289c-.653.689.388,1.734,1.043,1.043a2.84,2.84,0,0,1,3.856-.309c.54.423,1.06.876,1.589,1.313l5.709,4.716,1.512,1.249-.216-.521v5.13a4.549,4.549,0,0,1-.542,2.572,3.519,3.519,0,0,1-2.958,1.617c-2.377.03-4.755,0-7.133,0H20.772a7.277,7.277,0,0,1-.82-.019,3.521,3.521,0,0,1-2.971-2.6,9.625,9.625,0,0,1-.108-2.354v-3.753l-.216.521,2.559-2.73,1.656-1.767a9,9,0,0,1,.983-1,2.83,2.83,0,0,1,3.368-.039c.252.183.485.4.725.6l3.788,3.145,2.948,2.447a.752.752,0,0,0,1.043,0l6.553-7.183.935-1.025c.639-.7-.4-1.746-1.043-1.043" transform="translate(-9.383 -60.344)"/>
    <path id="Trazado_250" data-name="Trazado 250" d="M24.024,233.589H48.911A6.691,6.691,0,0,0,55.6,226.9V214.58a6.691,6.691,0,0,0-6.691-6.691H24.024a6.691,6.691,0,0,0-6.69,6.691V226.9a6.69,6.69,0,0,0,6.69,6.69" transform="translate(-10.581 -126.903)" fill="#5f5fff"/>
    <path id="Trazado_251" data-name="Trazado 251" d="M22.868,233.17H44.154q1.712,0,3.424,0a7.587,7.587,0,0,0,6.316-3.249,7.477,7.477,0,0,0,1.288-4.195c0-.464,0-.928,0-1.392v-6.481c0-1.471.011-2.942,0-4.413a7.525,7.525,0,0,0-5.019-7.043,11.19,11.19,0,0,0-3.794-.4H23.5a8.137,8.137,0,0,0-5.192,1.572,7.443,7.443,0,0,0-2.619,3.945,9.257,9.257,0,0,0-.249,2.389v11.4a8.942,8.942,0,0,0,.283,2.475,7.453,7.453,0,0,0,7.145,5.391.738.738,0,0,0,0-1.475,6.01,6.01,0,0,1-5.931-5.411c-.108-1.325-.022-2.685-.022-4.012v-6.507a12.073,12.073,0,0,1,.439-4.6,6.035,6.035,0,0,1,5.6-3.694c.987,0,1.974,0,2.961,0H38.535q4.539,0,9.078,0a6.062,6.062,0,0,1,5.495,3.342,10.053,10.053,0,0,1,.6,4.646c0,3.449.045,6.9,0,10.351a6,6,0,0,1-5.41,5.863c-.843.068-1.706.022-2.55.022H22.868a.738.738,0,0,0,0,1.475" transform="translate(-9.425 -125.747)"/>
    <path id="Trazado_252" data-name="Trazado 252" d="M41.892,228.352,34.4,236.56l-7.383-6.13a3.533,3.533,0,0,0-4.833.3l-4.854,5.178v5.243a4.223,4.223,0,0,0,4.223,4.223H51.379a4.223,4.223,0,0,0,4.223-4.223v-5.833l-8.85-7.311a3.533,3.533,0,0,0-4.859.343" transform="translate(-10.581 -138.692)" fill="#fff"/>
    <path id="Trazado_253" data-name="Trazado 253" d="M40.173,226.693l-6.553,7.183-.935,1.025h1.043l-6.9-5.732a6.687,6.687,0,0,0-1.46-1.028,4.3,4.3,0,0,0-4.217.354,8.948,8.948,0,0,0-1.317,1.259l-1.888,2.014-1.8,1.921c-.326.348-.723.656-.742,1.165-.061,1.6,0,3.2,0,4.8a5.6,5.6,0,0,0,.614,2.754,4.974,4.974,0,0,0,3.284,2.452,10.9,10.9,0,0,0,2.24.116H49.78a5.233,5.233,0,0,0,4.124-1.686,5.108,5.108,0,0,0,1.237-3.327c.007-.667,0-1.334,0-2V235.1c0-.455.111-1.106-.242-1.454-.295-.292-.653-.54-.973-.8l-1.916-1.583-4.395-3.63c-1.049-.867-2.122-1.979-3.511-2.219a4.348,4.348,0,0,0-3.932,1.289c-.653.689.388,1.734,1.043,1.043a2.84,2.84,0,0,1,3.856-.309c.54.423,1.06.876,1.589,1.313l5.709,4.716,1.512,1.249-.216-.521v5.13a4.547,4.547,0,0,1-.542,2.572,3.519,3.519,0,0,1-2.958,1.617c-2.377.03-4.755,0-7.133,0H20.772a7.274,7.274,0,0,1-.82-.019,3.521,3.521,0,0,1-2.971-2.6,9.625,9.625,0,0,1-.108-2.354v-3.753l-.216.522,2.559-2.73,1.656-1.767a9,9,0,0,1,.983-1,2.83,2.83,0,0,1,3.368-.039c.252.183.485.4.725.6l3.788,3.145,2.948,2.447a.752.752,0,0,0,1.043,0l6.553-7.183.935-1.025c.639-.7-.4-1.746-1.043-1.043" transform="translate(-9.383 -137.554)"/>
    <line id="Línea_13" data-name="Línea 13" x1="138.814" transform="translate(57.87 130.101)" fill="#fff"/>
    <path id="Trazado_254" data-name="Trazado 254" d="M286.248,332.05H153.069c-1.8,0-3.6-.034-5.4,0-.079,0-.157,0-.236,0a.738.738,0,0,0,0,1.475H280.612c1.8,0,3.6.035,5.4,0,.079,0,.157,0,.236,0a.738.738,0,0,0,0-1.475" transform="translate(-89.564 -202.686)"/>
    <line id="Línea_14" data-name="Línea 14" x1="90.979" transform="translate(59.21 130.101)" fill="#fff"/>
    <path id="Trazado_255" data-name="Trazado 255" d="M241.854,332.057H154.563c-1.178,0-2.358-.024-3.535,0-.051,0-.1,0-.154,0a.738.738,0,0,0,0,1.475h87.291c1.177,0,2.358.024,3.535,0h.153a.738.738,0,0,0,0-1.475" transform="translate(-91.664 -202.694)"/>
    <path id="Trazado_256" data-name="Trazado 256" d="M150.228,333.33h90.979a1.125,1.125,0,0,0,0-2.251H150.228a1.125,1.125,0,1,0,0,2.251" transform="translate(-91.017 -202.103)" fill="#ea2f2f"/>
    <path id="Trazado_257" data-name="Trazado 257" d="M149.078,332.9h90.427a2.842,2.842,0,0,0,1.419-.215,1.863,1.863,0,0,0-.867-3.512c-.06,0-.122,0-.182,0-.442,0-.884,0-1.327,0H152.725c-1.18,0-2.361-.016-3.54,0a2.088,2.088,0,0,0-.975.215,1.864,1.864,0,0,0,.868,3.511c.948.054.945-1.421,0-1.475-.572-.033-.441-.726.049-.776a3.353,3.353,0,0,1,.337,0h86.82c1.206,0,2.413-.009,3.619,0a1.053,1.053,0,0,1,.216,0c.538.127.329.73-.118.773-.326.031-.671,0-1,0H149.078a.738.738,0,0,0,0,1.475" transform="translate(-89.867 -200.935)" fill="#ff3e6c"/>
    <path id="Trazado_258" data-name="Trazado 258" d="M38.327,24.315a3.377,3.377,0,1,1-3.377-3.377,3.377,3.377,0,0,1,3.377,3.377" transform="translate(-19.273 -12.781)" fill="#ea2f2f"/>
    <path id="Trazado_259" data-name="Trazado 259" d="M71.952,24.315a3.377,3.377,0,1,1-3.377-3.377,3.377,3.377,0,0,1,3.377,3.377" transform="translate(-39.799 -12.781)" fill="#ffbd11"/>
    <path id="Trazado_260" data-name="Trazado 260" d="M105.578,24.315a3.377,3.377,0,1,1-3.377-3.377,3.377,3.377,0,0,1,3.377,3.377" transform="translate(-60.326 -12.781)" fill="#00c6ad"/>
    <path id="Trazado_261" data-name="Trazado 261" d="M544.089,248.987,522.456,244.1a13.749,13.749,0,0,0-10.683,1.991l-53.335,35.749-36.786-53.954-21.1,14.871L436.506,295a28.325,28.325,0,0,0,34.937,9.781l59.5-29.749" transform="translate(-244.514 -139.113)" fill="#fc7272"/>
    <path id="Trazado_262" data-name="Trazado 262" d="M543.119,247.108,523.7,242.725c-.818-.185-1.634-.382-2.455-.552a14.617,14.617,0,0,0-10.6,1.851c-1.049.649-2.058,1.369-3.083,2.055L490.52,257.506l-21.352,14.312-8.049,5.4c-1.324.887-2.8,1.7-4.036,2.705-.056.046-.123.082-.183.123l1.009.265-3.667-5.378-8.8-12.911-10.6-15.552-9.17-13.449c-1.492-2.189-2.947-4.41-4.48-6.571-.022-.031-.042-.062-.063-.093a.747.747,0,0,0-1.009-.265l-7.146,5.037-11.328,7.986-2.622,1.848a.749.749,0,0,0-.265,1.009l4.831,7.019L414.537,264.9l11.911,17.306,7.579,11.011a37.3,37.3,0,0,0,3.543,4.537,29.013,29.013,0,0,0,33.957,6.053l11.3-5.651,18.467-9.234,18.071-9.036,10.292-5.147.487-.243c.849-.425.1-1.7-.744-1.274l-7.186,3.593-16.7,8.349-18.919,9.46-13.849,6.925c-.917.459-1.828.931-2.751,1.376a26.522,26.522,0,0,1-11.867,2.429,27.863,27.863,0,0,1-22.27-12.068q-2.978-4.321-5.95-8.644l-11.3-16.417L407.06,251.44l-6.709-9.748-.323-.47-.265,1.009,7.146-5.037,11.328-7.986,2.622-1.848-1.009-.265,3.667,5.378,8.8,12.911,10.6,15.552,9.17,13.449c1.492,2.189,2.947,4.41,4.48,6.571l.063.093a.749.749,0,0,0,1.009.265l9.9-6.636,20.8-13.942,18.346-12.3q2.036-1.364,4.071-2.729a13.859,13.859,0,0,1,4.939-2.12,14.292,14.292,0,0,1,6.09.216l20.338,4.59.6.134c.925.209,1.319-1.214.392-1.423" transform="translate(-243.348 -137.945)"/>
    <path id="Trazado_263" data-name="Trazado 263" d="M532.665,267.4a16.8,16.8,0,0,0-13.757,2.931l-44.194,33.034-3.5,2.343L453.005,279a54.845,54.845,0,0,1-12.045,9.842c-4.23,2.672-16.1,4.969-19.468,6.173l20.579,32.905c10.762,12.1,26.211,10.384,38.69,4.78l7.822-4.185,35.43-16.218,24.839-41.241Z" transform="translate(-257.294 -162.982)" fill="#4dcfd3"/>
    <path id="Trazado_264" data-name="Trazado 264" d="M531.7,265.572a17.735,17.735,0,0,0-14.329,3.009c-.6.444-1.2.9-1.8,1.342l-10.838,8.1L489.72,289.247,477.08,298.7c-2.085,1.559-4.153,3.085-6.316,4.534l-1.082.725,1.009.265-6.178-9.061-9.769-14.329-2.266-3.323a.746.746,0,0,0-1.159-.149,40.584,40.584,0,0,1-5.795,5.432c-1.255.994-2.552,1.935-3.875,2.835a28.853,28.853,0,0,1-3.212,2.011,36.219,36.219,0,0,1-5.968,2.185c-2.228.664-4.48,1.245-6.733,1.821-1.871.479-3.782.9-5.605,1.542a.747.747,0,0,0-.441,1.084l6.973,11.15,11.092,17.734c.824,1.318,1.606,2.678,2.48,3.965a11.9,11.9,0,0,0,1.568,1.694,28.592,28.592,0,0,0,3.433,2.872,26.233,26.233,0,0,0,7.124,3.569,32.566,32.566,0,0,0,15.713.747,47.241,47.241,0,0,0,7.593-2.044,36.524,36.524,0,0,0,4.98-2.1c2.379-1.273,4.731-2.63,7.151-3.825,1.225-.605,2.49-1.14,3.732-1.709l18.731-8.574,8.768-4.013,2.839-1.3a12.359,12.359,0,0,0,1.316-.6,1.779,1.779,0,0,0,.547-.685l1.035-1.718,3.9-6.479,11.243-18.667,8.011-13.3.406-.673a.744.744,0,0,0-.441-1.084l-14.192-3.2-2-.45c-.925-.209-1.319,1.214-.392,1.423l14.192,3.2,2,.45-.441-1.083-5.761,9.565-11.219,18.627L522.5,310.329a2.927,2.927,0,0,0-.242.4c-.1.254.322-.181.18-.173a1.63,1.63,0,0,0-.423.194l-.869.4-6.743,3.087-19.478,8.916c-3.4,1.554-6.815,3.037-10.107,4.8l-4.631,2.478a34.669,34.669,0,0,1-4.409,1.921,41.043,41.043,0,0,1-15.381,2.778,26.134,26.134,0,0,1-14.724-4.941,26.651,26.651,0,0,1-3.258-2.85,9.61,9.61,0,0,1-.945-1.027c-.339-.466-.619-.99-.924-1.478L430.648,309l-9.173-14.667-.51-.816-.441,1.084c1.607-.568,3.287-.949,4.936-1.371,2.313-.592,4.628-1.18,6.92-1.85a45.53,45.53,0,0,0,6.237-2.2,37.854,37.854,0,0,0,6.943-4.563,43.4,43.4,0,0,0,6.8-6.217l-1.159-.15,6.178,9.061,9.77,14.329,2.266,3.323a.749.749,0,0,0,1.009.265c2.152-1.443,4.24-2.9,6.312-4.448l11.671-8.724,15.026-11.232,11.757-8.788,2.7-2.019a16.1,16.1,0,0,1,13.41-3.023c.926.2,1.321-1.219.392-1.423" transform="translate(-256.13 -161.86)"/>
    <path id="Trazado_265" data-name="Trazado 265" d="M421.022,328.072c.817,1.293,3.778,1.044,7.8-.392L425,320.925c-3.21,3.133-4.82,5.815-3.979,7.147" transform="translate(-256.873 -195.904)"/>
    <path id="Trazado_266" data-name="Trazado 266" d="M419.232,327.3a3.463,3.463,0,0,0,3.191,1.2,18.887,18.887,0,0,0,5.442-1.253.749.749,0,0,0,.441-1.084l-3.347-5.918-.473-.837a.746.746,0,0,0-1.159-.149,20.078,20.078,0,0,0-3.694,4.524c-.567,1.037-1.07,2.407-.4,3.517a.738.738,0,0,0,1.274-.744c-.023-.039-.046-.078-.066-.118-.038-.079.037.134,0,0-.016-.062-.064-.316-.045-.136a3.308,3.308,0,0,1-.006-.335c0-.031.019-.182,0-.031.008-.057.019-.113.031-.169a4.655,4.655,0,0,1,.631-1.493,19.838,19.838,0,0,1,3.319-3.972l-1.159-.149,3.347,5.918.473.837.441-1.083A18.721,18.721,0,0,1,422.714,327a7.281,7.281,0,0,1-.88.018,2.328,2.328,0,0,1-.62-.082,2.92,2.92,0,0,1-.327-.1c.135.05-.118-.065-.161-.088a1.1,1.1,0,0,1-.1-.065c.129.088.021.019-.007-.01s-.066-.065-.1-.1c-.1-.109.073.109-.017-.027-.521-.789-1.8-.051-1.274.744" transform="translate(-255.719 -194.757)"/>
    <path id="Trazado_267" data-name="Trazado 267" d="M436.575,249.777l-14.922-21.886-21.1,14.871,12.087,21.372,3.82,6.755a61.934,61.934,0,0,0,11.717-5.915,54.835,54.835,0,0,0,12.045-9.842Z" transform="translate(-244.514 -139.113)" fill="#ffc2d6"/>
    <path id="Trazado_268" data-name="Trazado 268" d="M436.06,248.237l-5.033-7.381-8.05-11.808-1.84-2.7a.747.747,0,0,0-1.009-.265l-7.145,5.037-11.341,7.994-2.611,1.84a.756.756,0,0,0-.264,1.009l6.306,11.151,5.871,10.381,3.73,6.6a.745.745,0,0,0,.833.339,59.342,59.342,0,0,0,10.435-5.09,69.59,69.59,0,0,0,9.878-7.1,35.544,35.544,0,0,0,3.775-3.756.756.756,0,0,0,.115-.894l-3.65-5.354c-.532-.78-1.811-.042-1.274.744l3.651,5.355q.058-.447.115-.894a43.374,43.374,0,0,1-7.393,6.653,73.748,73.748,0,0,1-10.607,6.544,48.654,48.654,0,0,1-5.436,2.371l.833.339-5.053-8.935-8.43-14.906-2.424-4.286c-.088.337-.176.673-.264,1.009l7.145-5.036,11.341-7.994,2.611-1.84-1.009-.265,5.032,7.381,8.051,11.808,1.839,2.7c.532.78,1.811.043,1.274-.744" transform="translate(-243.363 -137.945)"/>
    <path id="Trazado_269" data-name="Trazado 269" d="M384.664,214.024l-7.417-13.348-2.413-19.7s-17.112-1.734-11.465-14.178,25.279-8.25,28.547,2.422c1.333,4.353,2.64,7.953,3.72,10.69a50.458,50.458,0,0,0,5.3,9.987l3.139,4.583" transform="translate(-221.117 -97.159)" fill="#ffc2d6"/>
    <path id="Trazado_270" data-name="Trazado 270" d="M384.147,212.5l-6.5-11.689-.921-1.659.1.372q-.408-3.334-.816-6.668-.648-5.291-1.3-10.583l-.3-2.453a.768.768,0,0,0-.738-.737c-.074-.007-.148-.019-.222-.027-.171-.019.136.02.064.009l-.145-.02c-.125-.019-.25-.037-.374-.058q-1.05-.173-2.083-.433a17.526,17.526,0,0,1-5.556-2.3,7.339,7.339,0,0,1-3.491-4.97,8.811,8.811,0,0,1,.415-3.8,12.8,12.8,0,0,1,2.205-4.184c3.716-4.575,10.128-5.386,15.523-3.8a16.748,16.748,0,0,1,7.224,4.185,11.946,11.946,0,0,1,2.315,3.277,16.965,16.965,0,0,1,.778,2.2q.585,1.87,1.217,3.725a72.358,72.358,0,0,0,5.522,12.923c1.435,2.488,3.122,4.826,4.744,7.193l.47.687c.533.778,1.812.041,1.274-.745-1.18-1.722-2.38-3.432-3.535-5.17a60.4,60.4,0,0,1-6.359-13.292c-.835-2.336-1.51-4.727-2.338-7.063a12.826,12.826,0,0,0-2.16-3.792,17.254,17.254,0,0,0-7.319-5.068c-5.649-2.151-12.713-1.8-17.287,2.5a13.6,13.6,0,0,0-4.209,8.691,8.146,8.146,0,0,0,2.746,6.606c2.771,2.509,6.709,3.709,10.36,4.17.074.009.148.019.222.026l-.737-.738.668,5.455q.6,4.927,1.206,9.854l.423,3.45a4.253,4.253,0,0,0,.259,1.394c1.132,2.187,2.4,4.316,3.594,6.469,1.236,2.225,2.414,4.5,3.714,6.685.023.038.043.078.065.117.461.83,1.736.086,1.274-.745" transform="translate(-219.962 -96.009)"/>
    <path id="Trazado_271" data-name="Trazado 271" d="M366.838,167.792s.951-6.529,6.915-5.6,12.135,3.982,16.71,13.057" transform="translate(-223.931 -98.955)" fill="#ffc2d6"/>
    <path id="Trazado_272" data-name="Trazado 272" d="M366.416,166.832a6.321,6.321,0,0,1,.166-.745q.108-.4.251-.782a5.555,5.555,0,0,1,.362-.812,4.8,4.8,0,0,1,3.624-2.771,9.239,9.239,0,0,1,3.134.317,21.672,21.672,0,0,1,3.059.91,18.827,18.827,0,0,1,5.8,3.552,26.75,26.75,0,0,1,5.878,7.968c.43.847,1.7.1,1.274-.745-2.619-5.166-6.5-9.677-11.933-11.946a21.512,21.512,0,0,0-3.213-1.052,13.386,13.386,0,0,0-3.543-.512,6.126,6.126,0,0,0-4.989,2.9,8.621,8.621,0,0,0-1.3,3.324.763.763,0,0,0,.515.908.743.743,0,0,0,.907-.515" transform="translate(-222.798 -97.799)"/>
    <path id="Trazado_273" data-name="Trazado 273" d="M363.682,184.14s-2.193-2.86-6.905-8.182c-9.2-10.591-24.67-1.783-24.67-1.783-5.46,1.133-2.177,7.551,4.11,5.895s12.023-2.963,16.205,3.658-5.01,8.424-11.042,9.1c-6.309.7-5.626,6.063,1.554,6.737a22.916,22.916,0,0,1,2.557.387,18.582,18.582,0,0,1,11.444,7.708l7.654,13.434" transform="translate(-201.041 -104.226)" fill="#ffc2d6"/>
    <path id="Trazado_274" data-name="Trazado 274" d="M363.167,182.652c-.8-1.042-1.638-2.055-2.48-3.063q-1.523-1.825-3.088-3.615a27.743,27.743,0,0,0-3.549-3.665c-4.242-3.362-9.687-3.959-14.872-2.955a30.467,30.467,0,0,0-5.742,1.736c-.655.268-1.3.552-1.941.862-.288.14-.572.33-.869.446-.015.006-.028.019-.044.025.19-.069-.238.026-.274.037q-.231.067-.455.153a4.448,4.448,0,0,0-1.439.862,2.967,2.967,0,0,0-.949,2.446c.214,2.165,2.332,3.608,4.335,3.933a10.135,10.135,0,0,0,4.259-.4,41.832,41.832,0,0,1,4.27-.925,10.149,10.149,0,0,1,7.388,1.273,10.766,10.766,0,0,1,3.053,3.4,6.109,6.109,0,0,1,.71,1.637,3.406,3.406,0,0,1,.079,1.238,3.26,3.26,0,0,1-1.36,2.044,9.9,9.9,0,0,1-2.779,1.392,34.291,34.291,0,0,1-7.194,1.452c-2.03.24-4.823,1.1-5.042,3.528-.2,2.254,2.206,3.656,4.044,4.213,1.645.5,3.387.5,5.062.864a17.411,17.411,0,0,1,4.6,1.709,17.974,17.974,0,0,1,3.937,2.9,14.767,14.767,0,0,1,2.349,2.787c.616,1.007,1.172,2.057,1.756,3.083l5.491,9.637.375.658a.738.738,0,0,0,1.274-.744l-4.33-7.6-2.627-4.61a18.655,18.655,0,0,0-2.664-3.665,19.35,19.35,0,0,0-8.162-5.143,33.022,33.022,0,0,0-5.14-.951,7.617,7.617,0,0,1-3.516-1.307,2.9,2.9,0,0,1-.753-.827,1.1,1.1,0,0,1-.178-.409.846.846,0,0,1-.053-.427c0-.053.027-.237,0-.1a2.505,2.505,0,0,1,.062-.256,1.3,1.3,0,0,1,.211-.409,2.841,2.841,0,0,1,.849-.724,8.537,8.537,0,0,1,3.3-.831c1.249-.156,2.5-.342,3.728-.6a15.074,15.074,0,0,0,6.477-2.606,4.557,4.557,0,0,0,1.379-5.433,11.267,11.267,0,0,0-6.073-6.159c-2.518-.993-5.322-.734-7.916-.221-1.416.28-2.794.707-4.2,1.008a5.939,5.939,0,0,1-3.484-.24,3.523,3.523,0,0,1-1.868-1.654,1.59,1.59,0,0,1,.094-1.661,2.436,2.436,0,0,1,.985-.727c.369-.161.79-.194,1.148-.369.243-.118.478-.255.72-.376s.478-.232.719-.343q.2-.095.411-.185l.237-.1.2-.086q1.2-.5,2.432-.9c4.388-1.431,9.316-2,13.7-.226a13.313,13.313,0,0,1,3.354,1.97,29,29,0,0,1,3.5,3.647c1.638,1.88,3.256,3.778,4.813,5.725q.213.266.425.535c.1.127.189.245.043.054a.763.763,0,0,0,1.009.265.742.742,0,0,0,.264-1.009" transform="translate(-199.889 -103.111)"/>
    <path id="Trazado_275" data-name="Trazado 275" d="M800.488,242.932l-.545,2.385a13.185,13.185,0,0,0,2.2,10.7q.327.448.687.864A48.386,48.386,0,0,1,814.7,286.344l-1.421,11.512A33.108,33.108,0,0,1,774.2,326.319l-2.757-.527L764.9,275.614l12.244-29.676" transform="translate(-466.92 -148.295)" fill="#ff3e6c"/>
    <path id="Trazado_276" data-name="Trazado 276" d="M798.62,241.6c-.286,1.252-.623,2.506-.787,3.781a13.959,13.959,0,0,0,1.074,7.353c1.008,2.311,2.774,4.049,4.27,6.036a49.352,49.352,0,0,1,4,6.231,47.6,47.6,0,0,1,4.893,13.825q.339,1.806.531,3.634a18.631,18.631,0,0,1,.2,2.787c-.039.769-.191,1.548-.285,2.312q-.5,4.007-.99,8.014a37,37,0,0,1-2.038,8.718,32.559,32.559,0,0,1-15.473,17.192,32.081,32.081,0,0,1-11.268,3.38,33,33,0,0,1-6.153.068,43.859,43.859,0,0,1-4.634-.7l-1.472-.281.541.711q-.224-1.714-.447-3.427-.564-4.324-1.129-8.649l-1.484-11.374q-.766-5.875-1.534-11.75l-1.257-9.635q-.331-2.532-.661-5.065c0-.014-.031-.276-.036-.276.171,0-.111.3,0,.124a1.474,1.474,0,0,0,.1-.234l.975-2.363,3.859-9.353,4.435-10.748,2.716-6.583.134-.324a.743.743,0,0,0-.515-.907.755.755,0,0,0-.907.515l-1.934,4.688-4.244,10.285-4.229,10.251-1.356,3.288a4.183,4.183,0,0,0-.507,1.362,7.79,7.79,0,0,0,.127.971q.168,1.293.337,2.585.57,4.364,1.139,8.729l1.495,11.452q.766,5.864,1.531,11.728l1.247,9.554.644,4.933.029.224a.763.763,0,0,0,.542.711,47.982,47.982,0,0,0,9.6,1.147,33.538,33.538,0,0,0,11.957-2.351,33.751,33.751,0,0,0,21.21-27.46q.41-3.278.809-6.556.234-1.9.468-3.79c.042-.34.1-.682.126-1.023a12.169,12.169,0,0,0-.113-2.068,48.509,48.509,0,0,0-3.555-14.494,50.346,50.346,0,0,0-7.871-12.926,16.827,16.827,0,0,1-2.125-2.985,12.53,12.53,0,0,1-1.191-3.442,14.012,14.012,0,0,1,.279-5.863l.357-1.563c.211-.924-1.211-1.319-1.423-.392" transform="translate(-465.764 -147.159)"/>
    <path id="Trazado_277" data-name="Trazado 277" d="M739.084,168.23l-9.127,38.311s-22.668-2.414-22.093-14.916a19.238,19.238,0,0,1,8.774-14.06c-.868-6.306,1.577-12.628,6.742-18.592" transform="translate(-432.099 -97.044)" fill="#ff3e6c"/>
    <path id="Trazado_278" data-name="Trazado 278" d="M737.25,166.838l-.908,3.81-2.18,9.15-2.637,11.07-2.28,9.569-.749,3.143a13.55,13.55,0,0,0-.357,1.5.6.6,0,0,1-.017.069l.711-.541c-.106-.011-.213-.025-.319-.038l-.173-.023c.238.03.067.009-.044-.007q-.261-.037-.522-.076-1.588-.243-3.158-.585a41.019,41.019,0,0,1-8.887-2.889c-2.866-1.361-5.7-3.223-7.233-6.024a8.475,8.475,0,0,1-1.025-4.443c.009-.2.031-.4.053-.6.018-.157-.007.049,0,.019.007-.051.014-.1.022-.153.018-.116.036-.232.056-.347q.074-.424.17-.843a18.927,18.927,0,0,1,6.381-10.311,19.731,19.731,0,0,1,1.733-1.275.729.729,0,0,0,.365-.637c-.9-6.773,2.2-13.052,6.526-18.07.617-.716-.422-1.764-1.043-1.043-3.627,4.207-6.509,9.217-7.045,14.836a18.808,18.808,0,0,0,.087,4.278l.365-.637a20.679,20.679,0,0,0-8.484,11.295,11.3,11.3,0,0,0-.092,7.22c1.194,3.282,3.982,5.627,6.963,7.272a38.1,38.1,0,0,0,9.514,3.513q1.824.438,3.674.748a18.323,18.323,0,0,0,2.028.293c.029,0,.059.007.088.01a.738.738,0,0,0,.711-.541q.454-1.9.908-3.81l2.18-9.15,2.637-11.07,2.279-9.569c.368-1.545.785-3.087,1.106-4.643,0-.023.011-.046.016-.069.22-.923-1.2-1.317-1.423-.392" transform="translate(-430.977 -95.847)"/>
    <path id="Trazado_279" data-name="Trazado 279" d="M663.845,269.733l34.928,7.883c4.482,1.011,6.376,3.518,6.716,10.973,0,0-.568,56.44-3.8,80.2-5-9.293-69.524-15.8-69.524-15.8L657.868,287.5" transform="translate(-385.895 -164.655)" fill="#fff"/>
    <path id="Trazado_280" data-name="Trazado 280" d="M662.466,269.3l6.446,1.455,13.566,3.062,12.026,2.714c2.406.543,5.224.852,6.893,2.755a7.753,7.753,0,0,1,1.492,3.064,20.853,20.853,0,0,1,.678,5.094c.005.412-.009.825-.014,1.237q-.055,4.37-.139,8.739-.139,7.376-.342,14.751-.248,8.978-.61,17.953c-.252,6.118-.552,12.234-.945,18.344-.342,5.316-.744,10.632-1.346,15.925-.114,1-.254,2.148-.378,3.057l1.348-.176a8.114,8.114,0,0,0-3.247-2.864,34.557,34.557,0,0,0-5.87-2.524,130.907,130.907,0,0,0-16.943-4.324c-6.443-1.3-12.932-2.368-19.434-3.329Q647.341,353,639,352.011q-2.683-.321-5.369-.619c-.835-.092-1.7-.255-2.542-.272-.037,0-.076-.007-.113-.011l.711.934.686-1.748,1.868-4.759,2.763-7.039,3.372-8.59,3.712-9.457,3.73-9.5,3.477-8.859,2.939-7.487,2.114-5.385c.333-.848.712-1.691,1-2.554.013-.037.029-.074.043-.111a.744.744,0,0,0-.515-.907.754.754,0,0,0-.908.515l-.686,1.749-1.867,4.759-2.763,7.04-3.372,8.59-3.712,9.457-3.73,9.5-3.477,8.859-2.939,7.487-2.114,5.386c-.333.847-.712,1.691-1,2.554-.013.037-.029.074-.044.111-.192.489.286.891.711.934,2.136.215,4.269.46,6.4.71,5.193.608,10.313,1.27,15.457,2.007,6.441.922,12.868,1.949,19.259,3.172a159.645,159.645,0,0,1,17.464,4.154c1.158.361,2.309.746,3.445,1.173q.768.289,1.526.6c-.127-.053.188.081.242.1.116.051.233.1.348.154q.336.151.668.31a18.244,18.244,0,0,1,2.268,1.268c.156.1.308.214.459.324.2.145-.044-.041.1.075.066.055.133.108.2.164a6.215,6.215,0,0,1,.676.662c.047.055.092.111.138.167-.167-.2-.005-.006.03.046.073.111.145.221.208.337.278.511,1.261.47,1.348-.176.68-5.007,1.114-10.047,1.483-15.085.443-6.058.771-12.125,1.047-18.193q.42-9.206.688-18.419.24-7.938.4-15.878.106-5.178.179-10.358a26.91,26.91,0,0,0-.825-8.387,8.838,8.838,0,0,0-1.775-3.313,7.449,7.449,0,0,0-2.849-1.91,18.414,18.414,0,0,0-2.815-.774l-10.229-2.309-14.087-3.179-9.122-2.059-.452-.1c-.925-.209-1.319,1.214-.392,1.423" transform="translate(-384.712 -163.508)"/>
    <path id="Trazado_281" data-name="Trazado 281" d="M623.872,455.366l-12.321,30.4h77.273l.049-3.632L678.007,455.35" transform="translate(-373.313 -277.962)" fill="#ffcc3e"/>
    <path id="Trazado_282" data-name="Trazado 282" d="M621.981,454.012,617.8,464.334l-6.62,16.332-1.518,3.747a.743.743,0,0,0,.711.934h74.136c1,0,2.005.026,3.006,0,.044,0,.087,0,.13,0a.75.75,0,0,0,.738-.738c.016-1.164.068-2.333.047-3.5a2.7,2.7,0,0,0-.3-1l-2.269-5.593q-3.334-8.22-6.669-16.44L677.538,454a.76.76,0,0,0-.907-.515.743.743,0,0,0-.515.907l4.451,10.972,5.96,14.691.332.818a1.719,1.719,0,0,0,.092.226c.11.185-.135-.1.005-.115-.062.006-.044,3.288-.049,3.629l.737-.737H613.507c-.992,0-2.016-.073-3.006,0-.043,0-.087,0-.13,0l.711.934,4.184-10.322,6.619-16.332L623.4,454.4a.743.743,0,0,0-.515-.908.755.755,0,0,0-.907.515" transform="translate(-372.133 -276.804)"/>
    <line id="Línea_15" data-name="Línea 15" x2="9.341" y2="14.008" transform="translate(207.631 133.501)" fill="#fff"/>
    <path id="Trazado_283" data-name="Trazado 283" d="M531.153,341.958l3.159,4.737,5.013,7.518,1.169,1.753c.524.786,1.8.048,1.274-.745l-3.159-4.737-5.013-7.518-1.169-1.752c-.524-.786-1.8-.048-1.274.745" transform="translate(-324.159 -208.084)"/>
    <path id="Trazado_284" data-name="Trazado 284" d="M657.868,287.5l-2.761,7.032a12.76,12.76,0,1,0-9.316,23.735l-13.63,34.725s64.525,6.505,69.524,15.8c3.234-23.763,3.8-80.2,3.8-80.2-.339-7.455-2.234-9.961-6.716-10.973l-34.928-7.883" transform="translate(-385.895 -164.655)" fill="#4dcfd3"/>
    <path id="Trazado_285" data-name="Trazado 285" d="M655.974,286.158l-2.76,7.032,1.084-.441a13.736,13.736,0,0,0-8.824-.777,13.5,13.5,0,0,0-1.06,25.861l-.516-.907-1.36,3.465-3.247,8.273-3.945,10.051-3.4,8.651-1.121,2.856c-.177.45-.393.9-.536,1.365-.007.021-.016.042-.024.063-.192.489.286.891.711.934,2.135.215,4.268.46,6.4.71,5.193.608,10.313,1.27,15.458,2.007,6.44.922,12.868,1.948,19.259,3.172a159.662,159.662,0,0,1,17.464,4.154c1.158.36,2.309.746,3.445,1.173.512.192,1.021.393,1.526.6-.127-.053.188.081.242.1l.348.154c.224.1.447.2.668.31a18.175,18.175,0,0,1,2.268,1.268c.156.1.308.214.459.324.2.145-.044-.041.1.075.067.054.134.108.2.164a6.2,6.2,0,0,1,.676.662c.048.055.093.111.138.167-.166-.2,0-.006.03.046.073.111.145.221.208.337.278.511,1.261.47,1.348-.176.68-5.007,1.114-10.047,1.483-15.085.443-6.058.771-12.126,1.047-18.193q.42-9.206.688-18.419.24-7.938.4-15.878.106-5.178.179-10.358a26.919,26.919,0,0,0-.825-8.387,8.835,8.835,0,0,0-1.775-3.313,7.456,7.456,0,0,0-2.849-1.91,18.414,18.414,0,0,0-2.815-.774l-10.229-2.309-14.087-3.179-9.122-2.059-.453-.1c-.924-.209-1.319,1.214-.392,1.423l6.446,1.455,13.566,3.062,12.026,2.714c2.406.543,5.223.852,6.893,2.755a7.75,7.75,0,0,1,1.492,3.064,20.832,20.832,0,0,1,.678,5.094c.005.412-.009.825-.014,1.237q-.055,4.37-.14,8.739-.138,7.376-.342,14.751-.248,8.978-.61,17.953c-.252,6.118-.552,12.234-.945,18.344-.343,5.316-.744,10.632-1.346,15.926-.115,1-.254,2.148-.378,3.057l1.348-.176a8.119,8.119,0,0,0-3.247-2.865,34.617,34.617,0,0,0-5.87-2.524,130.976,130.976,0,0,0-16.943-4.323c-6.444-1.3-12.932-2.368-19.434-3.329q-8.3-1.228-16.643-2.22-2.683-.321-5.369-.618c-.836-.092-1.7-.256-2.542-.272-.037,0-.075-.008-.112-.011l.711.934,1.36-3.465L636.3,340.3l3.945-10.051,3.4-8.651,1.121-2.857c.177-.45.393-.9.536-1.364.007-.021.016-.042.024-.063a.749.749,0,0,0-.515-.907,12.026,12.026,0,1,1,8.748-22.387.755.755,0,0,0,1.084-.441l2.76-7.032a.744.744,0,0,0-.515-.908.754.754,0,0,0-.907.515" transform="translate(-384.712 -163.508)"/>
    <path id="Trazado_286" data-name="Trazado 286" d="M800.621,289.78l13.843,2.716a19.569,19.569,0,0,1,10.479,6.272l23.911,24.244a33.76,33.76,0,0,1,4.913,41.076L841.458,384.6l-42.451.253,28.553-34.871-28.553-21.478" transform="translate(-487.743 -176.892)" fill="#4dcfd3"/>
    <path id="Trazado_287" data-name="Trazado 287" d="M799.267,289.352l10.31,2.023c1.227.241,2.466.447,3.685.728a18.9,18.9,0,0,1,9.584,5.581c1.526,1.651,3.139,3.226,4.718,4.827l9.391,9.521,8.312,8.429,1.824,1.849a33,33,0,0,1,9.466,26.179,32.758,32.758,0,0,1-2.506,10.024,39.545,39.545,0,0,1-2.512,4.784l-5.872,9.787-5.684,9.474-.32.533.637-.365-4.242.025-10.133.06-12.25.073-10.592.063-3.505.021a15.833,15.833,0,0,0-1.654.01.7.7,0,0,1-.075,0l.522,1.259,2.852-3.484,6.816-8.323,8.24-10.063,7.125-8.7c1.157-1.413,2.325-2.817,3.471-4.238l.051-.062a.755.755,0,0,0-.15-1.159l-2.836-2.134-6.813-5.125-8.245-6.2-7.133-5.365-2.362-1.777c-.367-.276-.725-.591-1.113-.837-.017-.011-.034-.026-.051-.038a.742.742,0,0,0-1.009.264.755.755,0,0,0,.265,1.009l2.836,2.134,6.813,5.125,8.245,6.2,7.133,5.365,2.362,1.777c.364.273.723.6,1.113.837.018.011.034.026.051.038q-.075-.579-.149-1.159l-2.852,3.483-6.815,8.323-8.24,10.063-7.125,8.7c-1.157,1.413-2.325,2.816-3.471,4.238l-.05.062a.748.748,0,0,0,.522,1.259l2.984-.018,7.463-.044,9.853-.059,10-.06,8.088-.048c1.316-.008,2.639.024,3.954-.024.526-.019.729-.344.966-.738l1.348-2.245,4.783-7.973,4.635-7.725a52.787,52.787,0,0,0,3.4-6.262,34.49,34.49,0,0,0-.926-29.34,35.553,35.553,0,0,0-6.454-8.842l-3.869-3.923-6.621-6.713-6.98-7.078-5.054-5.124c-.35-.354-.706-.7-1.05-1.064a24.419,24.419,0,0,0-4.427-3.83,19.568,19.568,0,0,0-6.5-2.709c-.861-.179-1.727-.339-2.59-.508l-9.245-1.814-1.953-.383c-.928-.182-1.325,1.24-.392,1.423" transform="translate(-486.585 -175.753)"/>
    <line id="Línea_16" data-name="Línea 16" x2="12.184" y2="8.828" transform="translate(338.246 172.097)" fill="#fff"/>
    <path id="Trazado_288" data-name="Trazado 288" d="M866.74,441.241l10.677,7.735,1.507,1.092a.744.744,0,0,0,1.009-.265.753.753,0,0,0-.264-1.009l-10.677-7.736-1.508-1.092a.743.743,0,0,0-1.009.264.753.753,0,0,0,.265,1.009" transform="translate(-528.867 -268.507)"/>
    <line id="Línea_17" data-name="Línea 17" x1="4.47" y2="13.992" transform="translate(270.154 193.812)" fill="#ea2f2f"/>
    <path id="Trazado_289" data-name="Trazado 289" d="M696.064,496.2l-3.915,12.255-.555,1.737c-.29.907,1.134,1.295,1.423.392l3.915-12.255.555-1.737c.289-.907-1.134-1.295-1.423-.392" transform="translate(-422.15 -302.588)"/>
    <path id="Trazado_290" data-name="Trazado 290" d="M686.7,489.726l-1.868,6.053a9.8,9.8,0,0,0-.61,3.787,11.465,11.465,0,0,0,1.362,4l1.514,3.144c.412.855,1.685.108,1.274-.745l-1.253-2.6a14.135,14.135,0,0,1-1.34-3.249,7.479,7.479,0,0,1,.417-3.756l1.095-3.548.833-2.7c.28-.909-1.143-1.3-1.423-.392" transform="translate(-417.663 -298.632)"/>
    <path id="Trazado_291" data-name="Trazado 291" d="M741.956,275.994a13.135,13.135,0,0,0,25.661,5.622Z" transform="translate(-452.73 -168.477)" fill="#ffc2d6"/>
    <path id="Trazado_292" data-name="Trazado 292" d="M740.127,274.652a13.872,13.872,0,0,0,27.083,6.014.748.748,0,0,0-.515-.907l-8.669-1.9-13.819-3.028-3.173-.7c-.925-.2-1.321,1.219-.392,1.423l8.669,1.9,13.819,3.028,3.173.7-.515-.908a12.394,12.394,0,0,1-23.129,3.084,12.423,12.423,0,0,1-1.109-8.314c.2-.926-1.224-1.322-1.423-.392" transform="translate(-451.612 -167.331)"/>
    <path id="Trazado_293" data-name="Trazado 293" d="M753.918,263.22l4.244-12,17.568-1.2-4.893,16.23" transform="translate(-460.219 -152.624)" fill="#ffc2d6"/>
    <path id="Trazado_294" data-name="Trazado 294" d="M753.443,262.258l3.714-10.5.529-1.5-.711.542,5.925-.4,9.456-.643,2.187-.149-.711-.934-1.647,5.464-2.642,8.763-.6,2a.738.738,0,0,0,1.423.392l1.647-5.464,2.642-8.764.6-2a.743.743,0,0,0-.711-.934l-5.924.4-9.456.644-2.187.149a.772.772,0,0,0-.711.542l-3.714,10.5-.529,1.5c-.317.9,1.108,1.283,1.423.392" transform="translate(-459.033 -151.466)"/>
    <path id="Trazado_295" data-name="Trazado 295" d="M756.563,208.3a27.756,27.756,0,0,1-10.48-.739c-15.462-6.962.385-33.019.385-33.019l30.472,8.23s1.922,7.66.717,10.541c-2.076,4.962-8.191,7.086-11.606,13.256" transform="translate(-451.301 -106.547)" fill="#ffc2d6"/>
    <path id="Trazado_296" data-name="Trazado 296" d="M755.407,206.409a26.314,26.314,0,0,1-8.445-.307,8.269,8.269,0,0,1-2.051-.513,12.8,12.8,0,0,1-1.127-.62,10.154,10.154,0,0,1-1.83-1.439,11.5,11.5,0,0,1-3.057-8.016,29.526,29.526,0,0,1,1.589-9.571,57.428,57.428,0,0,1,3.307-8.164q.666-1.357,1.393-2.683c.232-.422.531-.838.727-1.277a.616.616,0,0,1,.035-.059l-.833.339,10.3,2.781,16.41,4.432,3.767,1.017-.515-.515a28.515,28.515,0,0,1,1.067,8.393,7.4,7.4,0,0,1-2.086,4.414,51.279,51.279,0,0,1-4.576,4.244,24.338,24.338,0,0,0-5.219,6.178c-.464.829.81,1.574,1.274.744a22.317,22.317,0,0,1,4.635-5.563c1.6-1.448,3.318-2.779,4.768-4.381a9.315,9.315,0,0,0,2.621-4.99,20.823,20.823,0,0,0-.318-5.685c-.2-1.257-.435-2.513-.744-3.747a.737.737,0,0,0-.515-.515l-10.3-2.781-16.41-4.432-3.766-1.018a.755.755,0,0,0-.833.339c-.675,1.11-1.279,2.268-1.862,3.428a62.491,62.491,0,0,0-3.5,8.327,33.03,33.03,0,0,0-1.9,10.045,13.748,13.748,0,0,0,2.856,9.061,11.873,11.873,0,0,0,4.086,3.078,9.691,9.691,0,0,0,2.3.587q1.155.219,2.323.356a26.479,26.479,0,0,0,4.406.171c.675-.032,1.348-.1,2.018-.185a.762.762,0,0,0,.738-.737c0-.358-.34-.791-.738-.738" transform="translate(-450.145 -105.393)"/>
    <path id="Trazado_297" data-name="Trazado 297" d="M804.325,220.62c.093-.14.191-.277.29-.413q.075-.1.152-.206l.075-.1.045-.059c.052-.071-.11.14-.033.042.142-.179.284-.358.432-.532a11.869,11.869,0,0,1,1.065-1.116c.09-.081.181-.161.275-.238.019-.016.188-.149.092-.076s.082-.06.112-.081a5.59,5.59,0,0,1,.6-.356c.089-.048-.158.054.011,0,.061-.021.122-.043.185-.06s.1-.02.146-.034c.108-.03-.076.015-.087.01.015.007.07-.007.09-.007.052,0,.107,0,.159,0,.105-.007-.079-.007-.092-.015.02.013.062.009.085.016a.747.747,0,0,0,.151.045c-.013.006-.171-.09-.078-.032.031.019.065.034.1.053a.738.738,0,1,0,.745-1.274c-1.11-.654-2.319.011-3.2.725a12.967,12.967,0,0,0-2.166,2.373c-.145.194-.287.39-.421.591a.738.738,0,0,0,1.274.744" transform="translate(-490.149 -131.805)"/>
    <path id="Trazado_298" data-name="Trazado 298" d="M775.727,200.145a4.5,4.5,0,0,1,.538-.116c.054-.01.193-.023-.037,0l.131-.015c.113-.012.227-.021.341-.028a6.338,6.338,0,0,1,.745,0c.063,0,.126.009.189.015.023,0,.249.03.163.018s.147.026.171.03c.069.013.138.027.207.042a5.6,5.6,0,0,1,.932.289c-.078-.032.129.06.155.073.088.042.174.086.259.133.152.083.3.173.444.269a5.657,5.657,0,0,1,.942.813c.657.688,1.7-.356,1.043-1.043a6.8,6.8,0,0,0-4.38-2.106,6.025,6.025,0,0,0-2.235.195c-.9.281-.518,1.706.392,1.423" transform="translate(-472.979 -121.172)"/>
    <path id="Trazado_299" data-name="Trazado 299" d="M748.953,191.918c-.3.044-.022.006.107,0a6.622,6.622,0,0,1,.7,0,7.177,7.177,0,0,1,2.308.488,2.945,2.945,0,0,1,1.824,2.749,4.844,4.844,0,0,1-1.486,2.974,10.044,10.044,0,0,1-1.741,1.506,4.486,4.486,0,0,0-1.032.713,1.984,1.984,0,0,0-.335.829c-.3,1.623,1.4,2.232,2.68,2.449.928.158,1.328-1.264.392-1.423-.492-.083-1.337-.174-1.64-.6.01.014,0-.1,0-.075a.956.956,0,0,1,.076-.267c-.1.175.016.019.1-.018a3.343,3.343,0,0,0,.37-.238,10.838,10.838,0,0,0,3.2-3.153,4.862,4.862,0,0,0,.783-3.752,4.4,4.4,0,0,0-2.61-3.044,7.993,7.993,0,0,0-4.081-.558.742.742,0,0,0-.515.907.757.757,0,0,0,.907.515" transform="translate(-456.62 -116.243)"/>
    <path id="Trazado_300" data-name="Trazado 300" d="M752.809,202.674a1.1,1.1,0,1,1-.751-1.37,1.1,1.1,0,0,1,.751,1.37" transform="translate(-458.22 -122.856)"/>
    <path id="Trazado_301" data-name="Trazado 301" d="M751.877,202c-.009.029-.02.057-.029.086.021-.067.011-.024,0-.006a1.4,1.4,0,0,1-.08.139c-.012.017-.054.067,0,.006-.015.018-.031.037-.047.054a1.251,1.251,0,0,1-.115.107c.069-.057-.041.025-.065.039s-.05.027-.075.04c-.079.042.05-.015,0,0s-.089.03-.136.042l-.07.014c.091-.019.008,0-.016,0-.049,0-.1,0-.145,0-.1,0,.075.019-.019,0-.024-.005-.049-.009-.073-.016l-.073-.021s-.094-.033-.04-.013-.035-.017-.037-.018c-.026-.013-.051-.028-.076-.043s-.048-.032-.072-.048c.062.041.021.017.007,0-.038-.037-.076-.07-.111-.111-.014-.017-.05-.069,0,0-.014-.019-.027-.039-.04-.059a1.367,1.367,0,0,1-.074-.137c.04.084,0,0,0-.017s-.014-.045-.02-.068-.01-.046-.016-.07c-.023-.088,0,.056,0,0s-.007-.1-.005-.144c0-.025,0-.049,0-.074-.005.091,0,0,0-.019.011-.055.031-.106.046-.161s-.04.074,0-.007c.011-.022.022-.044.034-.065s.024-.042.037-.062c0,0,.057-.079.022-.033s.025-.027.026-.028c.019-.021.039-.042.06-.061s.042-.038.064-.056c-.062.052-.013.011.005,0a1.237,1.237,0,0,1,.122-.072c.02-.009.08-.031,0,0l.067-.023c.023-.008.045-.014.068-.02s.12-.026.063-.015.031,0,.036,0l.072,0,.073,0c.093,0-.052-.013,0,0s.1.019.147.034l.072.025c-.083-.029.015.008.033.018a1.2,1.2,0,0,1,.136.085c-.073-.052,0,0,.014.015s.041.039.061.06.038.042.056.064c-.039-.048-.011-.013.009.018a1.29,1.29,0,0,1,.081.148c-.036-.075-.008-.017,0,0s.021.064.029.1.008.037.012.055c.007.042.007.037,0-.013,0,.019,0,.039.005.057a1.541,1.541,0,0,1,0,.175c0-.013.015-.079,0-.01-.008.04-.017.079-.028.117a.369.369,0,0,0,.711.2,1.5,1.5,0,0,0-.566-1.609,1.471,1.471,0,0,0-1.663-.026,1.473,1.473,0,1,0,2.229,1.635.372.372,0,0,0-.258-.453.377.377,0,0,0-.454.257" transform="translate(-457.645 -122.281)"/>
    <path id="Trazado_302" data-name="Trazado 302" d="M778.442,210.156a1.1,1.1,0,1,1-.751-1.37,1.1,1.1,0,0,1,.751,1.37" transform="translate(-473.868 -127.424)"/>
    <path id="Trazado_303" data-name="Trazado 303" d="M777.511,209.482c-.009.029-.02.057-.029.086.021-.068.011-.024,0-.006a1.407,1.407,0,0,1-.08.139c-.012.018-.054.067,0,.006-.015.018-.031.037-.047.054a1.2,1.2,0,0,1-.115.107c.069-.057-.041.025-.065.039s-.05.027-.075.04c-.079.043.05-.015,0,0s-.089.031-.136.042l-.07.014c.091-.019.008,0-.016,0-.049,0-.1,0-.145,0-.1,0,.075.019-.019,0l-.074-.016c-.025-.006-.049-.013-.073-.021,0,0-.094-.033-.041-.013s-.035-.017-.037-.018c-.026-.014-.051-.028-.076-.043s-.048-.032-.072-.048c.062.041.021.017.007,0-.038-.036-.076-.07-.111-.11-.015-.017-.05-.069,0,0-.014-.019-.027-.039-.04-.059a1.363,1.363,0,0,1-.074-.136c.04.083,0,0,0-.018s-.014-.045-.02-.068-.01-.046-.016-.069c-.023-.088,0,.056,0,0s-.007-.1-.005-.144c0-.025,0-.049,0-.073-.005.091,0,0,0-.019.011-.055.031-.106.046-.16s-.04.074,0-.008c.011-.022.022-.044.034-.065s.024-.042.037-.062c0,0,.057-.078.022-.033s.025-.027.026-.029c.019-.021.039-.042.06-.061s.042-.038.064-.056c-.062.052-.012.011.005,0a1.152,1.152,0,0,1,.122-.071c.02-.01.08-.032,0,0l.067-.023.068-.02c.01,0,.12-.026.063-.015s.031,0,.037,0l.072,0,.073,0c.093,0-.052-.013,0,0s.1.02.146.034l.072.025c-.083-.029.015.008.033.018a1.257,1.257,0,0,1,.136.085c-.073-.051,0,0,.014.015s.041.039.061.06.038.042.056.064c-.039-.048-.011-.013.009.017a1.283,1.283,0,0,1,.082.148c-.036-.075-.008-.017,0,0s.021.063.028.1.008.037.012.056c.007.042.007.037,0-.013,0,.019,0,.038.005.057a1.514,1.514,0,0,1,0,.175c0-.013.015-.079,0-.01-.008.039-.017.078-.028.117a.369.369,0,1,0,.711.2,1.5,1.5,0,0,0-.566-1.609,1.472,1.472,0,0,0-1.663-.026,1.473,1.473,0,1,0,2.229,1.635.372.372,0,0,0-.257-.453.377.377,0,0,0-.454.258" transform="translate(-473.293 -126.848)"/>
    <path id="Trazado_304" data-name="Trazado 304" d="M762.893,229.106a2.249,2.249,0,0,1-.236.22c-.049.042-.16.107.057-.042-.021.015-.042.032-.063.047q-.081.059-.166.113c-.128.081-.263.144-.4.212-.042.021.186-.073.023-.011l-.108.039c-.089.03-.179.055-.27.076-.041.009-.082.018-.123.025-.205.038.118-.006-.018,0-.1.008-.2.016-.3.016s-.209-.007-.314-.017c-.081-.009-.066-.007.046.007l-.1-.018c-.053-.01-.1-.022-.157-.034a3.414,3.414,0,0,1-.38-.117c-.023-.009-.2-.09-.049-.018-.077-.037-.155-.072-.231-.111a.738.738,0,1,0-.745,1.274,3.874,3.874,0,0,0,3.225.262,3.576,3.576,0,0,0,1.348-.884.738.738,0,0,0-1.043-1.043" transform="translate(-463.325 -139.725)"/>
    <path id="Trazado_305" data-name="Trazado 305" d="M787.437,182.9c6.28-25.57-.011-29.282-10.558-37.215-15.231-11.456-25.113-6.113-30.844,1.039l-1.229,1.59,1.806,5.1a5.826,5.826,0,0,0,3.166,2.055c5.363,1.363,11.5,2.752,14.706,3.335a4.285,4.285,0,0,1,3.356,5.383l-2.229,7.878c1.221-3.574,5.7-7.445,8.265-6.571s4.235,2.409,2.983,6.076a15.007,15.007,0,0,1-4.7,5.779,8.258,8.258,0,0,0-2.486,3,8.416,8.416,0,0,0,3.9,11.3l1.307.63" transform="translate(-454.656 -84.868)" fill="#ff3e6c"/>
    <path id="Trazado_306" data-name="Trazado 306" d="M747.774,175.327a6.837,6.837,0,0,0,3.741,2.308q2.5.633,5.008,1.224c2.873.679,5.754,1.338,8.653,1.9a4.487,4.487,0,0,1,3.046,1.5,3.6,3.6,0,0,1,.588,3.134c-.334,1.237-.7,2.468-1.048,3.7l-1.18,4.171a.738.738,0,0,0,1.423.392,10.354,10.354,0,0,1,2.529-3.8,8.093,8.093,0,0,1,3.536-2.259,3.754,3.754,0,0,1,3.071.894,2.956,2.956,0,0,1,1.035,2.951,8.762,8.762,0,0,1-2.216,4.275,17.847,17.847,0,0,1-1.8,1.825,24.4,24.4,0,0,0-1.954,1.68,9.246,9.246,0,0,0-2.049,8.944,9.145,9.145,0,0,0,2.828,4.283,14.872,14.872,0,0,0,3.2,1.867c.852.41,1.6-.862.745-1.274a14.309,14.309,0,0,1-2.8-1.553,7.721,7.721,0,0,1-2.55-3.715,7.805,7.805,0,0,1,2.838-8.548,17.329,17.329,0,0,0,3.751-3.988A7.932,7.932,0,0,0,779.7,190.5a4.273,4.273,0,0,0-1.9-3.349,5.236,5.236,0,0,0-3.724-1.065,8.759,8.759,0,0,0-4.39,2.526,12.076,12.076,0,0,0-3.106,4.647l1.423.392c.737-2.606,1.489-5.208,2.212-7.818a5.082,5.082,0,0,0-2.952-6.083,21.314,21.314,0,0,0-3.628-.808q-2.281-.477-4.55-1-2.881-.66-5.75-1.372a14.146,14.146,0,0,1-2.582-.735,5.42,5.42,0,0,1-1.937-1.551.743.743,0,0,0-1.043,0,.754.754,0,0,0,0,1.043" transform="translate(-456.34 -106.259)"/>
    <path id="Trazado_307" data-name="Trazado 307" d="M787.007,181.953a95.334,95.334,0,0,0,2.194-11.59,38.025,38.025,0,0,0,.178-8.4,20.469,20.469,0,0,0-1.613-6.258,18.074,18.074,0,0,0-3.117-4.682,34.22,34.22,0,0,0-4.284-3.884c-2.079-1.64-4.2-3.279-6.4-4.755-5.437-3.651-12.122-6.362-18.736-4.744-4.672,1.143-8.442,4.291-11.329,8.026l-.762.986a.763.763,0,0,0,0,1.043.742.742,0,0,0,1.043,0,34.435,34.435,0,0,1,3.908-4.468,17.81,17.81,0,0,1,5.792-3.632c5.764-2.125,11.855-.376,16.983,2.589a71.373,71.373,0,0,1,7.478,5.241,45.134,45.134,0,0,1,4.33,3.669,17.18,17.18,0,0,1,5.037,9.507,30.958,30.958,0,0,1,.228,7.537,73.352,73.352,0,0,1-1.629,10.307q-.344,1.564-.728,3.119c-.226.922,1.2,1.316,1.423.392" transform="translate(-453.515 -83.727)"/>
  </g>
</svg>
