<svg xmlns="http://www.w3.org/2000/svg" width="349.082" height="280" viewBox="0 0 349.082 280">
  <g id="Grupo_306" data-name="Grupo 306" transform="translate(-13046 2083)">
    <rect id="Rectángulo_98" data-name="Rectángulo 98" width="349.08" height="280" transform="translate(13046 -2083)" fill="none"/>
    <g id="Grupo_299" data-name="Grupo 299" transform="translate(-126.515 -25.146)">
      <path id="Trazado_707" data-name="Trazado 707" d="M667.33,15.4c-.6-.727-1.238-1.429-1.884-2.118A29.6,29.6,0,0,0,661.6,9.688a6.318,6.318,0,0,0-2.013-1.111.713.713,0,0,1,.379-1.375,10.867,10.867,0,0,1,4.189,2.776,45.752,45.752,0,0,1,3.49,3.6c.235.268.47.537.7.811a.733.733,0,0,1,0,1.008.719.719,0,0,1-1.008,0" transform="translate(12639.355 -2062.3)"/>
      <path id="Trazado_607" data-name="Trazado 607" d="M652.484,11.478s-9.269-9.982-22.1-7.368-9.679,16.148-6.266,21.265" transform="translate(12673.993 -2060.422)" fill="#ff3e6c"/>
      <path id="Trazado_608" data-name="Trazado 608" d="M651.179,11.158a22.893,22.893,0,0,0-4.231-3.428,24.484,24.484,0,0,0-11.3-4.095c-4.054-.333-8.937.3-11.94,3.322a10.72,10.72,0,0,0-2.661,8.412,18.436,18.436,0,0,0,2.885,8.822c.508.768-.726,1.482-1.231.72a19.925,19.925,0,0,1-2.976-8.459,12.972,12.972,0,0,1,2.056-9.43c2.7-3.587,7.4-4.8,11.694-4.881A24.824,24.824,0,0,1,646.3,5.653a25.542,25.542,0,0,1,5.89,4.5c.625.671-.381,1.682-1.008,1.008" transform="translate(12674.795 -2059.597)"/>
      <path id="Trazado_609" data-name="Trazado 609" d="M547.841,112.236l38.678,52.378c2.289-3.039,8.958-15.5,12.783-18.852a77.431,77.431,0,0,1,6.19-4.909L586.544,115.76a14.15,14.15,0,0,0-9.675-5.529L555.727,107.8" transform="translate(12754.961 -2116.256)" fill="#5f5fff"/>
      <path id="Trazado_610" data-name="Trazado 610" d="M547.65,111.045l3.865,5.234,9.21,12.472,11.2,15.173,9.628,13.038,3.194,4.326a24.09,24.09,0,0,1,1.512,2.048c.018.031.043.058.064.087H585.1c.823-1.1,1.529-2.293,2.246-3.462,1.049-1.711,2.08-3.433,3.134-5.141A59.827,59.827,0,0,1,597.2,145.2a28.934,28.934,0,0,1,2.875-2.543q2.068-1.7,4.246-3.25-.127.488-.256.976l-5.5-7.286-9.65-12.779-3.181-4.213a15.628,15.628,0,0,0-4.325-4.138,15.9,15.9,0,0,0-6.613-2l-6.469-.743-13.153-1.511-.258-.03c-.9-.1-.912-1.531,0-1.426l11.6,1.333,7.28.837a26.138,26.138,0,0,1,5.253.9,15.343,15.343,0,0,1,7.463,5.463l2.5,3.308,9.5,12.579,4.366,5.782c.768,1.017,1.582,2.014,2.31,3.06.034.049.072.1.108.143a.725.725,0,0,1-.256.975q-1.893,1.349-3.7,2.815a35.581,35.581,0,0,0-2.832,2.44,28.473,28.473,0,0,0-3.108,3.924c-2.319,3.343-4.387,6.854-6.5,10.326-.823,1.35-1.626,2.734-2.575,4a.727.727,0,0,1-1.231,0l-3.865-5.234-9.209-12.472-11.2-15.173-9.628-13.038-3.194-4.325c-.5-.678-1.056-1.339-1.512-2.048-.019-.03-.043-.058-.064-.087-.545-.739.692-1.451,1.231-.72" transform="translate(12755.769 -2115.425)"/>
      <path id="Trazado_611" data-name="Trazado 611" d="M566.779,219.917c-1.242-1.416.149-4.866,3.321-9.077l6.946,6.486c-4.984,2.96-8.951,4.093-10.268,2.591" transform="translate(12774.832 -2171.505)"/>
      <path id="Trazado_612" data-name="Trazado 612" d="M565.448,219.6c-.955-1.14-.7-2.7-.243-4.005a22.912,22.912,0,0,1,3.453-5.936.727.727,0,0,1,1.12-.144l6.064,5.662.882.824a.72.72,0,0,1-.144,1.12,25.9,25.9,0,0,1-6.866,3.088c-1.37.334-3.2.551-4.266-.608-.619-.675.387-1.687,1.008-1.008a1.549,1.549,0,0,0,1.114.447,6.721,6.721,0,0,0,2.141-.3,26.068,26.068,0,0,0,6.149-2.845q-.072.56-.144,1.12l-6.064-5.663-.882-.824,1.12-.144a23.451,23.451,0,0,0-3.173,5.234,6.156,6.156,0,0,0-.495,1.875,2.123,2.123,0,0,0,.039.664,1.223,1.223,0,0,0,.2.441c.586.7-.418,1.713-1.008,1.008" transform="translate(12775.658 -2170.686)"/>
      <path id="Trazado_613" data-name="Trazado 613" d="M425.408,165.373a77.829,77.829,0,0,1,6.19-4.909l7.026,8.463,2,2.408,44.778-26.96,8.413,14.5-38.492,30.462c-14.014,8.36-20.13,8.469-27.848,1.842l-5.662-5-8.115-7.535c3.33-6.069,7.886-9.919,11.711-13.273" transform="translate(12928.855 -2135.866)" fill="#ffc2d6"/>
      <path id="Trazado_614" data-name="Trazado 614" d="M424.085,164.047c2.029-1.774,4.139-3.457,6.335-5.021a.713.713,0,0,1,.864.111l7.027,8.466,2,2.406-.864-.111,4.443-2.675,10.721-6.455,12.923-7.781L478.7,146.26c1.807-1.088,3.587-2.266,5.44-3.275.027-.015.052-.032.078-.047a.724.724,0,0,1,.976.256l7.36,12.686,1.052,1.815a.72.72,0,0,1-.111.864l-2.9,2.3-7.239,5.729L473.981,174l-9.315,7.372-7.054,5.582a32.736,32.736,0,0,1-3.727,2.75,62.141,62.141,0,0,1-9.041,4.506,21.486,21.486,0,0,1-7.1,1.575c-4.454.109-8.324-2.089-11.6-4.934-1.942-1.688-3.9-3.372-5.79-5.117q-3.651-3.371-7.282-6.762l-.7-.648a.726.726,0,0,1-.111-.864,38.117,38.117,0,0,1,5.72-7.734c1.914-2.022,4.012-3.85,6.1-5.684.688-.6,1.7.4,1.008,1.008-2.046,1.794-4.1,3.582-5.98,5.554a36.806,36.806,0,0,0-5.62,7.575l-.111-.864,6.718,6.238c1.886,1.751,3.825,3.441,5.755,5.144,2.724,2.4,5.609,4.758,9.276,5.461,4.909.942,9.951-1.349,14.2-3.557,1.567-.815,3.192-1.646,4.673-2.6.076-.049.146-.115.217-.171l1.5-1.185,6.312-5,8.91-7.051,9.462-7.488,7.838-6.2,4.068-3.22.188-.148q-.056.432-.112.864l-7.359-12.686-1.053-1.815.975.256-4.443,2.675L469.778,153.3l-12.923,7.781-11.173,6.727c-1.807,1.088-3.587,2.266-5.439,3.275-.027.014-.052.032-.079.047a.719.719,0,0,1-.864-.112l-7.653-9.219-1.372-1.653.865.112c-2.1,1.494-4.108,3.1-6.046,4.8-.688.6-1.7-.4-1.008-1.008" transform="translate(12929.673 -2135.044)"/>
      <path id="Trazado_615" data-name="Trazado 615" d="M603.076,530.087c.021-1.823.893-3.329,2.838-3.437a6.689,6.689,0,0,1,3,.618l-.524.4c-.447-1.75,1.185-3.191,2.62-3.786a4.826,4.826,0,0,1,5.368,1.207l-.6.347a4.764,4.764,0,0,1-.155-2.829c.567-2.208,2.814-3.139,4.868-3.467v.687c-2.016-.586-5.589-1.756-5.723-4.36-.11-2.147,2.412-3.4,4.113-3.962a16.933,16.933,0,0,1,5.471-.747l-.252.609a30.683,30.683,0,0,1-5.836-5.826c-.673-.951-1.532-2.33-1.177-3.561a2.171,2.171,0,0,1,2.191-1.355,9.6,9.6,0,0,1,4.208,1.056,22.136,22.136,0,0,1,5.862,4.022l-.6.347a41.748,41.748,0,0,1-2.239-10.673c-.073-1.6-.1-3.794,1.062-5.072a2.124,2.124,0,0,1,3,.057,11.182,11.182,0,0,1,3.072,4.8,34.358,34.358,0,0,1,2.077,10.8l-.7-.095a16.24,16.24,0,0,1,4.89-7.849,9.263,9.263,0,0,1,3.857-1.98,1.363,1.363,0,0,1,1.208.384,3.4,3.4,0,0,1,.953,2.957,11.78,11.78,0,0,1-.985,3.562,35.833,35.833,0,0,1-3.166,5.7l-.488-.487c1.119-.714,3.737-2.186,4.8-.555.824,1.269-.357,2.807-1.346,3.548l.073-.56a9.767,9.767,0,0,0,1.354,1.133c.378.255.022.873-.36.616a10.875,10.875,0,0,1-1.5-1.244.363.363,0,0,1,.072-.56c.639-.478,1.713-1.7,1.1-2.563a1.273,1.273,0,0,0-1.247-.335,6.764,6.764,0,0,0-2.579,1.137.359.359,0,0,1-.488-.488c1.626-2.475,3.358-5.208,3.945-8.16a3.524,3.524,0,0,0-.451-3.028,1.215,1.215,0,0,0-.279-.235c-.054-.034-.315-.17-.209-.117-.009,0-.161-.057-.162-.054-.014.058.257-.055.076.012-.376.137-.783.194-1.161.34a9.3,9.3,0,0,0-2.014,1.107,15.038,15.038,0,0,0-5.2,7.909.358.358,0,0,1-.7-.1,35.878,35.878,0,0,0-1.6-9.335,13.711,13.711,0,0,0-2.762-5.221c-.623-.655-1.63-1.386-2.4-.763-1.1.885-1.067,2.94-1.048,4.185a38.858,38.858,0,0,0,2.231,11.04.359.359,0,0,1-.6.347,22.348,22.348,0,0,0-4.883-3.5,11.131,11.131,0,0,0-4.026-1.344c-.69-.062-1.78-.069-2.117.691-.41.926.415,2.173.9,2.9a28.732,28.732,0,0,0,5.889,5.919c.246.2.037.612-.252.608-2.518-.028-5.382.3-7.5,1.795a2.992,2.992,0,0,0-1.358,1.841,2.312,2.312,0,0,0,.905,1.977,10.644,10.644,0,0,0,4.28,2.056c.313.091.365.629,0,.687-1.859.3-3.968,1.067-4.406,3.123a4.123,4.123,0,0,0,.191,2.3c.132.333-.368.6-.6.346a4.128,4.128,0,0,0-4.32-1.16c-1.212.41-2.836,1.636-2.477,3.045a.361.361,0,0,1-.523.4c-.067-.03.048.018.012.005-.055-.02-.109-.045-.164-.065-.174-.065-.35-.126-.529-.18a6.117,6.117,0,0,0-1.621-.286,2.524,2.524,0,0,0-1.642.443,2.853,2.853,0,0,0-.821,2.285.357.357,0,0,1-.713,0" transform="translate(12661.718 -2321.033)"/>
      <path id="Trazado_616" data-name="Trazado 616" d="M627.339,548.664a7.882,7.882,0,0,0-1.982-3.545,1.321,1.321,0,0,0-2.059.075,3.5,3.5,0,0,0,.075,2.651,10.665,10.665,0,0,0,.712,1.8c.126.246-.091.65-.4.524a5.959,5.959,0,0,0-1.559-.389,3.8,3.8,0,0,0-1.458.082c-.261.075-.82.247-.853.592-.044.471.667.986.984,1.232a7.7,7.7,0,0,0,.928.621.361.361,0,0,1,0,.616,1.617,1.617,0,0,0-.709,2.3c.257.382-.36.739-.615.36a2.332,2.332,0,0,1,.965-3.278v.616c-.842-.479-2.552-1.537-2.231-2.716.253-.93,1.6-1.167,2.407-1.172a6.237,6.237,0,0,1,2.331.446l-.4.524c-.708-1.381-1.607-3.543-.85-5.052a1.92,1.92,0,0,1,2.435-.863,4.627,4.627,0,0,1,2.053,2.214,12.084,12.084,0,0,1,.919,2.171c.135.44-.552.628-.687.19" transform="translate(12672.616 -2350.116)"/>
      <path id="Trazado_617" data-name="Trazado 617" d="M705.131,254.147l-.559,2.893a9.242,9.242,0,0,0,4.671,9.88l6.625,3.589,2.382-16.742" transform="translate(12569.591 -2194.522)"/>
      <path id="Trazado_618" data-name="Trazado 618" d="M705.027,253.517c-.192.992-.4,1.983-.575,2.978a8.582,8.582,0,0,0,1.308,6.217c1.572,2.376,4.4,3.5,6.819,4.814l2.858,1.548-1.047.426,2.089-14.682.293-2.06a.718.718,0,0,1,.877-.5.731.731,0,0,1,.5.877l-2.088,14.681q-.147,1.03-.293,2.061a.719.719,0,0,1-1.047.426l-6.207-3.363a10.916,10.916,0,0,1-3.7-3.106,9.928,9.928,0,0,1-1.9-6.429,33.891,33.891,0,0,1,.736-4.269c.174-.9,1.549-.519,1.375.379" transform="translate(12570.382 -2193.703)"/>
      <path id="Trazado_619" data-name="Trazado 619" d="M839.34,339.312l-26.6-14.086-19.452,36.453s10,6.132,18.347-6.842a5.534,5.534,0,0,1,7.307-1.881c3.211,1.755,6.31,3.467,6.31,3.467" transform="translate(12407.277 -2232.838)" fill="#ffc2d6"/>
      <path id="Trazado_620" data-name="Trazado 620" d="M838.143,339.113l-8.973-4.752-14.321-7.582-3.31-1.753.975-.256-1.936,3.629-4.65,8.713-5.6,10.489-4.866,9.118-1.611,3.019a12.041,12.041,0,0,1-.758,1.42.638.638,0,0,0-.034.064q-.128-.488-.256-.975a6.16,6.16,0,0,0,.586.306c.1.048.206.095.31.14s-.126-.05.045.019l.236.093q.457.175.927.313a11.243,11.243,0,0,0,5.387.28,13.628,13.628,0,0,0,7.05-4.109,21.578,21.578,0,0,0,1.88-2.238,24.524,24.524,0,0,1,1.668-2.313,6.317,6.317,0,0,1,4.344-1.979c2.186-.09,4,1.192,5.837,2.2q1.849,1.015,3.694,2.034c.8.444.085,1.676-.72,1.231q-1.492-.824-2.988-1.646-1.459-.8-2.922-1.6a5.525,5.525,0,0,0-2.352-.787,4.9,4.9,0,0,0-4.146,1.86c-.606.78-1.108,1.641-1.716,2.423a22.179,22.179,0,0,1-1.875,2.133,14.84,14.84,0,0,1-7.21,4.133,12.868,12.868,0,0,1-5.919-.138,10.592,10.592,0,0,1-2.835-1.122.728.728,0,0,1-.256-.976l1.937-3.629,4.649-8.714q2.8-5.245,5.6-10.489l4.866-9.118c.785-1.471,1.5-3.014,2.369-4.439.013-.02.023-.042.034-.064a.725.725,0,0,1,.976-.256l8.974,4.751,14.32,7.583,3.31,1.753c.811.429.091,1.661-.72,1.231" transform="translate(12408.114 -2232.024)"/>
      <path id="Trazado_621" data-name="Trazado 621" d="M844.292,353.3c-3.26-1.87-6.348-.906-7.921,1.538-8.349,12.973-18.347,6.842-18.347,6.842l19.452-36.453,10.905,5.817h0a3.4,3.4,0,0,1,4.1,1.956l.124.3a6.2,6.2,0,0,1-5.064,3.956,4.086,4.086,0,0,0-1.284,7.583l1.433.806Z" transform="translate(12382.537 -2232.838)" fill="#ffbd11"/>
      <path id="Trazado_622" data-name="Trazado 622" d="M843.137,353.1a5.641,5.641,0,0,0-4.427-.674,5.948,5.948,0,0,0-3.052,2.756,19.87,19.87,0,0,1-6.29,6.1,12.909,12.909,0,0,1-10.354,1.117,10,10,0,0,1-2.144-.922.728.728,0,0,1-.256-.975q.969-1.814,1.936-3.629,2.326-4.357,4.65-8.714l5.6-10.489,4.865-9.118c.785-1.471,1.5-3.015,2.369-4.439.013-.02.023-.043.035-.064a.724.724,0,0,1,.975-.256l9.533,5.085,1.372.732-.549-.072a4.161,4.161,0,0,1,4.639,1.771,4.021,4.021,0,0,1,.435.912,1.93,1.93,0,0,1-.368,1.356,6.267,6.267,0,0,1-1.649,2.01,7.416,7.416,0,0,1-2.116,1.168c-.694.251-1.453.3-2.135.568a3.411,3.411,0,0,0-1.914,4.262c.484,1.391,1.781,1.954,2.969,2.623a.732.732,0,0,1,.255.975l-3.4,7.658c-.372.837-1.6.113-1.231-.719l3.4-7.659q.128.488.256.976a9.363,9.363,0,0,1-2.682-1.826,4.836,4.836,0,0,1-.871-4.857,4.975,4.975,0,0,1,3.851-3.063,5.764,5.764,0,0,0,3.649-2.19,5.4,5.4,0,0,0,.305-.494q.085-.151.159-.307c.026-.054.216-.362.135-.152-.04.106.049.094-.022-.03-.022-.038-.036-.086-.054-.125a3.057,3.057,0,0,0-.327-.551,2.724,2.724,0,0,0-2.124-1.045c-.494,0-.925.239-1.391.009-.186-.092-.367-.2-.551-.293l-5.606-2.99-4.689-2.5.976-.256L835.36,328.4l-4.65,8.714-5.6,10.489q-2.432,4.56-4.865,9.118l-1.611,3.019a12.02,12.02,0,0,1-.757,1.42.381.381,0,0,0-.034.064q-.129-.488-.256-.976c.139.085.284.158.429.23.169.083.34.161.513.236-.168-.072.121.047.18.071q.185.071.37.136a11.576,11.576,0,0,0,4.14.675c5.233-.109,9.036-3.917,11.784-8a6.178,6.178,0,0,1,3.709-2.646,7.25,7.25,0,0,1,5.142.92c.8.447.083,1.679-.72,1.231" transform="translate(12383.332 -2232.023)"/>
      <path id="Trazado_623" data-name="Trazado 623" d="M864.311,330.924a1.571,1.571,0,0,1-2.145.573l-1.287-.744L845.961,358.8a17.5,17.5,0,0,0,5.723,2.221l19.994-37.073-5.5-3.2-3.825,7.228,1.389.8a1.57,1.57,0,0,1,.573,2.145" transform="translate(12350.507 -2230.438)" fill="#fff"/>
      <path id="Trazado_624" data-name="Trazado 624" d="M864.11,330.465a2.326,2.326,0,0,1-2.978.9c-.493-.234-.957-.544-1.429-.817l.975-.256q-2.527,4.752-5.054,9.5L847.6,354.879l-1.843,3.466-.255-.976a14.723,14.723,0,0,0,5.553,2.149l-.806.328,1.993-3.694,4.756-8.82,5.783-10.722,5-9.272,1.642-3.044a11.743,11.743,0,0,1,.787-1.459.534.534,0,0,0,.033-.062l.256.975-5.5-3.2.975-.256-3.825,7.228-.256-.976c.484.28.99.538,1.456.847a2.327,2.327,0,0,1,.762,3.077c-.419.817-1.65.1-1.231-.72.532-1.037-1.029-1.581-1.706-1.972a.727.727,0,0,1-.256-.976l3.826-7.228a.722.722,0,0,1,.975-.256l5.5,3.2a.727.727,0,0,1,.256.976l-1.992,3.694-4.757,8.82-5.782,10.722-5,9.272c-.8,1.492-1.539,3.059-2.428,4.5-.013.02-.023.042-.034.062a.738.738,0,0,1-.805.328,15.739,15.739,0,0,1-5.893-2.293.728.728,0,0,1-.256-.975l5.054-9.5L857.6,333.04l1.843-3.466a.723.723,0,0,1,.976-.256c.675.391,1.83,1.393,2.456.427.5-.768,1.732-.053,1.231.72" transform="translate(12351.324 -2229.619)"/>
      <line id="Línea_24" data-name="Línea 24" y1="2.069" x2="1.059" transform="translate(13229.797 -1901.799)" fill="#fff"/>
      <path id="Trazado_625" data-name="Trazado 625" d="M825.836,338.647l.929-1.814.13-.254a.718.718,0,0,1,.975-.256.73.73,0,0,1,.256.975l-.929,1.814-.13.254a.718.718,0,0,1-.975.256.729.729,0,0,1-.256-.975" transform="translate(12403.345 -2238.737)"/>
      <path id="Trazado_626" data-name="Trazado 626" d="M847.519,380.272a2.934,2.934,0,0,0-1.5-3.231" transform="translate(12374.565 -2260.622)" fill="#fff"/>
      <path id="Trazado_627" data-name="Trazado 627" d="M846.008,379.254c.008-.026.014-.053.02-.08s.012-.064.019-.1c.033-.175-.021.212-.005.044a3.108,3.108,0,0,0,.015-.319c0-.068,0-.136-.009-.2,0-.037-.009-.073-.011-.109.011.254.016.115,0,.047a2.779,2.779,0,0,0-.133-.493c-.022-.061-.105-.188.006.008-.018-.031-.031-.066-.046-.1a2.962,2.962,0,0,0-.148-.266c-.029-.045-.058-.09-.089-.135-.016-.022-.032-.045-.049-.067q.1.132.033.044c-.077-.092-.155-.182-.24-.267s-.192-.177-.291-.262q-.091-.072.022.015l-.086-.064c-.06-.043-.122-.084-.184-.125a.713.713,0,0,1,.72-1.231,4.252,4.252,0,0,1,1.728,2.068,3.28,3.28,0,0,1,.176,1.527,2.7,2.7,0,0,1-.076.44.713.713,0,1,1-1.375-.379" transform="translate(12375.39 -2259.794)"/>
      <path id="Trazado_628" data-name="Trazado 628" d="M852.963,383.632a2.934,2.934,0,0,0-1.5-3.231" transform="translate(12366.597 -2262.424)" fill="#fff"/>
      <path id="Trazado_629" data-name="Trazado 629" d="M851.453,382.615c.008-.026.014-.053.02-.08s.012-.063.018-.1c.034-.175-.021.212-.005.045a3.044,3.044,0,0,0,.015-.32c0-.068,0-.136-.009-.2,0-.037-.009-.073-.011-.109.011.254.016.115,0,.047a2.813,2.813,0,0,0-.134-.493c-.022-.061-.1-.188.006.008-.018-.032-.03-.066-.046-.1a3.016,3.016,0,0,0-.148-.266q-.043-.068-.09-.135l-.049-.067c.069.088.08.1.033.044-.078-.092-.155-.182-.24-.267s-.192-.177-.291-.262c-.06-.048-.053-.043.022.015l-.086-.064c-.06-.043-.122-.084-.184-.125a.713.713,0,0,1,.72-1.231,4.25,4.25,0,0,1,1.728,2.069,3.276,3.276,0,0,1,.176,1.527,2.673,2.673,0,0,1-.075.44.713.713,0,0,1-1.375-.379" transform="translate(12367.419 -2261.597)"/>
      <path id="Trazado_630" data-name="Trazado 630" d="M856.517,387.529a2.934,2.934,0,0,0-1.5-3.231" transform="translate(12361.394 -2264.513)" fill="#fff"/>
      <path id="Trazado_631" data-name="Trazado 631" d="M855.006,386.511c.008-.026.014-.053.02-.08s.013-.064.019-.1c.033-.175-.021.212-.005.044a3.11,3.11,0,0,0,.015-.319c0-.068,0-.136-.009-.2,0-.037-.009-.073-.011-.109.011.254.016.115,0,.047a2.778,2.778,0,0,0-.134-.492c-.022-.061-.1-.188.006.008-.018-.032-.031-.066-.046-.1a3.009,3.009,0,0,0-.148-.266c-.029-.045-.058-.09-.089-.134-.016-.022-.032-.045-.049-.067q.1.132.034.044c-.078-.092-.156-.182-.24-.267s-.191-.177-.291-.262c-.06-.048-.053-.043.022.015l-.086-.064c-.06-.043-.122-.084-.184-.125a.713.713,0,0,1,.72-1.231,4.251,4.251,0,0,1,1.728,2.069,3.277,3.277,0,0,1,.176,1.527,2.677,2.677,0,0,1-.076.44.713.713,0,1,1-1.375-.379" transform="translate(12362.219 -2263.686)"/>
      <path id="Trazado_632" data-name="Trazado 632" d="M0,3.807,11.015,31.823l38.5-14.994S45.923,5.665,31.138,10.072a5.534,5.534,0,0,1-6.77-3.331C23.074,3.318,21.838,0,21.838,0" transform="translate(13333.954 -1821.997) rotate(9)" fill="#ffc2d6"/>
      <path id="Trazado_633" data-name="Trazado 633" d="M1.427,4.291l3.715,9.45,5.929,15.08,1.37,3.486-.877-.5L15.4,30.316l9.2-3.584,11.079-4.315,9.63-3.751L48.5,17.425A12.814,12.814,0,0,1,50,16.84a.586.586,0,0,0,.067-.026l-.5.877a1.213,1.213,0,0,0-.057-.159c-.027-.055-.046-.117-.069-.174-.051-.131.033.077.02.047-.02-.046-.04-.094-.061-.14a12.879,12.879,0,0,0-.784-1.458,11.4,11.4,0,0,0-3.567-3.579,12.881,12.881,0,0,0-7.25-1.792,21.976,21.976,0,0,0-5.367.89,6.638,6.638,0,0,1-5.238-.445A6.3,6.3,0,0,1,25.007,8.8a17.741,17.741,0,0,1-1.415-3.394q-.854-2.271-1.7-4.543C21.569,0,22.947-.37,23.265.483q.682,1.831,1.37,3.66c.7,1.869,1.177,4.132,2.949,5.3a4.837,4.837,0,0,0,2.364.811,8.676,8.676,0,0,0,2.739-.477A22.72,22.72,0,0,1,38.089,9a13.424,13.424,0,0,1,11.535,5.738,10.431,10.431,0,0,1,1.32,2.571.73.73,0,0,1-.5.877l-3.833,1.492-9.2,3.585L26.331,27.581,16.7,31.332l-3.189,1.242c-.494.192-.992.432-1.5.584-.023.007-.045.017-.067.026a.728.728,0,0,1-.877-.5l-3.715-9.45L1.423,8.156.052,4.67c-.336-.854,1.043-1.225,1.375-.379" transform="translate(13333.328 -1822.777) rotate(9)"/>
      <path id="Trazado_634" data-name="Trazado 634" d="M19.6,0c1.256,3.542,4.227,4.822,7.013,3.991C41.4-.416,44.995,10.748,44.995,10.748L6.493,25.743,2.006,14.226A3.4,3.4,0,0,1,.168,10.071l.1-.307a6.206,6.206,0,0,1,6.419.3A4.086,4.086,0,0,0,12.6,5.143L12.037,3.6Z" transform="translate(13337.469 -1815.283) rotate(9)" fill="#ffbd11"/>
      <path id="Trazado_635" data-name="Trazado 635" d="M21,.5a5.615,5.615,0,0,0,2.9,3.353,5.853,5.853,0,0,0,4.055-.091,20.03,20.03,0,0,1,8.789-.55A12.9,12.9,0,0,1,45.38,9.155a9.995,9.995,0,0,1,1.014,2.1.729.729,0,0,1-.5.877l-3.833,1.493L32.86,17.2,21.781,21.519,12.151,25.27,8.962,26.512c-.494.193-.991.432-1.5.584-.023.007-.045.018-.067.026a.727.727,0,0,1-.877-.5L2.6,16.557,2.03,15.108l.328.426A4.121,4.121,0,0,1,.016,11.487a4.533,4.533,0,0,1,.211-1.021,1.237,1.237,0,0,1,.794-.832,6.55,6.55,0,0,1,3.037-.655,7.331,7.331,0,0,1,2.564.59,10.013,10.013,0,0,0,2.357,1.009,3.416,3.416,0,0,0,3.764-2.528c.32-1.25-.263-2.42-.682-3.57a.714.714,0,0,1,.327-.805l7.567-3.6c.824-.392,1.549.837.719,1.232l-7.567,3.6.328-.805a9.263,9.263,0,0,1,.834,3.143,4.852,4.852,0,0,1-2.331,4.1A4.981,4.981,0,0,1,6.8,11.23a5.545,5.545,0,0,0-5.458-.157l.328-.426a2.973,2.973,0,0,0,.055,2.4,2.687,2.687,0,0,0,.919,1.021c.34.222.588.28.769.674.278.6.487,1.25.729,1.869L7.095,24.2l.8,2.048-.877-.5,3.833-1.492,9.2-3.585,11.078-4.314L40.762,12.6l3.189-1.242a12.827,12.827,0,0,1,1.5-.584.512.512,0,0,0,.067-.026l-.5.877a.781.781,0,0,0-.041-.117,1.338,1.338,0,0,1-.055-.144c-.07-.188-.005-.019-.021-.055a12.31,12.31,0,0,0-.589-1.165,11.361,11.361,0,0,0-2.687-3.179c-3.992-3.306-9.411-2.916-14.108-1.6a6.231,6.231,0,0,1-4.629-.428A7.246,7.246,0,0,1,19.628.881C19.312.019,20.69-.354,21,.5" transform="translate(13336.873 -1816.078) rotate(9)"/>
      <path id="Trazado_636" data-name="Trazado 636" d="M23.132,0,75.5,128.86,44.763,140.727S11.236,60.64,7.207,47.535,0,11.5,0,11.5" transform="translate(13303.869 -1958.809) rotate(9)" fill="#4dcfd3"/>
      <path id="Trazado_637" data-name="Trazado 637" d="M24.515.474l1.4,3.455,3.82,9.4,5.627,13.847,6.862,16.886,7.542,18.56q3.806,9.368,7.613,18.735,3.536,8.7,7.073,17.407l5.98,14.714,4.315,10.62c.679,1.67,1.422,3.329,2.041,5.022.026.072.058.142.086.212a.726.726,0,0,1-.5.877l-10.4,4.018-16.515,6.377-3.813,1.473a.73.73,0,0,1-.877-.5q-.716-1.712-1.43-3.424-1.9-4.546-3.788-9.1-2.721-6.546-5.431-13.1-3.2-7.748-6.387-15.5-3.3-8.044-6.571-16.1Q18.107,76.825,15.1,69.27c-1.646-4.143-3.28-8.291-4.863-12.459-1.012-2.663-2.036-5.33-2.9-8.045A164.65,164.65,0,0,1,2.712,28.837Q1.264,21.033.125,13.175q-.06-.411-.117-.823c-.125-.9,1.249-1.286,1.375-.379C1.914,15.8,2.534,19.614,3.188,23.42c1.23,7.16,2.587,14.326,4.473,21.346.844,3.14,1.9,6.188,3.033,9.233,1.439,3.866,2.94,7.708,4.453,11.546q2.882,7.308,5.833,14.59,3.237,8.011,6.514,16.007,3.241,7.915,6.506,15.821,2.854,6.915,5.724,13.823,2.124,5.115,4.256,10.228c.687,1.648,1.485,3.287,2.076,4.973.026.073.06.144.09.215l-.877-.5,10.4-4.018,16.515-6.377L76,128.836l-.5.877-1.4-3.455-3.82-9.4L64.652,103.01,57.791,86.124l-7.542-18.56L42.635,48.829,35.562,31.422l-5.98-14.714q-2.158-5.31-4.315-10.62c-.679-1.67-1.423-3.329-2.041-5.022C23.2.994,23.169.924,23.14.853,22.795,0,24.174-.366,24.515.474" transform="translate(13303.286 -1959.573) rotate(9)"/>
      <path id="Trazado_638" data-name="Trazado 638" d="M714.582,244.222l-25.193-2.852-6.523,13.517c-2.487,6.453-.482,14.955,1.314,21.633l7.658,28.469c-11.982-6.663-42.257-18.93-42.257-18.93l-13.949,29.846,34.261,16.568a48.019,48.019,0,0,0,40.543.59,32.192,32.192,0,0,0,13.638-34.369l-8.14-34.143a35.247,35.247,0,0,1-.846-11.016l.445-5.51" transform="translate(12594.782 -2187.875)" fill="#4dcfd3"/>
      <path id="Trazado_639" data-name="Trazado 639" d="M713.782,244.108l-8.528-.966-13.534-1.532-3.131-.354.616-.353-5.029,10.421a26.836,26.836,0,0,0-1.877,4.3c-1.165,4.145-.7,8.632.09,12.8.746,3.917,1.863,7.761,2.9,11.61q1.9,7.054,3.795,14.108c.866,3.221,1.815,6.432,2.6,9.673.012.051.028.1.041.154a.721.721,0,0,1-1.047.806c-6.287-3.491-12.915-6.4-19.489-9.294q-9.311-4.1-18.723-7.975-1.935-.8-3.874-1.589l.805-.328-4.732,10.125-7.487,16.019-1.73,3.7-.256-.975L642.514,318l14.649,7.084,11.188,5.41c1.6.772,3.2,1.521,4.858,2.149a47.324,47.324,0,0,0,28.981,1.478q1.757-.469,3.476-1.07a28,28,0,0,0,3.517-1.392,15.377,15.377,0,0,0,2.489-1.781q1.208-.974,2.318-2.061a31.68,31.68,0,0,0,9.449-22.234,32.911,32.911,0,0,0-.948-7.927l-.958-4.019-3.592-15.067-3.119-13.085c-.365-1.534-.732-3.062-.962-4.625a36.44,36.44,0,0,1-.285-8.154c.072-.918.148-1.837.223-2.755s.148-1.837.223-2.755,1.5-.916,1.426,0c-.16,1.984-.343,3.967-.478,5.953a35.722,35.722,0,0,0,.939,10.742l2.613,10.961,3.806,15.962c.77,3.228,1.72,6.488,2.191,9.778a32.922,32.922,0,0,1-9.89,28.59q-1.192,1.13-2.493,2.134a12.6,12.6,0,0,1-2.513,1.7,48.733,48.733,0,0,1-40.954-.786q-4.233-2.044-8.464-4.093l-14.977-7.242-10.234-4.949-.521-.252a.728.728,0,0,1-.256-.976l4.732-10.125,7.487-16.019,1.73-3.7a.712.712,0,0,1,.805-.327c3.716,1.505,7.415,3.051,11.107,4.611,7.14,3.014,14.259,6.091,21.281,9.373,3.388,1.583,6.769,3.2,10.039,5.017l-1.047.805-2.221-8.256q-1.942-7.222-3.885-14.444c-.925-3.438-1.912-6.872-2.7-10.343a38.6,38.6,0,0,1-1.177-13.162,15.259,15.259,0,0,1,1.129-4.53c.243-.525.5-1.042.754-1.563l5.588-11.58.14-.29a.688.688,0,0,1,.616-.353l8.528.965,13.535,1.532,3.131.354c.9.1.912,1.53,0,1.426" transform="translate(12595.582 -2187.048)"/>
      <path id="Trazado_640" data-name="Trazado 640" d="M10.132,14.619a1.57,1.57,0,0,1,2,.962l.492,1.4L42.214,5.413A17.494,17.494,0,0,0,39.317,0L0,15.112l2.09,6.016L9.7,18.134,9.17,16.62a1.57,1.57,0,0,1,.962-2" transform="translate(13341.671 -1806.154) rotate(9)" fill="#fff"/>
      <path id="Trazado_641" data-name="Trazado 641" d="M10.663,14.651a2.31,2.31,0,0,1,2.817,1.311c.212.505.372,1.035.553,1.551l-.877-.5L23.18,13.1,39.089,6.874l3.656-1.43-.5.877a14.34,14.34,0,0,0-2.714-5.1l.694.184L36.31,2.912l-9.353,3.6-11.37,4.37-9.833,3.78L2.524,15.9a12.461,12.461,0,0,1-1.547.595.6.6,0,0,0-.066.025l.5-.877L3.5,21.657l-.877-.5,7.611-2.994-.5.877c-.185-.527-.4-1.052-.554-1.591a2.328,2.328,0,0,1,1.483-2.8c.849-.347,1.219,1.032.379,1.375-1.04.425-.175,1.946.067,2.638a.728.728,0,0,1-.5.877L3,22.534a.724.724,0,0,1-.877-.5L.034,16.021a.729.729,0,0,1,.5-.877l3.917-1.506,9.353-3.6,11.37-4.37,9.833-3.78L38.235.652c.51-.2,1.023-.441,1.547-.595.023-.007.044-.017.066-.025a.694.694,0,0,1,.694.183,16.046,16.046,0,0,1,3.08,5.728.73.73,0,0,1-.5.877L33.1,10.739,17.191,16.961,13.535,18.39a.724.724,0,0,1-.877-.5c-.272-.776-.473-2.2-1.616-1.866a.714.714,0,0,1-.379-1.375" transform="translate(13341.07 -1806.977) rotate(9)"/>
      <path id="Trazado_642" data-name="Trazado 642" d="M5.191,1.418c-.041.014-.081.034-.122.048.3-.1-.095.047-.19.1-.176.09-.348.188-.516.294-.09.057-.181.116-.269.177l-.151.108-.066.049c-.145.109.072-.058-.012.01A6.187,6.187,0,0,0,1.684,5.48a8.862,8.862,0,0,0-.18,3.4.717.717,0,0,1-.713.713.73.73,0,0,1-.713-.713,8.9,8.9,0,0,1,1.176-5.9A7.708,7.708,0,0,1,4.03.4,5.5,5.5,0,0,1,4.812.043c.868-.3,1.241,1.074.379,1.375" transform="translate(13363.762 -1798.968) rotate(9)"/>
      <path id="Trazado_643" data-name="Trazado 643" d="M.479,12.008,10.9,7.952,27.391,1.535,31.2.051c.856-.333,1.227,1.046.379,1.375L21.159,5.482,4.67,11.9.858,13.383C0,13.716-.368,12.338.479,12.008" transform="translate(13325.646 -1833.648) rotate(9)"/>
      <path id="Trazado_644" data-name="Trazado 644" d="M657.7,110.591l-24.684-.359c-3.748-.406-5.875.931-8.081,6.258,0,0-10.848,44.966-14.523,63.044,6.308-5.475,57.211.7,57.211.7l-3.541-56.3" transform="translate(12663.809 -2117.522)" fill="#5f5fff"/>
      <path id="Trazado_645" data-name="Trazado 645" d="M656.867,110.526l-16.327-.237-7.859-.114a12.251,12.251,0,0,0-3.029.065c-2,.471-3.193,2.229-4.078,3.96a10.141,10.141,0,0,0-.917,2.254q-.257,1.066-.513,2.132-.968,4.033-1.928,8.067-3,12.588-5.923,25.194c-1.91,8.253-3.812,16.511-5.552,24.8q-.241,1.148-.475,2.3l-1.192-.694a7.74,7.74,0,0,1,3.233-1.442,32.87,32.87,0,0,1,5.117-.754,120.245,120.245,0,0,1,14.044-.164c5.253.174,10.5.513,15.738.929q6.615.526,13.217,1.22,2.135.223,4.268.463a14,14,0,0,1,2.012.233.674.674,0,0,0,.087.011l-.713.713q-.177-2.817-.354-5.635-.422-6.7-.844-13.408-.511-8.133-1.023-16.266-.442-7.031-.884-14.061-.145-2.311-.29-4.622c-.046-.732-.135-1.477-.139-2.211,0-.032,0-.064-.006-.1-.058-.916,1.369-.913,1.426,0q.177,2.818.355,5.635l.843,13.408q.511,8.133,1.023,16.265.442,7.031.884,14.062.145,2.31.291,4.621c.046.733.135,1.477.139,2.211,0,.032,0,.064.006.1a.715.715,0,0,1-.713.713c-1.686-.205-3.375-.389-5.063-.569q-6.188-.661-12.39-1.184c-5.164-.434-10.336-.793-15.514-1.014-4.8-.2-9.632-.32-14.437-.059a44.239,44.239,0,0,0-5.384.561,18.023,18.023,0,0,0-2.09.489q-.424.13-.836.295c-.113.045.115-.055-.063.028l-.155.072c-.118.057-.234.117-.348.182s-.194.12-.29.182c-.228.148.029-.037-.136.1a.72.72,0,0,1-1.192-.694c1.634-8.03,3.474-16.02,5.313-24.005q3.009-13.071,6.121-26.119,1.081-4.548,2.17-9.094c.3-1.26.536-2.562.914-3.8a14.248,14.248,0,0,1,1.326-2.793,9.708,9.708,0,0,1,2.014-2.575c1.594-1.368,3.418-1.549,5.435-1.437,1.867.1,3.756.054,5.625.082l18.663.271.4.006a.714.714,0,0,1,0,1.426" transform="translate(12664.644 -2116.745)"/>
      <path id="Trazado_646" data-name="Trazado 646" d="M637.472,290.791a42.519,42.519,0,0,0,2.248-5.435,14.055,14.055,0,0,0,.333-6.24c-.082-.462-.17-.924-.255-1.386q-.585-3.168-1.171-6.336a40.46,40.46,0,0,1-.864-6.059,37.368,37.368,0,0,1,1.078-8.342c.175-.9,1.55-.519,1.375.379a40.289,40.289,0,0,0-1.032,6.861,31.806,31.806,0,0,0,.764,6.483q.6,3.237,1.2,6.475c.089.48.18.959.266,1.44a15.963,15.963,0,0,1-.028,5.906,33.838,33.838,0,0,1-2.679,6.974c-.37.838-1.6.113-1.231-.72" transform="translate(12677.243 -2195.977)"/>
      <path id="Trazado_647" data-name="Trazado 647" d="M706.2,134.49l-27.2-6.9c.885-2.3,7.4-11.1,8.129-13.781,1.332-4.91,2.151-13.9,2.378-17.693l20.967,4.382" transform="translate(12589.141 -2109.992)" fill="#5f5fff"/>
      <path id="Trazado_648" data-name="Trazado 648" d="M705.22,134.362l-9.229-2.34-14.586-3.7-3.381-.857a.717.717,0,0,1-.5-.877,26.135,26.135,0,0,1,2.566-4.409c1.263-1.955,2.557-3.892,3.764-5.882.487-.8.966-1.613,1.379-2.455a10.361,10.361,0,0,0,.731-2.3,77.659,77.659,0,0,0,1.307-8.152c.316-2.689.571-5.388.734-8.09a.725.725,0,0,1,.9-.688L696,96.1l11.293,2.36,2.586.54c.9.187.518,1.563-.379,1.375l-7.089-1.482-11.294-2.36-2.585-.54.9-.687a114.084,114.084,0,0,1-1.86,15.534,16.629,16.629,0,0,1-.72,2.858,17.836,17.836,0,0,1-1.169,2.313c-1.152,2-2.435,3.926-3.693,5.86-.66,1.015-1.321,2.029-1.955,3.06-.251.409-.5.82-.73,1.239-.09.161-.177.324-.259.488q-.053.106-.1.214c-.072.153-.016.03-.042.1l-.5-.877,9.229,2.34,14.587,3.7,3.38.857a.714.714,0,0,1-.379,1.375" transform="translate(12589.933 -2109.176)"/>
      <path id="Trazado_649" data-name="Trazado 649" d="M736.8,151.907c-1.818-.493-2.371-5.069-2.056-10.332l8.365,3.9c-1.488,4.29-4.382,6.954-6.309,6.431" transform="translate(12530.697 -2134.365)"/>
      <path id="Trazado_650" data-name="Trazado 650" d="M735.787,151.789c-1.512-.456-2.027-2.3-2.289-3.671a30.118,30.118,0,0,1-.291-7.349.724.724,0,0,1,1.073-.616l7.327,3.418,1.038.484a.714.714,0,0,1,.327.805,13.776,13.776,0,0,1-3.264,5.424c-1.026.983-2.444,1.872-3.922,1.505a.714.714,0,0,1,.379-1.375,1.832,1.832,0,0,0,1.175-.17,5.261,5.261,0,0,0,1.541-1.148,12.452,12.452,0,0,0,2.715-4.615l.328.805-7.327-3.417-1.038-.484,1.073-.615a30.425,30.425,0,0,0,.168,6.555,8.631,8.631,0,0,0,.561,2.133,2.892,2.892,0,0,0,.393.663,1.1,1.1,0,0,0,.2.19.6.6,0,0,0,.213.1.714.714,0,0,1-.379,1.375" transform="translate(12531.521 -2133.558)"/>
      <line id="Línea_25" data-name="Línea 25" x1="2.151" y2="0.88" transform="translate(13337.4 -1801.738) rotate(9)" fill="#fff"/>
      <path id="Trazado_651" data-name="Trazado 651" d="M3.051,1.4l-1.882.77L.9,2.284a.714.714,0,0,1-.55-.072.713.713,0,0,1-.256-.976A.839.839,0,0,1,.521.909L2.4.139l.269-.11A.712.712,0,0,1,3.221.1a.728.728,0,0,1,.328.426.723.723,0,0,1-.072.549.833.833,0,0,1-.426.328" transform="translate(13336.812 -1802.557) rotate(9)"/>
      <path id="Trazado_652" data-name="Trazado 652" d="M1.138,0A2.934,2.934,0,0,0,.173,3.429" transform="translate(13358.162 -1808.255) rotate(9)" fill="#fff"/>
      <path id="Trazado_653" data-name="Trazado 653" d="M2.2,1.328c-.024.015-.046.034-.07.05.247-.168.046-.035-.035.04a2.622,2.622,0,0,0-.225.238c-.022.026-.042.053-.065.079.165-.191.067-.087.031-.036s-.082.121-.119.183-.077.137-.112.207c-.025.053-.079.208,0-.018-.016.044-.034.086-.05.129-.064.181-.09.366-.136.551.056-.22.007-.046,0,.017s-.007.116-.009.174c0,.107,0,.215.008.321a.713.713,0,0,0,.019.194q-.022-.159,0-.039c.006.034.012.069.019.1.027.145.064.288.1.43a.721.721,0,0,1-.5.877.727.727,0,0,1-.877-.5A3.825,3.825,0,0,1,1.129.367,2.807,2.807,0,0,1,1.476.1a.72.72,0,0,1,.976.256.728.728,0,0,1-.256.975" transform="translate(13357.584 -1809.068) rotate(9)"/>
      <path id="Trazado_654" data-name="Trazado 654" d="M1.138,0A2.934,2.934,0,0,0,.173,3.429" transform="translate(13360.985 -1807.341) rotate(9)" fill="#fff"/>
      <path id="Trazado_655" data-name="Trazado 655" d="M2.2,1.328c-.024.015-.046.034-.071.05.247-.168.046-.035-.035.04a2.664,2.664,0,0,0-.225.238c-.022.026-.042.053-.064.079.165-.191.067-.087.031-.036s-.082.121-.119.183-.077.137-.112.207c-.026.052-.079.208,0-.018-.016.043-.034.086-.05.129-.065.181-.09.366-.136.551.056-.22.007-.046,0,.017s-.007.116-.009.173c0,.107,0,.215.008.322a.712.712,0,0,0,.019.194c-.015-.107-.016-.119,0-.039.006.034.012.069.019.1.027.145.064.288.1.43a.721.721,0,0,1-.5.877.727.727,0,0,1-.877-.5A3.825,3.825,0,0,1,1.128.367,2.8,2.8,0,0,1,1.476.1a.719.719,0,0,1,.976.256.728.728,0,0,1-.256.975" transform="translate(13360.407 -1808.153) rotate(9)"/>
      <path id="Trazado_656" data-name="Trazado 656" d="M1.138,0A2.934,2.934,0,0,0,.173,3.429" transform="translate(13363.43 -1807.255) rotate(9)" fill="#fff"/>
      <path id="Trazado_657" data-name="Trazado 657" d="M2.2,1.328c-.024.015-.046.034-.071.05.247-.168.046-.035-.035.04a2.674,2.674,0,0,0-.225.237c-.022.026-.042.054-.064.079.165-.191.067-.087.031-.036s-.082.121-.119.183-.077.137-.112.207c-.026.052-.079.208,0-.018-.016.044-.034.086-.05.13-.064.181-.09.366-.136.551.056-.22.007-.046,0,.017s-.007.116-.009.173c0,.107,0,.215.008.321a.712.712,0,0,0,.019.194c-.015-.106-.016-.119,0-.039.006.034.012.069.019.1.027.145.064.288.1.43a.721.721,0,0,1-.5.877.727.727,0,0,1-.877-.5A3.824,3.824,0,0,1,1.129.367,2.773,2.773,0,0,1,1.476.1a.719.719,0,0,1,.976.256.728.728,0,0,1-.256.975" transform="translate(13362.852 -1808.067) rotate(9)"/>
      <path id="Trazado_658" data-name="Trazado 658" d="M701.679,357.156l4.338,15.557q.312,1.119.624,2.237a.714.714,0,0,1-1.375.379l-4.338-15.557-.624-2.237a.714.714,0,0,1,1.375-.379" transform="translate(12583.084 -2249.69)"/>
      <path id="Trazado_659" data-name="Trazado 659" d="M624.053,105.676a12.831,12.831,0,0,0,25.512,2.767Z" transform="translate(12675.577 -2115.115)" fill="#ffc2d6"/>
      <path id="Trazado_660" data-name="Trazado 660" d="M623.928,104.846a12.122,12.122,0,0,0,24.086,2.767l.713.713-8.616-.935-13.738-1.49-3.157-.343c-.9-.1-.913-1.525,0-1.426l8.616.935,13.738,1.49,3.158.343c.349.038.761.3.713.713a13.538,13.538,0,0,1-24.718,6.157,13.558,13.558,0,0,1-2.22-8.925c.092-.9,1.519-.914,1.426,0" transform="translate(12676.415 -2114.286)"/>
      <path id="Trazado_661" data-name="Trazado 661" d="M634.691,93.494l1.842-16.078L649.7,83.964l-.569,10.616" transform="translate(12670.471 -2099.963)" fill="#ffc2d6"/>
      <path id="Trazado_662" data-name="Trazado 662" d="M633.158,92.678q.808-7.051,1.616-14.1.114-.988.226-1.976a.725.725,0,0,1,1.073-.616l11.538,5.737,1.63.811a.7.7,0,0,1,.353.616l-.5,9.289-.071,1.327c-.049.913-1.475.918-1.426,0l.5-9.289.072-1.326.353.615-11.538-5.737-1.63-.811,1.073-.615q-.808,7.051-1.616,14.1-.113.988-.226,1.976c-.1.9-1.53.912-1.426,0" transform="translate(12671.29 -2099.147)"/>
      <path id="Trazado_663" data-name="Trazado 663" d="M611.3,55.746c-7.3-6.822-4.307-12.734-4.319-17.226-.007-2.609,3.929-7.9,3.929-7.9L632.6,26.651l4.447,7.377s7.894,30.309-17.008,23.645" transform="translate(12695.063 -2072.742)" fill="#ffc2d6"/>
      <path id="Trazado_664" data-name="Trazado 664" d="M609.953,55.437a15.725,15.725,0,0,1-4.728-7.474,17.789,17.789,0,0,1-.154-6.57c.12-.946.263-1.89.325-2.842a9.578,9.578,0,0,1,.409-2.718,24.4,24.4,0,0,1,3-5.483c.257-.375.608-1.078,1.067-1.233a3.387,3.387,0,0,1,.468-.086l3.225-.59L624.2,26.5l7.375-1.349a.741.741,0,0,1,.805.328l2.55,4.23,1.522,2.525a4.168,4.168,0,0,1,.456.827,27.591,27.591,0,0,1,.9,5.08,33.468,33.468,0,0,1-.065,9.545c-.532,3.183-1.827,6.419-4.426,8.468-3.442,2.716-8.07,2.7-12.18,1.888-.713-.141-1.419-.309-2.121-.5a.714.714,0,0,1,.379-1.375c3.956,1.05,8.7,1.674,12.315-.614,2.568-1.627,3.9-4.49,4.509-7.459a30.461,30.461,0,0,0,.25-9.18q-.051-.488-.112-.975c-.037-.291-.054-.422-.112-.811q-.12-.811-.27-1.619c-.119-.647-.271-1.286-.405-1.929a1,1,0,0,1-.039-.158c0-.006.138.235,0,.04-.405-.573-.735-1.219-1.1-1.819l-3.067-5.088-.218-.361.805.327-7.321,1.339L612.951,30l-2.694.493.426-.328c-.654.882-1.26,1.806-1.83,2.744-.82,1.352-1.917,3.029-2,4.658-.164,3.3-1.066,6.666-.271,9.947a14.334,14.334,0,0,0,4.378,6.915c.669.631-.341,1.639-1.008,1.008" transform="translate(12695.905 -2071.928)"/>
      <path id="Trazado_665" data-name="Trazado 665" d="M631.464,53.149a3.1,3.1,0,0,0-.373-.233c-.139-.077-.282-.144-.427-.21.176.081.032.013-.011,0l-.147-.055c-.105-.038-.211-.072-.319-.1s-.233-.063-.351-.088q-.077-.017-.155-.031c-.021,0-.212-.034-.131-.023s-.116-.012-.14-.014l-.173-.012c-.144-.007-.289-.008-.433,0a3.165,3.165,0,0,0-.821.122,4.574,4.574,0,0,0-.919.343.731.731,0,0,1-.976-.256.721.721,0,0,1,.256-.976,5.8,5.8,0,0,1,4.109-.47,5.094,5.094,0,0,1,1.731.781.735.735,0,0,1,.255.975.718.718,0,0,1-.975.256" transform="translate(12691.671 -2085.772)"/>
      <path id="Trazado_666" data-name="Trazado 666" d="M612.666,54.2c-.051-.027-.1-.051-.157-.075-.108-.05.088.032-.052-.021-.1-.038-.207-.076-.312-.11a6.219,6.219,0,0,0-1.667-.3A2.426,2.426,0,0,0,608,55.167a3.956,3.956,0,0,0,.322,2.866,8.79,8.79,0,0,0,1.051,1.783,1.849,1.849,0,0,1,.522.937,2.071,2.071,0,0,1-.048.718c-.348,1.335-1.943,1.225-3,1.037a.719.719,0,0,1-.5-.877.728.728,0,0,1,.877-.5,3.257,3.257,0,0,0,1.157.038c.018-.006.183-.122.08-.046-.057.042-.022-.032-.011.034-.02-.125.036-.243.012-.452l.209.5c-1.555-1.887-3.261-5.059-1.548-7.379a3.912,3.912,0,0,1,3.507-1.557,6.8,6.8,0,0,1,2.755.692c.81.432.09,1.664-.72,1.231" transform="translate(12719.587 -2086.477)"/>
      <path id="Trazado_667" data-name="Trazado 667" d="M610.979,62.78a.923.923,0,1,0-.977.865.923.923,0,0,0,.977-.865" transform="translate(12721.045 -2091.59)"/>
      <path id="Trazado_668" data-name="Trazado 668" d="M610.211,62.37c0-.043,0-.085,0-.128,0-.085.02.077,0,0,0-.016-.006-.032-.01-.048s-.018-.105-.037-.116l.017.04c-.007-.015-.013-.029-.021-.044s-.023-.042-.036-.063-.025-.033-.034-.05c-.021-.043.058.062,0,.006-.028-.029-.054-.059-.084-.086a.19.19,0,0,0-.037-.031l.034.027-.04-.027c-.038-.025-.079-.041-.117-.064s.082.025.006,0l-.059-.018-.061-.014c-.08-.021.06,0,.007,0s-.085-.006-.128,0c-.012,0-.055,0-.063,0,.049-.007.06-.009.033,0l-.037.007c-.04.008-.078.022-.118.033-.079.024.068-.038,0,0l-.043.022c-.02.011-.092.043-.1.065l.034-.026-.027.024c-.02.019-.041.038-.06.058l-.032.036c-.056.059.039-.065,0,0-.021.035-.043.068-.062.1a.221.221,0,0,0-.021.045l.018-.04-.016.047c-.005.016-.009.032-.013.048s-.03.109-.013.051,0,.018,0,.029,0,.034,0,.051,0,.051,0,.076c0,.073,0-.021,0-.02-.012.018.021.1.028.12s.014.063.024.069l-.017-.04.021.044c.019.036.041.069.062.1.041.065-.041-.036,0-.006a.525.525,0,0,1,.04.045c.018.019.062.075.088.081-.037-.009-.048-.033-.014-.013s.054.035.083.05l.044.022c.073.038-.074-.02.006,0,.036.01.071.022.108.03s.059.032-.008,0a.214.214,0,0,0,.065.005c.023,0,.123.014.14,0l-.045.006.049-.009c.024-.005.048-.011.071-.019s.039-.016.058-.019.015-.005-.029.013l.044-.021c.028-.014.112-.048.122-.076,0,0-.065.058-.016.011.018-.016.036-.032.053-.049l.049-.053c.054-.059-.039.064,0,0,.026-.042.05-.083.072-.126.037-.071-.017.055,0,.006.008-.028.018-.055.026-.083s.008-.032.011-.049c.007-.039.007-.033,0,.02,0-.017,0-.034,0-.051a.356.356,0,1,1,.713,0,1.277,1.277,0,0,1-2.321.68,1.277,1.277,0,0,1-.026-1.435,1.278,1.278,0,0,1,2.347.755.356.356,0,1,1-.713,0" transform="translate(12721.456 -2091.18)"/>
      <path id="Trazado_669" data-name="Trazado 669" d="M629.648,60.892a.923.923,0,1,0-.977.865.923.923,0,0,0,.977-.865" transform="translate(12693.717 -2090.578)"/>
      <path id="Trazado_670" data-name="Trazado 670" d="M628.88,60.482c0-.043,0-.085,0-.128,0-.085.02.077,0,0,0-.016-.007-.032-.01-.048s-.018-.105-.037-.116l.017.04c-.006-.015-.013-.029-.021-.044s-.023-.042-.036-.063-.025-.033-.034-.05c-.021-.043.058.062,0,.006-.028-.029-.054-.059-.084-.086,0,0-.028-.029-.037-.031l.034.027-.04-.027c-.037-.025-.079-.041-.117-.064s.082.025.005,0l-.059-.018-.061-.014c-.08-.021.06,0,.007,0s-.085-.006-.129,0c-.012,0-.055,0-.063,0,.049-.007.06-.009.033,0l-.036.007c-.04.009-.079.022-.118.034-.079.024.068-.038,0,0l-.043.022c-.02.011-.092.043-.1.065l.034-.026-.027.024c-.02.019-.041.038-.06.058l-.032.036c-.056.059.039-.065,0,0-.021.035-.043.068-.062.1a.216.216,0,0,0-.021.045l.017-.04-.016.047c-.005.016-.009.032-.013.048s-.03.109-.013.051,0,.018,0,.029,0,.034,0,.051,0,.051,0,.077c0,.073,0-.021,0-.02-.011.018.021.1.028.12s.013.063.023.069l-.017-.04c.007.014.014.029.021.043.018.036.041.069.062.1.041.065-.041-.036,0-.006a.506.506,0,0,1,.04.045c.018.019.062.075.088.081-.037-.009-.048-.033-.014-.013s.054.035.083.05l.044.022c.073.038-.074-.02.006,0,.036.01.071.022.107.03s.059.032-.007,0a.212.212,0,0,0,.064.005c.023,0,.123.014.14,0l-.046.006.049-.009c.024-.005.048-.011.071-.019s.039-.016.058-.019.015-.005-.029.013l.044-.021c.028-.014.112-.048.122-.076,0,0-.065.058-.016.011.018-.016.036-.032.053-.049s.032-.035.049-.053c.054-.059-.039.064,0,0,.026-.042.05-.083.072-.126.037-.071-.016.055,0,.006.007-.028.018-.055.025-.083s.007-.032.011-.049c.007-.039.006-.033,0,.02,0-.017,0-.034,0-.051a.356.356,0,1,1,.713,0,1.277,1.277,0,0,1-2.321.68,1.277,1.277,0,0,1-.026-1.435,1.278,1.278,0,0,1,2.347.755.356.356,0,1,1-.713,0" transform="translate(12694.129 -2090.168)"/>
      <path id="Trazado_671" data-name="Trazado 671" d="M613.718,22.714s-17.891,1.944-19.727,10.7c-.445,2.121-.913,1.776-.2,4.44a33.887,33.887,0,0,0,8.836,15.144l0,0,1.552-8.59c-1.139-1.091-2.541-4.963-2.326-7.081.323-3.2,2.117-3.779,4.352-3.554a3.482,3.482,0,0,1,2.26,1.667c1.518,2.341.782,7.387.782,7.387l2.621-7.534a4.426,4.426,0,0,1,6.153-2.553,2.9,2.9,0,0,1,1.631,2.094,4.3,4.3,0,0,0,.107-4.68,6.7,6.7,0,0,1,5.122,3.254,4.445,4.445,0,0,0-1.9-5.467c2.852,1.664,6.18,2.614,8.794,6.417,2.139-3.327-2.139-8.081-3.328-8.319,5.229.713,7.13-4.516,7.13-4.516s-6.18,2.376-10.933,0" transform="translate(12703.729 -2069.994)"/>
      <path id="Trazado_672" data-name="Trazado 672" d="M612.868,22.591l-.277.033-.125.016c-.066.009.183-.026-.017,0l-.447.064q-1.329.2-2.646.47a41.747,41.747,0,0,0-7.661,2.269,15.519,15.519,0,0,0-6.579,4.535,7.457,7.457,0,0,0-.924,1.586,18.359,18.359,0,0,0-.582,2.076,4.38,4.38,0,0,0-.311,1.615,14.679,14.679,0,0,0,.825,3.217,33.166,33.166,0,0,0,8.166,13.183l-1.191.315q.776-4.3,1.552-8.59c.061.231.122.462.183.694a7,7,0,0,1-1.359-2.2,15.246,15.246,0,0,1-.98-3.044c-.375-1.846-.344-4.169,1.088-5.591a4.587,4.587,0,0,1,4.849-.706c1.945.968,2.607,3.175,2.8,5.169a18.99,18.99,0,0,1-.135,4.478l-1.375-.379L609.7,36.11c.248-.712.47-1.441.756-2.138a5.238,5.238,0,0,1,4.034-3.19c2.125-.312,4.536.787,5.01,3.028l-1.3-.17a3.6,3.6,0,0,0,.107-3.96.718.718,0,0,1,.615-1.073,7.385,7.385,0,0,1,5.738,3.607l-1.3.171a3.8,3.8,0,0,0-1.574-4.662.714.714,0,0,1,.72-1.231c1.516.877,3.133,1.567,4.624,2.491a14.943,14.943,0,0,1,4.426,4.182h-1.231c.92-1.491.379-3.253-.45-4.657A9.287,9.287,0,0,0,628.48,26.7a5.579,5.579,0,0,0-.623-.561,3.051,3.051,0,0,0-.31-.2c-.175-.1.033-.009-.132-.048-.763-.182-.621-1.5.189-1.4a5.647,5.647,0,0,0,5.057-1.82,7.719,7.719,0,0,0,1.079-1.537c.1-.179.184-.362.271-.546.047-.1.066-.051-.015.039l.029-.07.023-.058.877.877a17.483,17.483,0,0,1-3.929.924,13.2,13.2,0,0,1-7.553-1c-.825-.4-.1-1.632.72-1.231,3.127,1.522,7.2,1.145,10.383-.072a.717.717,0,0,1,.877.877,7.491,7.491,0,0,1-7.818,5.039l.19-1.4a3.8,3.8,0,0,1,1.617,1.1,10.676,10.676,0,0,1,1.754,2.291c1.043,1.822,1.547,4.089.382,5.978a.723.723,0,0,1-1.231,0,13.416,13.416,0,0,0-4.19-3.838c-1.412-.843-2.925-1.5-4.348-2.324l.72-1.231a5.321,5.321,0,0,1,2.54,3.987,4.968,4.968,0,0,1-.311,2.285.724.724,0,0,1-1.3.17,5.949,5.949,0,0,0-4.506-2.9l.616-1.073a5.007,5.007,0,0,1-.107,5.4c-.328.454-1.165.483-1.3-.17-.351-1.659-2.241-2.321-3.762-1.934a3.851,3.851,0,0,0-2.671,2.465c-.641,1.805-1.259,3.619-1.889,5.427l-.708,2.035a.714.714,0,0,1-1.375-.379c.006-.037-.024.221,0,0,.018-.161.037-.323.053-.485q.071-.74.092-1.485a11.827,11.827,0,0,0-.4-3.871,3.939,3.939,0,0,0-1.084-1.723,2.4,2.4,0,0,0-1.846-.629,2.448,2.448,0,0,0-2.447,1.4,6.238,6.238,0,0,0-.075,4.065,10.056,10.056,0,0,0,1.621,3.773c.27.336.457.529.381.99-.037.226-.081.451-.122.676q-.244,1.349-.487,2.7-.465,2.573-.93,5.145a.719.719,0,0,1-1.192.314,34.853,34.853,0,0,1-7.957-12.193,32.241,32.241,0,0,1-1.123-3.484,6.154,6.154,0,0,1-.281-2.588c.13-.745.4-1.484.579-2.219a8.133,8.133,0,0,1,.727-1.883c1.359-2.55,3.933-4.282,6.472-5.508a38.385,38.385,0,0,1,8.274-2.772,44.2,44.2,0,0,1,4.9-.854c.911-.1.9,1.327,0,1.426" transform="translate(12704.577 -2069.157)"/>
      <path id="Trazado_673" data-name="Trazado 673" d="M653.749,52.065a2.231,2.231,0,0,1,1.221.036,3.362,3.362,0,0,1,1.961,1.857,8.838,8.838,0,0,1,.721,2.524.733.733,0,0,1-.5.878.721.721,0,0,1-.877-.5,11.078,11.078,0,0,0-.235-1.186q-.062-.237-.137-.469c-.024-.071-.048-.142-.074-.213a1.3,1.3,0,0,1-.095-.243c0,.006.073.163.019.046-.013-.026-.024-.053-.036-.08-.03-.064-.06-.127-.093-.189-.057-.109-.117-.216-.183-.319-.029-.045-.059-.09-.09-.134l-.04-.056c-.071-.107.1.119.041.051s-.126-.151-.195-.222-.122-.116-.186-.173c-.122-.108.152.1.02.015-.034-.023-.067-.047-.1-.07a2.027,2.027,0,0,0-.181-.1c-.065-.032-.2-.064.052.018-.033-.011-.064-.025-.1-.037-.057-.02-.281-.115-.337-.083.007,0,.242.024.11.016l-.076-.006c-.043,0-.086,0-.129,0s-.079.006-.119.008c-.118.006.246-.048.091-.012-.026.006-.052.009-.078.017a.713.713,0,0,1-.379-1.375" transform="translate(12653.91 -2086.332)"/>
      <path id="Trazado_674" data-name="Trazado 674" d="M380.454,140.106l9.521-5.265a14.967,14.967,0,0,0,3.583-2.762c2.386-2.5,4.974-4.338,8.4-4.763l1.426-2.614s-10.7-14.26-12.359-14.023l-4.607-.567a3.073,3.073,0,0,0-5.258-3.1l-2.256,2.982a16.079,16.079,0,0,0-2.892,6.29L375.422,119a11.213,11.213,0,0,1-5.2,7.24l-.74.442" transform="translate(13039.79 -2115.177)" fill="#ffc2d6"/>
      <path id="Trazado_675" data-name="Trazado 675" d="M379.254,138.673l6.4-3.54q1.478-.817,2.955-1.634a15.976,15.976,0,0,0,1.9-1.217c1.058-.8,1.915-1.8,2.889-2.695a14.062,14.062,0,0,1,7.716-3.8l-.616.353,1.426-2.614v.72q-2.581-3.44-5.295-6.773c-1.316-1.619-2.652-3.228-4.076-4.755a21.761,21.761,0,0,0-1.644-1.627c-.08-.07-.287-.24-.284-.238.026.019-.172-.123-.242-.167-.051-.032-.28-.167-.181-.109.077.045-.22-.034.034,0-1.552-.191-3.11-.373-4.664-.565-.4-.05-.883-.425-.687-.9a2.422,2.422,0,0,0-1.033-3.155,2.4,2.4,0,0,0-2.934.621c-.735.868-1.49,1.96-2.211,2.919a16.433,16.433,0,0,0-2.925,6.491,21.976,21.976,0,0,1-1.473,5.1,13.009,13.009,0,0,1-5.316,5.4.713.713,0,0,1-.719-1.231,14.168,14.168,0,0,0,2.532-1.8,10.671,10.671,0,0,0,2.418-3.407,24.7,24.7,0,0,0,1.254-4.777,17.976,17.976,0,0,1,3.357-6.979l1.525-2.015a4.8,4.8,0,0,1,1.954-1.725,3.808,3.808,0,0,1,4.947,4.928l-.688-.9c1.525.188,3.048.4,4.575.563,1.14.123,2.011,1.117,2.777,1.9a107.9,107.9,0,0,1,8.075,9.666c.724.935,1.445,1.871,2.155,2.817a.7.7,0,0,1,0,.72l-1.031,1.891a7.353,7.353,0,0,1-.392.718c-.228.326-.523.34-.891.4a11.2,11.2,0,0,0-1.156.252,12,12,0,0,0-3.971,2c-1.231.915-2.213,2.072-3.35,3.087a22.129,22.129,0,0,1-4.159,2.76l-4.778,2.642-3.459,1.913c-.8.444-1.524-.787-.72-1.231" transform="translate(13040.631 -2114.361)"/>
      <path id="Trazado_676" data-name="Trazado 676" d="M347.814,141.9a48.5,48.5,0,0,1,14.824-1.258c5.032.865,4.544,4.546-.448,4.887s-7.009-.539-12.713,2.55" transform="translate(13087.043 -2133.798)" fill="#ffc2d6"/>
      <path id="Trazado_677" data-name="Trazado 677" d="M346.807,140.385a36.766,36.766,0,0,1,4.617-.888c1.618-.227,3.245-.387,4.877-.464q1.444-.068,2.889-.048a18.014,18.014,0,0,1,3,.174,5.472,5.472,0,0,1,3.359,1.722,2.237,2.237,0,0,1,.18,2.591,4.507,4.507,0,0,1-2.978,1.757,23.579,23.579,0,0,1-4.46.29,21.64,21.64,0,0,0-4.094.316,19.229,19.229,0,0,0-5.181,2.032c-.808.435-1.529-.8-.72-1.231a19.035,19.035,0,0,1,7.9-2.482c1.193-.073,2.39-.053,3.583-.089a8.978,8.978,0,0,0,3.878-.634,2.021,2.021,0,0,0,.884-.753.7.7,0,0,0,.043-.67c-.377-.828-1.577-1.2-2.421-1.4a13.56,13.56,0,0,0-2.764-.194q-1.352-.026-2.7.027-2.316.09-4.618.392a36.712,36.712,0,0,0-4.895.926.714.714,0,0,1-.379-1.375" transform="translate(13087.861 -2132.974)"/>
      <path id="Trazado_678" data-name="Trazado 678" d="M345.4,127.256a78.941,78.941,0,0,1,15.956-3.846c5.1-.1,5.316,3.612.478,4.884s-9.253,2.8-17.378,5.543" transform="translate(13089.462 -2124.624)" fill="#ffc2d6"/>
      <path id="Trazado_679" data-name="Trazado 679" d="M344.349,125.762c1.981-.73,4.017-1.33,6.055-1.879,1.959-.528,3.936-.99,5.93-1.363,1.971-.368,4.072-.871,6.069-.467a3.323,3.323,0,0,1,2.686,1.981,2.731,2.731,0,0,1-1.155,2.833,11.233,11.233,0,0,1-4.2,1.694c-1.352.376-2.7.778-4.035,1.2-3.993,1.251-7.949,2.621-11.912,3.959-.871.294-1.246-1.083-.379-1.375,3.377-1.14,6.749-2.3,10.141-3.395,1.3-.421,2.607-.831,3.919-1.22,1.269-.376,2.57-.671,3.828-1.078.865-.28,2.258-.865,2.448-1.868a.764.764,0,0,0-.209-.658,2.484,2.484,0,0,0-1.3-.651c-1.784-.432-3.755.092-5.518.422-1.876.35-3.736.78-5.58,1.269-2.156.571-4.311,1.2-6.4,1.973-.862.318-1.234-1.06-.379-1.375" transform="translate(13090.318 -2123.817)"/>
      <path id="Trazado_680" data-name="Trazado 680" d="M349.912,112.939s9.214-6.156,16.826-8.879c4.95-1.254,6,2.308,1.577,4.648s-8.374,4.832-15.661,9.352" transform="translate(13081.143 -2114.109)" fill="#ffc2d6"/>
      <path id="Trazado_681" data-name="Trazado 681" d="M348.721,111.476a86.676,86.676,0,0,1,15.391-8.337c1.6-.647,3.46-1.282,5.178-.672a2.329,2.329,0,0,1,1.627,2.764c-.354,1.549-1.884,2.608-3.193,3.307q-2.042,1.091-4.043,2.255c-3.883,2.261-7.681,4.666-11.5,7.034-.782.485-1.5-.748-.72-1.231,3.286-2.038,6.56-4.1,9.88-6.079,1.246-.744,2.5-1.474,3.768-2.18a14.074,14.074,0,0,0,3.85-2.453,1.977,1.977,0,0,0,.6-1.285.841.841,0,0,0-.539-.705c-1.388-.677-3.152.064-4.452.588a76.95,76.95,0,0,0-9.708,4.886c-1.836,1.063-3.658,2.162-5.424,3.34-.766.511-1.48-.724-.72-1.231" transform="translate(13081.974 -2113.262)"/>
      <path id="Trazado_682" data-name="Trazado 682" d="M361.064,101.325s9.635-9.26,16.681-13.224c4.668-2.069,6.3,1.267,2.335,4.316s-7.442,6.171-13.866,11.851" transform="translate(13064.762 -2105.348)" fill="#ffc2d6"/>
      <path id="Trazado_683" data-name="Trazado 683" d="M359.724,100.007a113.3,113.3,0,0,1,13.122-10.964A18,18,0,0,1,377.78,86.2c1.364-.4,3.311-.507,4.13.924s-.211,3.1-1.195,4.123a21.209,21.209,0,0,1-2.187,1.81q-.959.76-1.9,1.541c-3.66,3.025-7.186,6.212-10.743,9.358-.685.606-1.7-.4-1.008-1.008,3.08-2.724,6.141-5.471,9.277-8.13q1.765-1.5,3.579-2.935c1.1-.871,2.854-1.922,3.031-3.471.145-1.271-1.565-1.119-2.437-.882a16.021,16.021,0,0,0-4.628,2.65,101.313,101.313,0,0,0-8.422,6.706c-1.541,1.344-3.067,2.71-4.542,4.127-.662.636-1.672-.371-1.008-1.008" transform="translate(13065.598 -2104.534)"/>
      <path id="Trazado_684" data-name="Trazado 684" d="M402.671,126.688l.74-.443a11.21,11.21,0,0,0,5.2-7.24l.592-2.722a16.094,16.094,0,0,1,2.892-6.291l2.256-2.982a3.073,3.073,0,0,1,5.258,3.1l-2.048,4.608s3.528,6.034,3.621,12.534" transform="translate(13006.6 -2115.178)" fill="#ffc2d6"/>
      <path id="Trazado_685" data-name="Trazado 685" d="M401.474,125.263a13.165,13.165,0,0,0,3.251-2.539,10.629,10.629,0,0,0,2.363-4.718,25.909,25.909,0,0,1,2.4-7.435,26.93,26.93,0,0,1,2.007-2.878c.548-.724,1.064-1.5,1.666-2.182a3.785,3.785,0,0,1,6.471,3.474,17.268,17.268,0,0,1-1.154,2.719l-1.14,2.565v-.72a27.69,27.69,0,0,1,1.847,4,26.345,26.345,0,0,1,1.871,8.893.714.714,0,0,1-1.426,0,26.58,26.58,0,0,0-3.262-11.7c-.168-.317-.426-.647-.333-1.026a6.526,6.526,0,0,1,.446-1.012l1.57-3.533a2.4,2.4,0,0,0-2.063-3.481c-1.468-.012-2.139,1.234-2.919,2.265a28.384,28.384,0,0,0-2.589,3.767,20.031,20.031,0,0,0-1.712,5.241,15.5,15.5,0,0,1-1.892,5.248,13.533,13.533,0,0,1-4.684,4.277.714.714,0,0,1-.72-1.231" transform="translate(13007.437 -2114.368)"/>
      <path id="Trazado_686" data-name="Trazado 686" d="M885.359,228.7l-8.488,5.054-7.037-9.219s-3.279,2.663-11.015,5.01c-5,1.01-5.878-2.6-1.347-4.719a25.876,25.876,0,0,0,10.445-7.867q.534-.615,1.1-1.2l14.706-15.106,8.242,4.352,7.547,2.567-4.742,6.022a11.417,11.417,0,0,0-1.956,6.677" transform="translate(12318.699 -2166.045)" fill="#ffc2d6"/>
      <path id="Trazado_687" data-name="Trazado 687" d="M884.923,228.5l-8.488,5.054a.735.735,0,0,1-.976-.256l-6.151-8.059-.885-1.16,1.12.144a17.639,17.639,0,0,1-2.8,1.764c-1.176.628-2.391,1.181-3.622,1.69q-1.164.481-2.353.9a17.784,17.784,0,0,1-2.829.891,5.6,5.6,0,0,1-3.758-.368,2.256,2.256,0,0,1-1.115-2.412,4.478,4.478,0,0,1,2.055-2.62c1.24-.843,2.7-1.362,4.022-2.079a25.338,25.338,0,0,0,6.639-5.405c.938-1.034,1.865-2.066,2.838-3.066l7.545-7.75c2.051-2.107,4.055-4.277,6.161-6.329.036-.035.069-.071.1-.107a.73.73,0,0,1,.864-.111l6.7,3.536,1.319.7c.074.039.154.074.225.119-.293-.186-.065-.036.067.009l3.865,1.314,3.447,1.172a.725.725,0,0,1,.314,1.192l-3.073,3.9q-.768.975-1.536,1.951l-.121.153c.008-.009.146-.219.035-.037-.2.32-.4.632-.573.965a10.727,10.727,0,0,0-1.221,5.261.714.714,0,0,1-1.427,0,11.551,11.551,0,0,1,2.175-7.193c1.111-1.432,2.243-2.848,3.364-4.272l1.369-1.738q.156.6.315,1.192l-7.067-2.4a11.737,11.737,0,0,1-1.7-.789l-4.135-2.184-3.059-1.615.864-.112-4.815,4.946-7.845,8.059q-.985,1.012-1.97,2.023a64.928,64.928,0,0,1-5.355,5.455,22.856,22.856,0,0,1-3.139,2.146c-1.225.7-2.525,1.234-3.762,1.9-.8.434-1.988,1.178-2.11,2.2a.721.721,0,0,0,.237.637,1.986,1.986,0,0,0,1.073.444c1.592.247,3.17-.424,4.638-.945a44.16,44.16,0,0,0,4.13-1.691,26.4,26.4,0,0,0,3.988-2.277c.2-.145-.02.019.03-.021a.73.73,0,0,1,1.12.144l6.151,8.059.885,1.16-.975-.256,8.488-5.054a.713.713,0,0,1,.719,1.231" transform="translate(12319.495 -2165.227)"/>
      <path id="Trazado_688" data-name="Trazado 688" d="M926.968,253.416a78.934,78.934,0,0,1-13.625,9.149c-4.754,1.863-6.24-1.54-2.145-4.414s5.833-3.94,11.55-10.057" transform="translate(12266.066 -2191.48)" fill="#ffc2d6"/>
      <path id="Trazado_689" data-name="Trazado 689" d="M926.571,253.082c-1.425,1.219-2.929,2.355-4.445,3.457-1.488,1.081-3.009,2.117-4.567,3.095q-1.32.829-2.677,1.6a15.729,15.729,0,0,1-2.8,1.382c-1.259.407-2.9.647-4.033-.223a2.467,2.467,0,0,1-.509-3.107,8.788,8.788,0,0,1,3.262-3.189c.981-.686,1.964-1.371,2.915-2.1a63.892,63.892,0,0,0,7.625-7.241c.628-.672,1.635.338,1.009,1.008a71.659,71.659,0,0,1-6.611,6.433c-.83.684-1.688,1.333-2.561,1.961-1.007.724-2.1,1.376-3.046,2.178-.636.539-1.816,1.721-1.466,2.6.364.92,1.962.605,2.69.4a12.169,12.169,0,0,0,2.627-1.243q1.235-.689,2.437-1.434c1.5-.924,2.957-1.9,4.387-2.925,1.627-1.161,3.236-2.364,4.755-3.665.694-.594,1.707.41,1.008,1.008" transform="translate(12266.967 -2190.642)"/>
      <path id="Trazado_690" data-name="Trazado 690" d="M916.725,256.434s-6.514,8.965-12.713,14.154c-4.209,2.89-6.426-.089-3.087-3.814s6.183-7.432,11.456-14.194" transform="translate(12280.72 -2193.886)" fill="#ffc2d6"/>
      <path id="Trazado_691" data-name="Trazado 691" d="M916.434,255.971a88.026,88.026,0,0,1-11.272,12.93c-1.367,1.262-2.869,2.579-4.815,2.727a2.337,2.337,0,0,1-2.635-2.013c-.212-1.727,1-3.264,2.071-4.47q1.5-1.682,2.922-3.422c2.827-3.431,5.53-6.964,8.264-10.47a.717.717,0,0,1,1.008,0,.73.73,0,0,1,0,1.008c-2.331,2.991-4.646,6-7.025,8.949q-1.35,1.677-2.745,3.319a15.535,15.535,0,0,0-2.85,3.673c-.335.795-.456,1.923.638,2.007,1.657.128,3.116-1.351,4.222-2.376A81.042,81.042,0,0,0,911.481,260c1.281-1.548,2.54-3.122,3.722-4.747.535-.735,1.773-.024,1.231.72" transform="translate(12281.627 -2193.063)"/>
      <path id="Trazado_692" data-name="Trazado 692" d="M869.169,219.275l-3.416,2.685a11.212,11.212,0,0,0-3.4,8.241l.049,2.786.988,10.682a3.026,3.026,0,0,1-5.788,1.487l-3.566-8.191" transform="translate(12349.271 -2176.028)" fill="#ffc2d6"/>
      <path id="Trazado_693" data-name="Trazado 693" d="M868.735,219.005l-3.026,2.378a9.878,9.878,0,0,0-3.316,5.495,20.323,20.323,0,0,0-.219,5.138c.019.749.124,1.5.193,2.247.261,2.825.537,5.648.784,8.473a3.779,3.779,0,0,1-3.128,4.125,3.847,3.847,0,0,1-4.137-2.5q-1.7-3.908-3.4-7.815c-.362-.833.866-1.56,1.232-.72l3.026,6.95c.49,1.126.9,2.427,2.3,2.673a2.341,2.341,0,0,0,2.532-1.366,2.978,2.978,0,0,0,.141-1.5q-.388-4.21-.779-8.42a27.572,27.572,0,0,1-.057-6.955,11.79,11.79,0,0,1,1.5-4.087,9.445,9.445,0,0,1,2.115-2.591L867.727,218c.714-.561,1.73.442,1.008,1.008" transform="translate(12350.21 -2175.254)"/>
      <path id="Trazado_694" data-name="Trazado 694" d="M892.432,255.28c-4.948,7-8.133,11.831-11.293,15.71s-.8,6.75,3.264,3.665c5.947-5.476,13.2-16.7,13.2-16.7l3.453-5.714" transform="translate(12305.494 -2193.704)" fill="#ffc2d6"/>
      <path id="Trazado_695" data-name="Trazado 695" d="M892.229,254.831c-3,4.249-5.9,8.577-9,12.753q-.926,1.247-1.89,2.464a7.726,7.726,0,0,0-1.687,2.806c-.135.536-.156,1.261.41,1.505.74.32,1.741-.209,2.353-.577a12.34,12.34,0,0,0,2.449-2.2c.769-.81,1.511-1.645,2.235-2.5,1.465-1.723,2.857-3.508,4.2-5.325,1.668-2.25,3.315-4.536,4.82-6.9,1.209-1.9,2.334-3.857,3.5-5.785a.714.714,0,0,1,1.232.72c-1.151,1.905-2.271,3.834-3.456,5.719-1.477,2.35-3.122,4.613-4.772,6.842-1.448,1.957-2.942,3.883-4.519,5.738-.757.89-1.533,1.763-2.34,2.607a13.132,13.132,0,0,1-2.632,2.317c-1.507.9-4.1,1.485-4.85-.67s1.189-4.206,2.388-5.739c3.655-4.668,6.907-9.653,10.326-14.493.526-.744,1.763-.032,1.232.72" transform="translate(12306.313 -2192.895)"/>
      <path id="Trazado_696" data-name="Trazado 696" d="M737.131,154.06l46.827-40.288,3,.9,10.533,3.168a77.654,77.654,0,0,0,2.444-7.513c1.333-4.91,3-10.637,2.421-17.535L791.424,91l-7.481-1.034c-10.095-1.255-13.306.451-24.043,12.93l-36.033,40.617" transform="translate(12476.343 -2106.507)" fill="#ffc2d6"/>
      <path id="Trazado_697" data-name="Trazado 697" d="M735.813,152.735l6.861-5.9L758,133.648l15.9-13.676c2.859-2.46,5.7-4.937,8.578-7.38.055-.047.107-.1.165-.142.525-.391,1.149-.05,1.71.118l2.714.816,9.013,2.711.79.237-.877.5a97.484,97.484,0,0,0,3.639-12.056,40.534,40.534,0,0,0,1.2-12.8l.523.687-9.588-1.573c-2.743-.45-5.5-.795-8.256-1.176-.734-.1-1.281-.166-2.085-.241a30.079,30.079,0,0,0-3.4-.153,13.753,13.753,0,0,0-5.591,1.2,21.89,21.89,0,0,0-5.612,4.063c-2.554,2.407-4.847,5.072-7.149,7.714-.834.958-1.685,1.9-2.528,2.852L750.88,112.4l-8.231,9.277L734.2,131.2l-6.924,7.8-3.557,4.009-.162.182c-.61.688-1.616-.324-1.008-1.008l2.515-2.834,6.33-7.136,8.327-9.385,8.5-9.584,6.836-7.705q1.708-1.925,3.415-3.85c3.374-3.822,6.676-7.959,10.919-10.871a14.988,14.988,0,0,1,5.616-2.427,22.92,22.92,0,0,1,6.544-.139c3.093.3,6.19.772,9.261,1.238,3.284.5,6.558,1.076,9.835,1.614l1.079.177a.722.722,0,0,1,.523.688c.537,6.64-1.069,13.122-2.932,19.443q-.865,2.934-1.957,5.794a.728.728,0,0,1-.877.5l-10.536-3.169-2.994-.9.694-.183-4.647,4-11.206,9.641-13.516,11.628L742.563,148.8c-1.887,1.624-3.752,3.278-5.664,4.873l-.078.067c-.692.6-1.705-.409-1.008-1.008" transform="translate(12477.156 -2105.686)"/>
      <path id="Trazado_700" data-name="Trazado 700" d="M644.093,18.778s-28.759,4.279-35.414,17.588c-3.327-5.942-2.139-9.507,1.9-12.835a60.016,60.016,0,0,1,15.449-7.605c5.484-1.659,10.767-3.1,15.232.487,1.427,1.148,1.168.939,2.832,2.365" transform="translate(12689.039 -2066.058)" fill="#ff3e6c"/>
      <path id="Trazado_701" data-name="Trazado 701" d="M643.37,18.642a85.309,85.309,0,0,0-10.009,2.208c-6.3,1.734-12.662,4.02-18.093,7.729a20.236,20.236,0,0,0-6.886,7.324.718.718,0,0,1-1.231,0c-1.669-3.011-2.827-6.535-1.248-9.826,1.159-2.416,3.369-4.091,5.6-5.455a65.261,65.261,0,0,1,10.07-5.028,56.608,56.608,0,0,1,6.048-1.959,24.509,24.509,0,0,1,5.948-.984,11.162,11.162,0,0,1,6.184,1.637,35.568,35.568,0,0,1,3.934,3.163c.7.6-.315,1.6-1.008,1.009-.987-.846-1.964-1.717-3-2.5a9.383,9.383,0,0,0-5.034-1.858,18.186,18.186,0,0,0-5.407.593,55.848,55.848,0,0,0-5.7,1.679,60.881,60.881,0,0,0-9.983,4.689c-1.023.589-2.042,1.2-3.009,1.877a12.593,12.593,0,0,0-2.582,2.5,6.664,6.664,0,0,0-1.411,4.146,12.3,12.3,0,0,0,1.833,5.6h-1.231c2.946-5.835,9.23-9.433,15-11.943A87.8,87.8,0,0,1,639.3,17.951c1.225-.255,2.456-.5,3.694-.684.9-.134,1.285,1.24.379,1.375" transform="translate(12689.952 -2065.234)"/>
      <path id="Trazado_708" data-name="Trazado 708" d="M589.889,29.213s4.754,2.614,7.843,1.426c-.475,1.426-6.893,3.8-10.458,1.426" transform="translate(12744.431 -2074.116)"/>
      <path id="Trazado_709" data-name="Trazado 709" d="M589.38,27.776a14.8,14.8,0,0,0,2.532,1.067,7.378,7.378,0,0,0,4.762.287.717.717,0,0,1,.878.877,3.209,3.209,0,0,1-1.6,1.55,11.412,11.412,0,0,1-2.909,1.073c-2.3.531-4.954.557-7-.77-.767-.5-.053-1.732.72-1.231a7.647,7.647,0,0,0,5.774.656,10.414,10.414,0,0,0,2.519-.865,6.208,6.208,0,0,0,.767-.46,2.255,2.255,0,0,0,.307-.285c-.006.007.089-.168.044-.046l.877.877a8.537,8.537,0,0,1-5.4-.248,16.823,16.823,0,0,1-2.994-1.25c-.805-.441-.086-1.672.72-1.231" transform="translate(12745.301 -2073.295)"/>
      <path id="Trazado_748" data-name="Trazado 748" d="M627.5,80.053a2.085,2.085,0,0,1-3.715-1.895Z" transform="translate(12697.833 -2100.36)"/>
      <path id="Trazado_749" data-name="Trazado 749" d="M627.368,79.789a2.5,2.5,0,0,1-4.65-.59,2.576,2.576,0,0,1,.219-1.723.422.422,0,0,1,.567-.149l3.259,1.662.457.232c.476.243.056.959-.419.717l-3.259-1.662-.456-.232.567-.149a1.671,1.671,0,0,0,3,1.476c.248-.473.965-.054.716.419" transform="translate(12698.325 -2099.887)"/>
      <path id="Trazado_603" data-name="Trazado 603" d="M86.6,486.944l20.229,15.768s-1.9,6.829-8.445,8.9c-4.055,1.127-20.623-13.581-26.146-11.49" transform="translate(13387.918 -2311.152)" fill="#ffc2d6"/>
      <path id="Trazado_604" data-name="Trazado 604" d="M86.007,485.581l6.868,5.354,10.858,8.463,2.5,1.951a.56.56,0,0,1,.147.556,14.691,14.691,0,0,1-3.24,5.652,12.84,12.84,0,0,1-4.794,3.359,3.722,3.722,0,0,1-1.665.364A5.791,5.791,0,0,1,95.328,511a35.7,35.7,0,0,1-7.449-3.923c-2.934-1.8-5.834-3.668-8.882-5.272a26.9,26.9,0,0,0-3.95-1.764,10.989,10.989,0,0,0-1.76-.45,5.952,5.952,0,0,0-.679-.059c-.115,0-.23,0-.344,0-.055,0-.111.007-.166.011a.528.528,0,0,0-.089.009,3.151,3.151,0,0,0-.618.159c-.691.255-.989-.85-.3-1.1a5.484,5.484,0,0,1,3.064-.014,18.649,18.649,0,0,1,3.748,1.384,87,87,0,0,1,8.677,4.95,69.208,69.208,0,0,0,7.857,4.5,10.8,10.8,0,0,0,1.417.532,3.015,3.015,0,0,0,1.044.178q.119,0,.238-.013c-.181.019.054-.013.1-.028a10.657,10.657,0,0,0,1.546-.622,11.412,11.412,0,0,0,2.433-1.624,13.627,13.627,0,0,0,4.066-6.255l.147.556L98.559,496.8,87.7,488.34l-2.5-1.951a.575.575,0,0,1,0-.808.585.585,0,0,1,.808,0" transform="translate(13388.913 -2310.194)"/>
      <path id="Trazado_605" data-name="Trazado 605" d="M251.24,497.2l12.974,22.124s-4.284,5.646-11.135,5.152c-4.184-.449-14.148-20.238-20.053-20.335" transform="translate(13170.755 -2317.593)" fill="#ffc2d6"/>
      <path id="Trazado_606" data-name="Trazado 606" d="M250.742,495.954l4.4,7.512,6.964,11.876,1.605,2.737a.561.561,0,0,1,0,.577,14.617,14.617,0,0,1-5.512,4.288,12.175,12.175,0,0,1-6.117,1.147,4.394,4.394,0,0,1-2.329-1.256,40.549,40.549,0,0,1-5.379-6.417c-2.019-2.7-3.986-5.452-6.192-8.008a24.728,24.728,0,0,0-3.352-3.345,5.26,5.26,0,0,0-2.8-1.31.572.572,0,0,1,0-1.143,5.372,5.372,0,0,1,2.8,1.046,18.142,18.142,0,0,1,2.977,2.629,83.627,83.627,0,0,1,6.138,7.651,79.282,79.282,0,0,0,5.548,7.041,8.513,8.513,0,0,0,2.124,1.8c.039.021.08.04.119.059.132.063-.114-.041.02.009.075.028.15.052.226.075.048.015.291.049.1.028a7.746,7.746,0,0,0,.912.03,11.209,11.209,0,0,0,3.1-.461,13.471,13.471,0,0,0,4.872-2.686,15.14,15.14,0,0,0,1.336-1.278c.126-.137.251-.276.369-.42.048-.058.225-.286.048-.055v.577l-4.405-7.512-6.964-11.876-1.6-2.737a.572.572,0,0,1,.987-.577" transform="translate(13171.747 -2316.639)"/>
      <path id="Trazado_698" data-name="Trazado 698" d="M89.167,379.272c0,12.292,9.076,23.078,22.726,29.158q2.265,1.009,4.692,1.841,1.877.642,3.841,1.171a66.044,66.044,0,0,0,17.13,2.217c26.724,0,48.389-15.4,48.389-34.386s-21.665-34.386-48.389-34.386-48.389,15.4-48.389,34.386" transform="translate(13302.505 -2221.905)" fill="#ffc2d6"/>
      <path id="Trazado_699" data-name="Trazado 699" d="M88.838,378.3c.022,8.464,4.544,15.987,10.814,21.41,7.834,6.776,18.086,10.521,28.262,11.846a65.667,65.667,0,0,0,29.414-2.758c7.631-2.59,14.928-6.823,20.228-12.979a26.835,26.835,0,0,0,6.853-19.3c-.515-7.18-4.331-13.627-9.489-18.491-6.088-5.741-13.917-9.458-21.967-11.526a66.309,66.309,0,0,0-28.307-.943,53.733,53.733,0,0,0-23.463,10.069c-5.678,4.455-10.307,10.5-11.824,17.663a24.4,24.4,0,0,0-.521,5.008.572.572,0,0,1-1.143,0c.017-7.434,3.379-14.32,8.442-19.641,5.844-6.141,13.638-10.248,21.7-12.646a67.291,67.291,0,0,1,28.924-1.923,56.275,56.275,0,0,1,24.756,9.659c6.053,4.392,11.154,10.431,13.171,17.746a26.42,26.42,0,0,1-3.116,20.744c-4.152,6.814-10.783,11.869-17.926,15.234a63.662,63.662,0,0,1-27.738,5.78c-11.058-.119-22.357-2.838-31.755-8.8-7.329-4.649-13.681-11.56-15.75-20.181a25.924,25.924,0,0,1-.711-5.973.572.572,0,0,1,1.143,0" transform="translate(13303.405 -2220.929)"/>
      <path id="Trazado_702" data-name="Trazado 702" d="M50.573,323.36c2.858-.19,3.239,13.336,2.667,25.147a16.558,16.558,0,0,0-12.383,0l-8.573-9.144s5.334-15.05,18.289-16" transform="translate(13456.13 -2208.379)" fill="#ffc2d6"/>
      <path id="Trazado_703" data-name="Trazado 703" d="M49.608,321.823c.886-.04,1.486.738,1.823,1.462a13.9,13.9,0,0,1,.994,3.822,80.319,80.319,0,0,1,.645,12.282c-.013,2.719-.094,5.436-.224,8.152a.58.58,0,0,1-.86.493L51.912,348c-.169-.073.062.022-.079-.033-.23-.091-.462-.177-.7-.255a15.645,15.645,0,0,0-2.577-.612,16.8,16.8,0,0,0-8.516.992.558.558,0,0,1-.556-.147l-7.5-8L30.915,338.8a.57.57,0,0,1-.147-.556,28.2,28.2,0,0,1,2.661-5.33,25.369,25.369,0,0,1,8.524-8.708,17.888,17.888,0,0,1,7.654-2.384c.733-.057.73,1.087,0,1.143a18.071,18.071,0,0,0-11.5,5.743,30.007,30.007,0,0,0-5.5,8.108q-.18.381-.349.77l-.065.151c-.041.094-.051.119-.024.055-.036.086-.072.171-.107.258-.067.165-.133.331-.193.5l-.147-.556,7.5,7.995,1.077,1.149-.556-.147a17.932,17.932,0,0,1,9.011-1.009,13.3,13.3,0,0,1,3.813,1.066l-.86.494c.213-4.442.307-8.9.156-13.344-.065-1.9-.173-3.811-.393-5.7a20.455,20.455,0,0,0-.777-3.983,3.986,3.986,0,0,0-.616-1.286c.068.087-.1-.1-.129-.13s-.043-.039-.065-.057c.117.1-.025-.01-.052-.028-.121-.075.07,0-.092-.037-.038-.009-.132-.029.024,0a.72.72,0,0,0-.151,0c-.735.033-.734-1.11,0-1.143" transform="translate(13457.096 -2207.414)"/>
      <path id="Trazado_710" data-name="Trazado 710" d="M21.011,367.21a24.313,24.313,0,0,1,21.051-11.049,27.147,27.147,0,1,1-20.182,45.3" transform="translate(13444.578 -2228.988)" fill="#ffc2d6"/>
      <path id="Trazado_711" data-name="Trazado 711" d="M19.579,365.949a26.364,26.364,0,0,1,9.833-8.756,26.736,26.736,0,0,1,13.4-2.525A27.716,27.716,0,1,1,20.537,400.9c-.493-.544.313-1.355.808-.808a26.537,26.537,0,1,0,11.533-43.081,23.491,23.491,0,0,0-10.34,6.982,29.518,29.518,0,0,0-1.973,2.537c-.418.6-1.409.029-.987-.577" transform="translate(13445.517 -2228.015)"/>
      <path id="Trazado_712" data-name="Trazado 712" d="M128.979,338.341s-5.334-15.05-18.289-16c7.62,4.953,9.716,25.147,9.716,25.147" transform="translate(13351.47 -2207.739)" fill="#ffc2d6"/>
      <path id="Trazado_713" data-name="Trazado 713" d="M127.4,337.524c-.047-.133-.1-.264-.151-.395l-.077-.19-.051-.123a.471.471,0,0,0-.021-.05q-.134-.314-.276-.625a32.826,32.826,0,0,0-1.907-3.573,24.342,24.342,0,0,0-8-8.293,16.637,16.637,0,0,0-7.259-2.335l.288-1.065a13.409,13.409,0,0,1,4.007,4.492,33.493,33.493,0,0,1,2.817,6.388,71.059,71.059,0,0,1,2.816,12.071c.135.894.265,1.79.358,2.69.076.731-1.067.726-1.143,0-.019-.181-.041-.362-.063-.542q-.038-.31-.08-.619c-.019-.144.01.074-.01-.077-.01-.074-.02-.147-.03-.221q-.032-.228-.065-.456-.368-2.53-.889-5.037a47.531,47.531,0,0,0-4.181-12.7,13.239,13.239,0,0,0-4.115-5c-.438-.287-.315-1.111.288-1.065a19.188,19.188,0,0,1,12.137,5.9,30.77,30.77,0,0,1,5.849,8.514c.309.656.611,1.322.854,2.006s-.857.993-1.1.3" transform="translate(13352.498 -2206.77)"/>
      <path id="Trazado_714" data-name="Trazado 714" d="M146.36,347.482s0-20.575-9.716-25.147c-2.858-.191-3.239,13.336-2.667,25.147a16.56,16.56,0,0,1,12.383,0" transform="translate(13325.516 -2207.736)" fill="#ff3e6c"/>
      <path id="Trazado_715" data-name="Trazado 715" d="M144.831,346.544c0-1.6-.125-3.207-.285-4.8a47.892,47.892,0,0,0-2.005-10.044c-1.054-3.237-2.641-6.636-5.409-8.758a9.471,9.471,0,0,0-1-.667c-.163-.095-.334-.176-.5-.27a1.076,1.076,0,0,1-.156-.078c0-.015.228.063.152.039-.091-.029-.077,0-.034,0-.141.014-.179.058-.293.178a.707.707,0,0,0-.156.188,3.75,3.75,0,0,0-.215.366,14.658,14.658,0,0,0-1.11,4.857,111,111,0,0,0-.326,16.759q.042,1.116.1,2.231l-.86-.493a13.3,13.3,0,0,1,3.813-1.066,17.934,17.934,0,0,1,9.011,1.009c.68.26.385,1.366-.3,1.1a16.8,16.8,0,0,0-8.516-.992,15.687,15.687,0,0,0-2.577.611c-.235.078-.467.164-.7.255-.137.054.081-.036-.079.034l-.074.034a.58.58,0,0,1-.86-.493,128.49,128.49,0,0,1,.113-17.838c.134-1.458.61-9.259,3.728-7.648,3.276,1.693,5.3,5.047,6.637,8.361a43.331,43.331,0,0,1,2.595,10.831,41.56,41.56,0,0,1,.453,6.2c0,.031,0,.062,0,.094a.572.572,0,0,1-1.143,0" transform="translate(13326.474 -2206.797)"/>
      <line id="Línea_26" data-name="Línea 26" x2="3.36" y2="1.521" transform="translate(13470.802 -1860.632)" fill="#fc7272"/>
      <path id="Trazado_716" data-name="Trazado 716" d="M126.926,387.522l2.939,1.331.421.19a.573.573,0,0,1,.2.782.588.588,0,0,1-.782.205L126.77,388.7l-.421-.19a.573.573,0,0,1-.2-.782.588.588,0,0,1,.782-.205" transform="translate(13344.163 -2248.648)"/>
      <path id="Trazado_717" data-name="Trazado 717" d="M1.537,422.006c0,6.366,6.328,11.526,14.133,11.526S29.8,428.371,29.8,422.006,23.475,410.48,15.67,410.48,1.537,415.64,1.537,422.006" transform="translate(13491.224 -2263.114)" fill="#ff3e6c"/>
      <path id="Trazado_718" data-name="Trazado 718" d="M1.143,421.035c.031,5.108,4.251,8.907,8.874,10.281,5.115,1.52,11.234.5,15.13-3.3a9.962,9.962,0,0,0,3.079-6.114A9.491,9.491,0,0,0,26.3,415.35c-3.2-4.272-9.135-5.9-14.241-5.064-4.839.793-9.758,3.971-10.758,9.065a8.979,8.979,0,0,0-.158,1.684.572.572,0,0,1-1.143,0c.034-5.6,4.561-9.831,9.649-11.364,5.553-1.674,12.2-.51,16.391,3.655a11.152,11.152,0,0,1,3.323,6.781,10.461,10.461,0,0,1-2.077,7.19c-3.522,4.73-9.876,6.513-15.532,5.589C6.517,432.03,1.19,428.42.177,422.91A10.758,10.758,0,0,1,0,421.035a.572.572,0,0,1,1.143,0" transform="translate(13492.189 -2262.143)"/>
      <path id="Trazado_719" data-name="Trazado 719" d="M14.118,436.366a2.755,2.755,0,0,0,2.644,2.854,2.862,2.862,0,0,0,0-5.708,2.755,2.755,0,0,0-2.644,2.854" transform="translate(13496.944 -2277.583)"/>
      <ellipse id="Elipse_5" data-name="Elipse 5" cx="2.644" cy="2.854" rx="2.644" ry="2.854" transform="translate(13511.062 -1844.072)" fill="none" stroke="#000" stroke-miterlimit="10" stroke-width="1.025"/>
      <path id="Trazado_720" data-name="Trazado 720" d="M42.015,436.366a2.651,2.651,0,1,0,2.644-2.854,2.755,2.755,0,0,0-2.644,2.854" transform="translate(13458.677 -2277.583)"/>
      <ellipse id="Elipse_6" data-name="Elipse 6" cx="2.644" cy="2.854" rx="2.644" ry="2.854" transform="translate(13500.691 -1844.072)" fill="none" stroke="#000" stroke-miterlimit="10" stroke-width="1.025"/>
      <path id="Trazado_721" data-name="Trazado 721" d="M93.537,400.3a1.309,1.309,0,1,0,1.306-1.41,1.361,1.361,0,0,0-1.306,1.41" transform="translate(13390.677 -2255.83)"/>
      <ellipse id="Elipse_7" data-name="Elipse 7" cx="1.306" cy="1.41" rx="1.306" ry="1.41" transform="translate(13484.214 -1856.944)" fill="none" stroke="#000" stroke-miterlimit="10" stroke-width="1.025"/>
      <path id="Trazado_722" data-name="Trazado 722" d="M54.1,396.807a1.309,1.309,0,1,0,1.306-1.41,1.361,1.361,0,0,0-1.306,1.41" transform="translate(13444.769 -2253.638)"/>
      <ellipse id="Elipse_8" data-name="Elipse 8" cx="1.306" cy="1.41" rx="1.306" ry="1.41" transform="translate(13498.873 -1858.241)" fill="none" stroke="#000" stroke-miterlimit="10" stroke-width="1.025"/>
      <path id="Trazado_723" data-name="Trazado 723" d="M88.8,388.615a4.285,4.285,0,0,0-.567-.306,6.487,6.487,0,0,0-1.434-.438,5.2,5.2,0,0,0-4.4,1.406c-.544.494-1.354-.312-.808-.808a6.409,6.409,0,0,1,5.282-1.737,6.209,6.209,0,0,1,2.509.9c.61.405.038,1.4-.577.987" transform="translate(13401.694 -2248.155)"/>
      <path id="Trazado_724" data-name="Trazado 724" d="M49.678,386.392a4.273,4.273,0,0,0-.567-.306,6.485,6.485,0,0,0-1.434-.438,5.2,5.2,0,0,0-4.4,1.406c-.544.494-1.354-.312-.808-.808a6.409,6.409,0,0,1,5.282-1.737,6.208,6.208,0,0,1,2.509.9c.61.405.038,1.4-.577.987" transform="translate(13455.362 -2246.759)"/>
      <path id="Trazado_725" data-name="Trazado 725" d="M87.3,448.9a4.338,4.338,0,0,0,3.676,1.6" transform="translate(13398.171 -2287.248)" fill="#fc7272"/>
      <path id="Trazado_726" data-name="Trazado 726" d="M86.83,447.647c-.168-.222-.061-.079-.016-.026s.118.132.18.2q.148.151.308.287c.04.034.219.2.1.081a1.494,1.494,0,0,0,.21.152,4.542,4.542,0,0,0,.489.29c.052.026.1.052.157.076l.081.036-.033-.014c.11.036.216.082.326.116s.216.061.326.085q.085.018.171.032l.075.012q-.1-.013,0,0a4.53,4.53,0,0,0,.812,0,.574.574,0,0,1,.572.572.587.587,0,0,1-.572.571,4.789,4.789,0,0,1-4.169-1.885.573.573,0,0,1,.205-.782.589.589,0,0,1,.782.205" transform="translate(13399.133 -2286.288)"/>
      <path id="Trazado_727" data-name="Trazado 727" d="M140.885,503.243l13.31,21.924s-4.2,5.711-11.056,5.321c-4.19-.386-11.414-17.906-17.32-17.913l-5.367.506" transform="translate(13322.624 -2321.392)" fill="#ffc2d6"/>
      <path id="Trazado_728" data-name="Trazado 728" d="M140.383,502.008l4.519,7.444,7.144,11.768,1.647,2.712a.56.56,0,0,1,0,.577,14.749,14.749,0,0,1-6.145,4.674,12.522,12.522,0,0,1-3.157.843,6.841,6.841,0,0,1-2.776-.01A6.454,6.454,0,0,1,138.958,528a85.717,85.717,0,0,1-6.05-8.311,49.291,49.291,0,0,0-3.231-4.2,12.435,12.435,0,0,0-3.19-2.8,3.792,3.792,0,0,0-2.5-.413l-4.212.4-.317.03c-.732.069-.727-1.074,0-1.143l3.407-.321a6.059,6.059,0,0,1,6.295,2.055,29.737,29.737,0,0,1,3.268,3.8c2.119,2.813,3.965,5.823,6.11,8.616a14.154,14.154,0,0,0,2.557,2.748,4.6,4.6,0,0,0,.591.364c.147.076.017.023.17.071a2.624,2.624,0,0,0,.3.079l.064,0c.164.007.327.013.491.015q.443,0,.886-.026a10.722,10.722,0,0,0,1.642-.241,13.8,13.8,0,0,0,7.447-4.757c.13-.158-.033.047.027-.033v.577l-4.519-7.444L141.043,505.3l-1.646-2.712a.572.572,0,0,1,.987-.577" transform="translate(13323.619 -2320.445)"/>
      <path id="Trazado_729" data-name="Trazado 729" d="M120.682,480.636a18.434,18.434,0,0,0,5.071,9.354,48.885,48.885,0,0,0,4.287-3.2s-6.047-2.174-9.358-6.156" transform="translate(13346.693 -2307.189)"/>
      <path id="Trazado_730" data-name="Trazado 730" d="M120.237,479.479a12.858,12.858,0,0,0,.848,2.889,19.225,19.225,0,0,0,4.077,6.213l-.693-.09a43.915,43.915,0,0,0,4.171-3.108l.252.955a26.512,26.512,0,0,1-3.574-1.643,20.549,20.549,0,0,1-6.036-4.66c-.47-.56.334-1.373.809-.808a19.671,19.671,0,0,0,5.8,4.481,24.5,24.5,0,0,0,3.3,1.528.577.577,0,0,1,.252.955,46.406,46.406,0,0,1-4.4,3.287.577.577,0,0,1-.693-.089,20.687,20.687,0,0,1-4.289-6.516,13.166,13.166,0,0,1-.929-3.09.592.592,0,0,1,.4-.7.576.576,0,0,1,.7.4" transform="translate(13347.689 -2306.184)"/>
      <path id="Trazado_731" data-name="Trazado 731" d="M350.9,369.818a26.369,26.369,0,0,0-2.721-1.716,18.134,18.134,0,0,0-5.721-2.218c-1.836-.311-3.774.036-4.8,1.735a2.712,2.712,0,0,0-.369.829c-.027.1-.073.33-.074.337s-.016.26-.013.371c0,.069.007.137.014.205.009.1-.022-.086.013.071.029.132.064.259.1.388.011.036.079.2.024.071.024.054.049.109.077.161.064.119.133.233.207.347.019.03.122.165.046.068.042.054.087.107.133.159.088.1.181.193.278.283a2.823,2.823,0,0,0,.6.445,4.4,4.4,0,0,0,1.514.608,4.166,4.166,0,0,0,3.079-.413,3.073,3.073,0,0,0,1.091-1.18,4.861,4.861,0,0,0,.5-2.015,10.428,10.428,0,0,0-.388-3.073,9.973,9.973,0,0,0-1.6-3.674c-1.374-1.759-3.507-2.288-5.612-2.6-1.627-.238-3.717-.312-4.787-1.765a3.086,3.086,0,0,1-.5-1.113c-.171-.715.931-1.02,1.1-.3a1.98,1.98,0,0,0,1.334,1.465,12.578,12.578,0,0,0,2.728.553c2.279.32,4.607.827,6.235,2.591a9.639,9.639,0,0,1,2,3.834,13.262,13.262,0,0,1,.634,3.566,5.356,5.356,0,0,1-1.655,4.329,5.6,5.6,0,0,1-7.246-.615,3.531,3.531,0,0,1-.915-3.483,4.958,4.958,0,0,1,4.43-3.413,12.969,12.969,0,0,1,6.439,1.589,28.777,28.777,0,0,1,4.186,2.431c.072.051.144.1.215.153.587.431.018,1.423-.577.987" transform="translate(13046.458 -2228.524)"/>
      <path id="Trazado_732" data-name="Trazado 732" d="M220.146,361.977c-5.028-.828-19.144-2.445-32.923,2.471a2.5,2.5,0,0,0-1.644,2.641l.027.228a2.484,2.484,0,0,0,3.041,2.122c6.015-1.43,20.838-4.484,30.625-2.521a2.482,2.482,0,0,0,2.96-2.557c0-.022,0-.043,0-.065a2.484,2.484,0,0,0-2.081-2.32" transform="translate(13230.383 -2232.057)"/>
      <path id="Trazado_733" data-name="Trazado 733" d="M219.036,361.559a72.307,72.307,0,0,0-12.3-.907,63.072,63.072,0,0,0-18.691,2.83c-1.24.4-2.88.755-2.866,2.374a2,2,0,0,0,2.133,2.1,22.833,22.833,0,0,0,2.473-.552q1.517-.333,3.039-.632a103.336,103.336,0,0,1,15.417-1.977,48.234,48.234,0,0,1,7.844.226c.616.074,1.23.162,1.841.271a2.65,2.65,0,0,0,1.663-.037,1.95,1.95,0,0,0-.548-3.7c-.721-.138-.416-1.24.3-1.1a3.088,3.088,0,0,1,.644,5.866c-1.225.521-2.583.006-3.84-.148a41.089,41.089,0,0,0-4.128-.281,85.565,85.565,0,0,0-17.064,1.638q-3.243.59-6.454,1.336a5.387,5.387,0,0,1-1.565.236,3.107,3.107,0,0,1-1.787-.717,3.328,3.328,0,0,1-.916-3.629c.623-1.616,2.266-1.989,3.764-2.46,1.734-.545,3.5-1,5.275-1.377a66.362,66.362,0,0,1,10.047-1.3,75.01,75.01,0,0,1,14.95.673q.539.079,1.075.167c.725.119.417,1.221-.3,1.1" transform="translate(13231.34 -2231.088)"/>
      <path id="Trazado_734" data-name="Trazado 734" d="M290.555,224.367a17.431,17.431,0,1,0,21.113-12.727,17.432,17.432,0,0,0-21.113,12.727" transform="translate(13119.1 -2166.007)" fill="#ffcc3e"/>
      <path id="Trazado_735" data-name="Trazado 735" d="M290.244,223.554a16.806,16.806,0,1,0,.826-2.51,17.665,17.665,0,0,0-.826,2.51.572.572,0,0,1-1.1-.3,18,18,0,1,1-.462,2.757,19.169,19.169,0,0,1,.462-2.757c.174-.715,1.277-.412,1.1.3" transform="translate(13119.963 -2165.042)"/>
      <path id="Trazado_736" data-name="Trazado 736" d="M318.024,223.305a13.042,13.042,0,1,0,6.018,3.367" transform="translate(13111.689 -2173.417)" fill="#ffcc3e"/>
      <path id="Trazado_737" data-name="Trazado 737" d="M316.971,222.892a12.481,12.481,0,1,0,5.766,3.219.572.572,0,0,1,.808-.808,13.629,13.629,0,1,1-8.18-3.845,14.84,14.84,0,0,1,1.91.332c.715.173.412,1.276-.3,1.1" transform="translate(13112.591 -2172.453)"/>
      <path id="Trazado_738" data-name="Trazado 738" d="M328.327,240.342a4.371,4.371,0,0,1-2.279.283,2.352,2.352,0,0,1-1.38-2.658c.249-1.226,1.236-1.443,2.279-1.7a2.121,2.121,0,0,1,2.582,1.676,1.144,1.144,0,0,0,2.219-.55,4.419,4.419,0,0,0-4.582-3.441q-.164-.661-.328-1.322a1.144,1.144,0,0,0-2.219.55q.159.645.32,1.29a3.8,3.8,0,0,0-1.385.885,4.477,4.477,0,0,0-1.169,3.7,4.365,4.365,0,0,0,5.159,3.832c.737-.15,1.532-.552,2.279-.268a2.256,2.256,0,0,1,1.17,2.828c-.4,1.043-1.418,1.132-2.366,1.367a1.754,1.754,0,0,1-2.326-1.3,1.144,1.144,0,0,0-2.219.55,4.251,4.251,0,0,0,2.2,2.786,3.771,3.771,0,0,0,2.3.3l.314,1.266a1.144,1.144,0,0,0,2.219-.55l-.316-1.274a3.772,3.772,0,0,0,1.134-.632,4.387,4.387,0,0,0-3.6-7.618" transform="translate(13098.59 -2178.996)" fill="#fff"/>
      <path id="Trazado_739" data-name="Trazado 739" d="M260.067,368.665q1.395-.5,2.791-.907a17.407,17.407,0,0,0,5.14,4.519c-2.628.491-4.887.994-6.507,1.379a2.484,2.484,0,0,1-3.041-2.122l-.027-.228a2.5,2.5,0,0,1,1.644-2.641" transform="translate(13157.538 -2236.274)"/>
      <path id="Trazado_740" data-name="Trazado 740" d="M258.981,367.145q1.383-.491,2.791-.907a.592.592,0,0,1,.645.262,17.067,17.067,0,0,0,4.935,4.315.578.578,0,0,1-.136,1.045q-2.4.449-4.775.98c-1.184.265-2.427.745-3.613.255a3.193,3.193,0,0,1-1.922-2.89,3.115,3.115,0,0,1,2.076-3.059c.687-.265.984.839.3,1.1a2.058,2.058,0,0,0,.765,3.936,7.419,7.419,0,0,0,1.364-.282q.785-.18,1.571-.351,1.958-.425,3.927-.793-.069.522-.137,1.045a18.494,18.494,0,0,1-5.345-4.725l.645.263q-1.407.418-2.791.907c-.694.247-.993-.858-.3-1.1" transform="translate(13158.472 -2235.304)"/>
      <path id="Trazado_741" data-name="Trazado 741" d="M189.454,363.04c.456.065.87.13,1.234.19a2.483,2.483,0,0,1,2.081,2.32c0,.022,0,.043,0,.065a2.482,2.482,0,0,1-2.96,2.556,32.65,32.65,0,0,0-4.252-.539,17.419,17.419,0,0,0,3.893-4.591" transform="translate(13259.841 -2233.31)"/>
      <path id="Trazado_742" data-name="Trazado 742" d="M188.649,361.538a4.829,4.829,0,0,1,2.735.931,3.1,3.1,0,0,1-.188,4.733,3.158,3.158,0,0,1-2.618.545,32.762,32.762,0,0,0-3.975-.494c-.447-.03-.814-.633-.4-.976A17.293,17.293,0,0,0,188,361.8a.572.572,0,0,1,.987.577,18.215,18.215,0,0,1-3.983,4.707l-.4-.975a35.388,35.388,0,0,1,3.9.464,2.881,2.881,0,0,0,1.364.05,1.935,1.935,0,0,0,.98-.663,2,2,0,0,0,.1-2.26c-.564-.9-1.655-.924-2.6-1.06a.575.575,0,0,1-.4-.7.586.586,0,0,1,.7-.4" transform="translate(13260.797 -2232.358)"/>
      <path id="Trazado_743" data-name="Trazado 743" d="M199.772,293.38a17.435,17.435,0,0,1,16.843,29.883c-6.479-.426-14.068.6-19.865,1.681a17.432,17.432,0,0,1,3.022-31.564" transform="translate(13228.784 -2188.94)" fill="#ffcc3e"/>
      <path id="Trazado_744" data-name="Trazado 744" d="M198.681,291.905a18,18,0,0,1,22.147,24.672,17.978,17.978,0,0,1-3.451,4.972q-.533.544-1.112,1.039a1.038,1.038,0,0,1-.588.323,6.832,6.832,0,0,1-.948-.052c-1.027-.045-2.055-.056-3.083-.041a87.369,87.369,0,0,0-12.75,1.24c-.933.152-1.861.323-2.792.488a1.668,1.668,0,0,1-1.245-.435c-.458-.292-.9-.607-1.331-.939a18,18,0,0,1,2.852-30.295,19.315,19.315,0,0,1,2.3-.972c.7-.243.995.86.3,1.1a16.858,16.858,0,0,0-2.885,30.52l-.441-.058a81.609,81.609,0,0,1,20.017-1.7l-.4.167a16.863,16.863,0,0,0-16.288-28.928c-.7.239-1-.865-.3-1.1" transform="translate(13229.726 -2188.017)"/>
      <path id="Trazado_745" data-name="Trazado 745" d="M208.616,305.382a13.042,13.042,0,1,0,6.88-.455" transform="translate(13221.374 -2196.8)" fill="#ffcc3e"/>
      <path id="Trazado_746" data-name="Trazado 746" d="M207.837,304.978a12.479,12.479,0,1,0,8.337.036,13.568,13.568,0,0,0-1.76-.492c-.719-.152-.415-1.254.3-1.1a13.623,13.623,0,1,1-9,1.229,14.8,14.8,0,0,1,1.819-.774c.7-.245.994.86.3,1.1" transform="translate(13222.306 -2195.845)"/>
      <path id="Trazado_747" data-name="Trazado 747" d="M226.272,322.6c-.7-.277-1.577-.376-2.065-1a2.351,2.351,0,0,1,.29-2.98c.877-.892,1.823-.537,2.835-.181a2.121,2.121,0,0,1,1.252,2.812,1.144,1.144,0,0,0,2.16.748,4.419,4.419,0,0,0-1.968-5.382l.445-1.287a1.144,1.144,0,0,0-2.16-.748l-.435,1.256a3.808,3.808,0,0,0-1.644-.012,4.479,4.479,0,0,0-3,2.465,4.366,4.366,0,0,0,2.238,6.024c.7.276,1.585.372,2.057,1.017a2.256,2.256,0,0,1-.559,3.008c-.9.659-1.806.177-2.729-.143a1.754,1.754,0,0,1-1.241-2.36,1.144,1.144,0,0,0-2.16-.748,4.25,4.25,0,0,0,.326,3.533,3.771,3.771,0,0,0,1.761,1.5l-.427,1.232a1.144,1.144,0,0,0,2.161.748l.429-1.24a3.778,3.778,0,0,0,1.3.087,4.387,4.387,0,0,0,1.131-8.35" transform="translate(13209.039 -2202.398)" fill="#fff"/>
      <path id="Trazado_750" data-name="Trazado 750" d="M282.829,475.19l-14.792,28.74s4.2,5.71,11.055,5.321c4.191-.386,11.585-18.069,17.491-18.076l6.32,1.859" transform="translate(13119.051 -2303.768)" fill="#ffc2d6"/>
      <path id="Trazado_751" data-name="Trazado 751" d="M282.407,474.5l-1.474,2.863-3.518,6.835-4.277,8.311-3.7,7.189-1.219,2.37a9.4,9.4,0,0,1-.578,1.123.441.441,0,0,0-.025.049v-.577c.005.007.025.025.025.033,0-.071-.087-.107.01.01.115.139.23.278.35.413a15.067,15.067,0,0,0,1.284,1.275,13.523,13.523,0,0,0,4.794,2.784,11.277,11.277,0,0,0,3.468.541q.21,0,.419-.009c.069,0,.349-.035.183-.006a2.659,2.659,0,0,0,.293-.074.464.464,0,0,0,.188-.077c.106-.054.21-.111.312-.174a11.583,11.583,0,0,0,2.637-2.666c2.259-2.852,4.156-5.974,6.342-8.881a30.6,30.6,0,0,1,3.415-3.97,8.017,8.017,0,0,1,3.4-2.119,2.445,2.445,0,0,1,1.287-.039l1.7.5,4.137,1.217.277.081a.572.572,0,0,1-.3,1.1l-3.293-.969-2.216-.652c-.213-.063-.428-.124-.64-.188a1.505,1.505,0,0,0-.145-.043c-.028-.006-.052,0,.022,0,.114.01-.123.019-.154.021a1.672,1.672,0,0,0-.282.047,3.888,3.888,0,0,0-.409.114,4.21,4.21,0,0,0-.752.344,8.93,8.93,0,0,0-1.609,1.19A27.1,27.1,0,0,0,289,496.293c-2.249,2.974-4.2,6.163-6.506,9.1a13.223,13.223,0,0,1-2.816,2.877c-1.393.947-3.279.646-4.831.3a14.6,14.6,0,0,1-8.028-5.084c-.064-.081-.128-.162-.19-.245a.569.569,0,0,1,0-.577L268.1,499.8l3.518-6.835,4.277-8.311,3.7-7.189c.595-1.156,1.13-2.377,1.8-3.493.009-.016.017-.032.025-.049.337-.654,1.323-.077.987.577" transform="translate(13119.966 -2302.794)"/>
      <path id="Trazado_1288" data-name="Trazado 1288" d="M676.443,2.949a1.408,1.408,0,1,0,1.409-1.409,1.409,1.409,0,0,0-1.409,1.409" transform="translate(12620.599 -2058.688)"/>
      <path id="Trazado_1289" data-name="Trazado 1289" d="M676.325,2.114c0,.039,0,.078.005.117,0,.114-.006-.062-.011-.072a1.727,1.727,0,0,1,.044.185c.01.034.031.071.038.106,0-.011-.079-.161-.026-.066.037.065.072.127.113.19.072.11-.1-.1-.031-.041.023.02.041.046.062.068s.035.034.053.051c.049.046.131.075-.03-.016.053.03.1.071.154.1l.066.035c.112.064-.17-.053-.014-.006.061.018.12.038.181.05s.109-.014-.055,0c.031,0,.065.006.1.007.065,0,.13,0,.2-.005.1-.005-.19.036-.054.006.037-.008.074-.016.11-.026s.072-.023.107-.035c.062-.02.044-.053-.065.028.048-.035.111-.056.162-.088.026-.016.05-.037.076-.052.077-.046-.137.121-.042.03a2.144,2.144,0,0,1,.153-.158c-.1.078-.079.111-.042.055.02-.031.041-.061.06-.093s.025-.043.036-.064c.034-.065.032-.141-.009.033.014-.06.042-.118.058-.179.006-.024.011-.049.017-.074.03-.132-.014.186,0,.016a1.436,1.436,0,0,0,0-.177c0-.066-.043-.162.008.034-.006-.024-.009-.05-.015-.075-.014-.061-.034-.12-.053-.18-.042-.132.08.153.012.032-.018-.032-.034-.066-.053-.1s-.033-.051-.05-.077c-.041-.066-.082-.048.032.04-.045-.035-.083-.093-.126-.133-.019-.017-.115-.087-.013-.016s0,0-.017-.011a1.9,1.9,0,0,1-.193-.109c.008.007.17.062.065.028-.036-.011-.071-.025-.107-.035S677,1.4,677.13,1.411s-.084,0-.12,0-.065,0-.1,0c-.139.005.16-.035.035,0-.074.018-.145.038-.218.061-.127.041.123-.069.048-.02-.035.023-.078.039-.114.061l-.062.039c-.154.1.081-.081,0,0l-.13.13c-.1.1.094-.142.019-.027-.02.031-.041.061-.06.093s-.035.065-.053.1c-.061.109.053-.159.012-.032-.023.073-.043.144-.061.218s.017.084.008-.074c0,.05-.008.105-.009.156a.7.7,0,0,1-1.408,0A2.15,2.15,0,0,1,676.337.12a2.1,2.1,0,0,1,2.284.609,2.141,2.141,0,0,1,.226,2.462,2.148,2.148,0,0,1-2.256.988,2.129,2.129,0,0,1-1.675-2.065.7.7,0,0,1,1.408,0" transform="translate(12621.426 -2057.854)"/>
      <path id="Trazado_1291" data-name="Trazado 1291" d="M667.228,15.294c-.6-.718-1.223-1.411-1.86-2.092a29.228,29.228,0,0,0-3.8-3.545,6.24,6.24,0,0,0-1.988-1.1.7.7,0,0,1,.375-1.358,10.731,10.731,0,0,1,4.137,2.741,45.181,45.181,0,0,1,3.447,3.553c.232.264.464.53.688.8a.724.724,0,0,1,0,1,.71.71,0,0,1-1,0" transform="translate(12640.017 -2062.006)"/>
      <path id="Trazado_706" data-name="Trazado 706" d="M660.134,11a25.884,25.884,0,0,0-9.206-4.115,11.213,11.213,0,0,0-3.438-.225,4.157,4.157,0,0,0-2.668,1,4.056,4.056,0,0,0-.659,2.322,14.89,14.89,0,0,0,.23,3.151,28.394,28.394,0,0,0,1.1,4.431c.3.871-1.08,1.244-1.375.379a28.635,28.635,0,0,1-1.039-4.072c-.378-2.069-.738-4.588.27-6.542,1.084-2.1,4.209-2.289,6.275-2.078a22.041,22.041,0,0,1,7.289,2.27,29.394,29.394,0,0,1,3.94,2.248c.749.519.037,1.756-.72,1.231" transform="translate(12654.457 -2061.004)"/>
    </g>
  </g>
</svg>
