<svg xmlns="http://www.w3.org/2000/svg" width="349.08" height="280" viewBox="0 0 349.08 280">
  <g id="Grupo_305" data-name="Grupo 305" transform="translate(-13014 2506)">
    <rect id="Rectángulo_99" data-name="Rectángulo 99" width="349.08" height="280" transform="translate(13014 -2506)" fill="none"/>
    <g id="Grupo_300" data-name="Grupo 300" transform="translate(-142 -64.503)">
      <path id="Trazado_967" data-name="Trazado 967" d="M2.187,408.5l55.5-152.46,53.267,141.208,11.975-23.2,15.717,25.2" transform="translate(13169.813 -2631.261)" fill="#fff"/>
      <path id="Trazado_968" data-name="Trazado 968" d="M1.477,405.8l1.47-4.039,4-10.991,5.917-16.255,7.22-19.832,7.907-21.72,7.955-21.852,7.441-20.439,6.269-17.221,4.525-12.429c.709-1.948,1.558-3.9,2.143-5.888.025-.085.062-.168.092-.252H54.988l1.41,3.738,3.837,10.172L65.91,283.84,72.835,302.2,80.42,322.3l7.656,20.3,7.138,18.922,6.031,15.988L105.58,389c.683,1.811,1.358,3.626,2.05,5.434.029.076.058.153.086.229a.751.751,0,0,0,1.354.177l3.987-7.725,6.4-12.4,1.467-2.842h-1.28l5.271,8.45,8.357,13.4,1.93,3.094c.5.807,1.786.064,1.279-.748l-5.271-8.45-8.357-13.4-1.93-3.094a.748.748,0,0,0-1.28,0l-3.987,7.726-6.4,12.4-1.467,2.842,1.354.177-1.41-3.738L103.9,380.36l-5.676-15.045L91.3,346.957,83.713,326.85l-7.656-20.3-7.138-18.922-6.031-15.987-4.335-11.492c-.683-1.811-1.358-3.626-2.05-5.434-.029-.076-.058-.153-.086-.229a.748.748,0,0,0-1.429,0l-1.47,4.039-4,10.991L43.6,285.776l-7.22,19.832-7.907,21.72-7.955,21.851-7.441,20.439L6.808,386.839,2.283,399.268C1.57,401.228.8,403.177.14,405.156c-.028.085-.061.168-.092.252-.327.9,1.1,1.284,1.429.394" transform="translate(13172 -2629.331)"/>
      <path id="Trazado_969" data-name="Trazado 969" d="M142.623,313.47h0a3.268,3.268,0,0,0,4.03-4.274l-20.075-53.157L109.007,304.3a3.07,3.07,0,0,0,4.7,3.523l5.466-4.023,4.336,7.931a5.257,5.257,0,0,0,9.33-.2l2.48-5.039,5.923,6.127a3.263,3.263,0,0,0,1.377.849" transform="translate(13101.125 -2630.682)" fill="#e2e2e2"/>
      <path id="Trazado_970" data-name="Trazado 970" d="M141.064,312.834a4,4,0,0,0,4.883-5.337c-.317-.844-.637-1.687-.955-2.53l-1.919-5.08-2.6-6.9-3.013-7.978-3.144-8.326-3-7.939-2.575-6.818-1.874-4.962c-.3-.791-.591-1.584-.9-2.372l-.039-.1a.748.748,0,0,0-1.429,0l-.7,1.915-1.85,5.081-2.639,7.247-3.063,8.415-3.125,8.585-2.824,7.756-2.158,5.929-1.13,3.1a4.218,4.218,0,0,0-.234,2.243,3.881,3.881,0,0,0,4.358,3.009,7.1,7.1,0,0,0,2.939-1.657L117.5,303.6l.69-.508-1.014-.266q2.145,3.923,4.289,7.846a6.036,6.036,0,0,0,5.654,3.175,6.133,6.133,0,0,0,5.151-3.6l2.33-4.735-1.163.15,5.58,5.772a5.055,5.055,0,0,0,2.047,1.394c.906.3,1.295-1.127.394-1.429a3.4,3.4,0,0,1-1.364-.982l-1.33-1.376-3.431-3.55-.848-.877a.746.746,0,0,0-1.163.15l-2.01,4.085a11.624,11.624,0,0,1-.915,1.7,4.468,4.468,0,0,1-2.658,1.716,4.559,4.559,0,0,1-4.973-2.312c-.708-1.277-1.4-2.562-2.1-3.843l-2.209-4.042a.744.744,0,0,0-1.014-.266l-5.292,3.894a2.843,2.843,0,0,1-1.36.629,2.4,2.4,0,0,1-2.048-.833,2.367,2.367,0,0,1-.343-2.462c.322-.893.649-1.783.973-2.674l2.005-5.508,2.7-7.4,3.057-8.4,3.058-8.4,2.7-7.417,2.013-5.53c.326-.9.71-1.792.985-2.706.012-.04.029-.079.043-.118H124.5l.6,1.584,1.617,4.283,2.371,6.279,2.845,7.533,3.083,8.163,3.042,8.055,2.736,7.245,2.165,5.732,1.328,3.516c.089.236.18.471.267.708a2.581,2.581,0,0,1-.762,3.013,2.526,2.526,0,0,1-2.333.409c-.912-.284-1.3,1.145-.394,1.429" transform="translate(13102.486 -2629.332)"/>
      <path id="Trazado_971" data-name="Trazado 971" d="M654.6,288.848H595.715l3.306-79.5c.34-8.169,11.561-14.616,19.737-14.616h29.676a19.6,19.6,0,0,1,19.483,17.418l6.164,54.907A19.605,19.605,0,0,1,654.6,288.848" transform="translate(12785.196 -2576.989)" fill="#4dcfd3"/>
      <path id="Trazado_972" data-name="Trazado 972" d="M653.118,286.721H596.629c-.751,0-1.544-.073-2.293,0-.033,0-.067,0-.1,0l.646.646q.074-1.778.148-3.556.194-4.672.388-9.345l.547-13.149q.311-7.484.622-14.968.307-7.38.614-14.76.263-6.315.525-12.629.178-4.275.356-8.55a17.2,17.2,0,0,1,.664-5.267,15.4,15.4,0,0,1,6.051-7.089,24.591,24.591,0,0,1,9.323-3.86,23.04,23.04,0,0,1,4.191-.3h19.2q4.672,0,9.345,0a18.958,18.958,0,0,1,18.937,16.785c.06.518.116,1.036.175,1.554l1.04,9.263q.786,7,1.573,14.009.825,7.356,1.652,14.712.639,5.692,1.278,11.383a55.9,55.9,0,0,1,.571,6.205,18.946,18.946,0,0,1-18.961,18.913.647.647,0,0,0,0,1.293,20.253,20.253,0,0,0,20.238-19.429,24.346,24.346,0,0,0-.187-3.7l-.9-8.008-1.536-13.682-1.685-15.007q-.69-6.144-1.38-12.287c-.2-1.741-.386-3.483-.586-5.223a20.242,20.242,0,0,0-20.169-18.07c-.954,0-1.908,0-2.863,0h-25.7a23.623,23.623,0,0,0-13.783,4.052c-4.018,2.611-7.477,6.514-7.684,11.5q-.113,2.72-.226,5.441l-.447,10.757q-.293,7.039-.585,14.079-.317,7.611-.633,15.222-.3,7.252-.6,14.5-.241,5.788-.482,11.577-.14,3.372-.28,6.743-.019.443-.037.886a.654.654,0,0,0,.646.646H645.86c2.381,0,4.778.078,7.158,0,.033,0,.067,0,.1,0a.647.647,0,0,0,0-1.293" transform="translate(12786.675 -2575.508)"/>
      <path id="Trazado_973" data-name="Trazado 973" d="M379.059,226.656,327.21,238.847a30.041,30.041,0,0,1-29.116-9.049l-28.1-30.95,12.32-13.634,34,31.7L359.1,205.382a41.287,41.287,0,0,1,10.75-1.424h8.032" transform="translate(13011.832 -2570.367)" fill="#fc7272"/>
      <path id="Trazado_974" data-name="Trazado 974" d="M377.423,224.561l-5.351,1.258-12.777,3-15.286,3.594-12.844,3.02c-1.862.438-3.724.88-5.587,1.314a29.628,29.628,0,0,1-22.823-4.034,30.516,30.516,0,0,1-5.875-5.075l-2.132-2.348-8.835-9.73-10.329-11.374-6.293-6.93-.308-.339v.914l10.776-11.926L281.3,184.2h-.914l4.088,3.812,9.468,8.828L304.739,206.9l7.939,7.4c.544.508,1.078,1.03,1.635,1.524.455.4.917.184,1.431.045l8.742-2.357,13.927-3.755,13.064-3.522q3.15-.849,6.3-1.7a41.408,41.408,0,0,1,10.731-1.41q3.057,0,6.114,0h1.8a.647.647,0,0,0,0-1.293c-5.445,0-10.936-.249-16.306.826-2.77.554-5.5,1.39-8.227,2.125l-14.134,3.81L322.8,212.634l-5.383,1.451c-.856.231-1.782.392-2.613.7-.039.015-.082.022-.122.033l.629.166-3.385-3.156-8.127-7.578-9.83-9.165L285.5,187.2c-1.377-1.284-2.723-2.615-4.138-3.858-.02-.018-.039-.037-.059-.055a.655.655,0,0,0-.914,0l-10.776,11.926-1.544,1.708a.663.663,0,0,0,0,.914l4.571,5.034,9.92,10.925,9.692,10.674c1.76,1.939,3.464,3.977,5.355,5.793a30.893,30.893,0,0,0,22.239,8.545,47.108,47.108,0,0,0,9.278-1.56l11.493-2.7,15.189-3.571,13.957-3.282,7.639-1.8.363-.085c.81-.19.467-1.437-.344-1.247" transform="translate(13013.296 -2568.895)"/>
      <path id="Trazado_975" data-name="Trazado 975" d="M380.139,253.547l-1.174-22.7h-8.032a41.3,41.3,0,0,0-10.75,1.423l-42.789,11.536L296,223.863c-1.164,2.884-4.534,7.067-9.125,11.035-1.476,1.276-13.9,6.11-15.333,7.1l19.6,18.624a40.855,40.855,0,0,0,37.106,10.244l52.674-11.844" transform="translate(13010.751 -2597.258)" fill="#fff"/>
      <path id="Trazado_976" data-name="Trazado 976" d="M379.311,252.076q-.2-3.849-.4-7.7-.315-6.1-.631-12.2-.073-1.4-.145-2.8a.659.659,0,0,0-.646-.646c-5.445,0-10.935-.249-16.306.826-2.769.554-5.5,1.39-8.223,2.124l-14.132,3.81-15,4.045-5.328,1.436c-.863.233-1.8.393-2.636.711-.037.014-.078.021-.116.031l.629.166-7.24-6.751L297.61,224.383l-2.627-2.449a.656.656,0,0,0-1.08.285,22.725,22.725,0,0,1-4.392,6.309,50.886,50.886,0,0,1-3.625,3.608c-.311.281-.622.563-.943.833-.068.057-.043.033.019-.012-.047.034-.093.068-.142.1-.2.128-.411.25-.623.365-3.337,1.811-6.951,3.156-10.43,4.663-.859.372-1.719.746-2.568,1.14a10.072,10.072,0,0,0-1.457.749.655.655,0,0,0-.131,1.015l5.641,5.361,9.942,9.447c2.331,2.215,4.61,4.536,7.153,6.509a41.77,41.77,0,0,0,20.748,8.463,43.387,43.387,0,0,0,14.578-.91L335,268.212l12.36-2.779,13.865-3.118,11.836-2.661,6.276-1.411.286-.064c.811-.183.468-1.429-.344-1.247l-4.357.98-10.693,2.4-13.577,3.053L337.6,266.3l-8.965,2.016a50.546,50.546,0,0,1-9.581,1.41,40.208,40.208,0,0,1-28.991-11.094l-2.169-2.061-9.378-8.912-7.574-7.2-.412-.392-.131,1.015a21.082,21.082,0,0,1,3.476-1.651c1.934-.843,3.878-1.663,5.812-2.5,1.663-.723,3.341-1.437,4.948-2.281a7.362,7.362,0,0,0,1.466-.978,52.723,52.723,0,0,0,3.823-3.684,25.5,25.5,0,0,0,5.229-7.429l-1.081.285,4.25,3.963,8.706,8.117,7.249,6.759c.391.364.767.778,1.188,1.108.443.346,1.061.05,1.548-.082l7.077-1.908,11.186-3.016,11.773-3.174,9-2.426c2.226-.6,4.439-1.229,6.717-1.613,4.437-.748,8.971-.552,13.453-.552h1.276l-.646-.646q.2,3.849.4,7.7.315,6.1.631,12.2.073,1.4.145,2.8c.043.828,1.336.833,1.293,0" transform="translate(13012.226 -2595.787)"/>
      <path id="Trazado_977" data-name="Trazado 977" d="M271,261.515c1.312,1.518,5.775-.08,10.889-3.639l-5.273-5.9c-4.165,4.482-6.912,8.039-5.616,9.539" transform="translate(13011.356 -2616.819)"/>
      <path id="Trazado_978" data-name="Trazado 978" d="M269.081,260.5c1.1,1.227,3.163.739,4.508.3a28.464,28.464,0,0,0,7.164-3.835.658.658,0,0,0,.131-1.015l-4.6-5.152-.67-.749a.652.652,0,0,0-.914,0,41.647,41.647,0,0,0-5.058,6.18c-.758,1.224-1.637,2.977-.557,4.274a.651.651,0,0,0,.914,0,.66.66,0,0,0,0-.914c.1.123-.119-.254-.065-.106-.019-.054-.032-.108-.049-.162-.054-.171-.01.029-.015-.077a2.416,2.416,0,0,1,.01-.381c-.016.143.007-.032.014-.062.019-.082.037-.165.06-.246a7.377,7.377,0,0,1,1.012-2,43.6,43.6,0,0,1,4.649-5.594H274.7l4.6,5.152.669.749.131-1.016a28.37,28.37,0,0,1-6.574,3.609,7.674,7.674,0,0,1-2.3.513,3.277,3.277,0,0,1-.519-.022c.114.016-.026-.006-.063-.015-.073-.018-.145-.037-.217-.057a.846.846,0,0,1-.433-.288c-.556-.621-1.468.3-.914.914" transform="translate(13012.814 -2615.345)"/>
      <path id="Trazado_979" data-name="Trazado 979" d="M291.406,193.7l-9.1-8.481-12.32,13.634,5.564,6.127,5.856,6.449a53.4,53.4,0,0,0,4.385-3.418c4.592-3.968,7.962-8.151,9.125-11.035Z" transform="translate(13011.832 -2570.367)" fill="#ffc2d6"/>
      <path id="Trazado_980" data-name="Trazado 980" d="M290.4,191.766l-7.974-7.435-1.122-1.046a.655.655,0,0,0-.914,0l-4.181,4.627-6.608,7.313-1.531,1.695a.663.663,0,0,0,0,.914l4.979,5.483,4.122,4.539,2.319,2.554a.65.65,0,0,0,.783.1,55.459,55.459,0,0,0,7.107-5.9,38.928,38.928,0,0,0,5.1-6,16.424,16.424,0,0,0,1.6-2.94.629.629,0,0,0-.166-.629l-3.514-3.276c-.608-.567-1.524.345-.914.914L293,195.957l-.166-.629a20.314,20.314,0,0,1-3.3,5.058,49.828,49.828,0,0,1-6,5.984q-1.885,1.6-3.914,3.025l.783.1-5.017-5.525-4.027-4.435-2.376-2.617v.914l4.181-4.627,6.608-7.313L281.3,184.2h-.914l7.974,7.435,1.123,1.046c.608.567,1.524-.345.914-.914" transform="translate(13013.295 -2568.895)"/>
      <path id="Trazado_981" data-name="Trazado 981" d="M242.683,171.555l-7.243-8.107-4.764-13.306s-12.156,1.478-10.185-8.049,16.263-9.692,20.2-2.793c1.608,2.815,3.08,5.11,4.259,6.84a35.9,35.9,0,0,0,5.248,6.1l2.9,2.691" transform="translate(13046.422 -2535.071)" fill="#ffc2d6"/>
      <path id="Trazado_982" data-name="Trazado 982" d="M241.661,169.618l-6.356-7.114-.887-.993.166.285-1.613-4.506-2.558-7.145-.592-1.655a.658.658,0,0,0-.623-.474,14.883,14.883,0,0,1-2.08.079q-.5-.01-.991-.048-.247-.019-.493-.046l-.266-.031-.075-.01c.089.012-.112-.017-.131-.019a11.51,11.51,0,0,1-2.2-.541c-.09-.033-.179-.067-.268-.1a.988.988,0,0,1-.162-.068c-.182-.083-.362-.17-.538-.266-.158-.086-.313-.179-.464-.278-.079-.052-.156-.106-.234-.161,0,0-.145-.108-.071-.052.054.042-.1-.078-.112-.091a5.32,5.32,0,0,1-.4-.366c-.06-.061-.119-.124-.175-.188-.038-.043-.075-.087-.112-.131-.018-.021-.12-.155-.042-.051a4.836,4.836,0,0,1-.323-.489q-.068-.117-.128-.237c-.021-.042-.138-.3-.1-.208a7.632,7.632,0,0,1,.426-5.871c1.764-3.748,5.953-5.35,9.911-5.173a12.011,12.011,0,0,1,5.59,1.612,8.383,8.383,0,0,1,2.147,1.8,27.977,27.977,0,0,1,2.208,3.554,54.186,54.186,0,0,0,5.936,8.353c1.442,1.6,3.057,3.027,4.632,4.489l.474.44c.609.566,1.526-.347.914-.914-1.166-1.083-2.352-2.147-3.493-3.256a44.338,44.338,0,0,1-6.52-8.422q-.753-1.2-1.474-2.422c-.393-.666-.748-1.363-1.192-2a9.53,9.53,0,0,0-2.2-2.224,12.649,12.649,0,0,0-5.953-2.215c-4.27-.523-9.04.923-11.49,4.645a9.782,9.782,0,0,0-1.493,6.749,5.905,5.905,0,0,0,2.985,4.167,13.539,13.539,0,0,0,7.788,1.3c.055-.005.11-.01.164-.017l-.623-.475,3.707,10.353.828,2.313a3,3,0,0,0,.441.976c1.139,1.329,2.334,2.613,3.5,3.918l3.7,4.138c.555.622,1.467-.3.914-.914" transform="translate(13047.902 -2533.591)"/>
      <path id="Trazado_983" data-name="Trazado 983" d="M222.05,145.871s-.363-4.683,3.925-4.97,9.052.863,13.652,6.448" transform="translate(13045.193 -2539.506)" fill="#ffc2d6"/>
      <path id="Trazado_984" data-name="Trazado 984" d="M221.2,144.392a4.426,4.426,0,0,1,0-.5c.007-.185.023-.369.044-.552,0-.033-.018.106,0-.025.009-.052.016-.1.026-.155q.031-.176.073-.35a3.759,3.759,0,0,1,.558-1.349,3.012,3.012,0,0,1,1.193-1.048,4.976,4.976,0,0,1,2.053-.377,15.909,15.909,0,0,1,2.325.1,13.259,13.259,0,0,1,4.726,1.506,18.845,18.845,0,0,1,5.474,4.69.651.651,0,0,0,.914,0,.661.661,0,0,0,0-.914c-2.689-3.246-6.23-5.854-10.479-6.49a16.54,16.54,0,0,0-2.6-.187,7.51,7.51,0,0,0-2.543.337,4.539,4.539,0,0,0-2.73,2.913,6.29,6.29,0,0,0-.327,2.406c.062.824,1.355.831,1.293,0" transform="translate(13046.687 -2538.028)"/>
      <path id="Trazado_985" data-name="Trazado 985" d="M215.544,157.159s-1.971-1.643-6.078-4.6c-8.049-5.914-17.412,2.628-17.412,2.628-3.614,1.643-.329,5.585,3.778,3.45s7.885-3.943,11.827,0-2.159,6.635-6.242,8.049c-4.271,1.478-2.957,5.092,2.136,4.435a16.249,16.249,0,0,1,1.836-.132,13.228,13.228,0,0,1,9.156,3.559l7.421,8.13" transform="translate(13067.14 -2546.195)" fill="#ffc2d6"/>
      <path id="Trazado_986" data-name="Trazado 986" d="M214.537,155.288c-.657-.547-1.337-1.068-2.014-1.589q-1.209-.93-2.438-1.833a27.707,27.707,0,0,0-3.021-2.087,12.538,12.538,0,0,0-10.877-.193,21.988,21.988,0,0,0-3.955,2.126c-.7.475-1.338,1.022-2.013,1.529-.022.017-.041.042-.064.057-.077.05.105-.065-.031-.015a3.016,3.016,0,0,0-1.054.763,2.348,2.348,0,0,0-.629,2.079c.326,1.618,2.176,2.4,3.667,2.364a7.042,7.042,0,0,0,3.076-.959,26.434,26.434,0,0,1,2.988-1.372,6.725,6.725,0,0,1,5.721.1,7.1,7.1,0,0,1,2.5,2.216,2.555,2.555,0,0,1,.414,1.011,1.758,1.758,0,0,1-.071.768,3.67,3.67,0,0,1-1.209,1.574,11.249,11.249,0,0,1-2.2,1.374,25.46,25.46,0,0,1-2.535,1.089,11.838,11.838,0,0,0-2.544,1.094c-1.122.755-2.009,2.173-1.17,3.476.929,1.442,2.973,1.673,4.529,1.55a20.964,20.964,0,0,1,3.753-.124,12.464,12.464,0,0,1,3.366.837,11.153,11.153,0,0,1,4.056,2.648l1.918,2.1,5.008,5.486.336.368c.562.616,1.475-.3.914-.914l-3.864-4.233-2.547-2.791a16.037,16.037,0,0,0-1.528-1.562,13.771,13.771,0,0,0-9.783-3.268,15.408,15.408,0,0,1-3.229.127,3.052,3.052,0,0,1-1.7-.742.948.948,0,0,1-.254-.469c-.017-.062-.015-.147-.009-.033,0-.061,0-.121,0-.182,0-.159-.02.046.007-.065.017-.071.036-.142.06-.212.038-.113-.032.051.026-.057.033-.063.067-.124.105-.184a1.361,1.361,0,0,1,.256-.306,3.455,3.455,0,0,1,.861-.605,24.182,24.182,0,0,1,2.419-.939,16.07,16.07,0,0,0,4.8-2.662,3.644,3.644,0,0,0,1.325-4.041,6.318,6.318,0,0,0-1.924-2.442,8.061,8.061,0,0,0-2.927-1.631,9.018,9.018,0,0,0-5.956.689c-1.043.436-2.042.953-3.049,1.466a4.236,4.236,0,0,1-2.571.493,2.768,2.768,0,0,1-.973-.341,1.775,1.775,0,0,1-.308-.216c-.06-.053-.116-.11-.172-.168a.551.551,0,0,1-.105-.127c-.036-.053-.068-.108-.1-.163a.412.412,0,0,1-.051-.1,2.078,2.078,0,0,1-.061-.2c0-.007-.021-.106-.01-.033s-.006-.093-.006-.093c0-.061,0-.12,0-.181-.011.122.015-.062.025-.1a.751.751,0,0,1,.149-.32c.263-.407.827-.583,1.224-.918.185-.155.367-.313.556-.463.044-.035.254-.2.121-.1.1-.074.194-.148.292-.221q.319-.237.647-.463.8-.554,1.65-1.039c2.823-1.612,6.2-2.7,9.458-1.988a9.727,9.727,0,0,1,2.7,1.025,29.582,29.582,0,0,1,2.975,2.071c1.25.922,2.48,1.847,3.688,2.815.151.121.3.242.451.366a.664.664,0,0,0,.914,0,.652.652,0,0,0,0-.914" transform="translate(13068.604 -2544.781)"/>
      <path id="Trazado_987" data-name="Trazado 987" d="M638.37,165.219l-.068-9.753a5.768,5.768,0,0,0,3.16-2.424c2.7-5.142,1.306-24.517,1.306-24.517l-22.659-1.207s-4.431,18.787-1.306,24.517c1.059,1.941,3.692,3.3,6.815,4.038l-.653,10.776,3.4,7.686" transform="translate(12769.907 -2530.083)" fill="#ffc2d6"/>
      <path id="Trazado_988" data-name="Trazado 988" d="M637.526,163.739q-.03-4.271-.059-8.543,0-.606-.008-1.211l-.475.623a6.422,6.422,0,0,0,3.608-2.844,10.43,10.43,0,0,0,.768-2.265,37.188,37.188,0,0,0,.786-6.355,126.61,126.61,0,0,0-.053-13.139c-.047-.987-.1-1.975-.169-2.961a.664.664,0,0,0-.646-.646l-7.671-.409-12.209-.65-2.778-.148a.651.651,0,0,0-.623.475c-.716,3.04-1.264,6.131-1.7,9.222a69.157,69.157,0,0,0-.726,7.754,20.879,20.879,0,0,0,.619,6.655,6.437,6.437,0,0,0,2.186,3.239,14.313,14.313,0,0,0,5.584,2.481l-.475-.623q-.256,4.221-.512,8.442-.056.929-.113,1.858a1.626,1.626,0,0,0,.082.854c.542,1.243,1.1,2.481,1.645,3.722l1.729,3.912a.651.651,0,0,0,.885.232.662.662,0,0,0,.232-.884l-2.975-6.734-.42-.952.088.326q.286-4.717.572-9.434.041-.671.082-1.342a.651.651,0,0,0-.475-.623,13.889,13.889,0,0,1-4.809-2,5.468,5.468,0,0,1-1.432-1.428,4.941,4.941,0,0,1-.33-.594c-.023-.049-.045-.1-.067-.147-.074-.167.047.123-.02-.049-.041-.106-.082-.212-.119-.32a17.522,17.522,0,0,1-.675-6.089,79.323,79.323,0,0,1,1.718-13.946c.21-1.065.427-2.13.676-3.187l-.623.475,7.671.409,12.209.65,2.778.148-.646-.646c.188,2.606.283,5.222.333,7.834.044,2.3.042,4.6-.047,6.9a46.248,46.248,0,0,1-.591,6.339,14.337,14.337,0,0,1-.7,2.655c-.015.04-.031.078-.047.117-.008.021.041-.083-.022.049-.034.071-.066.142-.1.213a3.325,3.325,0,0,1-.6.841,6.319,6.319,0,0,1-2.215,1.368.672.672,0,0,0-.475.623q.029,4.271.059,8.543,0,.606.008,1.211a.647.647,0,0,0,1.293,0" transform="translate(12771.399 -2528.603)"/>
      <path id="Trazado_989" data-name="Trazado 989" d="M644.949,218.657c.343-.047.1-.014.022-.005-.13.015-.261.027-.392.037q-.655.054-1.312.059a13.005,13.005,0,0,1-3.648-.425.647.647,0,0,0-.343,1.247,15.105,15.105,0,0,0,6.018.334.65.65,0,0,0,.451-.8.664.664,0,0,0-.8-.451" transform="translate(12755.205 -2593.385)"/>
      <path id="Trazado_990" data-name="Trazado 990" d="M644.856,125.545l.082,10.422c-2.849,5.177-6.232,10.411-8.253,12.147l-3.66-5.207c1.221-.854,3.091-4.265,3.2-6.273.162-3.035-1.429-3.835-3.548-3.948s-4.675,3.766-4.833,6.723l.306-9.112s-9.2.069-14.075-1.832a5.785,5.785,0,0,1-3.37-7.3" transform="translate(12774.994 -2525.804)"/>
      <path id="Trazado_991" data-name="Trazado 991" d="M642.749,124.133q.036,4.574.072,9.148.005.637.01,1.275l.088-.326c-1.372,2.491-2.821,4.945-4.4,7.311a23,23,0,0,1-3.75,4.706l1.016.131-3.661-5.207-.232.884a9.31,9.31,0,0,0,2.709-3.9,7.153,7.153,0,0,0,.591-5.006,4.174,4.174,0,0,0-5.291-2.224,5.4,5.4,0,0,0-1.793,1.45A9.846,9.846,0,0,0,625.735,138h1.293q.133-3.981.268-7.962.019-.575.038-1.15a.654.654,0,0,0-.646-.646c-2.073.015-4.154-.1-6.217-.287a39.986,39.986,0,0,1-5.047-.747,8.461,8.461,0,0,1-4.4-1.957,5.2,5.2,0,0,1-1.162-5.32c.267-.79-.981-1.129-1.246-.344a6.463,6.463,0,0,0,.692,5.577,6.538,6.538,0,0,0,2.065,2,9.989,9.989,0,0,0,2.5.987,44.5,44.5,0,0,0,10.283,1.33c.842.033,1.686.057,2.529.051l-.646-.646q-.134,3.981-.267,7.962l-.039,1.15c-.029.836,1.242.825,1.293,0a8.448,8.448,0,0,1,1.592-4.187,5.833,5.833,0,0,1,1.364-1.442,1.966,1.966,0,0,1,1.4-.437,2.659,2.659,0,0,1,2.486,1.366,5.285,5.285,0,0,1-.275,3.92,13.063,13.063,0,0,1-1.172,2.281,8.281,8.281,0,0,1-.6.844c-.1.121-.206.239-.317.351-.05.05-.1.1-.153.147l-.1.086q.073-.054-.015.01a.656.656,0,0,0-.232.884l3.661,5.207a.659.659,0,0,0,1.015.131,14.442,14.442,0,0,0,1.852-2.043c.792-1.013,1.532-2.066,2.242-3.138.808-1.218,1.579-2.461,2.326-3.717q.607-1.021,1.193-2.055.267-.471.531-.946a1.726,1.726,0,0,0,.3-.714c.05-.875-.014-1.772-.021-2.648q-.018-2.383-.038-4.766-.012-1.5-.023-3a.647.647,0,0,0-1.293,0" transform="translate(12776.454 -2524.392)"/>
      <path id="Trazado_992" data-name="Trazado 992" d="M643.271,162.967c.029-.016.059-.03.088-.044l.053-.024c.1-.05-.062.039-.066.027s.128-.051.139-.054c.132-.049.267-.092.4-.127q.135-.036.271-.063l.122-.023c.019,0,.187-.027.095-.016s.057-.005.076-.007q.084-.008.169-.013c.108-.006.217-.008.325-.006s.228.011.343.02c.138.011-.064-.016.087.011.055.01.111.019.166.031a3.843,3.843,0,0,1,1.493.663.653.653,0,0,0,.885-.232.66.66,0,0,0-.232-.884,4.961,4.961,0,0,0-5.069-.374.647.647,0,0,0,.653,1.116" transform="translate(12752.781 -2553.742)"/>
      <path id="Trazado_993" data-name="Trazado 993" d="M618.621,161.179c1.391-.549,3.522-.424,3.966,1.278a3.4,3.4,0,0,1-.587,2.4,7.4,7.4,0,0,1-1.087,1.422,1.545,1.545,0,0,0-.5.71,1.715,1.715,0,0,0-.019.712c.21,1.106,1.483,1.215,2.395,1.158.827-.052.833-1.345,0-1.293a2.778,2.778,0,0,1-1.082-.077c-.111-.056-.009-.05-.078-.061.044.007.029.048.035.044s-.008-.005-.008-.068,0-.088,0-.035q.013-.076.032-.151l-.166.285c1.537-1.484,3.188-3.982,2.021-6.149a3.359,3.359,0,0,0-2.708-1.7,5.714,5.714,0,0,0-2.55.28.666.666,0,0,0-.452.8.651.651,0,0,0,.8.451" transform="translate(12769.828 -2552.559)"/>
      <path id="Trazado_994" data-name="Trazado 994" d="M674.21,172.778c.04-.125.085-.249.13-.372s.1-.268.155-.4l.044-.109c.064-.156-.055.127,0,0,.037-.085.074-.17.112-.254a9.325,9.325,0,0,1,.563-1.067c.054-.086.109-.17.166-.253q.04-.057.081-.114l.041-.055c.039-.054-.107.13-.017.023a3.359,3.359,0,0,1,.378-.4c.132-.113-.076.047,0,0,.04-.026.078-.054.119-.079s.081-.043.121-.066c.074-.043-.174.053-.019.01l.113-.031c.144-.038-.167,0-.019,0a.659.659,0,0,0,.129,0s-.178-.038-.093-.012c.025.008.053.011.078.018a.647.647,0,0,0,.344-1.247,2.3,2.3,0,0,0-2.34,1.247,10.236,10.236,0,0,0-1.145,2.286c-.066.173-.131.347-.187.524a.652.652,0,0,0,.451.8.661.661,0,0,0,.8-.451" transform="translate(12731.465 -2558.614)"/>
      <path id="Trazado_995" data-name="Trazado 995" d="M624.581,170.656a.8.8,0,1,1-.754-.838.8.8,0,0,1,.754.838" transform="translate(12766.22 -2559.653)"/>
      <path id="Trazado_996" data-name="Trazado 996" d="M623.528,169.926c0,.007,0,.015,0,.022q-.006.054,0-.02a.271.271,0,0,0-.008.043,1.049,1.049,0,0,1-.03.1c-.023.069.036-.063,0,0-.007.012-.013.025-.02.037s-.021.036-.033.053l-.012.017c-.02.028-.016.023.012-.016a.791.791,0,0,1-.072.075l-.031.027s.062-.043,0,0c-.029.019-.06.035-.09.052-.054.03.018-.011.02-.007a.682.682,0,0,1-.07.024l-.052.013-.021,0c-.028,0-.028.005,0,0l.021,0-.043,0h-.055l-.055,0c-.074,0,.055.012.009,0s-.077-.017-.115-.03l-.02-.007q-.049-.019.019.008s-.04-.02-.038-.019c-.031-.016-.06-.036-.089-.055-.057-.037.034.039.008.006a.424.424,0,0,0-.038-.035l-.036-.037c-.057-.056.026.044-.008-.008-.019-.029-.038-.058-.054-.089,0,0-.019-.037-.019-.037s.026.072,0,0c-.011-.034-.019-.068-.027-.1-.013-.05.012.021,0,.022s0-.07,0-.076-.005-.1,0-.1l-.005.043q0-.021.008-.043c0-.014.006-.028.01-.042s.013-.041.02-.061c.019-.059-.006.02-.008.019a.752.752,0,0,1,.061-.11l.012-.017c.016-.023.016-.023,0,0l-.012.016.027-.031a.841.841,0,0,1,.075-.071s-.063.042-.007.007l.044-.028.036-.02.037-.019c-.045.019-.052.021-.019.009s.067-.022.1-.03a.342.342,0,0,0,.042-.008c-.061.025-.046.005-.011,0a.788.788,0,0,1,.11,0c.069,0-.008,0-.009,0a.4.4,0,0,1,.064.013l.062.018.03.011-.028-.012a.784.784,0,0,1,.109.062.394.394,0,0,1,.034.024c-.038-.029-.043-.033-.017-.011l.03.028.029.03c.054.059,0,0,0,0a.642.642,0,0,1,.067.105c.036.068,0,0,0,0s.02.057.021.06.01.034.014.051,0,.021.007.031c.006.036.005.028,0-.022a1.279,1.279,0,0,1,0,.132.325.325,0,0,0,.323.323.33.33,0,0,0,.323-.323,1.121,1.121,0,0,0-1.939-.805,1.138,1.138,0,0,0-.164,1.3,1.121,1.121,0,0,0,2.1-.492.325.325,0,0,0-.323-.323.331.331,0,0,0-.323.323" transform="translate(12766.949 -2558.923)"/>
      <path id="Trazado_997" data-name="Trazado 997" d="M649.044,171.908a.8.8,0,1,1-.727-.862.8.8,0,0,1,.727.862" transform="translate(12749.197 -2560.507)"/>
      <path id="Trazado_998" data-name="Trazado 998" d="M647.993,171.182c-.008.078.017-.073,0,0,0,.014-.006.029-.01.043-.009.035-.024.068-.033.1.02-.079.009-.024,0,0l-.021.036a.523.523,0,0,1-.034.052s.051-.06,0,0c-.023.026-.049.049-.074.073-.044.042.015-.015.017-.012s-.048.033-.052.035-.091.051-.091.049.067-.024.019-.009c-.024.007-.047.016-.07.022l-.052.012c-.07.017.058,0,.012,0s-.073,0-.109,0c-.009,0-.051,0-.055,0,.01.014.071.012.01,0a.918.918,0,0,1-.114-.033c-.069-.024.062.036,0,0l-.037-.02c-.018-.01-.035-.023-.053-.033-.043-.026.021.009.015.013s-.071-.065-.077-.07a.5.5,0,0,0-.035-.038q-.023-.028.018.025l-.024-.034c-.019-.029-.035-.06-.052-.09-.029-.054.011.019.007.02s-.019-.056-.021-.06-.022-.1-.024-.1.006.085,0,.022c0-.026,0-.051,0-.077s0-.037,0-.055c0-.065,0,.021,0,.02a.493.493,0,0,1,.025-.106c0-.007.015-.058.022-.061s-.032.063-.006.019a.677.677,0,0,1,.065-.108s-.051.056-.005.009l.035-.038.038-.036c.047-.047-.006.01-.009,0a.71.71,0,0,1,.087-.056l.037-.019c.032-.015.025-.012-.02.007l.04-.014c.034-.011.068-.019.1-.027.05-.012-.02.012-.023,0l.054,0c.037,0,.074,0,.11,0s-.08-.019-.009,0l.063.015c.021.006.041.013.061.02.068.023-.061-.034,0,0a.692.692,0,0,1,.108.065s-.053-.046-.016-.012c.021.019.041.037.061.057l.028.031c.046.048-.033-.052,0,0,.022.035.043.071.063.107.035.063-.021-.069,0,0,.006.02.013.04.019.06s.009.034.012.052c.017.082,0-.057,0,.01,0,.044,0,.087,0,.132a.325.325,0,0,0,.323.323.331.331,0,0,0,.323-.323,1.12,1.12,0,0,0-.626-1.073,1.119,1.119,0,0,0-1.487,1.518,1.118,1.118,0,0,0,1.093.6,1.144,1.144,0,0,0,.7-.326,1.161,1.161,0,0,0,.322-.721.324.324,0,0,0-.323-.323.332.332,0,0,0-.323.323" transform="translate(12749.926 -2559.781)"/>
      <path id="Trazado_999" data-name="Trazado 999" d="M639.906,192.852a1.3,1.3,0,0,0,2.564-.414Z" transform="translate(12754.448 -2575.393)"/>
      <path id="Trazado_1000" data-name="Trazado 1000" d="M638.858,192.214a1.625,1.625,0,0,0,1.275,1.3,1.643,1.643,0,0,0,1.715-.765,1.673,1.673,0,0,0,.2-1.117c-.027-.185-.243-.251-.4-.226l-2.245.363-.319.051a.326.326,0,0,0-.226.4.331.331,0,0,0,.4.226l2.245-.363.319-.051-.4-.226a.848.848,0,0,0,0,.093q0,.053,0,.106s-.012.1,0,.052a1.38,1.38,0,0,1-.062.232c-.021.057.009-.012-.021.047a1.247,1.247,0,0,1-.123.2c.03-.039-.035.038-.035.039-.023.025-.047.049-.071.072a.623.623,0,0,1-.152.113.959.959,0,0,1-.384.135c.043-.006-.059,0-.057,0-.041,0-.082,0-.124,0-.013,0-.117-.013-.07,0-.034-.006-.068-.013-.1-.021a.888.888,0,0,1-.353-.165,1.248,1.248,0,0,1-.234-.249.973.973,0,0,1-.153-.413.326.326,0,0,0-.4-.226.331.331,0,0,0-.226.4" transform="translate(12755.185 -2574.669)"/>
      <path id="Trazado_1001" data-name="Trazado 1001" d="M401.22,671.058l-.1,29.135-39.988,0s-.68-11.33,14.2-12.548a5.356,5.356,0,0,0,4.936-5.382c-.035-3.541-.085-6.968-.085-6.968" transform="translate(12948.416 -2908.411)" fill="#ffcc3e"/>
      <path id="Trazado_1002" data-name="Trazado 1002" d="M399.078,669.63l-.009,2.885q-.011,3.485-.023,6.97-.014,4.2-.027,8.4-.012,3.647-.024,7.3,0,1.2-.008,2.394a11.111,11.111,0,0,0,0,1.139.485.485,0,0,1,0,.051l.646-.646H361.273c-.513,0-1.052-.047-1.563,0-.022,0-.046,0-.068,0l.646.646a5.7,5.7,0,0,1,0-.582c.01-.225.028-.449.052-.673.007-.063.015-.126.022-.189.015-.132-.021.134.011-.079.023-.151.047-.3.075-.451a12.076,12.076,0,0,1,.611-2.148c.023-.06.106-.266.09-.226-.031.073.029-.066.038-.088q.037-.083.074-.166.145-.317.308-.624a11.377,11.377,0,0,1,.747-1.215,6.8,6.8,0,0,1,.415-.545q.252-.307.526-.594a11.664,11.664,0,0,1,1.251-1.141,13.6,13.6,0,0,1,3.325-1.868,20.253,20.253,0,0,1,4.945-1.206,11.038,11.038,0,0,0,2.75-.478,6,6,0,0,0,3.583-3.7,8.764,8.764,0,0,0,.3-3.009q-.03-2.8-.07-5.6,0-.155,0-.309a.647.647,0,0,0-1.293,0q.03,2.053.054,4.107c.023,1.945.339,4.024-.878,5.693a4.778,4.778,0,0,1-1.862,1.5,8.083,8.083,0,0,1-2.521.5,21.96,21.96,0,0,0-5.095,1.163,13.759,13.759,0,0,0-6.153,4.32,12.356,12.356,0,0,0-2.3,4.887,9.9,9.9,0,0,0-.3,2.685c0,.013,0,.026,0,.038a.659.659,0,0,0,.646.646H394.7c1.615,0,3.242.057,4.856,0h.068a.656.656,0,0,0,.646-.646q0-1.443.009-2.886.011-3.485.023-6.97.014-4.2.027-8.4l.024-7.3c0-1.174.057-2.36.012-3.533,0-.017,0-.034,0-.051a.647.647,0,0,0-1.293,0" transform="translate(12949.912 -2906.983)"/>
      <path id="Trazado_1003" data-name="Trazado 1003" d="M371.134,741.109h29.991l.027-8.354,0-.782H397.2a4.176,4.176,0,0,0-3.8,2.436,4.177,4.177,0,0,1-3.8,2.437l-16.652-.334-.011-.066a11.92,11.92,0,0,0-2.869-6.063l-.461-.518-.389.008a12.037,12.037,0,0,0-7.3,6.972c-.028.072-.054.143-.08.214l0,.007a11.8,11.8,0,0,0-.707,3.619h0c0,.03,0,.058,0,.085v0c0,.1,0,.179,0,.236v.017c0,.009,0,.016,0,.024s0,.014,0,.019v.012c0,.007,0,.013,0,.018h0v.008Z" transform="translate(12948.416 -2949.329)" fill="#fff"/>
      <path id="Trazado_1004" data-name="Trazado 1004" d="M369.641,740.218h26.288c1.213,0,2.438.049,3.65,0h.053a.656.656,0,0,0,.646-.646l.026-7.875q0-.631,0-1.261a.655.655,0,0,0-.646-.646H396.1a5.651,5.651,0,0,0-2.161.338,4.871,4.871,0,0,0-2.591,2.418l.73-.3a.667.667,0,0,0-.73.3,3.608,3.608,0,0,1-2.8,2.093,6.235,6.235,0,0,1-.883.015l-3.5-.07-10.181-.2-2.531-.051.623.475a12.493,12.493,0,0,0-2.156-5.3,11.033,11.033,0,0,0-1.343-1.628c-.6-.565-1.685.089-2.267.366a12.731,12.731,0,0,0-6.425,6.679,11.18,11.18,0,0,0-.895,4.647.659.659,0,0,0,.646.646h10a.647.647,0,0,0,0-1.293h-10l.646.646A10.336,10.336,0,0,1,361.4,734.7,11.011,11.011,0,0,1,365,730.5a13.652,13.652,0,0,1,1.74-1.024c.3-.148.611-.266.91-.413a.946.946,0,0,1,.468-.084l-.457-.189a14.149,14.149,0,0,1,1.886,2.543,11.615,11.615,0,0,1,1.288,3.819.65.65,0,0,0,.623.475l7,.14,9.124.183a7.449,7.449,0,0,0,1.247-.049,4.836,4.836,0,0,0,3.633-2.7l-.73.3a.667.667,0,0,0,.73-.3,3.61,3.61,0,0,1,2.224-1.967,5.557,5.557,0,0,1,1.619-.149h3.351l-.646-.646q-.013,3.951-.026,7.9l0,1.235.646-.646H373.345c-1.213,0-2.438-.049-3.65,0h-.053a.647.647,0,0,0,0,1.293" transform="translate(12949.908 -2947.792)"/>
      <path id="Trazado_1005" data-name="Trazado 1005" d="M419.461,717.559a1.911,1.911,0,0,1,.186.051q.1.033.207.074l.053.021c.1.039-.159-.07-.083-.035.048.022.1.043.145.066a3.951,3.951,0,0,1,.6.368c.073.053-.074-.059-.071-.055a.342.342,0,0,0,.04.032l.08.067c.054.047.107.1.158.145s.1.106.154.161l.065.076.037.045c.068.082-.019-.036-.038-.05a.9.9,0,0,1,.155.224q.076.121.141.249.03.059.058.118c.009.02.017.042.027.061-.085-.161-.037-.09-.019-.044.041.1.077.211.108.318a.647.647,0,0,0,1.247-.344,3.911,3.911,0,0,0-1.238-1.924,4.518,4.518,0,0,0-1.417-.8,2.136,2.136,0,0,0-.257-.075.647.647,0,1,0-.344,1.247" transform="translate(12908.157 -2939.888)"/>
      <path id="Trazado_1006" data-name="Trazado 1006" d="M412.172,723.028c.056.029.11.064.162.1.031.021.17.093.176.126,0-.011-.151-.12-.068-.052l.05.04c.041.034.082.069.121.1q.12.108.23.225.063.067.122.137l.056.068c.061.073-.1-.13-.018-.024a3.668,3.668,0,0,1,.228.348q.055.1.1.2c.015.031.029.063.044.095.043.093-.052-.139,0-.006a3.5,3.5,0,0,1,.153.525c.009.046.016.092.025.138.014.072-.009-.075-.009-.071,0,.028.006.055.009.083.011.114.016.229.017.344a.646.646,0,1,0,1.293,0,4.11,4.11,0,0,0-1.814-3.349,2.227,2.227,0,0,0-.224-.141.647.647,0,0,0-.653,1.116" transform="translate(12913.12 -2943.739)"/>
      <path id="Trazado_1007" data-name="Trazado 1007" d="M400.331,725.35c.056.029.11.064.162.1.031.021.17.092.176.126,0-.011-.152-.12-.068-.052l.05.04c.041.034.082.069.121.1q.12.108.23.225c.042.044.082.09.122.137l.056.068c.061.074-.1-.129-.018-.023a3.737,3.737,0,0,1,.228.348q.055.1.1.2c.015.031.029.063.044.095.043.093-.052-.139,0-.006a3.5,3.5,0,0,1,.153.525c.009.046.016.092.025.138.014.071-.009-.075-.009-.071,0,.028.006.056.009.083.011.115.016.229.017.344a.646.646,0,1,0,1.293,0,4.11,4.11,0,0,0-1.814-3.349,2.231,2.231,0,0,0-.224-.141.647.647,0,0,0-.653,1.117" transform="translate(12921.359 -2945.354)"/>
      <path id="Trazado_1008" data-name="Trazado 1008" d="M570.2,228.177l-1.307.19a22.02,22.02,0,0,0-18.847,21.79v15.564a13.538,13.538,0,0,0,13.128,13.532l6.243.189v-7.435c-6.8-1.115-13.7-1.174-12.309-15.015l.171-3.41c.34-6.789,2.45-13.944,9.595-17.382l7.044-2.152" transform="translate(12816.971 -2600.26)" fill="#4dcfd3"/>
      <path id="Trazado_1009" data-name="Trazado 1009" d="M568.548,226.1a35.123,35.123,0,0,0-3.508.625A22.708,22.708,0,0,0,548.522,243.5a26.755,26.755,0,0,0-.6,6.148v12.562a25.482,25.482,0,0,0,.255,4.739,14.162,14.162,0,0,0,4.891,8.248,14.36,14.36,0,0,0,8.658,3.251c1.883.062,3.766.114,5.649.171l.565.017a.654.654,0,0,0,.646-.646v-7.435a.652.652,0,0,0-.475-.623c-1.5-.245-3-.436-4.487-.756a17.217,17.217,0,0,1-2.093-.577,8.488,8.488,0,0,1-1.807-.858q-.2-.126-.4-.264a3.352,3.352,0,0,1-.342-.264,7.174,7.174,0,0,1-.763-.743,5.357,5.357,0,0,1-.6-.813,8.317,8.317,0,0,1-.549-1.027,14.822,14.822,0,0,1-.971-6.08c.022-1.836.211-3.678.3-5.513a37.357,37.357,0,0,1,.608-5.579,20.083,20.083,0,0,1,2.47-6.562,14.6,14.6,0,0,1,5.108-4.99,6.131,6.131,0,0,1,1.528-.7l2.007-.613,4.224-1.291.264-.081c.793-.242.455-1.491-.344-1.247l-3.414,1.043c-1.2.367-2.437.684-3.622,1.106a9.014,9.014,0,0,0-1.591.843,16.7,16.7,0,0,0-1.632,1.144,15.348,15.348,0,0,0-2.655,2.7,19.085,19.085,0,0,0-3.186,6.6c-1.018,3.69-1.023,7.523-1.286,11.313-.27,3.888-.047,8.685,3.189,11.4,2.394,2.009,5.615,2.42,8.6,2.879.367.056.733.113,1.1.173l-.475-.623v7.435l.646-.646-5.324-.161a19.33,19.33,0,0,1-2.534-.176,12.916,12.916,0,0,1-10.13-8.424,13.136,13.136,0,0,1-.738-4.321c0-.372,0-.745,0-1.117v-12.38a40.708,40.708,0,0,1,.136-4.51,21.3,21.3,0,0,1,3.152-8.94,21.607,21.607,0,0,1,15.162-9.786l1.23-.179a.651.651,0,0,0,.451-.8.663.663,0,0,0-.8-.451" transform="translate(12818.453 -2598.811)"/>
      <path id="Trazado_1010" data-name="Trazado 1010" d="M478.9,428.172l-47.832.135a22.354,22.354,0,0,0-21.552,21.963l-1.754,57.586,30.207-.145s.536-35.391.536-48.8l51.477-.715" transform="translate(12915.97 -2739.414)" fill="#5f5fff"/>
      <path id="Trazado_1011" data-name="Trazado 1011" d="M477.424,426.047l-2.069.006-5.42.015-7.693.022-8.775.025-8.808.025-7.64.022-5.412.015c-.709,0-1.422-.016-2.131.01a22.908,22.908,0,0,0-11.6,3.683,23.175,23.175,0,0,0-7.925,8.748,23.568,23.568,0,0,0-2.557,10.214c-.02.736-.045,1.471-.067,2.206l-.154,5.063-.216,7.1q-.129,4.214-.257,8.428-.136,4.454-.271,8.907l-.265,8.691q-.116,3.812-.232,7.624-.089,2.925-.178,5.851-.049,1.626-.1,3.252-.006.212-.013.424a.654.654,0,0,0,.646.646l3.017-.015,7.2-.035,8.707-.042,7.565-.036c1.218-.006,2.448.039,3.665-.018h.053a.657.657,0,0,0,.646-.646q.027-1.807.053-3.613.066-4.569.128-9.137.082-6.053.155-12.106.075-6.284.134-12.569c.031-3.456.059-6.912.065-10.368q0-.5,0-1l-.646.646,5.145-.071,12.268-.171,14.913-.207,12.818-.178c2.079-.029,4.169,0,6.246-.087h.087a.647.647,0,0,0,0-1.293l-5.145.071-12.268.17-14.913.207-12.818.178c-2.079.029-4.169,0-6.246.087h-.087a.656.656,0,0,0-.646.646c0,3.309-.025,6.618-.053,9.928q-.053,6.2-.128,12.391-.072,6.151-.155,12.3-.065,4.843-.134,9.685-.022,1.513-.044,3.026a12.672,12.672,0,0,0-.021,1.4.5.5,0,0,1,0,.061l.646-.646-3.017.014-7.2.035-8.707.042-7.565.036-2.473.012a10.452,10.452,0,0,0-1.191.005.441.441,0,0,1-.054,0l.646.646q.026-.856.052-1.711.071-2.328.142-4.656.1-3.4.207-6.8.125-4.1.25-8.193l.27-8.874.266-8.711q.119-3.916.238-7.831.094-3.108.189-6.216.057-1.891.115-3.783a28.044,28.044,0,0,1,.433-4.666,21.736,21.736,0,0,1,15.085-16.577,21.41,21.41,0,0,1,6.048-.891l4.022-.011,6.733-.019,8.353-.024,8.911-.025,8.282-.023,6.591-.019,3.807-.011h.5a.647.647,0,0,0,0-1.293" transform="translate(12917.448 -2737.936)"/>
      <path id="Trazado_1012" data-name="Trazado 1012" d="M670.983,804.066l4.231,28.826-39.545,5.935s-2.354-11.1,12.182-14.517a5.356,5.356,0,0,0,4.082-6.055c-.561-3.5-1.685-10.393-1.685-10.393" transform="translate(12757.495 -3000.957)" fill="#ffcc3e"/>
      <path id="Trazado_1013" data-name="Trazado 1013" d="M668.829,802.767l.419,2.855q.507,3.448,1.012,6.9.61,4.156,1.22,8.311l1.059,7.218q.174,1.184.348,2.368c.054.37.078.763.166,1.127,0,.016,0,.034.007.05l.451-.8-3.932.59-9.442,1.417-11.424,1.715L638.836,836l-3.256.489c-.509.076-1.044.114-1.546.232-.022.005-.045.007-.068.01l.8.451c-.013-.063-.023-.127-.034-.192-.006-.034-.008-.07-.015-.1.006.031.022.184,0,.027-.012-.105-.023-.21-.033-.315a11.645,11.645,0,0,1,0-1.952c.008-.094.017-.188.027-.282.005-.052.011-.1.017-.156,0-.036.028-.212.015-.118s.01-.068.014-.1q.011-.07.022-.141c.02-.12.041-.24.065-.359a11.772,11.772,0,0,1,.368-1.416c.082-.25.174-.5.273-.741a.668.668,0,0,1,.036-.087c.027-.063.055-.126.084-.189q.093-.2.195-.406a11.352,11.352,0,0,1,.926-1.524,12.377,12.377,0,0,1,2.873-2.777,18.149,18.149,0,0,1,4.84-2.324,30.178,30.178,0,0,0,3.172-.956,6,6,0,0,0,2.32-1.885,5.875,5.875,0,0,0,1.118-2.724,9.282,9.282,0,0,0-.178-2.79q-.745-4.627-1.5-9.252c-.011-.068-.022-.135-.033-.2a.652.652,0,0,0-.8-.451.661.661,0,0,0-.451.8q.666,4.085,1.327,8.172c.13.8.31,1.616.381,2.428a4.724,4.724,0,0,1-.54,2.688,4.787,4.787,0,0,1-1.969,1.944,16.908,16.908,0,0,1-2.98.92A16.669,16.669,0,0,0,636,827.967a12.355,12.355,0,0,0-2.55,6.152,9.584,9.584,0,0,0,.058,3.359c0,.016.006.033.01.049a.663.663,0,0,0,.8.451l3.932-.59,9.442-1.417,11.424-1.715,9.877-1.482,3.257-.489c.511-.077,1.041-.121,1.546-.232.022,0,.046-.007.068-.01.374-.056.5-.485.452-.8l-.419-2.855q-.506-3.448-1.012-6.9-.61-4.155-1.22-8.311-.529-3.609-1.059-7.218-.173-1.184-.348-2.368c-.054-.371-.082-.761-.166-1.127,0-.016,0-.034-.007-.05a.651.651,0,0,0-.8-.451.663.663,0,0,0-.451.8" transform="translate(12759.025 -2999.486)"/>
      <path id="Trazado_1014" data-name="Trazado 1014" d="M709.585,411.483s8.635,1.661,9.631,6.642-11.624,6.144-11.624,6.144" transform="translate(12707.354 -2727.802)"/>
      <path id="Trazado_1015" data-name="Trazado 1015" d="M707.934,410.649a20.13,20.13,0,0,1,3.787,1.17c1.913.785,4.077,2.017,5.04,3.959a3.886,3.886,0,0,1,.263.689c.035.123.062.248.09.373.005.023.033.209.012.049.008.063.013.126.016.189a2.508,2.508,0,0,1,0,.289c0,.043-.006.085-.011.128-.01.1.032-.157,0,0-.017.082-.034.165-.057.245-.014.048-.031.1-.046.144-.051.171.016-.016-.029.079a3.3,3.3,0,0,1-.253.445c-.03.043-.06.086-.092.128.092-.122-.017.019-.032.036-.072.082-.144.164-.221.242a4.284,4.284,0,0,1-.932.736,16.966,16.966,0,0,1-5.553,2q-1.381.3-2.783.493l-.127.017c-.128.018.147-.019.013,0l-.218.028-.378.045c-.1.012-.205.023-.308.032a.664.664,0,0,0-.646.646.651.651,0,0,0,.646.646,34.614,34.614,0,0,0,3.572-.542,20.154,20.154,0,0,0,6.11-2.05,5.984,5.984,0,0,0,2.124-1.888,3.434,3.434,0,0,0,.372-2.781c-.658-2.454-2.923-4.088-5.1-5.13a20.575,20.575,0,0,0-4.91-1.664c-.813-.157-1.161,1.089-.344,1.247" transform="translate(12708.832 -2726.345)"/>
      <path id="Trazado_1016" data-name="Trazado 1016" d="M639.24,391.863l-1.578,44.319a108.376,108.376,0,0,0,1.2,20.423l10.5,67.877,29.489-4.5s-7.8-53.191-10.724-66.133l-.536-56.661" transform="translate(12756.058 -2714.151)" fill="#5f5fff"/>
      <path id="Trazado_1017" data-name="Trazado 1017" d="M637.139,390.437q-.137,3.842-.274,7.684-.292,8.2-.584,16.393l-.546,15.323c-.148,4.147-.322,8.287-.182,12.439a127.123,127.123,0,0,0,1.557,15.158l1.628,10.527,2.46,15.911L643.848,501q1.11,7.175,2.219,14.35l1.165,7.536q.027.173.054.347c.058.372.484.5.8.451l9.98-1.523,15.888-2.424,3.621-.552c.374-.057.5-.485.451-.8q-.414-2.827-.837-5.653-1.039-6.979-2.1-13.954-1.355-8.877-2.759-17.746c-.9-5.683-1.823-11.363-2.8-17.033-.394-2.283-.8-4.564-1.227-6.84q-.256-1.358-.528-2.714-.121-.6-.249-1.2-.057-.265-.114-.53c-.021-.1-.1-.517-.08-.291-.045-.5-.009-1.013-.014-1.51q-.019-1.995-.038-3.989-.062-6.534-.123-13.068-.076-7.975-.151-15.95l-.134-14.144-.072-7.638c0-.12,0-.24,0-.361a.647.647,0,0,0-1.293,0q.025,2.688.051,5.376.062,6.533.124,13.066.075,7.973.151,15.945.067,7.089.134,14.178.037,3.861.073,7.722a14.824,14.824,0,0,0,.492,2.739c.4,1.992.771,3.991,1.129,5.991.963,5.379,1.85,10.772,2.72,16.167q1.45,8.989,2.827,17.989,1.176,7.649,2.322,15.3.607,4.055,1.206,8.112l.055.376.452-.8-9.98,1.523-15.888,2.424-3.622.552.8.451q-.406-2.624-.812-5.248-1.009-6.526-2.018-13.052-1.3-8.409-2.6-16.817-1.28-8.272-2.558-16.543l-1.891-12.229c-.448-2.9-.92-5.788-1.236-8.7a125.553,125.553,0,0,1-.473-18.042q.243-6.815.486-13.63.3-8.483.6-16.966.19-5.35.381-10.7.01-.258.019-.517c.03-.832-1.263-.831-1.293,0" transform="translate(12757.512 -2712.725)"/>
      <path id="Trazado_1018" data-name="Trazado 1018" d="M744.738,369.571a53.318,53.318,0,0,0-5.141-12.092l-4.276,1.224-15.558,4.455L738.68,376.91l.9-.175,6.694-1.293c-.4-1.843-.913-3.825-1.54-5.871" transform="translate(12698.884 -2690.227)" fill="#a8542a"/>
      <path id="Trazado_1019" data-name="Trazado 1019" d="M743.921,367.922a71.46,71.46,0,0,0-2.558-7.042,36.648,36.648,0,0,0-2.648-5.2.663.663,0,0,0-.73-.3l-6.233,1.785-10.63,3.044-2.97.851a.655.655,0,0,0-.154,1.182l3.213,2.336,6.889,5.008,6.559,4.769,1.873,1.361c.118.086.234.186.36.262.376.225,1.011-.014,1.416-.092l6.472-1.25.229-.044a.657.657,0,0,0,.451-.8c-.429-1.978-.949-3.935-1.54-5.871-.242-.793-1.491-.455-1.247.344.591,1.936,1.111,3.893,1.54,5.871l.451-.8L738.2,374.59l-1.133.219.5.065-6.406-4.657-10.193-7.41-2.317-1.684L718.5,362.3,726.2,360.1l7.85-2.248,4.277-1.225-.73-.3a49.552,49.552,0,0,1,5.076,11.938c.244.793,1.492.455,1.247-.344" transform="translate(12700.324 -2688.749)"/>
      <path id="Trazado_1020" data-name="Trazado 1020" d="M628.746,303.513c-24.547-1.673-51.179-1.316-51.179-1.316l8.451-49.091c.331-3.261,4.788-4.918,7.832-4.918l7.668,7.715,10.736-8.528c3.307,0,5.034,1.367,6.453,6.22,0,0,8.544,33.809,10.039,49.918" transform="translate(12797.823 -2613.618)" fill="#fff"/>
      <path id="Trazado_1021" data-name="Trazado 1021" d="M605.783,245.785l4.817.221a7.658,7.658,0,0,1,2.5.367,4.082,4.082,0,0,1,1.128.695,5.337,5.337,0,0,1,1.022,1.273c1.283,2.141,1.729,4.785,2.313,7.186q1.525,6.263,2.947,12.552c1.241,5.49,2.423,11,3.492,16.522.984,5.088,1.914,10.223,2.487,15.346q.087.779.16,1.561l.646-.646q-7.8-.369-15.6-.629-6.908-.232-13.817-.389-5.529-.126-11.059-.2-3.761-.053-7.523-.08-1.085-.007-2.171-.012a8.74,8.74,0,0,0-.969,0,.391.391,0,0,1-.042,0l.623.818q.377-2.116.755-4.232.9-5.04,1.8-10.081l2.173-12.182q.94-5.268,1.879-10.535c.306-1.715.631-3.429.918-5.148,0-.023.008-.047.012-.07a.665.665,0,0,0-.451-.8.652.652,0,0,0-.8.451L582.271,262l-1.8,10.081L578.3,284.266,576.42,294.8c-.306,1.715-.631,3.429-.918,5.148,0,.023-.008.046-.012.069a.656.656,0,0,0,.623.818c.842,0,1.685,0,2.527.01q3.53.021,7.059.069,5.338.07,10.675.186,6.734.146,13.467.361,7.708.248,15.412.6l2.04.095a.649.649,0,0,0,.646-.646c-.477-5.116-1.364-10.2-2.311-15.242-1.06-5.649-2.251-11.273-3.5-16.882q-1.495-6.69-3.111-13.351a43.54,43.54,0,0,0-2.01-7.074,7.6,7.6,0,0,0-2.137-3.03,5.869,5.869,0,0,0-3.167-1.166c-.741-.068-1.5-.066-2.244-.1l-3.049-.14-.622-.029c-.832-.038-.83,1.255,0,1.293" transform="translate(12799.277 -2611.611)"/>
      <path id="Trazado_1022" data-name="Trazado 1022" d="M621.179,412.87H567.542a3.021,3.021,0,0,1-3.021-3.021v-.806a3.021,3.021,0,0,1,3.021-3.021h53.637a3.021,3.021,0,0,1,3.021,3.021v.806a3.021,3.021,0,0,1-3.021,3.021" transform="translate(12806.9 -2724.002)" fill="#fff"/>
      <path id="Trazado_1023" data-name="Trazado 1023" d="M619.7,410.708H566.311a2.755,2.755,0,0,1-1.474-.341,2.4,2.4,0,0,1-1.148-2.056,3.662,3.662,0,0,1,.316-1.968,2.439,2.439,0,0,1,2.177-1.191h52.854c.213,0,.427,0,.64,0a2.407,2.407,0,0,1,2.4,2.429,3.618,3.618,0,0,1-.316,1.935,2.4,2.4,0,0,1-2.059,1.191.647.647,0,0,0,0,1.293,3.732,3.732,0,0,0,3.668-3.824,4.722,4.722,0,0,0-.492-2.486,3.682,3.682,0,0,0-2.382-1.744,11.8,11.8,0,0,0-2.37-.087H568.738c-.855,0-1.709,0-2.564,0a3.734,3.734,0,0,0-2.934,1.332,3.924,3.924,0,0,0-.844,2.557,4.509,4.509,0,0,0,.544,2.506,3.744,3.744,0,0,0,3.2,1.746c.27,0,.539,0,.809,0H619.7a.647.647,0,0,0,0-1.293" transform="translate(12808.379 -2722.487)"/>
      <path id="Trazado_1024" data-name="Trazado 1024" d="M669.812,246.929c.221.035,3.865.008,6.23,0,1.289-.006,6.808-.265,8.069,0l52.233,12.383a14.334,14.334,0,0,1,12.454,10.2L735.409,280,682.5,273.74" transform="translate(12733.64 -2613.223)" fill="#fff"/>
      <path id="Trazado_1025" data-name="Trazado 1025" d="M668.333,246.04a16.83,16.83,0,0,0,2.1.016q1.856-.005,3.711-.017c1.777-.009,3.553-.1,5.33-.116.884-.009,1.776-.024,2.658.051l.191.019c.1.01-.1-.026.058.009l.084.016.071.017c.349.079.7.165,1.045.248L688.7,247.5l8.127,1.927,9.676,2.294,9.987,2.368,8.919,2.115,6.49,1.539c.922.218,1.843.476,2.772.657.8.155,1.6.213,2.4.423a13.6,13.6,0,0,1,3.247,1.321,13.677,13.677,0,0,1,6.38,8.014l.166-.629-4.522,3.54-7.209,5.643-1.656,1.3.457-.189-5.283-.625-12.605-1.49-15.32-1.812-13.177-1.558-4.366-.516c-.685-.081-1.378-.2-2.067-.244-.029,0-.059-.007-.088-.01a.65.65,0,0,0-.646.646.662.662,0,0,0,.646.646l2.43.287,6.342.75,8.893,1.052,10.082,1.192,9.91,1.172,8.4.994,5.468.646,1.218.144a1.3,1.3,0,0,0,.943-.425l6.307-4.937,6.388-5,.368-.288a.631.631,0,0,0,.166-.629,15.12,15.12,0,0,0-9.891-10.053,14.251,14.251,0,0,0-1.783-.437c-.316-.056-.633-.1-.952-.14-.08-.01-.4-.047-.284-.026-.073-.013-.146-.035-.219-.052l-1.323-.314-5.6-1.328-8.448-2-9.9-2.348-9.952-2.359-8.7-2.063-6.044-1.433a18.837,18.837,0,0,0-2.7-.57,50.6,50.6,0,0,0-5.756.017c-2.015.058-4.03.06-6.045.064a16.07,16.07,0,0,1-2-.017.65.65,0,0,0-.646.646.663.663,0,0,0,.646.646" transform="translate(12735.119 -2611.688)"/>
      <path id="Trazado_1026" data-name="Trazado 1026" d="M764.945,325.156l-45.181,12.937,18.916,13.752,33.256-6.423a19.1,19.1,0,0,0,11.618-23.966" transform="translate(12698.884 -2665.162)" fill="#ffc2d6"/>
      <path id="Trazado_1027" data-name="Trazado 1027" d="M763.333,323.1l-4.495,1.287-10.794,3.09-13.057,3.739L723.7,334.45c-1.822.522-3.67.992-5.476,1.568l-.075.021a.655.655,0,0,0-.155,1.182l4.107,2.986,8.2,5.96,6.1,4.432c.372.271.609.511,1.109.42.523-.095,1.043-.2,1.565-.3l7.361-1.422,10.1-1.95,9.232-1.783c1.593-.308,3.2-.574,4.786-.924a7.331,7.331,0,0,0,1.3-.505,19.6,19.6,0,0,0,11.664-20.679,23.282,23.282,0,0,0-.779-3.6.647.647,0,0,0-1.247.344,19.733,19.733,0,0,1,.547,9.55,18.18,18.18,0,0,1-7.452,11.384,19.713,19.713,0,0,1-2.1,1.272,11.307,11.307,0,0,1-2.158.965c-.567.155-1.172.226-1.749.338l-10.706,2.068-13.22,2.554-4.971.96c-.829.16-1.673.289-2.495.482-.038.009-.077.015-.115.022l.5.065-6.406-4.657-10.193-7.41-2.317-1.684-.154,1.181L722.99,336l10.794-3.091,13.057-3.738,11.284-3.231c1.823-.522,3.669-1,5.476-1.568l.075-.022a.647.647,0,0,0-.344-1.247" transform="translate(12700.325 -2663.732)"/>
      <path id="Trazado_1028" data-name="Trazado 1028" d="M645.557,882.6l29.659-4.451L674,869.881l-.114-.774-3.912.587a4.177,4.177,0,0,0-3.393,2.973,4.177,4.177,0,0,1-3.393,2.973l-16.518,2.142-.02-.064a11.924,11.924,0,0,0-3.737-5.57l-.533-.444-.384.066a12.038,12.038,0,0,0-6.184,7.978c-.017.075-.033.15-.047.224l0,.008a11.8,11.8,0,0,0-.162,3.683h0c0,.029.007.057.011.084v0c.013.1.026.177.036.233l0,.016,0,.023,0,.019s0,.009,0,.013l0,.017v.009Z" transform="translate(12757.493 -3046.212)" fill="#fff"/>
      <path id="Trazado_1029" data-name="Trazado 1029" d="M644.214,881.774l2.946-.442,7.077-1.062,8.564-1.285,7.409-1.112,2.453-.368c.382-.057.78-.087,1.157-.173.017,0,.035-.005.052-.008.374-.056.5-.486.451-.8l-1.143-7.791q-.091-.624-.183-1.248c-.055-.373-.486-.5-.8-.451l-3.542.532a5.41,5.41,0,0,0-2.111.7,4.929,4.929,0,0,0-2.1,2.775l.624-.475h0a.662.662,0,0,0-.623.475,3.559,3.559,0,0,1-2.415,2.407c-.069.02-.138.038-.208.054.027-.006-.319.065-.18.04.059-.01.034,0,.021,0l-.076.01c-.117.017-.234.03-.351.046l-3.469.45-10.1,1.31-2.51.326.623.475a12.811,12.811,0,0,0-2.861-4.917,15.811,15.811,0,0,0-1.532-1.393c-.695-.569-1.53.067-2.139.469a12.783,12.783,0,0,0-5.538,7.657,11.489,11.489,0,0,0-.18,4.826.662.662,0,0,0,.8.451l8.639-1.3,1.248-.187a.651.651,0,0,0,.451-.8.663.663,0,0,0-.8-.451l-8.639,1.3-1.248.187.8.451a.913.913,0,0,1-.018-.1c0-.05-.046-.35-.024-.148-.01-.087-.02-.174-.028-.261a11.394,11.394,0,0,1,.471-4.438,10.986,10.986,0,0,1,2.956-4.679,12.665,12.665,0,0,1,1.554-1.256c.289-.2.6-.368.886-.564a1.1,1.1,0,0,1,.465-.137l-.629-.166a14.655,14.655,0,0,1,2.277,2.24,11.436,11.436,0,0,1,1.847,3.552.653.653,0,0,0,.623.475l7.02-.911,9.032-1.171a6.917,6.917,0,0,0,1.367-.261,4.911,4.911,0,0,0,3.114-3.247l-.623.475h0a.662.662,0,0,0,.623-.475,3.583,3.583,0,0,1,1.877-2.206,5.578,5.578,0,0,1,1.635-.4l3.341-.5-.8-.451,1.148,7.818.179,1.222.452-.8-2.947.442-7.077,1.062-8.565,1.285-7.409,1.112-2.453.368c-.382.057-.78.088-1.157.174-.017,0-.035.005-.053.008a.651.651,0,0,0-.451.8.663.663,0,0,0,.8.451" transform="translate(12759.008 -3044.765)"/>
      <path id="Trazado_1030" data-name="Trazado 1030" d="M686.609,860.707l.051,0,.056.006a.971.971,0,0,0-.128-.017l.05.008a3.564,3.564,0,0,1,.491.117c.1.032.207.072.309.111.035.014-.163-.072-.045-.018l.074.034q.1.046.189.1a3.447,3.447,0,0,1,.345.218l.038.028c.064.044-.115-.092-.054-.042l.075.062c.064.054.126.11.186.169s.122.125.179.191c.019.022.12.149.053.061s.022.031.038.053a3.506,3.506,0,0,1,.315.55.649.649,0,0,0,.884.232.664.664,0,0,0,.232-.884,4.029,4.029,0,0,0-2.917-2.217,3.61,3.61,0,0,0-.422-.056.65.65,0,0,0-.646.646.661.661,0,0,0,.646.646" transform="translate(12722.403 -3039.467)"/>
      <path id="Trazado_1031" data-name="Trazado 1031" d="M680.212,867.208l.048.019c.108.04-.17-.075-.093-.039l.077.035a3.615,3.615,0,0,1,.441.249c.043.028.085.058.127.087l.065.048c.047.033-.1-.067-.083-.065s.037.029.047.038a3.516,3.516,0,0,1,.279.25,1.471,1.471,0,0,1,.282.317c.007.013-.094-.128-.056-.072l.035.048c.021.029.041.058.061.088.044.065.085.132.124.2s.088.163.127.247c.007.015.013.031.021.046.035.07-.057-.147-.019-.045.016.043.033.087.048.13a3.479,3.479,0,0,1,.15.612.647.647,0,0,0,.3.386.646.646,0,0,0,.949-.73,4.028,4.028,0,0,0-2.2-2.931,3.5,3.5,0,0,0-.383-.165.65.65,0,0,0-.8.451.662.662,0,0,0,.451.8" transform="translate(12726.731 -3044.003)"/>
      <path id="Trazado_1032" data-name="Trazado 1032" d="M668.847,871.261l.048.018c.108.04-.17-.075-.093-.039l.077.035a3.6,3.6,0,0,1,.441.25c.043.028.085.057.127.087.022.016.043.033.065.048.047.033-.1-.067-.084-.065s.037.03.047.038a3.5,3.5,0,0,1,.279.25,1.471,1.471,0,0,1,.282.317c.007.013-.094-.128-.056-.072.011.016.024.032.035.048s.041.058.061.088c.044.065.085.132.124.2s.088.163.127.247c.007.015.013.031.021.046.035.07-.057-.147-.019-.045.016.043.033.087.048.13a3.492,3.492,0,0,1,.15.612.647.647,0,0,0,.3.386.646.646,0,0,0,.949-.73,4.028,4.028,0,0,0-2.2-2.931,3.539,3.539,0,0,0-.383-.165.65.65,0,0,0-.8.451.662.662,0,0,0,.451.8" transform="translate(12734.639 -3046.823)"/>
      <path id="Trazado_1033" data-name="Trazado 1033" d="M621.9,248.718l-2.289-10.562a3.9,3.9,0,0,0-3.155-3.116l-4.828-.384c-2.044-.163-4.687,1.222-4.687,3.273v.536l4.555,1.057a6.427,6.427,0,0,1,4.395,4.165l4.277,9.613" transform="translate(12777.382 -2604.759)" fill="#fff"/>
      <path id="Trazado_1034" data-name="Trazado 1034" d="M621.048,247.1l-2.059-9.5c-.084-.388-.159-.781-.254-1.166a4.6,4.6,0,0,0-3.263-3.417,18.6,18.6,0,0,0-2.234-.207l-2.807-.224a6.027,6.027,0,0,0-3.63.82,3.66,3.66,0,0,0-1.981,3.613.656.656,0,0,0,.475.623l3.829.889a7.578,7.578,0,0,1,1.8.579,5.871,5.871,0,0,1,2.554,2.546c.219.426.372.886.568,1.324l.691,1.554,2.049,4.6,1.353,3.042a.651.651,0,0,0,.885.232.663.663,0,0,0,.232-.885l-3.231-7.263-.781-1.755c-.07-.157-.142-.312-.209-.47-.016-.037-.034-.072-.048-.108l-.007-.016c.052.14,0-.037-.009-.055-.034-.1-.081-.206-.123-.307a7.1,7.1,0,0,0-4.91-4.161l-4.295-1,.475.623a2.951,2.951,0,0,1,.154-1.257,2.919,2.919,0,0,1,1.186-1.24,4.738,4.738,0,0,1,2.875-.652c1.544.123,3.1.2,4.638.369a3.261,3.261,0,0,1,2.534,2.59c.08.339.148.681.222,1.022l1.174,5.415.905,4.178c.176.813,1.423.469,1.247-.344" transform="translate(12778.86 -2603.312)"/>
      <path id="Trazado_1035" data-name="Trazado 1035" d="M814.456,298.608l-29.5,8.523c1.693,2.669,5.244,12.864,6.8,17.931.627,2.046.894,8.4-.357,11.082l28.956-9.116c17.338-6.613,17.338-19.3,13.227-29.313a23.463,23.463,0,0,0-14.961-11.342l-.731-.176-5.011-1.078" transform="translate(12653.521 -2639.879)" fill="#fff"/>
      <path id="Trazado_1036" data-name="Trazado 1036" d="M812.8,296.521l-2.943.85L802.83,299.4l-8.536,2.467-7.35,2.124c-1.193.345-2.408.65-3.589,1.037l-.05.014a.653.653,0,0,0-.386.95,26.264,26.264,0,0,1,1.964,4.2c.84,2.083,1.613,4.194,2.359,6.313q1.072,3.043,2.052,6.117a15.8,15.8,0,0,1,.6,2.239,22.8,22.8,0,0,1,.245,2.823,27.309,27.309,0,0,1-.112,3.742,9.955,9.955,0,0,1-.665,2.922c-.218.476.146,1.133.73.95l3.45-1.086,8.038-2.53,9.121-2.871,6.816-2.146a34.432,34.432,0,0,0,6.587-2.82,21.98,21.98,0,0,0,8.715-8.352,18.729,18.729,0,0,0,2.159-9.843,26.007,26.007,0,0,0-.744-5c-.2-.813-.436-1.617-.7-2.411a19.641,19.641,0,0,0-.871-2.316,17.909,17.909,0,0,0-2.074-3.1,23.584,23.584,0,0,0-2.458-2.69,24.062,24.062,0,0,0-6.12-4.178,41.614,41.614,0,0,0-9.3-2.68l-1.139-.245c-.811-.175-1.158,1.071-.344,1.247,2.285.491,4.614.893,6.859,1.554a22.918,22.918,0,0,1,11.625,7.958c.373.485.725.988,1.058,1.5q.235.363.457.735.1.174.2.35c.039.067.077.134.114.2-.1-.173-.011-.023.007.023.3.764.59,1.533.843,2.314a28.038,28.038,0,0,1,1.113,4.77,17.4,17.4,0,0,1-7.942,17.736,29.273,29.273,0,0,1-7.688,3.78l-5.909,1.86-8.793,2.768-8.446,2.659-4.756,1.5-.225.071.73.95a15.221,15.221,0,0,0,.972-6.259,19.112,19.112,0,0,0-.639-5.612c-1.311-4.239-2.768-8.446-4.4-12.573a31.25,31.25,0,0,0-2.376-5.221l-.386.95,2.942-.85,7.028-2.031,8.536-2.467,7.35-2.124c1.193-.345,2.408-.65,3.589-1.037l.05-.015a.647.647,0,0,0-.344-1.247" transform="translate(12655.005 -2638.415)"/>
      <path id="Trazado_1037" data-name="Trazado 1037" d="M790.717,427.143c1.462-.448,1.363-5.235.051-11.31L783.8,417.62c2.387,6.143,5.4,9.988,6.92,9.523" transform="translate(12654.331 -2730.829)"/>
      <path id="Trazado_1038" data-name="Trazado 1038" d="M789.389,426.3c1.111-.37,1.356-1.7,1.47-2.718a21.853,21.853,0,0,0-.251-5.375c-.185-1.346-.432-2.683-.717-4.012a.655.655,0,0,0-.8-.451L783,415.3l-.877.225a.65.65,0,0,0-.452.8,35.646,35.646,0,0,0,3.095,6.294,10.2,10.2,0,0,0,3,3.366,2.08,2.08,0,0,0,1.617.314.647.647,0,0,0-.344-1.247.869.869,0,0,1-.1.025c.092-.014.119,0,.027-.01-.2-.03.065.047-.119-.012-.04-.013-.082-.024-.123-.035-.023-.006-.154-.06-.071-.024s-.054-.028-.075-.039c-.053-.029-.106-.057-.157-.088a2.535,2.535,0,0,1-.513-.385,8.038,8.038,0,0,1-.642-.647,20.076,20.076,0,0,1-2.782-4.333c-.582-1.147-1.1-2.324-1.567-3.522l-.451.8,6.094-1.562.877-.225-.8-.451a37.93,37.93,0,0,1,.99,7.4,9.187,9.187,0,0,1-.183,2.286,3.939,3.939,0,0,1-.141.458c-.049.13.048-.087-.019.04-.03.057-.065.113-.094.171-.063.126-.013.029-.016.033-.032.036-.067.069-.1.105-.067.075.124-.061-.023.015s.092-.026-.015.01c-.785.262-.449,1.511.344,1.247" transform="translate(12655.83 -2729.359)"/>
      <path id="Trazado_1039" data-name="Trazado 1039" d="M653.34,246.149l1.681-2.219a10.826,10.826,0,0,1,7.372-4.215l9.178-1.073-.314-1.161a6.622,6.622,0,0,0-7.089-4.858l-8.592.909a6.621,6.621,0,0,0-5.646,4.682l-4.454,13.655-2.163,33.185" transform="translate(12752.078 -2603.327)" fill="#fff"/>
      <path id="Trazado_1040" data-name="Trazado 1040" d="M652.416,245.012c.678-.9,1.322-1.834,2.063-2.68a10.316,10.316,0,0,1,5.849-3.341c.847-.16,1.717-.225,2.572-.325l4.329-.506,2.86-.334a.657.657,0,0,0,.623-.818,16.5,16.5,0,0,0-.594-1.981,7.255,7.255,0,0,0-2-2.794,7.356,7.356,0,0,0-5.515-1.709c-2.55.265-5.1.539-7.647.809a9.04,9.04,0,0,0-3.993,1.145,7.587,7.587,0,0,0-3.178,4.229q-1.11,3.426-2.233,6.847l-1.384,4.244c-.256.785-.546,1.567-.77,2.362a3.93,3.93,0,0,0-.085.809l-.137,2.1q-.246,3.779-.492,7.558l-.62,9.508q-.279,4.278-.558,8.557-.153,2.344-.305,4.688c0,.071-.009.143-.014.215-.055.831,1.239.827,1.293,0q.1-1.589.208-3.179.25-3.839.5-7.678l.614-9.426.539-8.274.29-4.452c0-.046.01-.094.009-.14,0-.115-.022.131-.018.128.091-.06.156-.48.189-.579l1.034-3.169,2.716-8.328c.2-.61.387-1.224.6-1.831a6.03,6.03,0,0,1,4.732-3.92c.871-.139,1.762-.193,2.638-.285l4.51-.477a13.107,13.107,0,0,1,3.172-.16,6.035,6.035,0,0,1,4.725,3.7,17.409,17.409,0,0,1,.534,1.832l.623-.818-6.931.81c-.856.1-1.713.187-2.567.3a11.511,11.511,0,0,0-6.425,3.136,30.611,30.611,0,0,0-2.867,3.577.651.651,0,0,0,.232.884.662.662,0,0,0,.884-.232" transform="translate(12753.56 -2601.865)"/>
      <path id="Trazado_1041" data-name="Trazado 1041" d="M651.231,245.061c.678-.9,1.322-1.834,2.063-2.68a10.315,10.315,0,0,1,5.849-3.341c.847-.16,1.717-.225,2.572-.325l4.329-.506,2.86-.334a.657.657,0,0,0,.623-.818,14.586,14.586,0,0,0-.767-2.38,7.276,7.276,0,0,0-2.452-2.873,7.579,7.579,0,0,0-5.251-1.193c-2.706.286-5.414.559-8.119.858a7.371,7.371,0,0,0-5.693,3.713,16.5,16.5,0,0,0-1.074,2.877l-3.01,9.227c-.313.961-.66,1.917-.942,2.888a3.858,3.858,0,0,0-.1.823l-.371,5.559q-.315,4.726-.63,9.453l-.705,10.58q-.3,4.534-.6,9.069-.16,2.4-.32,4.793l-.015.221c-.055.83,1.237.827,1.293,0l.217-3.258.539-8.09q.342-5.138.685-10.276.33-4.952.66-9.905.233-3.485.465-6.971l.1-1.548a1.306,1.306,0,0,0,.009-.138c0-.11-.06.177-.015.124a2.649,2.649,0,0,0,.246-.754l2.848-8.731,1.173-3.6c.061-.185.122-.37.181-.556a6.151,6.151,0,0,1,1.99-2.943,5.975,5.975,0,0,1,3.037-1.266c.334-.039.669-.071,1-.106l4.8-.508c1.083-.114,2.18-.293,3.269-.327a6.045,6.045,0,0,1,5.633,3.458,12.608,12.608,0,0,1,.659,2.12l.623-.818-6.931.81c-.855.1-1.713.187-2.567.3a11.511,11.511,0,0,0-6.425,3.136,30.6,30.6,0,0,0-2.867,3.577.65.65,0,0,0,.232.884.662.662,0,0,0,.884-.232" transform="translate(12754.745 -2601.913)"/>
      <path id="Trazado_1042" data-name="Trazado 1042" d="M591.936,358.127c0,.056-.008.111-.013.167-.008.1-.036.232,0,.025-.015.087-.026.175-.042.262a8.243,8.243,0,0,1-.43,1.5.564.564,0,0,1-.047.114c-.033.075-.068.151-.1.225q-.125.262-.268.514-.13.228-.274.447c-.1.153-.246.354-.3.424a7.512,7.512,0,0,1-2.023,1.776,10.736,10.736,0,0,1-3.908,1.329.651.651,0,0,0-.452.8.662.662,0,0,0,.8.451,10.343,10.343,0,0,0,6.283-3.176,8.593,8.593,0,0,0,1.945-3.89,5.963,5.963,0,0,0,.133-.959c.031-.832-1.262-.831-1.293,0" transform="translate(12793.311 -2690.244)"/>
      <path id="Trazado_1043" data-name="Trazado 1043" d="M623.541,426.748l-.537,10.2q-.117,2.219-.234,4.437a25.256,25.256,0,0,0,1.692,10.572c.685,1.736,1.445,3.444,2.17,5.164a.668.668,0,0,0,.8.451.65.65,0,0,0,.451-.8q-.961-2.28-1.922-4.559a24.366,24.366,0,0,1-1.9-10.723q.271-5.265.554-10.53l.222-4.215c.044-.831-1.249-.829-1.293,0" transform="translate(12766.396 -2737.99)"/>
      <line id="Línea_30" data-name="Línea 30" y1="12.555" x2="0.008" transform="translate(13354.47 -2291.581)" fill="#fc7f3a"/>
      <path id="Trazado_1044" data-name="Trazado 1044" d="M507.966,503.929l.007-10.976v-1.579a.647.647,0,0,0-1.293,0q0,5.488-.007,10.976,0,.789,0,1.579a.647.647,0,0,0,1.293,0" transform="translate(12847.15 -2782.955)"/>
      <path id="Trazado_1045" data-name="Trazado 1045" d="M659.918,310.277a.978.978,0,1,1-.936-1.018.978.978,0,0,1,.936,1.018" transform="translate(12741.885 -2656.675)"/>
      <path id="Trazado_1046" data-name="Trazado 1046" d="M659.918,310.277a.978.978,0,1,1-.936-1.018A.978.978,0,0,1,659.918,310.277Z" transform="translate(12741.885 -2656.675)" fill="none" stroke="#000" stroke-miterlimit="10" stroke-width="1.417"/>
      <path id="Trazado_1047" data-name="Trazado 1047" d="M658.133,352.691a.978.978,0,1,1-.936-1.018.978.978,0,0,1,.936,1.018" transform="translate(12743.127 -2686.187)"/>
      <path id="Trazado_1048" data-name="Trazado 1048" d="M658.133,352.691a.978.978,0,1,1-.936-1.018A.978.978,0,0,1,658.133,352.691Z" transform="translate(12743.127 -2686.187)" fill="none" stroke="#000" stroke-miterlimit="10" stroke-width="1.417"/>
      <path id="Trazado_1049" data-name="Trazado 1049" d="M656.347,395.105a.978.978,0,1,1-.936-1.018.978.978,0,0,1,.936,1.018" transform="translate(12744.37 -2715.698)"/>
      <path id="Trazado_1050" data-name="Trazado 1050" d="M656.347,395.105a.978.978,0,1,1-.936-1.018A.978.978,0,0,1,656.347,395.105Z" transform="translate(12744.37 -2715.698)" fill="none" stroke="#000" stroke-miterlimit="10" stroke-width="1.417"/>
      <path id="Trazado_1051" data-name="Trazado 1051" d="M718.9,842.6a2.739,2.739,0,1,1-2.739-2.739A2.74,2.74,0,0,1,718.9,842.6" transform="translate(12703.298 -3025.862)"/>
      <path id="Trazado_1052" data-name="Trazado 1052" d="M456.474,708.17a2.739,2.739,0,1,1-2.739-2.739,2.74,2.74,0,0,1,2.739,2.739" transform="translate(12885.891 -2932.328)"/>
      <path id="Trazado_1053" data-name="Trazado 1053" d="M630.571,125.137c-.138,2.968-12.064,4.824-26.637,4.145s-26.274-3.636-26.136-6.6,12.064-4.824,26.637-4.145,26.274,3.636,26.136,6.6" transform="translate(12797.664 -2523.873)" fill="#ffcc3e"/>
      <path id="Trazado_1054" data-name="Trazado 1054" d="M628.411,123.657c-.008.134.014-.054.008-.036-.01.034-.012.07-.023.1s-.02.059-.027.089c-.033.144.046-.075,0-.009s-.08.135-.119.2-.037.044.016-.018c-.032.037-.063.076-.1.112-.064.066-.129.131-.2.192-.037.032-.075.063-.113.094l-.027.019a6.736,6.736,0,0,1-.607.373q-.158.084-.32.16c-.061.029-.123.057-.184.085l-.081.036c-.108.047.026-.01-.041.018-.283.117-.571.222-.862.319-.684.228-1.383.413-2.085.574a62.763,62.763,0,0,1-12.32,1.288,123.879,123.879,0,0,1-15.988-.627,72.787,72.787,0,0,1-12.817-2.295,19.929,19.929,0,0,1-3.917-1.492c-.234-.125-.463-.259-.684-.406q-.149-.1-.291-.206c.088.065.026.022-.02-.017s-.094-.078-.139-.119c-.075-.066-.147-.136-.216-.208-.049-.052-.211-.266-.1-.109-.048-.069-.094-.138-.137-.211-.02-.034-.036-.071-.054-.106,0,.006.038.141,0,0-.016-.064-.031-.133-.05-.2.055.187.024.007.009-.085s-.016.072-.009.051.012-.071.022-.1.023-.069.033-.1c.033-.119-.078.111,0,.009a2.013,2.013,0,0,0,.111-.187c.064-.112-.013.013,0,0,.033-.037.065-.075.1-.112.059-.062.121-.121.185-.178.037-.033.075-.063.113-.094.055-.045-.045.034-.045.034.03-.022.06-.045.091-.066a6.5,6.5,0,0,1,.589-.359q.17-.091.345-.173l.158-.072.109-.048c.095-.041-.084.034.014-.006a15.861,15.861,0,0,1,1.883-.627,52.72,52.72,0,0,1,11.557-1.49,121.768,121.768,0,0,1,15.879.379,82.991,82.991,0,0,1,13.467,2.128,28.135,28.135,0,0,1,4.418,1.459,10.16,10.16,0,0,1,1.49.806q.137.092.27.191c-.1-.076,0,0,.038.032s.093.078.138.119c.069.062.136.126.2.194.032.034.062.07.094.1.084.091.032.04.018.019.043.064.085.13.126.2.021.033.035.071.054.105.007.013-.039-.143-.009-.018.016.069.035.143.055.211-.053-.18,0-.036-.008.071-.027.832,1.265.831,1.293,0a2.8,2.8,0,0,0-1.407-2.193,13.536,13.536,0,0,0-3.569-1.692,61.209,61.209,0,0,0-12.594-2.6,123.341,123.341,0,0,0-16.579-.9,72,72,0,0,0-13.446,1.2,19.363,19.363,0,0,0-4.225,1.278,3.813,3.813,0,0,0-2.137,1.887c-.8,2.14,2.378,3.476,3.841,4.063a50.278,50.278,0,0,0,11.708,2.727,122.615,122.615,0,0,0,16.482,1.159,82.828,82.828,0,0,0,14.126-.961,25.378,25.378,0,0,0,4.656-1.153,5.922,5.922,0,0,0,2.7-1.665,2.045,2.045,0,0,0,.446-1.152c.05-.831-1.243-.828-1.293,0" transform="translate(12799.177 -2522.393)"/>
      <path id="Trazado_1055" data-name="Trazado 1055" d="M622.73,94.651a14.088,14.088,0,0,1,14.088-14.088c7.781,0,14.088,7.579,14.088,15.36,0,0-4.892,2.935-14.675,2.739a34.273,34.273,0,0,1-13.5-4.012" transform="translate(12766.399 -2497.552)" fill="#ffcc3e"/>
      <path id="Trazado_1056" data-name="Trazado 1056" d="M621.9,93.178a13.564,13.564,0,0,1,8.835-12.634,12.665,12.665,0,0,1,8.246-.212,13.943,13.943,0,0,1,6.7,5,15.565,15.565,0,0,1,3.105,9.121l.32-.559c-.155.092-.317.173-.479.252-.2.1-.4.189-.609.279-.148.065.042-.016-.052.022l-.2.082q-.235.095-.473.183a28.68,28.68,0,0,1-5.8,1.442,37.777,37.777,0,0,1-4.233.373c-.827.029-1.672.069-2.5.018a23.745,23.745,0,0,1-2.4-.312,36.78,36.78,0,0,1-7.617-2.1,21.209,21.209,0,0,1-3.16-1.508c-.712-.434-1.363.684-.652,1.116A22.6,22.6,0,0,0,624.2,95.3a36.78,36.78,0,0,0,8.594,2.3,19.911,19.911,0,0,0,2.813.245q1.37,0,2.739-.08a38.834,38.834,0,0,0,4.6-.552,26.344,26.344,0,0,0,5.679-1.658,9,9,0,0,0,1.047-.5.776.776,0,0,0,.4-.711,13.239,13.239,0,0,0-.194-2.3,17.021,17.021,0,0,0-3.51-7.917,15.225,15.225,0,0,0-6.852-4.973,13.734,13.734,0,0,0-8.5-.063,14.85,14.85,0,0,0-10.246,11.92,15.634,15.634,0,0,0-.164,2.169.647.647,0,0,0,1.293,0" transform="translate(12767.878 -2496.079)"/>
      <path id="Trazado_1057" data-name="Trazado 1057" d="M636.231,116.3c9.784.2,14.675-2.739,14.675-2.739a14.951,14.951,0,0,0-.287-2.9c-7.5,3.726-18.573,2.592-22.606.942-.6-5.271-2.445-5.921-3.787-5.633a14.024,14.024,0,0,0-1.5,6.318,34.279,34.279,0,0,0,13.5,4.011" transform="translate(12766.399 -2515.194)" fill="#fff"/>
      <path id="Trazado_1058" data-name="Trazado 1058" d="M634.723,115.473a38.97,38.97,0,0,0,10.214-1.059,20.7,20.7,0,0,0,4.563-1.645,2.546,2.546,0,0,0,.224-.123c.509-.336.315-1.2.273-1.725a17.423,17.423,0,0,0-.263-1.9.654.654,0,0,0-.95-.386,25.372,25.372,0,0,1-9.55,2.318,36.588,36.588,0,0,1-9.056-.487,18.091,18.091,0,0,1-3.5-.955l.475.623c-.229-1.961-.587-4.529-2.3-5.8a2.716,2.716,0,0,0-1.621-.532,1.282,1.282,0,0,0-1.016.312,4.552,4.552,0,0,0-.5,1.049c-.152.364-.292.732-.415,1.107a13.945,13.945,0,0,0-.529,2.2,10.705,10.705,0,0,0-.192,2.353c.034.468.433.631.789.822a30.306,30.306,0,0,0,4.288,1.858,38.383,38.383,0,0,0,9.07,1.978.651.651,0,0,0,.646-.646.661.661,0,0,0-.646-.646,34.494,34.494,0,0,1-12.452-3.524c-.244-.127-.488-.256-.723-.4l.32.558a13.584,13.584,0,0,1,1.409-5.992l-.386.3c.01,0,.128-.022.128-.024s-.145.008,0,0c.077,0,.154-.011.231-.01.061,0,.352.04.144,0,.081.015.161.03.24.052.041.012.08.026.12.038.145.042,0,0,.026.009.09.044.174.092.26.143.041.025.08.054.119.082-.13-.094.02.019.046.043.086.082.172.163.25.252a3.346,3.346,0,0,1,.409.614,5.719,5.719,0,0,1,.388.9,14.087,14.087,0,0,1,.61,2.907.692.692,0,0,0,.475.623,25.006,25.006,0,0,0,7.516,1.464,36.258,36.258,0,0,0,10.114-.613,23.183,23.183,0,0,0,5.473-1.858l-.949-.386a14.784,14.784,0,0,1,.264,2.727l.32-.558c-.176.106-.362.2-.547.285q-.148.071-.3.139l-.164.073-.1.042c-.154.067.095-.038-.033.014q-.471.194-.95.366a29.552,29.552,0,0,1-6.562,1.477,42.934,42.934,0,0,1-5.7.255.647.647,0,0,0,0,1.293" transform="translate(12767.908 -2513.716)"/>
      <path id="Trazado_1059" data-name="Trazado 1059" d="M710.42,237.825l-1.307.19a22.02,22.02,0,0,0-18.847,21.79v15.564A13.538,13.538,0,0,0,703.394,288.9l6.243.189v-7.435c-6.8-1.115-13.7-1.174-12.309-15.015l.171-3.41c.459-9.162,2.551-17.969,18.6-19.143" transform="translate(12719.408 -2606.973)" fill="#4dcfd3"/>
      <path id="Trazado_1060" data-name="Trazado 1060" d="M708.766,235.752a35.228,35.228,0,0,0-3.508.625,22.708,22.708,0,0,0-16.517,16.775,26.751,26.751,0,0,0-.6,6.148v12.562a25.477,25.477,0,0,0,.255,4.739,14.16,14.16,0,0,0,4.891,8.248,14.36,14.36,0,0,0,8.658,3.251c1.883.062,3.766.114,5.649.171l.565.017a.654.654,0,0,0,.646-.646v-7.435a.652.652,0,0,0-.475-.623c-1.528-.251-3.067-.444-4.581-.777a11.255,11.255,0,0,1-3.981-1.527,7.046,7.046,0,0,1-2.6-3.28,16.464,16.464,0,0,1-.832-6.626c.037-.926.139-1.847.186-2.772q.061-1.223.123-2.446c.075-1.5.183-3.11.388-4.514a16.537,16.537,0,0,1,3.792-9.055c2.949-3.193,7.355-4.537,11.575-5.082.735-.095,1.473-.165,2.213-.221.824-.061.831-1.355,0-1.293-4.825.36-9.942,1.429-13.689,4.7a16.085,16.085,0,0,0-4.906,9.239,40.226,40.226,0,0,0-.629,5.516c-.071,1.293-.082,2.6-.2,3.884-.38,4.092-.423,9.266,2.9,12.273,2.381,2.155,5.72,2.583,8.767,3.052.378.058.755.116,1.133.179l-.475-.623v7.435l.646-.646-5.324-.161a19.329,19.329,0,0,1-2.534-.176,12.916,12.916,0,0,1-10.13-8.424,13.134,13.134,0,0,1-.738-4.321c0-.372,0-.745,0-1.117v-12.38a40.693,40.693,0,0,1,.136-4.51,21.3,21.3,0,0,1,3.152-8.94,21.607,21.607,0,0,1,15.163-9.786l1.23-.179a.651.651,0,0,0,.452-.8.663.663,0,0,0-.8-.451" transform="translate(12720.891 -2605.523)"/>
      <path id="Trazado_1061" data-name="Trazado 1061" d="M697.369,366.75,675.2,372.675a3,3,0,0,0-.223,5.743c1.163.393,4.025.342,6.137.225,0,0,1.7,12.009,2.221,22.352,10.256,3.162,11.046-1.757,12.609-14.624l12.779-3.5" transform="translate(12731.458 -2696.677)" fill="#ffc2d6"/>
      <path id="Trazado_1062" data-name="Trazado 1062" d="M695.729,364.644l-3.9,1.043-8.286,2.214-7.686,2.054-2.022.541a3.943,3.943,0,0,0-2.418,1.607,3.72,3.72,0,0,0,.518,4.632,4.26,4.26,0,0,0,2.508,1.04,23.227,23.227,0,0,0,3.421.1c.593-.014,1.186-.04,1.778-.072l-.623-.475.048.346.051.377c.024.176-.012-.1.012.088q.023.174.046.348.224,1.686.428,3.373c.433,3.56.815,7.126,1.124,10.7.2,2.314.369,4.63.488,6.949a.668.668,0,0,0,.475.623c2.686.824,6.253,1.729,8.775-.038,2.4-1.681,3.094-4.958,3.593-7.658.461-2.5.753-5.03,1.06-7.552l-.475.623,9.868-2.7c.925-.253,1.853-.5,2.775-.759l.135-.037a.647.647,0,0,0-.343-1.247l-.754.206L701,382.432l-6.7,1.833a.671.671,0,0,0-.475.623c-.26,2.142-.515,4.286-.873,6.414a26.208,26.208,0,0,1-1.147,4.726c-.056.152-.115.3-.177.453,0,0-.007.018-.046.106s-.076.167-.116.25a8.2,8.2,0,0,1-.431.792q-.109.176-.229.344c-.036.051-.073.1-.111.152.084-.11-.052.062-.081.1a5.089,5.089,0,0,1-.556.567c-.051.044-.1.087-.155.128.1-.079-.005,0-.049.035-.109.077-.22.151-.336.219s-.22.124-.333.179q-.092.044-.185.085c.127-.054-.037.013-.085.03a5.356,5.356,0,0,1-.8.224c-.064.013-.128.025-.193.035-.034.006-.251.034-.112.018q-.237.028-.475.041a15.226,15.226,0,0,1-5.3-.893l.475.623c-.356-6.955-1.1-13.9-2.011-20.8-.076-.575-.152-1.15-.233-1.724a.645.645,0,0,0-.623-.475c-1.16.063-2.322.1-3.484.078a7.167,7.167,0,0,1-2.654-.344,2.264,2.264,0,0,1-1.276-1.431,2.45,2.45,0,0,1,.169-1.833,2.616,2.616,0,0,1,1.8-1.247l1.934-.517,7.318-1.955,8.134-2.174c1.471-.393,2.969-.733,4.424-1.182.022-.007.045-.012.067-.018a.647.647,0,0,0-.344-1.247" transform="translate(12732.927 -2695.195)"/>
      <path id="Trazado_1063" data-name="Trazado 1063" d="M729.535,419.786c.06,2.607-2.53,7.858-4.215,11.918s2.422,6.069,5.182,2.409c3.1-4.252,3.367-10.182,3.846-13.027.193-1.147,2.125-1.707,3.362-2.037l12.1-3.216" transform="translate(12695.291 -2730.829)" fill="#ffc2d6"/>
      <path id="Trazado_1064" data-name="Trazado 1064" d="M727.422,418.3a8.712,8.712,0,0,1-.5,2.656c-.364,1.184-.819,2.339-1.291,3.483-.5,1.208-1.026,2.4-1.545,3.6a12.926,12.926,0,0,0-1.237,3.479,3.109,3.109,0,0,0,2.948,3.67c2.383.023,3.966-2.2,4.938-4.1a23.875,23.875,0,0,0,2.145-6.957c.174-1.03.308-2.066.445-3.1.045-.34.1-.725.157-1.1a1.065,1.065,0,0,1,.524-.82A9.915,9.915,0,0,1,737.148,418l3.752-1c2.488-.661,4.987-1.29,7.466-1.985l.146-.039a.647.647,0,0,0-.344-1.247l-6.269,1.667c-2.117.563-4.249,1.087-6.354,1.695a5.87,5.87,0,0,0-2.789,1.407,4.395,4.395,0,0,0-.723,2.5,41.817,41.817,0,0,1-1.179,6.261,17.85,17.85,0,0,1-1.32,3.342,7.439,7.439,0,0,1-2.087,2.715,2.62,2.62,0,0,1-2.114.523,1.537,1.537,0,0,1-.75-.449,1.771,1.771,0,0,1-.424-.85,4.757,4.757,0,0,1,.59-2.794c.505-1.186,1.028-2.366,1.534-3.551a30.278,30.278,0,0,0,2.314-6.625,6.97,6.97,0,0,0,.118-1.266.647.647,0,0,0-1.293,0" transform="translate(12696.759 -2729.347)"/>
      <path id="Trazado_1065" data-name="Trazado 1065" d="M723.36,422.946s.292,9.533-3.1,15.618c-2.16,3.737-6.293,2.244-5.2-1.764s2.57-10.063,2.192-12.523" transform="translate(12702.281 -2735.778)" fill="#ffc2d6"/>
      <path id="Trazado_1066" data-name="Trazado 1066" d="M721.236,421.519a37.234,37.234,0,0,1-.133,4,34.533,34.533,0,0,1-1.547,8.213,19.049,19.049,0,0,1-.8,2.048,7.311,7.311,0,0,1-1.1,1.84,3.143,3.143,0,0,1-1.309.916,1.7,1.7,0,0,1-1.177.012,2.1,2.1,0,0,1-.434-.237,1.6,1.6,0,0,1-.365-.42,2.485,2.485,0,0,1-.313-1.429,9.806,9.806,0,0,1,.455-2.036q.3-1.131.577-2.267c.425-1.742.816-3.5,1.094-5.268a14.192,14.192,0,0,0,.22-4.211.651.651,0,0,0-.8-.451.663.663,0,0,0-.451.795c-.021-.142.007.069.008.08.006.068.012.135.016.2.008.121.011.242.013.364,0,.3-.008.6-.028.9-.046.7-.136,1.391-.246,2.081-.268,1.678-.635,3.34-1.035,4.991q-.29,1.2-.605,2.386a13.448,13.448,0,0,0-.5,2.246,3.414,3.414,0,0,0,1.4,3.216,3.181,3.181,0,0,0,3.307-.062,6.99,6.99,0,0,0,2.607-3.484,31.22,31.22,0,0,0,2.185-9.085,39.243,39.243,0,0,0,.257-5.34c-.025-.83-1.318-.834-1.293,0" transform="translate(12703.759 -2734.351)"/>
      <path id="Trazado_1067" data-name="Trazado 1067" d="M711.98,422.716s.657,9.518-2.5,15.7c-2.016,3.8-6.2,2.437-5.263-1.6s2.367-11.047,1.9-13.495" transform="translate(12709.796 -2735.618)" fill="#ffc2d6"/>
      <path id="Trazado_1068" data-name="Trazado 1068" d="M709.9,421.3a38.025,38.025,0,0,1,0,4.423,32.085,32.085,0,0,1-1.508,8.788,7.159,7.159,0,0,1-2.085,3.616,2.318,2.318,0,0,1-1.256.473,1.629,1.629,0,0,1-1.048-.332,1.913,1.913,0,0,1-.661-1.185,4.2,4.2,0,0,1,.124-1.768q.506-2.191.936-4.4c.337-1.741.638-3.491.842-5.253a13.389,13.389,0,0,0,.057-3.926.653.653,0,0,0-.8-.452.661.661,0,0,0-.451.8c.01.054.019.107.027.161-.023-.155,0,.042.006.061.009.107.018.213.024.32.016.294.016.588.008.881-.019.689-.08,1.377-.157,2.061-.179,1.588-.454,3.165-.754,4.734s-.631,3.122-.989,4.673a4.362,4.362,0,0,0,.59,3.927,2.947,2.947,0,0,0,3.135.847,5.239,5.239,0,0,0,2.98-3.083,28.65,28.65,0,0,0,2.179-9.541,39.612,39.612,0,0,0,.088-5.821c-.057-.825-1.35-.831-1.293,0" transform="translate(12711.229 -2734.197)"/>
      <path id="Trazado_1069" data-name="Trazado 1069" d="M696.339,400.557s.4,14.529-1.277,21.2c-1.688,5.767,6.615,6.362,6.559-14.971" transform="translate(12716.229 -2720.2)" fill="#ffc2d6"/>
      <path id="Trazado_1070" data-name="Trazado 1070" d="M694.251,399.13c.075,2.775.056,5.556-.017,8.331-.062,2.369-.172,4.739-.386,7.1a37.481,37.481,0,0,1-.913,5.826c-.343,1.353-.309,3.571,1.406,3.977,1.943.461,3.389-1.933,4.057-3.367a22.055,22.055,0,0,0,1.581-5.153,50.233,50.233,0,0,0,.816-8.038c.024-.815.033-1.63.032-2.445a.647.647,0,0,0-1.293,0,58.04,58.04,0,0,1-.512,8.421,27.172,27.172,0,0,1-1.352,5.631q-.093.25-.194.5c-.049.119-.015.037,0,.012l-.047.109c-.039.088-.078.176-.118.263-.134.29-.278.576-.435.853-.137.243-.284.48-.445.708-.042.059-.238.314-.123.171-.077.1-.155.19-.236.281a5.052,5.052,0,0,1-.444.433c-.019.016-.145.116-.044.038s-.03.022-.055.039c-.07.047-.141.094-.214.137s-.141.068-.21.107.173-.05.04-.019c-.038.009-.075.027-.113.038-.058.017-.13.021-.186.044-.089.037.178,0,.054-.007-.034,0-.07.006-.1.005a.825.825,0,0,0-.161-.008c.183-.037.149.036.065.006a.669.669,0,0,0-.094-.024c-.028-.005-.054-.024-.082-.028-.073-.01.158.1.066.027a.8.8,0,0,0-.15-.088c-.1-.042.091.1.045.036a.671.671,0,0,0-.067-.06c-.042-.044-.081-.093-.124-.136.168.167.03.038-.015-.036s-.064-.128-.1-.19c-.045-.078.057.176.019.046-.01-.035-.026-.069-.037-.1-.024-.072-.044-.146-.062-.221s-.028-.15-.042-.225c.05.259,0-.054-.007-.128a4.087,4.087,0,0,1,.008-.549c0-.05.012-.1.015-.151.009-.143-.031.162,0-.017.019-.107.036-.214.059-.321.158-.742.352-1.471.482-2.22.183-1.056.319-2.12.432-3.186.24-2.277.367-4.566.445-6.855q.161-4.7.058-9.406l0-.155a.647.647,0,0,0-1.293,0" transform="translate(12717.671 -2718.773)"/>
      <path id="Trazado_1071" data-name="Trazado 1071" d="M292.935,736.3l-28.372-42.264H208.182l-11.321-31.7-17.806,45.4-6.457-8.414-7.827,17.023" transform="translate(13061.52 -2902.344)" fill="#fff"/>
      <path id="Trazado_1072" data-name="Trazado 1072" d="M292.067,734.531l-3.126-4.657-7.384-11-8.649-12.885-6.922-10.311-1.878-2.8c-.278-.415-.5-.909-1.057-.935-2.083-.094-4.193,0-6.278,0H206.756l.623.475-3.836-10.743-6.087-17.043-1.4-3.913a.653.653,0,0,0-1.247,0l-1.772,4.517-4.254,10.847-5.146,13.12-4.431,11.3-1.475,3.761a12.5,12.5,0,0,0-.7,1.774.573.573,0,0,1-.032.08l1.182-.154-6.457-8.414c-.261-.34-.89-.493-1.116,0l-6.853,14.906-.973,2.118c-.345.751.769,1.408,1.116.653l6.853-14.906.973-2.117h-1.116l6.457,8.414a.658.658,0,0,0,1.182-.155l1.772-4.517,4.254-10.846,5.146-13.12,4.431-11.3,1.475-3.761a12.475,12.475,0,0,0,.7-1.773.61.61,0,0,1,.032-.081h-1.247l3.837,10.742,6.087,17.043,1.4,3.913a.668.668,0,0,0,.623.475h54.069a14.315,14.315,0,0,0,2.214,0,.652.652,0,0,1,.1,0l-.558-.32,2.829,4.213,6.756,10.064,8.208,12.227,7.07,10.532c1.149,1.711,2.232,3.5,3.46,5.154.018.024.033.049.05.074.461.687,1.582.041,1.116-.653" transform="translate(13062.945 -2900.901)"/>
      <path id="Trazado_1073" data-name="Trazado 1073" d="M209.107,78.171h0a1.568,1.568,0,0,1-1.039-1.958L230.782,2.134l3,.919L211.065,77.132a1.568,1.568,0,0,1-1.958,1.039" transform="translate(13054.965 -2442.982)" fill="#fff"/>
      <path id="Trazado_1074" data-name="Trazado 1074" d="M207.823,76.062a.935.935,0,0,1-.577-1.2c.027-.089.055-.178.082-.267l.386-1.26,1.574-5.135,2.407-7.851,2.991-9.756,3.293-10.739,3.341-10.9,3.126-10.194,2.648-8.638L229,3.905c.3-.982.647-1.962.907-2.956.011-.043.026-.085.039-.128l-.8.451,3,.919-.451-.8-.621,2.025-1.687,5.5L226.9,17.05l-3.033,9.892-3.312,10.8L217.226,48.6l-3.083,10.054-2.574,8.4-1.8,5.881c-.256.834-.484,1.684-.77,2.509a.939.939,0,0,1-1.173.622.647.647,0,0,0-.344,1.247,2.253,2.253,0,0,0,2.755-1.5c.021-.063.039-.127.059-.191l.354-1.153,1.52-4.955,2.391-7.8L217.537,52l3.306-10.783,3.366-10.976,3.166-10.327,2.686-8.759,1.93-6.294c.305-1,.631-1.987.916-2.988.012-.043.026-.085.039-.128a.657.657,0,0,0-.452-.8l-3-.919a.657.657,0,0,0-.795.451l-.633,2.064-1.718,5.6-2.523,8.23-3.066,10L217.412,37.3l-3.356,10.944-3.081,10.049-2.557,8.34-1.752,5.715c-.225.734-.471,1.466-.676,2.206a2.245,2.245,0,0,0,1.489,2.757c.8.245,1.138-1,.344-1.247" transform="translate(13056.421 -2441.497)"/>
      <path id="Trazado_1075" data-name="Trazado 1075" d="M291.964,38.477l-33.611-24.22-9.024,29.791Z" transform="translate(13026.207 -2451.417)" fill="#ff3e6c"/>
      <path id="Trazado_1076" data-name="Trazado 1076" d="M290.814,36.416,287.46,34l-8.022-5.781-9.7-6.99-8.409-6.06-2.753-1.984c-.434-.313-.859-.657-1.311-.945-.02-.013-.04-.029-.059-.043a.652.652,0,0,0-.95.386l-.9,2.969L253.2,22.678l-2.6,8.582-2.257,7.449c-.363,1.2-.789,2.4-1.093,3.61,0,.018-.011.035-.016.053a.65.65,0,0,0,.623.818l4.253-.556L262.313,41.3l12.266-1.6,10.667-1.394q2.586-.338,5.173-.676l.07-.009a.668.668,0,0,0,.646-.646.65.65,0,0,0-.646-.646l-4.253.555-10.208,1.334-12.266,1.6L253.1,41.213l-3.512.459c-.545.071-1.123.1-1.66.217-.023,0-.047.006-.07.009l.623.818.9-2.969,2.159-7.128,2.6-8.582,2.257-7.449.738-2.437c.116-.384.278-.778.355-1.172a.547.547,0,0,1,.016-.053l-.949.386,3.355,2.418,8.023,5.781,9.7,6.99,8.409,6.06,2.753,1.984c.435.313.86.658,1.312.945.02.013.04.029.059.043a.651.651,0,0,0,.884-.232.66.66,0,0,0-.232-.884" transform="translate(13027.684 -2449.914)"/>
      <path id="Trazado_1077" data-name="Trazado 1077" d="M241.077,217.1l-7.421-8.13a13.229,13.229,0,0,0-9.156-3.559,16.4,16.4,0,0,0-1.836.132c-5.092.657-6.406-2.957-2.135-4.435l2.955-1.162" transform="translate(13048.028 -2580.619)" fill="#ffc2d6"/>
      <path id="Trazado_1078" data-name="Trazado 1078" d="M240.091,215.145l-7.13-7.81a13.4,13.4,0,0,0-8.16-3.975,14.169,14.169,0,0,0-3.072-.019,10.377,10.377,0,0,1-2.59.078,4.274,4.274,0,0,1-.976-.26c-.042-.017-.217-.1-.3-.155a2.326,2.326,0,0,1-.245-.162,1.079,1.079,0,0,1-.369-.444c-.083-.15.033.12-.018-.04-.016-.05-.029-.1-.043-.15a.867.867,0,0,1-.02-.1c.026.172.008-.052.007-.087s.026-.2,0-.038c.013-.072.033-.141.052-.212.005-.019.076-.185.018-.057a1.955,1.955,0,0,1,.114-.211,2.307,2.307,0,0,1,.551-.58,6.288,6.288,0,0,1,1.517-.753l2.792-1.1a.666.666,0,0,0,.451-.8.65.65,0,0,0-.795-.451l-2.63,1.034a5.76,5.76,0,0,0-2.969,1.938,2.239,2.239,0,0,0,.479,3,5.932,5.932,0,0,0,4.472.894,13.458,13.458,0,0,1,6.291.632,11.655,11.655,0,0,1,4.273,2.638c1.234,1.264,2.389,2.617,3.579,3.921l3.813,4.177c.562.616,1.475-.3.914-.914" transform="translate(13049.471 -2579.119)"/>
    </g>
  </g>
</svg>
