<svg xmlns="http://www.w3.org/2000/svg" xmlns:xlink="http://www.w3.org/1999/xlink" width="349.08" height="280" viewBox="0 0 349.08 280">
  <defs>
    <clipPath id="clip-path">
      <rect id="Rectángulo_61" data-name="Rectángulo 61" width="318.851" height="280" fill="none"/>
    </clipPath>
  </defs>
  <g id="Grupo_307" data-name="Grupo 307" transform="translate(-13003 1686)">
    <rect id="Rectángulo_100" data-name="Rectángulo 100" width="349.08" height="280" transform="translate(13003 -1686)" fill="none"/>
    <g id="Grupo_297" data-name="Grupo 297" transform="translate(13018 -1686)">
      <g id="Grupo_149" data-name="Grupo 149" transform="translate(0 0)" clip-path="url(#clip-path)">
        <path id="Trazado_752" data-name="Trazado 752" d="M561.116,46.615s-1.708,9.394-8.967,20.5c-4.911,6.618-1.281,15.8-1.281,15.8L529.732,72.449,548.093,38.5" transform="translate(-419.45 -25.625)"/>
        <path id="Trazado_753" data-name="Trazado 753" d="M560.484,45.51a30.175,30.175,0,0,1-.786,3.1,62.588,62.588,0,0,1-2.969,7.918q-1.192,2.651-2.6,5.2-.777,1.4-1.617,2.768c-.549.892-1.168,1.741-1.707,2.637a14.8,14.8,0,0,0-1.748,9.036,19.452,19.452,0,0,0,1.183,5.3c.223.566-.493.945-.941.723l-7.183-3.555-11.349-5.617-2.6-1.289a.65.65,0,0,1-.23-.876l1.831-3.386,4.377-8.093,5.313-9.823,4.577-8.461c.74-1.369,1.427-2.789,2.23-4.123.012-.019.022-.04.033-.06.392-.725,1.5-.079,1.106.647l-1.832,3.386-4.377,8.092-5.313,9.824L531.3,67.314l-1.519,2.808c-.233.43-.436.909-.711,1.315-.012.018-.022.04-.032.06l-.23-.876,7.183,3.555,11.349,5.617,2.6,1.289-.941.723a19.654,19.654,0,0,1-1.088-4.446,17.452,17.452,0,0,1,.986-9.31,12.565,12.565,0,0,1,1.292-2.323c.63-.889,1.192-1.832,1.749-2.767q1.566-2.632,2.9-5.393a62.548,62.548,0,0,0,3.373-8.473,33.148,33.148,0,0,0,1.036-3.922c.148-.81,1.383-.467,1.235.34" transform="translate(-418.201 -24.349)"/>
        <path id="Trazado_754" data-name="Trazado 754" d="M441.005,637.073c.011-1.628.569-3.291,2.256-3.82a6.254,6.254,0,0,1,3.647.218,8.356,8.356,0,0,1,.9.333l-.471.362a3.5,3.5,0,0,1,1.267-3.306,5.766,5.766,0,0,1,6.67-.764,5.659,5.659,0,0,1,1.411,1.1l-.535.312a5.088,5.088,0,0,1,1.708-5.992,8.963,8.963,0,0,1,3.836-1.386v.618a14.441,14.441,0,0,1-5.14-2.392,3.859,3.859,0,0,1-1.608-2.759c-.079-2.515,2.926-3.957,4.921-4.6a20.106,20.106,0,0,1,6.4-.857l-.226.546a36.874,36.874,0,0,1-6.886-6.845c-.806-1.124-1.847-2.745-1.457-4.21a2.49,2.49,0,0,1,2.563-1.573,11.5,11.5,0,0,1,4.974,1.27,26.283,26.283,0,0,1,6.912,4.753l-.535.312a49.991,49.991,0,0,1-2.661-12.6,15.039,15.039,0,0,1,.217-3.78,4.9,4.9,0,0,1,.994-2.261c.994-1.134,2.446-.758,3.495.078a13.431,13.431,0,0,1,3.642,5.763,39.226,39.226,0,0,1,2.311,10.966q.071.876.114,1.754l-.629-.085c.509-2,1.429-4.126,3.26-5.247a3.9,3.9,0,0,1,2.2-.642,4.135,4.135,0,0,1,3.5,3.074c.6,2.38-.474,4.971-1.512,7.062l-.276-.482c2.4.165,5.382.723,6.7,3a5.446,5.446,0,0,1,.343,4.184,5.954,5.954,0,0,1-.359.982l-.191-.47a14.827,14.827,0,0,1,2.9.99,11.055,11.055,0,0,1,4.642,3.548,6.9,6.9,0,0,1,1.232,3.457c.032.411-.608.409-.641,0-.3-3.837-4-6.082-7.333-7.114-.32-.1-.644-.194-.972-.264a.324.324,0,0,1-.191-.47.436.436,0,0,0,.02-.044c.042-.118.005-.006.035-.083.064-.161.123-.325.175-.491a6.269,6.269,0,0,0,.3-1.607,4.074,4.074,0,0,0-2.061-3.8,10.419,10.419,0,0,0-4.593-1.176.325.325,0,0,1-.277-.482c1.175-2.367,2.934-6.747-.01-8.619a3.621,3.621,0,0,0-1.477-.562c.05.007.09,0,.012,0-.1,0-.191,0-.287.01a3.657,3.657,0,0,0-1.115.312c-1.963.913-2.9,3.128-3.4,5.1a.322.322,0,0,1-.629-.085,42.7,42.7,0,0,0-1.93-11.229,16.166,16.166,0,0,0-3.36-6.265,3.881,3.881,0,0,0-1.649-1.1,1.4,1.4,0,0,0-1.273.237,3.33,3.33,0,0,0-.97,1.742,11.846,11.846,0,0,0-.336,3.292,42.621,42.621,0,0,0,2.093,11.389q.275.928.571,1.85a.323.323,0,0,1-.535.311,26.631,26.631,0,0,0-5.882-4.214,13.256,13.256,0,0,0-4.87-1.6c-.916-.075-2.164,0-2.564.893-.474,1.062.426,2.559,1.023,3.462a33.816,33.816,0,0,0,7.092,7.16c.221.18.033.55-.226.547-3.044-.04-6.548.368-9.083,2.219a3.572,3.572,0,0,0-1.584,2.241,2.859,2.859,0,0,0,1.1,2.393,12.7,12.7,0,0,0,5.168,2.495c.281.081.328.566,0,.618-1.873.294-4,.957-4.951,2.747a4.653,4.653,0,0,0-.345,3.146,4.408,4.408,0,0,0,.2.7c.119.3-.331.541-.535.311a5.2,5.2,0,0,0-3.325-1.657c-1.882-.155-4.411.979-4.913,2.958a2.4,2.4,0,0,0-.04,1.048.325.325,0,0,1-.471.362.32.32,0,0,0-.037-.016c.116.039-.027-.011-.063-.025-.14-.054-.281-.106-.423-.155a9.147,9.147,0,0,0-1.392-.358,3.417,3.417,0,0,0-3.172.721,3.789,3.789,0,0,0-.749,2.549.32.32,0,0,1-.641,0" transform="translate(-330.19 -392.015)"/>
        <path id="Trazado_755" data-name="Trazado 755" d="M504.565,684.2a13.345,13.345,0,0,0-.66-1.69,7.315,7.315,0,0,0-1.865-2.7,1.642,1.642,0,0,0-2.477.215c-.553.906-.233,2.206.041,3.15a12.834,12.834,0,0,0,.891,2.273c.113.22-.082.585-.362.471a7.077,7.077,0,0,0-2.032-.483,4.467,4.467,0,0,0-1.715.144c-.329.1-.917.31-.993.714-.113.6.742,1.245,1.139,1.561a9.267,9.267,0,0,0,1.188.8.324.324,0,0,1,0,.553,3.332,3.332,0,0,0-.836.8,1.672,1.672,0,0,0-.047,2.091c.235.34-.319.66-.553.323-.954-1.377-.162-2.935,1.112-3.764v.553a6.1,6.1,0,0,1-2.463-2.164,1.213,1.213,0,0,1,.307-1.6,4.175,4.175,0,0,1,2.969-.643,7.661,7.661,0,0,1,2.095.5l-.362.471a13.876,13.876,0,0,1-.909-2.27,5.183,5.183,0,0,1-.118-3.62,2.189,2.189,0,0,1,2.864-.98,5.693,5.693,0,0,1,2.394,2.7,14.378,14.378,0,0,1,1.01,2.423c.121.4-.5.564-.617.17" transform="translate(-351.835 -451.691)"/>
        <path id="Trazado_756" data-name="Trazado 756" d="M41.546,61.354,22.365,106.841,3.181,61.354c-5-13.846,4.9-28.6,19.182-28.6s24.178,14.751,19.183,28.6" transform="translate(275.368 -21.8)" fill="#ff3e6c"/>
        <path id="Trazado_757" data-name="Trazado 757" d="M40.934,60.252l-1.908,4.526L34.443,75.645,28.9,88.791l-4.79,11.361-2.324,5.512-.032.075a.648.648,0,0,1-1.235,0l-1.651-3.914-4.049-9.6L9.727,80.153,4.949,68.825l-3.108-7.37a22.169,22.169,0,0,1,5.129-24.98,20.781,20.781,0,0,1,16.11-5.538A21.027,21.027,0,0,1,37.8,39.275a22.356,22.356,0,0,1,3.134,20.977c-.276.771-1.514.439-1.235-.34a21.246,21.246,0,0,0-1-16.8,20.123,20.123,0,0,0-12.4-10.3,19.5,19.5,0,0,0-16.247,2.8,20.925,20.925,0,0,0-8.5,13.706,20.585,20.585,0,0,0,1.29,11.217l2.672,6.336L10,77.535,15.044,89.49l4.319,10.241,2.287,5.423.1.244H20.518l1.908-4.526,4.583-10.867L32.552,76.86,37.343,65.5l2.324-5.512.032-.075a.662.662,0,0,1,.788-.448.645.645,0,0,1,.447.788" transform="translate(276.598 -20.528)" fill="#1d2b47"/>
        <path id="Trazado_758" data-name="Trazado 758" d="M29.656,72.84a11.206,11.206,0,1,0,11.2-11.589,11.4,11.4,0,0,0-11.2,11.589" transform="translate(256.876 -40.764)" fill="#fff"/>
        <path id="Trazado_759" data-name="Trazado 759" d="M29.08,71.584a11.034,11.034,0,0,0,6.879,10.269,10.465,10.465,0,0,0,11.836-3.307,11.339,11.339,0,0,0,.9-12.6,10.522,10.522,0,0,0-11.14-5.1A10.909,10.909,0,0,0,29.2,69.875a11.286,11.286,0,0,0-.124,1.71.641.641,0,0,1-1.281,0,12.348,12.348,0,0,1,7.819-11.5,11.7,11.7,0,0,1,13.117,3.679,12.654,12.654,0,0,1,1.036,14.158,11.834,11.834,0,0,1-12.5,5.65A12.142,12.142,0,0,1,27.951,73.52a13.634,13.634,0,0,1-.152-1.935.641.641,0,0,1,1.281,0" transform="translate(258.092 -39.508)" fill="#1d2b47"/>
        <path id="Trazado_760" data-name="Trazado 760" d="M1.364,283.787c0,1.694,10.114,3.067,22.59,3.067s22.591-1.373,22.591-3.067-10.114-3.067-22.591-3.067-22.59,1.373-22.59,3.067" transform="translate(271.849 -186.825)" fill="#272727"/>
        <path id="Trazado_1224" data-name="Trazado 1224" d="M22.591,0C35.067,0,45.181,1.373,45.181,3.067S35.067,6.134,22.591,6.134,0,4.761,0,3.067C0,2.53,1.016,2.025,3.09,1.518,6.65.641,14.069,0,22.591,0Z" transform="translate(273.213 93.895)" fill="#272727" stroke="#272727" stroke-width="1.277"/>
        <path id="Trazado_761" data-name="Trazado 761" d="M804.435,719.634,785.6,696.594l3.246-9.29a12.425,12.425,0,0,0-7.976,1.609l-1.046.617-5.1-6.241,8.122-6.685,18.288-15.05L821.862,676.3l-15.35,12.615c-4.31,4.012-3.366,10.444.492,20.277a8.645,8.645,0,0,1-.937,8.088Z" transform="translate(-762.139 -440.278)" fill="#ff3e6c"/>
        <path id="Trazado_762" data-name="Trazado 762" d="M802.695,718.809l-3.205-3.921-6.848-8.375-6.539-8-1.858-2.272c-.122-.149-.245-.3-.365-.447a.861.861,0,0,1-.071-.979l3.047-8.721.084-.24.448.788a12.065,12.065,0,0,0-5.32.548,17.375,17.375,0,0,0-3.208,1.614.647.647,0,0,1-.776-.1l-4.467-5.463-.636-.778a.651.651,0,0,1,0-.906l5.666-4.662,3.184-2.62,5.742-4.725,7.484-6.159c1.423-1.171,2.837-2.353,4.269-3.513l.067-.055a.658.658,0,0,1,.776-.1l7.05,5.016,11.137,7.923,2.543,1.81a.648.648,0,0,1,.13,1.006l-4.594,3.776-7.92,6.509c-1.6,1.319-3.441,2.533-4.456,4.4a10.362,10.362,0,0,0-.993,5.693,31.7,31.7,0,0,0,1.759,7.754c.522,1.568,1.193,3.089,1.7,4.661a9.4,9.4,0,0,1,.3,4.382,9.2,9.2,0,0,1-1.51,3.708c-.412.6-.828,1.193-1.242,1.789l-.368.531c-.467.673-1.578.033-1.106-.647a21.62,21.62,0,0,0,2.481-3.893,8.03,8.03,0,0,0,.513-4.26,26.581,26.581,0,0,0-1.542-4.6,40.048,40.048,0,0,1-2.145-8.241,13.28,13.28,0,0,1,.472-6.235,8.779,8.779,0,0,1,2.493-3.7c.642-.537,1.293-1.063,1.939-1.594l7.713-6.339,3.59-2.95c.633-.521,1.249-1.112,1.922-1.58.031-.022.06-.05.09-.074l.13,1.006-7.05-5.016-11.138-7.923-2.543-1.81.776-.1-3.551,2.922-7.358,6.056-6.21,5.11-2.806,2.31-6.34,5.218-.145.12v-.906l4.467,5.464.636.778-.776-.1a18.621,18.621,0,0,1,3.651-1.789,13.189,13.189,0,0,1,5.864-.5.643.643,0,0,1,.447.788l-2.843,8.136-.4,1.154-.165-.623,1.865,2.281,4.507,5.513,5.43,6.642,4.717,5.77c.761.931,1.531,1.855,2.284,2.793l.033.041a.66.66,0,0,1,0,.906.645.645,0,0,1-.906,0" transform="translate(-760.852 -439)"/>
        <path id="Trazado_763" data-name="Trazado 763" d="M819,734.893c-.022-.055.095.211.039.093-.023-.05-.047-.1-.073-.149a4.2,4.2,0,0,0-.308-.5l-.054-.074c-.06-.082,0,.007.034.043-.047-.053-.09-.112-.137-.166a4.218,4.218,0,0,0-.3-.316q-.085-.08-.175-.156c-.03-.026-.065-.049-.094-.076,0,0,.116.085.06.047-.024-.016-.048-.036-.072-.053a3.788,3.788,0,0,0-.443-.274c-.046-.024-.093-.048-.14-.07l-.054-.025c-.085-.041-.041.019.024.009-.032.005-.122-.048-.153-.059-.046-.017-.092-.032-.139-.047q-.166-.053-.336-.09c-.059-.013-.118-.024-.177-.035l-.068-.011c-.159-.027.147.017-.016,0a.657.657,0,0,1-.641-.641c.014-.314.284-.682.641-.64a4.657,4.657,0,0,1,2.539,1.084,4.755,4.755,0,0,1,1.086,1.35,3.859,3.859,0,0,1,.193.418.643.643,0,0,1-.447.788.659.659,0,0,1-.788-.447" transform="translate(-774.279 -486.959)"/>
        <path id="Trazado_764" data-name="Trazado 764" d="M826.539,743.074c-.022-.055.095.211.039.093-.023-.05-.047-.1-.073-.149a4.179,4.179,0,0,0-.308-.5l-.054-.074c-.06-.082,0,.007.034.043-.047-.054-.09-.112-.136-.166a4.254,4.254,0,0,0-.3-.316q-.085-.08-.175-.156c-.03-.026-.065-.049-.094-.076,0,0,.116.085.06.047-.024-.016-.048-.035-.072-.052a3.775,3.775,0,0,0-.443-.274q-.069-.036-.139-.07l-.054-.025c-.085-.041-.041.019.024.009-.032.005-.123-.048-.153-.059-.046-.017-.092-.032-.139-.047q-.166-.053-.336-.09c-.059-.013-.118-.024-.177-.035l-.068-.011c-.158-.027.147.017-.016,0a.657.657,0,0,1-.641-.641c.014-.314.284-.682.641-.64a4.657,4.657,0,0,1,2.539,1.084,4.758,4.758,0,0,1,1.086,1.35,3.889,3.889,0,0,1,.193.418.643.643,0,0,1-.447.788.659.659,0,0,1-.788-.447" transform="translate(-784.337 -492.404)"/>
        <path id="Trazado_765" data-name="Trazado 765" d="M836.97,726.227h0a5.3,5.3,0,0,0,.969,4.883L851.83,748.1a8.639,8.639,0,0,1-.734,1.285l-1.632,2.351L830.628,728.7l3.247-9.29a12.423,12.423,0,0,0-7.976,1.61l-1.046.617-5.1-6.241,6.805-5.6L836,721.344a5.3,5.3,0,0,1,.969,4.883" transform="translate(-807.169 -472.38)"/>
        <path id="Trazado_766" data-name="Trazado 766" d="M836.337,725.128a4.712,4.712,0,0,0,.814,4.272c.182.231.373.456.559.683l3.064,3.748,8.263,10.107,1.995,2.44a.678.678,0,0,1,.1.776,26.71,26.71,0,0,1-2.365,3.636.647.647,0,0,1-1.006.129L844.556,747l-6.847-8.375-6.539-8-1.857-2.272c-.122-.149-.245-.3-.365-.447a.861.861,0,0,1-.072-.978l3.047-8.721.084-.241.617.811a12.154,12.154,0,0,0-5.49.525,17.408,17.408,0,0,0-3.208,1.614.647.647,0,0,1-.776-.1l-4.467-5.464-.636-.778a.65.65,0,0,1,0-.906l5.961-4.906.844-.695a.65.65,0,0,1,.906,0l4.064,4.97,5.141,6.289a8.134,8.134,0,0,1,.9,1.258,6.035,6.035,0,0,1,.475,4.542.641.641,0,0,1-1.235-.341,4.856,4.856,0,0,0-1.018-4.522l-1.943-2.376-5.832-7.134-1.456-1.781h.906L819.8,713.88l-.844.695v-.906l4.467,5.463.636.778-.776-.1a18.99,18.99,0,0,1,3.514-1.743,13.02,13.02,0,0,1,5.831-.571.65.65,0,0,1,.618.811l-2.843,8.136L830,727.6l-.165-.623,1.865,2.281,4.507,5.513,5.43,6.641,4.718,5.77,1.547,1.892a9.9,9.9,0,0,1,.736.9.386.386,0,0,0,.033.04l-1.006.13a26.712,26.712,0,0,0,2.365-3.636l.1.776-5.578-6.823L836.9,731.1c-.219-.268-.441-.535-.658-.8a6.019,6.019,0,0,1-1.139-5.512.641.641,0,0,1,1.235.341" transform="translate(-805.919 -471.111)"/>
        <path id="Trazado_767" data-name="Trazado 767" d="M815.6,730.771l-2.807-3.433a9.149,9.149,0,0,1-1.521-2.5,7.843,7.843,0,0,1-.4-4.036,8.168,8.168,0,0,1,3.1-5.058l3.894-3.183,3.311-2.707a.661.661,0,0,1,.906,0,.645.645,0,0,1,0,.906l-6.7,5.48c-.293.24-.588.478-.88.72a6.554,6.554,0,0,0-.948,9.3q1.47,1.8,2.947,3.6a.66.66,0,0,1,0,.906.645.645,0,0,1-.906,0" transform="translate(-774.609 -472.3)"/>
        <path id="Trazado_768" data-name="Trazado 768" d="M865.818,698.718q1.461-1.195,2.922-2.39a5.63,5.63,0,0,0,2.015-5.806,21.191,21.191,0,0,0-.81-2.2.646.646,0,0,1,.447-.788.654.654,0,0,1,.788.447c.244.631.517,1.259.723,1.9a6.791,6.791,0,0,1-2.138,7.255c-.471.392-.949.776-1.423,1.164l-1.618,1.323a.66.66,0,0,1-.906,0,.645.645,0,0,1,0-.906" transform="translate(-842.9 -457.549)"/>
        <path id="Trazado_769" data-name="Trazado 769" d="M712.605,753.686H682.846l-5.137-8.393a12.421,12.421,0,0,0-3.8,7.193l-.185,1.2h-8.062l-.034-10.519-.077-23.685,24.54-6.715.051,19.868c.379,5.877,5.955,9.217,16.01,12.454a8.646,8.646,0,0,1,5.669,5.845Z" transform="translate(-616.367 -474.361)" fill="#ff3e6c"/>
        <path id="Trazado_770" data-name="Trazado 770" d="M711.338,753.053H682.19c-.192,0-.386.01-.577,0-.425-.021-.578-.3-.769-.614l-4.822-7.879-.133-.217,1.006.13a11.76,11.76,0,0,0-2.973,4.388,18.023,18.023,0,0,0-.85,3.722.642.642,0,0,1-.617.47h-8.062a.65.65,0,0,1-.64-.641q-.011-3.669-.023-7.337-.007-2.062-.014-4.124-.012-3.718-.024-7.436-.016-4.846-.031-9.693c-.006-1.839-.073-3.69-.018-5.528,0-.029,0-.058,0-.087a.652.652,0,0,1,.47-.617l8.345-2.283,13.183-3.607,3.011-.824a.648.648,0,0,1,.811.618l.016,6.335q.013,5.237.027,10.475,0,1.43.007,2.859a7.431,7.431,0,0,0,.988,3.552,11.829,11.829,0,0,0,4.092,4,36.738,36.738,0,0,0,7.175,3.355c1.472.537,3.031.923,4.452,1.585a9.1,9.1,0,0,1,3.118,2.4,9.523,9.523,0,0,1,1.836,3.442c.2.693.4,1.389.6,2.084l.187.656a.641.641,0,0,1-1.234.341,20.634,20.634,0,0,0-1.484-4.428,7.993,7.993,0,0,0-2.62-2.81,18.676,18.676,0,0,0-4.135-1.658,45.089,45.089,0,0,1-7.646-3.323,15.391,15.391,0,0,1-4.851-4.088,9.008,9.008,0,0,1-1.753-4.921c-.024-.678,0-1.36-.005-2.038L688.2,719.15l-.012-4.874c0-.88-.061-1.78-.007-2.659,0-.041,0-.083,0-.123l.811.617-8.345,2.284L667.463,718l-3.011.824.47-.618q.007,2.3.015,4.6.015,4.765.03,9.53.013,4.021.026,8.042.006,1.817.011,3.634.014,4.106.027,8.211c0,.063,0,.125,0,.188l-.641-.641h8.062l-.618.47a17.474,17.474,0,0,1,.948-3.971,13.185,13.185,0,0,1,3.2-4.706.649.649,0,0,1,1.006.13l4.5,7.351.639,1.043-.553-.317h26.1c1.2,0,2.41-.052,3.608,0h.052a.641.641,0,0,1,0,1.281" transform="translate(-615.1 -473.087)"/>
        <path id="Trazado_771" data-name="Trazado 771" d="M676.941,296.438s23.784,47.763,20.275,69.987-48.44,77.719-48.44,77.719l-28.223-28.433,33.364-41.338-23.764-55.711,1.21-26.077" transform="translate(-586.281 -194.722)" fill="#4dcfd3"/>
        <path id="Trazado_772" data-name="Trazado 772" d="M676.212,294.886c1.087,2.184,2.111,4.4,3.122,6.619q3.7,8.115,6.954,16.423a215.808,215.808,0,0,1,7.059,20.809,86.708,86.708,0,0,1,3.556,20.057,32.236,32.236,0,0,1-.585,7.832,41.9,41.9,0,0,1-2.129,6.711,121.2,121.2,0,0,1-8.162,16.159c-3.526,6.037-7.33,11.91-11.26,17.692q-5.718,8.414-11.778,16.589-4.787,6.491-9.734,12.862-2.516,3.242-5.079,6.446l-.228.283a.646.646,0,0,1-.906,0l-9.547-9.618-15.2-15.317-3.472-3.5a.659.659,0,0,1,0-.906l3.307-4.1,7.991-9.9,9.624-11.924,8.323-10.312,2.758-3.417a11.836,11.836,0,0,1,1.3-1.613.528.528,0,0,0,.06-.075l-.1.776-4.546-10.657-9.465-22.188-8.123-19.043c-.532-1.247-1.131-2.485-1.6-3.756a2.937,2.937,0,0,1-.076-1.238q.089-1.919.178-3.836l.97-20.905c.007-.162.015-.324.022-.487.038-.821,1.32-.825,1.281,0l-.867,18.681q-.115,2.474-.23,4.949-.037.784-.073,1.569a2.728,2.728,0,0,1-.038.813c-.08.168-.195-.416-.052-.169a4.251,4.251,0,0,1,.2.457l.841,1.97,7.549,17.7,9.6,22.516q2.726,6.39,5.452,12.781l.085.2a.686.686,0,0,1-.1.776l-3.307,4.1-7.991,9.9-9.623,11.923-8.323,10.312-2.758,3.417a11.662,11.662,0,0,1-1.3,1.613.526.526,0,0,0-.06.075v-.906l9.547,9.618,15.2,15.317,3.472,3.5h-.906c1.168-1.443,2.316-2.9,3.461-4.362q4.428-5.648,8.725-11.4,5.832-7.793,11.411-15.772c4.014-5.762,7.915-11.607,11.59-17.593a160.723,160.723,0,0,0,9.131-16.653c2-4.33,3.824-8.911,4.189-13.709.482-6.337-.694-12.775-2.151-18.916a182.317,182.317,0,0,0-6.528-21.016c-2.211-5.984-4.634-11.89-7.217-17.723-1.392-3.142-2.822-6.269-4.333-9.356q-.106-.217-.213-.433c-.366-.736.738-1.385,1.106-.647" transform="translate(-584.998 -193.493)"/>
        <path id="Trazado_773" data-name="Trazado 773" d="M750.768,261.382l1.56,142.021-31.815-.171s-2.975-103.455-4.235-118.981c-2.186-26.935,18.523-52.982,18.523-52.982l19.642,20.5" transform="translate(-675.119 -153.914)" fill="#4dcfd3"/>
        <path id="Trazado_774" data-name="Trazado 774" d="M750.093,260.11q.021,1.9.042,3.805.057,5.177.114,10.354.084,7.62.167,15.24.1,9.334.2,18.668l.224,20.363q.113,10.321.226,20.642.106,9.624.211,19.249.089,8.132.179,16.263.064,5.825.128,11.651c.02,1.847.088,3.7.061,5.548,0,.079,0,.159,0,.238a.649.649,0,0,1-.64.641l-10.756-.058-17.136-.092L719.2,402.6a.652.652,0,0,1-.641-.641q-.07-2.422-.141-4.844-.188-6.419-.382-12.839-.274-9.1-.557-18.209-.33-10.6-.676-21.206-.353-10.8-.73-21.6-.341-9.688-.72-19.375c-.2-4.931-.4-9.861-.653-14.789-.275-5.335-.789-10.622-.224-15.966,1.026-9.713,4.336-19.082,8.726-27.764a100.556,100.556,0,0,1,9.236-15.048c.2-.262.394-.523.6-.78a.645.645,0,0,1,.906,0l17.172,17.919,2.469,2.577c.571.6-.334,1.5-.906.906L735.5,233.028l-2.47-2.577h.906c-.066.083-.139.208-.063.08a6.875,6.875,0,0,1-.426.562q-.8,1.067-1.554,2.162c-1.759,2.532-3.4,5.148-4.929,7.823a89.709,89.709,0,0,0-10.187,25.678,56.484,56.484,0,0,0-1.219,15.68c.1,1.483.213,2.965.3,4.45.252,4.458.441,8.92.625,13.381q.384,9.3.71,18.6.38,10.583.728,21.167.354,10.667.688,21.335.3,9.551.59,19.1.216,7.135.427,14.27c.067,2.286.3,4.635.2,6.922,0,.1.006.2.009.3l-.641-.641,10.756.058,17.136.092,3.923.021-.641.641q-.021-1.9-.042-3.8-.057-5.177-.114-10.354-.084-7.62-.167-15.24-.1-9.334-.205-18.668-.112-10.181-.224-20.363-.113-10.321-.227-20.643-.106-9.625-.211-19.249L749,277.547q-.064-5.825-.128-11.65c-.02-1.847-.088-3.7-.061-5.548,0-.079,0-.159,0-.238a.641.641,0,0,1,1.281,0" transform="translate(-673.803 -152.643)"/>
        <path id="Trazado_775" data-name="Trazado 775" d="M736.161,756.428c-.028-.015-.056-.027-.084-.041-.12-.057-.015,0,.029.011-.048-.017-.1-.038-.143-.055a5.463,5.463,0,0,0-.85-.213c-.078-.015.122.01,0,0l-.156-.014q-.136-.009-.273-.009c-.105,0-.211,0-.316.012l-.148.014c.135-.015-.062.012-.072.014a3.715,3.715,0,0,0-.692.2c.073-.029-.052.023-.072.032-.054.026-.109.052-.162.08a4.388,4.388,0,0,0-.39.234.645.645,0,0,1-.876-.23.656.656,0,0,1,.23-.876,4.643,4.643,0,0,1,4.627-.266.646.646,0,0,1,.23.876.655.655,0,0,1-.876.23" transform="translate(-663.069 -502.353)"/>
        <path id="Trazado_776" data-name="Trazado 776" d="M735.318,767.322a2.711,2.711,0,0,0-.346-.08l-.079-.013c-.115-.02.01.008.054.006a2.238,2.238,0,0,1-.23-.023,4.372,4.372,0,0,0-.483-.01c-.094,0-.188.009-.281.019-.05.005-.172-.013-.011,0a.683.683,0,0,0-.139.023,3.918,3.918,0,0,0-.629.169c-.05.018-.1.037-.149.058.133-.054-.019.011-.047.024a3.79,3.79,0,0,0-.35.192,3.413,3.413,0,0,0-.3.2c.089-.069-.05.044-.066.058-.066.057-.13.117-.193.177a.64.64,0,0,1-.906-.906,4.617,4.617,0,0,1,2.984-1.3,4.308,4.308,0,0,1,1.51.162.641.641,0,1,1-.34,1.235" transform="translate(-661.78 -509.733)"/>
        <path id="Trazado_777" data-name="Trazado 777" d="M733.755,778.335a2.726,2.726,0,0,0-.346-.08l-.079-.013c-.114-.02.01.008.055.006a2.233,2.233,0,0,1-.23-.023,4.4,4.4,0,0,0-.483-.01q-.141,0-.281.019c-.05,0-.172-.013-.011,0a.67.67,0,0,0-.139.023,3.941,3.941,0,0,0-.63.169c-.05.018-.1.037-.149.058.132-.054-.018.011-.047.024a3.764,3.764,0,0,0-.35.192,3.344,3.344,0,0,0-.3.2c.089-.069-.05.044-.066.058-.066.057-.13.117-.193.177a.64.64,0,0,1-.906-.906,4.618,4.618,0,0,1,2.984-1.3,4.305,4.305,0,0,1,1.51.162.641.641,0,1,1-.341,1.235" transform="translate(-659.695 -517.063)"/>
        <path id="Trazado_778" data-name="Trazado 778" d="M684.866,811.093h0a5.3,5.3,0,0,0,4.394,2.34h21.945a8.591,8.591,0,0,1,.531,1.381l.787,2.751H682.764l-5.138-8.393a12.423,12.423,0,0,0-3.8,7.193l-.185,1.2h-8.062l-.028-8.813h14.922a5.3,5.3,0,0,1,4.394,2.34" transform="translate(-616.285 -538.242)"/>
        <path id="Trazado_779" data-name="Trazado 779" d="M684.142,809.5a4.69,4.69,0,0,0,3.846,2.023c.274,0,.548,0,.823,0h21.118a.632.632,0,0,1,.553.317,27.613,27.613,0,0,1,1.382,4.286.647.647,0,0,1-.617.811H682.1c-.192,0-.386.01-.577,0-.425-.022-.579-.3-.769-.615l-4.823-7.879-.133-.217,1.006.129a11.881,11.881,0,0,0-3,4.451,18.178,18.178,0,0,0-.826,3.66.642.642,0,0,1-.617.47H664.3a.65.65,0,0,1-.64-.641q-.012-3.86-.025-7.72,0-.547,0-1.093a.649.649,0,0,1,.64-.641h14.612a6.17,6.17,0,0,1,5.258,2.657c.469.68-.641,1.321-1.106.647a4.828,4.828,0,0,0-4.126-2.023H664.272l.641-.641q.012,3.86.025,7.72,0,.546,0,1.093l-.641-.641h8.062l-.618.47a17.638,17.638,0,0,1,.922-3.909,13.3,13.3,0,0,1,3.23-4.767.649.649,0,0,1,1.006.13l4.5,7.351.638,1.043-.553-.317h28.544a10.4,10.4,0,0,1,1.163,0,.439.439,0,0,0,.052,0l-.618.811a25.8,25.8,0,0,0-1.253-3.98l.553.317H688.953c-.323,0-.646,0-.969,0a6.026,6.026,0,0,1-4.949-2.657c-.461-.686.648-1.328,1.106-.647" transform="translate(-615.008 -536.968)"/>
        <path id="Trazado_780" data-name="Trazado 780" d="M727.307,762.3h-4.434a8.058,8.058,0,0,1-6.21-2.652,8.294,8.294,0,0,1-1.957-5.635V744.67a.641.641,0,0,1,1.281,0v8.713c0,.362,0,.724,0,1.086a6.547,6.547,0,0,0,6.651,6.552c1.556,0,3.113,0,4.669,0a.641.641,0,0,1,0,1.281" transform="translate(-648.129 -495.181)"/>
        <path id="Trazado_781" data-name="Trazado 781" d="M792.568,785.707c0-1.264,0-2.528,0-3.792a5.616,5.616,0,0,0-3.147-5.124,17.474,17.474,0,0,0-2.2-.766c-.78-.255-.447-1.493.34-1.235.656.215,1.33.4,1.971.661a6.919,6.919,0,0,1,3.123,2.482,6.81,6.81,0,0,1,1.192,3.782c.008.606,0,1.213,0,1.819v2.173a.641.641,0,0,1-1.281,0" transform="translate(-738.162 -515.615)"/>
        <path id="Trazado_782" data-name="Trazado 782" d="M545.013,61.347l5.664-9.01a6.291,6.291,0,0,1-1.538-4.064c.445-6.323,12.87-23.495,12.87-23.495l21.714,11.895s-6.68,19.973-12.87,23.495c-2.1,1.193-5.318.937-8.641-.168l-5.584,10.373-7.565,5.18" transform="translate(-447.168 -16.491)" fill="#ffc2d6"/>
        <path id="Trazado_783" data-name="Trazado 783" d="M543.191,59.756l4.964-7.894.7-1.115v.647a6.709,6.709,0,0,1-1.589-4.746,12.468,12.468,0,0,1,.652-2.594,43,43,0,0,1,2.933-6.272,140.133,140.133,0,0,1,7.523-12.01c.6-.866,1.2-1.731,1.812-2.583a.658.658,0,0,1,.876-.23l7.364,4.034,11.655,6.384,2.7,1.477a.647.647,0,0,1,.294.723c-1.054,3.151-2.289,6.251-3.612,9.3a77.079,77.079,0,0,1-3.647,7.433,25.134,25.134,0,0,1-4.3,5.917,7.073,7.073,0,0,1-3.652,1.951,14.761,14.761,0,0,1-7.092-.823l.724-.294-4.364,8.107-.971,1.8a1.821,1.821,0,0,1-.53.727c-1.217.865-2.465,1.688-3.7,2.531l-3.817,2.613c-.682.467-1.324-.643-.647-1.106l7.314-5.008c.058-.04.116-.088.178-.122.208-.114-.149.1-.157.179a.95.95,0,0,1,.133-.246l.83-1.542,2.742-5.094,1.879-3.49a.646.646,0,0,1,.723-.294,14.093,14.093,0,0,0,6.163.863,5.482,5.482,0,0,0,2.133-.717,5.587,5.587,0,0,0,.956-.717,21.659,21.659,0,0,0,4.066-5.4A89.252,89.252,0,0,0,580.662,38.5c.407-1.083.808-2.17,1.175-3.268l.294.723-7.364-4.033L563.112,25.54l-2.7-1.477.876-.23c-1.656,2.289-3.232,4.639-4.766,7.01-1.355,2.095-2.668,4.217-3.9,6.386a52.134,52.134,0,0,0-3.1,6.19,16.144,16.144,0,0,0-.917,2.9c-.02.1-.037.2-.054.305-.007.044-.014.09-.02.134.021-.16,0,.017,0,.039a4.113,4.113,0,0,0,.015,1.014,6.913,6.913,0,0,0,1.418,2.929.624.624,0,0,1,0,.647L545,59.287l-.7,1.115c-.438.7-1.547.054-1.106-.647" transform="translate(-445.899 -15.223)"/>
        <path id="Trazado_784" data-name="Trazado 784" d="M605.746,120.417l.11.088c.143.114-.1-.075.03.023l.188.142q.582.43,1.2.817a14.25,14.25,0,0,0,3.648,1.714.641.641,0,0,1-.341,1.235,16.362,16.362,0,0,1-5.738-3.114.645.645,0,0,1,0-.906.655.655,0,0,1,.906,0" transform="translate(-494.763 -80.019)"/>
        <path id="Trazado_785" data-name="Trazado 785" d="M547,15.188c-2.135,5.124-10.248,13.664-16.866,12.169-5.6-1.265,17.708,13.128,18.148,14.518l7.341-12.357c-.642-1.494-.418-5.732.636-7.657,1.593-2.908,3.528-2.737,5.56-1.624s2.174,6.179.622,9.013l4.95-8.63s8.5,5.35,14.109,6.385a6.313,6.313,0,0,0,7.318-4.835A9.632,9.632,0,0,0,589,20.19,16.588,16.588,0,0,0,576.278,4.061l-7.073-1.725C559.877.062,550.69,6.324,547,15.188" transform="translate(-447.176 -1.243)"/>
        <path id="Trazado_786" data-name="Trazado 786" d="M546.238,14.116a21.743,21.743,0,0,1-3.744,5.74,25.277,25.277,0,0,1-5.877,5.057,11.9,11.9,0,0,1-6.774,2,9.475,9.475,0,0,1-1.421-.213c-.039-.009-.078-.012-.117-.02-.1-.021.181,0,.04.006a1.186,1.186,0,0,1-.192-.007c-.146-.023.176-.042.031,0a.437.437,0,0,0,.277-.222c-.028.045.069-.193.046-.109.046-.17.02-.195.019-.119,0-.2-.031-.182-.012-.111.033.122-.077-.126-.033-.072a.949.949,0,0,1,.078.133c.1.179-.085-.082.032.043s.234.259.36.382c.344.335.713.644,1.085.947.552.45.879.7,1.453,1.127q.912.683,1.84,1.345c2.814,2.018,5.682,3.958,8.525,5.933,1.164.808,2.327,1.619,3.464,2.464a11.29,11.29,0,0,1,1.933,1.6,1.3,1.3,0,0,1,.267.445l-1.171-.153,2.474-4.164,3.951-6.649.917-1.543q-.032.247-.065.494a6.429,6.429,0,0,1-.37-2.15,15.639,15.639,0,0,1,.15-2.819,7.652,7.652,0,0,1,2.358-5.017c1.462-1.2,3.229-.94,4.808-.12,1.466.761,1.95,2.451,2.119,3.984a10.526,10.526,0,0,1-1.077,6.007l-1.106-.647,4.333-7.554.617-1.075a.648.648,0,0,1,.876-.23c1.3.818,2.644,1.574,4,2.3a45.34,45.34,0,0,0,7.907,3.5,8.348,8.348,0,0,0,4.135.5,5.709,5.709,0,0,0,3.543-2.3,7.341,7.341,0,0,0,1.052-4.653,15.659,15.659,0,0,0-.848-4.444,16.06,16.06,0,0,0-5.145-7.244,16.779,16.779,0,0,0-6.609-3.138L568.78,1.985c-.654-.159-1.306-.331-1.968-.457a15.9,15.9,0,0,0-4.614-.172c-6.372.671-11.879,5.135-14.915,10.618a22.082,22.082,0,0,0-1.045,2.141.662.662,0,0,1-.788.447.645.645,0,0,1-.447-.788c2.62-6.239,7.923-11.543,14.592-13.24a17.714,17.714,0,0,1,8.6-.012L573.828,1.9c.684.167,1.375.32,2.05.521A17.363,17.363,0,0,1,586.6,11.544a16.88,16.88,0,0,1,1.43,4.53,12.713,12.713,0,0,1-.063,5.372,7.009,7.009,0,0,1-7.377,5.026,17.784,17.784,0,0,1-4.348-1.185c-1.464-.555-2.895-1.2-4.3-1.891Q568.9,21.9,566,20.124l-.311-.192.876-.23-4.333,7.554-.617,1.075a.641.641,0,0,1-1.106-.647,9.279,9.279,0,0,0,.939-4.936,6.247,6.247,0,0,0-.476-2.153,2.233,2.233,0,0,0-1.14-1.2,3.729,3.729,0,0,0-2.071-.5,2.773,2.773,0,0,0-1.793,1.194,8.616,8.616,0,0,0-1.419,4.795,10.566,10.566,0,0,0,.08,2.362c.078.453.374.957.142,1.39-.264.494-.575.968-.861,1.45l-3.713,6.25-2.741,4.613a.649.649,0,0,1-1.171-.153c.015.044.089.181.014.058-.043-.071.14.139-.006,0-.1-.1-.194-.2-.3-.287-.146-.13-.3-.255-.449-.377-.083-.067-.166-.132-.249-.2-.048-.038-.151-.116-.039-.031l-.179-.137c-1.076-.818-2.185-1.594-3.294-2.368-2.854-1.992-5.738-3.94-8.574-5.958-1.228-.873-2.448-1.758-3.632-2.691a10.26,10.26,0,0,1-2.074-1.919.892.892,0,0,1,.771-1.5,3.932,3.932,0,0,1,.633.1,7.045,7.045,0,0,0,1.56.153,9.431,9.431,0,0,0,3.243-.7,19.24,19.24,0,0,0,6.242-4.27,24.631,24.631,0,0,0,4.446-5.684,13.43,13.43,0,0,0,.6-1.218.662.662,0,0,1,.788-.448.645.645,0,0,1,.447.788" transform="translate(-445.8 0)"/>
        <path id="Trazado_787" data-name="Trazado 787" d="M580.289,72.579a2.39,2.39,0,0,0-.144-.219c-.025-.035-.056-.069-.078-.106.022.036.105.131.039.051l-.06-.074q-.126-.152-.264-.292-.163-.167-.34-.318c-.036-.03-.074-.059-.109-.09-.089-.076.095.067,0,0-.078-.055-.154-.111-.233-.163a4.669,4.669,0,0,0-.508-.291l-.134-.063c-.111-.053.084.029-.033-.014s-.212-.08-.32-.114-.246-.071-.371-.1q-.1-.022-.2-.039l-.086-.014c-.1-.018.1.01,0,0a5.293,5.293,0,0,0-.915-.025.641.641,0,0,1,0-1.281,5.423,5.423,0,0,1,4.651,2.193,2.929,2.929,0,0,1,.215.315.641.641,0,1,1-1.106.647" transform="translate(-455.251 -46.198)"/>
        <path id="Trazado_788" data-name="Trazado 788" d="M565.208,88.42c.112.15.063.076-.019-.016-.115-.128-.233-.252-.359-.37a5.9,5.9,0,0,0-1.259-.889,2.332,2.332,0,0,0-2.59.115,3.293,3.293,0,0,0-1.031,2.417,7.612,7.612,0,0,0,.058,1.711c.049.333.134.656.2.985a1.23,1.23,0,0,1-.191.914c-.715,1.214-2.11.608-3-.023-.668-.472-.028-1.583.647-1.106a2.718,2.718,0,0,0,1.06.567c.092.013.105.023.168-.032-.034.031.087-.192.1-.242v.341c-.566-2.228-.7-5.6,1.695-6.859,2-1.05,4.373.158,5.624,1.839a.645.645,0,0,1-.23.876.655.655,0,0,1-.876-.23" transform="translate(-433.774 -56.93)"/>
        <path id="Trazado_789" data-name="Trazado 789" d="M613.083,69.6c.034-.137.064-.275.092-.413s.06-.3.086-.455c.015-.087.029-.174.043-.261l.022-.15c.01-.07.018-.16,0-.03a12.072,12.072,0,0,0,.093-1.3c0-.216-.012-.431-.032-.647-.016-.167.018.08,0-.035-.008-.044-.015-.089-.023-.132-.019-.1-.042-.2-.071-.293-.016-.053-.036-.1-.053-.156-.028-.09.065.118-.014-.027-.021-.039-.041-.078-.064-.115s-.113-.15-.044-.07-.025-.022-.044-.041c-.082-.081-.1-.045-.005-.012a.654.654,0,0,1-.1-.064c-.111-.069.13.04-.031-.009-.785-.243-.45-1.48.341-1.235a2.422,2.422,0,0,1,1.417,2.4,11,11,0,0,1-.24,2.768c-.039.206-.081.412-.131.615a.641.641,0,0,1-1.235-.34" transform="translate(-500.718 -42.674)"/>
        <path id="Trazado_790" data-name="Trazado 790" d="M566.055,96.284a.87.87,0,1,0,1.181-.345.87.87,0,0,0-1.181.345" transform="translate(-438.135 -63.778)"/>
        <path id="Trazado_791" data-name="Trazado 791" d="M565.7,95.819a.3.3,0,0,0-.029.057l.016-.038-.014.039c-.013.039-.022.079-.032.119-.017.07,0-.077,0,0,0,.02,0,.04,0,.06a.6.6,0,0,1,.005.12l-.006-.045c0,.013,0,.026.007.039s.009.039.014.058.011.038.018.057l.007.019c.012.032.009.025-.009-.021.011,0,.041.079.047.088l.033.051c.02.027.016.022-.013-.017l.026.031a1.006,1.006,0,0,0,.089.085c.046.04-.015-.013-.015-.012a.342.342,0,0,0,.053.035l.056.032.019.009c.032.015.026.012-.018-.007,0,.013.124.039.139.042s.072,0,.017,0,.008,0,.018,0a.849.849,0,0,0,.12,0l.02,0c.035,0,.027,0-.026,0a.248.248,0,0,1,.059-.011,1.135,1.135,0,0,0,.114-.035c.067-.023-.065.035,0,0l.053-.028.051-.032.017-.012c.027-.02.022-.016-.017.013,0,0,.075-.069.082-.077l.034-.039c.021-.026.017-.021-.012.015l.024-.035c.008-.012.069-.1.061-.112l-.016.038c.005-.013.01-.026.015-.039s.011-.033.015-.049.009-.033.012-.05l0-.02c.006-.035.005-.027,0,.025a.919.919,0,0,1,0-.14.28.28,0,0,1,0-.06l.006.045c0-.013,0-.026-.007-.039a.868.868,0,0,0-.026-.1.246.246,0,0,1-.021-.056l.016.04c-.006-.012-.011-.024-.018-.036a1.033,1.033,0,0,1-.074-.119c-.006.014.044.051.012.017-.014-.015-.027-.03-.042-.045s-.029-.029-.045-.042l-.016-.013c-.026-.021-.021-.018.015.012,0-.012-.1-.06-.109-.067l-.019-.009c-.032-.015-.025-.012.018.006a.326.326,0,0,0-.058-.021l-.06-.016-.04-.009c-.035-.006-.027-.005.025,0a.913.913,0,0,1-.141-.005l-.04,0q-.053.006.026,0l-.04.007a1.112,1.112,0,0,0-.134.039c-.067.023.065-.035,0,0-.024.013-.047.025-.07.038l-.034.022-.033.023q.057-.045.017-.012c-.035.033-.068.066-.1.1-.048.054.037-.06,0,0-.015.024-.03.048-.045.073a.32.32,0,1,1-.553-.323A1.207,1.207,0,0,1,566.4,94.9a1.186,1.186,0,0,1,.956.928,1.189,1.189,0,1,1-2.2-.337.323.323,0,0,1,.438-.115.327.327,0,0,1,.115.438" transform="translate(-437.507 -63.151)"/>
        <path id="Trazado_792" data-name="Trazado 792" d="M587.325,84.564a.87.87,0,1,0,1.169-.382.87.87,0,0,0-1.169.382" transform="translate(-466.537 -55.962)"/>
        <path id="Trazado_793" data-name="Trazado 793" d="M586.973,84.089l-.01.019c-.014.032-.012.026.007-.017-.007,0-.019.053-.021.06-.007.025-.011.106-.028.122.019-.019.006-.067,0-.024,0,.02,0,.041,0,.062s0,.041,0,.061,0,.027,0,.04c-.007-.052-.008-.06,0-.025s.014.066.023.1.013.038.019.057c.023.068-.034-.064,0,0,.02.036.038.072.061.105l.024.033c-.03-.038-.034-.043-.012-.017l.028.031c.014.015.029.029.044.043l.016.014c.026.022.021.018-.016-.011.006.018.074.05.089.059l.058.03c.065.035-.067-.02,0,0a1.288,1.288,0,0,0,.132.036c.058.011.006-.015-.014,0a.265.265,0,0,1,.062,0c.028,0,.1-.016.122,0-.033-.016-.066.013-.015,0l.05-.011.059-.017.038-.013c.032-.013.025-.01-.02.009a.583.583,0,0,1,.089-.048c.017-.01.034-.022.051-.033.059-.039-.052.049,0,0,.03-.029.059-.058.088-.088s-.011.016-.01.016.04-.058.048-.071.022-.037.031-.057l.01-.019c.014-.032.012-.026-.007.017.013,0,.028-.084.032-.1s.009-.04.013-.061c.016-.071,0,.076,0,0,0-.044,0-.088,0-.133s-.023-.025,0,.015a.265.265,0,0,1-.011-.06,1.079,1.079,0,0,0-.035-.116c-.021-.064.029.046,0,.011-.009-.013-.015-.031-.023-.045s-.02-.035-.031-.053l-.023-.034q-.03-.041.013.016a.91.91,0,0,0-.07-.076s-.042-.043-.047-.041l.032.024-.035-.024a1.2,1.2,0,0,0-.112-.064c-.063-.034.051.016.007,0-.024-.007-.047-.016-.071-.023l-.061-.015-.041-.007c.051.006.059.008.024,0a1.161,1.161,0,0,0-.123,0h-.02c-.035,0-.027,0,.025,0a.317.317,0,0,1-.079.016c-.021.005-.1.044-.115.038l.04-.016-.037.018c-.024.012-.048.026-.071.04l-.05.035c.037-.029.043-.033.017-.011l-.015.014c-.015.014-.03.028-.044.043l-.028.031c-.022.026-.018.021.01-.016-.029.01-.065.1-.079.127a.323.323,0,0,1-.438.115.328.328,0,0,1-.115-.438,1.19,1.19,0,0,1,2.211.288,1.188,1.188,0,0,1-1.891,1.2,1.175,1.175,0,0,1-.425-.658,1.235,1.235,0,0,1,.105-.832.322.322,0,0,1,.438-.115.329.329,0,0,1,.115.438" transform="translate(-465.908 -55.326)"/>
        <path id="Trazado_794" data-name="Trazado 794" d="M12.288,0l7.5,13.819,1.168,5.275,1.364,6.157a69.177,69.177,0,0,1-10.8,2.595,70.4,70.4,0,0,1-10.6.98L.007,22.486,0,22.441.8,10.778Z" transform="matrix(0.921, 0.391, -0.391, 0.921, 156.371, 46.233)" fill="#a8542a"/>
        <path id="Trazado_795" data-name="Trazado 795" d="M13.484.318l5.708,10.515,1.367,2.518a5.123,5.123,0,0,1,.5,1c.277.99.448,2.023.67,3.026q.247,1.112.493,2.225l1.356,6.122a.658.658,0,0,1-.447.788A72.475,72.475,0,0,1,6.089,29.888c-1.5.128-3.013.206-4.523.218a.644.644,0,0,1-.617-.47L.46,26.26.143,24.066A9.034,9.034,0,0,1,0,23.079c-.023-.8.113-1.645.168-2.446Q.334,18.239.5,15.846l.263-3.841a2.893,2.893,0,0,1,.1-.833,1.67,1.67,0,0,1,.459-.512L7.159,5.178c1.741-1.633,3.456-3.3,5.226-4.9.032-.028.062-.058.093-.088.6-.564,1.509.34.906.906L9.5,4.74,3.328,10.527,1.894,11.872l.187-.453q-.261,3.819-.522,7.637L1.3,22.813c0,.051.015.217-.018.259s-.033-.21-.015-.1c.009.055.016.11.024.165q.135.929.268,1.857l.622,4.3-.618-.47A71.993,71.993,0,0,0,18.615,26.5c1.407-.358,2.8-.761,4.179-1.227l-.447.788q-1.214-5.477-2.427-10.955a3.667,3.667,0,0,1-.088-.4c-.02-.192.089.114.033.05a2.538,2.538,0,0,1-.237-.436l-1.177-2.168-3.63-6.688L12.378.964c-.393-.725.712-1.372,1.106-.647" transform="matrix(0.921, 0.391, -0.391, 0.921, 156.029, 45.392)"/>
        <path id="Trazado_796" data-name="Trazado 796" d="M0,38.24l39.006,46.3C47.471,93.09,54.57,93.53,62.9,90.074c9.3-3.862,15.19-14.809,13.19-24.683L64.665,13.819,57.164,0,45.674,10.778l-.8,11.663L50.733,63,28.487,32.812A36.146,36.146,0,0,0,18.3,23.452l-6.2-3.806" transform="matrix(0.921, 0.391, -0.391, 0.921, 115.062, 28.699)" fill="#ffc2d6"/>
        <path id="Trazado_797" data-name="Trazado 797" d="M1.066,38.421l1.673,1.985L7.15,45.642l6.238,7.4,7.153,8.489,7.184,8.526,6.243,7.41,4.42,5.246c.56.665,1.1,1.356,1.685,2a27.137,27.137,0,0,0,3.82,3.385,23.393,23.393,0,0,0,3.746,2.325,15.971,15.971,0,0,0,7.219,1.661,21.861,21.861,0,0,0,7.433-1.581A21,21,0,0,0,68.91,86.54,22.965,22.965,0,0,0,76.243,72.9a21.052,21.052,0,0,0-.373-7.671l-1.261-5.692q-1.015-4.584-2.031-9.167l-2.4-10.84-2.369-10.7L65.873,20.1q-.549-2.478-1.1-4.957c-.031-.143-.079-.291-.1-.436-.027-.22.12.183,0-.014-.523-.86-.966-1.78-1.446-2.665L58.254,2.856,57.224.958l1.006.129L54.354,4.723l-6.185,5.8-1.43,1.342.188-.453q-.383,5.6-.766,11.2a1.965,1.965,0,0,1-.032.464c.014-.007-.041-.283-.008-.065.043.29.084.58.125.869q.288,1.988.574,3.977.969,6.709,1.938,13.417l2.076,14.378c.371,2.566.746,5.133,1.112,7.7l.016.113a.644.644,0,0,1-1.171.493l-3.771-5.116-8.1-10.99L31.213,37.387A71.241,71.241,0,0,0,25.8,30.5a37.369,37.369,0,0,0-7.658-6.13l-5.312-3.259-.445-.273c-.7-.43-.059-1.539.647-1.106,3.882,2.383,7.941,4.605,11.368,7.635a38.056,38.056,0,0,1,5.412,5.978l1.76,2.388,7.317,9.928L47.25,57l3.065,4.159c.5.679,1.068,1.344,1.517,2.059.02.031.045.061.067.091l-1.171.494q-.21-1.457-.421-2.914-.525-3.636-1.05-7.272l-1.38-9.557q-.7-4.816-1.391-9.632l-1.105-7.655c-.168-1.161-.34-2.323-.5-3.485a8.031,8.031,0,0,1,.069-1.631l.308-4.5q.151-2.206.3-4.412c.037-.542-.06-1.434.348-1.848,1.659-1.683,3.461-3.246,5.184-4.863L56.973.511l.351-.329a.648.648,0,0,1,1.006.13L61.909,6.9l2.568,4.732c.444.818.923,1.626,1.336,2.461a3.294,3.294,0,0,1,.211.766l.437,1.974,1.605,7.248,2.246,10.14,2.456,11.086,2.261,10.207q.827,3.734,1.654,7.468c.221,1,.462,1.991.66,2.993A22.761,22.761,0,0,1,74.593,81.5a23.771,23.771,0,0,1-5.108,6.239,22.722,22.722,0,0,1-6.854,4.007,23.054,23.054,0,0,1-7.6,1.624,17.249,17.249,0,0,1-7.454-1.558,27.488,27.488,0,0,1-7.656-5.441,15.271,15.271,0,0,1-1.12-1.178l-3.088-3.664-5.429-6.444L23.44,66.958l-7.325-8.694L9.241,50.105,3.736,43.571.577,39.822l-.417-.5c-.528-.627.374-1.537.906-.906" transform="matrix(0.921, 0.391, -0.391, 0.921, 114.746, 27.875)"/>
        <path id="Trazado_798" data-name="Trazado 798" d="M1.4,43.388,0,31.479,4.129,16.447S9.4,10.986.033,2.727C7.85-4.626,20.857,4.28,20.045,13.007c-.331,3.56-.457,6.564-.489,8.874a39.6,39.6,0,0,0,.87,8.837l.912,4.266" transform="matrix(0.921, 0.391, -0.391, 0.921, 163.195, 26.592)" fill="#ffc2d6"/>
        <path id="Trazado_799" data-name="Trazado 799" d="M1.4,44.01q-.5-4.262-1-8.523L.129,33.226A10.86,10.86,0,0,1,0,32.129,2.386,2.386,0,0,1,.14,31.5l.421-1.533,2.832-10.31c.249-.9.453-1.838.75-2.729a1.023,1.023,0,0,1,.2-.332c.041-.05.193-.236.119-.141s.052-.073.08-.112q.078-.111.15-.225a6.2,6.2,0,0,0,.32-.573c.028-.058.056-.117.083-.175.018-.039.09-.21.026-.055q.083-.2.154-.409a6.721,6.721,0,0,0,.24-.917c.016-.087.031-.174.043-.261-.019.131.012-.105.015-.132q.029-.287.035-.575a7.39,7.39,0,0,0-.067-1.135A12.253,12.253,0,0,0,2.1,5.625C1.5,4.985.872,4.382.218,3.8a.646.646,0,0,1,0-.906A10.811,10.811,0,0,1,9.457.151a15.023,15.023,0,0,1,8.374,4.614,11.983,11.983,0,0,1,3.522,8.4c-.043,1.146-.192,2.294-.271,3.438q-.113,1.659-.179,3.32a51.9,51.9,0,0,0,.087,6.7,74.3,74.3,0,0,0,1.6,8.811c.172.8-1.063,1.148-1.235.341-.461-2.157-.985-4.313-1.322-6.494A58.646,58.646,0,0,1,19.845,16a16.419,16.419,0,0,0-.007-5.147,11.287,11.287,0,0,0-1.9-3.976,14.125,14.125,0,0,0-7.274-5.141,10.466,10.466,0,0,0-4.91-.319A9.357,9.357,0,0,0,1.124,3.8V2.9c2.516,2.231,5.046,5.1,5.629,8.53a7.64,7.64,0,0,1-.871,5.187,4.983,4.983,0,0,1-.663.909l.165-.283L2.2,28.82l-.741,2.7c-.059.215-.109.434-.178.646-.081.25-.045-.183,0,.028a19.667,19.667,0,0,1,.246,2.09q.217,1.846.435,3.692.356,3.018.711,6.037a.644.644,0,0,1-.641.641A.656.656,0,0,1,1.4,44.01" transform="matrix(0.921, 0.391, -0.391, 0.921, 162.852, 25.77)"/>
        <path id="Trazado_800" data-name="Trazado 800" d="M16.08,13.323S10.751,4.38,4.075.8C-.1-1.36-1.474,1.226,1.881,4.263,3.673,5.884,8.025,10.41,9.509,14.311" transform="matrix(0.921, 0.391, -0.391, 0.921, 167.234, 19.43)" fill="#ffc2d6"/>
        <path id="Trazado_801" data-name="Trazado 801" d="M16.173,14.282c-.653-1.095-1.393-2.144-2.149-3.169a40.684,40.684,0,0,0-5.52-6.177A22.174,22.174,0,0,0,4.992,2.319a7.962,7.962,0,0,0-2.181-.949A3.109,3.109,0,0,0,2,1.278a1.531,1.531,0,0,0-.486.115c-.149.076-.117.047-.2.223.068-.144-.04.227-.021.078a1.279,1.279,0,0,0,0,.333,3.582,3.582,0,0,0,.725,1.413C2.8,4.425,3.834,5.228,4.7,6.133a27.3,27.3,0,0,1,6.072,8.644.646.646,0,0,1-.448.788.654.654,0,0,1-.788-.448,18.71,18.71,0,0,0-2.5-4.274A39.005,39.005,0,0,0,3.868,7.115c-.918-.962-2-1.814-2.824-2.86C.34,3.357-.411,1.991.264.87.954-.276,2.573-.08,3.645.278A14.907,14.907,0,0,1,7.968,2.822a36.778,36.778,0,0,1,6.3,6.512,43.041,43.041,0,0,1,3.008,4.3.641.641,0,0,1-1.106.647" transform="matrix(0.921, 0.391, -0.391, 0.921, 166.888, 18.591)"/>
        <path id="Trazado_802" data-name="Trazado 802" d="M16.08,13.323S10.751,4.38,4.075.8C-.1-1.36-1.474,1.226,1.881,4.263,3.673,5.884,8.025,10.41,9.509,14.311" transform="matrix(0.921, 0.391, -0.391, 0.921, 163.476, 18.994)" fill="#ffc2d6"/>
        <path id="Trazado_803" data-name="Trazado 803" d="M16.173,14.282c-.653-1.095-1.393-2.144-2.148-3.169a40.7,40.7,0,0,0-5.52-6.177A22.174,22.174,0,0,0,4.992,2.319a7.962,7.962,0,0,0-2.181-.949A3.109,3.109,0,0,0,2,1.278a1.532,1.532,0,0,0-.486.115c-.149.076-.117.047-.2.223.068-.144-.04.227-.021.078a1.279,1.279,0,0,0,0,.333,3.583,3.583,0,0,0,.725,1.413C2.8,4.425,3.834,5.228,4.7,6.133a27.3,27.3,0,0,1,6.072,8.644.646.646,0,0,1-.447.788.654.654,0,0,1-.788-.448,18.71,18.71,0,0,0-2.5-4.274,39.005,39.005,0,0,0-3.17-3.728c-.918-.962-2-1.814-2.824-2.86C.34,3.357-.411,1.991.264.87.954-.276,2.573-.08,3.645.278A14.906,14.906,0,0,1,7.968,2.822a36.777,36.777,0,0,1,6.3,6.512,43.026,43.026,0,0,1,3.008,4.3.641.641,0,0,1-1.106.647" transform="matrix(0.921, 0.391, -0.391, 0.921, 163.13, 18.156)"/>
        <path id="Trazado_804" data-name="Trazado 804" d="M16.08,13.323S10.751,4.38,4.075.8C-.1-1.36-1.474,1.226,1.881,4.263,3.673,5.884,8.025,10.41,9.509,14.311" transform="matrix(0.921, 0.391, -0.391, 0.921, 159.67, 20.858)" fill="#ffc2d6"/>
        <path id="Trazado_805" data-name="Trazado 805" d="M16.173,14.282c-.653-1.095-1.393-2.144-2.148-3.169a40.7,40.7,0,0,0-5.52-6.177A22.17,22.17,0,0,0,4.992,2.319a7.961,7.961,0,0,0-2.181-.949A3.109,3.109,0,0,0,2,1.278a1.531,1.531,0,0,0-.486.115c-.149.076-.117.047-.2.223.068-.144-.04.227-.021.078a1.279,1.279,0,0,0,0,.333,3.582,3.582,0,0,0,.725,1.413C2.8,4.425,3.834,5.228,4.7,6.133a27.3,27.3,0,0,1,6.072,8.644.646.646,0,0,1-.448.788.654.654,0,0,1-.788-.448,18.713,18.713,0,0,0-2.5-4.274,39.01,39.01,0,0,0-3.17-3.728c-.918-.962-2-1.814-2.824-2.86C.34,3.357-.411,1.991.264.87.954-.276,2.573-.08,3.645.278A14.908,14.908,0,0,1,7.968,2.822a36.778,36.778,0,0,1,6.3,6.512,43.03,43.03,0,0,1,3.008,4.3.641.641,0,0,1-1.106.647" transform="matrix(0.921, 0.391, -0.391, 0.921, 159.324, 20.019)"/>
        <path id="Trazado_806" data-name="Trazado 806" d="M14.407,13.97S10.378,5.323,4.1,1.074C.175-1.5-1.46.934,1.567,4.3a65.878,65.878,0,0,1,5.246,6.852A11.8,11.8,0,0,1,8.238,21.318L7.123,24.8a11.823,11.823,0,0,0-.409,5.5l2.41,14.8" transform="matrix(0.921, 0.391, -0.391, 0.921, 156.828, 21.806)" fill="#ffc2d6"/>
        <path id="Trazado_807" data-name="Trazado 807" d="M14.5,14.919A34.6,34.6,0,0,0,12.7,11.625,36.651,36.651,0,0,0,7.747,5.091,19.641,19.641,0,0,0,4.3,2.171a5.562,5.562,0,0,0-2-.878,1.982,1.982,0,0,0-.252-.026c-.062,0-.316.015-.268.007a.6.6,0,0,0-.358.157c-.022.023-.06.09-.008,0a.975.975,0,0,0-.073.123c-.043.1.054-.143-.013.039a.89.89,0,0,0-.03.12c.018-.089-.007.147-.006.2a1.178,1.178,0,0,0,.046.327,4.771,4.771,0,0,0,.9,1.723c.509.663,1.1,1.267,1.633,1.913q.9,1.087,1.741,2.213a30.634,30.634,0,0,1,3.168,4.69,12.573,12.573,0,0,1,1.3,5.076A20.01,20.01,0,0,1,8.645,24.8a14.464,14.464,0,0,0-.769,3.434,12.272,12.272,0,0,0,.149,2.81l.681,4.181,1.649,10.127c.012.07.023.141.034.211a.662.662,0,0,1-.447.788.645.645,0,0,1-.788-.448l-1.5-9.239-.8-4.911c-.082-.5-.168-1.005-.22-1.512a12.588,12.588,0,0,1,.559-5.092,26.762,26.762,0,0,0,1.588-5.921,11.322,11.322,0,0,0-.824-5.2,23.584,23.584,0,0,0-3.077-4.8Q3.993,8.036,3.056,6.889C2.5,6.214,1.9,5.579,1.356,4.9.59,3.93-.288,2.551.091,1.254A2.075,2.075,0,0,1,2.73.076,10.014,10.014,0,0,1,6.818,2.469,32.241,32.241,0,0,1,12.7,9.249a41.305,41.305,0,0,1,2.8,4.782c.039.08.079.161.117.241.347.743-.757,1.394-1.106.647" transform="matrix(0.921, 0.391, -0.391, 0.921, 156.476, 20.977)"/>
        <line id="Línea_27" data-name="Línea 27" x2="1.69" y2="11.492" transform="matrix(0.921, 0.391, -0.391, 0.921, 138.416, 101.703)" fill="#a8542a"/>
        <path id="Trazado_808" data-name="Trazado 808" d="M1.245.468l1.48,10.066.21,1.425a.663.663,0,0,1-.448.788A.644.644,0,0,1,1.7,12.3Q.96,7.267.22,2.233.115,1.521.01.808A.663.663,0,0,1,.457.021a.645.645,0,0,1,.788.447" transform="matrix(0.921, 0.391, -0.391, 0.921, 138.088, 100.87)"/>
        <path id="Trazado_809" data-name="Trazado 809" d="M13.738,0l6.2,3.806A36.134,36.134,0,0,1,30.13,13.167L44.353,33.339,37.3,6.949,47.441,9.18a70.407,70.407,0,0,0,10.6-.98,69.187,69.187,0,0,0,10.8-2.595l8.891,40.14c2,9.874-3.886,20.821-13.191,24.683-8.328,3.457-18.476,2.379-26.94-6.176L0,21.247Z" transform="matrix(0.921, 0.391, -0.391, 0.921, 105.874, 46.141)" fill="#ffcc3e"/>
        <path id="Trazado_810" data-name="Trazado 810" d="M14.7.1q3.132,1.922,6.263,3.844A36.25,36.25,0,0,1,31.534,13.8l4.193,5.946,6.117,8.675,2.42,3.432c.4.574.868,1.136,1.227,1.74.016.027.036.051.054.077l-1.171.493-2.394-8.95-3.79-14.171L37.318,7.77a.647.647,0,0,1,.788-.788L46,8.718l1.776.391a4.931,4.931,0,0,0,1.47.061A71.237,71.237,0,0,0,59,8.153,67.138,67.138,0,0,0,69.309,5.64a.645.645,0,0,1,.788.447l1.548,6.99,3.3,14.913q1.538,6.941,3.075,13.883c.708,3.2,1.53,6.311,1.345,9.629A23.848,23.848,0,0,1,67.908,70.437,21.555,21.555,0,0,1,65.351,71.7l.283-.165a2.262,2.262,0,0,1-.755.355q-.422.165-.849.314-.828.289-1.675.518a24.732,24.732,0,0,1-3.509.673,23.361,23.361,0,0,1-7.2-.269,24.456,24.456,0,0,1-7.209-2.655,27.07,27.07,0,0,1-6.653-5.113c-.538-.58-1.044-1.194-1.565-1.789l-4.075-4.66L26.4,52.329l-6.64-7.594-6.73-7.7L7.006,30.151,2.492,24.988c-.737-.843-1.48-1.68-2.211-2.528l-.095-.108a.657.657,0,0,1-.1-.776l4.636-7.171,7.4-11.439L13.825.328c.446-.69,1.556-.049,1.106.647L10.3,8.145,2.9,19.584,1.193,22.222l-.1-.776,1.494,1.709,3.964,4.533L12.2,34.154l6.562,7.506,6.692,7.654L31.5,56.225,36.114,61.5l2.4,2.75a21.091,21.091,0,0,0,2.389,2.239,25.608,25.608,0,0,0,6.9,4.174,22.525,22.525,0,0,0,13.988.88,24.848,24.848,0,0,0,3.215-1.081l-.283.165a4.773,4.773,0,0,1,1.2-.581q.682-.332,1.338-.715a20,20,0,0,0,2.276-1.542,22.123,22.123,0,0,0,3.9-3.959,23.087,23.087,0,0,0,4.438-10.3,19.467,19.467,0,0,0-.181-7.243l-.7-3.164L74.063,29.909l-3.34-15.077L69.5,9.311c-.2-.913-.463-1.834-.611-2.758-.007-.042-.018-.083-.027-.125l.788.448a65.593,65.593,0,0,1-9.193,2.316A77.422,77.422,0,0,1,50.393,10.4a10.372,10.372,0,0,1-2.656.007L46.309,10.1,41.274,8.99l-3.509-.772.788-.788,2.393,8.95,3.79,14.171.874,3.269a.644.644,0,0,1-1.171.494l-3-4.249-6.022-8.54-4.694-6.657a35.588,35.588,0,0,0-8.57-8.606c-2.517-1.771-5.228-3.292-7.849-4.9L14.055,1.2C13.354.774,14-.334,14.7.1" transform="matrix(0.921, 0.391, -0.391, 0.921, 105.54, 45.291)"/>
        <path id="Trazado_811" data-name="Trazado 811" d="M.007,4.21C-.207,2.9,4.614,1.452,9.071,0l.915,6.339C5.366,6.37.219,5.507.007,4.21" transform="matrix(0.921, 0.391, -0.391, 0.921, 139.241, 63.391)"/>
        <path id="Trazado_812" data-name="Trazado 812" d="M.007,4.852A1.706,1.706,0,0,1,.856,3.417,9.612,9.612,0,0,1,2.977,2.3C5.112,1.4,7.342.74,9.541.024a.643.643,0,0,1,.788.448l.915,6.339a.652.652,0,0,1-.618.811A33.754,33.754,0,0,1,3.639,7a10.405,10.405,0,0,1-2.422-.757A1.971,1.971,0,0,1,.03,5.022c-.164-.8,1.071-1.149,1.235-.341.006.03.029.183-.013.007.011.047.1.122,0,.026.052.05.172.171.175.173a3.663,3.663,0,0,0,.619.328,11.713,11.713,0,0,0,2.287.616,33.123,33.123,0,0,0,6.294.509l-.617.811L9.094.812l.788.447C7.877,1.912,5.853,2.527,3.89,3.3a12.331,12.331,0,0,0-1.995.951,2.132,2.132,0,0,0-.555.439c.037-.042-.106.113-.082.135-.015-.013.046-.05.026-.1a.717.717,0,0,1,0,.13.644.644,0,0,1-.641.641.656.656,0,0,1-.641-.641" transform="matrix(0.921, 0.391, -0.391, 0.921, 138.902, 62.55)"/>
        <path id="Trazado_813" data-name="Trazado 813" d="M781.666,251.2s-8.964-3.419-12.75.631,7.255,12.376,7.255,12.376" transform="translate(-719.737 -166.281)"/>
        <path id="Trazado_814" data-name="Trazado 814" d="M780.305,250.541a21.983,21.983,0,0,0-4.277-1.1c-2.335-.378-5.115-.469-7.143.947a3.664,3.664,0,0,0-.993,1,1.516,1.516,0,0,0-.206.447c-.03.095-.051.19-.074.286a.483.483,0,0,0-.029.212,4.365,4.365,0,0,0,.008.578.7.7,0,0,0,.03.2c.026.128.053.255.087.381a5.732,5.732,0,0,0,.478,1.216,19.424,19.424,0,0,0,4.03,4.993q1.069,1.024,2.211,1.969.357.3.721.585c.1.08.232.18.081.064l.074.056a.662.662,0,0,1,.23.876.644.644,0,0,1-.876.23A37.41,37.41,0,0,1,771.724,261a22.547,22.547,0,0,1-4.467-5.312c-.982-1.759-1.491-3.957.015-5.586,1.9-2.059,5.013-2.342,7.643-2.089a22.271,22.271,0,0,1,5.731,1.294c.763.29.432,1.529-.34,1.235" transform="translate(-718.547 -165.005)"/>
        <path id="Trazado_815" data-name="Trazado 815" d="M759.21,179.587a58.161,58.161,0,0,1,11.714-8.265l3.263,3.592,11.875,13.068-25.447,1.893-.738-.681-5.468-5.045c1.428-1.482,3.044-3.024,4.8-4.562" transform="translate(-719.546 -114.018)" fill="#a8542a"/>
        <path id="Trazado_816" data-name="Trazado 816" d="M757.5,177.874a77.734,77.734,0,0,1,6.4-5.056,39.995,39.995,0,0,1,5.447-3.309.659.659,0,0,1,.776.1l4.745,5.222,8.111,8.926,2.282,2.512a.649.649,0,0,1-.453,1.093l-4.325.322-9.314.693-8.782.654-2.516.187c-.159.012-.323.037-.483.036-.468,0-.892-.567-1.214-.864l-5.281-4.872-.19-.176a.65.65,0,0,1,0-.906c1.535-1.589,3.141-3.106,4.8-4.562.617-.542,1.527.361.906.906-1.66,1.457-3.266,2.973-4.8,4.562v-.906l5.278,4.869.928.857-.453-.188,8.622-.642,13.686-1.018,3.138-.233-.453,1.093-5.909-6.5-5.965-6.565-3.264-3.592.776.1a54.184,54.184,0,0,0-11.585,8.165c-.619.541-1.528-.362-.906-.906" transform="translate(-718.293 -112.758)"/>
        <path id="Trazado_817" data-name="Trazado 817" d="M598.195,167.5c23.734,12.546,48.236,28.174,48.236,28.174l20.355-50.4a6.708,6.708,0,0,0-2.209-8.722L650.8,138.973,645.738,124.9c-3.068-1.9-5.456-1.623-9.56,2.064,0,0-27.345,26.457-37.983,40.544" transform="translate(-548.77 -82.351)" fill="#ffcc3e"/>
        <path id="Trazado_818" data-name="Trazado 818" d="M668.646,158.561l-2.3,5.8a8.541,8.541,0,0,1-6.258,15.768l-8.713,21.955s-21.722-13.449-48.236-28.174c10.639-14.086,37.983-40.544,37.983-40.544" transform="translate(-553.713 -88.758)" fill="#ffcc3e"/>
        <path id="Trazado_819" data-name="Trazado 819" d="M667.992,157.465l-2.3,5.8-.294-.723a9.182,9.182,0,0,1-6.752,16.939l.788-.447-2.961,7.461-4.678,11.788-1.074,2.706a.65.65,0,0,1-.941.383q-1.178-.729-2.362-1.45-3.263-1.993-6.541-3.962-5-3.006-10.027-5.969-6.347-3.743-12.734-7.418-7.314-4.209-14.682-8.323l-1.889-1.052a.643.643,0,0,1-.23-.876c2.469-3.266,5.139-6.379,7.856-9.441,3.156-3.556,6.4-7.038,9.673-10.482q4.734-4.975,9.57-9.852,3.723-3.764,7.493-7.481c1.141-1.125,2.255-2.3,3.443-3.371.016-.015.032-.031.048-.046.593-.574,1.5.331.906.906q-1.4,1.354-2.785,2.723-3.549,3.49-7.055,7.022-4.747,4.779-9.411,9.64c-3.295,3.44-6.554,6.916-9.737,10.46-2.8,3.119-5.565,6.285-8.145,9.592-.252.323-.5.646-.75.977l-.23-.876q7.463,4.146,14.868,8.4,6.5,3.727,12.956,7.525,5.219,3.069,10.412,6.183,3.53,2.117,7.044,4.258,1.008.615,2.015,1.233a8.5,8.5,0,0,1,.9.556.375.375,0,0,0,.037.023l-.941.383,2.961-7.461,4.678-11.789,1.074-2.705a.658.658,0,0,1,.788-.448,7.9,7.9,0,0,0,9.229-10.9,8.106,8.106,0,0,0-3.464-3.7.644.644,0,0,1-.294-.723l2.3-5.8a.66.66,0,0,1,.788-.448.645.645,0,0,1,.447.788" transform="translate(-552.441 -87.492)"/>
        <path id="Trazado_820" data-name="Trazado 820" d="M644.876,235.976,694.021,266.4a3.658,3.658,0,0,0,5.036-1.185l.082-.133a3.658,3.658,0,0,0-1.185-5.036L648.81,229.622a3.658,3.658,0,0,0-5.036,1.185l-.082.133a3.658,3.658,0,0,0,1.185,5.036" transform="translate(-595.955 -152.453)" fill="#ffc41f"/>
        <path id="Trazado_821" data-name="Trazado 821" d="M643.939,234.177l1.555.963,4.166,2.579,6.1,3.779,7.314,4.528,7.776,4.814,7.6,4.7,6.671,4.13,5.013,3.1,2.69,1.665a3.8,3.8,0,0,0,1.384.586,3.175,3.175,0,0,0,3.564-3.41,3.091,3.091,0,0,0-1.513-2.331l-.8-.492-3.612-2.236-5.678-3.515-7.084-4.386-7.756-4.8-7.68-4.755-6.964-4.311-5.5-3.4-3.309-2.049c-.209-.129-.417-.261-.627-.388a3.056,3.056,0,0,0-3.831.467,3.1,3.1,0,0,0,.511,4.76c.692.444.05,1.553-.647,1.106a4.38,4.38,0,0,1,4.167-7.681,18.487,18.487,0,0,1,1.915,1.151l4.243,2.627,6.265,3.879,7.477,4.629,7.959,4.927,7.72,4.779,6.657,4.121,4.877,3.019q1.174.727,2.347,1.453a4.406,4.406,0,0,1,2.04,2.77,4.511,4.511,0,0,1-2.947,5.175,4.373,4.373,0,0,1-3.659-.477c-.257-.158-.512-.317-.768-.476l-3.664-2.268-5.826-3.606-7.244-4.485-7.946-4.919-7.821-4.842-6.978-4.32-5.4-3.344-3.02-1.87-.393-.243c-.7-.433-.057-1.542.647-1.106" transform="translate(-594.695 -151.208)"/>
        <path id="Trazado_822" data-name="Trazado 822" d="M731.154,81.959c-.225-.095-3.591-2.213-5.779-3.581-1.192-.746-6.164-4.156-7.487-4.632L662.319,55.234a15.64,15.64,0,0,0-17.414,2.314l6.4,17.412,52.676,24.584" transform="translate(-628.011 -35.657)" fill="#ffcc3e"/>
        <path id="Trazado_823" data-name="Trazado 823" d="M729.58,81.26a17.946,17.946,0,0,1-1.913-1.163q-1.693-1.054-3.381-2.114c-1.633-1.022-3.22-2.114-4.846-3.148-.822-.522-1.648-1.05-2.512-1.5-.14-.073-.281-.144-.425-.208-.024-.01.091.03-.041-.014l-.066-.022c-.351-.115-.7-.233-1.051-.35l-5.312-1.769L701.6,68.158l-10.179-3.391-10.536-3.51-9.508-3.168-7.1-2.364c-1.1-.366-2.207-.712-3.3-1.1-.45-.159-.867-.4-1.311-.578a15,15,0,0,0-15.564,2.7l.165-.623,2.162,5.881,3.447,9.376.792,2.154-.294-.383,5.27,2.459,12.57,5.866L683.41,88.57,696.6,94.727l4.3,2.007c.684.319,1.395.608,2.062.962.028.015.059.027.088.041.746.349.1,1.453-.647,1.106L700,97.721l-6.313-2.946-8.86-4.135L674.78,85.95,664.9,81.341l-8.344-3.894L651.107,74.9c-.406-.19-.818-.371-1.22-.57a1.346,1.346,0,0,1-.6-.878l-3.03-8.243-3.039-8.267-.176-.479a.624.624,0,0,1,.165-.623,16.415,16.415,0,0,1,16.061-3.305c.875.3,1.541.681,2.358.953l1.583.527,6.189,2.062,9.038,3.011L688.9,62.579l10.488,3.494,9.087,3.027,6.27,2.089a19.089,19.089,0,0,1,2.8,1.021,60.636,60.636,0,0,1,5.321,3.328c1.81,1.195,3.653,2.336,5.495,3.481a17.491,17.491,0,0,0,1.865,1.134.646.646,0,0,1,.23.876.655.655,0,0,1-.876.23" transform="translate(-626.76 -34.405)"/>
        <path id="Trazado_824" data-name="Trazado 824" d="M777.023,79.567l34.485,37.952-25.447,1.893L758.9,94.352a20.845,20.845,0,0,1,2.987-28.906" transform="translate(-744.992 -43.556)" fill="#ffc2d6"/>
        <path id="Trazado_825" data-name="Trazado 825" d="M776.227,77.875l3.444,3.79,8.211,9.037,9.986,10.99,8.587,9.45c1.4,1.54,2.831,3.055,4.2,4.622l.058.064a.649.649,0,0,1-.453,1.093l-5.468.407-10.957.815-8.272.615c-.463.034-.882.148-1.261-.186-.41-.362-.805-.743-1.207-1.114L777.18,112l-8.15-7.518-7.578-6.992-4.1-3.787a4.542,4.542,0,0,1-.556-.672,21.918,21.918,0,0,1-2.178-3.629,21.279,21.279,0,0,1,2.774-22.749,24.329,24.329,0,0,1,2.8-2.9c.613-.548,1.523.356.906.906a21.627,21.627,0,0,0-6.078,8.728,19.963,19.963,0,0,0-.924,10.208,20.239,20.239,0,0,0,1.556,5,21.577,21.577,0,0,0,1.34,2.455q.349.552.731,1.083a5.649,5.649,0,0,0,.412.556c-.044-.048-.026-.034-.016-.023.49.509,1.049.967,1.568,1.446l8.748,8.071,10.734,9.9,4.008,3.7c.666.615,1.379,1.2,2.011,1.855.027.028.058.054.088.081l-.453-.188,8.622-.642,13.686-1.018,3.138-.233-.453,1.093-3.444-3.79-8.211-9.037-9.986-10.989-8.587-9.45c-1.4-1.539-2.83-3.055-4.2-4.621l-.058-.064c-.553-.609.35-1.518.906-.906" transform="translate(-743.743 -42.316)"/>
        <path id="Trazado_826" data-name="Trazado 826" d="M743.454,195.721l17.168,18.233a3.275,3.275,0,0,1-3.092,5.455c-1.3-.3-3.931-1.995-5.823-3.316,0,0-8.471,10.167-14.9,19.461-11.331-2.958-9.239-7.975-3.3-20.81l-9.847-10.583" transform="translate(-684.74 -130.256)" fill="#ffc2d6"/>
        <path id="Trazado_827" data-name="Trazado 827" d="M742.626,193.973l2.967,3.151,6.332,6.725,5.935,6.3c1.173,1.246,2.82,2.563,3.016,4.363a3.985,3.985,0,0,1-3.068,4.251,4.642,4.642,0,0,1-2.91-.479,25.571,25.571,0,0,1-3.187-1.847q-.813-.531-1.609-1.088l.776-.1c-3.59,4.309-7.051,8.733-10.4,13.23q-2.247,3.015-4.4,6.1a.664.664,0,0,1-.724.294c-2.955-.776-6.742-1.966-8.08-5.03-1.275-2.921-.018-6.372,1.066-9.148,1-2.569,2.175-5.071,3.333-7.573l.1.776-7.616-8.185c-.708-.761-1.423-1.516-2.124-2.283l-.107-.115c-.561-.6.343-1.511.906-.906l.586.63,4.066,4.37L732.683,213a.668.668,0,0,1,.1.776c-1,2.152-2,4.3-2.9,6.5a28.487,28.487,0,0,0-1.639,5.017,8.988,8.988,0,0,0-.21,1.95,4.738,4.738,0,0,0,.234,1.626,4.551,4.551,0,0,0,.715,1.371,6.482,6.482,0,0,0,1.28,1.188,16.962,16.962,0,0,0,5.435,2.217l-.723.294c4.339-6.268,9.033-12.3,13.854-18.2.38-.465.76-.929,1.144-1.39a.641.641,0,0,1,.776-.1c1.022.713,2.059,1.4,3.131,2.04a8.809,8.809,0,0,0,2.643,1.235,2.66,2.66,0,0,0,3.092-2.734,3.061,3.061,0,0,0-1.032-2l-1.593-1.691-5.659-6.011-6.212-6.6c-1.116-1.185-2.268-2.345-3.352-3.56-.016-.018-.032-.034-.049-.052-.565-.6.339-1.508.906-.906" transform="translate(-683.458 -128.962)"/>
        <path id="Trazado_828" data-name="Trazado 828" d="M815.6,224.507c-1.553,2.384-2.166,8.744-2.935,13.477s-5.733,4.24-6.191-.741c-.438-5.728,2.724-11.38,3.913-14.294.479-1.175-.991-2.8-1.949-3.821l-9.375-9.931" transform="translate(-764.022 -139.225)" fill="#ffc2d6"/>
        <path id="Trazado_829" data-name="Trazado 829" d="M814.824,223.536a9.353,9.353,0,0,0-1.042,2.657c-.335,1.254-.573,2.533-.788,3.812-.234,1.4-.434,2.8-.639,4.2a18.4,18.4,0,0,1-.69,3.763c-.628,1.681-2.185,3.038-4.072,2.539-2.051-.542-2.966-2.782-3.1-4.709a21.271,21.271,0,0,1,1.585-8.791c.46-1.231.985-2.436,1.525-3.635.218-.485.439-.97.652-1.458a1.518,1.518,0,0,0,.172-1.2,9.119,9.119,0,0,0-2.363-3.064l-2.9-3.075c-1.922-2.036-3.864-4.054-5.766-6.109l-.115-.122c-.566-.6.339-1.506.906-.906l4.831,5.118c1.641,1.738,3.315,3.451,4.922,5.222a5.816,5.816,0,0,1,1.847,3.262,3.231,3.231,0,0,1-.408,1.474c-.211.485-.43.967-.648,1.45a35.544,35.544,0,0,0-2.657,7.624,15.345,15.345,0,0,0-.284,4.408,4.423,4.423,0,0,0,1.03,2.569,2.407,2.407,0,0,0,.847.616,2.052,2.052,0,0,0,.818.142,1.8,1.8,0,0,0,.823-.258,2.322,2.322,0,0,0,.718-.683,6.983,6.983,0,0,0,.874-3.047c.208-1.371.4-2.745.608-4.116a31.557,31.557,0,0,1,1.612-7.14,7.355,7.355,0,0,1,.6-1.2c.442-.693,1.552-.051,1.106.647" transform="translate(-762.692 -137.931)"/>
        <path id="Trazado_830" data-name="Trazado 830" d="M789.7,248.609s-5.746,8.676-6.1,16.269c-.143,4.708,4.55,5.7,5.836,1.349s3.4-10.812,5.159-12.878" transform="translate(-737.851 -165.454)" fill="#ffc2d6"/>
        <path id="Trazado_831" data-name="Trazado 831" d="M789.052,247.706a41.424,41.424,0,0,0-2.375,4.182,35.456,35.456,0,0,0-3.3,9.1,8.612,8.612,0,0,0-.06,4.529,2.772,2.772,0,0,0,.816,1.188,1.936,1.936,0,0,0,1.055.429,1.861,1.861,0,0,0,1.132-.317,3.087,3.087,0,0,0,1-1.207,13.175,13.175,0,0,0,.7-2.118q.368-1.2.759-2.4c.611-1.868,1.264-3.725,2.029-5.536a14.98,14.98,0,0,1,2.134-3.884c.531-.632,1.433.278.906.906a14.316,14.316,0,0,0-1.888,3.516c-.7,1.665-1.3,3.376-1.864,5.092q-.426,1.291-.822,2.591a17.65,17.65,0,0,1-.785,2.348,3.792,3.792,0,0,1-2.733,2.254,3.229,3.229,0,0,1-3.052-1.333,5.966,5.966,0,0,1-.882-4.249,31.413,31.413,0,0,1,3.062-10.145,43.28,43.28,0,0,1,3.059-5.59c.453-.685,1.563-.044,1.106.647" transform="translate(-736.647 -164.228)"/>
        <path id="Trazado_832" data-name="Trazado 832" d="M778.9,255.054s-6.076,8.453-6.7,16c-.313,4.685,4.356,5.824,5.8,1.537s4.149-11.608,5.992-13.608" transform="translate(-723.42 -169.744)" fill="#ffc2d6"/>
        <path id="Trazado_833" data-name="Trazado 833" d="M778.222,254.109a41.893,41.893,0,0,0-2.683,4.361,33.323,33.323,0,0,0-3.68,9.539c-.263,1.365-.526,2.953.2,4.225a2.247,2.247,0,0,0,1.02.972,1.807,1.807,0,0,0,1.144.1c1.12-.286,1.689-1.447,2.055-2.522q.788-2.311,1.653-4.6c.68-1.786,1.4-3.564,2.21-5.294a14.489,14.489,0,0,1,2.167-3.627c.555-.612,1.459.3.906.906a13.937,13.937,0,0,0-1.92,3.269c-.753,1.587-1.412,3.217-2.04,4.856q-.918,2.4-1.741,4.826a4.9,4.9,0,0,1-2.612,3.3,3.12,3.12,0,0,1-3.219-.63,4.915,4.915,0,0,1-1.357-4.006,28.354,28.354,0,0,1,3.339-10.507,43.481,43.481,0,0,1,3.45-5.822.66.66,0,0,1,.876-.23.645.645,0,0,1,.23.876" transform="translate(-722.191 -168.475)"/>
        <path id="Trazado_834" data-name="Trazado 834" d="M765.485,252.167s-8.712,13.251-10.993,20.4c-1.747,6.319-9.791,2.1,2.514-17.656" transform="translate(-697.593 -167.822)" fill="#ffc2d6"/>
        <path id="Trazado_835" data-name="Trazado 835" d="M764.71,251.263c-1.571,2.39-3.063,4.834-4.512,7.3-1.254,2.134-2.467,4.293-3.6,6.5a45.676,45.676,0,0,0-2.695,6.073,6.707,6.707,0,0,1-1.418,2.787,2.339,2.339,0,0,1-2.129.736,2.514,2.514,0,0,1-1.658-1.667,7.583,7.583,0,0,1-.318-3.475,22.913,22.913,0,0,1,1.433-5.729,53.762,53.762,0,0,1,3.905-8.084q.681-1.179,1.4-2.334c.434-.7,1.543-.057,1.106.646a64.291,64.291,0,0,0-4.481,8.377,28.134,28.134,0,0,0-1.92,5.993,11.9,11.9,0,0,0-.22,2.1,8.683,8.683,0,0,0,.029.87c.006.064.013.128.019.192.017.168-.019-.1.007.06.021.129.043.258.071.386.047.21.115.409.182.613.052.158-.041-.084,0,.009.022.046.042.091.065.136a2.513,2.513,0,0,0,.132.233c.021.034.046.065.067.1.079.127-.078-.086-.013-.016s.109.12.167.178c.024.024.053.044.077.068.052.051-.145-.089-.03-.025.061.034.126.071.187.108.108.067-.11-.033-.046-.019.029.006.058.021.087.029s.06.012.088.022c.135.05-.065,0-.036,0a1.51,1.51,0,0,1,.182.005c.187.011-.113.048.049-.005.06-.019.125-.037.186-.052.168-.042-.11.077.079-.036l.184-.11c.2-.119-.044.06.085-.063s.25-.246.368-.38-.057.082,0,0l.081-.113q.092-.135.174-.277c.051-.089.1-.18.145-.272.024-.048.046-.1.069-.145.012-.024.023-.05.034-.075.061-.133-.054.138,0,0,.09-.229.164-.461.236-.7a39.013,39.013,0,0,1,2.5-5.885c1.075-2.161,2.243-4.277,3.451-6.367,1.6-2.769,3.249-5.526,5.021-8.189l.09-.137c.451-.686,1.561-.045,1.106.647" transform="translate(-696.265 -166.595)"/>
        <path id="Trazado_836" data-name="Trazado 836" d="M590.787,154.323l8.19-8.484a4.253,4.253,0,0,1,4.717-1.079l4.7,2.417c1.99,1.023,3.646,3.825,2.468,5.728l-.308.5-4.833-1.636a7.013,7.013,0,0,0-6.469,1.34l-9.489,6.462" transform="translate(-489.668 -96.116)" fill="#ffcc3e"/>
        <path id="Trazado_837" data-name="Trazado 837" d="M589.031,152.59l7.334-7.6c.285-.3.567-.594.856-.886a5.069,5.069,0,0,1,4.8-1.457,12.851,12.851,0,0,1,2.245,1.075l2.8,1.438a6.656,6.656,0,0,1,2.9,2.742,4.617,4.617,0,0,1,.611,2.639,4.478,4.478,0,0,1-.769,1.9.652.652,0,0,1-.723.294l-4.018-1.36a8.574,8.574,0,0,0-2.02-.512,6.486,6.486,0,0,0-4.18,1.07c-2.4,1.607-4.768,3.286-7.158,4.914l-2.922,1.99c-.683.465-1.325-.645-.647-1.106l7.07-4.814,1.729-1.178.517-.352c.082-.055.186-.133.2-.144a7.771,7.771,0,0,1,7.258-1.268l4.511,1.527-.724.294a3.318,3.318,0,0,0,.6-1.324,3.355,3.355,0,0,0-.473-1.976,5.373,5.373,0,0,0-2.336-2.191c-1.473-.757-2.932-1.552-4.422-2.274a3.619,3.619,0,0,0-3.943.978c-.27.273-.533.553-.8.829l-4.186,4.337-3.2,3.318c-.574.594-1.479-.312-.906-.906" transform="translate(-488.365 -94.836)"/>
        <path id="Trazado_838" data-name="Trazado 838" d="M827.939,67.146l22.468,24.848c-3.1,1.5-12.253,8.922-16.6,12.731-1.757,1.538-5.654,7.28-6.033,10.486L806.144,90.124c-12.286-16.093-5-27.867,4.566-34.791A25.6,25.6,0,0,1,831.1,53.4l.78.256,5.268,1.878" transform="translate(-799.03 -34.69)" fill="#ffcc3e"/>
        <path id="Trazado_839" data-name="Trazado 839" d="M827.138,65.425l2.241,2.478,5.352,5.919,6.5,7.19,5.6,6.192c.911,1.008,1.85,2,2.737,3.027l.039.043a.647.647,0,0,1-.129,1.006,29.047,29.047,0,0,0-4.247,2.777c-1.953,1.428-3.858,2.922-5.743,4.439q-2.743,2.207-5.421,4.5a18.021,18.021,0,0,0-1.857,1.733,24.015,24.015,0,0,0-1.879,2.489,30.142,30.142,0,0,0-2.049,3.517,10.917,10.917,0,0,0-1.123,3.213c-.062.489-.689.922-1.093.453l-2.3-2.67-5.468-6.343L811.841,97.9,806.5,91.7c-.939-1.088-1.9-2.151-2.753-3.312-3.092-4.236-5.533-9.153-5.921-14.453a19.78,19.78,0,0,1,2.906-11.657,30.507,30.507,0,0,1,8.166-8.593,9.979,9.979,0,0,1,1.654-.9c.657-.312,1.328-.6,2.007-.858a25.609,25.609,0,0,1,4.117-1.189,26.227,26.227,0,0,1,8.542-.3,47.71,47.71,0,0,1,9.765,2.827l1.086.387c.771.275.439,1.513-.341,1.235-2.126-.758-4.239-1.571-6.393-2.245a25.163,25.163,0,0,0-16.57.57,14.468,14.468,0,0,0-3.417,1.723q-1.132.844-2.192,1.779a28.765,28.765,0,0,0-3.92,4.155,19.55,19.55,0,0,0-4.148,10.586c-.285,4.837,1.442,9.5,3.938,13.568a27.45,27.45,0,0,0,2.51,3.6l1.213,1.407,4.825,5.6,6.294,7.3,5.774,6.7,3.179,3.688.149.173-1.093.453a16.577,16.577,0,0,1,2.707-6.386,20.853,20.853,0,0,1,3.829-4.829c3.664-3.185,7.443-6.257,11.333-9.161a33.252,33.252,0,0,1,5.084-3.4q-.065.5-.13,1.006L846.46,88.7l-5.352-5.919-6.5-7.19-5.6-6.192c-.911-1.008-1.85-2-2.737-3.027l-.039-.043c-.552-.61.352-1.519.906-.906" transform="translate(-797.775 -33.422)"/>
        <path id="Trazado_840" data-name="Trazado 840" d="M832.475,219.718c-1.1-1.255,1.743-5.639,6.448-10.522l5.44,5.662c-5.742,4.328-10.747,6.164-11.889,4.86" transform="translate(-803.88 -139.224)"/>
        <path id="Trazado_841" data-name="Trazado 841" d="M830.767,218.9c-1.082-1.3.121-3.319.836-4.5a40.892,40.892,0,0,1,5.613-6.933.648.648,0,0,1,.906,0l4.767,4.961.673.7a.652.652,0,0,1-.13,1.006,37.9,37.9,0,0,1-6.38,3.977,10.964,10.964,0,0,1-4.667,1.382,2.206,2.206,0,0,1-1.619-.6c-.556-.607.348-1.516.906-.906.03.033.169.145.02.037a1.663,1.663,0,0,0,.144.09c.081.047-.113-.02.057.022l.191.05c.171.043-.014.007.1.015.078.005.156.009.234.01a4.136,4.136,0,0,0,.455-.023,10.316,10.316,0,0,0,2.546-.743,33.805,33.805,0,0,0,7.369-4.418l-.129,1.006-4.767-4.961-.673-.7h.906a41.54,41.54,0,0,0-5.184,6.307,10.028,10.028,0,0,0-1.168,2.279c-.047.148-.084.3-.118.45q-.012.06-.021.119.012-.1,0-.027c-.006.063-.01.126-.011.189a1.587,1.587,0,0,0,.01.2c-.021-.173,0-.022.011.011.039.178-.019-.054.012.048.014.044.135.184.015.04.524.629-.377,1.54-.906.906" transform="translate(-802.625 -137.956)"/>
        <line id="Línea_28" data-name="Línea 28" x2="8.042" y2="28.323" transform="matrix(0.921, 0.391, -0.391, 0.921, 135.414, 81.826)"/>
        <path id="Trazado_842" data-name="Trazado 842" d="M1.263.452l.8,2.8L3.982,10.03,6.3,18.192l2.014,7.094c.324,1.142.705,2.282.976,3.438,0,.017.009.034.014.051a.641.641,0,0,1-1.235.34l-.8-2.8L5.35,19.537,3.032,11.374,1.018,4.28C.694,3.139.313,2,.042.843.038.825.032.809.027.792A.641.641,0,0,1,1.263.452" transform="matrix(0.921, 0.391, -0.391, 0.921, 135.064, 81.002)"/>
        <path id="Trazado_843" data-name="Trazado 843" d="M655.225,119.976l-.285-3.024a11.815,11.815,0,0,0-4.418-8.145l-7.9-6.266.958-.9a7.226,7.226,0,0,1,9.367-.435l7.449,5.778a7.226,7.226,0,0,1,2.549,7.587L659.236,129.8l-17.053,32.028" transform="translate(-559.142 -66.347)" fill="#ffcc3e"/>
        <path id="Trazado_844" data-name="Trazado 844" d="M653.4,118.718c-.113-1.2-.167-2.432-.361-3.627a11.328,11.328,0,0,0-3.56-6.584c-.714-.648-1.5-1.225-2.257-1.824l-3.76-2.983-2.477-1.964a.645.645,0,0,1,0-.906,20.441,20.441,0,0,1,1.714-1.52,7.721,7.721,0,0,1,3.537-1.433,8.035,8.035,0,0,1,6.087,1.7l6.65,5.159c.231.179.463.357.692.537a7.807,7.807,0,0,1,2.349,3.078,8.381,8.381,0,0,1,.3,5.4l-1.929,7.916q-.565,2.318-1.13,4.637c-.192.786-.339,1.6-.579,2.373a4.819,4.819,0,0,1-.4.8l-1.116,2.1-3.893,7.311-4.87,9.147-4.364,8.2-2.37,4.452-.112.211c-.388.728-1.494.082-1.106-.647l1.62-3.043,3.9-7.325,4.8-9.018,4.263-8.006,2.349-4.411a1.212,1.212,0,0,1,.119-.224c-.053,0-.084.269-.032.02.026-.127.061-.253.092-.379l.82-3.364q1.129-4.634,2.258-9.267c.169-.692.334-1.384.506-2.076a6.679,6.679,0,0,0-1.8-6.472,30.261,30.261,0,0,0-2.471-1.967l-3.892-3.019a17.85,17.85,0,0,0-2.691-1.925,6.646,6.646,0,0,0-6.889.609,17.543,17.543,0,0,0-1.5,1.357v-.906l5.927,4.7c.725.575,1.462,1.137,2.173,1.728a12.444,12.444,0,0,1,4.1,6.6,34.6,34.6,0,0,1,.585,4.855.646.646,0,0,1-.64.641.655.655,0,0,1-.641-.641" transform="translate(-557.956 -65.089)"/>
        <path id="Trazado_845" data-name="Trazado 845" d="M656.9,118.7c-.113-1.2-.167-2.432-.361-3.627a11.328,11.328,0,0,0-3.56-6.584c-.715-.648-1.5-1.225-2.257-1.824l-3.76-2.983-2.477-1.964a.645.645,0,0,1,0-.906,15.829,15.829,0,0,1,2.068-1.768,7.87,7.87,0,0,1,8.2-.221,12.584,12.584,0,0,1,1.413,1.009c2.326,1.8,4.663,3.594,6.978,5.412a7.93,7.93,0,0,1,2.91,7.353c-.134.935-.421,1.869-.644,2.785l-2.518,10.333c-.236.969-.427,1.963-.711,2.919a4.686,4.686,0,0,1-.4.814l-2.91,5.485-4.841,9.124-5.385,10.15-4.62,8.707-2.426,4.574-.111.21c-.387.729-1.493.082-1.106-.647l1.66-3.128,4.106-7.74,5.225-9.848,5.059-9.536,3.608-6.8.842-1.586c.027-.052.052-.107.083-.157.085-.134-.066.092-.036.1,0,0,.153-.629.162-.663l2.314-9.5,1.027-4.213c.068-.277.134-.555.2-.832a6.806,6.806,0,0,0,.018-3.387,6.689,6.689,0,0,0-2.247-3.478c-.289-.236-.589-.46-.883-.689l-4.03-3.126L655.6,101l-.587-.456c-.034-.026-.242-.185-.18-.138a6.672,6.672,0,0,0-7.588-.293,13.617,13.617,0,0,0-1.86,1.6v-.906l5.927,4.7c.725.575,1.462,1.137,2.173,1.728a12.446,12.446,0,0,1,4.1,6.6,34.615,34.615,0,0,1,.585,4.855.646.646,0,0,1-.641.641.655.655,0,0,1-.641-.641" transform="translate(-561.454 -65.072)"/>
        <path id="Trazado_846" data-name="Trazado 846" d="M645.813,262.434c-.029.051-.055.1-.081.156s-.054.116-.082.174c-.012.026-.065.149-.023.051s-.024.06-.035.088a8.828,8.828,0,0,0-.456,1.611,8.148,8.148,0,0,0,.78,5.054,11.779,11.779,0,0,0,2.861,3.485c.625.54-.284,1.442-.906.906a11.264,11.264,0,0,1-4-6.5,9.318,9.318,0,0,1,.411-4.707,6.431,6.431,0,0,1,.421-.963.641.641,0,0,1,1.106.647" transform="translate(-545.456 -174.017)"/>
        <path id="Trazado_847" data-name="Trazado 847" d="M668.66,195.363a1.068,1.068,0,1,0,1.454-.407,1.068,1.068,0,0,0-1.454.407" transform="translate(-575.415 -129.656)"/>
        <path id="Trazado_848" data-name="Trazado 848" d="M668.66,195.363a1.068,1.068,0,1,0,1.454-.407A1.068,1.068,0,0,0,668.66,195.363Z" transform="translate(-575.415 -129.656)" fill="none" stroke="#000" stroke-miterlimit="10" stroke-width="1.277"/>
        <path id="Trazado_849" data-name="Trazado 849" d="M689.309,232.082a1.068,1.068,0,1,0,1.454-.407,1.067,1.067,0,0,0-1.454.407" transform="translate(-602.97 -154.093)"/>
        <path id="Trazado_850" data-name="Trazado 850" d="M689.309,232.082a1.068,1.068,0,1,0,1.454-.407A1.067,1.067,0,0,0,689.309,232.082Z" transform="translate(-602.97 -154.093)" fill="none" stroke="#000" stroke-miterlimit="10" stroke-width="1.277"/>
        <path id="Trazado_851" data-name="Trazado 851" d="M709.958,268.8a1.068,1.068,0,1,0,1.454-.407,1.067,1.067,0,0,0-1.454.407" transform="translate(-630.526 -178.531)"/>
        <path id="Trazado_852" data-name="Trazado 852" d="M709.958,268.8a1.068,1.068,0,1,0,1.454-.407A1.067,1.067,0,0,0,709.958,268.8Z" transform="translate(-630.526 -178.531)" fill="none" stroke="#000" stroke-miterlimit="10" stroke-width="1.277"/>
        <path id="Trazado_853" data-name="Trazado 853" d="M709.294,489.146a77.376,77.376,0,0,0-6.063,9.972,17.36,17.36,0,0,0-1.348,3.385.641.641,0,0,1-1.235-.34,27.032,27.032,0,0,1,3.043-6.6c1.157-2.01,2.4-3.97,3.7-5.894.264-.393.529-.785.8-1.173.47-.67,1.581-.031,1.106.647" transform="translate(-624.904 -324.917)"/>
        <path id="Trazado_854" data-name="Trazado 854" d="M713.2,311.317l.057,10.657a22.741,22.741,0,0,1-6.208,15.735l-.364.385" transform="translate(-630.778 -207.188)" fill="#4dcfd3"/>
        <path id="Trazado_855" data-name="Trazado 855" d="M712.551,310.086q.022,4.02.043,8.041c.005,1.009.025,2.018.012,3.027a23.318,23.318,0,0,1-1.759,8.6,24.807,24.807,0,0,1-5,7.562c-.567.6-1.472-.306-.906-.906a23.661,23.661,0,0,0,4.411-6.41,21.968,21.968,0,0,0,1.956-8.232c.11-2.763-.006-5.547-.021-8.31l-.018-3.372a.641.641,0,0,1,1.281,0" transform="translate(-629.489 -205.957)"/>
        <path id="Trazado_856" data-name="Trazado 856" d="M739.336,452.759a14.7,14.7,0,0,1,2.9.288l.314,28.6a14.624,14.624,0,1,1-3.21-28.892" transform="translate(-666.096 -301.32)" fill="#5f5fff"/>
        <path id="Trazado_857" data-name="Trazado 857" d="M738.014,450.844a16.415,16.415,0,0,1,3.066.311.647.647,0,0,1,.47.617l.031,2.853q.038,3.4.075,6.809.045,4.139.091,8.277.039,3.563.078,7.125c.013,1.159.081,2.332.038,3.49,0,.017,0,.033,0,.05a.649.649,0,0,1-.47.617,15.264,15.264,0,0,1-18.316-18.044,15.273,15.273,0,0,1,14.937-12.106.641.641,0,0,1,0,1.281,13.984,13.984,0,1,0,3.039,27.633l-.47.618q-.016-1.427-.031-2.853-.037-3.4-.075-6.809-.046-4.139-.091-8.277l-.078-7.125q-.013-1.187-.026-2.374a9.577,9.577,0,0,1-.012-1.116.417.417,0,0,0,0-.05l.47.618a14.527,14.527,0,0,0-2.725-.265.641.641,0,0,1,0-1.281" transform="translate(-664.774 -300.046)"/>
        <path id="Trazado_858" data-name="Trazado 858" d="M620.553,490.39a14.622,14.622,0,0,1,14.082-14.611,43.7,43.7,0,0,1,.236,12.565c-.655,4.152-2.757,9.465-5.741,15.36a14.624,14.624,0,0,1-8.577-13.315" transform="translate(-523.935 -316.641)" fill="#5f5fff"/>
        <path id="Trazado_859" data-name="Trazado 859" d="M618.617,489.115a15.263,15.263,0,0,1,14.722-15.251.641.641,0,0,1,.617.47,45.278,45.278,0,0,1,.352,12.09,38.719,38.719,0,0,1-2.881,9.769c-.927,2.226-1.953,4.408-3.04,6.56a.655.655,0,0,1-.876.23,15.394,15.394,0,0,1-8.375-9.908,15.566,15.566,0,0,1-.519-3.96.641.641,0,0,1,1.281,0,14,14,0,0,0,8.259,12.762l-.876.23a73.659,73.659,0,0,0,4.566-10.71,30.52,30.52,0,0,0,1.1-4.445,31.251,31.251,0,0,0,.335-5.406,55.6,55.6,0,0,0-.562-6.872l.618.47A13.96,13.96,0,0,0,619.9,489.115a.641.641,0,0,1-1.281,0" transform="translate(-522.639 -315.365)"/>
        <path id="Trazado_860" data-name="Trazado 860" d="M580.426,796.448a.747.747,0,0,0,.063-1.492c-2.739-.238-4.242-.383-4.244-.383a.747.747,0,1,0-.143,1.487s1.508.145,4.258.384c.022,0,.044,0,.066,0" transform="translate(-454.79 -528.802)"/>
        <path id="Trazado_861" data-name="Trazado 861" d="M98.657,464.653h0c2.922-.009,5.814-.034,8.6-.077a.747.747,0,0,0-.011-1.494h-.012c-2.775.042-5.661.069-8.577.077a.747.747,0,0,0,0,1.495m-8.586-.024a.747.747,0,0,0,.006-1.495c-2.807-.024-5.691-.062-8.572-.115h-.014a.747.747,0,0,0-.013,1.495c2.887.053,5.776.091,8.587.115Zm25.755-.245h.023c2.933-.087,5.824-.2,8.592-.326a.747.747,0,1,0-.07-1.492c-2.759.128-5.642.238-8.566.325a.747.747,0,0,0,.022,1.494m-42.909-.066a.747.747,0,0,0,.02-1.495c-2.8-.076-5.688-.167-8.572-.27a.747.747,0,1,0-.054,1.493c2.889.1,5.777.194,8.585.271h.02m-17.154-.609a.747.747,0,0,0,.032-1.494c-2.823-.122-5.705-.258-8.568-.4a.738.738,0,0,0-.784.708.748.748,0,0,0,.708.784c2.867.145,5.753.28,8.579.4h.033m77.214-.134.05,0c2.957-.2,5.843-.425,8.577-.676a.747.747,0,0,0-.136-1.488c-2.723.25-5.6.476-8.54.672a.747.747,0,0,0,.049,1.493m-94.359-.733a.747.747,0,0,0,.042-1.493c-2.854-.165-5.735-.34-8.563-.522a.747.747,0,1,0-.1,1.491c2.831.182,5.715.358,8.573.523h.043m111.453-.852a.725.725,0,0,0,.093-.006c2.981-.367,5.85-.778,8.529-1.222a.747.747,0,1,0-.245-1.474c-2.657.44-5.506.848-8.467,1.213a.747.747,0,0,0,.09,1.489m-128.585-.251a.747.747,0,0,0,.052-1.493c-2.884-.2-5.763-.42-8.555-.639a.747.747,0,1,0-.117,1.49c2.8.219,5.679.434,8.567.64l.054,0M167,459.138a.744.744,0,0,0,.166-.018c3.032-.686,5.842-1.447,8.349-2.261a.747.747,0,0,0-.461-1.422c-2.464.8-5.229,1.549-8.217,2.225a.747.747,0,0,0,.164,1.476m16.22-5.481a.743.743,0,0,0,.345-.085A23.323,23.323,0,0,0,190.6,448.3a.747.747,0,1,0-1.137-.97,21.874,21.874,0,0,1-6.595,4.921.747.747,0,0,0,.346,1.41m9.552-12.951h.034a.747.747,0,0,0,.712-.78,13.5,13.5,0,0,0-3.326-8.1.747.747,0,0,0-1.149.956,11.88,11.88,0,0,1,2.982,7.212.747.747,0,0,0,.746.713m-9.715-13.075a.747.747,0,0,0,.391-1.384,57.942,57.942,0,0,0-7.77-3.9.747.747,0,1,0-.578,1.378,56.569,56.569,0,0,1,7.568,3.795.742.742,0,0,0,.389.11m-15.74-6.808a.747.747,0,0,0,.231-1.458c-2.527-.819-5.316-1.64-8.289-2.438a.747.747,0,0,0-.387,1.443c2.949.791,5.713,1.6,8.215,2.416a.741.741,0,0,0,.23.037m-16.6-4.508a.747.747,0,0,0,.169-1.475c-2.62-.61-5.373-1.217-8.418-1.855a.747.747,0,1,0-.306,1.463c3.034.636,5.776,1.24,8.385,1.848a.746.746,0,0,0,.17.019m-16.834-3.551a.747.747,0,0,0,.142-1.481c-2.5-.488-5.184-1-8.445-1.61a.747.747,0,1,0-.275,1.469c3.257.61,5.937,1.121,8.434,1.608a.76.76,0,0,0,.144.014m-16.9-3.182a.747.747,0,0,0,.135-1.482c-2.839-.527-5.663-1.053-8.453-1.582a.747.747,0,1,0-.279,1.468c2.793.53,5.619,1.056,8.46,1.583a.737.737,0,0,0,.137.013m-16.9-3.228a.747.747,0,0,0,.146-1.48c-3.086-.62-5.835-1.2-8.405-1.769a.747.747,0,0,0-.323,1.459c2.58.572,5.339,1.153,8.434,1.775a.775.775,0,0,0,.148.015M83.29,402.595a.747.747,0,0,0,.185-1.471c-3-.768-5.772-1.551-8.239-2.328a.747.747,0,1,0-.449,1.426c2.493.785,5.291,1.575,8.317,2.35a.745.745,0,0,0,.186.024m-16.354-5.286a.747.747,0,0,0,.3-1.434,37.265,37.265,0,0,1-7.352-4.04.747.747,0,1,0-.888,1.2,38.734,38.734,0,0,0,7.65,4.211.749.749,0,0,0,.295.061M54.392,386.6a.732.732,0,0,0,.187-.024.747.747,0,0,0,.537-.91,7.537,7.537,0,0,1-.237-1.876q0-.144.005-.291l0-.042,0-.042c0-.01,0-.078,0-.194a12.761,12.761,0,0,1,1.407-5.362.741.741,0,0,0,.074-.368c2.537.8,5.257,1.55,8.088,2.218a.747.747,0,1,0,.343-1.455c-2.881-.679-5.644-1.44-8.212-2.261a.748.748,0,0,0-.94.484.74.74,0,0,0-.031.308.747.747,0,0,0-.666.42,14.14,14.14,0,0,0-1.558,6.017c0,.122,0,.21.006.259,0,.1-.005.207-.005.309a9.028,9.028,0,0,0,.284,2.249.748.748,0,0,0,.723.561m57.479-2.215c1.279,0,2.591-.008,3.9-.025a.747.747,0,0,0-.009-1.494h-.009c-1.33.016-2.678.024-3.959.024-1.535,0-3.083-.012-4.6-.034h-.012a.747.747,0,0,0-.011,1.494c1.526.023,3.081.035,4.623.035Zm12.469-.244h.033c2.867-.124,5.76-.319,8.6-.581a.747.747,0,0,0-.137-1.488c-2.816.26-5.685.454-8.528.576a.747.747,0,0,0,.032,1.494m-25.731-.05a.747.747,0,0,0,.033-1.493c-2.9-.134-5.769-.315-8.535-.54a.747.747,0,0,0-.121,1.489c2.783.226,5.672.409,8.587.543h.035m-17.1-1.408a.747.747,0,0,0,.09-1.489c-2.9-.356-5.746-.774-8.451-1.242a.747.747,0,0,0-.255,1.473c2.729.472,5.6.894,8.523,1.253a.861.861,0,0,0,.092.005m59.915-.127a.746.746,0,0,0,.108-.008c2.96-.429,5.82-.933,8.5-1.5a.747.747,0,0,0-.308-1.463c-2.649.557-5.478,1.056-8.407,1.48a.747.747,0,0,0,.106,1.487m16.769-3.612a.742.742,0,0,0,.222-.034,39.655,39.655,0,0,0,8.074-3.34.747.747,0,1,0-.755-1.29,38.247,38.247,0,0,1-7.763,3.2.747.747,0,0,0,.221,1.461m-109.871-4.51a.747.747,0,0,0,.3-1.431,52.8,52.8,0,0,1-7.449-3.98.747.747,0,0,0-.816,1.252,54.292,54.292,0,0,0,7.661,4.095.745.745,0,0,0,.3.064m12.59-2.811a.747.747,0,0,0,.487-.18,33.122,33.122,0,0,1,7.025-4.52.747.747,0,1,0-.656-1.342,34.615,34.615,0,0,0-7.342,4.728.747.747,0,0,0,.487,1.314M168.7,369.081a.747.747,0,0,0,.523-1.28c-1.443-1.418-4.122-2.722-7.964-3.878a.747.747,0,1,0-.43,1.431c3.607,1.085,6.079,2.267,7.348,3.513a.745.745,0,0,0,.524.214M34.254,364.873a.747.747,0,0,0,.565-1.237,15.619,15.619,0,0,1-3.724-7.167.747.747,0,0,0-1.467.288,17.086,17.086,0,0,0,4.061,7.858.745.745,0,0,0,.565.258m41.826-.959a.741.741,0,0,0,.217-.032,78.866,78.866,0,0,1,8.248-1.988.747.747,0,0,0-.276-1.469,80.079,80.079,0,0,0-8.405,2.027.747.747,0,0,0,.216,1.462m76.62-.488a.747.747,0,0,0,.136-1.482c-2.557-.478-5.421-.928-8.513-1.338a.747.747,0,1,0-.2,1.482c3.066.406,5.9.852,8.435,1.325a.772.772,0,0,0,.138.013m-17-2.3a.747.747,0,0,0,.07-1.491c-2.911-.277-5.795-.513-8.571-.7a.747.747,0,1,0-.1,1.491c2.762.188,5.633.423,8.531.7.024,0,.048,0,.072,0m-42.816-.448a.748.748,0,0,0,.081,0c2.693-.29,5.553-.509,8.5-.651a.747.747,0,0,0-.072-1.493c-2.978.143-5.868.365-8.59.658a.747.747,0,0,0,.079,1.49m25.7-.7a.747.747,0,0,0,.026-1.494c-2.842-.1-5.638-.156-8.31-.156H110a.747.747,0,0,0,0,1.495h.3c2.652,0,5.429.052,8.253.155h.028M31.491,349.011a.746.746,0,0,0,.677-.431,21.709,21.709,0,0,1,4.992-6.557.747.747,0,0,0-1.019-1.094,23.188,23.188,0,0,0-5.327,7.018.747.747,0,0,0,.676,1.064M43.549,337.15a.744.744,0,0,0,.374-.1,41.636,41.636,0,0,1,7.7-3.382.747.747,0,0,0-.471-1.418,43.1,43.1,0,0,0-7.98,3.507.747.747,0,0,0,.375,1.394m16.142-5.592a.751.751,0,0,0,.146-.014c2.588-.512,5.421-.946,8.421-1.289a.747.747,0,0,0-.17-1.485c-3.04.348-5.913.788-8.541,1.308a.747.747,0,0,0,.144,1.48m77.076-1.235a.747.747,0,0,0,.005-1.494c-2.5-.017-5.3-.07-8.564-.163a.747.747,0,1,0-.042,1.494c3.273.093,6.085.146,8.6.164Zm8.579-.115h.03a84.262,84.262,0,0,0,8.626-.719.747.747,0,1,0-.212-1.479,82.9,82.9,0,0,1-8.471.705.747.747,0,0,0,.028,1.494m-25.737-.334a.747.747,0,0,0,.027-1.494l-2.642-.1q-2.939-.108-5.935-.214a.747.747,0,0,0-.051,1.493q2.991.1,5.931.214l2.643.1h.027m-42.889-.341h.044c2.665-.156,5.539-.266,8.542-.326a.747.747,0,1,0-.03-1.494c-3.022.06-5.916.17-8.6.328a.747.747,0,0,0,.043,1.493m25.733-.231a.747.747,0,0,0,.018-1.494c-3.121-.078-5.932-.125-8.594-.144h-.005a.747.747,0,0,0-.005,1.495c2.653.019,5.455.066,8.567.143h.019m59.675-2.083a.741.741,0,0,0,.341-.083,8.665,8.665,0,0,0,3.535-3.054,6.756,6.756,0,0,0,1.119-3.516,5.024,5.024,0,0,0-.113-1.058.747.747,0,0,0-1.461.316,3.494,3.494,0,0,1,.079.742,5.31,5.31,0,0,1-.9,2.734,7.214,7.214,0,0,1-2.945,2.507.747.747,0,0,0,.342,1.412M160.217,314.8a.747.747,0,0,0,.319-1.424,57.422,57.422,0,0,0-8.189-2.954.747.747,0,0,0-.42,1.434,55.981,55.981,0,0,1,7.972,2.872.744.744,0,0,0,.318.071m-16.393-5.111A.747.747,0,0,0,144,308.22l-2.043-.5c-2.1-.516-4.268-1.051-6.289-1.583a.747.747,0,1,0-.381,1.445c2.033.536,4.209,1.072,6.313,1.589l2.04.5a.75.75,0,0,0,.181.022m-16.556-4.629a.747.747,0,0,0,.27-1.444c-3.76-1.459-5.755-2.97-5.93-4.492a.747.747,0,0,0-1.485.17c.25,2.176,2.435,3.993,6.875,5.715a.743.743,0,0,0,.27.051m-1.6-11.7a.74.74,0,0,0,.349-.087,22.631,22.631,0,0,1,7.968-2.169.747.747,0,1,0-.167-1.485,24.081,24.081,0,0,0-8.5,2.334.747.747,0,0,0,.35,1.408" transform="translate(121.262 -192.749)"/>
        <path id="Trazado_862" data-name="Trazado 862" d="M153.983,291.008a.747.747,0,0,0,.108-1.486c-.071-.011-1.768-.259-4.315-.408a.747.747,0,1,0-.087,1.492c2.475.145,4.167.392,4.183.394a.774.774,0,0,0,.11.008" transform="translate(114.288 -192.411)"/>
        <path id="Trazado_863" data-name="Trazado 863" d="M594.575,110.149a2.015,2.015,0,1,1-3.59-1.831Z" transform="translate(-473.323 -72.088)"/>
        <path id="Trazado_864" data-name="Trazado 864" d="M594.226,109.714a2.315,2.315,0,0,1-4.308-.546,2.372,2.372,0,0,1,.2-1.587.3.3,0,0,1,.409-.107l3.149,1.606.441.225c.343.175.041.691-.3.517l-3.149-1.606-.441-.225.409-.107a1.717,1.717,0,1,0,3.074,1.529c.179-.341.7-.039.517.3" transform="translate(-472.716 -71.502)"/>
      </g>
    </g>
  </g>
</svg>
