<svg xmlns="http://www.w3.org/2000/svg" xmlns:xlink="http://www.w3.org/1999/xlink" width="349.08" height="280" viewBox="0 0 349.08 280">
  <defs>
    <clipPath id="clip-path">
      <rect id="Rectángulo_62" data-name="Rectángulo 62" width="330.04" height="280" fill="none"/>
    </clipPath>
  </defs>
  <g id="Grupo_308" data-name="Grupo 308" transform="translate(-13358 1356)">
    <rect id="Rectángulo_101" data-name="Rectángulo 101" width="349.08" height="280" transform="translate(13358 -1356)" fill="none"/>
    <g id="Grupo_298" data-name="Grupo 298" transform="translate(13367 -1356)">
      <path id="Trazado_865" data-name="Trazado 865" d="M1.994,465.433,292.765,433.2l-27.81,43.035Z" transform="translate(-1.191 -287.056)"/>
      <g id="Grupo_152" data-name="Grupo 152">
        <g id="Grupo_151" data-name="Grupo 151" clip-path="url(#clip-path)">
          <path id="Trazado_866" data-name="Trazado 866" d="M.721,460.276l6.688-.741,18.2-2.017,26.918-2.984,32.84-3.64,35.843-3.973,36.3-4.024,33.848-3.752,28.514-3.16,20.639-2.288,6.37-.706c1.09-.121,2.259-.138,3.333-.37.135-.029.281-.031.419-.047l-.6-1.051-8.091,12.519L229.108,463.9l-2.98,4.612.6-.346-6.079-.25-16.381-.673-24.4-1-29.664-1.219-32.487-1.335-32.791-1.348-30.577-1.256-25.842-1.062L9.92,459.257c-2.939-.121-5.887-.32-8.828-.363-.124,0-.247-.01-.371-.015-.9-.037-.9,1.36,0,1.4l8.569.352,22.806.937,32.689,1.343,38.1,1.566,39.279,1.614,36.255,1.489,28.753,1.182,16.9.694a14.369,14.369,0,0,0,2.64.109c.684-.109,1.023-.959,1.371-1.5l3.118-4.826L249.836,434.4l1.4-2.168a.7.7,0,0,0-.6-1.051l-6.688.741-18.2,2.017-26.918,2.984-32.84,3.64-35.843,3.973-36.3,4.024L60,452.309l-28.513,3.16-20.639,2.288c-3.234.358-6.47.708-9.7,1.075l-.419.047c-.884.1-.894,1.5,0,1.4" transform="translate(-0.031 -282)"/>
          <path id="Trazado_867" data-name="Trazado 867" d="M251.906,374.989,219.421,344.2,1.993,402.691Z" transform="translate(-1.304 -225.114)" fill="#ffcc3e"/>
          <path id="Trazado_868" data-name="Trazado 868" d="M251.124,373.222l-20.631-19.557-10.658-10.1c-.5-.474-1.134-1.369-1.883-1.31a4.091,4.091,0,0,0-.682.184l-12.542,3.374-25.182,6.775-33.334,8.968-37.687,10.139L71.029,381.778l-33.21,8.935L13.036,397.38,1.051,400.6l-.519.139c-.735.2-.617,1.461.186,1.372l6.688-.741,18.2-2.017,26.918-2.984,32.84-3.64,35.843-3.973,36.3-4.024,33.847-3.752,28.514-3.161,20.639-2.288c3.234-.358,6.469-.708,9.7-1.076l.42-.046c.884-.1.893-1.5,0-1.4l-6.688.741-18.2,2.017-26.918,2.984-32.84,3.64-35.843,3.973L93.84,390.4l-33.848,3.752-28.513,3.16L10.84,399.6l-6.37.706c-1.092.121-2.257.141-3.333.369-.135.029-.281.031-.419.046L.9,402.09l5.813-1.564,15.82-4.256,23.4-6.3,28.55-7.681,31.272-8.413,31.567-8.493,29.433-7.919,24.871-6.691,17.881-4.81,5.56-1.5a27.336,27.336,0,0,0,2.9-.781,3.42,3.42,0,0,1,.359-.1l-.679-.18,10.985,10.413,17.5,16.587,4,3.794c.652.618,1.642-.368.988-.988" transform="translate(-0.028 -223.84)"/>
          <path id="Trazado_869" data-name="Trazado 869" d="M261.009,515.429l-45.94,70.252L1.994,513.271l237.554,2.548Z" transform="translate(-1.304 -335.693)" fill="#ffcc3e"/>
          <path id="Trazado_870" data-name="Trazado 870" d="M259.128,513.756l-15.521,23.736-24.74,37.832-5.678,8.684.789-.321-5.713-1.941-15.545-5.283-22.885-7.777L141.927,559.2l-30.689-10.429-30.98-10.528-28.774-9.778-24.413-8.3-17.49-5.944L4.13,512.374a21.488,21.488,0,0,0-2.873-.976,2.686,2.686,0,0,1-.356-.121q-.092.686-.185,1.372l7.554.081,20.172.216,29.61.318,35.22.378,37.857.406,36.554.392,32.3.346,24.174.26,12.927.138c6.108.066,12.228-.188,18.335-.3l4.315-.079a.7.7,0,0,0,0-1.4c-7.21.131-14.43.4-21.641.388-3.193,0-6.386-.068-9.579-.1l-21.889-.234-30.478-.327-36.027-.386-37.663-.4-36.358-.39-31.133-.334-22.879-.245c-3.628-.039-7.261-.133-10.889-.117-.159,0-.32,0-.479-.005a.7.7,0,0,0-.186,1.372l5.713,1.941,15.545,5.283,22.885,7.777,27.907,9.484,30.689,10.429,30.98,10.528,28.775,9.779,24.413,8.3,17.49,5.944c2.77.941,5.525,1.975,8.323,2.829.119.036.237.081.356.121a.709.709,0,0,0,.788-.321l15.521-23.736,24.74-37.833,5.678-8.683c.493-.755-.715-1.455-1.206-.705" transform="translate(-0.026 -334.373)"/>
          <path id="Trazado_871" data-name="Trazado 871" d="M247.122,581.7h0a17.179,17.179,0,0,0-12.724-13.14L39.516,523.825l233.406,17.84Z" transform="translate(-25.845 -342.596)"/>
          <path id="Trazado_872" data-name="Trazado 872" d="M247.122,581.7h0a17.179,17.179,0,0,0-12.724-13.14L39.516,523.825l233.406,17.84Z" transform="translate(-25.845 -342.596)" fill="none" stroke="#000" stroke-miterlimit="10" stroke-width="1.346"/>
          <path id="Trazado_873" data-name="Trazado 873" d="M300.468,485.565a4.1,4.1,0,0,1-.006-.432c0-.165.016-.33.032-.5,0-.047.011-.094.016-.141.016-.162-.021.12,0-.006.018-.107.034-.214.054-.32a7.193,7.193,0,0,1,.179-.728q.057-.189.125-.374c.023-.064.048-.127.073-.19,0-.01.042-.1.01-.026s.03-.066.037-.081a6.363,6.363,0,0,1,.423-.773c.042-.065.085-.128.129-.191.017-.024.136-.185.072-.1.106-.137.221-.268.34-.394a5.374,5.374,0,0,1,1.987-1.331.72.72,0,0,0,.488-.859.7.7,0,0,0-.859-.488,6.844,6.844,0,0,0-3.622,3.1,7.763,7.763,0,0,0-.872,3.2,4.689,4.689,0,0,0,0,.635.716.716,0,0,0,.7.7.7.7,0,0,0,.7-.7" transform="translate(-195.594 -313.016)"/>
          <path id="Trazado_874" data-name="Trazado 874" d="M336.936,662.146l4.313,1.345,11.635,3.629,17.249,5.38,21.046,6.563,23.052,7.19,23.268,7.256,21.627,6.745,18.395,5.737,13.14,4.1c2.085.65,4.161,1.349,6.26,1.952.088.025.175.055.262.082.86.268,1.228-1.079.371-1.347l-4.313-1.345L481.607,705.8l-17.25-5.38-21.046-6.564-23.052-7.189-23.268-7.257-21.627-6.745-18.395-5.737-13.14-4.1c-2.085-.65-4.161-1.349-6.26-1.952-.088-.025-.175-.054-.262-.082-.86-.268-1.228,1.08-.371,1.347" transform="translate(-220.047 -432.158)"/>
          <path id="Trazado_875" data-name="Trazado 875" d="M659.972,717.475l4.258,1.336,10.224,3.207,12.364,3.878,10.649,3.34c1.722.54,3.44,1.166,5.185,1.626.025.007.05.016.075.023.86.27,1.228-1.078.372-1.347L698.84,728.2,688.616,725l-12.364-3.878-10.649-3.34c-1.722-.54-3.44-1.166-5.185-1.626-.025-.007-.05-.016-.075-.023-.859-.27-1.228,1.078-.371,1.347" transform="translate(-431.322 -468.345)"/>
          <path id="Trazado_876" data-name="Trazado 876" d="M389.813,276.613s.527-7.571,9.583-10.379c.209-5.009,4.731-11.364,12.105-9.867s-3.153,29.464-3.153,29.464" transform="translate(-254.949 -167.525)" fill="#ff3e6c"/>
          <path id="Trazado_877" data-name="Trazado 877" d="M389.169,275.24c0-.068.019-.136.022-.2-.014.25-.009.07.011-.052s.038-.217.061-.325a11.212,11.212,0,0,1,.573-1.894l.06-.148c.048-.116-.068.155.017-.039.041-.093.082-.186.125-.278q.151-.323.32-.637a12.212,12.212,0,0,1,.811-1.3,11.953,11.953,0,0,1,2.411-2.473,15.011,15.011,0,0,1,4.644-2.335.742.742,0,0,0,.528-.693c.2-4.277,3.387-8.448,7.706-9.242a8.707,8.707,0,0,1,3.616.1c.109.028.213.065.319.1s-.139-.075,0,0c.053.029.108.054.161.084a2.913,2.913,0,0,1,.267.177c-.187-.136.1.1.156.156.038.039.074.081.111.121.019.021.124.155.049.057s.042.061.055.082c.036.054.071.108.1.164.062.1.118.208.17.315.027.055.052.112.077.168-.085-.189.006.018.025.071a7.213,7.213,0,0,1,.238.8q.049.212.086.427c.013.074.024.148.036.223.006.038.011.075.017.113-.014-.1-.009-.072,0,.011a20.237,20.237,0,0,1-.06,4.471c-.091.864-.195,1.575-.347,2.472s-.326,1.779-.516,2.663c-.75,3.485-1.732,6.919-2.819,10.312q-.592,1.848-1.233,3.68c-.21.6-.461,1.194-.647,1.8-.008.026-.02.052-.029.078a.725.725,0,0,0,.5.885.735.735,0,0,0,.884-.5c.6-1.6,1.148-3.221,1.678-4.845,1.13-3.465,2.151-6.972,2.941-10.53a56.042,56.042,0,0,0,.977-5.6,21.25,21.25,0,0,0,.127-4.714,6.54,6.54,0,0,0-1.248-3.561c-1.09-1.314-3.052-1.415-4.629-1.341-5.028.237-9.067,4.326-10.011,9.156a11.291,11.291,0,0,0-.2,1.642l.528-.693a15.129,15.129,0,0,0-7.5,4.916,12.739,12.739,0,0,0-2.426,5,7.817,7.817,0,0,0-.186,1.155c-.066.923,1.372.919,1.438,0" transform="translate(-253.585 -166.153)"/>
          <path id="Trazado_878" data-name="Trazado 878" d="M274.714,201.125l-47.408-34.771c-10.589-7.731-12.36-12.718-12.193-21.656l.769-41.433,16.868.124-.98,42.666,43.622,29.555,15.924,1.37" transform="translate(-140.683 -67.538)" fill="#fc7272"/>
          <path id="Trazado_879" data-name="Trazado 879" d="M273.714,199.145l-4.465-3.275-10.738-7.876-13.28-9.74-11.868-8.7-6.651-4.878c-4.309-3.16-8.987-6.8-10.978-11.948-1.4-3.624-1.3-7.5-1.228-11.317q.117-6.284.233-12.567.15-8.1.3-16.191.1-5.124.19-10.248,0-.247.009-.494l-.719.719,5.695.042,9.082.067,2.091.015-.719-.719q-.08,3.491-.161,6.981-.173,7.543-.346,15.085-.169,7.352-.338,14.7-.052,2.288-.105,4.575c-.014.612-.219,1.55.348,1.956,1.764,1.265,3.6,2.439,5.4,3.656l11.649,7.892,13.319,9.024,10.3,6.978,2.547,1.725a4.018,4.018,0,0,0,.389.264,3.915,3.915,0,0,0,1.344.184l13.756,1.184,1.189.1c.922.079.916-1.359,0-1.438l-13.944-1.2-1.98-.171.363.1-4.352-2.948-10.407-7.051L247.048,155.1l-10.915-7.4-3.594-2.435c-.557-.377-1.106-.819-1.694-1.148-.026-.015-.051-.034-.075-.051l.356.621.1-4.251.235-10.207.282-12.293.245-10.668c.039-1.717.16-3.454.119-5.171,0-.025,0-.05,0-.075a.729.729,0,0,0-.719-.719l-5.7-.042-9.082-.067-2.091-.016a.73.73,0,0,0-.719.719q-.07,3.726-.138,7.452l-.292,15.7q-.133,7.145-.265,14.29a60.587,60.587,0,0,0,.221,9.751,18.231,18.231,0,0,0,3.433,8.354,40.724,40.724,0,0,0,8.824,8.164l4.659,3.416,10.951,8.032,13.334,9.78,11.778,8.639,6.384,4.682.3.219a.725.725,0,0,0,.984-.258.735.735,0,0,0-.258-.984" transform="translate(-139.32 -66.179)"/>
          <path id="Trazado_880" data-name="Trazado 880" d="M340.352,292.573l-15.924-1.37-16.527-11.2a50.129,50.129,0,0,1-5.362,11.265c-1.514,2.45-10.945,10.344-12.462,12.195l30.4,17.916Z" transform="translate(-189.718 -183.131)" fill="#4dcfd3"/>
          <path id="Trazado_881" data-name="Trazado 881" d="M339.012,290.481l-5.384-.463-8.577-.738-1.964-.169.363.1-5.592-3.789-8.9-6.033-2.031-1.376a.726.726,0,0,0-1.056.43,40.653,40.653,0,0,1-3.078,7.232c-.7,1.332-1.43,2.672-2.256,3.932-.06.091-.124.178-.187.267-.091.127-.018.025-.033.043q-.081.1-.163.2c-.2.239-.406.471-.617.7-2.53,2.741-5.4,5.182-8.141,7.7a32.361,32.361,0,0,0-3.163,3.069.731.731,0,0,0,.145,1.129L291.4,304.5l7.263,4.28,8.786,5.178,7.593,4.475c1.223.721,2.428,1.5,3.68,2.169.018.01.036.021.054.032a.736.736,0,0,0,.984-.258l1.977-2.865,4.747-6.88,5.743-8.324,4.964-7.2c.8-1.156,1.683-2.288,2.409-3.491.011-.018.024-.035.036-.052.527-.764-.719-1.483-1.241-.726l-1.977,2.865-4.747,6.88-5.743,8.324-4.964,7.2-1.63,2.363c-.255.37-.559.735-.778,1.128a.628.628,0,0,1-.036.052l.984-.258-3.024-1.783-7.263-4.28-8.786-5.178-7.593-4.474-2.492-1.469a13.349,13.349,0,0,0-1.188-.7.566.566,0,0,1-.054-.032l.146,1.129a28.413,28.413,0,0,1,2.728-2.668c1.444-1.331,2.9-2.646,4.346-3.98,1.343-1.242,2.688-2.491,3.948-3.819a16.6,16.6,0,0,0,1.321-1.536,28.581,28.581,0,0,0,1.952-3.285,44.229,44.229,0,0,0,3.715-8.489l-1.056.43,4.725,3.2,8.358,5.663,2.807,1.9a2.334,2.334,0,0,0,1.192.547l7.9.68c2.562.22,5.131.526,7.7.663.045,0,.09.008.134.011.922.08.917-1.359,0-1.438" transform="translate(-188.378 -181.758)"/>
          <path id="Trazado_882" data-name="Trazado 882" d="M288.745,328.58c1.371.847,4.429-.053,7.855-5.631l-6.085-4.463c-2.379,5.152-3.192,9.216-1.77,10.094" transform="translate(-188.389 -208.299)"/>
          <path id="Trazado_883" data-name="Trazado 883" d="M287.017,327.837a3.823,3.823,0,0,0,3.811-.364,15.676,15.676,0,0,0,5.027-5.525.737.737,0,0,0-.258-.984l-5.322-3.9-.762-.56a.721.721,0,0,0-.984.258,28.082,28.082,0,0,0-2.419,7.033c-.218,1.329-.4,3.194.908,4.044.778.506,1.5-.738.726-1.242-.133-.086.1.082-.016-.009a.957.957,0,0,1-.107-.111c.117.133-.063-.12-.09-.179.068.145-.044-.153-.058-.207s-.03-.132-.042-.2,0,.071-.009-.059a6.988,6.988,0,0,1,.154-2.083,28.516,28.516,0,0,1,2.2-6.261l-.984.258,5.322,3.9.762.559-.258-.984a14.526,14.526,0,0,1-4.368,4.924c-.161.1-.325.191-.494.275a1.976,1.976,0,0,1-.3.134,4.439,4.439,0,0,1-.443.141c-.06.015-.12.029-.181.042-.038.008-.294.038-.1.019a3.036,3.036,0,0,1-.327.016c-.068,0-.136-.007-.2-.011-.168-.01.156.037,0,0-.106-.026-.208-.053-.313-.085-.148-.046.145.073.009,0-.051-.026-.1-.053-.151-.083a.72.72,0,0,0-.726,1.242" transform="translate(-187.023 -206.934)"/>
          <path id="Trazado_884" data-name="Trazado 884" d="M244.076,150.858l-22.405-15.18.98-42.666L205.435,87.4l.347,5.489-5.87,40.184c-1.627,11.282,4.728,17.892,15.317,25.624l15.5,11.371,6.085,4.463c1.517-1.851,5.072-6.779,6.585-9.228a50.113,50.113,0,0,0,5.362-11.265Z" transform="translate(-130.583 -57.161)" fill="#ffc2d6"/>
          <path id="Trazado_885" data-name="Trazado 885" d="M243.08,148.871l-7.583-5.138-12.072-8.179-2.75-1.863.356.621.1-4.244q.117-5.1.234-10.192l.283-12.329q.122-5.328.245-10.656c.039-1.718.15-3.451.119-5.169,0-.025,0-.051,0-.076a.734.734,0,0,0-.528-.693l-5.838-1.9-9.252-3.017-2.125-.693a.723.723,0,0,0-.91.693l.307,4.862a3.2,3.2,0,0,0,.039.623c-.011,0,.044-.3.015-.108-.032.209-.061.418-.092.627q-.551,3.772-1.1,7.544l-1.774,12.144q-.877,6-1.753,12-.529,3.619-1.057,7.239a29.427,29.427,0,0,0-.357,3.794,19.639,19.639,0,0,0,1.577,8.084c2.363,5.5,7.123,9.6,11.762,13.175,2.52,1.941,5.115,3.79,7.68,5.672l9.266,6.8,6.085,4.463,1.141.837a.717.717,0,0,0,.871-.112c1.752-2.144,3.358-4.421,4.928-6.7a62.214,62.214,0,0,0,5.171-8.926,38.123,38.123,0,0,0,2.033-5.186.736.736,0,0,0-.33-.812l-4.689-3.177c-.768-.52-1.488.725-.726,1.242l4.689,3.177-.33-.812c-1.86,6.2-5.524,11.742-9.3,16.93-.8,1.1-1.6,2.195-2.461,3.246l.871-.112-6.224-4.565-7.717-5.66q-3.771-2.766-7.541-5.531c-4.427-3.245-9.028-6.727-12.117-11.345a18.677,18.677,0,0,1-2.953-7.229,20.577,20.577,0,0,1-.01-6.4q.413-2.844.831-5.687.826-5.659,1.653-11.318l1.816-12.434q.651-4.458,1.3-8.916c.083-.566.167-1.132.248-1.7a4.816,4.816,0,0,0-.014-.986q-.094-1.487-.188-2.975-.056-.884-.112-1.767l-.91.693,5.838,1.9,9.252,3.017,2.125.693-.528-.693q-.034,1.473-.068,2.946-.085,3.694-.17,7.388l-.224,9.738q-.115,5-.23,10-.093,4.081-.188,8.162-.048,2.122-.1,4.243c0,.064-.008.13,0,.194.02.385.273.564.55.752l1.749,1.185,7.037,4.768,8.174,5.538,5,3.388.249.169c.768.52,1.489-.725.726-1.242" transform="translate(-129.224 -55.795)"/>
          <path id="Trazado_886" data-name="Trazado 886" d="M230.941,72.7l.076-3.63A32.959,32.959,0,0,1,232,61.747c.467-1.865,1.142-4.275,2.09-7.1,0,0,1.636-4.867-.481-4.882s-4.882,3.825-4.882,3.825,1.245-7.062-3.607-7.47c-4.758-.4-13.483-.194-12.238,10.238a4.061,4.061,0,0,1-.031,1.206c-.289,1.6-.856,6.125,1.475,8.219" transform="translate(-139.029 -30.097)" fill="#ffc2d6"/>
          <path id="Trazado_887" data-name="Trazado 887" d="M230.3,71.33c.03-1.456.036-2.915.1-4.37a41.237,41.237,0,0,1,1.878-9.858,43.137,43.137,0,0,0,1.667-5.83,4.451,4.451,0,0,0-.2-2.7,1.926,1.926,0,0,0-2.472-.715,8.258,8.258,0,0,0-3.066,2.253,17.5,17.5,0,0,0-1.459,1.753l1.314.554a10.235,10.235,0,0,0-.413-5.509,4.439,4.439,0,0,0-2.882-2.7,13.288,13.288,0,0,0-3.626-.275,12.528,12.528,0,0,0-7.132,1.869c-2.611,1.856-3.464,4.962-3.3,8.044.03.583.143,1.17.129,1.753a10,10,0,0,1-.149,1.128,17.612,17.612,0,0,0-.188,2.6c.019,1.992.435,4.191,1.962,5.6.679.627,1.7-.387,1.017-1.017a5.918,5.918,0,0,1-1.534-4.267,15.7,15.7,0,0,1,.091-2.2,16.02,16.02,0,0,0,.24-2c-.012-.967-.179-1.917-.14-2.891a9.3,9.3,0,0,1,.338-2.2,6.09,6.09,0,0,1,1.77-2.909,7.361,7.361,0,0,1,2.767-1.5,12.728,12.728,0,0,1,3.255-.545,24.663,24.663,0,0,1,3.129.048,3.981,3.981,0,0,1,1.581.383,2.761,2.761,0,0,1,1.061,1.039,6.54,6.54,0,0,1,.759,3.361,12.912,12.912,0,0,1-.064,1.384c-.008.077-.017.154-.025.232-.027.247.015-.073,0,.039-.009.051-.015.1-.024.152a.723.723,0,0,0,1.314.554l.074-.1.076-.1c-.068.089-.016.02.056-.071.251-.314.509-.622.778-.92a9.236,9.236,0,0,1,2.287-1.965,2.144,2.144,0,0,1,1.023-.311c.117,0-.11-.018,0,0a.419.419,0,0,1,.114.03c.075.034-.034-.017-.042-.019a.388.388,0,0,1,.093.056c-.115-.178.089.136-.03-.03.03.042.119.219.1.166-.03-.073.033.116.041.148s.054.279.034.137a3.83,3.83,0,0,1,.024.62,6.042,6.042,0,0,1-.124,1.093c-.359,1.937-1.128,3.794-1.677,5.681A43.063,43.063,0,0,0,229,66.3c-.106,1.671-.1,3.354-.135,5.028a.719.719,0,0,0,1.438,0" transform="translate(-137.669 -28.727)"/>
          <path id="Trazado_888" data-name="Trazado 888" d="M232.3,27.9c2.043-6.845,2.813-9.827,3.728-13.893s4.008-4,4.081.253c-.528,6.714-3.758,16.442-3.758,16.442s-11.5,1.151-12.123,6.636" transform="translate(-146.649 -7.2)" fill="#ffc2d6"/>
          <path id="Trazado_889" data-name="Trazado 889" d="M231.623,26.726c.918-3.079,1.825-6.163,2.624-9.275q.443-1.726.842-3.463c.267-1.156.439-2.494,1.315-3.348a.528.528,0,0,1,.2-.155c.045-.025.25-.112.125-.069a.927.927,0,0,1,.119-.036c.192-.038-.1,0,.017-.009.049,0,.1,0,.147,0,.156,0-.127-.022.04.008a.776.776,0,0,1,.113.035c-.13-.047-.036-.016-.006,0,.045.026.09.052.133.083.1.068-.114-.113.033.033a1.509,1.509,0,0,1,.35.51c.573,1.22.287,2.727.1,4.025a75.987,75.987,0,0,1-1.952,8.923c-.471,1.731-.97,3.458-1.535,5.16l.693-.528a29.389,29.389,0,0,0-4.248.774,15.807,15.807,0,0,0-6.724,3.13,5.488,5.488,0,0,0-1.869,3.451.723.723,0,0,0,.719.719.737.737,0,0,0,.719-.719c-.011.086.035-.184.049-.246q.04-.177.1-.35a2.6,2.6,0,0,1,.279-.617,4.348,4.348,0,0,1,.91-1.117,10.2,10.2,0,0,1,2.815-1.741,25.345,25.345,0,0,1,6.047-1.677q.268-.044.536-.084l.245-.035c.192-.028-.18.021.048-.006.126-.015.252-.032.378-.045a.755.755,0,0,0,.693-.528,83.28,83.28,0,0,0,3.5-14.144,9.127,9.127,0,0,0-.088-4.7,2.3,2.3,0,0,0-2.613-1.695c-1.265.332-1.974,1.683-2.336,2.832-.4,1.275-.621,2.623-.94,3.921-.876,3.562-1.908,7.083-2.956,10.6a.72.72,0,0,0,1.387.382" transform="translate(-145.283 -5.84)"/>
          <path id="Trazado_890" data-name="Trazado 890" d="M239.176,23.689s1.6-9.313.892-16.011c-.847-4.168-3.9-3.669-4.058.5s-.6,8.031-1.362,15.134" transform="translate(-153.466 -3.133)" fill="#ffc2d6"/>
          <path id="Trazado_891" data-name="Trazado 891" d="M238.5,22.549c.281-1.64.485-3.3.661-4.949a60.554,60.554,0,0,0,.376-9.746,6.777,6.777,0,0,0-1.326-4.314,2.073,2.073,0,0,0-2.789-.416,4.735,4.735,0,0,0-1.5,3.717c-.058,1.284-.127,2.566-.227,3.847-.294,3.77-.733,7.528-1.135,11.288a.723.723,0,0,0,.719.719.735.735,0,0,0,.719-.719c.347-3.244.715-6.487,1.005-9.736.11-1.23.205-2.461.276-3.693a9.471,9.471,0,0,1,.482-3.605,1.819,1.819,0,0,1,.323-.5c.019-.019.22-.193.118-.119.043-.031.3-.151.166-.106a.937.937,0,0,1,.146-.042c.109-.02-.122.014-.013,0a.862.862,0,0,1,.149,0c-.03,0-.144-.034-.011,0a.813.813,0,0,1,.331.156c.972.788,1.064,2.345,1.129,3.517a59.119,59.119,0,0,1-.312,9.125c-.178,1.795-.373,3.433-.673,5.187a.74.74,0,0,0,.5.884.725.725,0,0,0,.884-.5" transform="translate(-152.101 -1.801)"/>
          <path id="Trazado_892" data-name="Trazado 892" d="M221.77,24.276s-.617-9.429-2.864-15.778c-1.795-3.857-4.647-2.659-3.831,1.427s1.669,8.863,2.585,15.948" transform="translate(-140.571 -4.025)" fill="#ffc2d6"/>
          <path id="Trazado_893" data-name="Trazado 893" d="M221.13,22.952c-.1-1.567-.279-3.132-.48-4.689a64.563,64.563,0,0,0-1.78-9.283,8.05,8.05,0,0,0-2.092-4.14,2.2,2.2,0,0,0-3.057-.158c-1.016,1-.957,2.679-.724,3.972.242,1.344.524,2.681.768,4.026.713,3.94,1.3,7.9,1.818,11.871a.742.742,0,0,0,.719.719.723.723,0,0,0,.719-.719c-.45-3.474-.95-6.941-1.542-10.394q-.346-2.014-.731-4.021a8.7,8.7,0,0,1-.354-3.766,1.578,1.578,0,0,1,.214-.513.651.651,0,0,1,.295-.274c.113-.049-.156.065.029-.01a.68.68,0,0,1,.12-.029c-.151.029.069,0,.124.009-.14-.01.129.036.174.052a2.721,2.721,0,0,1,.242.13c1.11.7,1.495,2.246,1.84,3.446a60.7,60.7,0,0,1,1.724,8.651c.229,1.7.424,3.409.537,5.121.06.919,1.5.925,1.438,0" transform="translate(-139.213 -2.7)"/>
          <path id="Trazado_894" data-name="Trazado 894" d="M207.2,39.925a63.06,63.06,0,0,0-4.545-11.072c-2.455-3.474-5.048-1.787-3.514,2.089s2.574,6.784,4.74,13.59" transform="translate(-129.943 -17.636)" fill="#ffc2d6"/>
          <path id="Trazado_895" data-name="Trazado 895" d="M206.528,38.391a78.241,78.241,0,0,0-2.83-7.616,25.953,25.953,0,0,0-1.788-3.628,4.754,4.754,0,0,0-2.773-2.194,2,2,0,0,0-2.239,1.1,4.569,4.569,0,0,0,.054,3.386c.641,1.869,1.429,3.692,2.089,5.556.984,2.776,1.888,5.58,2.781,8.386.28.878,1.669.5,1.387-.382-1.312-4.12-2.657-8.23-4.22-12.263a10.915,10.915,0,0,1-.942-2.935,2.551,2.551,0,0,1,.11-1.059.562.562,0,0,1,.2-.293c.084-.069-.033,0,.1-.063.074-.036-.009,0-.021,0a.834.834,0,0,1,.162-.046c-.015,0,.177,0,.234.011a1.521,1.521,0,0,1,.484.192,4.248,4.248,0,0,1,1.192,1.106,9.463,9.463,0,0,1,.876,1.554c.284.561.553,1.13.811,1.7a72.209,72.209,0,0,1,2.946,7.863c.279.879,1.667.5,1.387-.382" transform="translate(-128.577 -16.293)"/>
          <path id="Trazado_896" data-name="Trazado 896" d="M404.813,367.446c-4.1-5.238-46.345-4.036-46.345-4.036l11.516-44.828a5.582,5.582,0,0,1,5.8-4.734l18.375,1.545c2.992.252,4.451,1.62,5.366,6.119,0,0,5.16,31.243,5.286,45.934" transform="translate(-234.448 -205.254)" fill="#fff"/>
          <path id="Trazado_897" data-name="Trazado 897" d="M358.141,446.435l-1.2,3.41a6.182,6.182,0,0,0,1.776,6.71l3.505,3.049,3.841-11.23" transform="translate(-233.224 -291.981)"/>
          <path id="Trazado_898" data-name="Trazado 898" d="M356.088,444.95l-.834,2.379a9.8,9.8,0,0,0-.736,3.271,6.96,6.96,0,0,0,1.951,4.807c.57.587,1.23,1.1,1.846,1.635l2.043,1.778a.729.729,0,0,0,1.2-.317l3.371-9.856.47-1.374c.3-.877-1.088-1.254-1.387-.382l-3.371,9.856-.47,1.374,1.2-.317c-1.16-1.009-2.328-2.009-3.48-3.027a5.54,5.54,0,0,1-1.917-3.663,7.466,7.466,0,0,1,.574-3.147l.923-2.632c.307-.875-1.082-1.251-1.387-.382" transform="translate(-231.865 -290.687)"/>
          <path id="Trazado_899" data-name="Trazado 899" d="M460.655,450.791l.172,3.858a5.928,5.928,0,0,1-2.593,5.168l-6.494,4.408-7.7-17.027" transform="translate(-290.416 -292.48)"/>
          <path id="Trazado_900" data-name="Trazado 900" d="M458.6,449.443q.069,1.569.139,3.138a11.269,11.269,0,0,1,.016,1.5,5.2,5.2,0,0,1-1.045,2.651,8.887,8.887,0,0,1-2.23,1.831l-3.208,2.177-2.232,1.515.984.258-2.608-5.768-4.136-9.149-.954-2.11a.725.725,0,0,0-.984-.258.736.736,0,0,0-.258.984l2.608,5.768,4.136,9.149.954,2.11a.722.722,0,0,0,.984.258l5.329-3.617a12.609,12.609,0,0,0,2.383-1.837,6.889,6.889,0,0,0,1.718-5.02q-.08-1.79-.159-3.58c-.041-.922-1.479-.927-1.438,0" transform="translate(-289.081 -291.132)"/>
          <path id="Trazado_901" data-name="Trazado 901" d="M459.8,259.725s6.393-1.409,8.419,8.895c10.468,1.555,13.689,13.075,8.222,20.352-26.434-3.647-33.279-6.376-33.279-6.376s2.081-18.57,16.637-22.871" transform="translate(-289.841 -169.825)" fill="#ff3e6c"/>
          <path id="Trazado_902" data-name="Trazado 902" d="M458.626,259.059c.131-.029.194,0-.012,0,.152,0,.313-.031.466-.035a6.267,6.267,0,0,1,.7.027c.052,0,.3.043.055,0,.072.011.144.022.216.035q.231.042.459.1.248.066.489.153c.076.027.152.057.228.087.106.042-.159-.072.008,0l.156.072a6.541,6.541,0,0,1,1.067.644c.112.083.04.03.017.011.055.043.109.087.162.132q.124.1.243.213a7.683,7.683,0,0,1,.56.571,8.3,8.3,0,0,1,.958,1.342,16.076,16.076,0,0,1,1.764,5.033.7.7,0,0,0,.5.5,11.944,11.944,0,0,1,8.436,5.209,12.294,12.294,0,0,1,1.638,9.028,12.732,12.732,0,0,1-2.282,5.058l.812-.33c-7.622-1.053-15.239-2.217-22.782-3.748-3.141-.638-6.3-1.309-9.364-2.25-.379-.116-.764-.231-1.133-.378l.528.693a.66.66,0,0,0,.016-.129c0-.01-.033.226,0,.025.011-.076.022-.153.034-.229.07-.453.152-.9.242-1.353a37.89,37.89,0,0,1,1.23-4.586,27.9,27.9,0,0,1,6.945-11.477,19.049,19.049,0,0,1,7.645-4.429.72.72,0,0,0-.382-1.387,22.1,22.1,0,0,0-12.342,9.857,35.57,35.57,0,0,0-4.386,11.179c-.18.835-.341,1.679-.437,2.528a.73.73,0,0,0,.528.693,31.614,31.614,0,0,0,3.9,1.143c4.821,1.227,9.724,2.136,14.625,2.975s9.826,1.577,14.754,2.257a.773.773,0,0,0,.812-.33A13.914,13.914,0,0,0,478.3,277.94a13.158,13.158,0,0,0-5.2-8.943,13.715,13.715,0,0,0-6.061-2.43l.5.5c-.567-2.839-1.633-5.937-3.949-7.838a6.96,6.96,0,0,0-4.332-1.649,4.641,4.641,0,0,0-1.024.09c-.9.2-.521,1.583.382,1.387" transform="translate(-288.476 -168.466)"/>
          <path id="Trazado_903" data-name="Trazado 903" d="M354.648,440.713l-9.114,33.711,45.414,14.684,6.208-6.392L395.375,440.3" transform="translate(-225.989 -287.969)" fill="#5f5fff"/>
          <path id="Trazado_904" data-name="Trazado 904" d="M352.6,439.211l-.909,3.363-2.172,8.033-2.637,9.756-2.271,8.4c-.368,1.364-.794,2.725-1.109,4.1,0,.019-.01.038-.015.057a.734.734,0,0,0,.5.885l4.535,1.466,10.845,3.506,13.111,4.239,11.333,3.665c1.83.592,3.656,1.275,5.512,1.782.026.007.052.017.078.025a.714.714,0,0,0,.7-.185l3.731-3.842,2.077-2.138c.284-.293.6-.545.608-.987.007-.74-.062-1.489-.093-2.229q-.1-2.42-.2-4.841-.291-6.928-.582-13.856-.295-7.009-.589-14.019c-.1-2.431-.156-4.869-.307-7.3,0-.036,0-.071,0-.106-.039-.922-1.477-.927-1.438,0l.177,4.225q.213,5.072.426,10.144.256,6.112.513,12.224l.445,10.6q.073,1.737.146,3.474c.023.547-.006,1.126.07,1.669,0,.024,0,.05,0,.074l.211-.508-5.443,5.6-.765.788.7-.185-4.535-1.466L374.4,482.131l-13.111-4.239-11.333-3.664-3.728-1.205c-.587-.19-1.183-.438-1.784-.577-.026-.006-.052-.017-.078-.025l.5.884.909-3.363,2.171-8.033,2.638-9.756,2.271-8.4c.369-1.363.794-2.725,1.109-4.1,0-.019.01-.038.016-.057a.72.72,0,0,0-1.387-.382" transform="translate(-224.632 -286.658)"/>
          <path id="Trazado_905" data-name="Trazado 905" d="M368.8,321.13l-.878,3.384a9.09,9.09,0,0,0-4.514,17.4l-5.4,20.813s42.327-1.271,46.426,3.967c-.127-14.69-5.286-45.933-5.286-45.933-.915-4.5-2.374-5.868-5.366-6.12l-23.319-1.96" transform="translate(-234.073 -204.501)" fill="#4dcfd3"/>
          <path id="Trazado_906" data-name="Trazado 906" d="M366.777,319.574l-.878,3.384.693-.528a9.8,9.8,0,0,0-4.877,18.739l-.33-.812-1.835,7.07-2.9,11.168-.668,2.575a.726.726,0,0,0,.693.91c1.4-.042,2.81-.066,4.215-.087q5.135-.076,10.27-.032c4.242.039,8.484.141,12.719.365a111.6,111.6,0,0,1,11.584,1.093,32.777,32.777,0,0,1,4.3.936c.286.087.57.18.851.283.129.047.257.1.385.149.181.071-.078-.036.031.013.064.029.129.057.193.086a6.615,6.615,0,0,1,.623.326c.091.054.179.112.266.171.037.025.072.053.108.078.054.036-.135-.122.006.006a3.248,3.248,0,0,1,.366.371c.4.5,1.233.07,1.228-.508-.03-3.232-.257-6.462-.534-9.681-.325-3.767-.737-7.527-1.191-11.281q-.672-5.551-1.459-11.088-.626-4.451-1.31-8.894-.369-2.4-.757-4.8c-.374-2.3-1.157-5.1-3.364-6.3a11.739,11.739,0,0,0-4.672-.888l-7.305-.614-8.569-.72-5.275-.444-.254-.021c-.922-.077-.917,1.361,0,1.438l3.676.309,8.07.678,7.994.672c1.24.1,2.483.192,3.721.314a4.012,4.012,0,0,1,3.186,1.733,10.61,10.61,0,0,1,1.356,3.91c.216,1.225.4,2.458.587,3.687q.626,4.019,1.206,8.045.751,5.213,1.417,10.438c.474,3.752.91,7.509,1.273,11.273.325,3.37.6,6.75.72,10.134q.037,1.05.048,2.1l1.227-.509a5.658,5.658,0,0,0-2.482-1.519,23.151,23.151,0,0,0-3.913-1.029A92.347,92.347,0,0,0,385.783,361c-4.3-.27-8.609-.4-12.916-.455q-5.444-.074-10.889,0-1.774.022-3.548.059a15.969,15.969,0,0,0-1.678.041c-.024,0-.049,0-.074,0l.693.91,1.835-7.07,2.9-11.168.668-2.575a.727.727,0,0,0-.331-.812,8.377,8.377,0,0,1,4.152-16.059.722.722,0,0,0,.693-.528l.878-3.384a.72.72,0,0,0-1.387-.382" transform="translate(-232.739 -203.137)"/>
          <path id="Trazado_907" data-name="Trazado 907" d="M453.72,296.145l41.053,16.813c13.814,3.192,17.08-4.772,21.434-12.581l20.182-36.194L534.8,253.2,521.749,255.8l-20.62,37.365-33.172-15.623-23.086-2.353" transform="translate(-290.958 -165.599)" fill="#fc7272"/>
          <path id="Trazado_908" data-name="Trazado 908" d="M452.17,295.5l6.415,2.627,14.07,5.762,14.091,5.771,4.677,1.916c.6.244,1.19.533,1.8.738a16.962,16.962,0,0,0,3.175.567,21.349,21.349,0,0,0,3.017.179,13.706,13.706,0,0,0,11.651-6.241,85.727,85.727,0,0,0,5.475-9.338l6.2-11.125,7.858-14.092,4.837-8.675a1.355,1.355,0,0,0,.283-.937c-.085-.605-.176-1.21-.264-1.815l-1.1-7.551-.235-1.616a.731.731,0,0,0-.884-.5l-11.952,2.387c-.473.094-1.233.1-1.525.551-.1.158-.185.336-.276.5l-1.811,3.281-6.812,12.343-7.559,13.7-2.746,4.975c-.448.812-.961,1.615-1.355,2.455-.018.037-.04.072-.06.108l.984-.258-7.993-3.765-15.328-7.219-9.683-4.561a8.03,8.03,0,0,0-2.528-.381l-7.242-.738-13.584-1.385-.263-.027a.724.724,0,0,0-.719.719.735.735,0,0,0,.719.719l7.831.8,12.384,1.262,2.872.293-.363-.1,3.308,1.558,7.9,3.722,9.6,4.521,8.266,3.893c1.347.634,2.687,1.286,4.041,1.9l.057.027a.735.735,0,0,0,.984-.258l2.06-3.733,4.923-8.922,5.952-10.785,5.145-9.323,1.7-3.083a16.127,16.127,0,0,0,.8-1.454c.01-.023.024-.044.036-.065l-.43.33,11.441-2.285,1.605-.32-.884-.5,1.4,9.627.2,1.359.073-.554-2.923,5.242-6.5,11.658-6.84,12.267-3.8,6.822c-2.078,3.726-3.961,7.938-7.386,10.649a12.258,12.258,0,0,1-7.42,2.5A23.58,23.58,0,0,1,493.92,311a3.719,3.719,0,0,1-.647-.207l-7.328-3-12.824-5.252-12.841-5.259-7.379-3.022-.349-.143a.724.724,0,0,0-.884.5.737.737,0,0,0,.5.884" transform="translate(-289.599 -164.26)"/>
          <path id="Trazado_909" data-name="Trazado 909" d="M453.389,345.589l25.528,8.628c-1.207-3.792.772-13.319,2.356-17.329a55.78,55.78,0,0,1,4.634-9.312l-14.76-6.952a20.613,20.613,0,0,0-6.695-1.859l-19.58-2" transform="translate(-290.958 -207.176)" fill="#4dcfd3"/>
          <path id="Trazado_910" data-name="Trazado 910" d="M451.838,344.918l8.657,2.926,13.705,4.632,3.165,1.07a.724.724,0,0,0,.885-.884,11.806,11.806,0,0,1-.319-4.061,39.478,39.478,0,0,1,.646-5.271,52.413,52.413,0,0,1,1.2-5.12,38.884,38.884,0,0,1,1.9-5.038,50.991,50.991,0,0,1,3.492-6.6.723.723,0,0,0-.258-.984l-6.56-3.09-7.968-3.753a22.4,22.4,0,0,0-7.052-2.041c-.678-.077-1.358-.14-2.037-.209l-10.037-1.023-4.906-.5c-.9-.092-1.808-.219-2.712-.276-.042,0-.083-.009-.125-.013a.724.724,0,0,0-.719.719.735.735,0,0,0,.719.719l6.336.646,10.438,1.064,2.673.272a20.144,20.144,0,0,1,6.487,1.785q3.506,1.644,7.005,3.3l4.8,2.259c.929.437,1.85.927,2.8,1.318.046.019.091.043.136.064l-.258-.984a47.49,47.49,0,0,0-7.4,22.2,13.936,13.936,0,0,0,.339,4.992l.884-.885-8.657-2.926L455.386,344.6l-3.165-1.07c-.879-.3-1.256,1.092-.382,1.387" transform="translate(-289.599 -205.812)"/>
          <path id="Trazado_911" data-name="Trazado 911" d="M541.358,412.656c1.157.457,2.986-1.133,4.962-4.031l-5.817-2.382c-.555,3.508-.31,5.953.855,6.414" transform="translate(-353.318 -265.694)"/>
          <path id="Trazado_912" data-name="Trazado 912" d="M539.807,411.973a3.018,3.018,0,0,0,2.782-.868,15.776,15.776,0,0,0,2.992-3.494.729.729,0,0,0-.43-1.056l-5.078-2.08-.739-.3a.72.72,0,0,0-.884.5,16.374,16.374,0,0,0-.208,4.808,2.9,2.9,0,0,0,1.565,2.49.723.723,0,0,0,.884-.5.737.737,0,0,0-.5-.885c.2.085-.005-.022-.056-.051.165.092,0-.01-.056-.065-.036-.035-.1-.152-.008,0-.018-.028-.039-.054-.056-.083-.043-.077-.088-.153-.127-.231-.081-.16.04.139-.017-.039-.012-.038-.028-.075-.04-.113-.034-.1-.063-.2-.089-.306s-.051-.225-.072-.339c-.013-.072-.025-.145-.035-.218.013.1,0-.044-.007-.077a16.08,16.08,0,0,1,.209-4l-.884.5,5.078,2.08.739.3-.43-1.056a15.325,15.325,0,0,1-2.583,3.05,3.652,3.652,0,0,1-.484.362q-.139.09-.284.167c-.052.028-.276.12-.129.066a2.485,2.485,0,0,1-.261.084c-.042.01-.084.018-.126.026-.081.017.167.009.021-.006-.042,0-.255-.012-.137,0s-.121-.037-.166-.054a.725.725,0,0,0-.884.5.734.734,0,0,0,.5.884" transform="translate(-351.958 -264.318)"/>
          <path id="Trazado_913" data-name="Trazado 913" d="M597.518,253.2,584.472,255.8l-20.621,37.365-9.108-4.289L548.629,286A55.746,55.746,0,0,0,544,295.31a60.145,60.145,0,0,0-3.222,11.608l6.649,2.759,13.306,5.978c13.814,3.192,17.08-4.772,21.434-12.581l16.95-38.891Z" transform="translate(-353.681 -165.599)" fill="#ffc2d6"/>
          <path id="Trazado_914" data-name="Trazado 914" d="M595.989,251.152l-12.008,2.4c-.464.093-1.184.1-1.47.541-.108.165-.193.35-.289.523l-1.822,3.3-6.8,12.327L566.06,283.9l-2.764,5.008c-.444.8-.956,1.6-1.344,2.435-.017.036-.039.071-.058.106l.984-.258-6.595-3.106-5.144-2.423-3.484-1.641a.739.739,0,0,0-.984.258,57.459,57.459,0,0,0-7.026,16.786c-.357,1.422-.67,2.857-.9,4.3a.75.75,0,0,0,.5.884l4.536,1.883c.678.282,1.356.566,2.035.844.22.09-.241-.11-.007,0,.165.076.332.149.5.223l10.477,4.707,1.822.818a9.12,9.12,0,0,0,2.191.591,18.787,18.787,0,0,0,9-.257,13.519,13.519,0,0,0,5.849-3.84,31.545,31.545,0,0,0,4.045-5.949c.647-1.156,1.372-2.3,1.9-3.517l1.008-2.312L586.711,290l5.263-12.076,4.539-10.415,1.389-3.188a3.768,3.768,0,0,0,.565-1.683c-.461-3.294-.956-6.584-1.433-9.876l-.161-1.11a.724.724,0,0,0-.884-.5.737.737,0,0,0-.5.884l1.4,9.622.2,1.363q.036-.277.072-.554l-1.512,3.469-3.69,8.466-4.581,10.512-4.228,9.7-2.625,6.022c-.212.487-.431.93-.689,1.4-1.031,1.871-2.028,3.766-3.2,5.552a17.3,17.3,0,0,1-3.81,4.307,11.8,11.8,0,0,1-5.6,2.282,17.761,17.761,0,0,1-3.943.044c-.749-.067-1.492-.174-2.231-.309-.386-.071-.771-.175-1.158-.235-.359-.056-.037.027-.165-.012a8.668,8.668,0,0,1-.918-.412l-1.891-.85-9.48-4.259c-2.194-.986-4.432-1.874-6.654-2.8l-1.146-.475.5.885a57.615,57.615,0,0,1,5.483-16.668,46.5,46.5,0,0,1,2.3-4.08l-.984.258,6.1,2.873,6.324,2.979,2.8,1.318a.734.734,0,0,0,.984-.258l2.06-3.732,4.923-8.921,5.952-10.785,5.146-9.324,1.7-3.083a15.79,15.79,0,0,0,.8-1.455.635.635,0,0,1,.036-.065l-.43.33,11.419-2.281,1.627-.325c.907-.181.523-1.568-.382-1.387" transform="translate(-352.343 -164.246)"/>
          <path id="Trazado_915" data-name="Trazado 915" d="M657.647,237.55l1.761-3.175a32.963,32.963,0,0,0,2.836-6.824c.534-1.847,1.163-4.269,1.763-7.184,0,0,1.035-5.028,2.872-3.977s2.295,5.761,2.295,5.761,2.477-6.73,6.875-4.641c4.314,2.049,11.75,6.616,5.425,15.005a4.076,4.076,0,0,0-.58,1.058c-.556,1.529-2.342,5.724-5.41,6.361" transform="translate(-430.12 -141.432)" fill="#ffc2d6"/>
          <path id="Trazado_916" data-name="Trazado 916" d="M656.911,236.555c.638-1.15,1.286-2.3,1.913-3.451a39.517,39.517,0,0,0,3.375-8.97c.418-1.607.785-3.225,1.129-4.849a14.506,14.506,0,0,1,.375-1.417,9.372,9.372,0,0,1,.4-1.058,5.957,5.957,0,0,1,.285-.546,1.8,1.8,0,0,1,.277-.4c.051-.054.1-.107.157-.158.1-.092.019-.017,0,0,.031-.021.063-.044.1-.062.169-.094-.026-.011.08-.035.141-.031-.025-.007-.033,0,.022-.015.177.018.068-.008-.135-.032.2.072.1.03-.043-.018.146.092.184.12a1.02,1.02,0,0,1,.114.105c.055.057.2.211.2.217a7.424,7.424,0,0,1,1.165,2.95q.153.674.253,1.358c.009.059.042.311.014.088.007.056.015.113.021.17s.012.1.017.154a.723.723,0,0,0,1.412.191c.012-.033.025-.065.038-.1s.031-.076.047-.115c.044-.112-.066.153-.028.067.018-.04.035-.081.053-.121.146-.326.3-.646.473-.959a8.352,8.352,0,0,1,1.789-2.367,3.161,3.161,0,0,1,2.576-.891,9.747,9.747,0,0,1,3.024,1.4c2,1.169,4.081,2.759,4.945,4.961a6.1,6.1,0,0,1,.24,3.678,9.337,9.337,0,0,1-.881,2.265c-.473.877-1.141,1.629-1.618,2.5-.326.592-.517,1.262-.76,1.8a15.488,15.488,0,0,1-1.051,1.959,5.837,5.837,0,0,1-3.419,2.822c-.9.2-.521,1.586.382,1.387,2.988-.662,4.734-3.844,5.762-6.466a5.871,5.871,0,0,1,.4-.907c.289-.482.658-.917.964-1.39a12.9,12.9,0,0,0,1.327-2.652,7.933,7.933,0,0,0,.286-4.6c-.682-2.7-2.872-4.713-5.141-6.163a19.49,19.49,0,0,0-3.317-1.761,4.305,4.305,0,0,0-3.834.356,9.678,9.678,0,0,0-3.646,4.91l1.412.191a13.243,13.243,0,0,0-1.3-4.86c-.436-.822-1.218-1.8-2.25-1.764A2.578,2.578,0,0,0,663,215.8a21.929,21.929,0,0,0-1.544,5.337,47.345,47.345,0,0,1-2.983,9.479c-.833,1.785-1.844,3.489-2.8,5.21-.449.81.792,1.536,1.242.726" transform="translate(-428.763 -140.073)"/>
          <path id="Trazado_917" data-name="Trazado 917" d="M723.8,233.57a63.069,63.069,0,0,1,9.5-7.282c3.869-1.767,5.261,1,1.986,3.574s-5.637,4.568-10.935,9.36" transform="translate(-473.384 -147.633)" fill="#ffc2d6"/>
          <path id="Trazado_918" data-name="Trazado 918" d="M722.913,232.722c1.848-1.677,3.762-3.29,5.768-4.775,1.033-.765,2.092-1.5,3.194-2.163a3.641,3.641,0,0,1,2.752-.607,1.839,1.839,0,0,1,.2.114c.03.026.16.179.077.078.092.112.038.057.064.124.015.037.041.2.026.076a1.306,1.306,0,0,1,0,.254.449.449,0,0,1-.022.119,2.306,2.306,0,0,1-.085.286,5.925,5.925,0,0,1-2.057,2.2q-2.111,1.672-4.162,3.418c-2.108,1.8-4.17,3.651-6.226,5.51-.688.622.331,1.636,1.017,1.017,3.449-3.12,6.932-6.2,10.582-9.081a6.349,6.349,0,0,0,2.232-2.681,2.149,2.149,0,0,0-.508-2.4,3.3,3.3,0,0,0-3.009-.358,12.238,12.238,0,0,0-3.573,1.969,72.779,72.779,0,0,0-7.291,5.886c-.687.623.332,1.637,1.017,1.017" transform="translate(-471.991 -146.278)"/>
          <path id="Trazado_919" data-name="Trazado 919" d="M695.874,198.583c1.679-6.943,2.514-9.907,3.768-13.882s-1.451-5.474-3.654-1.835c-2.922,6.068-5.025,16.1-5.025,16.1s9.358,6.78,7.137,11.835" transform="translate(-451.91 -118.245)" fill="#ffc2d6"/>
          <path id="Trazado_920" data-name="Trazado 920" d="M695.22,197.46c.786-3.251,1.587-6.5,2.508-9.716q.517-1.8,1.081-3.6c.423-1.354.876-2.977.139-4.314a2.1,2.1,0,0,0-2.993-.71c-1.43.81-2.108,2.368-2.712,3.811a72.025,72.025,0,0,0-2.99,9.073c-.487,1.806-.945,3.623-1.329,5.454a.754.754,0,0,0,.33.812c.078.057.156.116.233.175.042.031.208.162.015.011l.128.1q.192.152.382.306,1.057.858,2.039,1.8a15.388,15.388,0,0,1,3.966,5.371,4.2,4.2,0,0,1,.116,3.085.744.744,0,0,0,.258.984.724.724,0,0,0,.984-.258c1.01-2.363.017-4.83-1.368-6.816a25.657,25.657,0,0,0-4.709-4.966c-.429-.357-.866-.709-1.317-1.037l.33.812a90.856,90.856,0,0,1,3.46-12.317c.256-.706.525-1.407.814-2.1a10.228,10.228,0,0,1,.956-1.939,3.562,3.562,0,0,1,1.275-1.2.717.717,0,0,1,.519-.085c-.175-.022.167.066.01,0a.773.773,0,0,1,.114.06c.138.088-.055-.051.063.045a.9.9,0,0,1,.24.366,2.373,2.373,0,0,1,.134.832,6.75,6.75,0,0,1-.413,2.068q-.534,1.7-1.032,3.41c-.966,3.338-1.8,6.713-2.615,10.09-.218.9,1.169,1.283,1.387.382" transform="translate(-450.562 -116.932)"/>
          <path id="Trazado_921" data-name="Trazado 921" d="M705.2,201.756s3.3-8.852,7.285-14.285c2.829-3.176,5.216-1.209,3.258,2.47s-3.521,7.244-6.438,13.764" transform="translate(-461.222 -121.57)" fill="#ffc2d6"/>
          <path id="Trazado_922" data-name="Trazado 922" d="M704.52,200.61a70.309,70.309,0,0,1,5.367-11.3,11.709,11.709,0,0,1,2.608-3.505,2.117,2.117,0,0,1,1.38-.541c-.126-.014.12.036.15.048-.15-.06.153.11.028.014a.6.6,0,0,1,.235.332c.372,1.127-.464,2.427-.983,3.427-.559,1.077-1.094,2.166-1.615,3.262-1.517,3.192-2.936,6.432-4.378,9.658a.741.741,0,0,0,.258.984.724.724,0,0,0,.984-.258c1.4-3.128,2.776-6.267,4.24-9.365.55-1.164,1.116-2.321,1.708-3.465.677-1.309,1.488-2.684,1.26-4.218a2.062,2.062,0,0,0-2.462-1.814c-1.549.26-2.65,1.63-3.473,2.849A57.492,57.492,0,0,0,705.332,195c-.785,1.717-1.538,3.457-2.2,5.226a.725.725,0,0,0,.5.884.734.734,0,0,0,.884-.5" transform="translate(-459.846 -120.232)"/>
          <path id="Trazado_923" data-name="Trazado 923" d="M716.914,212.662s5.277-7.838,10.413-12.194c3.491-2.43,5.354.04,2.592,3.161s-5.9,6.82-10.257,12.481" transform="translate(-468.882 -130.469)" fill="#ffc2d6"/>
          <path id="Trazado_924" data-name="Trazado 924" d="M716.127,211.67a69.147,69.147,0,0,1,8.147-10.042,9.219,9.219,0,0,1,3.468-2.66,2.436,2.436,0,0,1,.665-.119,1.037,1.037,0,0,1,.439.085c.151.075.053.02.119.087.146.147-.044-.065.033.033a.52.52,0,0,1,.067.115c.044.107-.031-.095.007.018a1.373,1.373,0,0,1,.046.173c-.018-.09.007.188.005.235-.046,1.162-1.147,2.2-1.9,3.055q-1.26,1.438-2.493,2.9c-2.439,2.889-4.792,5.849-7.1,8.844a.723.723,0,0,0,.258.984.738.738,0,0,0,.984-.258q3.274-4.253,6.719-8.371,1.325-1.574,2.681-3.12c.933-1.065,2.02-2.166,2.241-3.629a2.092,2.092,0,0,0-1.633-2.543c-1.557-.26-3.036.738-4.131,1.725a55.806,55.806,0,0,0-6.4,7.063c-1.2,1.53-2.377,3.087-3.465,4.7-.519.769.727,1.49,1.242.726" transform="translate(-467.474 -129.114)"/>
          <path id="Trazado_925" data-name="Trazado 925" d="M441.806,121.394a7.128,7.128,0,1,1-8.152-5.93,7.128,7.128,0,0,1,8.152,5.93" transform="translate(-279.686 -75.459)" fill="#5f5fff"/>
          <path id="Trazado_926" data-name="Trazado 926" d="M439.788,120.251a6.416,6.416,0,1,1-6.018-5.483,6.473,6.473,0,0,1,6.018,5.483.724.724,0,0,0,.884.5.736.736,0,0,0,.5-.884,7.844,7.844,0,1,0-4.981,8.648,7.9,7.9,0,0,0,4.981-8.648.724.724,0,0,0-.885-.5.737.737,0,0,0-.5.884" transform="translate(-278.361 -74.125)"/>
          <path id="Trazado_927" data-name="Trazado 927" d="M134.773,166.443c-1.031-6.531,2.994-12.593,8.989-13.539-5.995.946-11.69-3.582-12.721-10.113,1.031,6.532-2.994,12.593-8.989,13.539,6-.946,11.69,3.582,12.721,10.113" transform="translate(-79.825 -93.389)" fill="#ff3e6c"/>
          <path id="Trazado_928" data-name="Trazado 928" d="M134.113,164.9a11.334,11.334,0,0,1,5.009-11.4,9.8,9.8,0,0,1,3.477-1.252.725.725,0,0,0,.5-.885.738.738,0,0,0-.885-.5c-4.4.668-8.578-1.955-10.591-5.787a12.52,12.52,0,0,1-1.245-3.824.724.724,0,0,0-.884-.5.737.737,0,0,0-.5.884,11.333,11.333,0,0,1-5.009,11.4,9.8,9.8,0,0,1-3.478,1.252.724.724,0,0,0-.5.884.737.737,0,0,0,.884.5c4.4-.668,8.578,1.956,10.591,5.787a12.521,12.521,0,0,1,1.245,3.824.724.724,0,0,0,.885.5.736.736,0,0,0,.5-.884c-.8-4.926-4.424-9.375-9.4-10.491a11.315,11.315,0,0,0-4.207-.124l.382,1.386a11.9,11.9,0,0,0,9.478-9.893,14.2,14.2,0,0,0,.013-4.53l-1.387.382c.8,4.926,4.424,9.375,9.4,10.492a11.322,11.322,0,0,0,4.207.124l-.382-1.387a11.9,11.9,0,0,0-9.478,9.893,14.225,14.225,0,0,0-.013,4.53.724.724,0,0,0,.885.5.737.737,0,0,0,.5-.884" transform="translate(-78.472 -92.037)"/>
          <path id="Trazado_929" data-name="Trazado 929" d="M636.383,132.491c-1.031-6.531,2.994-12.593,8.989-13.539-5.995.946-11.69-3.582-12.721-10.113,1.031,6.532-2.994,12.593-8.989,13.539,5.995-.946,11.69,3.582,12.721,10.113" transform="translate(-407.892 -71.184)" fill="#ff3e6c"/>
          <path id="Trazado_930" data-name="Trazado 930" d="M635.723,130.948a11.334,11.334,0,0,1,5.009-11.4,9.806,9.806,0,0,1,3.477-1.252.725.725,0,0,0,.5-.885.737.737,0,0,0-.885-.5c-4.4.668-8.578-1.955-10.591-5.787a12.52,12.52,0,0,1-1.246-3.824.724.724,0,0,0-.884-.5.736.736,0,0,0-.5.884,11.334,11.334,0,0,1-5.009,11.4,9.807,9.807,0,0,1-3.478,1.252.724.724,0,0,0-.5.884.737.737,0,0,0,.884.5c4.4-.668,8.578,1.956,10.591,5.787a12.522,12.522,0,0,1,1.245,3.824.724.724,0,0,0,.885.5.736.736,0,0,0,.5-.884c-.8-4.926-4.424-9.375-9.4-10.491a11.315,11.315,0,0,0-4.207-.124q.192.693.382,1.386a11.9,11.9,0,0,0,9.478-9.893,14.2,14.2,0,0,0,.013-4.53l-1.386.382c.8,4.926,4.424,9.376,9.4,10.492a11.322,11.322,0,0,0,4.207.124l-.382-1.387a11.9,11.9,0,0,0-9.477,9.893,14.221,14.221,0,0,0-.014,4.53.724.724,0,0,0,.885.5.737.737,0,0,0,.5-.884" transform="translate(-406.539 -69.831)"/>
          <path id="Trazado_931" data-name="Trazado 931" d="M558.568,47.962c-1.216-7.708,3.533-14.862,10.609-15.978-7.075,1.116-13.8-4.227-15.013-11.936,1.216,7.708-3.533,14.862-10.609,15.978,7.075-1.116,13.8,4.227,15.013,11.936" transform="translate(-355.5 -13.112)" fill="#ff3e6c"/>
          <path id="Trazado_932" data-name="Trazado 932" d="M557.908,46.418c-.8-5.21,1.368-10.857,5.989-13.614a11.647,11.647,0,0,1,4.118-1.48.725.725,0,0,0,.5-.885.737.737,0,0,0-.884-.5c-5.256.8-10.258-2.323-12.656-6.909A14.858,14.858,0,0,1,553.5,18.5a.725.725,0,0,0-.885-.5.737.737,0,0,0-.5.884c.8,5.21-1.368,10.858-5.989,13.614a11.649,11.649,0,0,1-4.118,1.48.724.724,0,0,0-.5.884.736.736,0,0,0,.884.5c5.256-.8,10.257,2.323,12.656,6.909a14.851,14.851,0,0,1,1.472,4.525.724.724,0,0,0,.885.5.736.736,0,0,0,.5-.884c-.935-5.776-5.179-10.988-11.011-12.293a13.145,13.145,0,0,0-4.886-.144l.382,1.386c5.808-.945,10.148-5.9,11.1-11.6A16.543,16.543,0,0,0,553.5,18.5l-1.387.382c.935,5.776,5.179,10.988,11.011,12.294a13.153,13.153,0,0,0,4.886.144q-.192-.693-.382-1.387c-5.808.945-10.148,5.9-11.1,11.6a16.543,16.543,0,0,0-.014,5.267.724.724,0,0,0,.885.5.737.737,0,0,0,.5-.884" transform="translate(-354.147 -11.759)"/>
          <line id="Línea_29" data-name="Línea 29" x2="0.091" y2="15.821" transform="translate(142.848 158.824)" fill="#fff"/>
          <path id="Trazado_933" data-name="Trazado 933" d="M410.811,457.753q.015,2.661.03,5.322.025,4.269.049,8.539.006.98.011,1.96a.719.719,0,0,0,1.438,0q-.015-2.661-.03-5.322-.025-4.269-.049-8.539-.006-.98-.011-1.96a.719.719,0,0,0-1.438,0" transform="translate(-268.682 -298.929)"/>
          <path id="Trazado_934" data-name="Trazado 934" d="M398.676,455.747q.037,2.547.074,5.093c.01.664.012,1.328.029,1.992a5.8,5.8,0,0,0,2,4.3,23.86,23.86,0,0,0,2.514,1.683c.781.5,1.5-.743.726-1.242-.617-.4-1.239-.786-1.851-1.189a4.357,4.357,0,0,1-1.954-3.547c-.041-1.68-.049-3.361-.073-5.042q-.015-1.024-.03-2.048a.719.719,0,0,0-1.438,0" transform="translate(-260.745 -297.617)"/>
          <path id="Trazado_935" data-name="Trazado 935" d="M84.987,243.779a36.761,36.761,0,0,0-6.881-3.747c-3.285-1.375-7.918-2.714-10.928-.037-1.047.931-2.1,2.58-1.813,4.051a2.343,2.343,0,0,0,2.318,1.753,4.137,4.137,0,0,0,3.06-1.216,4.323,4.323,0,0,0,1.061-3.9,10.175,10.175,0,0,0-2.661-4.824,13.089,13.089,0,0,0-4.889-3.079,16.627,16.627,0,0,0-2.321-.694c-.9-.2-1.286,1.184-.382,1.387a15.013,15.013,0,0,1,3.9,1.425,13.488,13.488,0,0,1,1.3.8,8.183,8.183,0,0,1,.816.637,9.858,9.858,0,0,1,2.473,3.447,6.411,6.411,0,0,1,.346,1.08c.02.09.036.18.052.27.02.117,0-.057.017.135a4.909,4.909,0,0,1,.02.494c0,.079-.006.156-.011.235,0,.03-.027.231-.012.13s-.018.094-.024.122c-.019.087-.039.174-.064.26a3.325,3.325,0,0,1-.119.341c.073-.178-.008.012-.032.056-.036.065-.069.13-.107.194s-.24.341-.12.191a3.562,3.562,0,0,1-.25.281c-.088.087-.181.168-.276.247.15-.125-.12.082-.189.124-.1.059-.194.112-.294.164-.021.011-.21.1-.1.047s-.084.032-.118.044a3.844,3.844,0,0,1-.64.162c.2-.034-.051,0-.155.008s-.223,0-.335-.006-.094-.015.02.007c-.049-.009-.1-.015-.147-.026-.094-.022-.186-.054-.279-.079-.167-.043.1.059.009.006-.039-.023-.083-.04-.122-.063s-.066-.044-.1-.063c-.11-.061.1.12,0,0-.036-.042-.2-.217-.124-.12s-.067-.129-.1-.186c.108.2.01-.021-.02-.115s0-.09,0,.024c0-.06-.009-.119-.009-.179s.006-.1.006-.147c0-.191-.024.087,0-.03s.055-.257.094-.384c.022-.069.047-.137.072-.205.045-.123,0-.011-.007.012.016-.037.032-.074.049-.109.076-.156.154-.31.242-.459a4.8,4.8,0,0,1,.656-.907,4.25,4.25,0,0,1,1.76-1.13,6.036,6.036,0,0,1,2.274-.288,15.936,15.936,0,0,1,5.166,1.238,41.968,41.968,0,0,1,7.078,3.787c.04.025.078.054.117.081.76.532,1.479-.714.726-1.242" transform="translate(-39.919 -151.775)"/>
          <path id="Trazado_936" data-name="Trazado 936" d="M402.105,313.6l26.848,2.324s-2.114,11.513-19.222,9.8c-7.5-1.823-7.626-12.127-7.626-12.127" transform="translate(-262.988 -205.104)" fill="#ffc2d6"/>
          <path id="Trazado_937" data-name="Trazado 937" d="M400.746,312.956l9.1.788,14.414,1.248,3.329.288-.693-.91a5.944,5.944,0,0,1-.2.738q-.063.192-.133.383-.037.1-.076.2c-.02.052-.115.283-.071.176s-.048.111-.069.157q-.058.129-.118.256-.131.275-.275.542a12.533,12.533,0,0,1-.725,1.18q-.1.144-.2.286l-.116.155c-.072.1.06-.073-.043.055-.172.214-.347.424-.531.628a11.964,11.964,0,0,1-2.809,2.317,19.3,19.3,0,0,1-10.427,2.369,10.7,10.7,0,0,1-3.415-.4,7.284,7.284,0,0,1-2.082-1.168,9.932,9.932,0,0,1-2.759-3.766,17.07,17.07,0,0,1-1.137-3.912q-.037-.213-.07-.426c-.009-.058-.017-.116-.026-.174-.006-.037-.011-.075-.016-.113-.015-.106.017.13,0,.027-.029-.227-.055-.454-.076-.681-.026-.28-.041-.559-.057-.839,0-.039,0-.079,0-.118a.719.719,0,0,0-1.438,0,18.033,18.033,0,0,0,1.119,5.837,12.732,12.732,0,0,0,2.566,4.363,8.23,8.23,0,0,0,5.016,2.68,23.386,23.386,0,0,0,12.353-1.792,13.959,13.959,0,0,0,5.721-5.094,10.617,10.617,0,0,0,1.474-3.423c0-.018.008-.037.011-.055a.733.733,0,0,0-.693-.91l-9.105-.788-14.414-1.248-3.329-.288c-.922-.08-.917,1.359,0,1.438" transform="translate(-261.629 -203.739)"/>
          <path id="Trazado_938" data-name="Trazado 938" d="M332.156,98.414a18.7,18.7,0,0,0,2.216-9.434,12.7,12.7,0,0,0-1.061-4.3.7.7,0,0,0-.621-.356,25.124,25.124,0,0,0-4.108.49c-.425.1-.951.265-1.083.741a1.06,1.06,0,0,0,.045.563c.081.325.144.654.2.984a15.725,15.725,0,0,1,.118,3.683,12.4,12.4,0,0,1-1.947,5.692.726.726,0,0,0,.258.984,11.019,11.019,0,0,0,5.366,1.313.719.719,0,0,0,0-1.438,9.522,9.522,0,0,1-4.64-1.117l.258.984a14.516,14.516,0,0,0,2.131-9.265,10.407,10.407,0,0,0-.378-2.3c-.036-.107,0-.165,0,.112a.7.7,0,0,1-.186.471c-.051.051-.189.127-.045.05-.225.119-.029.013.092-.022a18.513,18.513,0,0,1,3.918-.489l-.621-.356a11.961,11.961,0,0,1,.718,6.718A18.331,18.331,0,0,1,332.1,94.9a17.473,17.473,0,0,1-.747,1.914c-.137.3-.278.593-.441.876a.72.72,0,0,0,1.242.726" transform="translate(-213.091 -55.148)"/>
          <path id="Trazado_939" data-name="Trazado 939" d="M30.556,362.578a16.691,16.691,0,0,0,3.12-.249,16.9,16.9,0,0,0,6.173-2.162,12.233,12.233,0,0,0,3.261-2.853.748.748,0,0,0,.112-.872,23.178,23.178,0,0,0-2.408-3.456c-.324-.354-.806-.739-1.3-.449a2.907,2.907,0,0,0-.391.333c-.111.1-.224.188-.337.281l-.106.084c-.09.071.139-.105-.016.013-.1.079-.209.157-.314.233a15,15,0,0,1-3.314,1.83,12.567,12.567,0,0,1-5.737.838.727.727,0,0,0-.719.719,11.028,11.028,0,0,0,1.359,5.354c.441.813,1.683.089,1.241-.726a9.549,9.549,0,0,1-1.162-4.628l-.719.719a14.472,14.472,0,0,0,9.013-2.346,14.735,14.735,0,0,0,1.945-1.455c.02-.018.119-.084.121-.111-.011.124-.391.2-.483.2-.057,0-.373-.118-.272-.058.117.069-.117-.118-.062-.05.026.032.066.055.094.085a7.7,7.7,0,0,1,.727.885c.568.787,1.089,1.608,1.6,2.431q.056-.435.112-.871a12.094,12.094,0,0,1-5.636,3.872,17.74,17.74,0,0,1-4.907.951c-.33.018-.663.031-.994.02-.925-.033-.924,1.405,0,1.438" transform="translate(-18.688 -230.503)"/>
          <path id="Trazado_940" data-name="Trazado 940" d="M746.915,282.731a16.7,16.7,0,0,0,2.512,1.875,16.894,16.894,0,0,0,6.095,2.438,12.7,12.7,0,0,0,4.494-.027.7.7,0,0,0,.5-.5,22.716,22.716,0,0,0,.469-4.215c-.014-.47-.093-1.063-.632-1.211a2.15,2.15,0,0,0-.546-.02c-.368,0-.735-.022-1.1-.055a15.208,15.208,0,0,1-3.6-.787,12.3,12.3,0,0,1-4.85-3.1.726.726,0,0,0-1.017,0,10.982,10.982,0,0,0-2.513,4.909c-.2.9,1.185,1.287,1.386.382a9.534,9.534,0,0,1,2.143-4.274h-1.017a14.44,14.44,0,0,0,8.3,4.17,14.9,14.9,0,0,0,2.425.2c.437-.006-.16-.068-.3-.206a.7.7,0,0,1-.146-.241.509.509,0,0,1,.019.075c.028.126-.006-.232,0-.026a23.867,23.867,0,0,1-.408,4.023l.5-.5a12.09,12.09,0,0,1-6.741-.839,17.241,17.241,0,0,1-2.508-1.283q-.527-.322-1.034-.676-.195-.136-.387-.278l-.188-.14-.076-.057c-.072-.055.085.067-.021-.016-.255-.2-.511-.4-.748-.627-.676-.631-1.695.383-1.017,1.017" transform="translate(-488.357 -181.11)"/>
          <path id="Trazado_941" data-name="Trazado 941" d="M702.444,83.126a2.454,2.454,0,1,1-4.684-.685,2.457,2.457,0,0,1,4.684.685.724.724,0,0,0,.884.5.735.735,0,0,0,.5-.884,3.885,3.885,0,0,0-7.185-1.265,3.938,3.938,0,0,0,.419,4.486,3.9,3.9,0,0,0,4.259,1.12,3.948,3.948,0,0,0,2.507-4.341.724.724,0,0,0-.885-.5.738.738,0,0,0-.5.884" transform="translate(-455.289 -52.029)"/>
          <path id="Trazado_942" data-name="Trazado 942" d="M436.013,300.257l.547-14.318-12.4,3.962-.928,9.367" transform="translate(-276.803 -187.012)" fill="#ffc2d6"/>
          <path id="Trazado_943" data-name="Trazado 943" d="M435.369,298.891q.239-6.266.479-12.531l.069-1.787a.724.724,0,0,0-.91-.693l-10.852,3.466-1.553.5a.75.75,0,0,0-.528.693l-.813,8.211q-.058.578-.115,1.156a.724.724,0,0,0,.719.719.735.735,0,0,0,.719-.719q.406-4.106.813-8.211.057-.578.115-1.156l-.528.693,10.852-3.466,1.553-.5-.91-.693q-.239,6.265-.479,12.531-.034.894-.068,1.787c-.036.925,1.4.924,1.438,0" transform="translate(-275.44 -185.646)"/>
          <path id="Trazado_944" data-name="Trazado 944" d="M312.665,208.938a2.454,2.454,0,1,1-4.684-.685,2.457,2.457,0,0,1,4.684.685.725.725,0,0,0,.884.5.735.735,0,0,0,.5-.884,3.884,3.884,0,1,0-2.507,4.341,3.948,3.948,0,0,0,2.507-4.341.724.724,0,0,0-.885-.5.738.738,0,0,0-.5.884" transform="translate(-200.363 -134.314)"/>
          <path id="Trazado_945" data-name="Trazado 945" d="M414.315,13.556a8.171,8.171,0,0,0,.483-2.992,5.762,5.762,0,0,0-2.634-4.895c-1.082-.685-3.058-1.476-3.971-.1a2.8,2.8,0,0,0,.318,3,3.78,3.78,0,0,0,3.423,1.672c2.118-.191,3.956-1.859,5.148-3.51a4.036,4.036,0,0,0-.291-5.366c-.916-.913-2.76-1.893-4.007-1.042-1.55,1.058-.139,3.329.778,4.283a4.629,4.629,0,0,0,5.5,1.219,5.248,5.248,0,0,0,1.429-1.178c.609-.693-.4-1.714-1.017-1.017a3.232,3.232,0,0,1-2.128,1.242,3.28,3.28,0,0,1-2.044-.653,4.761,4.761,0,0,1-1.393-1.5,2.241,2.241,0,0,1-.319-.743c-.006-.025-.047-.235-.035-.146s-.005-.077-.005-.105a1.813,1.813,0,0,1,.007-.188c-.018.168-.018.018.021-.028-.028.033.016.09.014-.011,0,.032-.083.131-.005.015.047-.069-.094.026-.011.009.169-.034-.07,0,.029-.019.045-.011.091-.023.136-.036.114-.031-.145,0,.032,0,.053,0,.107,0,.16,0s.208.019.062,0a2.787,2.787,0,0,1,.387.085c.073.021.144.046.215.07.032.011.062.023.093.036.107.042-.091-.042.015.007a4.275,4.275,0,0,1,.4.211q.092.056.182.116c.03.02.22.159.149.1a2.5,2.5,0,0,1,.737,3.389,8.121,8.121,0,0,1-2.134,2.349,4.692,4.692,0,0,1-1.834.928c-.068.016-.136.029-.2.042-.085.015.011,0,.024,0-.043.006-.087.011-.131.014a3.624,3.624,0,0,1-.411.009c-.071,0-.141-.009-.212-.017.129.015.019,0-.043-.01-.131-.03-.258-.063-.386-.1-.053-.017-.105-.038-.157-.059.162.066-.017-.011-.053-.031-.111-.062-.218-.124-.324-.193-.022-.014-.153-.112-.078-.053s-.051-.043-.07-.061c-.089-.082-.178-.164-.259-.254-.041-.044-.078-.09-.117-.135-.088-.1.065.1-.011-.015-.065-.1-.13-.191-.187-.291s-.1-.184-.141-.279c-.018-.039.046.135,0,0-.019-.058-.04-.114-.058-.173-.025-.085-.041-.171-.063-.256-.043-.168,0,.124,0,0,0-.047-.008-.095-.01-.143,0-.085.006-.168.009-.253-.01.22.017,0,.036-.094s-.075.138-.02.043a.577.577,0,0,0,.058-.1c.031-.107-.044.05-.032.038.027-.029.056-.056.082-.084.066-.072-.145.085-.022.02.031-.017.061-.036.093-.052-.01,0-.145.019-.016.012a.82.82,0,0,0,.136-.031s-.156,0,0,.005c.046,0,.093,0,.139,0s.1.007.149.012c-.168-.016.007,0,.078.02a4.167,4.167,0,0,1,.885.326,4.351,4.351,0,0,1,1.855,1.639,3.678,3.678,0,0,1,.4.913q.075.253.125.513a2.885,2.885,0,0,1,.061.434,7.044,7.044,0,0,1,.012,1.007c-.008.138-.021.276-.034.414,0,.044-.01.088-.016.132,0-.011.016-.115,0-.031s-.022.144-.034.215A8.068,8.068,0,0,1,412.988,13c-.019.057-.038.115-.06.172a.725.725,0,0,0,.5.884.735.735,0,0,0,.884-.5" transform="translate(-266.764 -0.001)"/>
          <path id="Trazado_946" data-name="Trazado 946" d="M545.815,219.444l1.641-8.5q.117-.607.234-1.213l-.884.5,6.238,1.421-.317-1.2-7.1,7.265-1.007,1.031c-.648.662.368,1.68,1.017,1.017l7.1-7.265,1.008-1.031a.726.726,0,0,0-.317-1.2l-6.238-1.421a.728.728,0,0,0-.885.5l-1.64,8.5-.234,1.213c-.174.9,1.211,1.292,1.387.382" transform="translate(-356.057 -136.577)"/>
          <path id="Trazado_947" data-name="Trazado 947" d="M414.835,257.751a20.524,20.524,0,0,1-7.656,1.321c-11.5-3-5.556-23.779-5.556-23.779l23.336.528s2.734,5.16,2.377,7.443c-.614,3.93-4.631,6.535-5.992,11.569l2.872-.854" transform="translate(-261.669 -153.888)" fill="#ffc2d6"/>
          <path id="Trazado_948" data-name="Trazado 948" d="M413.273,255.7a19.394,19.394,0,0,1-6.184,1.267,4.368,4.368,0,0,1-1.42-.039,8.267,8.267,0,0,1-.858-.3,8.489,8.489,0,0,1-1.457-.828,7.821,7.821,0,0,1-2.021-2.233,10.945,10.945,0,0,1-1.262-3.054,23.086,23.086,0,0,1-.6-7.018,41.134,41.134,0,0,1,.755-6.216c.2-1.056.426-2.115.721-3.15l-.693.528,7.884.178,12.566.284,2.885.065-.621-.356a20.973,20.973,0,0,1,2.228,5.793,4.026,4.026,0,0,1,.081.7,2.342,2.342,0,0,1-.083.811,7.771,7.771,0,0,1-.726,1.935,39.59,39.59,0,0,1-2.547,3.863,18.078,18.078,0,0,0-2.64,5.356.725.725,0,0,0,.884.884l2.872-.854a.719.719,0,0,0-.382-1.386l-2.872.854.884.885a16.488,16.488,0,0,1,2.361-4.815,45.3,45.3,0,0,0,2.657-4.013,6.923,6.923,0,0,0,.987-4.015,15.537,15.537,0,0,0-1.219-4.051c-.38-.905-.785-1.8-1.244-2.672a.72.72,0,0,0-.621-.356l-7.884-.178-12.566-.284-2.886-.065a.731.731,0,0,0-.693.528,42.987,42.987,0,0,0-1.5,9.191c-.274,4.633.132,10.487,4.008,13.673a7.029,7.029,0,0,0,4.226,1.822,21.1,21.1,0,0,0,7.361-1.343.74.74,0,0,0,.5-.885.724.724,0,0,0-.884-.5" transform="translate(-260.298 -152.528)"/>
          <path id="Trazado_949" data-name="Trazado 949" d="M231.468,320.814l-8.355-2.281-1.192-.326.5.885,1.89-6.112-1.2.317,6.7,7.636.951,1.083c.612.7,1.625-.323,1.017-1.017l-6.7-7.636-.951-1.083a.725.725,0,0,0-1.2.317l-1.891,6.112a.728.728,0,0,0,.5.884l8.355,2.281,1.192.326a.72.72,0,0,0,.382-1.387" transform="translate(-144.546 -204.099)"/>
          <path id="Trazado_950" data-name="Trazado 950" d="M118.014,78.456l5.93,3.1.843.441c.819.428,1.547-.812.726-1.242l-5.929-3.1-.843-.441c-.819-.428-1.547.812-.726,1.242" transform="translate(-76.949 -50.442)"/>
          <path id="Trazado_951" data-name="Trazado 951" d="M591.77,298.2l-6.2,2.475-.9.358a.741.741,0,0,0-.5.884.724.724,0,0,0,.885.5l6.2-2.475.9-.357a.741.741,0,0,0,.5-.885.724.724,0,0,0-.884-.5" transform="translate(-382.046 -195.009)"/>
          <path id="Trazado_952" data-name="Trazado 952" d="M419.728,215.073c.446-28.936-28.995-23.689-33.04-22.65s-4.5,4.518-.762,5.332c-5.785,2.717-3.645,7.39-3.645,7.39,2.286,5.8,22.5,2.864,22.5,2.864l-.331,9.569c.245-2.782,2.781-6.353,4.774-6.178s3.467.983,3.215,3.837a10.51,10.51,0,0,1-3.219,5.807s-2.342,7.882,2.712,6.885" transform="translate(-249.769 -125.172)" fill="#ff3e6c"/>
          <path id="Trazado_953" data-name="Trazado 953" d="M419.1,213.712c.073-5.186-.768-10.611-3.638-15.036a19.4,19.4,0,0,0-9.138-7.346,30.419,30.419,0,0,0-10.561-2.007,43.812,43.812,0,0,0-8.458.607,19.816,19.816,0,0,0-2.473.529,4.959,4.959,0,0,0-3.334,2.631,2.669,2.669,0,0,0,.87,3.078,4.948,4.948,0,0,0,2.02.92q-.086-.658-.172-1.314a7.634,7.634,0,0,0-3.984,3.858,5.985,5.985,0,0,0-.263,3.445,5.066,5.066,0,0,0,.238.818c.04.1.171.412.053.129a3.979,3.979,0,0,0,.364.712,5.561,5.561,0,0,0,2.358,1.876,21.066,21.066,0,0,0,7.818,1.46,66.694,66.694,0,0,0,8.172-.221c1.555-.127,3.111-.283,4.655-.507l-.91-.694-.29,8.368-.042,1.2c-.032.939,1.349.9,1.438,0a7.86,7.86,0,0,1,1.562-3.738c.582-.8,1.528-1.781,2.493-1.721a2.6,2.6,0,0,1,2.25,1.124,4.294,4.294,0,0,1-.135,3.4,10.549,10.549,0,0,1-1.969,3.306c-.3.327-.7.488-.848.922-.041.121-.068.248-.1.372a12.151,12.151,0,0,0-.417,4.255,3.931,3.931,0,0,0,1.047,2.481,3.406,3.406,0,0,0,3.071.642c.908-.171.524-1.557-.382-1.387a3.049,3.049,0,0,1-.54.06c-.09,0-.179,0-.268,0-.048,0-.1-.006-.145-.011.075.008.038.007-.015,0-.086-.017-.169-.041-.255-.062-.031-.007-.06-.02-.09-.03-.1-.035.1.048,0,0a2.018,2.018,0,0,1-.184-.1c-.049-.03-.2-.149-.09-.054-.058-.048-.112-.1-.166-.155-.021-.021-.143-.169-.091-.1s-.059-.09-.075-.116c-.045-.076-.086-.153-.127-.231-.075-.144.009.041-.034-.076-.025-.067-.049-.135-.07-.2a4.324,4.324,0,0,1-.12-.493,1.686,1.686,0,0,1-.045-.33c-.015-.18-.025-.359-.028-.54a9.908,9.908,0,0,1,.038-1.017c.014-.165.032-.329.052-.492a.6.6,0,0,1,.013-.093c.012-.082.024-.163.037-.244q.067-.419.158-.834c.064-.294.132-.588.217-.877l-.33.43a8.961,8.961,0,0,0,2.722-3.654,6.783,6.783,0,0,0,.691-4.815,4.067,4.067,0,0,0-4.937-2.31,5.289,5.289,0,0,0-1.861,1.353,9.407,9.407,0,0,0-2.467,5.339h1.438q.145-4.184.29-8.368.021-.6.042-1.2a.73.73,0,0,0-.91-.693l-.251.034c.329-.046-.025,0-.111.014l-.428.054q-1.258.154-2.52.27a74.17,74.17,0,0,1-7.552.344,26.558,26.558,0,0,1-7.572-.9c-.244-.075-.486-.156-.724-.246a5.085,5.085,0,0,1-.609-.265,6.493,6.493,0,0,1-.639-.358c-.082-.052-.161-.108-.241-.163-.023-.016-.175-.134-.036-.024-.058-.046-.116-.093-.172-.142a4.9,4.9,0,0,1-.416-.42c-.023-.026-.129-.169-.018-.018-.03-.042-.062-.083-.09-.127-.06-.094-.119-.187-.172-.285-.024-.045-.148-.318-.067-.13-.023-.053-.052-.13-.081-.193.149.317.014.026-.016-.062a4.431,4.431,0,0,1-.135-2.651,6.033,6.033,0,0,1,3.547-3.672.726.726,0,0,0-.172-1.314,3.384,3.384,0,0,1-1.609-.744,1.16,1.16,0,0,1-.416-.967,4.188,4.188,0,0,1,.1-.418,2.029,2.029,0,0,1,.406-.6,4.106,4.106,0,0,1,1.6-1,15.494,15.494,0,0,1,2.614-.612c.242-.041.483-.082.725-.119l.392-.059.192-.027c.047-.007.287-.039.167-.024l.129-.017.229-.029.472-.056q.472-.053.945-.1a43.176,43.176,0,0,1,4.366-.18q1.224.013,2.446.1.614.045,1.226.112c.206.022.412.047.619.073l.163.021c-.136-.018-.021,0,.005,0l.393.057a27.47,27.47,0,0,1,5.043,1.238,19.968,19.968,0,0,1,4.64,2.338,17.532,17.532,0,0,1,3.9,3.7c2.823,3.757,3.931,8.431,4.12,13.087.03.744.037,1.488.027,2.232a.719.719,0,0,0,1.438,0" transform="translate(-248.418 -123.812)"/>
          <path id="Trazado_954" data-name="Trazado 954" d="M420.64,276.887a20.725,20.725,0,0,0,2.119-1.01s.754.762-.522,1.565c-.916.546-1.6-.555-1.6-.555" transform="translate(-275.11 -180.431)"/>
          <path id="Trazado_955" data-name="Trazado 955" d="M419.471,276.23a20.455,20.455,0,0,0,2.291-1.082l-.871-.112a.6.6,0,0,1,.041.049l-.112-.146a.938.938,0,0,1,.114.2l-.073-.172a.865.865,0,0,1,.06.214c-.009-.064-.017-.128-.026-.191a.81.81,0,0,1,0,.207l.026-.191a.882.882,0,0,1-.061.211l.073-.172a1.176,1.176,0,0,1-.137.227l.112-.145a1.855,1.855,0,0,1-.313.305l.146-.112a1.787,1.787,0,0,1-.384.237l.172-.072a1.081,1.081,0,0,1-.228.063l.191-.026a.99.99,0,0,1-.237,0l.191.026a1.065,1.065,0,0,1-.258-.07l.172.073a1.394,1.394,0,0,1-.292-.173l.146.112a1.954,1.954,0,0,1-.339-.341l.112.145a1.308,1.308,0,0,1-.083-.116.719.719,0,0,0-1.242.726,2.1,2.1,0,0,0,1.733,1.062,1.764,1.764,0,0,0,.848-.249,2.567,2.567,0,0,0,.683-.575,1.712,1.712,0,0,0,.375-.71,1.581,1.581,0,0,0,0-.712,1.55,1.55,0,0,0-.385-.7.736.736,0,0,0-.872-.112c-.622.335-1.257.649-1.908.924l.172-.073c-.07.029-.14.059-.211.086a.781.781,0,0,0-.43.33.719.719,0,0,0,.258.984.7.7,0,0,0,.554.072" transform="translate(-273.75 -179.082)"/>
          <path id="Trazado_956" data-name="Trazado 956" d="M452.757,261.456c.022-.063.047-.125.071-.187s.056-.141.085-.211l.025-.06c.008-.018-.029.067,0,0,.021-.05.043-.1.065-.149a10.124,10.124,0,0,1,.725-1.377,3.756,3.756,0,0,1,.449-.6,3.01,3.01,0,0,1,.276-.267c.024-.02.066-.05.015-.013l.066-.047a1.563,1.563,0,0,1,.146-.089l.068-.034c.018-.009-.062.019.006,0,.05-.015.1-.027.151-.042s-.065,0,0,0c.024,0,.047,0,.071,0s.048,0,.071,0c.055,0-.065-.02.012,0a1.069,1.069,0,0,1,.376.167c-.046-.035.107.122.057.054.017.024.031.05.047.075.03.048-.006-.043.014.032.008.031.016.063.023.094-.017-.07,0-.01,0,.027s0,.064,0,.1c0,.014,0,.027,0,.041,0,.051.013-.064,0-.015s-.027.123-.046.183c-.009.029-.02.058-.031.087,0,.012-.009.024-.014.036-.018.046.028-.061.007-.017a2.4,2.4,0,0,1-.2.357.362.362,0,0,0,.129.492.368.368,0,0,0,.492-.129,1.878,1.878,0,0,0,.389-1.172,1.31,1.31,0,0,0-1.543-1.11,2.337,2.337,0,0,0-1.333.988,8.349,8.349,0,0,0-.916,1.554c-.16.34-.311.688-.438,1.042a.363.363,0,0,0,.251.442.367.367,0,0,0,.442-.251" transform="translate(-295.652 -168.518)"/>
          <path id="Trazado_957" data-name="Trazado 957" d="M393.548,208.833s4.437-1.1,8.009-.061" transform="translate(-257.391 -136.25)" fill="#458dc9"/>
          <path id="Trazado_958" data-name="Trazado 958" d="M392.408,208.164a16.888,16.888,0,0,1,2.474-.395,14.085,14.085,0,0,1,5.153.334.72.72,0,0,0,.382-1.387,15.2,15.2,0,0,0-5.535-.385,19.564,19.564,0,0,0-2.856.446c-.9.221-.518,1.608.382,1.387" transform="translate(-256.061 -134.888)"/>
          <path id="Trazado_959" data-name="Trazado 959" d="M423.588,250.6a2.78,2.78,0,0,1,.339-.189c.025-.012.161-.092.177-.081-.009-.007-.173.066-.023.011l.122-.046a4.651,4.651,0,0,1,.522-.155c.1-.024.2-.042.3-.06.079-.014.11-.014.012,0,.061-.007.121-.013.181-.018a4.276,4.276,0,0,1,.714,0c.01,0,.226.031.085.008.071.012.142.024.213.039.122.025.243.056.363.092a3.5,3.5,0,0,1,.812.356.719.719,0,0,0,.726-1.242,5.231,5.231,0,0,0-3.681-.587,4.568,4.568,0,0,0-1.587.629.719.719,0,0,0,.726,1.242" transform="translate(-276.329 -162.606)"/>
          <path id="Trazado_960" data-name="Trazado 960" d="M400.251,250.678c.042-.02-.184.066,0,0,.162-.056.324-.11.49-.153a5.437,5.437,0,0,1,1.489-.165,2.021,2.021,0,0,1,1.951,1.375,3.47,3.47,0,0,1-.445,2.484,7.537,7.537,0,0,1-.969,1.455,1.663,1.663,0,0,0-.52.842,1.921,1.921,0,0,0,.015.714c.266,1.15,1.6,1.22,2.546,1.1a.742.742,0,0,0,.719-.719.723.723,0,0,0-.719-.719,3.363,3.363,0,0,1-1.194-.025c.03.007.042.027.02-.02.052.111.048-.047.023.061.005-.022.017-.267,0-.188l-.185.317c1.5-1.636,3.118-4.4,1.682-6.561-1.214-1.829-3.789-1.908-5.634-1.042a.725.725,0,0,0-.258.984.735.735,0,0,0,.984.258" transform="translate(-261.072 -162.789)"/>
          <path id="Trazado_961" data-name="Trazado 961" d="M406.163,259.13a.817.817,0,1,1-.824-.809.817.817,0,0,1,.824.809" transform="translate(-264.574 -168.949)"/>
          <path id="Trazado_962" data-name="Trazado 962" d="M405.129,258.449c0,.023,0,.045,0,.068,0,.062,0-.021.005-.029a.528.528,0,0,0-.025.107.258.258,0,0,0-.021.062c0-.007.039-.08.011-.027s-.042.074-.065.111c-.038.061.046-.045.011-.014-.013.011-.024.027-.036.04s-.063.046-.078.072c.026-.043.054-.038.021-.018s-.036.023-.054.034l-.038.02-.039.018c.049-.02.061-.026.036-.016s-.07.023-.1.03-.046-.011.019,0a.283.283,0,0,0-.056,0c-.038,0-.076,0-.114,0s.093.018.018,0l-.064-.015-.062-.02c-.039-.012-.005-.021.026.012a.52.52,0,0,0-.094-.051c-.015-.009-.029-.021-.044-.029-.041-.022.066.06.014.01-.031-.029-.061-.059-.09-.09s.016.016.017.023c0-.011-.029-.043-.035-.053a.573.573,0,0,0-.05-.1c.006.007.028.082.012.026-.006-.021-.013-.042-.019-.063s-.007-.029-.01-.043c-.017-.07.006.088,0,0a.847.847,0,0,1,0-.1c0-.032.022-.089,0,.007,0-.014,0-.029.008-.044.008-.036.019-.07.03-.1.022-.074-.039.073,0,.006.01-.019.019-.038.03-.057l.028-.045c.027-.044.033-.008-.012.013.022-.01.054-.06.072-.078s.028-.022.04-.035c.032-.034-.075.049-.014.011.037-.023.073-.044.111-.064s0,.017-.026.011c.012,0,.05-.017.062-.02l.043-.011c.016,0,.077,0,.018-.006s.008,0,.019,0l.057,0,.057,0c.075,0-.075-.017-.007,0,.043.01.084.021.127.034.07.021-.056-.033-.016-.008.02.014.045.022.066.035l.036.022.035.024c-.044-.035-.052-.04-.023-.016s.052.048.076.074l.014.016c.024.029.018.022-.017-.022a.294.294,0,0,0,.035.053c.011.018.022.037.031.056l.01.019c.016.035.012.026-.011-.026a.565.565,0,0,0,.037.126c.009.036-.013.03,0-.029a.542.542,0,0,0,.006.09.359.359,0,0,0,.719,0,1.2,1.2,0,0,0-.795-1.1,1.173,1.173,0,0,0-1.275.349,1.175,1.175,0,1,0,2.07.755.359.359,0,0,0-.719,0" transform="translate(-263.899 -168.268)"/>
          <path id="Trazado_963" data-name="Trazado 963" d="M428.4,258.928a.817.817,0,1,1-.824-.809.816.816,0,0,1,.824.809" transform="translate(-279.116 -168.817)"/>
          <path id="Trazado_964" data-name="Trazado 964" d="M427.364,258.247c0,.023,0,.045,0,.068,0,.062,0-.021.005-.029a.539.539,0,0,0-.025.107.26.26,0,0,0-.021.062c0-.007.04-.08.01-.027s-.042.074-.065.111c-.038.061.046-.045.011-.014-.013.011-.024.027-.036.04s-.063.046-.078.072c.026-.043.054-.038.021-.018s-.036.024-.054.034l-.038.02-.039.018c.05-.02.061-.026.036-.016s-.07.023-.1.03-.046-.011.019,0a.312.312,0,0,0-.056,0c-.038,0-.076,0-.114,0s.093.018.018,0l-.064-.015-.062-.02c-.039-.012,0-.021.026.012a.525.525,0,0,0-.094-.051c-.015-.009-.029-.021-.044-.029-.041-.022.066.06.014.01-.031-.029-.061-.059-.09-.09s.016.016.017.023c0-.011-.029-.043-.035-.053a.574.574,0,0,0-.05-.1c.006.007.028.082.012.026-.006-.021-.014-.042-.019-.063s-.007-.029-.01-.043c-.017-.07.006.088,0,0a.835.835,0,0,1,0-.1c0-.032.022-.089,0,.007,0-.014.005-.029.008-.044.008-.036.019-.07.03-.1.022-.074-.039.073,0,.006.01-.019.019-.038.03-.057l.028-.045c.027-.044.033-.008-.012.013.022-.01.054-.06.072-.077s.028-.022.04-.035c.032-.034-.075.049-.013.011.037-.022.073-.044.111-.064s0,.017-.026.011c.012,0,.05-.017.062-.02l.043-.011c.016,0,.078,0,.018-.006s.008,0,.019,0l.057,0,.057,0c.075,0-.075-.017-.007,0,.043.01.084.021.127.034.07.021-.056-.033-.016-.008.02.014.045.023.066.035l.036.022.035.024c-.044-.035-.052-.041-.023-.016s.052.048.076.074l.014.016q.036.044-.017-.022a.316.316,0,0,0,.035.053c.011.018.022.037.031.056l.01.019q.024.052-.011-.026a.569.569,0,0,0,.037.126c.01.036-.013.03,0-.029a.5.5,0,0,0,.006.09.359.359,0,1,0,.719,0,1.2,1.2,0,0,0-.795-1.1,1.173,1.173,0,0,0-1.275.349,1.175,1.175,0,1,0,2.07.755.359.359,0,1,0-.719,0" transform="translate(-278.441 -168.136)"/>
          <path id="Trazado_965" data-name="Trazado 965" d="M1.994,490.352c2.346-1,269-12.124,269-12.124l59.671,73.894Z" transform="translate(-1.304 -312.774)" fill="#ffcc3e"/>
          <path id="Trazado_966" data-name="Trazado 966" d="M.875,489.779c.235-.092.12-.029.182-.037.255-.035.513-.052.77-.074.92-.08,1.841-.137,2.762-.2,3.289-.21,6.58-.384,9.872-.557,11.38-.6,22.763-1.127,34.146-1.655q23.479-1.088,46.961-2.119,26.256-1.162,52.514-2.294,25.364-1.1,50.727-2.175,20.8-.886,41.6-1.762,12.567-.53,25.135-1.056l2.889-.121a3.761,3.761,0,0,0,1.215-.051c-.359.2-.428-.486-.316-.04.075.3.6.744.791.98l3.514,4.352,28.895,35.782,24.978,30.932,1.359,1.683.68-1.167-8.777-1.65-23.89-4.49L261.411,537.4l-43.141-8.108-47.248-8.879-47.69-8.963L78.863,503.09,41.17,496.005l-26.991-5.073c-4.254-.8-8.505-1.625-12.764-2.4-.18-.033-.359-.067-.539-.1C0,488.267-.38,489.613.5,489.779l8.777,1.65,23.889,4.49,35.471,6.667,43.141,8.108,47.248,8.88,47.691,8.963,44.468,8.358,37.693,7.084,26.991,5.073c4.255.8,8.505,1.625,12.765,2.4l.539.1a.7.7,0,0,0,.68-1.167l-18.735-23.2-31.379-38.858-8.793-10.889a2.266,2.266,0,0,0-2.491-1.1q-9.9.413-19.794.83-19.192.808-38.383,1.622-24.735,1.05-49.469,2.114-26.459,1.138-52.917,2.3-24.549,1.079-49.1,2.194-18.98.867-37.957,1.8c-6.387.32-12.81.51-19.18,1.094a4.459,4.459,0,0,0-1.159.147c-.827.326-.467,1.677.371,1.347" transform="translate(0 -311.528)"/>
        </g>
      </g>
    </g>
  </g>
</svg>
